<svg xmlns="http://www.w3.org/2000/svg" viewBox="0 0 58.62428 61.83464"><defs><style>.a{fill:#3c3c3b;}</style></defs><path class="a" d="M16.691,57.05022l.428-7.66821a.65433.65433,0,0,1,.02393-.16163.219.219,0,0,1,.13843-.11572.244.244,0,0,1,.18334.00293l1.23584.55884a.33525.33525,0,0,1,.17676.15356.53346.53346,0,0,1,.03955.23938l-.166,2.81629a1.26112,1.26112,0,0,0,.84424-.15344,1.58519,1.58519,0,0,0,.606-.74109l.4895-1.08289a.30752.30752,0,0,1,.16163-.16687.26338.26338,0,0,1,.2185.00659l1.07251.48487a.261.261,0,0,1,.14185.16259.30106.30106,0,0,1-.01123.22876l-.52637,1.16455a2.893,2.893,0,0,1-1.28589,1.44239,3.37306,3.37306,0,0,1-1.81958.36462l-.17017,3.09741a.42563.42563,0,0,1-.02368.1615.22984.22984,0,0,1-.31152.11743l-1.22583-.5542A.36617.36617,0,0,1,16.691,57.05022Z"/><path class="a" d="M25.10386,58.25347a.26322.26322,0,0,1-.04932-.213l.55005-3.27246a1.12469,1.12469,0,0,0-1.03736-1.47033l-1.68042-.28248a.28771.28771,0,0,1-.23-.32287l.15992-.95081a.264.264,0,0,1,.11621-.18506.27916.27916,0,0,1,.20654-.0448l1.74683.29371a3.57859,3.57859,0,0,1,2.18823,1.01574,2.58313,2.58313,0,0,1,.40967,2.1947L26.923,58.35466a.27927.27927,0,0,1-.11011.18042.26367.26367,0,0,1-.21289.04944l-1.30444-.21936A.29228.29228,0,0,1,25.10386,58.25347Z"/><path class="a" d="M32.7396,54.11687q.10912.5843.39013.6228l.32691.04163a.34661.34661,0,0,1,.25122.30664l.13037.63708a.24439.24439,0,0,1-.08862.22754.361.361,0,0,1-.24781.109l-.5874.02991a1.40687,1.40687,0,0,1-1.06592-.45679,2.53507,2.53507,0,0,1-.64331-1.36816l-.30883-1.653a.2692.2692,0,0,1,.22412-.327l2.17114-.40528a2.83557,2.83557,0,0,1,2.26684.35218,3.1298,3.1298,0,0,1,1.13819,1.94287l.86084,4.54931a.2688.2688,0,0,1-.22412.327l-1.24512.23242a.27926.27926,0,0,1-.20728-.041.2636.2636,0,0,1-.11962-.18311l-.85206-4.56225a1.402,1.402,0,0,0-.512-.87952A1.27548,1.27548,0,0,0,33.39438,53.47l-.74731.151Z"/><path class="a" d="M41.60971,48.926a.273.273,0,0,1,.15772.14844l.41455.87048a.27769.27769,0,0,1,.01343.21082.26336.26336,0,0,1-.146.16272l-.46557.2218a1.71545,1.71545,0,0,0,.05859.60522,4.01583,4.01583,0,0,0,.27637.75l1.40283,2.94544a.2093.2093,0,0,1-.02149.20263.38123.38123,0,0,1-.166.15979l-1.18433.564a.23148.23148,0,0,1-.32861-.1167l-1.45581-3.05664a2.41959,2.41959,0,0,1-.33252-1.22l-2.30762,1.09912a.28727.28727,0,0,1-.37353-.13257l-.41455-.87036a.264.264,0,0,1-.011-.21851.27894.27894,0,0,1,.14331-.15515l4.52441-2.15466A.27353.27353,0,0,1,41.60971,48.926Z"/></svg>