<svg xmlns="http://www.w3.org/2000/svg" viewBox="0 0 58.62428 61.83466"><defs><style>.a{fill:#e30613;}</style></defs><path class="a" d="M16.69089,57.05024l.42823-7.66822a.64638.64638,0,0,1,.02368-.16162.21834.21834,0,0,1,.13842-.11572.244.244,0,0,1,.18335.00293l1.23609.55884a.33553.33553,0,0,1,.17651.15356.53049.53049,0,0,1,.03931.23938l-.166,2.81629a1.26245,1.26245,0,0,0,.84473-.15345,1.58478,1.58478,0,0,0,.60571-.74109l.4895-1.08288a.30745.30745,0,0,1,.16163-.16687.26337.26337,0,0,1,.2185.00659l1.07251.48486a.26247.26247,0,0,1,.14185.1626.30106.30106,0,0,1-.01123.22876l-.52637,1.16455a2.893,2.893,0,0,1-1.28589,1.44239,3.37363,3.37363,0,0,1-1.81958.36462l-.17017,3.09741a.42563.42563,0,0,1-.02368.1615.22984.22984,0,0,1-.31152.11743l-1.22583-.5542A.36618.36618,0,0,1,16.69089,57.05024Z"/><path class="a" d="M25.10373,58.25348a.26322.26322,0,0,1-.04931-.213l.55-3.27246a1.1247,1.1247,0,0,0-1.03736-1.47034l-1.68042-.28247a.28721.28721,0,0,1-.23-.32287l.15992-.95081a.26347.26347,0,0,1,.11645-.18506.27834.27834,0,0,1,.2063-.0448l1.74683.2937a3.57651,3.57651,0,0,1,2.188,1.01575,2.58312,2.58312,0,0,1,.40992,2.1947l-.56128,3.33887a.27991.27991,0,0,1-.10987.18042.26443.26443,0,0,1-.21313.04944l-1.30445-.21936A.2923.2923,0,0,1,25.10373,58.25348Z"/><path class="a" d="M32.73948,54.11689q.10912.58428.38989.6228l.32715.04163a.3466.3466,0,0,1,.25122.30664l.13037.63708a.24439.24439,0,0,1-.08862.22754.36058.36058,0,0,1-.24781.109l-.5874.02991a1.40771,1.40771,0,0,1-1.06616-.45679,2.53665,2.53665,0,0,1-.64307-1.36816l-.30859-1.653a.26886.26886,0,0,1,.22388-.327l2.17114-.40527a2.83485,2.83485,0,0,1,2.2666.35217,3.129,3.129,0,0,1,1.13843,1.94288l.86084,4.54931a.26886.26886,0,0,1-.22388.327l-1.24536.23242a.27922.27922,0,0,1-.20728-.041.26434.26434,0,0,1-.11962-.1831l-.85206-4.56226a1.402,1.402,0,0,0-.512-.87951A1.27529,1.27529,0,0,0,33.39426,53.47l-.74731.151Z"/><path class="a" d="M41.60984,48.926a.274.274,0,0,1,.15747.14844l.41455.87048a.27769.27769,0,0,1,.01343.21082.26265.26265,0,0,1-.146.16272l-.46557.2218a1.7211,1.7211,0,0,0,.05859.60522,3.984,3.984,0,0,0,.27661.75l1.40259,2.94544a.2093.2093,0,0,1-.02149.20263.38123.38123,0,0,1-.166.15979l-1.18433.564a.23132.23132,0,0,1-.32861-.1167l-1.45581-3.05664a2.417,2.417,0,0,1-.33252-1.22l-2.30786,1.09912a.2875.2875,0,0,1-.37354-.13257l-.41455-.87036a.26484.26484,0,0,1-.01074-.21851.27977.27977,0,0,1,.14331-.15515l4.52441-2.15466A.27407.27407,0,0,1,41.60984,48.926Z"/></svg>