<svg xmlns="http://www.w3.org/2000/svg" viewBox="0 0 60.52856 61.84955"><defs><style>.a{fill:#e30613;}</style></defs><path class="a" d="M5.09668,44.4184a.26309.26309,0,0,1,.1333-.17334L8.10913,42.5954a1.12473,1.12473,0,0,0,.479-1.73462L7.741,39.38227a.28778.28778,0,0,1,.104-.38257l.83643-.47925a.26348.26348,0,0,1,.21679-.02734.27957.27957,0,0,1,.16577.1311l.88062,1.53687a3.57931,3.57931,0,0,1,.60205,2.33618,2.58325,2.58325,0,0,1-1.43725,1.70849L6.17188,45.8891a.27841.27841,0,0,1-.20923.0293.26425.26425,0,0,1-.17334-.1333l-.65772-1.14771A.29272.29272,0,0,1,5.09668,44.4184Z"/><path class="a" d="M7.499,47.82929a.26363.26363,0,0,1,.09693-.196L11.99927,43.796a.26368.26368,0,0,1,.20727-.06921.29393.29393,0,0,1,.19556.10474l.92065,1.05652a.26864.26864,0,0,1-.0271.39538l-4.40356,3.8374a.27893.27893,0,0,1-.19946.06983.26378.26378,0,0,1-.1958-.09693l-.9209-1.05651A.2924.2924,0,0,1,7.499,47.82929Z"/><path class="a" d="M18.73022,49.48371a.2739.2739,0,0,1-.05761.20862l-1.9834,2.6604A2.43612,2.43612,0,0,1,14.96655,53.369a4.11288,4.11288,0,0,1-2.32983-.51355l-2.66284-1.23a.25708.25708,0,0,1-.1416-.17554.24929.24929,0,0,1,.04418-.21875l.583-.782a.2902.2902,0,0,1,.17554-.11377.32171.32171,0,0,1,.21191.02515l1.17871.50122,1.77393-4.59253a1.46144,1.46144,0,0,1,.08887-.21338.23017.23017,0,0,1,.314-.04565l1.16846.87109a.27317.27317,0,0,1,.10449.14087.24318.24318,0,0,1,.00147.148L13.635,51.5163a1.54391,1.54391,0,0,0,1.044-.012,2.20846,2.20846,0,0,0,.82617-.7334L17.15356,48.56a.26841.26841,0,0,1,.39209-.05713l1.06983.79737A.274.274,0,0,1,18.73022,49.48371Z"/><path class="a" d="M18.32642,53.144a.26431.26431,0,0,1,.00708-.21851l1.31836-2.89819a.26411.26411,0,0,1,.16015-.14893.29341.29341,0,0,1,.22119.01453l1.27564.5802a.26913.26913,0,0,1,.13916.37121l-1.31836,2.89808a.27846.27846,0,0,1-.15283.146.26282.26282,0,0,1-.21827-.007l-1.27563-.5802A.29348.29348,0,0,1,18.32642,53.144Z"/><path class="a" d="M29.51489,52.58185a.27407.27407,0,0,1,.04029.21265l-.53467,2.88818a3.29411,3.29411,0,0,1-.75611,1.62146,3.04007,3.04007,0,0,1-1.41064.90747,3.56124,3.56124,0,0,1-1.75806.07373l-1.05835-.196a3.3725,3.3725,0,0,1-1.48-.62732,2.48447,2.48447,0,0,1-.8374-1.11267,2.52291,2.52291,0,0,1-.1084-1.354l.65723-3.54957a.2633.2633,0,0,1,.11938-.1831.29215.29215,0,0,1,.218-.03955l1.15772.21435a.26861.26861,0,0,1,.22436.32666l-.47876,2.64759a1.03312,1.03312,0,0,0,.92261-.30237,2.2884,2.2884,0,0,0,.45581-1.10706l.18774-1.01416a.29587.29587,0,0,1,.12232-.19958.28118.28118,0,0,1,.21924-.04492l1.14648.21215a.26176.26176,0,0,1,.17676.12391.3025.3025,0,0,1,.0437.22473l-.19165,1.03613a2.91968,2.91968,0,0,1-1.01782,1.86389,2.78137,2.78137,0,0,1-1.998.50806,1.44972,1.44972,0,0,0,.45679.64319,1.61086,1.61086,0,0,0,.73144.32922l.25342.047a2.23112,2.23112,0,0,0,1.05713-.04383,1.78,1.78,0,0,0,.82373-.50878,1.726,1.726,0,0,0,.42285-.86805l.52442-2.833a.2691.2691,0,0,1,.32666-.22461l1.15747.21435A.27369.27369,0,0,1,29.51489,52.58185Z"/><path class="a" d="M34.49048,53.37153l-1.74512.36291a.28739.28739,0,0,1-.33154-.21741l-.19629-.94384a.26436.26436,0,0,1,.04126-.21473.27944.27944,0,0,1,.176-.11682l1.81128-.37646a3.59837,3.59837,0,0,1,2.41187.14551,2.59059,2.59059,0,0,1,1.17432,1.90283l.97192,4.67578a.26868.26868,0,0,1-.21729.33154L37.29175,59.19a.293.293,0,0,1-.219-.03455.26321.26321,0,0,1-.12329-.18042L35.991,54.36493A1.12475,1.12475,0,0,0,34.49048,53.37153Z"/><path class="a" d="M43.803,55.17206a.26328.26328,0,0,1-.16553-.14306l-1.48364-2.96827a1.12454,1.12454,0,0,0-1.70435-.57678l-1.52441.76184a.28754.28754,0,0,1-.376-.12548l-.43091-.86231a.26391.26391,0,0,1-.01513-.21814.27885.27885,0,0,1,.14038-.15784l1.58447-.792a3.578,3.578,0,0,1,2.36646-.46838,2.58308,2.58308,0,0,1,1.62426,1.53186l1.51368,3.02856a.27951.27951,0,0,1,.01733.21057.2634.2634,0,0,1-.14282.16541l-1.18335.59143A.29226.29226,0,0,1,43.803,55.17206Z"/><path class="a" d="M47.73169,44.38886a.27378.27378,0,0,1,.19385.09668l2.23193,2.45557a2.43709,2.43709,0,0,1,.668,1.885,4.11319,4.11319,0,0,1-.94971,2.18872l-1.71679,2.37829a.25674.25674,0,0,1-.19922.10559.24959.24959,0,0,1-.2063-.0852l-.656-.72193a.28942.28942,0,0,1-.07812-.19409.32064.32064,0,0,1,.06543-.20324l.71728-1.06092-4.16846-2.61963a1.39633,1.39633,0,0,1-.19238-.12817.22944.22944,0,0,1,.01514-.31665l1.07837-.98023a.272.272,0,0,1,.15845-.0758.24566.24566,0,0,1,.1455.02673l3.91358,2.63916a1.54377,1.54377,0,0,0,.188-1.02673,2.21118,2.21118,0,0,0-.56177-.95142l-1.855-2.04089a.26889.26889,0,0,1,.0188-.39587l.9873-.89734A.27429.27429,0,0,1,47.73169,44.38886Z"/><path class="a" d="M51.78467,39.04853a2.7082,2.7082,0,0,1,2.13305.41687l2.92237,1.70984a.28.28,0,0,1,.12964.16674.26476.26476,0,0,1-.02954.21668l-1.54541,2.64148a.2874.2874,0,0,1-.38355.10046l-.832-.48694a.26338.26338,0,0,1-.13184-.17443.27823.27823,0,0,1,.0315-.209l.73022-1.24817-1.77075-1.03613a1.3485,1.3485,0,0,0-.92529-.21667.91729.91729,0,0,0-.64844.46472l-.44189.75488,3.41845,3.104a.34223.34223,0,0,1,.13379.18213.26476.26476,0,0,1-.02954.21668l-.65112,1.11267a.28176.28176,0,0,1-.17725.13659.21977.21977,0,0,1-.21-.05151l-3.3352-3.22424-.37354.63867a.26335.26335,0,0,1-.17456.13159.29175.29175,0,0,1-.21851-.03686l-.89038-.521a.26358.26358,0,0,1-.13159-.17432.278.278,0,0,1,.03125-.209l1.81738-3.10608A2.64929,2.64929,0,0,1,51.78467,39.04853Z"/></svg>