<svg xmlns="http://www.w3.org/2000/svg" viewBox="0 0 60.52856 61.84954"><defs><style>.a{fill:#3c3c3b;}</style></defs><path class="a" d="M5.09668,44.41838A.26309.26309,0,0,1,5.23,44.245l2.87915-1.64966a1.12472,1.12472,0,0,0,.479-1.73461L7.741,39.38225a.2874.2874,0,0,1,.10376-.38257l.83667-.47925a.26348.26348,0,0,1,.21679-.02734.27957.27957,0,0,1,.16577.1311l.88062,1.53687a3.57932,3.57932,0,0,1,.60205,2.33618,2.58326,2.58326,0,0,1-1.43725,1.7085l-2.9375,1.68335a.27857.27857,0,0,1-.20923.02929.2637.2637,0,0,1-.17334-.1333l-.65772-1.1477A.29275.29275,0,0,1,5.09668,44.41838Z"/><path class="a" d="M7.499,47.82927a.26276.26276,0,0,1,.09693-.196L11.99927,43.796a.26337.26337,0,0,1,.20727-.06922.29393.29393,0,0,1,.19556.10474l.92065,1.05652a.26891.26891,0,0,1-.02734.39538L8.89209,49.12078a.279.279,0,0,1-.19946.06982.26377.26377,0,0,1-.1958-.09692l-.92066-1.05652A.29159.29159,0,0,1,7.499,47.82927Z"/><path class="a" d="M18.73022,49.48369a.2739.2739,0,0,1-.05761.20862l-1.9834,2.6604a2.43611,2.43611,0,0,1-1.72241,1.01623,4.11365,4.11365,0,0,1-2.33008-.51355l-2.6626-1.23a.25678.25678,0,0,1-.14184-.17553.24928.24928,0,0,1,.04418-.21875l.583-.782a.28933.28933,0,0,1,.17578-.11376.32209.32209,0,0,1,.21192.02514l1.17846.50122,1.77369-4.59253a1.37969,1.37969,0,0,1,.08935-.21338.22974.22974,0,0,1,.31372-.04565l1.16822.87109a.27109.27109,0,0,1,.10473.14087.24513.24513,0,0,1,.00171.148l-1.8418,4.34619a1.54242,1.54242,0,0,0,1.04346-.012,2.20894,2.20894,0,0,0,.82642-.7334L17.15356,48.56a.26864.26864,0,0,1,.39234-.05712l1.06933.79736A.27346.27346,0,0,1,18.73022,49.48369Z"/><path class="a" d="M18.32666,53.144a.26336.26336,0,0,1,.00684-.21851l1.31836-2.89819a.26476.26476,0,0,1,.16015-.14893.29341.29341,0,0,1,.22119.01453l1.27564.5802a.2688.2688,0,0,1,.13891.37122l-1.31811,2.89807a.27875.27875,0,0,1-.15259.146.264.264,0,0,1-.21875-.007l-1.27539-.5802A.29225.29225,0,0,1,18.32666,53.144Z"/><path class="a" d="M29.51465,52.58183a.27315.27315,0,0,1,.04053.21265l-.53467,2.88819a3.29415,3.29415,0,0,1-.75611,1.62146,3.03974,3.03974,0,0,1-1.41088.90747,3.56038,3.56038,0,0,1-1.75782.07373l-1.05835-.196a3.37117,3.37117,0,0,1-1.48-.62732,2.48386,2.48386,0,0,1-.83716-1.11267,2.51818,2.51818,0,0,1-.10864-1.354l.657-3.54956a.26441.26441,0,0,1,.11963-.18311.29257.29257,0,0,1,.21827-.03955l1.15722.21436a.26855.26855,0,0,1,.22461.32666l-.47851,2.64758a1.03287,1.03287,0,0,0,.92236-.30237,2.2884,2.2884,0,0,0,.45581-1.10705l.18774-1.01417a.295.295,0,0,1,.12232-.19958.28118.28118,0,0,1,.21924-.04492l1.14648.21216a.26075.26075,0,0,1,.17651.1239.29923.29923,0,0,1,.04395.22473l-.19189,1.03613a2.91735,2.91735,0,0,1-1.01758,1.86389,2.78132,2.78132,0,0,1-1.998.50806,1.44972,1.44972,0,0,0,.45679.64319,1.61086,1.61086,0,0,0,.73144.32922l.25342.047a2.231,2.231,0,0,0,1.05713-.04382,1.78,1.78,0,0,0,.82373-.50879,1.72644,1.72644,0,0,0,.4231-.868l.52441-2.833a.26875.26875,0,0,1,.32642-.22461l1.15747.21435A.27322.27322,0,0,1,29.51465,52.58183Z"/><path class="a" d="M34.49048,53.37151l-1.74512.36291a.28739.28739,0,0,1-.33154-.2174l-.19629-.94385a.26433.26433,0,0,1,.04126-.21472.2799.2799,0,0,1,.17627-.11682l1.811-.37647a3.59836,3.59836,0,0,1,2.41187.14551,2.59133,2.59133,0,0,1,1.17432,1.90283l.97192,4.67578a.26868.26868,0,0,1-.21729.33154L37.29175,59.19a.29293.29293,0,0,1-.219-.03455.265.265,0,0,1-.12353-.18042l-.95825-4.6101A1.12483,1.12483,0,0,0,34.49048,53.37151Z"/><path class="a" d="M43.80273,55.172a.264.264,0,0,1-.16528-.14306l-1.48364-2.96826a1.12472,1.12472,0,0,0-1.70459-.57679l-1.52417.76185a.28733.28733,0,0,1-.376-.12549l-.43091-.86231a.2639.2639,0,0,1-.01513-.21814.27883.27883,0,0,1,.14038-.15783l1.58447-.792a3.578,3.578,0,0,1,2.36646-.46838,2.58308,2.58308,0,0,1,1.62426,1.53186L45.332,54.18205a.2773.2773,0,0,1,.01758.21058.2634.2634,0,0,1-.14282.1654l-1.18335.59143A.29283.29283,0,0,1,43.80273,55.172Z"/><path class="a" d="M47.73169,44.38884a.27378.27378,0,0,1,.19385.09668l2.23193,2.45557a2.43622,2.43622,0,0,1,.668,1.885,4.115,4.115,0,0,1-.94971,2.18872l-1.71655,2.37829a.25808.25808,0,0,1-.19971.1056.24973.24973,0,0,1-.20605-.08521l-.656-.72192a.28946.28946,0,0,1-.07812-.1941.3219.3219,0,0,1,.06518-.20324l.71729-1.06092L43.6333,48.6137a1.38558,1.38558,0,0,1-.19214-.12818.22944.22944,0,0,1,.01514-.31665l1.07837-.98022a.272.272,0,0,1,.15845-.07581.24538.24538,0,0,1,.1455.02673l3.91358,2.63916a1.54377,1.54377,0,0,0,.188-1.02673,2.21118,2.21118,0,0,0-.56177-.95142l-1.855-2.04089a.26865.26865,0,0,1,.019-.39587l.98706-.89734A.27392.27392,0,0,1,47.73169,44.38884Z"/><path class="a" d="M51.78467,39.04851a2.70824,2.70824,0,0,1,2.13305.41687l2.92212,1.70984a.27856.27856,0,0,1,.12989.16675.26373.26373,0,0,1-.0293.21667l-1.54565,2.64148a.2874.2874,0,0,1-.38355.10046l-.832-.48693a.26416.26416,0,0,1-.13184-.17444.28041.28041,0,0,1,.03125-.209l.73047-1.24817-1.77075-1.03613a1.34824,1.34824,0,0,0-.92529-.21667.91726.91726,0,0,0-.64868.46472l-.44141.75488,3.41821,3.104a.3405.3405,0,0,1,.13355.18212.26375.26375,0,0,1-.0293.21668l-.65088,1.11267a.2828.2828,0,0,1-.17749.1366.22038.22038,0,0,1-.2102-.05152l-3.335-3.22424-.37354.63867a.26276.26276,0,0,1-.17456.13159.29175.29175,0,0,1-.21851-.03686l-.89038-.521a.26359.26359,0,0,1-.13159-.17431.27915.27915,0,0,1,.03125-.209l1.81738-3.10608A2.64932,2.64932,0,0,1,51.78467,39.04851Z"/></svg>