<svg xmlns="http://www.w3.org/2000/svg" viewBox="0 0 58.62428 61.88715"><defs><style>.a{fill:#e30613;}</style></defs><path class="a" d="M20.47674,51.33759a2.59078,2.59078,0,0,1-.29785,2.20068l-1.59741,2.97254a.27888.27888,0,0,1-.16187.13562.26324.26324,0,0,1-.21753-.02149l-1.16528-.62609a.29038.29038,0,0,1-.14551-.16736.26287.26287,0,0,1,.02124-.21753l1.5708-2.9231a1.12463,1.12463,0,0,0-.511-1.72534l-.64185-.345a6.80021,6.80021,0,0,0-.92822,1.37207l-1.31665,2.63965a.26321.26321,0,0,1-.16944.13794.29337.29337,0,0,1-.22-.02906l-2.08813-1.13488a.29118.29118,0,0,1-.14551-.16736.26205.26205,0,0,1,.02148-.21753l.41919-.78a.26321.26321,0,0,1,.16944-.13794.29226.29226,0,0,1,.22.029l.7998.42969.833-1.55029a6.06055,6.06055,0,0,1,.93359-1.38208l-.58252-.313a.29206.29206,0,0,1-.1455-.16724.26233.26233,0,0,1,.02148-.21765l.4563-.84924a.26357.26357,0,0,1,.16943-.13794.29226.29226,0,0,1,.22.029l2.75513,1.48047A3.47846,3.47846,0,0,1,20.47674,51.33759Z"/><path class="a" d="M20.95794,57.34968a.26375.26375,0,0,1-.02978-.21656l1.49072-5.64734a.26355.26355,0,0,1,.13281-.1737.2921.2921,0,0,1,.22046-.023l1.355.35754a.26894.26894,0,0,1,.19946.34253l-1.49047,5.64746a.2802.2802,0,0,1-.126.16968.26441.26441,0,0,1-.2168.02979l-1.35473-.35767A.29153.29153,0,0,1,20.95794,57.34968Z"/><path class="a" d="M28.163,58.53168a.26431.26431,0,0,1-.07153-.20666l.20483-3.31214a1.12473,1.12473,0,0,0-1.18555-1.35363l-1.70092-.10511a.28763.28763,0,0,1-.26246-.297l.05957-.96228a.26367.26367,0,0,1,.09644-.19629.27887.27887,0,0,1,.20068-.06617l1.76783.10926a3.57841,3.57841,0,0,1,2.28247.78125,2.58423,2.58423,0,0,1,.6372,2.13977l-.209,3.37915a.27954.27954,0,0,1-.09033.191.264.264,0,0,1-.20655.07141l-1.32055-.08154A.29275.29275,0,0,1,28.163,58.53168Z"/><path class="a" d="M33.26531,57.82734a2.68586,2.68586,0,0,1-1.20166-1.84888l-.73486-3.36231a.264.264,0,0,1,.03906-.21508.27976.27976,0,0,1,.175-.11866l1.13892-.24877a.29352.29352,0,0,1,.21948.03222.26441.26441,0,0,1,.12524.1792l.72266,3.30762a1.15735,1.15735,0,0,0,.55591.83679,1.5228,1.5228,0,0,0,1.05688.08459,1.09706,1.09706,0,0,0,.98169-1.44238,2.51534,2.51534,0,0,0-.05932-.29687q-.04614-.18494-.06763-.28357l-.05249-.241a2.02326,2.02326,0,0,0-.41772-.91284.64013.64013,0,0,0-.64234-.2096,1.31666,1.31666,0,0,0-.31347.11451,1.0804,1.0804,0,0,0-.25538.17041.3492.3492,0,0,1-.094.04345.23644.23644,0,0,1-.1853-.03405.25.25,0,0,1-.1106-.16517l-.18921-.86523a.44126.44126,0,0,1,.11963-.45068,2.11716,2.11716,0,0,1,1.00586-.43787,2.16988,2.16988,0,0,1,1.86279.25281,3.17577,3.17577,0,0,1,.9668,1.82556l.17481.79944.07666.35058q.46581,2.70978-2.4585,3.34864A3.31168,3.31168,0,0,1,33.26531,57.82734Z"/><path class="a" d="M43.23358,48.52765a2.70736,2.70736,0,0,1,1.64575,1.41956l1.68994,2.93384a.27937.27937,0,0,1,.03.2091.26436.26436,0,0,1-.13306.17359l-2.6521,1.52759a.28729.28729,0,0,1-.38257-.10291l-.4812-.83545a.26372.26372,0,0,1-.02783-.2168.2789.2789,0,0,1,.13062-.166l1.25317-.7218L43.2824,50.97065a1.34745,1.34745,0,0,0-.69628-.647.91654.91654,0,0,0-.79346.082l-.75781.4364,1.42919,4.3905a.33942.33942,0,0,1,.02588.22449.26321.26321,0,0,1-.13281.17358l-1.11719.64343a.28126.28126,0,0,1-.22168.03077.22037.22037,0,0,1-.157-.14893L39.5639,51.70234l-.64111.36938a.26437.26437,0,0,1-.21705.02783.29187.29187,0,0,1-.17138-.14062l-.5149-.89356a.26394.26394,0,0,1-.02783-.21692.2803.2803,0,0,1,.13086-.16589L41.2409,48.8863A2.64818,2.64818,0,0,1,43.23358,48.52765Z"/></svg>