<svg xmlns="http://www.w3.org/2000/svg" viewBox="0 0 58.62428 61.88713"><defs><style>.a{fill:#3c3c3b;}</style></defs><path class="a" d="M20.4771,51.33757a2.59267,2.59267,0,0,1-.29809,2.20069L18.5816,56.51079a.27885.27885,0,0,1-.16187.13562.26324.26324,0,0,1-.21753-.02148l-1.16528-.6261a.29248.29248,0,0,1-.14575-.16736.26477.26477,0,0,1,.02148-.21753l1.5708-2.9231a1.12463,1.12463,0,0,0-.511-1.72534l-.64185-.345a6.81056,6.81056,0,0,0-.92822,1.37207l-1.31665,2.63965a.26321.26321,0,0,1-.16944.13794.29337.29337,0,0,1-.22-.029l-2.08813-1.13489a.29245.29245,0,0,1-.14575-.16736.26477.26477,0,0,1,.02148-.21753l.41943-.78a.26264.26264,0,0,1,.16944-.13794.29222.29222,0,0,1,.22.02906l.7998.42968.83326-1.55029a6.052,6.052,0,0,1,.93334-1.38208l-.58251-.313a.29338.29338,0,0,1-.14576-.16723.26515.26515,0,0,1,.02149-.21766l.45654-.84924a.263.263,0,0,1,.16943-.13794.29228.29228,0,0,1,.22.029l2.75512,1.48047A3.48009,3.48009,0,0,1,20.4771,51.33757Z"/><path class="a" d="M20.95806,57.34966a.26375.26375,0,0,1-.02978-.21656L22.419,51.48577a.26358.26358,0,0,1,.13281-.17371.2921.2921,0,0,1,.22046-.023l1.355.35754a.26895.26895,0,0,1,.19946.34253L22.836,57.63664a.27832.27832,0,0,1-.126.16968.2634.2634,0,0,1-.2163.02979l-1.355-.35767A.29286.29286,0,0,1,20.95806,57.34966Z"/><path class="a" d="M28.16314,58.53166a.26329.26329,0,0,1-.07129-.20666l.20459-3.31213a1.12473,1.12473,0,0,0-1.18555-1.35364L25.41,53.55413a.28716.28716,0,0,1-.26246-.297l.05958-.96228a.26425.26425,0,0,1,.09619-.19629.27952.27952,0,0,1,.20068-.06616l1.76807.10925a3.57768,3.57768,0,0,1,2.28222.78125,2.58182,2.58182,0,0,1,.63721,2.13977l-.20874,3.37915a.27952.27952,0,0,1-.09033.191.26456.26456,0,0,1-.20679.07141l-1.32031-.08154A.29275.29275,0,0,1,28.16314,58.53166Z"/><path class="a" d="M33.26519,57.82732a2.68638,2.68638,0,0,1-1.20142-1.84888l-.73461-3.3623a.26308.26308,0,0,1,.03906-.21509.27794.27794,0,0,1,.1748-.11865l1.13916-.24878a.29309.29309,0,0,1,.21924.03222.26445.26445,0,0,1,.12525.1792l.7229,3.30762a1.15709,1.15709,0,0,0,.55566.83679,1.5232,1.5232,0,0,0,1.05713.0846,1.09717,1.09717,0,0,0,.98144-1.44239,2.55621,2.55621,0,0,0-.05908-.29687q-.0465-.18493-.06787-.28357l-.05273-.241a2.02074,2.02074,0,0,0-.41748-.91284.64035.64035,0,0,0-.64258-.20959,1.32837,1.32837,0,0,0-.31348.1145,1.08585,1.08585,0,0,0-.25537.17041.34569.34569,0,0,1-.09375.04346.23648.23648,0,0,1-.1853-.03406.25.25,0,0,1-.1106-.16516l-.189-.86524a.44068.44068,0,0,1,.11938-.45068,2.11708,2.11708,0,0,1,1.00611-.43787,2.16951,2.16951,0,0,1,1.86254.25281,3.17735,3.17735,0,0,1,.96705,1.82556l.17456.79944.07666.35059q.46545,2.70976-2.4585,3.34863A3.31248,3.31248,0,0,1,33.26519,57.82732Z"/><path class="a" d="M43.2337,48.52764a2.708,2.708,0,0,1,1.64575,1.41955L46.56939,52.881a.27822.27822,0,0,1,.02979.20911.26328.26328,0,0,1-.13282.17358l-2.65185,1.52759a.28751.28751,0,0,1-.38282-.10291l-.48144-.83545a.26367.26367,0,0,1-.02783-.21679.28014.28014,0,0,1,.13086-.166l1.25317-.7218-1.02393-1.77771a1.34877,1.34877,0,0,0-.696-.647.91757.91757,0,0,0-.794.082l-.75756.4364,1.42944,4.3905a.34084.34084,0,0,1,.02563.22449.26392.26392,0,0,1-.13281.17358L41.24,56.2741a.28134.28134,0,0,1-.22168.03076.22081.22081,0,0,1-.157-.14893L39.564,51.70232l-.64111.36938a.26369.26369,0,0,1-.2168.02784.29167.29167,0,0,1-.17163-.14063l-.51489-.89355a.26391.26391,0,0,1-.02784-.21692.27855.27855,0,0,1,.13086-.1659L41.241,48.88628A2.64813,2.64813,0,0,1,43.2337,48.52764Z"/></svg>