<svg xmlns="http://www.w3.org/2000/svg" viewBox="0 0 60.59326 61.85246"><defs><style>.a{fill:#3c3c3b;}</style></defs><path class="a" d="M3.48389,41.55864a.268.268,0,0,1,.12793-.17077l.835-.48194a.26425.26425,0,0,1,.21679-.02807.27793.27793,0,0,1,.166.13073l1.40625,2.43726,1.79639-1.0365a1.12,1.12,0,0,0,.46435-1.73047L7.7793,39.436a.26369.26369,0,0,1-.02784-.2168.29273.29273,0,0,1,.14014-.17163l.83545-.48181a.26284.26284,0,0,1,.2168-.02795.27962.27962,0,0,1,.166.13061L9.855,39.95989a3.65337,3.65337,0,0,1,.61182,2.38427,2.62227,2.62227,0,0,1-1.45362,1.76441L7.21631,45.14519l.19629.33984a.26826.26826,0,0,1-.10254.38282l-.835.48181a.2799.2799,0,0,1-.20948.03015.2632.2632,0,0,1-.17333-.13281l-2.583-4.47632A.26834.26834,0,0,1,3.48389,41.55864Z"/><path class="a" d="M13.97754,49.21379a2.75394,2.75394,0,0,1-1.41455.0304l-.21924,1.46814a1.18972,1.18972,0,0,1-.042.19458.4514.4514,0,0,1-.11377.17126l-.63721.64685a.28.28,0,0,1-.19385.08472.26384.26384,0,0,1-.20263-.08179L7.91211,48.53362a.28654.28654,0,0,1-.00293-.39637l.7002-.71081a.26426.26426,0,0,1,.20166-.08472.27853.27853,0,0,1,.19433.08179l1.877,1.849.792-5.452a.382.382,0,0,1,.07763-.17505.203.203,0,0,1,.166-.06457.26063.26063,0,0,1,.167.078l.99024.97559a.41348.41348,0,0,1,.11425.39551l-.39257,2.63488a1.77032,1.77032,0,0,0,1.36621-.65222l.44091-.44726a.29461.29461,0,0,1,.21338-.09668.28051.28051,0,0,1,.20655.08569l.83837.82605a.26161.26161,0,0,1,.07715.20154.30249.30249,0,0,1-.08984.21069l-.67627.68689A2.77655,2.77655,0,0,1,13.97754,49.21379Z"/><path class="a" d="M21.42139,51.37712a2.70823,2.70823,0,0,1-.31983,2.14966l-1.57519,2.99683a.28032.28032,0,0,1-.16065.1372.26365.26365,0,0,1-.21777-.01953l-2.709-1.42407a.28758.28758,0,0,1-.11816-.37842l.44873-.85351a.26408.26408,0,0,1,.16846-.13941.27882.27882,0,0,1,.21.02173l1.28027.673.95459-1.81592a1.3483,1.3483,0,0,0,.17432-.93421.91614.91614,0,0,0-.49365-.62683l-.77393-.40686-2.9458,3.55567a.34057.34057,0,0,1-.17578.14184.2644.2644,0,0,1-.21777-.01953l-1.14112-.59985a.28178.28178,0,0,1-.14453-.171.22044.22044,0,0,1,.042-.21228l3.06934-3.47779-.65479-.34436a.26464.26464,0,0,1-.13964-.16833.29213.29213,0,0,1,.02734-.2201l.48-.913a.26358.26358,0,0,1,.168-.1394.28.28,0,0,1,.21045.02173l3.18506,1.67456A2.64947,2.64947,0,0,1,21.42139,51.37712Z"/><path class="a" d="M31.29834,53.00579a2.59077,2.59077,0,0,1,.64941,2.12377l-.208,3.36792a.28162.28162,0,0,1-.09034.191.26432.26432,0,0,1-.20654.07142l-1.32031-.08155a.29179.29179,0,0,1-.20215-.09106.26454.26454,0,0,1-.07178-.20667l.20459-3.31213a1.12463,1.12463,0,0,0-1.18554-1.35364L28.14062,53.67a6.7923,6.7923,0,0,0-.26953,1.6344l-.09228,2.94836a.263.263,0,0,1-.09668.19617.29261.29261,0,0,1-.21192.06567l-2.37109-.15783a.29093.29093,0,0,1-.20215-.09119.26374.26374,0,0,1-.07177-.20654l.05468-.884a.26463.26463,0,0,1,.09619-.196.29386.29386,0,0,1,.21192-.06567l.90625.056.10888-1.75672a6.06514,6.06514,0,0,1,.27-1.64563l-.66015-.04089a.29224.29224,0,0,1-.20215-.09107.262.262,0,0,1-.07129-.20654l.05957-.9624a.26342.26342,0,0,1,.09619-.19617.29248.29248,0,0,1,.21192-.06555l3.12158.19287A3.48,3.48,0,0,1,31.29834,53.00579Z"/><path class="a" d="M34.49365,58.32659a.26328.26328,0,0,1-.12744-.17749l-.2334-1.00464a.28661.28661,0,0,1,.21778-.34986l1.58349-.36816a1.19354,1.19354,0,0,0,1.02344-1.53857q-.01977-.13368-.06543-.33008-.04321-.18567-.08447-.31421a1.19337,1.19337,0,0,0-1.59717-.9292l-1.5835.36816a.28745.28745,0,0,1-.35009-.218l-.2334-1.00464a.265.265,0,0,1,.03613-.21558.294.294,0,0,1,.18457-.12329l1.6377-.38086q2.89378-.67274,3.67724,2.103.03882.11791.082.30322a3.48132,3.48132,0,0,1-.17968,2.47034,3.01191,3.01191,0,0,1-2.12989,1.35852l-1.63818.38073A.29173.29173,0,0,1,34.49365,58.32659Z"/><path class="a" d="M44.2793,54.92986a.26435.26435,0,0,1-.168-.14014l-1.53516-2.94189a1.12466,1.12466,0,0,0-1.71435-.54688l-1.51075.78833a.28719.28719,0,0,1-.37793-.1189l-.44628-.85473a.2637.2637,0,0,1-.01856-.21777.27828.27828,0,0,1,.1377-.16041l1.57031-.81933a3.57778,3.57778,0,0,1,2.35791-.50977,2.58226,2.58226,0,0,1,1.65039,1.50342L45.791,53.91326a.27783.27783,0,0,1,.021.2102.26372.26372,0,0,1-.13965.168l-1.17285.61206A.29231.29231,0,0,1,44.2793,54.92986Z"/><path class="a" d="M48.0293,44.06951a.27516.27516,0,0,1,.1958.093l2.27539,2.41541a2.43439,2.43439,0,0,1,.70117,1.87268,4.11166,4.11166,0,0,1-.91016,2.20532l-1.67382,2.40869a.25743.25743,0,0,1-.19727.10913.25035.25035,0,0,1-.208-.08154l-.66894-.71a.291.291,0,0,1-.08106-.19275.31748.31748,0,0,1,.06153-.20434l.69824-1.07361L44.00732,48.367a1.39521,1.39521,0,0,1-.19433-.12475.22912.22912,0,0,1,.00928-.317l1.06054-.99927a.27459.27459,0,0,1,.15723-.07861.24524.24524,0,0,1,.146.02417l3.96,2.5686a1.54185,1.54185,0,0,0,.16943-1.02978,2.20219,2.20219,0,0,0-.57861-.94117L46.8457,45.46184a.26889.26889,0,0,1,.01221-.39624l.9707-.9148A.27431.27431,0,0,1,48.0293,44.06951Z"/><path class="a" d="M56.168,42.745a.2713.2713,0,0,1-.21387-.032l-2.88037-1.6477a1.12467,1.12467,0,0,0-1.73828.46508l-1.26953,2.21875a.29086.29086,0,0,1-.1709.14112.263.263,0,0,1-.2168-.02723l-.83691-.47863a.266.266,0,0,1-.13379-.17322.294.294,0,0,1,.03516-.219l1.29687-2.26746a3.44018,3.44018,0,0,1,1.74854-1.67969,2.69033,2.69033,0,0,1,2.23584.38135l2.8706,1.64209a.26089.26089,0,0,1,.1333.1731.28916.28916,0,0,1-.03467.219l-.65673,1.14831A.27207.27207,0,0,1,56.168,42.745Zm-2.04,3.56665a.263.263,0,0,1-.2168-.02734l-2.84131-1.62524a.26424.26424,0,0,1-.13378-.17322.29412.29412,0,0,1,.03515-.219l.65674-1.14831a.26858.26858,0,0,1,.38232-.104l2.8418,1.62525a.27962.27962,0,0,1,.13135.16553.26561.26561,0,0,1-.02735.21691l-.65673,1.14832A.29319.29319,0,0,1,54.12793,46.31169Z"/></svg>