<svg xmlns="http://www.w3.org/2000/svg" viewBox="0 0 60.59277 61.85248"><defs><style>.a{fill:#e30613;}</style></defs><path class="a" d="M3.48389,41.55866a.269.269,0,0,1,.12744-.17078l.83545-.48193a.26377.26377,0,0,1,.21679-.02808.27936.27936,0,0,1,.166.13074l1.40625,2.43726,1.79639-1.0365a1.11963,1.11963,0,0,0,.46386-1.73047L7.7793,39.436a.262.262,0,0,1-.02832-.2168.29351.29351,0,0,1,.14062-.17163l.835-.48181a.26325.26325,0,0,1,.2168-.02795.27963.27963,0,0,1,.166.13061l.74511,1.2915a3.65417,3.65417,0,0,1,.61231,2.38428,2.62449,2.62449,0,0,1-1.4541,1.76441L7.21631,45.14521l.19629.33984a.26888.26888,0,0,1-.103.38281l-.835.48182a.27866.27866,0,0,1-.209.03015A.264.264,0,0,1,6.0918,46.247l-2.583-4.47631A.26624.26624,0,0,1,3.48389,41.55866Z"/><path class="a" d="M13.97705,49.21381a2.75387,2.75387,0,0,1-1.41455.0304l-.21924,1.46814a1.09568,1.09568,0,0,1-.042.19458.44568.44568,0,0,1-.11377.17126l-.63721.64685a.27884.27884,0,0,1-.19336.08472.26487.26487,0,0,1-.20312-.08179L7.91162,48.53364a.28782.28782,0,0,1-.00293-.39637l.7002-.71081a.265.265,0,0,1,.20166-.08472.27879.27879,0,0,1,.19482.08179l1.877,1.849.79151-5.452a.38156.38156,0,0,1,.07812-.17505.20185.20185,0,0,1,.166-.06457.26175.26175,0,0,1,.167.078l.99024.97559a.4121.4121,0,0,1,.11376.3955l-.39257,2.63489a1.77124,1.77124,0,0,0,1.3667-.65222l.44043-.44727a.29547.29547,0,0,1,.21337-.09668.28162.28162,0,0,1,.207.0857l.83837.82605a.26126.26126,0,0,1,.07666.20154.29992.29992,0,0,1-.08935.21069l-.67676.68689A2.77655,2.77655,0,0,1,13.97705,49.21381Z"/><path class="a" d="M21.4209,51.37714a2.70779,2.70779,0,0,1-.31934,2.14966l-1.57568,2.99683a.27882.27882,0,0,1-.16065.1372.264.264,0,0,1-.21777-.01953l-2.709-1.42407a.288.288,0,0,1-.11768-.37842l.44873-.85351a.26288.26288,0,0,1,.16846-.13941.27906.27906,0,0,1,.21.02173l1.28027.673.95459-1.81591a1.34831,1.34831,0,0,0,.17432-.93421.91742.91742,0,0,0-.49365-.62683l-.77393-.40686-2.9458,3.55566a.33971.33971,0,0,1-.17627.14185.26328.26328,0,0,1-.21728-.01953l-1.14112-.59986a.2802.2802,0,0,1-.14453-.171.22045.22045,0,0,1,.042-.21228l3.06934-3.47778-.65479-.34436a.26177.26177,0,0,1-.13964-.16833.29192.29192,0,0,1,.02685-.2201l.48-.913a.26447.26447,0,0,1,.16846-.13941.27886.27886,0,0,1,.21.02173L20.05225,49.885A2.64857,2.64857,0,0,1,21.4209,51.37714Z"/><path class="a" d="M31.29834,53.0058a2.59245,2.59245,0,0,1,.64941,2.12378l-.20849,3.36792a.2775.2775,0,0,1-.09033.191.26372.26372,0,0,1-.20655.07141l-1.32031-.08154a.2928.2928,0,0,1-.20215-.09106.26248.26248,0,0,1-.07129-.20667l.20459-3.31213a1.12484,1.12484,0,0,0-1.18554-1.35364L28.14014,53.67a6.79132,6.79132,0,0,0-.26953,1.6344l-.09229,2.94836a.26261.26261,0,0,1-.09619.19617.29261.29261,0,0,1-.21192.06567l-2.37158-.15783a.29191.29191,0,0,1-.20215-.09119.26169.26169,0,0,1-.07128-.20654l.05468-.884a.263.263,0,0,1,.09619-.196.29322.29322,0,0,1,.21192-.06568l.90625.056.1084-1.75671a6.06455,6.06455,0,0,1,.2705-1.64563l-.66015-.04089a.2913.2913,0,0,1-.20215-.09107.26409.26409,0,0,1-.07178-.20654l.05957-.9624a.26345.26345,0,0,1,.09619-.19617.29378.29378,0,0,1,.21192-.06555l3.12207.19287A3.48,3.48,0,0,1,31.29834,53.0058Z"/><path class="a" d="M34.49365,58.3266a.26536.26536,0,0,1-.12793-.17749l-.2334-1.00463a.28756.28756,0,0,1,.21778-.34986l1.58349-.36816A1.193,1.193,0,0,0,36.957,54.88788q-.01977-.13367-.06494-.33007-.04321-.18567-.085-.31421A1.1932,1.1932,0,0,0,35.21,53.3144l-1.583.36816a.28745.28745,0,0,1-.35009-.218l-.2334-1.00464a.26311.26311,0,0,1,.03613-.21557.293.293,0,0,1,.18408-.12329l1.63819-.38086q2.89307-.67273,3.67675,2.103c.02588.07861.05371.17956.082.30322a3.48152,3.48152,0,0,1-.17919,2.47034,3.01194,3.01194,0,0,1-2.13038,1.35852l-1.63769.38073A.29173.29173,0,0,1,34.49365,58.3266Z"/><path class="a" d="M44.27881,54.92988a.26352.26352,0,0,1-.16748-.14014l-1.53516-2.9419a1.12474,1.12474,0,0,0-1.71435-.54687l-1.51075.78833a.288.288,0,0,1-.37841-.1189l-.4458-.85473a.26387.26387,0,0,1-.01905-.21778.28.28,0,0,1,.1377-.1604l1.57031-.81933a3.57766,3.57766,0,0,1,2.35791-.50977,2.584,2.584,0,0,1,1.65088,1.50342L45.791,53.91327a.27786.27786,0,0,1,.021.21021.26452.26452,0,0,1-.14013.168l-1.17286.61206A.29189.29189,0,0,1,44.27881,54.92988Z"/><path class="a" d="M48.0293,44.06952a.27326.27326,0,0,1,.19531.093L50.5,46.578a2.4366,2.4366,0,0,1,.70166,1.87268A4.1155,4.1155,0,0,1,50.2915,50.656l-1.67382,2.40869a.25757.25757,0,0,1-.19776.10913.24944.24944,0,0,1-.20752-.08154l-.66894-.71a.28912.28912,0,0,1-.08155-.19275.32334.32334,0,0,1,.06153-.20435l.69824-1.07361L44.00684,48.367a1.39419,1.39419,0,0,1-.19434-.12476.23039.23039,0,0,1,.00928-.317l1.061-.99927a.27187.27187,0,0,1,.15674-.07861.24458.24458,0,0,1,.146.02417l3.96045,2.5686a1.54481,1.54481,0,0,0,.16943-1.02979,2.21191,2.21191,0,0,0-.57861-.94116L46.8457,45.46186a.26836.26836,0,0,1,.01172-.39624l.97119-.9148A.27285.27285,0,0,1,48.0293,44.06952Z"/><path class="a" d="M56.168,42.74506a.27277.27277,0,0,1-.21436-.032l-2.88037-1.64771a1.12475,1.12475,0,0,0-1.73828.46509l-1.269,2.21875a.29176.29176,0,0,1-.17139.14111.2634.2634,0,0,1-.2168-.02722l-.83691-.47863a.26381.26381,0,0,1-.1333-.17322.29382.29382,0,0,1,.03467-.219l1.29736-2.26745a3.43654,3.43654,0,0,1,1.74854-1.67969,2.69052,2.69052,0,0,1,2.23584.38135l2.8706,1.64209a.26383.26383,0,0,1,.1333.17309.29365.29365,0,0,1-.03467.219L56.33643,42.609A.27341.27341,0,0,1,56.168,42.74506Zm-2.04,3.56665a.2626.2626,0,0,1-.2168-.02734l-2.84179-1.62525a.26346.26346,0,0,1-.1333-.17321.29386.29386,0,0,1,.03466-.219l.65674-1.14831a.269.269,0,0,1,.38281-.104l2.84131,1.62525a.27782.27782,0,0,1,.13135.16552.26381.26381,0,0,1-.02734.21692l-.65674,1.14832A.29084.29084,0,0,1,54.12793,46.31171Z"/></svg>