<svg xmlns="http://www.w3.org/2000/svg" viewBox="0 0 355.63183 382.13294"><defs><style>.a{fill:#fbcfaf;}.b{fill:#e2945f;}.c,.d,.e,.h,.i,.j,.k,.l,.o,.p{fill:none;}.c{stroke:#727070;stroke-width:54.67227px;}.c,.d,.h,.i,.j,.k,.l,.o,.p{stroke-linecap:round;stroke-linejoin:round;}.d,.o{stroke:#878787;}.d{stroke-width:25.75331px;}.e{stroke:#585857;stroke-miterlimit:10;stroke-width:9.20265px;}.f{fill:#eeeded;}.g{fill:#c7c6c6;opacity:0.71;}.h,.i,.j,.k,.l{stroke:#f6f6f6;}.h{stroke-width:0.80797px;}.i{stroke-width:0.97121px;}.j{stroke-width:1.11509px;}.k{stroke-width:1.22844px;}.l{stroke-width:1.34821px;}.m{fill:#9e9d9c;}.n{fill:#3d3d3b;}.o,.p{stroke-width:1.1443px;}.p{stroke:#fff;}</style></defs><rect class="a" x="87.83407" y="153.35569" width="67.4828" height="200.09483" rx="33.74136" transform="translate(-131.82763 374.97858) rotate(-90)"/><rect class="a" x="66.99447" y="78.92614" width="67.4828" height="200.09483" rx="33.74136" transform="translate(-78.23768 279.70942) rotate(-90)"/><rect class="a" x="66.30601" y="4.93248" width="67.4828" height="200.09483" rx="33.74136" transform="translate(-4.93248 205.0273) rotate(-90)"/><rect class="a" x="198.25134" y="-17.81142" width="67.4828" height="180.89076" rx="33.74136" transform="translate(29.8269 207.63507) rotate(-51.11864)"/><path class="a" d="M138.2425,69.755h215.906a0,0,0,0,1,0,0V180.67477a107.9529,107.9529,0,0,1-107.9529,107.9529h-.00022a107.9529,107.9529,0,0,1-107.9529-107.9529V69.755a0,0,0,0,1,0,0Z" transform="translate(67.00417 425.38685) rotate(-90)"/><path class="b" d="M172.20131,67.765l53.34063,47.87579s-14.83531,39.74218,22.86158,76.23377c0,0-33.27938-18.35929-30.03086-74.42956Z"/><path class="b" d="M155.285,258.03412s-30.79318-31.095-15.31444-141.58155C139.97053,116.45257,128.65683,205.10644,155.285,258.03412Z"/><line class="c" x1="143.53791" y1="354.7968" x2="143.53791" y2="208.6792"/><line class="d" x1="152.55777" y1="354.7968" x2="152.55777" y2="208.6792"/><path class="e" d="M116.28848,297.67639h3.14745c23.21407-2.51726,48.07775,0,48.07775,0h3.51856"/><path class="e" d="M116.28848,282.50191h3.14745c23.21407-2.51727,48.07775,0,48.07775,0h3.51856"/><path class="e" d="M116.28848,267.32743h3.14745c23.21407-2.51727,48.07775,0,48.07775,0h3.51856"/><path class="e" d="M116.28848,252.15294h3.14745c23.21407-2.51727,48.07775,0,48.07775,0h3.51856"/><polygon class="f" points="248.972 164.778 145.468 1.3 42.033 164.93 145.468 168.094 248.972 164.778"/><polygon class="g" points="145.468 168.094 145.468 1.3 42.033 164.93 145.468 168.094"/><line class="h" x1="177.38608" y1="51.58986" x2="113.89928" y2="51.58986"/><line class="i" x1="191.49841" y1="74.15638" x2="99.7659" y2="74.15638"/><line class="j" x1="206.26973" y1="96.7229" x2="85.34559" y2="96.7229"/><line class="k" x1="220.5676" y1="119.28942" x2="71.64342" y2="119.28942"/><line class="l" x1="234.80165" y1="142.07137" x2="57.19526" y2="142.07137"/><polygon class="m" points="81.15 193.5 209.66 193.5 249.642 164.137 145.404 164.137 42.355 164.137 81.15 193.5"/><path class="n" d="M88.22675,188.51846H202.41111a9.2552,9.2552,0,0,1,9.2552,9.2552v2.15165a9.25521,9.25521,0,0,1-9.25521,9.25521H88.22675a9.2552,9.2552,0,0,1-9.2552-9.2552v-2.15166a9.2552,9.2552,0,0,1,9.2552-9.2552Z" transform="translate(290.63786 397.69899) rotate(-180)"/><path class="n" d="M129.21714,46.83151a.39207.39207,0,0,1-.27832-.10547.35409.35409,0,0,1-.11328-.271v-4.459a1.90589,1.90589,0,0,0-.42187-1.33349,1.7405,1.7405,0,0,0-1.34034-.45947h-3.38916a.36127.36127,0,0,1-.377-.37647V38.60642a.36131.36131,0,0,1,.377-.377h3.46436a4.631,4.631,0,0,1,3.08057.9043,3.559,3.559,0,0,1,1.0625,2.8623v4.459a.38632.38632,0,0,1-.377.37646Zm-5.543,0a.354.354,0,0,1-.27148-.11279.37465.37465,0,0,1-.10547-.26367v-4.459a.37382.37382,0,0,1,.10547-.26367.35443.35443,0,0,1,.27148-.11328h1.68653a.35515.35515,0,0,1,.27148.11328.37382.37382,0,0,1,.10547.26367v4.459a.37465.37465,0,0,1-.10547.26367.35472.35472,0,0,1-.27148.11279Z"/><path class="n" d="M133.32994,46.83151a.37845.37845,0,0,1-.27881-.11279.362.362,0,0,1-.1128-.26367V45.1445a.35546.35546,0,0,1,.1128-.27148.39241.39241,0,0,1,.27881-.10547H135.514a1.82658,1.82658,0,0,0,1.37109-.4668,1.98856,1.98856,0,0,0,.49707-1.32568c.00977-.18067.01514-.33155.01514-.45215s-.00537-.26563-.01514-.43652a1.97952,1.97952,0,0,0-.49707-1.3335,1.84612,1.84612,0,0,0-1.37109-.45947h-2.18408a.39035.39035,0,0,1-.27881-.10547.35371.35371,0,0,1-.1128-.271V38.60642a.3562.3562,0,0,1,.1128-.27149.39459.39459,0,0,1,.27881-.10547h2.25976a4.95626,4.95626,0,0,1,2.335.47461,3.0577,3.0577,0,0,1,1.32569,1.34082,4.90793,4.90793,0,0,1,.48193,2.04151c.01025.17089.01514.31591.01514.43652s-.00489.27148-.01514.45215a4.929,4.929,0,0,1-.48193,2.03369,3.04631,3.04631,0,0,1-1.32569,1.34814,4.95614,4.95614,0,0,1-2.335.47461Z"/><path class="n" d="M145.60777,46.83151a.39243.39243,0,0,1-.27881-.10547.352.352,0,0,1-.11279-.271v-4.459a1.90823,1.90823,0,0,0-.42188-1.33349,1.74166,1.74166,0,0,0-1.34082-.45947h-2.2749a.37348.37348,0,0,1-.26318-.10547.3524.3524,0,0,1-.11329-.271V38.60642a.35488.35488,0,0,1,.11329-.27149.37561.37561,0,0,1,.26318-.10547h2.3501a6.248,6.248,0,0,1,2.27441.36182,2.71856,2.71856,0,0,1,1.39356,1.16748,4.21007,4.21007,0,0,1,.4746,2.14648v4.54981a.38544.38544,0,0,1-.37646.37646Z"/><path class="n" d="M149.46421,47.67526a.34454.34454,0,0,1-.29394-.07568.32049.32049,0,0,1-.12793-.25586V46.09323a.39048.39048,0,0,1,.09765-.26367.43163.43163,0,0,1,.2334-.14307l3.31446-.82812a3.65225,3.65225,0,0,0,1.273-.54248,1.63886,1.63886,0,0,0,.60253-.82862,3.89089,3.89089,0,0,0,.15821-1.1748V38.59128a.33939.33939,0,0,1,.11279-.25635.376.376,0,0,1,.26367-.10547h1.6875a.39423.39423,0,0,1,.27832.10547.35659.35659,0,0,1,.11328.27149v4.42871a3.33237,3.33237,0,0,1-.46679,1.76269,3.82334,3.82334,0,0,1-1.3335,1.28809,6.46487,6.46487,0,0,1-2.10156.76074Zm1.94336-1.20556-2.124-7.63721c-.02051-.08057-.03809-.14063-.05273-.18115a.32749.32749,0,0,1-.02295-.12012.30959.30959,0,0,1,.30127-.30176h1.853a.31119.31119,0,0,1,.34619.22608l1.88331,7.668Z"/><path class="n" d="M164.82945,46.83151a.39205.39205,0,0,1-.27832-.10547.35235.35235,0,0,1-.11328-.271v-4.459a1.90589,1.90589,0,0,0-.42188-1.33349,1.74166,1.74166,0,0,0-1.34082-.45947H159.286a.36123.36123,0,0,1-.37646-.37647V38.60642a.36126.36126,0,0,1,.37646-.377h3.46436a4.63235,4.63235,0,0,1,3.08105.9043,3.55874,3.55874,0,0,1,1.062,2.8623v4.459a.38544.38544,0,0,1-.37646.37646Zm-5.54346,0a.353.353,0,0,1-.271-.11279.37464.37464,0,0,1-.10546-.26367v-4.459a.37381.37381,0,0,1,.10546-.26367.35339.35339,0,0,1,.271-.11328h1.687a.35592.35592,0,0,1,.27149.11328.376.376,0,0,1,.10547.26367v4.459a.37678.37678,0,0,1-.10547.26367.35549.35549,0,0,1-.27149.11279Z"/><path class="n" d="M128.3441,66.5156a.39035.39035,0,0,1-.27881-.10547.35129.35129,0,0,1-.1128-.271v-4.459a1.90376,1.90376,0,0,0-.42187-1.333,1.74168,1.74168,0,0,0-1.34082-.45947h-3.38965a.36127.36127,0,0,1-.37646-.377V58.291a.36127.36127,0,0,1,.37646-.377H126.265a4.63232,4.63232,0,0,1,3.08106.90381,3.55923,3.55923,0,0,1,1.06152,2.86231v4.459a.38546.38546,0,0,1-.37646.37647Zm-5.54395,0a.35367.35367,0,0,1-.271-.1128.37375.37375,0,0,1-.10547-.26367v-4.459a.37547.37547,0,0,1,.10547-.26368.3537.3537,0,0,1,.271-.11279h1.6875a.35446.35446,0,0,1,.271.11279.37765.37765,0,0,1,.10547.26368v4.459a.37591.37591,0,0,1-.10547.26367.35443.35443,0,0,1-.271.1128Z"/><path class="n" d="M131.97447,59.88767a.37352.37352,0,0,1-.26319-.10547.35348.35348,0,0,1-.11328-.27149V58.291a.35346.35346,0,0,1,.11328-.27149.37352.37352,0,0,1,.26319-.10547h4.354a.36124.36124,0,0,1,.376.377v1.21972a.38867.38867,0,0,1-.09766.26367.34943.34943,0,0,1-.27832.11329Zm1.17529,6.62793a.29277.29277,0,0,1-.33154-.33106v-4.625a4.16434,4.16434,0,0,1,.20361-1.47607.68.68,0,0,1,.63965-.51221h2.42578q-.37647,0-.61035.625a4.39208,4.39208,0,0,0-.2334,1.5293v4.459a.27509.27509,0,0,1-.14307.24121.5464.5464,0,0,1-.29345.08985Z"/><path class="n" d="M140.74205,58.84811h.67822a.76721.76721,0,0,1,.56445.16553.32878.32878,0,0,1,.09766.34668q-.15015.48193-.24072.91113a6.404,6.404,0,0,0-.12061.88135q-.03.45191-.03027,1.00928l.10546,3.977a.37378.37378,0,0,1-.10546.26367.35337.35337,0,0,1-.27051.1128l-3.11865-.01465a.37467.37467,0,0,1-.26368-.10547.35478.35478,0,0,1-.11279-.27149V64.99411a.38544.38544,0,0,1,.37647-.37646l1.22021.01513V62.19235q0-.49731.03027-.9414a8.39687,8.39687,0,0,1,.1128-.91162,7.3884,7.3884,0,0,1,.24853-.979.84837.84837,0,0,1,.24854-.36133A.88313.88313,0,0,1,140.74205,58.84811Zm-1.86768,1.03956a.36131.36131,0,0,1-.37695-.377V58.291a.36131.36131,0,0,1,.37695-.377h4.12695a5.91257,5.91257,0,0,1,2.27539.38428,2.78112,2.78112,0,0,1,1.38575,1.19775,4.2071,4.2071,0,0,1,.46679,2.10889v4.53418a.37375.37375,0,0,1-.10547.26367.3544.3544,0,0,1-.271.1128h-1.687a.36128.36128,0,0,1-.377-.37647v-4.459a1.8827,1.8827,0,0,0-.4292-1.333,1.7675,1.7675,0,0,0-1.34814-.45947Z"/><path class="n" d="M148.9066,66.5156a.38548.38548,0,0,1-.376-.37647V64.91892a.35273.35273,0,0,1,.11279-.271.37352.37352,0,0,1,.26319-.10547h4.83593V66.1694a.32435.32435,0,0,1-.10546.24854.38171.38171,0,0,1-.271.09766Zm2.998,0a.35367.35367,0,0,1-.271-.1128.3717.3717,0,0,1-.10547-.26367l-.22608-4.63965a4.038,4.038,0,0,0-.12011-.94189,1.0558,1.0558,0,0,0-.36182-.57959,1.25731,1.25731,0,0,0-.76807-.1958h-.75341a.36178.36178,0,0,1-.26368-.11328.37629.37629,0,0,1-.11279-.27832V58.20017a.35273.35273,0,0,1,.11279-.271.37383.37383,0,0,1,.26368-.10547h.81347a5.61269,5.61269,0,0,1,1.67237.21826,2.66543,2.66543,0,0,1,1.13671.67822,2.93379,2.93379,0,0,1,.6709,1.15967,6.04843,6.04843,0,0,1,.25586,1.64942l.21094,4.60986a.3143.3143,0,0,1-.09766.26367.38033.38033,0,0,1-.27929.1128Z"/><path class="n" d="M155.83628,62.96091a.35588.35588,0,0,1-.27148-.11328.37383.37383,0,0,1-.10547-.26368V58.291a.36131.36131,0,0,1,.37695-.377h1.77735a.36131.36131,0,0,1,.37695.377v4.293a.37383.37383,0,0,1-.10547.26368.35588.35588,0,0,1-.27148.11328Z"/><path class="n" d="M163.72984,66.66647a4.12472,4.12472,0,0,1-3.05762-1.00927,3.77709,3.77709,0,0,1-.99414-2.772V58.291a.36124.36124,0,0,1,.376-.377h3.82666a5.38354,5.38354,0,0,1,2.38037.437,2.72133,2.72133,0,0,1,1.27246,1.25049,4.80206,4.80206,0,0,1,.44434,1.94336q.01537.15015.01562.4292V62.539c0,.19043-.00537.33643-.01562.43653a4.79861,4.79861,0,0,1-.459,1.97363,2.79174,2.79174,0,0,1-1.333,1.27295A5.7052,5.7052,0,0,1,163.72984,66.66647Zm0-2.064a2.10587,2.10587,0,0,0,1.47656-.39893,1.85926,1.85926,0,0,0,.43652-1.30322q.01539-.15015.01563-.39941v-.48926q0-.241-.01563-.3916a1.86826,1.86826,0,0,0-.459-1.30323,1.8899,1.8899,0,0,0-1.37842-.42919h-1.8833v2.96777a1.69057,1.69057,0,0,0,.47461,1.31787A1.91728,1.91728,0,0,0,163.72984,64.60251Z"/><path class="n" d="M129.7523,90.17429a.39209.39209,0,0,1-.27832-.10547.35313.35313,0,0,1-.11328-.271V85.33835a1.90459,1.90459,0,0,0-.42188-1.333,1.74166,1.74166,0,0,0-1.34082-.45947h-3.38916a.36124.36124,0,0,1-.37646-.37647V81.94919a.36126.36126,0,0,1,.37646-.377h3.46436a4.63235,4.63235,0,0,1,3.08105.90429,3.55832,3.55832,0,0,1,1.062,2.86182v4.45947a.38635.38635,0,0,1-.37646.37647Zm-5.54346,0a.35167.35167,0,0,1-.271-.11328.37348.37348,0,0,1-.10547-.26319V85.33835a.37344.37344,0,0,1,.10547-.26318.35164.35164,0,0,1,.271-.11329h1.687a.35415.35415,0,0,1,.27149.11329.37561.37561,0,0,1,.10547.26318v4.45947a.37565.37565,0,0,1-.10547.26319.35417.35417,0,0,1-.27149.11328Z"/><path class="n" d="M133.38316,83.54587a.37379.37379,0,0,1-.26367-.10547.35479.35479,0,0,1-.11328-.271V81.94919a.35588.35588,0,0,1,.11328-.27149.3759.3759,0,0,1,.26367-.10546h4.35351a.36126.36126,0,0,1,.37647.377V83.1694a.38882.38882,0,0,1-.09815.26319.34788.34788,0,0,1-.27832.11328Zm1.1748,6.62842a.29277.29277,0,0,1-.33105-.33155v-4.625a4.16613,4.16613,0,0,1,.20312-1.47607.68059.68059,0,0,1,.64014-.51221h2.42529q-.37645,0-.61035.625a4.40359,4.40359,0,0,0-.2334,1.5293v4.459a.27558.27558,0,0,1-.14257.24121.54747.54747,0,0,1-.29395.09034Z"/><path class="n" d="M139.92124,86.61911a.35516.35516,0,0,1-.27148-.11328.37382.37382,0,0,1-.10547-.26367v-4.293a.36129.36129,0,0,1,.377-.377h1.77735a.36126.36126,0,0,1,.37646.377v4.293a.37378.37378,0,0,1-.10547.26367.35482.35482,0,0,1-.271.11328Z"/><path class="n" d="M146.39878,83.6362h-2.54589a.37383.37383,0,0,1-.26368-.10547.35409.35409,0,0,1-.11328-.271V79.855a.35485.35485,0,0,1,.11328-.271.37382.37382,0,0,1,.26368-.10546H145.389a.39329.39329,0,0,1,.27881.10546.35276.35276,0,0,1,.11279.271v1.71729h.63281Zm-.52734,6.71875a.26152.26152,0,0,1-.27881-.09033.41311.41311,0,0,1-.12842-.28613V88.51706a.44076.44076,0,0,1,.10547-.271.59017.59017,0,0,1,.27149-.1958l.48193-.1958a3.4319,3.4319,0,0,0,.77588-.46,1.94027,1.94027,0,0,0,.56494-.75293,3.00262,3.00262,0,0,0,.21094-1.21289,2.95054,2.95054,0,0,0-.15088-1.03906,1.03479,1.03479,0,0,0-.5044-.57276,2.24432,2.24432,0,0,0-1.00195-.18066h-.34619a.37379.37379,0,0,1-.26367-.10547.354.354,0,0,1-.11328-.271V81.93405a.33909.33909,0,0,1,.11328-.25635.3759.3759,0,0,1,.26367-.10546h.84375a4.61538,4.61538,0,0,1,2.16113.42968,2.49384,2.49384,0,0,1,1.16016,1.28028,5.44356,5.44356,0,0,1,.354,2.08642,4.81775,4.81775,0,0,1-.32373,1.82276,4.4755,4.4755,0,0,1-.88134,1.39355,5.23519,5.23519,0,0,1-1.25049.98682,6.40462,6.40462,0,0,1-1.46094.60254Z"/><path class="n" d="M151.94175,90.17429a.38637.38637,0,0,1-.376-.37647v-1.2207a.35274.35274,0,0,1,.11279-.271.37562.37562,0,0,1,.26318-.10547h4.83594v1.627a.32363.32363,0,0,1-.10547.24853.382.382,0,0,1-.271.09815Zm2.998,0a.35242.35242,0,0,1-.271-.11328.37142.37142,0,0,1-.10547-.26319l-.22607-4.64014a4.0299,4.0299,0,0,0-.12012-.9414,1.0554,1.0554,0,0,0-.36181-.58008,1.25731,1.25731,0,0,0-.76807-.1958h-.75342a.3599.3599,0,0,1-.26367-.11328.37629.37629,0,0,1-.11279-.27832V81.85837a.35274.35274,0,0,1,.11279-.271.376.376,0,0,1,.26367-.10547h.81348a5.62853,5.62853,0,0,1,1.67236.21827,2.66537,2.66537,0,0,1,1.13672.67822,2.93365,2.93365,0,0,1,.6709,1.15967,6.049,6.049,0,0,1,.25586,1.6499l.21094,4.60986a.31393.31393,0,0,1-.09766.26319.3789.3789,0,0,1-.2793.11328Z"/><path class="n" d="M158.72105,90.17429a.34976.34976,0,0,1-.26367-.12061.38744.38744,0,0,1-.11328-.27148V87.86911a6.51044,6.51044,0,0,1,.15088-1.4834,3.138,3.138,0,0,1,.54248-1.168,4.79388,4.79388,0,0,1,1.12988-1.03906l1.15967,1.687a1.82327,1.82327,0,0,0-.54248.62549,2.16334,2.16334,0,0,0-.22559.71533,5.2507,5.2507,0,0,0-.04541.648V89.7822a.37851.37851,0,0,1-.11279.27881.3599.3599,0,0,1-.26367.11328Zm5.709,0a.49.49,0,0,1-.36132-.12061,1.92056,1.92056,0,0,1-.16553-.18066l-5.42334-7.7583a.38078.38078,0,0,1-.0752-.22608.3019.3019,0,0,1,.09766-.21826.3193.3193,0,0,1,.2334-.09814h1.67236a.49328.49328,0,0,1,.36182.1206c.08008.08057.14062.146.18066.1958l5.46826,7.74317a.2894.2894,0,0,1,.06787.12793.72581.72581,0,0,1,.00782.09814.31234.31234,0,0,1-.09082.21826.29415.29415,0,0,1-.22559.09815Zm-.12011-2.92237-1.17481-1.67236a1.77713,1.77713,0,0,0,.68506-.53467,1.42094,1.42094,0,0,0,.24854-.61035,4.24574,4.24574,0,0,0,.04541-.60254V81.96384a.37328.37328,0,0,1,.37646-.3916h1.50684a.34363.34363,0,0,1,.2705.1206.40167.40167,0,0,1,.10547.271v1.92871a4.61443,4.61443,0,0,1-.1582,1.20508,3.02541,3.02541,0,0,1-.60254,1.12988A4.52962,4.52962,0,0,1,164.30992,87.25192Z"/><path class="n" d="M129.40562,111.80905a.35373.35373,0,0,1-.271-.11279.37381.37381,0,0,1-.10546-.26367V103.584a.36123.36123,0,0,1,.37646-.37646h3.37451a5.91589,5.91589,0,0,1,2.22949.36914,2.64927,2.64927,0,0,1,1.356,1.1748,4.38591,4.38591,0,0,1,.45215,2.147v4.519a.40228.40228,0,0,1-.10547.271.36094.36094,0,0,1-.28662.1206Zm1.82324-1.97314h3.25391V106.9736a1.88284,1.88284,0,0,0-.42969-1.333,1.765,1.765,0,0,0-1.34814-.46h-1.47608Z"/><path class="n" d="M138.94175,111.80905a.354.354,0,0,1-.27148-.11279.37382.37382,0,0,1-.10547-.26367V103.584a.36127.36127,0,0,1,.377-.37646h1.77735a.36124.36124,0,0,1,.37646.37646v7.84864a.37378.37378,0,0,1-.10547.26367.35443.35443,0,0,1-.271.11279Z"/><path class="n" d="M147.75425,109.956a2.87429,2.87429,0,0,0,1.42334-.30859,2.363,2.363,0,0,0,.94873-.89648,2.45838,2.45838,0,0,0,.33936-1.28028v-3.90185a.33761.33761,0,0,1,.11279-.25586.39247.39247,0,0,1,.27881-.10547h1.4917a.36121.36121,0,0,1,.376.37646v3.96192a4.64744,4.64744,0,0,1-.3462,1.83789,3.99108,3.99108,0,0,1-.96435,1.38574,4.23328,4.23328,0,0,1-1.43848.874,4.87974,4.87974,0,0,1-1.77.28614h-1.416a4.37253,4.37253,0,0,1-2.10157-.47461,3.36609,3.36609,0,0,1-1.34814-1.27295,3.42443,3.42443,0,0,1-.4668-1.76221V103.584a.35269.35269,0,0,1,.1128-.271.37379.37379,0,0,1,.26367-.10547h1.50635a.37382.37382,0,0,1,.26367.10547.33809.33809,0,0,1,.11328.25586l.01465,3.76611a2.72193,2.72193,0,0,0,.64062,1.94336,2.11236,2.11236,0,0,0,1.604.67773Zm-2.8623-1.02441v-1.67187a1.91537,1.91537,0,0,0,1.09961-.271,1.47185,1.47185,0,0,0,.55761-.76856,3.73039,3.73039,0,0,0,.16553-1.1748v-1.44629a.38611.38611,0,0,1,.105-.28613.368.368,0,0,1,.27149-.10547h1.49121a.34979.34979,0,0,1,.26367.12061.38719.38719,0,0,1,.11328.271v1.47608a4.28621,4.28621,0,0,1-.47461,2.08691,3.16945,3.16945,0,0,1-1.37842,1.32519A4.71835,4.71835,0,0,1,144.892,108.93161Z"/><path class="n" d="M154.72886,108.25388a.35546.35546,0,0,1-.27148-.1128.37463.37463,0,0,1-.10547-.26367V103.584a.36127.36127,0,0,1,.37695-.37646h1.77735a.36127.36127,0,0,1,.37695.37646v4.29346a.37463.37463,0,0,1-.10547.26367.35546.35546,0,0,1-.27148.1128Z"/><path class="n" d="M158.97691,108.25388a.3555.3555,0,0,1-.27149-.1128.37462.37462,0,0,1-.10546-.26367V103.584a.36126.36126,0,0,1,.37695-.37646h1.77734a.36127.36127,0,0,1,.377.37646v4.29346a.37463.37463,0,0,1-.10547.26367.3555.3555,0,0,1-.27149.1128Z"/><path class="n" d="M134.51255,134.77243a.39037.39037,0,0,1-.27881-.10547.353.353,0,0,1-.11279-.271v-4.459a1.90378,1.90378,0,0,0-.42187-1.333,1.7405,1.7405,0,0,0-1.34034-.45947H128.9691a.36131.36131,0,0,1-.377-.37695v-1.21973a.36131.36131,0,0,1,.377-.377h3.46484a4.63091,4.63091,0,0,1,3.08057.90381,3.55944,3.55944,0,0,1,1.062,2.8623v4.459a.38632.38632,0,0,1-.37695.37646Zm-5.54345,0a.35478.35478,0,0,1-.27149-.11279.37382.37382,0,0,1-.10547-.26367v-4.459a.37547.37547,0,0,1,.10547-.26367.35474.35474,0,0,1,.27149-.11279h1.687a.35366.35366,0,0,1,.271.11279.37543.37543,0,0,1,.10547.26367v4.459a.37378.37378,0,0,1-.10547.26367.3537.3537,0,0,1-.271.11279Z"/><path class="n" d="M138.35386,134.77243a.38544.38544,0,0,1-.37646-.37646v-1.22022a.35439.35439,0,0,1,.11279-.271.37378.37378,0,0,1,.26367-.10547h4.83594v1.62695a.32432.32432,0,0,1-.10547.24853.38288.38288,0,0,1-.27148.09766Zm2.99805,0a.35479.35479,0,0,1-.27149-.11279.37381.37381,0,0,1-.10546-.26367l-.22559-4.63965a4.06157,4.06157,0,0,0-.12061-.9419,1.05308,1.05308,0,0,0-.36181-.57959,1.25632,1.25632,0,0,0-.76807-.1958h-.75342a.36174.36174,0,0,1-.26367-.11328.37816.37816,0,0,1-.11279-.27832V126.457a.35443.35443,0,0,1,.11279-.271.37378.37378,0,0,1,.26367-.10547h.81348a5.61258,5.61258,0,0,1,1.67236.21826,2.66717,2.66717,0,0,1,1.13721.67822,2.93872,2.93872,0,0,1,.67041,1.15967,6.02851,6.02851,0,0,1,.25635,1.64941l.21094,4.60987a.31474.31474,0,0,1-.09815.26367.38005.38005,0,0,1-.27881.11279Z"/><path class="n" d="M145.04234,134.77243a.38546.38546,0,0,1-.37647-.37646v-1.22022a.3544.3544,0,0,1,.1128-.271.37375.37375,0,0,1,.26367-.10547h3.82617V129.937a1.85948,1.85948,0,0,0-.42871-1.31787,1.767,1.767,0,0,0-1.34863-.46h-1.89844a.38548.38548,0,0,1-.376-.37647v-1.23486a.353.353,0,0,1,.1128-.27148.37344.37344,0,0,1,.26318-.10547h1.97363a6.19775,6.19775,0,0,1,2.29737.377,2.86565,2.86565,0,0,1,1.439,1.20508,4.215,4.215,0,0,1,.49707,2.18408v2.86231h.52734a.36124.36124,0,0,1,.37647.37646V134.396a.376.376,0,0,1-.10547.26367.35516.35516,0,0,1-.271.11279Z"/><path class="n" d="M159.53453,134.77243a.39035.39035,0,0,1-.27881-.10547.35125.35125,0,0,1-.1128-.271v-4.459a1.90378,1.90378,0,0,0-.42187-1.333,1.74168,1.74168,0,0,0-1.34082-.45947h-3.38965a.36126.36126,0,0,1-.37646-.37695v-1.21973a.36126.36126,0,0,1,.37646-.377h3.46484a4.63232,4.63232,0,0,1,3.08106.90381,3.55923,3.55923,0,0,1,1.06152,2.8623v4.459a.38544.38544,0,0,1-.37646.37646Zm-5.54395,0a.35373.35373,0,0,1-.271-.11279.37381.37381,0,0,1-.10546-.26367v-4.459a.37546.37546,0,0,1,.10546-.26367.3537.3537,0,0,1,.271-.11279h1.6875a.35443.35443,0,0,1,.271.11279.37761.37761,0,0,1,.10547.26367v4.459a.376.376,0,0,1-.10547.26367.35446.35446,0,0,1-.271.11279Z"/><path class="n" d="M134.94175,159.13425a.34561.34561,0,0,1-.29345-.0752.32192.32192,0,0,1-.12842-.25635v-1.25a.38914.38914,0,0,1,.09814-.26367.42576.42576,0,0,1,.23389-.14355l3.314-.82813a3.64775,3.64775,0,0,0,1.27295-.54248,1.63686,1.63686,0,0,0,.60254-.82861,3.88876,3.88876,0,0,0,.15821-1.17481v-3.72119a.33761.33761,0,0,1,.11279-.25586.37547.37547,0,0,1,.26367-.10547h1.687a.39529.39529,0,0,1,.2793.10547.35407.35407,0,0,1,.1123.271v4.42871a3.32346,3.32346,0,0,1-.46679,1.7627,3.826,3.826,0,0,1-1.333,1.28808,6.46909,6.46909,0,0,1-2.10156.76074Zm1.94336-1.20508-2.124-7.6377a1.72569,1.72569,0,0,0-.05274-.18066.35119.35119,0,0,1-.02246-.12061.30874.30874,0,0,1,.30127-.30127h1.853a.312.312,0,0,1,.34668.22608l1.88281,7.66748Z"/><path class="n" d="M144.29722,151.66208a.39448.39448,0,0,1-.2793-.10547.353.353,0,0,1-.11279-.271V150.0654a.35446.35446,0,0,1,.11279-.271.39448.39448,0,0,1,.2793-.10547h6.70313a.37382.37382,0,0,1,.26367.10547.35485.35485,0,0,1,.11328.271v1.22021a.39154.39154,0,0,1-.09814.26368.34953.34953,0,0,1-.27881.11279Zm3.50977,6.62842a.29292.29292,0,0,1-.33155-.33155v-4.62451a4.16434,4.16434,0,0,1,.20362-1.47607.68821.68821,0,0,1,.65527-.5127h2.41016q-.37647,0-.61035.62549a4.40043,4.40043,0,0,0-.2334,1.52881v4.459a.27631.27631,0,0,1-.13575.24122.50347.50347,0,0,1-.28613.09033Z"/><path class="n" d="M153.10972,154.73532a.35476.35476,0,0,1-.27148-.11279.3746.3746,0,0,1-.10547-.26367V150.0654a.36127.36127,0,0,1,.377-.37647h1.77735a.36124.36124,0,0,1,.37646.37647v4.29346a.37465.37465,0,0,1-.10547.26367.35443.35443,0,0,1-.271.11279Z"/><line class="o" x1="42.35484" y1="164.51456" x2="249.08356" y2="164.60232"/><line class="p" x1="249.38675" y1="164.52253" x2="145.58193" y2="0.57215"/></svg>