<svg xmlns="http://www.w3.org/2000/svg" viewBox="0 0 28.39151 32.64536"><defs><style>.a{fill:#f6f6f6;}.b{fill:#29235c;}.c{fill:#e30613;}.d{fill:#ffc931;}.e{fill:#3c3c3b;stroke:#f6f6f6;stroke-miterlimit:10;stroke-width:1.59996px;}</style></defs><circle class="a" cx="15.94619" cy="12.44532" r="12.44532"/><circle class="b" cx="15.94619" cy="12.44532" r="9.95625"/><circle class="c" cx="15.94619" cy="12.44532" r="7.46719"/><circle class="d" cx="15.94619" cy="12.44532" r="4.97813"/><path class="e" d="M4.70978,30.9499a6.78881,6.78881,0,0,1-2.82226-2.17431,4.89406,4.89406,0,0,1-.96485-2.59192.563.563,0,0,1,.1875-.432.63466.63466,0,0,1,.44629-.17285H5.53059a1.00434,1.00434,0,0,1,.54736.12964,1.24744,1.24744,0,0,1,.37451.4176q.54639,1.41138,3.02393,1.41113a3.27353,3.27353,0,0,0,2.18847-.66235,2.22432,2.22432,0,0,0,.77783-1.78552q0-2.15991-2.87988-2.15992H6.33723a.73837.73837,0,0,1-.749-.7489V20.4814a1.0843,1.0843,0,0,1,.48975-.97925l4.63672-3.80151H2.76594a.73781.73781,0,0,1-.71973-.72V12.12959a.75026.75026,0,0,1,.20166-.53284.67559.67559,0,0,1,.51807-.21594H16.18635a.67809.67809,0,0,1,.51855.21594.75238.75238,0,0,1,.20166.53284V14.6927a1.12284,1.12284,0,0,1-.46094.95032L12.18342,19.531l.20166.05761a7.47268,7.47268,0,0,1,4.11816,1.78565,5.25644,5.25644,0,0,1,1.52637,4.06067,5.4241,5.4241,0,0,1-1.10889,3.38391A6.99762,6.99762,0,0,1,13.868,31.05073a11.82282,11.82282,0,0,1-4.42041.77759A11.3404,11.3404,0,0,1,4.70978,30.9499Z"/></svg>