<svg xmlns="http://www.w3.org/2000/svg" viewBox="0 0 27.20288 39.94361"><defs><style>.a{fill:#f6f6f6;}.b{fill:#29265b;}.c{fill:#e20e18;}.d{fill:#fec835;}.e{fill:#3d3d3b;stroke:#f6f6f6;stroke-miterlimit:10;stroke-width:1.59996px;}</style></defs><circle class="a" cx="14.75756" cy="12.44532" r="12.44532"/><circle class="b" cx="14.75756" cy="12.44532" r="9.95625"/><circle class="c" cx="14.75756" cy="12.44532" r="7.46719"/><circle class="d" cx="14.75756" cy="12.44532" r="4.97813"/><path class="e" d="M10.01562,31.8567a10.64414,10.64414,0,0,1-4.52148-.84961,6.6306,6.6306,0,0,1-2.75049-2.2168A5.49621,5.49621,0,0,1,1.75,25.83815a.59077.59077,0,0,1,.605-.60547H6.21387a1.05737,1.05737,0,0,1,.59082.14453.92332.92332,0,0,1,.33105.40332,3.14722,3.14722,0,0,0,.69092,1.09375,2.67809,2.67809,0,0,0,.97949.63379,3.5529,3.5529,0,0,0,1.23828.20215,3.30274,3.30274,0,0,0,1.49756-.34571,2.70765,2.70765,0,0,0,1.10889-1.02246,3.04487,3.04487,0,0,0,.41748-1.627,2.80817,2.80817,0,0,0-.38867-1.498,2.84187,2.84187,0,0,0-1.06592-1.00781,3.19612,3.19612,0,0,0-1.56934-.374,3.32224,3.32224,0,0,0-1.123.1582,2.55145,2.55145,0,0,0-.72022.38867q-.28783.23-.51855.38867a.89537.89537,0,0,1-.51807.15821H3.3916a.63942.63942,0,0,1-.6333-.63379L3.79492,12.2444a.96826.96826,0,0,1,.3169-.64746.95394.95394,0,0,1,.6333-.2168H16.294a.7548.7548,0,0,1,.53271.20215.67829.67829,0,0,1,.21582.51855v2.707a.67833.67833,0,0,1-.21582.51856.754.754,0,0,1-.53271.20117H7.94189l-.374,3.71484A6.82277,6.82277,0,0,1,9.05078,18.552a7.571,7.571,0,0,1,2.34717-.28808,7.29771,7.29771,0,0,1,2.60644.47461,7.394,7.394,0,0,1,2.2461,1.33984A6.17562,6.17562,0,0,1,17.80566,22.137a6.25882,6.25882,0,0,1,.56153,2.69336,6.68286,6.68286,0,0,1-.99317,3.62793,6.75684,6.75684,0,0,1-2.86572,2.49121A10.209,10.209,0,0,1,10.01562,31.8567Z"/></svg>