<svg xmlns="http://www.w3.org/2000/svg" viewBox="0 0 27.34674 39.94301"><defs><style>.a{fill:#f6f6f6;}.b{fill:#29265b;}.c{fill:#e20e18;}.d{fill:#fec835;}.e{fill:#3d3d3b;stroke:#f6f6f6;stroke-miterlimit:10;stroke-width:1.59996px;}</style></defs><circle class="a" cx="14.90142" cy="12.44532" r="12.44532"/><circle class="b" cx="14.90142" cy="12.44532" r="9.95625"/><circle class="c" cx="14.90142" cy="12.44532" r="7.46719"/><circle class="d" cx="14.90142" cy="12.44532" r="4.97813"/><path class="e" d="M10.33252,31.82778a10.3162,10.3162,0,0,1-4.49268-.9209,7.28128,7.28128,0,0,1-3.00976-2.54883A6.5917,6.5917,0,0,1,1.75,24.62856a5.91987,5.91987,0,0,1,.27393-1.77149,10.5705,10.5705,0,0,1,.67675-1.66992A15.291,15.291,0,0,1,3.50684,19.775q.40282-.61817.66259-.99316l5.06836-6.8252q.14429-.14355.37451-.36035a.93481.93481,0,0,1,.6626-.21582H14.105a.5633.5633,0,0,1,.43213.1875.63548.63548,0,0,1,.17285.44629.78659.78659,0,0,1-.02881.21582.36117.36117,0,0,1-.08642.1582l-3.88819,5.29883a1.66039,1.66039,0,0,1,.418-.07129q.2439-.01464.44629-.01464a7.63818,7.63818,0,0,1,2.563.57617,8.37628,8.37628,0,0,1,2.3042,1.41113A6.74466,6.74466,0,0,1,18.09375,21.734a6.18819,6.18819,0,0,1,.61914,2.77929,6.78416,6.78416,0,0,1-1.03662,3.67188,7.46632,7.46632,0,0,1-2.92334,2.64941A9.35846,9.35846,0,0,1,10.33252,31.82778Zm-.05762-4.14649a3.42805,3.42805,0,0,0,1.55518-.36035,2.9366,2.9366,0,0,0,1.166-1.05078,3.012,3.012,0,0,0,.44678-1.6709,3.07115,3.07115,0,0,0-.43213-1.68457,2.76161,2.76161,0,0,0-1.15185-1.02246,3.61393,3.61393,0,0,0-1.584-.3457,3.70631,3.70631,0,0,0-1.59863.3457,2.73816,2.73816,0,0,0-1.166,1.02246,3.07123,3.07123,0,0,0-.43213,1.68457,3.01192,3.01192,0,0,0,.44629,1.6709,2.92828,2.92828,0,0,0,1.16651,1.05078A3.48676,3.48676,0,0,0,10.2749,27.68129Z"/></svg>