<svg xmlns="http://www.w3.org/2000/svg" viewBox="0 0 28.3915 32.6454"><defs><style>.a{fill:#f6f6f6;}.b{fill:#29235c;}.c{fill:#e30613;}.d{fill:#ffc931;}.e{fill:#3c3c3b;stroke:#f6f6f6;stroke-miterlimit:10;stroke-width:1.59996px;}</style></defs><circle class="a" cx="15.94618" cy="12.44532" r="12.44532"/><circle class="b" cx="15.94618" cy="12.44532" r="9.95625"/><circle class="c" cx="15.94618" cy="12.44532" r="7.46719"/><circle class="d" cx="15.94618" cy="12.44532" r="4.97813"/><path class="e" d="M11.44889,31.32441a.69217.69217,0,0,1-.21582-.504V27.65254H2.30533a.68986.68986,0,0,1-.5039-.21607.69057.69057,0,0,1-.21631-.504V24.02376a1.45478,1.45478,0,0,1,.31689-.864l8.35205-11.28931a1.31141,1.31141,0,0,1,1.06543-.48962h4.37744a.75284.75284,0,0,1,.53272.20166.67781.67781,0,0,1,.21631.51831V23.18855h2.53418a.71438.71438,0,0,1,.749.72v3.02393a.71778.71778,0,0,1-.20166.504.67847.67847,0,0,1-.51855.21607H16.446v3.16785a.67663.67663,0,0,1-.21631.51843.75114.75114,0,0,1-.53272.20154H11.95328A.69081.69081,0,0,1,11.44889,31.32441Zm-4.73731-7.9342H11.3483V16.91035Z"/></svg>