<svg xmlns="http://www.w3.org/2000/svg" viewBox="0 0 28.3915 32.6454"><defs><style>.a{fill:#f6f6f6;}.b{fill:#29235c;}.c{fill:#e30613;}.d{fill:#ffc931;}.e{fill:#3c3c3b;stroke:#f6f6f6;stroke-miterlimit:10;stroke-width:1.59996px;}</style></defs><circle class="a" cx="15.94618" cy="12.44532" r="12.44532"/><circle class="b" cx="15.94618" cy="12.44532" r="9.95625"/><circle class="c" cx="15.94618" cy="12.44532" r="7.46719"/><circle class="d" cx="15.94618" cy="12.44532" r="4.97813"/><path class="e" d="M8.54907,31.32429a.69036.69036,0,0,1-.21631-.5039V17.34224L4.47387,20.30855a.82273.82273,0,0,1-.43213.144.74775.74775,0,0,1-.605-.34558l-1.78515-2.304a.85161.85161,0,0,1-.11524-.432.74019.74019,0,0,1,.31641-.63355l6.68164-5.15515a1.12847,1.12847,0,0,1,.6626-.20154h3.80127a.75326.75326,0,0,1,.53271.20154.678.678,0,0,1,.21631.51843V30.82039a.67634.67634,0,0,1-.21631.51831.75071.75071,0,0,1-.53271.20166H9.053A.68907.68907,0,0,1,8.54907,31.32429Z"/></svg>