<svg xmlns="http://www.w3.org/2000/svg" viewBox="0 0 28.3915 32.6454"><defs><style>.a{fill:#f6f6f6;}.b{fill:#29235c;}.c{fill:#e30613;}.d{fill:#ffc931;}.e{fill:#3c3c3b;stroke:#f6f6f6;stroke-miterlimit:10;stroke-width:1.59996px;}</style></defs><circle class="a" cx="15.94618" cy="12.44532" r="12.44532"/><circle class="b" cx="15.94618" cy="12.44532" r="9.95625"/><circle class="c" cx="15.94618" cy="12.44532" r="7.46719"/><circle class="d" cx="15.94618" cy="12.44532" r="4.97813"/><path class="e" d="M1.92393,31.32441a.69082.69082,0,0,1-.21631-.504V28.66047a1.77256,1.77256,0,0,1,.72022-1.44006L5.10606,24.5998q2.73559-2.07366,4.13281-3.22558a14.238,14.238,0,0,0,2.13086-2.08789,2.92519,2.92519,0,0,0,.73438-1.77124A1.88364,1.88364,0,0,0,9.97325,15.384a2.19748,2.19748,0,0,0-1.728.67676,3.50167,3.50167,0,0,0-.80664,1.68482.88333.88333,0,0,1-.979.66235H2.65831a.6093.6093,0,0,1-.44678-.18726.57644.57644,0,0,1-.187-.4176,6.593,6.593,0,0,1,1.05127-3.44153,6.98335,6.98335,0,0,1,2.7793-2.44787,8.968,8.968,0,0,1,4.11816-.90723A10.25991,10.25991,0,0,1,14.149,11.784a5.67546,5.67546,0,0,1,3.57129,5.47192,5.99925,5.99925,0,0,1-1.28174,3.7439,20.09484,20.09484,0,0,1-3.90234,3.62878L10.1461,27.01887h7.28613a.68981.68981,0,0,1,.71973.72v3.08155a.71753.71753,0,0,1-.20117.504.6784.6784,0,0,1-.51856.21595H2.42784A.689.689,0,0,1,1.92393,31.32441Z"/></svg>