<?xml version="1.0" standalone="no"?>
<!DOCTYPE svg PUBLIC "-//W3C//DTD SVG 1.1//EN" "http://www.w3.org/Graphics/SVG/1.1/DTD/svg11.dtd" >
<svg xmlns="http://www.w3.org/2000/svg">
<metadata></metadata>
<defs>
<font id="nehamaregular" horiz-adv-x="770" >
<font-face units-per-em="2048" ascent="1638" descent="-410" />
<missing-glyph horiz-adv-x="421" />
<glyph horiz-adv-x="2048" />
<glyph horiz-adv-x="2048" />
<glyph unicode="&#xd;" horiz-adv-x="421" />
<glyph unicode=" "  horiz-adv-x="421" />
<glyph unicode="&#x09;" horiz-adv-x="421" />
<glyph unicode="&#xa0;" horiz-adv-x="421" />
<glyph unicode="!" horiz-adv-x="471" d="M84 242q10 -33 39 -54q29 -18 61 -18h17q8 2 12 2q25 4 47 21l2 2l2 4q27 20 33 53q10 33 0 61q-12 31 -39 49q-29 18 -59 19h-19q-8 0 -20 -6q-2 0 -8 -2t-9 -4q-4 -2 -2 -2q-6 -2 -10 -5q0 -2 -2 -2t-4 -2l-2 -2q-27 -18 -39 -51q-10 -33 0 -63zM129 565q-6 -39 21 -76 q27 -35 67 -40q39 -6 74 20q37 27 41 68q27 182 84 321q20 53 -13 98q-31 47 -88 45q-67 -1 -92 -67q-66 -164 -94 -369z" />
<glyph unicode="&#x22;" horiz-adv-x="669" d="M82 950q-8 -41 16 -78q23 -35 62 -45q39 -8 76 15q37 25 45 63q23 104 59 191q20 53 -10 98q-33 45 -88 43q-31 -2 -56 -18q-25 -18 -34 -48q-43 -104 -70 -221zM354 950q-10 -41 15 -78q25 -35 61 -45q41 -8 78 15q37 25 45 63q23 104 57 191q23 53 -10 98 q-31 45 -86 43q-28 -2 -55 -18q-27 -18 -37 -48q-41 -104 -68 -221z" />
<glyph unicode="#" horiz-adv-x="899" d="M76 434q-2 -37 22 -69q27 -33 64 -39q-2 -41 -2 -45q-2 -41 26 -74q31 -35 70 -37q41 -4 74 27q35 29 37 69q4 51 4 60l137 2q0 -6 -2 -23v-24q-4 -41 26 -74q27 -35 70 -37q39 -4 74 27q33 29 35 69q2 20 4 64h12q39 -2 70 28q33 29 34 70q2 39 -24 72q-29 31 -70 37 q8 49 17 96q35 0 61 22q29 20 37 54q8 33 -4 65q-12 33 -41 51q8 20 12 33q23 51 -10 98t-88 45q-70 -2 -94 -67q-18 -45 -35 -96h-125q6 16 6 20q23 51 -10 98t-88 45q-67 -1 -94 -67q-16 -45 -33 -98h-17q-37 -2 -67 -27q-29 -25 -35 -61q-6 -35 14 -70q18 -35 56 -45 q-10 -47 -17 -103h-4q-37 0 -69 -28q-29 -29 -33 -68zM393 532q6 57 17 97l135 2q-13 -59 -17 -96z" />
<glyph unicode="$" horiz-adv-x="831" d="M84 344q4 -27 18 -49q14 -18 37 -37q39 -33 97 -57q29 -14 61 -23l-21 -233q-2 -39 25 -72q29 -33 68 -35q41 -4 73 25q31 29 35 67l19 236q20 6 45 12q111 37 159 111q53 76 31 172q-20 78 -78 129q-43 39 -118 69l10 115q41 -23 63 -53q23 -35 66 -43q41 -6 78 20 q35 27 39 70t-25 74q-74 98 -207 141l16 219q6 45 -26 78q-31 33 -76 31q-36 0 -63 -29q-31 -29 -33 -63l-17 -220q-115 -18 -180 -92q-90 -98 -49 -217q31 -90 154 -147q18 -8 39 -17l-13 -139q-16 6 -37 21q-20 41 -65 53q-45 10 -82 -17q-53 -37 -43 -100zM319 758 q0 4 11 14q4 6 14 12l-4 -43q-20 16 -21 17zM512 385l4 57q6 -2 4 -2q12 -10 17 -26q2 -8 0 -13q-6 -8 -25 -16z" />
<glyph unicode="%" horiz-adv-x="966" d="M84 784q10 -33 41 -51q27 -20 59 -20h19q6 0 14 2q25 4 47 20v2l4 4q25 20 35 54q10 35 -2 63q-10 33 -41 51q-29 18 -59 19h-19q-8 0 -20 -4q-4 0 -10 -4q-6 -2 -9 -5q-2 -2 -4 -2q-4 0 -8 -4l-2 -2h-4l-2 -2t-2 -4q-27 -18 -37 -53q-10 -33 0 -64zM217 252 q10 -45 49 -68t82 -10q43 12 66 51l360 615q33 53 4 106q-31 53 -90 55q-6 0 -12 -2q-55 -4 -84 -53l-361 -614q-25 -37 -14 -80zM705 391q10 -33 38 -51q27 -20 62 -21h18q6 2 13 3q25 4 47 20l2 2l2 4q27 23 35 53q8 35 -2 66t-39 49q-29 20 -62 21h-18q-10 -2 -21 -7 q-2 0 -8 -4q-6 -2 -8 -4q-4 -2 -6 -2q-4 0 -6 -4h-4q0 -2 -5 -2v-2q-2 -2 -4 -2q-25 -20 -34 -53q-10 -33 0 -66z" />
<glyph unicode="&#x26;" horiz-adv-x="862" d="M82 444q4 59 27 105q23 47 73 94q-41 57 -37 127q8 100 80 166t174 65q104 0 166 -65q66 -66 58 -166q-4 -68 -52 -127q46 -51 62 -94t12 -105q-10 -117 -94 -196q-86 -78 -207 -78t-194 78q-76 80 -68 196zM272 442q-2 -43 23 -71q25 -27 65 -27q43 0 72 27q29 29 31 71 q4 37 -23 66t-65 29q-41 0 -70 -29q-31 -27 -33 -66zM324 768q0 -31 16 -49q16 -20 47 -21q27 0 45 21q20 20 23 47q2 29 -17 47q-18 18 -45 18t-47 -20q-18 -16 -22 -43zM455 539q-6 27 4 51q10 23 30 39q23 16 48 18q43 2 71 -31l10 -10l46 49q24 27 63 27h8q25 0 47 -16 q23 -16 31 -39q10 -25 4 -52q-4 -27 -20 -45l-54 -55l25 -29q27 -27 27 -63q0 -39 -29 -66q-29 -25 -66 -22q-39 0 -63 31l-19 20q-27 -18 -59 -14q-35 6 -55 26q-20 25 -25 58q0 35 17 59l-19 19q-18 20 -22 45z" />
<glyph unicode="'" horiz-adv-x="397" d="M82 950q-8 -41 16 -78q23 -35 62 -45q39 -8 76 15q37 25 45 63q23 104 59 191q20 53 -10 98q-33 45 -88 43q-31 -2 -56 -18q-25 -18 -34 -48q-43 -104 -70 -221z" />
<glyph unicode="(" horiz-adv-x="501" d="M88 590q-14 -303 205 -574q23 -29 59 -32q37 -4 66 18q29 25 33 61q2 37 -21 66q-176 217 -166 453q8 215 172 471q29 45 2 90q-27 49 -82 45q-44 -2 -69 -41q-188 -295 -199 -557z" />
<glyph unicode=")" horiz-adv-x="501" d="M88 63q4 -37 33 -61q29 -23 65 -18q37 4 60 32q219 270 207 574q-12 262 -201 557q-25 39 -70 41q-55 4 -82 -45q-27 -45 2 -90q164 -256 172 -471q12 -236 -165 -453q-23 -29 -21 -66z" />
<glyph unicode="*" horiz-adv-x="890" d="M80 375q-6 -45 22 -80q27 -35 72 -39q43 -4 78 25l201 159l159 -161q31 -33 74 -33t74 30q31 31 31 74t-31 74l-146 147l193 154q27 18 37 53q10 33 0 64q-12 31 -41 49q-29 20 -60 20q-36 -1 -65 -24l-209 -168l-152 153q-31 31 -73 33q-31 0 -60 -18q-27 -18 -39 -47 q-10 -29 -4 -62q6 -31 29 -53l133 -135l-182 -146q-35 -27 -41 -69z" />
<glyph unicode="+" d="M74 580q2 -43 35 -76q33 -31 73 -31l97 2l-13 -127q-4 -41 25 -76q29 -37 69 -41q43 -2 78 27q35 31 39 72l15 147l131 2q45 -2 77 31q33 31 33 76q0 47 -33 78q-35 31 -82 28l-106 -2l12 135q6 47 -26 82q-33 37 -80 35q-39 0 -70 -29q-31 -31 -35 -69l-14 -158h-121 q-41 0 -72 -33q-33 -33 -32 -73z" />
<glyph unicode="," horiz-adv-x="393" d="M82 76q-8 -39 16 -76q20 -37 60 -43q39 -10 75 14q37 23 46 60q23 102 57 190q20 51 -10 96q-31 47 -86 43q-65 -2 -90 -63q-41 -104 -68 -221z" />
<glyph unicode="-" d="M74 571q2 -43 35 -73q33 -31 73 -31l441 4q41 0 73 31q33 31 35 71q0 43 -31 76q-33 33 -73 35h-9l-440 -6q-41 0 -72 -33q-33 -33 -32 -74z" />
<glyph unicode="." horiz-adv-x="344" d="M84 242q10 -33 39 -54q29 -18 61 -18h17q6 2 12 2q25 4 47 21v2l4 4q25 20 33 53q10 33 0 61q-12 31 -39 49q-29 18 -61 19h-17q-12 -2 -22 -6l-6 -2q-6 -4 -9 -4h-2q-6 -4 -10 -7q0 -2 -2 -2q-2 -2 -4 -2l-2 -2q-27 -18 -39 -51q-10 -33 0 -63z" />
<glyph unicode="/" horiz-adv-x="751" d="M86 231q-12 47 12 86l385 654q29 51 88 55q70 6 105 -51q37 -59 0 -119l-385 -651q-20 -41 -68 -55q-45 -12 -86 12q-41 25 -51 69z" />
<glyph unicode="0" horiz-adv-x="790" d="M123 621q-49 -176 37 -314q82 -129 219 -137q127 -8 229 72q121 96 135 268q10 172 -32 299q-31 80 -80 127q-63 61 -152 65q-149 9 -241 -116q-63 -84 -115 -264zM317 565q41 143 80 197q20 27 31 33q14 6 41 6q12 0 20 -10q16 -16 31 -50q31 -86 21 -219 q-6 -82 -56 -121q-43 -33 -94 -30q-39 4 -63 43q-39 53 -11 151z" />
<glyph unicode="1" horiz-adv-x="593" d="M80 696q-6 -45 22 -80q29 -33 72 -36q45 -2 78 26l4 4q-20 -127 -35 -329q-4 -41 27 -74q29 -35 69 -37q41 -4 74 27q35 29 37 69q25 387 107 592q23 53 -13 98q-33 47 -88 43q-34 1 -61 -22l-254 -209q-35 -27 -39 -72z" />
<glyph unicode="2" horiz-adv-x="757" d="M102 225q27 -57 93 -55l421 14q41 -2 72 31q33 31 31 70q-2 43 -35 71q-31 29 -74 25l-174 -6q121 109 180 172q63 70 76 162q12 84 -26 149q-74 129 -220 141q-27 4 -53 0q-85 -6 -155 -55q-104 -74 -121 -209q-6 -39 20 -73q27 -33 66 -39q41 -4 71 22q35 29 39 68 q4 47 39 71q33 23 78 19q10 0 33 -15q23 -14 31 -28q12 -18 10 -29q-2 -16 -33 -49q-51 -53 -174 -168q-113 -100 -182 -182q-41 -47 -13 -107z" />
<glyph unicode="3" horiz-adv-x="763" d="M84 426q-10 -41 12 -78q66 -117 193 -160q125 -41 243 5q125 49 162 169q33 106 -16 191q-41 70 -103 102q-6 0 -16 4t-14 7l133 170q39 51 10 108t-92 55l-412 -4q-39 0 -69 -30q-33 -33 -31 -74q0 -39 31 -70q33 -31 73 -30l199 4l-100 -136q-39 -47 -15 -102 q25 -55 84 -59q92 -10 125 -27q8 -4 21 -20q-2 4 -2 -7q2 -14 0 -22q-10 -25 -39 -37q-53 -20 -105 -4q-55 18 -84 70q-20 37 -61 47q-43 12 -80 -11q-35 -20 -47 -61z" />
<glyph unicode="4" horiz-adv-x="776" d="M82 659q-8 -45 20 -81q31 -37 78 -39l250 -7q-12 -92 -22 -247q-6 -43 22 -76q27 -37 72 -39q43 -4 76 29q33 29 32 73q27 381 109 586q20 49 -10 98q-33 45 -91 43q-68 -2 -90 -65q-39 -94 -63 -197l-158 4l27 136q10 49 -21 88t-82 36q-32 1 -63 -24q-27 -25 -33 -59z " />
<glyph unicode="5" horiz-adv-x="784" d="M82 315q-8 -43 16 -77q20 -35 64 -43q68 -14 147 -19q180 -12 266 49q76 55 109 133t16 154q-16 74 -71 127q-57 51 -133 63l-168 25l8 68l309 6q39 0 70 30q33 31 30 70q0 39 -30 70q-31 31 -72 30l-395 -6q-37 0 -64 -24q-31 -27 -34 -62l-35 -254q-6 -39 20 -73 q25 -35 64 -39l268 -39q31 -4 37 -37q8 -37 -45 -80q-39 -18 -135 -12q-66 6 -119 16q-43 10 -78 -12q-35 -25 -45 -64z" />
<glyph unicode="6" horiz-adv-x="718" d="M74 473q0 -125 88 -215q90 -88 215 -88t215 88q90 90 90 215q0 96 -57 176q-53 76 -142 109q49 29 88 41q37 10 60 43q20 33 14 71q-4 37 -37 64q-31 27 -67 24q-13 0 -27 -4q-98 -27 -205 -100q-209 -150 -233 -381v-6q-2 -16 -2 -37zM281 473v10q0 6 2 11v2q8 33 32 53 l9 4q25 16 53 16q42 1 69 -26q27 -29 27 -70t-27 -67q-27 -29 -69 -29q-41 0 -70 29q-27 27 -26 67z" />
<glyph unicode="7" horiz-adv-x="788" d="M74 891q2 -41 32 -72q33 -31 72 -31l281 5q-16 -63 -33 -142l-111 -2q-41 0 -71 -33q-31 -31 -29 -71q0 -41 33 -72q31 -29 69 -29h82q-6 -53 -12 -157q-6 -45 23 -78q27 -37 71 -39q45 -4 78 29q33 29 33 73q6 104 14 177l33 2q39 0 72 30q31 33 28 72q0 41 -30 70 q-31 33 -72 32q16 76 41 144q33 12 53 45q23 33 17 69q-4 37 -37 62q-31 27 -66 24h-24q-10 2 -21 2q-8 0 -16 -2l-408 -4q-41 0 -72 -32q-31 -31 -30 -72z" />
<glyph unicode="8" horiz-adv-x="686" d="M82 444q4 59 27 105q23 47 73 94q-41 57 -37 127q8 100 80 166t174 65q104 0 166 -65q66 -66 58 -166q-4 -68 -52 -127q46 -51 62 -94t12 -105q-10 -117 -94 -196q-86 -78 -207 -78t-194 78q-76 80 -68 196zM266 442q-2 -43 23 -71q25 -27 67 -27q41 0 70 27q29 29 33 71 q2 37 -25 66t-65 29q-39 0 -70 -29q-29 -27 -33 -66zM317 768q-2 -31 17 -49q16 -20 45 -21q27 0 47 21q20 20 20 47q4 29 -14 47q-16 18 -45 18q-27 0 -47 -20q-20 -16 -23 -43z" />
<glyph unicode="9" horiz-adv-x="720" d="M74 698q0 -96 57 -174q53 -78 141 -110q-49 -27 -88 -39t-61 -51q-20 -39 -10 -78q12 -41 49 -62q41 -23 80 -10q100 29 204 102q211 147 234 381q2 6 2 9v2q2 14 2 30q0 127 -90 215q-90 90 -217 91h-15q-119 -4 -204 -95q-84 -88 -84 -211zM281 698q0 43 28 70 q29 29 68 29q42 0 69 -29q29 -27 29 -70v-8q-2 -4 -2 -12q-6 -35 -33 -55t-63 -21q-39 0 -68 29t-28 67z" />
<glyph unicode=":" horiz-adv-x="380" d="M84 240q8 -31 37 -52q27 -18 59 -18h17q8 2 12 2q25 4 45 18q0 2 2 3q2 4 4 4v2q23 18 31 49q10 33 0 61q-10 29 -39 47q-27 18 -57 19h-17q-12 -2 -20 -4q-2 0 -8 -4q-6 -2 -9 -5q-6 -4 -10 -6q-2 0 -4 -2h-4v-2h-2q-27 -20 -37 -51q-10 -33 0 -61zM127 678 q10 -29 37 -49q29 -18 59 -19h17q8 2 12 2q25 4 45 19q0 2 2 2q2 4 2 6q25 18 33 49q10 31 0 62q-12 29 -39 47t-57 18q-7 0 -17 -2q-10 0 -20 -2l-6 -6q-8 -2 -11 -4q-6 0 -10 -6h-4t-2 -2h-2q0 -2 -2 -2q-25 -18 -35 -50q-10 -33 -2 -63z" />
<glyph unicode=";" horiz-adv-x="415" d="M82 76q-8 -39 16 -76q20 -37 60 -43q39 -10 75 14q37 23 46 60q23 102 57 190q20 51 -10 96q-31 47 -86 43q-65 -2 -90 -63q-41 -104 -68 -221zM162 672q12 -29 39 -49t59 -19h14q8 0 13 2q27 4 47 19v4q2 2 4 2q23 20 33 51q8 33 -2 61q-10 29 -39 48q-27 20 -58 20 q-12 0 -16 -2q-10 0 -20 -4q-2 0 -9 -4q-6 -2 -8 -4q-2 0 -4 -2q-4 0 -8 -4h-2q-2 -2 -4 -3v-2q-2 -2 -4 -2q-23 -18 -35 -51q-10 -31 0 -61z" />
<glyph unicode="&#x3c;" horiz-adv-x="679" d="M76 549q2 -45 35 -72l323 -280q31 -31 76 -27q43 2 72 35q27 33 24 76q-4 43 -37 71l-243 211l272 295q45 49 20 111q-27 61 -92 63q-47 2 -80 -33l-344 -376q-29 -31 -26 -74z" />
<glyph unicode="=" horiz-adv-x="796" d="M74 422q2 -43 35 -74q33 -33 73 -33l441 7q41 0 73 30q33 31 35 74q0 41 -31 74q-33 33 -73 35q-5 -1 -9 -3l-438 -4q-43 0 -74 -32q-33 -33 -32 -74zM102 731q0 -43 33 -74t74 -30l440 6q41 -2 74 29t35 73q0 43 -31 76q-31 31 -72 33h-10l-440 -6q-41 0 -72 -33 q-33 -33 -31 -74z" />
<glyph unicode="&#x3e;" horiz-adv-x="679" d="M98 969q-25 -61 21 -111l272 -295l-241 -211q-35 -29 -37 -71q-4 -43 24 -76q29 -33 72 -35q43 -4 76 27l321 280q33 27 35 72q2 43 -27 74l-344 376q-30 35 -77 33q-68 -2 -95 -63z" />
<glyph unicode="?" horiz-adv-x="587" d="M82 893q-8 -39 12 -72q23 -35 62 -45q39 -8 73 12q43 27 62 27q8 0 22 -14q10 -8 19 -33q8 -23 8 -29q-2 -12 -33 -41q-80 -78 -92 -155q-8 -41 16 -76q23 -33 66 -39q41 -6 74 21q33 25 37 67q2 10 34 41q80 76 90 160q16 135 -90 229q-55 51 -141 55h-20 q-80 -2 -154 -47q-35 -20 -45 -61zM174 236q10 -29 37 -48q27 -18 55 -18h17q8 2 12 2q25 4 45 18v3l4 4q23 18 33 49q6 31 -4 59q-10 29 -35 47q-27 18 -57 19q-11 0 -17 -2q-10 0 -20 -4l-6 -5q-6 -2 -9 -4h-2q-6 -2 -10 -4q0 -2 -2 -2t-4 -2l-4 -4q-23 -16 -33 -49 q-10 -31 0 -59z" />
<glyph unicode="@" horiz-adv-x="1126" d="M98 446q29 -131 133 -223q127 -113 314 -106q31 0 51 22q23 25 20 54q-2 29 -24 49q-23 23 -51 20q-129 -4 -213 70q-68 61 -84 145q-18 80 10 172q37 123 143 205q111 84 265 43q152 -39 210 -162q61 -129 31 -254q-10 -47 -33 -67q-4 -2 -8 -6q-18 33 -24 63 q-14 55 -21 141q-4 45 -4 47q-2 8 -2 13q-4 10 -6 14t-8 12q2 0 0 2q0 2 -2 5q-47 90 -129 118q-88 33 -187 -18q-104 -51 -145 -191q-43 -152 43 -237q80 -80 205 -68q76 6 139 45q25 -55 72 -86q12 -6 24 -8q90 -16 156 47q51 51 74 139q43 176 -43 355q-57 113 -168 184 q-109 68 -238 74q-162 6 -289 -88q-147 -111 -196 -281q-39 -127 -15 -244zM475 573q23 78 70 103q25 10 43 14q14 2 28 -4q25 -10 46 -45q-2 -18 -13 -156q-41 -27 -80 -28q-57 -6 -88 24q-25 25 -6 92z" />
<glyph unicode="[" horiz-adv-x="604" d="M102 1190q2 31 29 55q25 23 55 23h238q33 0 59 -25q25 -25 25 -57q0 -33 -25 -58q-27 -27 -59 -26h-156q-18 -516 72 -1039h143q33 0 58 -26q27 -25 26 -57q0 -33 -26 -58q-25 -25 -58 -24h-213q-70 0 -82 67q-115 616 -86 1225z" />
<glyph unicode="\" horiz-adv-x="749" d="M109 856q-35 59 0 119q37 57 106 51q59 -4 88 -55l383 -654q27 -39 14 -86q-10 -45 -51 -69q-41 -25 -88 -12q-45 14 -67 55z" />
<glyph unicode="]" horiz-adv-x="606" d="M74 -20q0 33 24 57q27 27 60 26h143q90 522 72 1039h-156q-33 0 -59 26q-25 25 -25 58t25 57q27 25 59 25h238q31 0 57 -23q23 -25 25 -55q31 -608 -84 -1225q-12 -68 -80 -67h-215q-33 0 -60 24q-25 25 -24 58z" />
<glyph unicode="^" horiz-adv-x="940" d="M78 707q4 -41 37 -68t73 -25q43 4 72 37l215 267l252 -252q31 -31 74 -31q41 0 71 31q31 29 31 71q0 43 -31 74l-331 330q-29 31 -74 30q-47 -1 -78 -38l-289 -351q-27 -33 -22 -75z" />
<glyph unicode="_" horiz-adv-x="989" d="M74 127q2 -43 35 -74q33 -33 73 -33l660 7q41 -2 73 28q33 31 35 74t-30 74q-33 33 -74 35h-6l-662 -5q-41 0 -72 -32q-33 -33 -32 -74z" />
<glyph unicode="`" horiz-adv-x="305" />
<glyph unicode="{" horiz-adv-x="688" d="M74 584q0 -125 102 -203q55 -41 45 -33q23 -184 53 -360q4 -29 27 -49q25 -20 53 -21h213q33 0 58 27q27 25 26 57q0 33 -26 57q-25 25 -58 25h-141q-29 178 -43 291q-6 55 -53 96q10 -8 -56 41q-37 29 -36 72q0 41 24 59q51 39 45 33q47 41 43 98q-6 164 0 344h158 q33 0 57 25q27 27 27 59q0 33 -27 58q-25 25 -57 24h-236q-31 0 -55 -22q-25 -25 -29 -56q-10 -199 -2 -418q-14 -8 -22 -14q-90 -66 -90 -190z" />
<glyph unicode="|" horiz-adv-x="368" d="M78 -117q-2 -41 28 -73q31 -33 72 -35q39 -2 72 28q33 29 37 72q45 1034 -2 1409q-4 37 -37 64q-31 29 -70 26q-47 0 -76 -37q-29 -33 -22 -80q45 -354 -2 -1374z" />
<glyph unicode="}" horiz-adv-x="688" d="M74 2q0 -33 24 -57q27 -27 60 -27h213q29 0 51 21q25 20 31 49q29 176 51 360q-8 -8 45 33q102 78 102 203t-92 190q-6 6 -20 14q8 219 -4 418q-2 31 -27 56q-25 23 -55 22h-236q-33 0 -59 -24q-25 -25 -25 -58t25 -59q27 -25 59 -25h156q6 -180 0 -344q0 -57 45 -98 q-8 6 45 -33q23 -18 22 -59q0 -43 -36 -72q-63 -49 -54 -41q-47 -41 -53 -96q-12 -113 -43 -291h-141q-33 0 -60 -25q-25 -25 -24 -57z" />
<glyph unicode="~" horiz-adv-x="923" d="M74 446q45 252 239 252q70 0 138 -39q12 -6 122 -73q39 -25 62 -25q98 0 131 135l121 -43q-8 -95 -78 -161q-82 -78 -168 -78q-51 0 -166 77.5t-156 77.5q-68 0 -92 -69q0 -4 -20 -97z" />
<glyph unicode="&#xad;" d="M74 571q2 -43 35 -73q33 -31 73 -31l441 4q41 0 73 31q33 31 35 71q0 43 -31 76q-33 33 -73 35h-9l-440 -6q-41 0 -72 -33q-33 -33 -32 -74z" />
<glyph unicode="&#x2c6;" horiz-adv-x="940" d="M78 707q4 -41 37 -68t73 -25q43 4 72 37l215 267l252 -252q31 -31 74 -31q41 0 71 31q31 29 31 71q0 43 -31 74l-331 330q-29 31 -74 30q-47 -1 -78 -38l-289 -351q-27 -33 -22 -75z" />
<glyph unicode="&#x5be;" d="M74 571q2 -43 35 -73q33 -31 73 -31l441 4q41 0 73 31q33 31 35 71q0 43 -31 76q-33 33 -73 35h-9l-440 -6q-41 0 -72 -33q-33 -33 -32 -74z" />
<glyph unicode="&#x5c3;" horiz-adv-x="380" d="M84 240q8 -31 37 -52q27 -18 59 -18h17q8 2 12 2q25 4 45 18q0 2 2 3q2 4 4 4v2q23 18 31 49q10 33 0 61q-10 29 -39 47q-27 18 -57 19h-17q-12 -2 -20 -4q-2 0 -8 -4q-6 -2 -9 -5q-6 -4 -10 -6q-2 0 -4 -2h-4v-2h-2q-27 -20 -37 -51q-10 -33 0 -61zM127 678 q10 -29 37 -49q29 -18 59 -19h17q8 2 12 2q25 4 45 19q0 2 2 2q2 4 2 6q25 18 33 49q10 31 0 62q-12 29 -39 47t-57 18q-7 0 -17 -2q-10 0 -20 -2l-6 -6q-8 -2 -11 -4q-6 0 -10 -6h-4t-2 -2h-2q0 -2 -2 -2q-25 -18 -35 -50q-10 -33 -2 -63z" />
<glyph unicode="&#x5d0;" horiz-adv-x="915" d="M74 270q0 -39 28 -69q33 -31 72 -31t70 29q31 31 30 69q0 104 99 244q133 -166 321 -307q33 -23 74 -19q41 6 66 39t18 76q-6 39 -39 64q-88 68 -162 135q180 199 217 379q10 47 -20 84q-31 37 -78 36q-34 1 -61 -22q-29 -25 -37 -59q-25 -129 -156 -271 q-104 133 -174 291q-25 63 -94 61q-53 0 -80 -47q-31 -45 -8 -94q39 -88 90 -174q-174 -227 -176 -414z" />
<glyph unicode="&#x5d1;" horiz-adv-x="954" d="M74 272q0 -41 30 -71q33 -31 74 -31q-33 0 479 4h15h141q41 0 72 31q33 31 33 74q0 41 -33 71q-31 31 -72 31h-39q25 291 98 477q20 51 -10 98q-31 43 -86 43l-530 -6q-41 0 -72 -30q-33 -31 -33 -72t33 -72q31 -31 74 -31l387 5q-47 -170 -68 -414q-231 -4 -389 -4 q-41 2 -74 -31q-31 -31 -30 -72z" />
<glyph unicode="&#x5d2;" horiz-adv-x="937" d="M76 279q-2 -43 26 -76q33 -31 72 -33q41 -2 74 29q33 29 35 69q2 53 22 181h277q-8 -74 -15 -166q-2 -41 27 -74q29 -35 70 -37t73 27q33 29 37 69q12 166 25 264q2 4 2 11q27 176 82 315q18 51 -13 98q-31 43 -86 43l-532 -4q-41 0 -74 -32q-31 -31 -31 -72t33 -72 q31 -31 74 -31l389 5q-18 -68 -33 -138h-393q-39 0 -70 -26q-29 -27 -32 -64z" />
<glyph unicode="&#x5d3;" horiz-adv-x="854" d="M74 889q2 -41 32 -72q33 -31 72 -31l174 2q-51 -182 -71 -507q-4 -41 26 -74q29 -35 70 -37q39 -4 74 27q35 29 34 69q25 340 86 525l142 2q41 0 73 30q31 33 31 74t-33 72q-31 31 -73 30l-189 -2q-12 4 -26 2q-13 0 -25 -2l-293 -4q-41 0 -74 -30q-31 -33 -30 -74z" />
<glyph unicode="&#x5d4;" horiz-adv-x="919" d="M76 281q-2 -41 26 -74q29 -35 72 -37q39 -4 74 27q33 29 35 69q12 164 24 254q6 47 -22 82q-31 37 -78 37q-39 2 -70 -25q-31 -29 -35 -65q-14 -98 -26 -268zM127 891q2 -43 33 -74q33 -31 73 -29l390 3q-53 -190 -74 -510q-4 -41 24 -74q29 -35 70 -37q41 -4 74 27 q35 29 37 69q27 385 108 592q20 51 -10 98q-31 43 -88 43l-533 -4q-41 0 -73 -32q-31 -31 -31 -72z" />
<glyph unicode="&#x5d5;" horiz-adv-x="450" d="M76 281q-2 -41 26 -74q29 -35 72 -37q39 -4 74 27q33 29 35 69q27 385 108 590q23 51 -10 100q-33 45 -90 43q-67 -2 -92 -65q-94 -236 -123 -653z" />
<glyph unicode="&#x5d6;" horiz-adv-x="630" d="M74 889q2 -41 32 -74q33 -29 72 -29h41q-51 -184 -74 -505q-2 -41 29 -74q27 -35 70 -37q39 -4 73 27q33 29 35 69q25 342 84 525h53q43 2 72 32q31 33 31 74t-33 70q-31 33 -72 32l-100 -2q-12 2 -27 2q-10 0 -24 -4l-160 -2q-41 0 -72 -32q-31 -33 -30 -72z" />
<glyph unicode="&#x5d7;" horiz-adv-x="909" d="M76 281q-2 -41 26 -74q29 -35 72 -37q39 -4 74 27q33 29 35 69q25 338 84 522h247q-53 -190 -75 -507q-2 -41 26 -74q29 -35 70 -37q41 -4 76 27q33 29 34 69q27 387 109 590q18 51 -12 96q-29 47 -86 47l-426 -6q-18 6 -39 6q-17 0 -31 -6h-37q-31 0 -59 -18 q-27 -18 -39 -49q-10 -29 0 -62q8 -33 33 -53q-57 -193 -82 -530z" />
<glyph unicode="&#x5d8;" horiz-adv-x="962" d="M98 317q-25 -51 6 -100q31 -47 89 -47q160 0 260 2q102 2 225 2q16 -2 33 2q51 4 77 47q29 43 11 90q25 346 104 545q23 51 -10 98q-33 45 -90 43q-6 0 -12 -2h-3q-25 2 -45 -10q-186 -86 -329 -332q-25 -37 -15 -80t50 -63q37 -23 79 -10q43 12 64 51q16 31 33 53 q-18 -102 -27 -225q-66 0 -145 -2q-80 -4 -144 -4q25 297 101 483q20 51 -11 98q-33 45 -90 43q-65 -2 -92 -65q-92 -231 -119 -617z" />
<glyph unicode="&#x5d9;" horiz-adv-x="444" d="M82 600q-8 -43 20 -84q27 -39 72 -49q43 -6 82 20q41 29 47 72q27 154 80 283q23 55 -12 106q-37 51 -97 49q-32 -2 -61 -20q-29 -20 -39 -53q-59 -150 -92 -324z" />
<glyph unicode="&#x5da;" horiz-adv-x="870" d="M74 889q2 -41 32 -72q33 -31 72 -29l395 3l-106 -1080q-4 -39 25 -73q29 -35 67 -39q41 -2 76 24q33 29 37 70l112 1130q49 49 21 113q-27 63 -96 63h-9h-14h-14l-494 -6q-43 0 -74 -32q-31 -31 -30 -72z" />
<glyph unicode="&#x5db;" horiz-adv-x="972" d="M74 272q0 -41 32 -71q31 -31 72 -31q160 0 279 2q131 2 229 2q20 -2 41 0h12q70 0 97 64q27 63 -21 112q25 317 100 508q20 51 -10 98q-31 43 -86 43l-532 -4q-39 0 -70 -32q-33 -31 -33 -72t33 -72q31 -31 74 -31l387 5q-47 -170 -68 -412q-29 0 -180 -4 q-100 -2 -252 -2q-41 2 -72 -31q-33 -31 -32 -72z" />
<glyph unicode="&#x5dc;" horiz-adv-x="890" d="M98 858q27 -72 101 -70l372 5q-51 -184 -73 -512q-2 -41 26.5 -75t69.5 -37t74.5 26.5t36.5 70.5q25 358 92 549q57 45 32 115q-23 70 -96 69q-10 4 -20 2q-8 0 -15 -2l-348 -2q23 88 53 164q20 53 -11.5 100.5t-90.5 43.5q-67 0 -92 -66q-47 -123 -78 -266 q-57 -45 -33 -115z" />
<glyph unicode="&#x5dd;" horiz-adv-x="1073" d="M94 311q-20 -49 10 -96q31 -47 89 -45q158 0 313 2q164 2 285 2h2q14 -2 28 0h6q61 0 93 55q29 55 -7 107q25 328 103 522q20 51 -10 98q-33 43 -86 43l-658 -4q-33 0 -59 -18q-29 -20 -39 -49q-10 -31 -2 -64q10 -33 33 -53l-97 -489q-2 -4 -4 -11zM317 375l84 413 l375 5q-47 -168 -65 -412q-78 0 -195 -2q-121 -2 -199 -4z" />
<glyph unicode="&#x5de;" horiz-adv-x="1060" d="M88 238q14 -41 55 -60q41 -18 80 -2q41 16 58 60q199 449 489 555q16 2 31 2q0 -25 -4 -41q-63 -338 -64 -369h-26h-27q-2 -2 -4 -2h-4h-4h-138q-41 0 -71 -33q-33 -31 -33 -69q0 -43 33 -74q31 -31 71 -29h142h26l7 2q6 0 6 2h129q45 0 75 35q31 35 27 80q-10 68 55 420 q27 141 -24 213q-41 55 -115 67q-25 4 -49 4h-14q-31 0 -68 -8l-16 -4q-156 -53 -285 -172q-16 59 -39 119q-27 66 -96 65q-53 0 -86 -45q-31 -47 -8 -96q41 -106 67 -233q-92 -131 -172 -308q-18 -39 -4 -79zM729 186q8 4 21 15l-15 -15q2 4 -6 0z" />
<glyph unicode="&#x5df;" horiz-adv-x="442" d="M78 -283q-4 -41 24 -75q29 -35 68 -37q41 -4 74 24q35 27 39 68l116 1188q4 47 -26 82q-31 35 -76 32q-37 1 -70 -28q-29 -27 -32 -64z" />
<glyph unicode="&#x5e0;" horiz-adv-x="792" d="M76 268q0 -39 33 -69q33 -31 71 -29q231 6 328 4h10h2q39 -2 72 27t35 67q27 387 106 590q23 51 -10 98q-33 45 -88 43q-69 -2 -92 -65q-88 -219 -115 -553h-86q-47 -2 -168 -6q-39 0 -72 -33q-29 -31 -26 -74z" />
<glyph unicode="&#x5e1;" horiz-adv-x="878" d="M102 831l70 -569q4 -39 33 -65q33 -27 69 -27h261q33 0 61 20q29 20 39 52l186 604q4 10 4 22q14 49 -16 93q-33 41 -84 38l-532 -4q-59 0 -91 -51q-29 -53 0 -104v-9zM317 788l273 5l-131 -418h-92z" />
<glyph unicode="&#x5e2;" horiz-adv-x="1060" d="M47 272q0 -39 31 -69q33 -31 74 -31q160 0 321 2q162 2 305 2q45 -6 78 23q35 27 39 71q25 385 106 588q23 53 -10 98q-33 47 -88 45q-68 -2 -92 -67q-88 -219 -115 -553h-207q27 291 101 477q20 53 -10 98q-33 47 -91 45q-67 -1 -90 -67q-88 -219 -114 -557h-133 q-41 0 -74 -31q-31 -31 -31 -74z" />
<glyph unicode="&#x5e3;" horiz-adv-x="933" d="M84 616q-10 -43 16 -81q29 -37 74 -41l219 -23q39 -4 74 25t39 69q4 41 -25 74q-29 35 -69 37l-105 10l23 102l321 5l-106 -1076q-4 -41 24 -73q29 -35 68 -39q41 -2 74 24q35 27 39 70l112 1139q35 53 6 106q-29 55 -92 55h-2h-10h-16l-502 -6q-35 0 -66 -24 q-29 -25 -35 -62v-2z" />
<glyph unicode="&#x5e4;" horiz-adv-x="978" d="M74 272q0 -41 32 -71q31 -31 72 -31q160 0 281 2q131 2 233 2q18 -2 39 0h10q66 0 95 62q29 61 -17 110q25 319 103 514q20 51 -13 96q-31 45 -86 45l-532 -4q-35 -2 -64 -26q-31 -25 -37 -60v-2l-2 -2l-59 -291q-10 -45 16 -81q29 -37 74 -41l219 -23q41 -4 76 25t39 69 q4 41 -25 74q-29 35 -69 39l-103 8l21 105l307 4q-49 -172 -70 -414q-43 0 -182 -2q-104 -4 -254 -4q-41 2 -72 -29q-33 -33 -32 -74z" />
<glyph unicode="&#x5e5;" horiz-adv-x="915" d="M102 834q178 -317 508 -601l-53 -512q-4 -39 25 -71q27 -35 65 -39q41 -4 74 22q35 27 37 68l57 532q2 12 0 25q12 63 -41 100q-70 59 -133 119q205 166 231 408q6 47 -22 82q-33 33 -78 32q-36 1 -67 -26q-29 -29 -33 -66q-18 -164 -166 -276q-4 -2 -6 -6 q-129 147 -219 309q-31 53 -93 51q-57 -2 -86 -51q-29 -51 0 -100z" />
<glyph unicode="&#x5e6;" horiz-adv-x="1013" d="M74 272q0 -41 30 -71q33 -31 74 -31q158 0 320 2q164 2 309 2q33 0 59 19q27 20 37 49q12 31 2 61q-8 33 -33 51q-72 59 -135 121q207 166 234 410q6 47 -25 82t-78 32q-36 1 -67 -26q-29 -29 -33 -66q-18 -166 -166 -278q-4 -2 -8 -6q-131 147 -221 311q-31 53 -92 53 q-59 -2 -86 -53q-29 -51 0 -103q133 -236 352 -454q-176 -2 -369 -2q-41 0 -74 -31q-31 -33 -30 -72z" />
<glyph unicode="&#x5e7;" horiz-adv-x="894" d="M78 -295q-4 -41 24 -76q29 -33 68 -39q41 -4 76 25t39 68l82 794q6 47 -25 82t-78 35q-38 0 -69 -29q-29 -29 -33 -65zM102 891q2 -43 33 -74q33 -31 76 -29l387 3q-53 -190 -76 -510q-2 -39 27 -74q31 -33 69 -35q41 -4 76 27q33 27 35 69q27 383 109 590q20 51 -11 96 t-86 45l-534 -6q-39 0 -72 -30q-33 -33 -33 -72z" />
<glyph unicode="&#x5e8;" horiz-adv-x="866" d="M74 891q2 -43 32 -74q33 -31 74 -29l389 3q-53 -190 -75 -510q-2 -41 26 -74q29 -35 70 -37q41 -4 74 27q35 29 36 69q27 385 109 592q20 51 -10 98q-33 43 -88 43l-533 -4q-43 -2 -74 -32q-31 -31 -30 -72z" />
<glyph unicode="&#x5e9;" horiz-adv-x="1120" d="M76 922l43 -654q0 -49 39 -75q39 -31 86 -21h8q158 0 311 4h277h26h17q68 0 96 62q27 63 -18 110q25 317 100 510q23 51 -10 98q-31 45 -88 43q-68 -2 -91 -65q-88 -219 -114 -553h-135q-25 172 69 485q16 51 -14 95q-33 41 -86 38q-33 0 -60 -22q-27 -20 -36 -51 q-100 -340 -80 -547h-99l-36 555q0 37 -31 67q-29 29 -68 29q-47 2 -78 -31t-28 -77z" />
<glyph unicode="&#x5ea;" horiz-adv-x="1067" d="M74 272q0 -41 30 -71q33 -31 74 -31q61 0 98 2q18 2 54 2q12 -2 26 0h6q63 0 95 55q29 57 -11 109q23 279 78 450l248 3q-53 -190 -74 -506q-4 -41 25 -76q31 -33 70 -35q41 -2 73 27q33 29 37 67q27 387 107 590q20 49 -11 96q-31 45 -86 45l-426 -6q-18 6 -34 6 q-19 0 -33 -6h-37q-72 0 -96 -67q-12 -29 -2 -62q8 -33 32 -53q-53 -174 -73 -436h-66q-41 0 -74 -31q-31 -31 -30 -72z" />
<glyph unicode="&#x5f3;" horiz-adv-x="397" d="M82 950q-8 -41 16 -78q23 -35 62 -45q39 -8 76 15q37 25 45 63q23 104 59 191q20 53 -10 98q-33 45 -88 43q-31 -2 -56 -18q-25 -18 -34 -48q-43 -104 -70 -221z" />
<glyph unicode="&#x5f4;" horiz-adv-x="669" d="M82 950q-8 -41 16 -78q23 -35 62 -45q39 -8 76 15q37 25 45 63q23 104 59 191q20 53 -10 98q-33 45 -88 43q-31 -2 -56 -18q-25 -18 -34 -48q-43 -104 -70 -221zM354 950q-10 -41 15 -78q25 -35 61 -45q41 -8 78 15q37 25 45 63q23 104 57 191q23 53 -10 98 q-31 45 -86 43q-28 -2 -55 -18q-27 -18 -37 -48q-41 -104 -68 -221z" />
<glyph unicode="&#x2000;" horiz-adv-x="687" />
<glyph unicode="&#x2001;" horiz-adv-x="1374" />
<glyph unicode="&#x2002;" horiz-adv-x="687" />
<glyph unicode="&#x2003;" horiz-adv-x="1374" />
<glyph unicode="&#x2004;" horiz-adv-x="458" />
<glyph unicode="&#x2005;" horiz-adv-x="343" />
<glyph unicode="&#x2006;" horiz-adv-x="229" />
<glyph unicode="&#x2007;" horiz-adv-x="229" />
<glyph unicode="&#x2008;" horiz-adv-x="171" />
<glyph unicode="&#x2009;" horiz-adv-x="274" />
<glyph unicode="&#x200a;" horiz-adv-x="76" />
<glyph unicode="&#x2010;" d="M74 571q2 -43 35 -73q33 -31 73 -31l441 4q41 0 73 31q33 31 35 71q0 43 -31 76q-33 33 -73 35h-9l-440 -6q-41 0 -72 -33q-33 -33 -32 -74z" />
<glyph unicode="&#x2011;" d="M74 571q2 -43 35 -73q33 -31 73 -31l441 4q41 0 73 31q33 31 35 71q0 43 -31 76q-33 33 -73 35h-9l-440 -6q-41 0 -72 -33q-33 -33 -32 -74z" />
<glyph unicode="&#x2012;" d="M74 571q2 -43 35 -73q33 -31 73 -31l441 4q41 0 73 31q33 31 35 71q0 43 -31 76q-33 33 -73 35h-9l-440 -6q-41 0 -72 -33q-33 -33 -32 -74z" />
<glyph unicode="&#x2013;" horiz-adv-x="1136" d="M73 571q3 -43 55 -73q51 -31 113 -31l688 4q64 0 113 31q52 31 55 71q0 43 -48 76q-52 33 -114 35h-14l-686 -6q-64 0 -112 -33q-52 -33 -50 -74z" />
<glyph unicode="&#x2014;" horiz-adv-x="2160" d="M73 571q6 -43 109 -73q103 -31 228 -31l1374 4q128 0 228 31q103 31 109 71q0 43 -97 76q-102 33 -227 35h-28l-1372 -6q-128 0 -224 -33q-103 -33 -100 -74z" />
<glyph unicode="&#x201a;" horiz-adv-x="276" />
<glyph unicode="&#x201b;" horiz-adv-x="276" />
<glyph unicode="&#x201c;" horiz-adv-x="669" d="M82 950q-8 -41 16 -78q23 -35 62 -45q39 -8 76 15q37 25 45 63q23 104 59 191q20 53 -10 98q-33 45 -88 43q-31 -2 -56 -18q-25 -18 -34 -48q-43 -104 -70 -221zM354 950q-10 -41 15 -78q25 -35 61 -45q41 -8 78 15q37 25 45 63q23 104 57 191q23 53 -10 98 q-31 45 -86 43q-28 -2 -55 -18q-27 -18 -37 -48q-41 -104 -68 -221z" />
<glyph unicode="&#x201d;" horiz-adv-x="669" d="M82 950q-8 -41 16 -78q23 -35 62 -45q39 -8 76 15q37 25 45 63q23 104 59 191q20 53 -10 98q-33 45 -88 43q-31 -2 -56 -18q-25 -18 -34 -48q-43 -104 -70 -221zM354 950q-10 -41 15 -78q25 -35 61 -45q41 -8 78 15q37 25 45 63q23 104 57 191q23 53 -10 98 q-31 45 -86 43q-28 -2 -55 -18q-27 -18 -37 -48q-41 -104 -68 -221z" />
<glyph unicode="&#x202f;" horiz-adv-x="274" />
<glyph unicode="&#x205f;" horiz-adv-x="343" />
<glyph unicode="&#xe000;" horiz-adv-x="1024" d="M0 0z" />
</font>
</defs>
</svg>
