<svg xmlns="http://www.w3.org/2000/svg" viewBox="0 0 254.63672 178.59999"><defs><style>.a{fill:none;stroke:#231f20;stroke-linecap:round;stroke-linejoin:round;stroke-width:14.74462px;}.b{fill:#231f20;}</style></defs><path class="a" d="M141.1191,59.20878l14.439,14.24177a28.21915,28.21915,0,0,0,40.61776-.93024c10.3758-11.24566,9.49187-28.86986-1.378-39.6387l0,0a17.90624,17.90624,0,0,0-25.31644.11163l-7.21751,7.27767"/><path class="a" d="M100.45525,39.27663l-3.58606-3.596A26.86266,26.86266,0,1,0,97.04655,73.669L162.7271,7.37231"/><line class="a" x1="128.14466" y1="74.44361" x2="120.92715" y2="81.72127"/><path class="b" d="M26.46,130.51015q3.42041,3.75145,3.41992,11.31054,0,7.62012-4.5,12.48047a23.8947,23.8947,0,0,1-11.28027,6.7793l-2.46.7207a1.16344,1.16344,0,0,1-1.10938-.41992,1.70736,1.70736,0,0,1-.51074-1.20117V154.1205a1.71353,1.71353,0,0,1,.4209-1.11035,2.95876,2.95876,0,0,1,1.0791-.80957l1.9209-.78028a9.67567,9.67567,0,0,0,4.34961-3.21,10.04033,10.04033,0,0,0,1.58984-6.08984q0-3.77929-1.32031-5.28028-1.31982-1.49853-4.91992-1.5H11.58008l-8.04-.05957a1.43841,1.43841,0,0,1-1.5-1.5V119.9203a1.41481,1.41481,0,0,1,.45019-1.08008A1.492,1.492,0,0,1,3.54,118.4203h6.47949a1.43841,1.43841,0,0,1,1.5,1.5v6.83985h3.7207Q23.03906,126.76015,26.46,130.51015Z"/><path class="b" d="M34.29,133.54042a1.20139,1.20139,0,0,1-.33008-.83984,1.76442,1.76442,0,0,1,.12012-.66016L38.7002,120.101a3.6486,3.6486,0,0,1,.87011-1.23047,2.05649,2.05649,0,0,1,1.41016-.4502h4.37988a1.05635,1.05635,0,0,1,.87012.41992,1.28207,1.28207,0,0,1,.26953.96094l-1.85938,12a3.10185,3.10185,0,0,1-.7207,1.5,1.91285,1.91285,0,0,1-1.5.59961H35.10059A1.05467,1.05467,0,0,1,34.29,133.54042Zm13.56055,0a1.19708,1.19708,0,0,1-.33008-.83984,1.74538,1.74538,0,0,1,.12011-.66016L52.25977,120.101a3.66219,3.66219,0,0,1,.87011-1.23047,2.05991,2.05991,0,0,1,1.41016-.4502h4.37988a1.0538,1.0538,0,0,1,.87012.41992,1.27859,1.27859,0,0,1,.27051.96094l-1.86035,12a3.10948,3.10948,0,0,1-.71973,1.5,1.91565,1.91565,0,0,1-1.5.59961H48.66016A1.05263,1.05263,0,0,1,47.85059,133.54042Z"/><path class="b" d="M65.84961,146.38124a1.41185,1.41185,0,0,1-.4502-1.08008v-17.041a1.41477,1.41477,0,0,1,.4502-1.08008,1.56653,1.56653,0,0,1,1.11035-.41992h7.5a1.43841,1.43841,0,0,1,1.5,1.5v17.041A1.492,1.492,0,0,1,75.54,146.351a1.41334,1.41334,0,0,1-1.08008.45019h-7.5A1.56653,1.56653,0,0,1,65.84961,146.38124Z"/><path class="b" d="M86.669,157.72108q-4.17187-3.89942-4.16993-11.041V128.26015a1.41137,1.41137,0,0,1,.4502-1.08008,1.49191,1.49191,0,0,1,1.0498-.41992h6.24024a1.56746,1.56746,0,0,1,1.10937.41992,1.41477,1.41477,0,0,1,.4502,1.08008v18.12109A6.19352,6.19352,0,0,0,93.749,151.391a8.14813,8.14813,0,0,0,5.42969,1.64941q6.71923,0,6.78027-6.41992a13.49068,13.49068,0,0,0,.03028-1.62012c-.02149-.67969-.03028-1.19922-.03028-1.55957V142.1205a10.81383,10.81383,0,0,0-1.14062-5.25,3.42629,3.42629,0,0,0-3.11914-1.83008,7.12134,7.12134,0,0,0-1.77051.24023,5.79728,5.79728,0,0,0-1.53027.60059,1.88742,1.88742,0,0,1-.54.11914,1.2664,1.2664,0,0,1-.92969-.38965,1.33775,1.33775,0,0,1-.38965-.99023v-4.73926a2.359,2.359,0,0,1,1.13965-2.2207,11.31844,11.31844,0,0,1,5.75977-1.13965q6.60058,0,9.45019,3.45019,2.84913,3.45119,2.96973,10.64942v6.2998q-.66065,14.70117-16.67969,14.7002Q90.83789,161.6205,86.669,157.72108Z"/><path class="b" d="M149.78809,160.601a1.41187,1.41187,0,0,1-.4502-1.08008V141.76015q0-6.83936-6.78027-6.83985h-9.11914a1.53507,1.53507,0,0,1-1.5-1.5v-5.16015a1.414,1.414,0,0,1,.44922-1.08008,1.4959,1.4959,0,0,1,1.05078-.41992H142.918q8.33936,0,12.45019,3.41992,4.10889,3.42041,4.11036,11.2207v18.12012a1.48869,1.48869,0,0,1-.4209,1.0498,1.41121,1.41121,0,0,1-1.0791.4502h-7.08008A1.56233,1.56233,0,0,1,149.78809,160.601Z"/><path class="b" d="M166.708,160.601a1.41187,1.41187,0,0,1-.4502-1.08008V128.26015a1.41477,1.41477,0,0,1,.4502-1.08008,1.56581,1.56581,0,0,1,1.10937-.41992h7.5a1.43841,1.43841,0,0,1,1.5,1.5v31.26074a1.49191,1.49191,0,0,1-.41992,1.0498,1.41185,1.41185,0,0,1-1.08008.4502h-7.5A1.5616,1.5616,0,0,1,166.708,160.601Z"/><path class="b" d="M211.49707,127.18007a1.46762,1.46762,0,0,1,.41992,1.08008v5.16015a1.4959,1.4959,0,0,1-.41992,1.05078,1.41107,1.41107,0,0,1-1.08008.44922h-2.75976a9.18464,9.18464,0,0,0-1.10938,3.06055,21.39392,21.39392,0,0,0-.39062,4.25977v17.46a1.121,1.121,0,0,1-.56934.93066,2.056,2.056,0,0,1-1.1709.38965h-7.01953a1.23986,1.23986,0,0,1-1.32031-1.32031V141.58046q0-4.86036,1.20019-6.66016H183.59766a1.53686,1.53686,0,0,1-1.5-1.5v-5.16015a1.41136,1.41136,0,0,1,.45019-1.08008,1.492,1.492,0,0,1,1.04981-.41992H210.417A1.46453,1.46453,0,0,1,211.49707,127.18007Z"/><path class="b" d="M247.61719,130.4203q3.83936,3.66064,3.83984,10.98047v18.12012a1.49191,1.49191,0,0,1-.41992,1.0498,1.41331,1.41331,0,0,1-1.08008.4502H233.57715a1.53868,1.53868,0,0,1-1.5-1.5v-5.16016a1.40993,1.40993,0,0,1,.45019-1.08008,1.492,1.492,0,0,1,1.04981-.41992h7.74023V141.88124a7.21613,7.21613,0,0,0-1.5-4.86035,4.90876,4.90876,0,0,0-3.90039-1.74024H231.2373l-5.10058,24.17969a1.8214,1.8214,0,0,1-.47949,1.11035,1.41333,1.41333,0,0,1-1.08008.4502h-6.90039a1.50673,1.50673,0,0,1-1.10938-.4502,1.17734,1.17734,0,0,1-.33008-1.11035l5.87989-24.12012h-3.96a1.4082,1.4082,0,0,1-1.08008-.44921,1.56565,1.56565,0,0,1-.41992-1.11036v-5.5205a1.414,1.414,0,0,1,.44922-1.08008,1.4959,1.4959,0,0,1,1.05078-.41992H237.417Q243.77588,126.76015,247.61719,130.4203Z"/><path class="a" d="M141.1191,59.20878l14.439,14.24177a28.21915,28.21915,0,0,0,40.61776-.93024c10.3758-11.24566,9.49187-28.86986-1.378-39.6387l0,0a17.90624,17.90624,0,0,0-25.31644.11163l-7.21751,7.27767"/><path class="a" d="M100.45525,39.27663l-3.58606-3.596A26.86266,26.86266,0,1,0,97.04655,73.669L162.7271,7.37231"/><line class="a" x1="128.14466" y1="74.44361" x2="120.92715" y2="81.72127"/></svg>