<svg id="fb9a8b3d-e092-48f2-851a-e918346e9c4f" data-name="Layer 1" xmlns="http://www.w3.org/2000/svg" xmlns:xlink="http://www.w3.org/1999/xlink" viewBox="0 0 52.84148 52.84148"><defs><style>.ff773d62-4a82-4f5e-8d55-07bf76a341ff{fill:none;}.faea32c2-5e85-4943-94b2-b3c2d1658274{fill:#21409a;}.f240d2f0-a3f0-411b-9313-f9cc172b0f76{clip-path:url(#f039abc6-766e-483f-8486-3110baf08f47);}.b953c015-ed9a-4398-943f-fdf35df90288{fill:#5b8638;}.b8e5aa87-8c71-4743-a8d9-4518114adebb{fill:#022618;}.e85c0bb0-7a93-423f-9a49-002dea0cfdeb{fill:#fefefe;}.ab088c58-7c75-4144-8e16-df777b9e5748{fill:#0081d5;}.f07c85b7-7a1f-4115-8b8b-1c56e0df8c5e{fill:#004287;}.b8da75e6-3397-42f7-9b81-46714cd4ddbc{fill:#063c93;}.f016e26c-a7ec-44bd-ab23-b229d006324d{fill:#5a8638;}.bcea8c72-853c-4d65-b78e-64774a8159a2{fill:#598437;}.eb65ad6a-d7f4-4a9e-b4a6-1aa0e3c0eb53{fill:#568236;}.a44e0574-04eb-4a73-a82e-574b8003c28b{fill:#588337;}.bbc21641-3092-4657-982f-aace29ab2e35{fill:#39612c;}.a5db1d12-6844-4193-9ff3-bad4771417c6{fill:#325a29;}.bf41665a-dbb8-46c5-a63d-b58f8da8d6c7{fill:#2f5728;}.a5b50132-187f-4a9e-bc54-d988c2bab393{fill:#b4bfbb;}.e2953288-56cd-4ff8-9159-3df56bad1acd{fill:#013659;}</style><clipPath id="f039abc6-766e-483f-8486-3110baf08f47"><circle class="ff773d62-4a82-4f5e-8d55-07bf76a341ff" cx="26.42074" cy="26.42074" r="26.42074"/></clipPath></defs><circle class="faea32c2-5e85-4943-94b2-b3c2d1658274" cx="26.42074" cy="26.42074" r="26.01063"/><g class="f240d2f0-a3f0-411b-9313-f9cc172b0f76"><circle class="b953c015-ed9a-4398-943f-fdf35df90288" cx="29.9435" cy="28.98971" r="39.51804"/><path class="b953c015-ed9a-4398-943f-fdf35df90288" d="M19.00677,3.078a21.67556,21.67556,0,0,1,3.18189-.724c.83467-.139,1.67543-.22887,2.51969-.286.05211-.00352.11625.01452.143-.05668h.5664c.10874.06137.22681.01433.33955.0292.11295-.0148.23119.03216.34014-.0292h.793c.10874.06137.22681.01433.33955.0292.113-.0148.23119.03216.34014-.0292h.56641a2.3341,2.3341,0,0,0,.78953.10582,27.61426,27.61426,0,0,1,4.95448.91455.68622.68622,0,0,1,.10056.04631c-.14761.14612-.33661.09992-.51023.10013q-4.04747.00475-8.09493.00217-2.9436,0-5.88722-.00206C19.324,3.17794,19.14478,3.21869,19.00677,3.078Z"/><path class="b8e5aa87-8c71-4743-a8d9-4518114adebb" d="M19.00677,3.078c.14112.00309.28223.00885.42335.00889q7.2195.00183,14.439.00217a1.10192,1.10192,0,0,0,.112-.01106,21.251,21.251,0,0,1,3.12024,1.08424A25.91213,25.91213,0,0,1,41.622,6.60308c-.03144.13818-.15084.1231-.24813.13546a2.91761,2.91761,0,0,1-.36758.00718q-5.29245.0003-10.58491-.0038a.7358.7358,0,0,0-.70657.31382c-.03892.06157-.12559.11707-.08188.19457.0401.07109.13552.0453.20864.04866.08476.00389.16978.00116.25469.00116q6.01416,0,12.02832-.00033a1.29806,1.29806,0,0,1,.5827.08028c.123.08568.24949.16666.3683.25773a27.17051,27.17051,0,0,1,5.00182,4.98979c.06223.08066.11353.16976.16991.25493-.15281.13519-.34051.0908-.5149.091q-4.71492.00431-9.42984.00206-4.191,0-8.38207.0002c-.46887.00007-.48977.028-.339.48418.0977.29563.20376.58831.32217.87675a.37031.37031,0,0,0,.38519.26686c.12241-.00389.24535.00121.368.00122q9.14667.00015,18.29333.00143a.87933.87933,0,0,1,.54948.08352,23.00126,23.00126,0,0,1,1.85587,3.42393c.1902.42024.35345.85267.529,1.27954-.02753.13886-.145.13073-.24392.14248a3.35571,3.35571,0,0,1-.3961.00754q-8.97642.00024-17.95286.00246c-.12646,0-.31056-.06718-.366.058-.05074.11453.10958.22278.1871.32533.34176.45211.73644.85986,1.09711,1.29625a.61173.61173,0,0,0,.52156.23274c.12246-.00437.24536.00013.36807.00013q8.48088.00008,16.96177.00171a.82142.82142,0,0,1,.54736.08613,21.58579,21.58579,0,0,1,.7977,3.51674c.071.21733-.04028.29424-.236.30667-.132.00837-.26408.00579-.39613.00579q-7.18931.00023-14.37859.00181c-.12909.00005-.30523-.06142-.37639.045-.07935.11869.07543.23429.14083.33876a14.41314,14.41314,0,0,1,1.1015,2.22961c.17506.42955.18239.43374.6435.43379q6.65151.0006,13.303.00233c.17395.00011.362-.04633.5137.09183a20.70609,20.70609,0,0,1-.101,3.10893.72035.72035,0,0,1-.51626.091q-6.11373.00333-12.22746.0017c-.59131,0-.58009.00024-.58882.5725-.00579.37894.05578.75155.06535,1.12892.01367.53912-.06312,1.07248-.07371,1.60992-.00446.2263.06681.30763.284.30062.21669-.007.43393-.001.65093-.001q5.6467.00021,11.29341.00446c.17135.00027.385-.08243.50135.141a20.84827,20.84827,0,0,1-.63731,2.27554c-.101.15142-.26006.134-.4089.13485-.651.00355-1.302.00148-1.953.0015-3.33044.00011-6.66089.00485-9.99129-.007a.62223.62223,0,0,0-.67947.44235,15.76437,15.76437,0,0,1-2.13763,3.71695.60441.60441,0,0,0-.16024.26735c.107.08773.234.04733.35011.0474q6.21274.00352,12.42547.00554c.16341.00019.36425-.0741.47316.137a12.92057,12.92057,0,0,1-.90085,1.484.81177.81177,0,0,1-.49517.073q-6.52584.00225-13.05168-.00378a1.13069,1.13069,0,0,0-.83448.31409,17.46,17.46,0,0,1-3.7519,2.56223,20.91341,20.91341,0,0,1-4.7136,1.82506,4.396,4.396,0,0,1-2.85469-.19161,37.27575,37.27575,0,0,1-4.23386-2.15366,4.33692,4.33692,0,0,1-.99259-.74517,6.732,6.732,0,0,0-.76324-.53384c-.30751-.25253-.57192-.54747-.85683-.82141a.90738.90738,0,0,0-.68752-.25429q-3.86451.00892-7.72907.00355-2.19416,0-4.38831-.00076a.70643.70643,0,0,1-.4386-.07335,12.92077,12.92077,0,0,1-.90094-1.48411c.02233-.12744.13-.12041.21915-.13228a2.78431,2.78431,0,0,1,.36777-.00823q5.66408-.00028,11.32814-.00173a.64112.64112,0,0,0,.36994-.04311,1.49035,1.49035,0,0,0-.249-.40566,13.17813,13.17813,0,0,1-1.44116-2.68709,5.27268,5.27268,0,0,1-.43964-1.13161.23309.23309,0,0,0-.24508-.19374c-.11325-.00661-.22646-.00565-.3397-.00566q-5.565-.00031-11.1299-.00235c-.1816-.00015-.38521.05243-.52229-.13453a20.84172,20.84172,0,0,1-.63729-2.27563c.03071-.138.14944-.12491.24716-.13725a2.93814,2.93814,0,0,1,.36755-.00729q5.65994-.00023,11.31988-.00019c.50054,0,.49974-.00044.5-.48873a20.23551,20.23551,0,0,1,.05849-2.091,4.7876,4.7876,0,0,1,.15161-.77635c.05289-.192-.01348-.26486-.20281-.25608-.08467.00393-.16976.00025-.25466.00025q-6.141-.00006-12.28207-.00171A.72156.72156,0,0,1-.633,31.6273,20.71616,20.71616,0,0,1-.734,28.51851c.15138-.13848.33942-.09271.5134-.09281q6.6363-.004,13.27261-.0021a1.48275,1.48275,0,0,1,.19793.0012.88812.88812,0,0,0,1.09673-.585.46074.46074,0,0,1,.56231-.27365.5063.5063,0,0,1,.40045.51366.417.417,0,0,0,.07594.26843,14.58774,14.58774,0,0,1-.14146-2.45127c.00636-.5428.07647-.52091-.51239-.52089q-7.25889.00024-14.5178,0c-.132,0-.26413.00272-.396-.00617-.19509-.01315-.30712-.0897-.23616-.30713A21.58324,21.58324,0,0,1,.37918,21.546a.82116.82116,0,0,1,.54724-.0862Q8.35819,21.45662,15.79,21.458c.12267,0,.24535-.00206.368-.00258a.35135.35135,0,0,0,.336-.211,12.821,12.821,0,0,1,.89425-1.47535c.13433-.18845.11877-.21367-.10243-.22488-.07534-.00382-.151-.00083-.22646-.00083q-7.71489-.00006-15.42976-.00486c-.17891-.00021-.40526.09471-.52621-.14573A24.3519,24.3519,0,0,1,3.4881,14.68972a.82583.82583,0,0,1,.52108-.08364q6.59682-.00225,13.19365-.00116,1.5855,0,3.171-.00062c.39951-.00068.41494-.01222.513-.407.07739-.31175.17333-.61744.273-.92253.08485-.25983.06068-.28834-.21927-.29824-.09429-.00333-.18873-.001-.28311-.001q-7.68686,0-15.37371-.00226c-.18335-.0001-.38074.04918-.54315-.0907A18.23394,18.23394,0,0,1,6.4191,10.8362a26.77687,26.77687,0,0,1,3.64966-3.31888c.06693-.05057.141-.0917.21173-.13722a1.29844,1.29844,0,0,1,.58278-.0804q6.60961.00062,13.2192.00768a.892.892,0,0,0,.848-.50766c-.11274-.08852-.23821-.0521-.35237-.05215q-6.35484-.00294-12.70969-.006c-.17153-.00023-.38426.08208-.5027-.13845A26.90788,26.90788,0,0,1,18.86758,3.0998,1.04729,1.04729,0,0,1,19.00677,3.078Z"/><path class="b953c015-ed9a-4398-943f-fdf35df90288" d="M3.59816,43.98189c.70789-.00276,1.41578-.00773,2.12367-.0079,3.455-.00083,6.91023.01571,10.365-.01744a1.39314,1.39314,0,0,1,1.10619.57825,4.1373,4.1373,0,0,0,.87431.74374,1.967,1.967,0,0,1,.391.27551A7.79424,7.79424,0,0,0,20.2969,46.797c.45193.25376.90729.50265,1.37087.73419a26.98167,26.98167,0,0,0,2.63189,1.16515,1.41916,1.41916,0,0,0,.49786.08447,7.40645,7.40645,0,0,0,2.08558-.18421,24.10114,24.10114,0,0,0,6.08455-2.751,15.03532,15.03532,0,0,0,2.1971-1.72923.47273.47273,0,0,1,.34846-.14542q6.88176.00516,13.76352.00358c.03765,0,.0753.00478.113.00733a20.03566,20.03566,0,0,1-1.70434,2.38523,24.93837,24.93837,0,0,1-2.82343,2.991,2.666,2.666,0,0,1-.45023.03255q-17.91756-.0017-35.83511,0a2.68132,2.68132,0,0,1-.45037-.03232,26.59721,26.59721,0,0,1-4.497-5.29874A.42092.42092,0,0,1,3.59816,43.98189Z"/><path class="b953c015-ed9a-4398-943f-fdf35df90288" d="M43.87958,50.20417a24.2026,24.2026,0,0,1-3.87313,2.69661,26.57389,26.57389,0,0,1-11.23679,3.48394A26.99212,26.99212,0,0,1,9.22917,50.32135c-.04365-.03488-.08076-.07794-.12092-.11718a.38264.38264,0,0,1,.28819-.09111c.10365-.0057.20754-.00312.31132-.00312q16.78616-.00012,33.5723.00238C43.48178,50.11237,43.698,50.0567,43.87958,50.20417Z"/><path class="b953c015-ed9a-4398-943f-fdf35df90288" d="M50.29055,42.49789c-.10508-.09756-.23439-.05093-.35153-.051q-6.38607-.00405-12.77215-.00227h-.36248c.26507-.36852.50246-.70236.74378-1.03334a14.918,14.918,0,0,0,1.73869-3.19621.55623.55623,0,0,1,.60617-.42428c4.03076.01606,8.06161.01046,12.09244.00921a.67379.67379,0,0,0,.38688-.04815A25.59137,25.59137,0,0,1,50.29055,42.49789Z"/><path class="b953c015-ed9a-4398-943f-fdf35df90288" d="M.61547,37.75179a.61365.61365,0,0,0,.35832.0485q5.77253.00134,11.545-.00563c.28622-.00071.41358.06241.45036.36675a5.08664,5.08664,0,0,0,.50125,1.25181,12.02064,12.02064,0,0,0,1.07863,2.07089c.2046.31253.42241.61641.65923.96051h-.33178q-5.914,0-11.828.00228c-.117.00008-.24626-.04661-.35123.051A25.59158,25.59158,0,0,1,.61547,37.75179Z"/><path class="b953c015-ed9a-4398-943f-fdf35df90288" d="M-.41852,25.06272c-.02436.22175.11045.22647.27976.226,1.55719-.00465,3.1144-.00274,4.6716-.00274q5.26617,0,10.53232-.00439c.22787-.00041.29389.02.2839.29182a11.35729,11.35729,0,0,0,.13631,2.727c.01821.08831.06336.19289-.0915.21173-.14565.01773-.17873-.05951-.17133-.18457.00557-.094-.00255-.1888.00148-.283a.37076.37076,0,0,0-.318-.40363.35041.35041,0,0,0-.4669.20681c-.19666.62439-.63585.68169-1.21515.67875-4.52048-.02293-9.04114-.01272-13.56173-.01249-.13209,0-.26418.003-.39626.00452a23.26911,23.26911,0,0,1,.24176-2.98611A1.18153,1.18153,0,0,1-.41852,25.06272Z"/><path class="b953c015-ed9a-4398-943f-fdf35df90288" d="M53.00962,35.47642c-.10494-.09746-.23418-.05155-.35138-.05163q-6.08389-.004-12.1678-.00224c-.338,0-.32.001-.2964-.34483a16.46113,16.46113,0,0,0-.04266-3.21074c-.02442-.19146.03953-.24562.22639-.24205.528.01008,1.05636.00354,1.58458.00349l11.65845-.00113a23.94722,23.94722,0,0,1-.52837,3.52541C53.06946,35.26158,53.03744,35.36855,53.00962,35.47642Z"/><path class="b953c015-ed9a-4398-943f-fdf35df90288" d="M-.633,31.6273H12.81649a10.63464,10.63464,0,0,0-.29222,3.63594c.00325.13756-.02336.165-.13991.15972-.06588-.003-.132-.00038-.198-.00038q-5.92834,0-11.8567.00222c-.1172.00007-.24644-.04582-.35141.05147A22.84062,22.84062,0,0,1-.633,31.6273Z"/><path class="b953c015-ed9a-4398-943f-fdf35df90288" d="M53.72182,28.51837q-6.10122-.00228-12.20243-.00452-.96263-.00035-1.92523-.00014c-.11085,0-.20755.01452-.26771-.13419a15.20014,15.20014,0,0,0-1.58353-3.09358h.37847q7.48857,0,14.97713.00047c.15937,0,.33647.03127.30782-.22381a21.056,21.056,0,0,1,.267,2.29774C53.7033,27.74527,53.70651,28.13229,53.72182,28.51837Z"/><path class="b953c015-ed9a-4398-943f-fdf35df90288" d="M52.60866,21.546q-9.00435.0012-18.00871.00252a.32861.32861,0,0,1-.28427-.0856,21.09147,21.09147,0,0,1-1.63382-1.96556.545.545,0,0,1,.33491-.04265q9.24506-.00265,18.49011-.004c.126-.00006.26586.05077.37768-.05763A16.80875,16.80875,0,0,1,52.60866,21.546Z"/><path class="b953c015-ed9a-4398-943f-fdf35df90288" d="M49.49971,14.68971c-.10369.00218-.20738.00628-.31107.00628q-9.4524.00047-18.9048.00707a.41237.41237,0,0,1-.4689-.318c-.15471-.4429-.33348-.87676-.44927-1.33349-.03266-.12883-.01484-.17522.11848-.16789.07523.00414.15089.00047.22636.00046l18.53683-.0016A13.53833,13.53833,0,0,1,49.49971,14.68971Z"/><path class="b953c015-ed9a-4398-943f-fdf35df90288" d="M1.10337,19.39283c.10175.1047.2322.0581.34909.05816q7.95342.00369,15.90683.00214h.34208c-.24616.37929-.47621.71839-.68968,1.06762a7.10926,7.10926,0,0,0-.46011.84108.25167.25167,0,0,1-.29391.18669.26683.26683,0,0,0-.02829-.00012L.37918,21.546A16.809,16.809,0,0,1,1.10337,19.39283Z"/><path class="b8e5aa87-8c71-4743-a8d9-4518114adebb" d="M43.87958,50.20417l-34.77137,0a10.13494,10.13494,0,0,1-.98192-.84579c.08015-.09921.19224-.05988.29058-.0599q18.07707-.00268,36.15414,0c.09837,0,.21042-.03922.29083.05966A10.15006,10.15006,0,0,1,43.87958,50.20417Z"/><path class="b953c015-ed9a-4398-943f-fdf35df90288" d="M4.7405,12.88252l16.24427.00161a1.87211,1.87211,0,0,0,.198-.00108c.19743-.02109.21678.04172.14465.22058a7.25741,7.25741,0,0,0-.39876,1.35046c-.03629.18967-.11912.24916-.31915.24776-1.47154-.01034-2.94319-.00559-4.4148-.00559q-6.16946,0-12.3389-.00027c-.12256,0-.24512-.00409-.36768-.00627A13.54164,13.54164,0,0,1,4.7405,12.88252Z"/><path class="b953c015-ed9a-4398-943f-fdf35df90288" d="M11.36573,6.60314c.10524.09716.23429.04931.35107.04938q6.55084.00423,13.10168.00238h.339a4.36565,4.36565,0,0,1-.54761.68547c-.074.09407-.19516.049-.29472.04906q-3.97578.00312-7.95156.00165-2.88633,0-5.77266-.00046c-.10347,0-.20694-.00687-.31042-.01053A10.01169,10.01169,0,0,1,11.36573,6.60314Z"/><path class="b953c015-ed9a-4398-943f-fdf35df90288" d="M42.7073,7.38008c-.09407.00367-.18813.01053-.2822.01054q-6.35487.00081-12.70975.00046H29.378a3.06577,3.06577,0,0,1,.52738-.69314c.074-.09261.21539-.0415.32579-.04155q5.534-.00268,11.068-.00364c.10762-.00008.22754.04443.32282-.04971A10.00982,10.00982,0,0,1,42.7073,7.38008Z"/><path class="e85c0bb0-7a93-423f-9a49-002dea0cfdeb" d="M25.2382,48.32257a13.93091,13.93091,0,0,0,2.56555-4.78095,14.57993,14.57993,0,0,0-.7861-10.27447c-.36855-.82956-.9341-1.56912-1.35876-2.37936a72.9932,72.9932,0,0,1-3.87477-8.82292,13.43326,13.43326,0,0,1,.94833-11.31374,19.36468,19.36468,0,0,1,2.763-3.887,9.89056,9.89056,0,0,1,3.48868-2.30231,5.58158,5.58158,0,0,1,2.40342-.56124c.10359.00209.20742.00917.31034.02092.07331.00837.14529.02847.24245.04837A.932.932,0,0,1,31.645,4.371a14.11019,14.11019,0,0,0-4.71985,7.6428,12.29862,12.29862,0,0,0,.30586,6.31344,19.91485,19.91485,0,0,0,2.083,4.7559,30.66429,30.66429,0,0,1,1.95032,3.8584A29.21481,29.21481,0,0,1,33.4988,34.625a14.10855,14.10855,0,0,1-.229,5.08856,9.6217,9.6217,0,0,1-1.962,3.87988,18.12413,18.12413,0,0,1-5.27826,4.3842c-.24176.13675-.53392.18547-.72187.41581C25.24511,48.4085,25.22739,48.37953,25.2382,48.32257Z"/><path class="ab088c58-7c75-4144-8e16-df777b9e5748" d="M25.18129,47.81883a1.30794,1.30794,0,0,1-.09025-.51448,10.87192,10.87192,0,0,0-.40862-3.04737,11.67439,11.67439,0,0,0-1.97288-3.82264c-.4332-.573-.96327-1.05267-1.42756-1.59381-.22487-.26209-.42646-.54407-.64071-.81536-.43469-.5504-.89544-1.08224-1.3001-1.65383a17.53055,17.53055,0,0,1-1.37445-2.18754A22.29138,22.29138,0,0,1,16.81738,31.563a25.74679,25.74679,0,0,1-.9942-3.47692,8.80131,8.80131,0,0,1-.0433-3.06847,13.53409,13.53409,0,0,1,.86522-3.00231A15.7819,15.7819,0,0,1,18.56455,18.851a9.95786,9.95786,0,0,1,1.54366-1.681c.0858-.07644.19094-.234.2858-.16893.09391.06443.05179.24767.01829.371-.09277.34161-.20795.67711-.30244,1.01831a6.12071,6.12071,0,0,0-.14705,1.05185,21.29687,21.29687,0,0,0-.04583,2.70913,11.77483,11.77483,0,0,0,.656,3.52947A24.67116,24.67116,0,0,0,21.855,28.36377a24.47624,24.47624,0,0,0,1.13915,2.20493,48.2778,48.2778,0,0,1,2.25537,4.434,16.42061,16.42061,0,0,1,1.10992,2.8738,17.14729,17.14729,0,0,1,.484,2.74389,11.53678,11.53678,0,0,1,.0417,1.379,14.73407,14.73407,0,0,1-.24075,2.11126c-.12191.75724-.40756,1.46964-.5759,2.21463A4.01931,4.01931,0,0,1,25.18129,47.81883Z"/><path class="f07c85b7-7a1f-4115-8b8b-1c56e0df8c5e" d="M26.04725,48.34a23.61694,23.61694,0,0,0,4.71658-2.82834,14.94039,14.94039,0,0,0,3.53285-3.70358A8.878,8.878,0,0,0,35.79692,37.025a18.978,18.978,0,0,0-.79577-5.50546A32.74525,32.74525,0,0,0,33.543,27.5442a11.39529,11.39529,0,0,0-1.30481-1.97573,56.55274,56.55274,0,0,1-3.71611-5.8036,7.41564,7.41564,0,0,1-.724-2.6204A14.68231,14.68231,0,0,1,27.69,14.49421a8.48685,8.48685,0,0,1,.66072-3.071c.01361-.03036.03047-.05927.0631-.12222.15538.50878.2955.98284.44487,1.454a24.45683,24.45683,0,0,0,2.09422,4.7197,22.91319,22.91319,0,0,0,2.55157,3.62083,25.78516,25.78516,0,0,0,2.00162,2.03519,13.2795,13.2795,0,0,1,2.29164,2.89314,14.86912,14.86912,0,0,1,1.93935,5.32829,12.0846,12.0846,0,0,1-.82552,6.87895,16.35565,16.35565,0,0,1-2.753,4.38348,17.33194,17.33194,0,0,1-4.79622,3.76963,21.78055,21.78055,0,0,1-5.26227,2.01133C26.04192,48.41562,26.03065,48.39105,26.04725,48.34Z"/><path class="b8da75e6-3397-42f7-9b81-46714cd4ddbc" d="M14.819,27.95651a.37107.37107,0,0,1,.0524.33349,20.81,20.81,0,0,0-.037,3.07778,11.76381,11.76381,0,0,0,.61909,3.12874,16.55381,16.55381,0,0,0,1.31413,2.67709,7.61837,7.61837,0,0,0,1.48671,1.8314,4.04293,4.04293,0,0,1,.30909.36439,4.10963,4.10963,0,0,0,.94241.79422,11.72324,11.72324,0,0,1,1.22583,1.03325,8.56242,8.56242,0,0,1,1.84463,2.2132,13.4771,13.4771,0,0,1,.84619,1.73534c.21668.58363.52665,1.132.7651,1.70843a8.20275,8.20275,0,0,0,.625,1.13166c.09006.14724.03979.23674-.03905.35233-.08995.13187-.18134.05092-.27018.01734-.628-.23732-1.25841-.46755-1.86952-.74843-.81349-.37388-1.59511-.80879-2.383-1.23094a7.83737,7.83737,0,0,1-1.69047-1.21252c-.25878-.24424-.60956-.39364-.89044-.62777a5.46313,5.46313,0,0,1-.55015-.55606c-.34675-.386-.75594-.71966-1.06412-1.12742-.3097-.40975-.66669-.77939-.95491-1.21035a10.54592,10.54592,0,0,1-1.3377-2.503,9.59374,9.59374,0,0,1-.501-1.28163c-.14958-.809-.28934-1.61649-.36744-2.43686a10.64017,10.64017,0,0,1,.378-4.11574,11.82657,11.82657,0,0,1,1.47488-3.26292A1.0745,1.0745,0,0,1,14.819,27.95651Z"/><path class="b953c015-ed9a-4398-943f-fdf35df90288" d="M17.59008,37.80159c.829,0,1.58994.00136,2.35088-.00161.10276-.0004.14494.06291.19853.13147q.63027.80627,1.268,1.60663a1.70647,1.70647,0,0,0,.1955.16029,13.8971,13.8971,0,0,1,1.99154,2.7426c-.4546,0-.82508.00167-1.19553-.00129a.229.229,0,0,1-.17934-.1253,14.80322,14.80322,0,0,0-2.39892-2.37057c-.26755-.253-.666-.36332-.89345-.67752a15.4032,15.4032,0,0,1-1.04924-1.20965C17.82944,37.97267,17.72689,37.91992,17.59008,37.80159Z"/><path class="b953c015-ed9a-4398-943f-fdf35df90288" d="M24.00928,31.62882c.52575,0,1.01359.00138,1.5014-.00118a.22792.22792,0,0,1,.21043.11516,12.84181,12.84181,0,0,1,1.69663,3.60682.2512.2512,0,0,1-.01013.07251c-.46743,0-.93762-.00259-1.40775.00158a.26791.26791,0,0,1-.25155-.19211c-.43416-.90723-.8638-1.81661-1.29812-2.72375C24.3138,32.223,24.16724,31.943,24.00928,31.62882Z"/><path class="b953c015-ed9a-4398-943f-fdf35df90288" d="M17.20509,35.42252c-.26424,0-.52854-.00332-.7927.00149a.24171.24171,0,0,1-.24774-.14161,9.03836,9.03836,0,0,1-.76958-2.49432c-.06-.28384-.0778-.57734-.14883-.85784-.064-.25277.01565-.33058.25789-.30351a2.56358,2.56358,0,0,0,.28293.0017c.67985,0,.71779-.01223.92486.63039a16.56956,16.56956,0,0,0,1.43888,2.96269c.0977.17484.04815.2072-.12472.20286C17.75257,35.41751,17.47877,35.42254,17.20509,35.42252Z"/><path class="b953c015-ed9a-4398-943f-fdf35df90288" d="M24.0468,28.51355c-.55477,0-1.07241-.00048-1.59005.00045a.186.186,0,0,1-.20323-.11218,31.662,31.662,0,0,1-1.36023-2.90388c-.06583-.20411-.01493-.217.15731-.21437.46159.007.92357.01027,1.385-.00167a.29491.29491,0,0,1,.3178.21264q.39349.95014.796,1.89652C23.70364,27.75271,23.86765,28.11019,24.0468,28.51355Z"/><path class="b953c015-ed9a-4398-943f-fdf35df90288" d="M32.54422,42.44462a10.10041,10.10041,0,0,0,.887-1.98114,15.24108,15.24108,0,0,0,.477-2.42507c.02922-.17218.05694-.24874.24581-.24118.33872.01355.67865.01188,1.01754.00056.18014-.006.23707.0591.206.23081a9.62338,9.62338,0,0,1-1.79817,4.2082.45384.45384,0,0,1-.448.21156C32.95607,42.43044,32.77746,42.44462,32.54422,42.44462Z"/><path class="b953c015-ed9a-4398-943f-fdf35df90288" d="M34.65539,35.42259h-.16971c-.554,0-.56726.0012-.61743-.55138a20.8987,20.8987,0,0,0-.53451-2.98925c-.05076-.21132-.0159-.26628.19513-.25681a8.03358,8.03358,0,0,0,.87637-.00158c.19633-.01266.257.07649.30041.24439a25.176,25.176,0,0,1,.67087,3.21861c.03772.30661.02006.335-.29686.33595C34.93823,35.42293,34.79681,35.42259,34.65539,35.42259Z"/><path class="b953c015-ed9a-4398-943f-fdf35df90288" d="M28.01523,39.52826a13.32911,13.32911,0,0,1-.22071,2.66351c-.03946.27369-.20735.25672-.40248.25479-.2305-.00228-.16136-.17037-.15891-.28331a15.05083,15.05083,0,0,0-.39518-3.88272c-.11593-.47947-.11575-.48092.38564-.47885a1.59311,1.59311,0,0,1,.64083.03028c.21819.10612.04092.40132.13073.59618a.27371.27371,0,0,1,.01914.11064C28.0157,38.86871,28.01511,39.19864,28.01523,39.52826Z"/><path class="b953c015-ed9a-4398-943f-fdf35df90288" d="M30.93339,25.28627c.201,0,.37831.00355.5554-.00132a.23331.23331,0,0,1,.227.13624,17.272,17.272,0,0,0,1.0896,1.51169,7.01114,7.01114,0,0,1,.67312,1.42559c.06132.14826-.01794.15661-.12887.1559-.302-.00194-.60411-.00529-.906.00161-.11513.00263-.16143-.045-.19971-.14816-.275-.74079-.56138-1.4777-.90084-2.19149A7.33679,7.33679,0,0,1,30.93339,25.28627Z"/><path class="f016e26c-a7ec-44bd-ab23-b229d006324d" d="M24.71894,47.20119c-.50891-1.07887-.89726-2.14879-1.36391-3.22636.24689,0,.47689.00106.70687-.00043.12237-.0008.14653.08514.1815.1784a9.76666,9.76666,0,0,1,.43891,2.08347A2.56518,2.56518,0,0,1,24.71894,47.20119Z"/><path class="b953c015-ed9a-4398-943f-fdf35df90288" d="M20.26468,20.65027a6.05828,6.05828,0,0,1,.054-.9989c.01024-.11211.00717-.20509.16151-.20013.12653.00407.25793-.00852.28139.15781a11.87617,11.87617,0,0,0,.39019,1.781c.034.11242-.00347.15865-.117.15794-.20708-.00131-.41424-.00358-.62124.00083-.13382.00285-.151-.07574-.14966-.18185C20.26659,21.1505,20.26468,20.934,20.26468,20.65027Z"/><path class="f016e26c-a7ec-44bd-ab23-b229d006324d" d="M27.00439,14.08827a7.87678,7.87678,0,0,1,.094-1.02441c.02352-.21965.17126-.192.30531-.17469.18452.02382.073.14676.06435.2358-.04351.44657-.08916.893-.12467,1.34023-.01032.13.001.24117-.18743.234-.185-.007-.14791-.13016-.15088-.23676C27.002,14.34973,27.00439,14.23688,27.00439,14.08827Z"/><path class="bcea8c72-853c-4d65-b78e-64774a8159a2" d="M30.17289,45.38715c.39855-.43964.79442-.88175,1.19691-1.31775.16769-.18165.38124-.07179.64376-.0952a10.952,10.952,0,0,1-1.7789,1.47507C30.17533,45.46707,30.15981,45.44133,30.17289,45.38715Z"/><path class="eb65ad6a-d7f4-4a9e-b4a6-1aa0e3c0eb53" d="M28.18349,19.80316a18.40552,18.40552,0,0,0,.9139,1.7058c-.14572.08281-.19829-.00547-.24533-.10374a13.72674,13.72674,0,0,1-.72192-1.55229C28.11017,19.79589,28.13261,19.78429,28.18349,19.80316Z"/><path class="a44e0574-04eb-4a73-a82e-574b8003c28b" d="M26.82489,44.9326c.049-.25611.10032-.5118.14614-.76848.0319-.17874.12292-.23909.29747-.161-.06174.35295-.2916.64081-.38482.98153C26.83142,45.00418,26.81,44.98889,26.82489,44.9326Z"/><path class="bbc21641-3092-4657-982f-aace29ab2e35" d="M30.1729,45.38715l.06175.0621-.502.38839-.04141-.04553Z"/><path class="a5db1d12-6844-4193-9ff3-bad4771417c6" d="M28.18349,19.80316l-.05331.04976a.68055.68055,0,0,1-.13939-.35536A.54305.54305,0,0,1,28.18349,19.80316Z"/><path class="bf41665a-dbb8-46c5-a63d-b58f8da8d6c7" d="M26.82489,44.9326l.05883.05212-.13824.29926A.47144.47144,0,0,1,26.82489,44.9326Z"/><path class="a5b50132-187f-4a9e-bc54-d988c2bab393" d="M25.2382,48.32257l.06953.0709a.245.245,0,0,1-.19221.09342A.17964.17964,0,0,1,25.2382,48.32257Z"/><path class="e2953288-56cd-4ff8-9159-3df56bad1acd" d="M26.04725,48.34l.05287.05553c-.06577.07609-.14907.04822-.24587.05341C25.90942,48.36494,25.98765,48.36989,26.04725,48.34Z"/></g></svg>
