<svg id="f30d6092-6620-49ae-ba37-7a235350c207" data-name="Layer 1" xmlns="http://www.w3.org/2000/svg" viewBox="0 0 62.98197 62.22088"><defs><style>.aaf994b7-1c0c-4943-bcef-6d7a47dd8bd8{fill:#231f20;}.a7aaa4e7-98fe-48a4-aacd-f60a34f8a8d4,.b0e1d2c5-a27b-41d7-bd63-9672bf7bc71e,.bf36ad89-fc00-446b-8edb-0a02b443eedf{fill:none;stroke:#231f20;stroke-miterlimit:10;}.b0e1d2c5-a27b-41d7-bd63-9672bf7bc71e{stroke-width:2px;}.bf36ad89-fc00-446b-8edb-0a02b443eedf{stroke-width:2.22366px;}.a7aaa4e7-98fe-48a4-aacd-f60a34f8a8d4{stroke-width:2.36461px;}</style></defs><path class="aaf994b7-1c0c-4943-bcef-6d7a47dd8bd8" d="M12.92094,17.2309a7.94427,7.94427,0,1,0,8.79468,6.58154A35.91462,35.91462,0,0,1,12.92094,17.2309Z"/><path class="b0e1d2c5-a27b-41d7-bd63-9672bf7bc71e" d="M10.20072,14.18744A11.49475,11.49475,0,1,0,25.40995,25.34906C16.50736,22.5014,10.22733,14.2226,10.20072,14.18744Z"/><path class="aaf994b7-1c0c-4943-bcef-6d7a47dd8bd8" d="M49.471,17.2309a7.94433,7.94433,0,1,1-8.79468,6.58154A35.91462,35.91462,0,0,0,49.471,17.2309Z"/><path class="b0e1d2c5-a27b-41d7-bd63-9672bf7bc71e" d="M52.1912,14.18744A11.49475,11.49475,0,1,1,36.982,25.34906C45.88456,22.5014,52.16459,14.2226,52.1912,14.18744Z"/><path class="b0e1d2c5-a27b-41d7-bd63-9672bf7bc71e" d="M10.19913,14.18535S19.34646,26.28561,31.232,26.30267c10.08334.01448,16-7.15277,30.08334-21.65277"/><path class="b0e1d2c5-a27b-41d7-bd63-9672bf7bc71e" d="M31.00932,18.749a5.6147,5.6147,0,0,0-5.59938,5.84538c0,.23877.23356.60828.26261.83923a15.76471,15.76471,0,0,0,5.55942.8691,18.575,18.575,0,0,0,5.666-.833,5.60571,5.60571,0,0,0,.084-.9292A5.88408,5.88408,0,0,0,31.00932,18.749Z"/><path class="b0e1d2c5-a27b-41d7-bd63-9672bf7bc71e" d="M19.89864,17.2309s10.36885-10.51582,22.58333,0"/><path class="bf36ad89-fc00-446b-8edb-0a02b443eedf" d="M15.89864,12.886s14.375-13.95834,30.58333,0"/><path class="a7aaa4e7-98fe-48a4-aacd-f60a34f8a8d4" d="M11.81531,9.136s18.77082-17.89584,38.41666,0"/><polygon class="aaf994b7-1c0c-4943-bcef-6d7a47dd8bd8" points="28.232 31.553 34.399 31.553 31.19 36.559 28.232 31.553"/><path class="aaf994b7-1c0c-4943-bcef-6d7a47dd8bd8" d="M59.06531,3.80267,62.982,2.636l-.75,4.02777S61.31531,4.136,59.06531,3.80267Z"/><path class="aaf994b7-1c0c-4943-bcef-6d7a47dd8bd8" d="M5.58984,55.468a1.98018,1.98018,0,0,1,.10352.66016v3.73535H5.00391V56.11932q0-1.10742-1.48536-1.10742-.65625,0-1.44824.04492l-.291.01758v-.58594q.9668-.06153,1.7705-.0625a3.11871,3.11871,0,0,1,1.32129.24316A1.34994,1.34994,0,0,1,5.58984,55.468ZM2.46875,59.86346H1.7793v-3.416h.68945Z"/><path class="aaf994b7-1c0c-4943-bcef-6d7a47dd8bd8" d="M7.98047,54.48455a3.46947,3.46947,0,0,1,.6543-.05859,2.34669,2.34669,0,0,1,.64257.084,1.6304,1.6304,0,0,1,.86524.55371,1.94727,1.94727,0,0,1,.25781.39844,2.6719,2.6719,0,0,1,.16016.4375,3.05561,3.05561,0,0,1,.11132.82617v.90918a3.46085,3.46085,0,0,1-.04492.53711,2.84794,2.84794,0,0,1-.11914.49414,2.33994,2.33994,0,0,1-.22754.4541,1.69426,1.69426,0,0,1-.36523.419,1.801,1.801,0,0,1-.54981.28906,2.17146,2.17146,0,0,1-.71875.11817,5.33936,5.33936,0,0,1-.666-.03711,2.38165,2.38165,0,0,1-.4082-.07911l-.11719-.0371v-.623a3.88925,3.88925,0,0,0,1.1914.1748,1.35908,1.35908,0,0,0,.459-.07324,1.07977,1.07977,0,0,0,.33984-.18457,1.18617,1.18617,0,0,0,.23926-.27344,1.53026,1.53026,0,0,0,.15723-.31543,2.29953,2.29953,0,0,0,.08789-.32812,2.76563,2.76563,0,0,0,.05371-.54785v-.81348a2.85811,2.85811,0,0,0-.11621-.87988,1.71983,1.71983,0,0,0-.15137-.32813,1.10453,1.10453,0,0,0-.23926-.29,1.12733,1.12733,0,0,0-.35449-.19531,1.53792,1.53792,0,0,0-.52344-.0791,3.49182,3.49182,0,0,0-.59961.05176,2.087,2.087,0,0,0-.41894.10644l-.125.05371V54.634a1.13892,1.13892,0,0,1,.13281-.05762A3.00509,3.00509,0,0,1,7.98047,54.48455Z"/><path class="aaf994b7-1c0c-4943-bcef-6d7a47dd8bd8" d="M12.08691,54.45525q.58008-.02929,1.042-.02929a4.37437,4.37437,0,0,1,.76562.05664,2.31568,2.31568,0,0,1,.57031.18066,1.45666,1.45666,0,0,1,.44825.31934,1.6276,1.6276,0,0,1,.38574,1.14551v3.73535h-.68848V56.11932q0-1.10742-1.48633-1.10742-.44823,0-1.03711.02929Z"/><path class="aaf994b7-1c0c-4943-bcef-6d7a47dd8bd8" d="M20.87207,54.50994v.47266a1.11423,1.11423,0,0,0-.85449,1.19531v3.68555h-.68946V56.17791a1.63632,1.63632,0,0,1,.0586-.45019,1.04518,1.04518,0,0,1,.14062-.32129.96907.96907,0,0,1,.30762-.31153l.05762-.02929V55.0451H16.96289v-.53516Z"/><path class="aaf994b7-1c0c-4943-bcef-6d7a47dd8bd8" d="M26.39648,55.468a1.98018,1.98018,0,0,1,.10352.66016v3.73535h-.68945V56.11932q0-1.10742-1.48535-1.10742-.65625,0-1.44825.04492l-.291.01758v-.58594q.96679-.06153,1.77051-.0625a3.11869,3.11869,0,0,1,1.32128.24316A1.34994,1.34994,0,0,1,26.39648,55.468Zm-3.12109,4.39551h-.68945v-3.416h.68945Z"/><path class="aaf994b7-1c0c-4943-bcef-6d7a47dd8bd8" d="M32.46289,55.468a1.98018,1.98018,0,0,1,.10352.66016v3.73535H31.877V56.11932q0-1.10742-1.48535-1.10742-.65625,0-1.44824.04492l-.291.01758v-.58594q.9668-.06153,1.77051-.0625a3.11871,3.11871,0,0,1,1.32129.24316A1.35,1.35,0,0,1,32.46289,55.468ZM29.3418,59.86346h-.68946v-3.416h.68946Z"/><path class="aaf994b7-1c0c-4943-bcef-6d7a47dd8bd8" d="M39.94434,59.92205a1.71174,1.71174,0,0,1-.41407-.05859V59.2951c.20118.02734.31348.041.33594.041q.59326,0,.59375-.70507V55.09l-.58594.05469v-.58594a18.22845,18.22845,0,0,1,2.02539-.13281,2.91963,2.91963,0,0,1,1.24512.2373,1.36309,1.36309,0,0,1,.73047.80469,1.955,1.955,0,0,1,.10449.66016v3.73535h-.69336V56.11932q0-1.10742-1.48242-1.10742-.18164,0-.65527.02441v3.499a1.572,1.572,0,0,1-.29883,1.02149A1.10218,1.10218,0,0,1,39.94434,59.92205Z"/><path class="aaf994b7-1c0c-4943-bcef-6d7a47dd8bd8" d="M46.07812,58.05389v-3.544h.68848v2.83789l-.54785.70606Z"/><path class="aaf994b7-1c0c-4943-bcef-6d7a47dd8bd8" d="M48.80859,58.05389v-3.544h.68848v2.83789l-.54785.70606Z"/><path class="aaf994b7-1c0c-4943-bcef-6d7a47dd8bd8" d="M51.10645,54.45525q.58006-.02929,1.042-.02929a4.37437,4.37437,0,0,1,.76562.05664,2.31568,2.31568,0,0,1,.57031.18066,1.45666,1.45666,0,0,1,.44825.31934,1.6276,1.6276,0,0,1,.38574,1.14551v3.73535h-.68848V56.11932q0-1.10742-1.48633-1.10742-.44823,0-1.0371.02929Z"/><path class="aaf994b7-1c0c-4943-bcef-6d7a47dd8bd8" d="M59.165,59.72283v.14063h-.68457v-.14063a3.4318,3.4318,0,0,1,.13769-.82422q.13623-.52147.19922-.74511.12012-.46143.30664-1.0791l.59375-2.03321h-3.25v-.53125h3.93848v.53125l-.62207,2.11621c-.07227.25489-.13184.46387-.17871.62891-.04688.16406-.09375.332-.1416.502-.04688.16992-.085.31739-.11524.44239-.03125.124-.06152.2539-.09179.38964A3.10285,3.10285,0,0,0,59.165,59.72283Zm-2.00781,2.18653h-.68555v-5.2461h.68555Z"/><path class="aaf994b7-1c0c-4943-bcef-6d7a47dd8bd8" d="M4.0293,43.84686h3.502v1.27246L6.61914,48.218l.00586-.00488-.58594,2.58886H3.98633l.60742-2.6582.80078-2.69141H1.94531V42.47186h2.084Z"/><path class="aaf994b7-1c0c-4943-bcef-6d7a47dd8bd8" d="M9.91016,42.96014h1.49218q-.34863,1.62744-.52539,3.13086H9.03906L8.959,45.97381A20.342,20.342,0,0,1,9.91016,42.96014Zm2.73828,0h1.48828q-.34863,1.64941-.52149,3.13086H11.7793l-.08008-.11719A20.15634,20.15634,0,0,1,12.64844,42.96014Z"/><path class="aaf994b7-1c0c-4943-bcef-6d7a47dd8bd8" d="M16.12305,48.55193V43.84686h2.084V47.091l-1.1543,1.46093Z"/><path class="aaf994b7-1c0c-4943-bcef-6d7a47dd8bd8" d="M23.46484,43.80877a5.59441,5.59441,0,0,1,.86133-.06934,3.25032,3.25032,0,0,1,.80274.09864,1.96879,1.96879,0,0,1,.709.33886,1.71549,1.71549,0,0,1,.50977.64161,5.71386,5.71386,0,0,1,.39843,2.41113,4.08782,4.08782,0,0,1-.81054,2.71,2.84478,2.84478,0,0,1-2.30469.96387,2.77429,2.77429,0,0,1-1.168-.249,2.81239,2.81239,0,0,1-.94922-.71191,3.34477,3.34477,0,0,1-.63281-1.16309,4.91718,4.91718,0,0,1-.23047-1.5498V43.84686h2.08789v3.38281q0,2.00976.94141,2.00976a.78.78,0,0,0,.73047-.47558,3.57258,3.57258,0,0,0,.24023-1.52051,3.46907,3.46907,0,0,0-.209-1.45019.74048.74048,0,0,0-.71875-.40528l-.25782.02735Z"/><path class="aaf994b7-1c0c-4943-bcef-6d7a47dd8bd8" d="M34.73828,43.85174a19.12511,19.12511,0,0,1,1.93164-.11231,8.278,8.278,0,0,1,1.31055.08008,2.60781,2.60781,0,0,1,.79492.252,2.16879,2.16879,0,0,1,.52734.38671,1.46133,1.46133,0,0,1,.31641.53516,3.28908,3.28908,0,0,1,.15039.63867,6.05862,6.05862,0,0,1,.03906.75489v4.415h-2.084v-4.415a.92246.92246,0,0,0-1.05274-1.03614q-.79393,0-1.93359.11719Z"/><path class="aaf994b7-1c0c-4943-bcef-6d7a47dd8bd8" d="M44.42187,50.80193h-2.084V43.84686h2.084Z"/><path class="aaf994b7-1c0c-4943-bcef-6d7a47dd8bd8" d="M52.19922,43.84686v1.4707a1.582,1.582,0,0,0-.7168.46484,1.43622,1.43622,0,0,0-.1914.83594v4.18359H49.207V46.58025a1.4043,1.4043,0,0,1,.5-1.12793H46.37109V43.84686Z"/><path class="aaf994b7-1c0c-4943-bcef-6d7a47dd8bd8" d="M55.834,43.84686a1.8967,1.8967,0,0,1,.24219.709h.07422a1.87314,1.87314,0,0,1,.30664-.2666,3.08781,3.08781,0,0,1,.42188-.26563,2.71788,2.71788,0,0,1,.53711-.19629,3.03273,3.03273,0,0,1,.77343-.08789,2.308,2.308,0,0,1,.84766.15821,1.81722,1.81722,0,0,1,.66406.42676,1.97307,1.97307,0,0,1,.41406.67675,5.24387,5.24387,0,0,1,.28321,1.88477v3.916H57.03711V49.19647h1.24023V46.88592a3.92639,3.92639,0,0,0-.06054-.82129,1.0893,1.0893,0,0,0-.1543-.38184.73613.73613,0,0,0-.65039-.28906.95145.95145,0,0,0-.36524.07227,1.01684,1.01684,0,0,0-.29492.17968,1.88483,1.88483,0,0,0-.34961.38672l-.043.0752L55.957,50.80193H53.90625l.40234-4.39355c.02539-.25781.03711-.49609.03711-.71387a5.421,5.421,0,0,0-.33789-1.84765Z"/></svg>