<svg xmlns="http://www.w3.org/2000/svg" viewBox="0 0 266.21582 223.13165"><defs><style>.a{fill:#231f20;}.b{fill:none;stroke:#231f20;stroke-linecap:round;stroke-linejoin:round;stroke-width:20.87943px;}</style></defs><path class="a" d="M27.54,174.35138q3.479,3.90087,3.47949,10.7998a17.94757,17.94757,0,0,1-2.36914,9.18067,21.12549,21.12549,0,0,1-6.30078,6.80957,25.59754,25.59754,0,0,1-8.54981,3.87011l-2.39941.59961a1.16985,1.16985,0,0,1-1.14062-.53906,2.15913,2.15913,0,0,1-.54-1.38086v-8.33984a1.98456,1.98456,0,0,1,.48047-1.25977,3.09158,3.09158,0,0,1,1.13964-.90039l1.62012-.66015q4.19971-1.73877,4.2002-6.71973a5.49237,5.49237,0,0,0-.75-3.29981,3.55033,3.55033,0,0,0-2.91016-.96H2.58008a1.55318,1.55318,0,0,1-1.13965-.47949A1.55406,1.55406,0,0,1,.96,179.93146v-16.2002a1.55351,1.55351,0,0,1,.48047-1.13965,1.55413,1.55413,0,0,1,1.13965-.48047h9.17969a1.63913,1.63913,0,0,1,1.62011,1.62012V170.451H16.5Q24.06006,170.451,27.54,174.35138Z"/><path class="a" d="M33.99023,179.90118a1.26326,1.26326,0,0,1-.38964-.92968,1.33269,1.33269,0,0,1,.05957-.41993l5.70019-14.5205a2.604,2.604,0,0,1,2.58008-1.91993H48a1.29706,1.29706,0,0,1,.99023.41993,1.2556,1.2556,0,0,1,.33008,1.0205L47.10059,177.951a3.29246,3.29246,0,0,1-.81055,1.65039,2.27323,2.27323,0,0,1-1.76953.69043H34.91992A1.26732,1.26732,0,0,1,33.99023,179.90118Zm16.32032,0a1.26416,1.26416,0,0,1-.39063-.92968,1.30382,1.30382,0,0,1,.06055-.41993l5.70019-14.5205a2.6029,2.6029,0,0,1,2.57911-1.91993h6.06054a1.29708,1.29708,0,0,1,.99024.41993,1.25563,1.25563,0,0,1,.33007,1.0205L63.41992,177.951a3.29107,3.29107,0,0,1-.80957,1.65039,2.274,2.274,0,0,1-1.77051.69043H51.24023A1.26571,1.26571,0,0,1,50.31055,179.90118Z"/><path class="a" d="M70.19922,189.83185a1.55534,1.55534,0,0,1-.47949-1.14063V172.07208a1.63911,1.63911,0,0,1,1.62011-1.62109H82.0791a1.63911,1.63911,0,0,1,1.62012,1.62109v16.61914a1.63739,1.63739,0,0,1-1.62012,1.62012H71.33984A1.55532,1.55532,0,0,1,70.19922,189.83185Z"/><path class="a" d="M93.419,201.32208q-4.56006-3.99022-4.55957-11.07031V172.07208a1.64083,1.64083,0,0,1,1.62011-1.62109h8.87989a1.64085,1.64085,0,0,1,1.62011,1.62109V189.951a3.574,3.574,0,0,0,1.55957,3.27051,7.51462,7.51462,0,0,0,4.08008.99023,5.3771,5.3771,0,0,0,3.54-1.0498A3.94158,3.94158,0,0,0,111.419,189.951v-3.35938q0-5.27929-2.15918-5.28027a6.90056,6.90056,0,0,0-2.40039.41992,1.94664,1.94664,0,0,1-.59961.12012,1.2908,1.2908,0,0,1-.99024-.41992,1.60463,1.60463,0,0,1-.38965-1.13965v-6.78028a2.60635,2.60635,0,0,1,1.43946-2.46q1.43994-.7793,5.46-.78027a15.19877,15.19877,0,0,1,7.56054,1.58984,8.699,8.699,0,0,1,3.89942,4.68067,23.32906,23.32906,0,0,1,1.14062,7.95019v1.43946q0,.78075.0293,2.28027a19.35681,19.35681,0,0,1-.0293,2.04q-.36034,7.0796-4.74023,11.07031-4.38135,3.99024-12.96,3.98926Q97.97852,205.31134,93.419,201.32208Z"/><path class="a" d="M154.499,204.26153a1.45694,1.45694,0,0,1-.48047-1.11035V185.451q0-4.5-4.43945-4.5H139.55859a1.63915,1.63915,0,0,1-1.62011-1.61914v-7.25977a1.64085,1.64085,0,0,1,1.62011-1.62109h10.37989a29.1999,29.1999,0,0,1,9.62988,1.35058,10.9427,10.9427,0,0,1,5.82031,4.55957q2.00978,3.21094,2.00977,8.73047v18a1.63913,1.63913,0,0,1-1.62012,1.62012H155.63867A1.60855,1.60855,0,0,1,154.499,204.26153Z"/><path class="a" d="M173.15723,204.23126a1.55313,1.55313,0,0,1-.4795-1.13965V172.07208a1.63912,1.63912,0,0,1,1.62012-1.62109h10.73926a1.63912,1.63912,0,0,1,1.62012,1.62109v31.01953a1.63914,1.63914,0,0,1-1.62012,1.62012H174.29785A1.5525,1.5525,0,0,1,173.15723,204.23126Z"/><path class="a" d="M221.15723,170.93146a1.55783,1.55783,0,0,1,.48047,1.14062v7.25977a1.64233,1.64233,0,0,1-.4502,1.10937,1.48455,1.48455,0,0,1-1.16992.50977H217.918q-1.38135,2.46093-1.38086,7.44043v15a1.10814,1.10814,0,0,1-.62988.93066,2.42317,2.42317,0,0,1-1.29.38965H204.59766a1.23988,1.23988,0,0,1-1.32032-1.32031V187.55157q0-4.6201,1.02051-6.60058H192.47754a1.63915,1.63915,0,0,1-1.62012-1.61914v-7.25977a1.64085,1.64085,0,0,1,1.62012-1.62109h27.54A1.561,1.561,0,0,1,221.15723,170.93146Z"/><path class="a" d="M259.73633,173.96173q4.01953,3.50976,4.02051,11.12988v18a1.64087,1.64087,0,0,1-1.62012,1.62012H245.2168a1.63913,1.63913,0,0,1-1.62012-1.62012v-7.25976a1.63739,1.63739,0,0,1,1.62012-1.62012H250.377v-8.52051a4.52075,4.52075,0,0,0-.96-3.17969,3.45449,3.45449,0,0,0-2.64062-1.01953h-3.54l-5.39942,21.59961a1.64085,1.64085,0,0,1-1.62011,1.62012h-9.78028a1.83091,1.83091,0,0,1-1.25976-.48047,1.05526,1.05526,0,0,1-.36035-1.13965l6.54-21.54h-4.5a1.63913,1.63913,0,0,1-1.62012-1.62011v-7.85938a1.64085,1.64085,0,0,1,1.62012-1.62109h22.08007Q255.71582,170.451,259.73633,173.96173Z"/><path class="b" d="M152.65089,83.84381l20.44657,20.16736a39.96032,39.96032,0,0,0,57.51762-1.31729c14.69287-15.92466,13.44116-40.88176-1.95135-56.1312l0,0a25.35651,25.35651,0,0,0-35.84987.15808l-10.2205,10.30569"/><path class="b" d="M95.068,55.61848l-5.07812-5.09224a38.03942,38.03942,0,1,0,.25116,53.79432l93.0083-93.88085"/><line class="b" x1="134.27818" y1="105.4174" x2="124.05768" y2="115.72309"/></svg>
