<svg xmlns="http://www.w3.org/2000/svg" viewBox="0 0 355.63183 334.648"><defs><style>.a{fill:#ffcfae;}.b{fill:#e29460;}.c,.d,.e,.m,.n,.p,.q,.r{fill:none;}.c{stroke:#706f6f;stroke-width:54.67227px;}.c,.d,.m,.n,.p,.q,.r{stroke-linecap:round;stroke-linejoin:round;}.d,.r{stroke:#878787;}.d{stroke-width:25.75331px;}.e{stroke:#575756;stroke-miterlimit:10;stroke-width:9.20265px;}.f{fill:#9d9d9c;}.g{fill:#3c3c3b;}.h{fill:#ededed;}.i{fill:#c6c6c6;}.j{opacity:0.71;}.k{fill:#878787;}.l{fill:#575756;}.m{stroke:#dadada;}.n{stroke:#f6f6f6;}.o{fill:#f6f6f6;}.p{stroke:#fff;}.q{stroke:#c6c6c6;}</style></defs><path class="a" d="M121.57544,155.526h.00007a33.74136,33.74136,0,0,1,33.74136,33.74136v132.6121a33.74136,33.74136,0,0,1-33.74136,33.74136h-.00007a33.74136,33.74136,0,0,1-33.74136-33.74136V189.2674A33.74137,33.74137,0,0,1,121.57544,155.526Z" transform="translate(-133.99797 377.14892) rotate(-90)"/><rect class="a" x="66.99447" y="81.09648" width="67.4828" height="200.09483" rx="33.74136" transform="translate(-80.40802 281.87976) rotate(-90)"/><rect class="a" x="66.30601" y="7.10282" width="67.4828" height="200.09483" rx="33.74136" transform="translate(-7.10282 207.19764) rotate(-90)"/><rect class="a" x="198.25134" y="-15.64108" width="67.4828" height="180.89076" rx="33.74136" transform="translate(28.13741 208.44306) rotate(-51.11864)"/><path class="a" d="M138.2425,71.92536h215.906a0,0,0,0,1,0,0V182.84511A107.9529,107.9529,0,0,1,246.19562,290.798h-.00022a107.9529,107.9529,0,0,1-107.9529-107.9529V71.92536a0,0,0,0,1,0,0Z" transform="translate(64.83383 427.55719) rotate(-90)"/><path class="b" d="M172.20131,69.9353l53.34063,47.87579s-14.83531,39.74218,22.86158,76.23377c0,0-33.27938-18.35929-30.03086-74.42956Z"/><path class="b" d="M155.285,260.20446s-30.79318-31.095-15.31444-141.58155C139.97053,118.62291,128.65683,207.27678,155.285,260.20446Z"/><line class="c" x1="142.53791" y1="334.648" x2="142.53791" y2="188.53039"/><line class="d" x1="151.55777" y1="334.648" x2="151.55777" y2="188.53039"/><path class="e" d="M115.28848,277.52759h3.14745c23.21407-2.51727,48.07775,0,48.07775,0h3.51856"/><path class="e" d="M115.28848,262.3531h3.14745c23.21407-2.51726,48.07775,0,48.07775,0h3.51856"/><path class="e" d="M115.28848,247.17862h3.14745c23.21407-2.51727,48.07775,0,48.07775,0h3.51856"/><path class="e" d="M115.28848,232.00413h3.14745c23.21407-2.51726,48.07775,0,48.07775,0h3.51856"/><polygon class="f" points="86.386 172.111 198.691 172.111 234.886 146.45 142.538 146.45 50.19 146.45 86.386 172.111"/><rect class="g" x="83.48698" y="170.14035" width="118.10336" height="18.39002" rx="8.23748" transform="translate(285.0773 358.67072) rotate(-180)"/><polygon class="h" points="234.886 146.45 142.538 0.69 50.19 146.45 142.538 146.45 234.886 146.45"/><polygon class="i" points="142.538 146.45 142.538 0.69 50.19 146.45 142.538 146.45"/><g class="j"><polygon class="k" points="98.183 74.478 186.893 74.478 142.538 144.4 98.183 74.478"/><path class="l" d="M185.07463,75.478,142.538,142.53314,100.00139,75.478h85.07324m3.63721-2H96.36418L142.538,146.26654,188.71184,73.478Z"/></g><path class="g" d="M125.8549,56.27484a.37606.37606,0,0,1-.11987-.288v-4.736a1.6052,1.6052,0,0,0-1.8081-1.824H121.495a.41034.41034,0,0,1-.40015-.4v-1.376a.37614.37614,0,0,1,.12012-.288.39805.39805,0,0,1,.28-.11206h2.52808a5.10607,5.10607,0,0,1,3.31982.912,3.68684,3.68684,0,0,1,1.09595,2.99207v4.83191a.39788.39788,0,0,1-.11182.28.37691.37691,0,0,1-.28808.12h-1.88794A.41712.41712,0,0,1,125.8549,56.27484Z"/><path class="g" d="M138.311,48.22687a3.86529,3.86529,0,0,1,1.02392,2.9281v4.83191a.39812.39812,0,0,1-.11206.28.37638.37638,0,0,1-.28784.12h-4.36816a.40987.40987,0,0,1-.3999-.4v-1.376a.37678.37678,0,0,1,.11987-.288.39853.39853,0,0,1,.28-.11206h2.064v-2.928a1.92361,1.92361,0,0,0-.3999-1.296,1.30926,1.30926,0,0,0-1.04-.464h-1.248l-1.35987,6.448a.48575.48575,0,0,1-.12793.296.37728.37728,0,0,1-.28808.12h-1.84009a.40212.40212,0,0,1-.2959-.12.31443.31443,0,0,1-.08813-.296l1.56811-6.432H130.455a.37538.37538,0,0,1-.28808-.12.41689.41689,0,0,1-.11206-.296V47.65094a.37614.37614,0,0,1,.12011-.288.39723.39723,0,0,1,.28-.11206h5.136A3.78,3.78,0,0,1,138.311,48.22687Z"/><path class="g" d="M141.24675,56.27484a.3752.3752,0,0,1-.11987-.288V47.65094a.37594.37594,0,0,1,.11987-.288.41777.41777,0,0,1,.29614-.11206h2a.38383.38383,0,0,1,.39991.4v8.33594a.39813.39813,0,0,1-.11207.28.37638.37638,0,0,1-.28784.12h-2A.41669.41669,0,0,1,141.24675,56.27484Z"/><path class="g" d="M145.95061,56.27484a.3752.3752,0,0,1-.11988-.288V47.65094a.376.376,0,0,1,.11988-.288.41776.41776,0,0,1,.29614-.11206h3.77588a5.03145,5.03145,0,0,1,3.35205.936,3.88234,3.88234,0,0,1,1.08008,3.08v4.72a.39816.39816,0,0,1-.11206.28.37693.37693,0,0,1-.28809.12h-1.88794a.41709.41709,0,0,1-.29614-.11206.37606.37606,0,0,1-.11987-.288v-4.736a1.60521,1.60521,0,0,0-1.80811-1.824h-1.408v6.55994a.39708.39708,0,0,1-.11206.28.37639.37639,0,0,1-.28784.12h-1.88794A.41668.41668,0,0,1,145.95061,56.27484Z"/><path class="g" d="M162.24651,56.27484a.389.389,0,0,1-.11206-.288v-4.736a1.60513,1.60513,0,0,0-1.80787-1.824h-3.648a.41721.41721,0,0,1-.29614-.11206.3752.3752,0,0,1-.11987-.288v-1.376a.37594.37594,0,0,1,.11987-.288.41777.41777,0,0,1,.29614-.11206h3.72779a4.90727,4.90727,0,0,1,3.32007.976,3.83966,3.83966,0,0,1,1.11206,3.04v4.72a.37539.37539,0,0,1-.12012.288.4165.4165,0,0,1-.2959.11206h-1.88794A.38859.38859,0,0,1,162.24651,56.27484Zm-5.864,0a.3752.3752,0,0,1-.11987-.288v-4.672a.37609.37609,0,0,1,.11987-.288.41764.41764,0,0,1,.29614-.11194h1.88794a.38362.38362,0,0,1,.39991.3999v4.672a.39712.39712,0,0,1-.11206.28.37641.37641,0,0,1-.28785.12h-1.88794A.41669.41669,0,0,1,156.38249,56.27484Z"/><path class="g" d="M176.45036,120.25067a.39116.39116,0,0,1,.11206.28809v1.376a.39853.39853,0,0,1-.11206.28.37635.37635,0,0,1-.28784.12h-.73608a2.452,2.452,0,0,0-.29614.81591,5.72366,5.72366,0,0,0-.104,1.13611v4.656a.29807.29807,0,0,1-.15185.24792.54653.54653,0,0,1-.312.104h-1.87207a.33071.33071,0,0,1-.352-.35193v-4.832a3.45281,3.45281,0,0,1,.32007-1.776h-3.64795a.40988.40988,0,0,1-.3999-.4v-1.376a.37638.37638,0,0,1,.11987-.28809.39846.39846,0,0,1,.28-.11194h7.1521A.39052.39052,0,0,1,176.45036,120.25067Z"/><path class="g" d="M186.08244,121.11468a3.865,3.865,0,0,1,1.02393,2.928v4.832a.39835.39835,0,0,1-.11206.28.37638.37638,0,0,1-.28784.12H182.3383a.40988.40988,0,0,1-.3999-.4v-1.376a.377.377,0,0,1,.11987-.288.39805.39805,0,0,1,.28-.11206h2.064v-2.928a1.92365,1.92365,0,0,0-.3999-1.296,1.30932,1.30932,0,0,0-1.04-.464h-1.24805l-1.35986,6.448a.48614.48614,0,0,1-.12793.296.37726.37726,0,0,1-.28809.12h-1.84009a.40209.40209,0,0,1-.2959-.12.31455.31455,0,0,1-.08813-.296l1.56811-6.432h-1.0559a.3758.3758,0,0,1-.28809-.12.41692.41692,0,0,1-.11206-.296v-1.47192a.37658.37658,0,0,1,.12012-.28809.3976.3976,0,0,1,.28-.11194h5.136A3.7806,3.7806,0,0,1,186.08244,121.11468Z"/><path class="g" d="M189.01823,129.16278a.37569.37569,0,0,1-.11987-.28809v-8.33593a.37642.37642,0,0,1,.11987-.28809.41821.41821,0,0,1,.29615-.11194h2a.38363.38363,0,0,1,.3999.4v8.33593a.39835.39835,0,0,1-.11206.28.37638.37638,0,0,1-.28784.12h-2A.41712.41712,0,0,1,189.01823,129.16278Z"/><path class="g" d="M199.714,121.13873a4.34863,4.34863,0,0,1,.9121,3.016,4.70469,4.70469,0,0,1-1.2,3.328,6.37274,6.37274,0,0,1-3.008,1.808l-.656.192a.30981.30981,0,0,1-.2959-.11194.45522.45522,0,0,1-.136-.32007v-1.616a.456.456,0,0,1,.11181-.296.79044.79044,0,0,1,.28809-.21594l.512-.208a2.5816,2.5816,0,0,0,1.15991-.85608,2.67662,2.67662,0,0,0,.42408-1.624,2.154,2.154,0,0,0-.352-1.408,1.70621,1.70621,0,0,0-1.312-.4h-.416l-2.1438-.016a.38363.38363,0,0,1-.40015-.4v-3.69592a.37614.37614,0,0,1,.12012-.288.39721.39721,0,0,1,.28-.11206h1.728a.38381.38381,0,0,1,.3999.4v1.824h.99194A3.88476,3.88476,0,0,1,199.714,121.13873Z"/><path class="g" d="M208.162,129.16278a.38949.38949,0,0,1-.11206-.28809v-4.736a1.60518,1.60518,0,0,0-1.80786-1.824h-3.648a.41669.41669,0,0,1-.29614-.11206.37541.37541,0,0,1-.11987-.288v-1.376a.37638.37638,0,0,1,.11987-.28809.4182.4182,0,0,1,.29614-.11194h3.72779a4.90792,4.90792,0,0,1,3.32006.976,3.83969,3.83969,0,0,1,1.11206,3.04v4.72a.37584.37584,0,0,1-.12011.28809.41694.41694,0,0,1-.2959.11194h-1.88794A.389.389,0,0,1,208.162,129.16278Zm-5.864,0a.37565.37565,0,0,1-.11987-.28809v-4.672a.37612.37612,0,0,1,.11987-.288.4183.4183,0,0,1,.29614-.11206h1.88794a.38381.38381,0,0,1,.3999.4v4.672a.39727.39727,0,0,1-.11206.28.37635.37635,0,0,1-.28784.12h-1.88794A.41712.41712,0,0,1,202.298,129.16278Z"/><path class="g" d="M81.09734,120.25067a.3912.3912,0,0,1,.11206.28809v1.376a.39857.39857,0,0,1-.11206.28.37639.37639,0,0,1-.28785.12h-.73608a2.452,2.452,0,0,0-.29614.81591,5.72366,5.72366,0,0,0-.104,1.13611v4.656a.298.298,0,0,1-.15185.24792.5465.5465,0,0,1-.312.104H77.33733a.33071.33071,0,0,1-.352-.35193v-4.832a3.45294,3.45294,0,0,1,.32006-1.776H73.65739a.4099.4099,0,0,1-.3999-.4v-1.376a.37639.37639,0,0,1,.11988-.28809.39843.39843,0,0,1,.28-.11194h7.1521A.39056.39056,0,0,1,81.09734,120.25067Z"/><path class="g" d="M90.72942,121.11468a3.865,3.865,0,0,1,1.02392,2.928v4.832a.39835.39835,0,0,1-.11206.28.37636.37636,0,0,1-.28784.12H86.98528a.4099.4099,0,0,1-.39991-.4v-1.376a.377.377,0,0,1,.11988-.288.398.398,0,0,1,.28-.11206h2.064v-2.928a1.92365,1.92365,0,0,0-.3999-1.296,1.30932,1.30932,0,0,0-1.04-.464H86.36125l-1.35986,6.448a.48608.48608,0,0,1-.12793.296.37726.37726,0,0,1-.28809.12H82.74529a.40208.40208,0,0,1-.2959-.12.31453.31453,0,0,1-.08814-.296l1.56812-6.432H82.87346a.37582.37582,0,0,1-.28809-.12.417.417,0,0,1-.11206-.296v-1.47192a.37658.37658,0,0,1,.12012-.28809.39761.39761,0,0,1,.28-.11194h5.136A3.78062,3.78062,0,0,1,90.72942,121.11468Z"/><path class="g" d="M99.46526,121.13873a4.34863,4.34863,0,0,1,.91211,3.016,4.7047,4.7047,0,0,1-1.2,3.328,6.37269,6.37269,0,0,1-3.008,1.808l-.656.192a.30982.30982,0,0,1-.2959-.11194.45522.45522,0,0,1-.136-.32007v-1.616a.456.456,0,0,1,.11181-.296.79044.79044,0,0,1,.28809-.21594l.512-.208a2.5816,2.5816,0,0,0,1.15991-.85608,2.67662,2.67662,0,0,0,.42408-1.624,2.154,2.154,0,0,0-.35205-1.408,1.70621,1.70621,0,0,0-1.312-.4h-.416l-2.1438-.016a.38363.38363,0,0,1-.40015-.4v-3.69592a.37614.37614,0,0,1,.12012-.288.39721.39721,0,0,1,.28-.11206h1.728a.38381.38381,0,0,1,.3999.4v1.824h.99194A3.88476,3.88476,0,0,1,99.46526,121.13873Z"/><path class="g" d="M109.99333,121.11468a3.865,3.865,0,0,1,1.02393,2.928v4.832a.39835.39835,0,0,1-.11206.28.37638.37638,0,0,1-.28784.12h-4.36817a.40988.40988,0,0,1-.3999-.4v-1.376a.377.377,0,0,1,.11987-.288.39805.39805,0,0,1,.28-.11206h2.064v-2.928a1.9236,1.9236,0,0,0-.39991-1.296,1.30929,1.30929,0,0,0-1.04-.464h-1.24805l-1.35987,6.448a.48607.48607,0,0,1-.12792.296.37728.37728,0,0,1-.28809.12H102.0092a.40209.40209,0,0,1-.2959-.12.3145.3145,0,0,1-.08813-.296l1.56811-6.432h-1.0559a.3758.3758,0,0,1-.28809-.12.41692.41692,0,0,1-.11206-.296v-1.47192a.37658.37658,0,0,1,.12012-.28809.3976.3976,0,0,1,.28-.11194h5.136A3.7806,3.7806,0,0,1,109.99333,121.11468Z"/><path class="g" d="M118.79314,129.16278a.38945.38945,0,0,1-.11206-.28809v-4.736a1.60518,1.60518,0,0,0-1.80786-1.824h-3.648a.4167.4167,0,0,1-.29615-.11206.37544.37544,0,0,1-.11987-.288v-1.376a.37642.37642,0,0,1,.11987-.28809.41821.41821,0,0,1,.29615-.11194h3.72778a4.90795,4.90795,0,0,1,3.32007.976,3.83969,3.83969,0,0,1,1.11206,3.04v4.72a.37585.37585,0,0,1-.12012.28809.41692.41692,0,0,1-.2959.11194h-1.88794A.389.389,0,0,1,118.79314,129.16278Zm-5.864,0a.37569.37569,0,0,1-.11987-.28809v-4.672a.37616.37616,0,0,1,.11987-.288.4183.4183,0,0,1,.29615-.11206h1.88794a.38381.38381,0,0,1,.3999.4v4.672a.39731.39731,0,0,1-.11206.28.37638.37638,0,0,1-.28784.12h-1.88794A.41712.41712,0,0,1,112.92912,129.16278Z"/><polygon class="m" points="142.277 145.877 96.883 73.478 50.19 146.45 142.277 145.877"/><line class="n" x1="188.44713" y1="73.478" x2="96.8833" y2="73.478"/><path class="o" d="M133.258,95.0368a3.865,3.865,0,0,1,1.02393,2.928v4.832a.39857.39857,0,0,1-.11206.28.376.376,0,0,1-.28785.12h-4.36816a.40988.40988,0,0,1-.3999-.4v-1.376a.37744.37744,0,0,1,.11987-.28809.39846.39846,0,0,1,.28-.11194h2.064v-2.928a1.92365,1.92365,0,0,0-.3999-1.296,1.30929,1.30929,0,0,0-1.04-.464h-1.248l-1.35987,6.448a.486.486,0,0,1-.12793.296.37682.37682,0,0,1-.28808.12h-1.84009a.40163.40163,0,0,1-.2959-.12.3145.3145,0,0,1-.08813-.296l1.56811-6.432H125.402a.37579.37579,0,0,1-.28808-.12.41692.41692,0,0,1-.11206-.296V94.46088a.37643.37643,0,0,1,.12011-.28809.39763.39763,0,0,1,.28-.11194h5.136A3.7806,3.7806,0,0,1,133.258,95.0368Z"/><path class="o" d="M135.55412,95.86883a.32.32,0,0,1-.08813-.224.46766.46766,0,0,1,.032-.176l1.23193-3.184a.97675.97675,0,0,1,.23218-.328.54809.54809,0,0,1,.376-.12h1.168a.28081.28081,0,0,1,.23193.11206.33945.33945,0,0,1,.072.25586l-.49609,3.20007a.82573.82573,0,0,1-.1919.4.51054.51054,0,0,1-.3999.15991h-1.95215A.28072.28072,0,0,1,135.55412,95.86883Zm3.616,0a.31993.31993,0,0,1-.08813-.224.46746.46746,0,0,1,.032-.176l1.23218-3.184a.97286.97286,0,0,1,.23193-.328.54894.54894,0,0,1,.376-.12h1.168a.28083.28083,0,0,1,.23194.11206.33945.33945,0,0,1,.072.25586l-.49585,3.20007a.826.826,0,0,1-.19214.4.51056.51056,0,0,1-.3999.15991h-1.95215A.28072.28072,0,0,1,139.17009,95.86883Z"/><path class="o" d="M144.03386,103.0849a.37565.37565,0,0,1-.11987-.28809V94.46088a.3762.3762,0,0,1,.11987-.28809.4182.4182,0,0,1,.29614-.11194h3.77588a5.03211,5.03211,0,0,1,3.352.93591,3.88282,3.88282,0,0,1,1.08008,3.08008v4.72a.39857.39857,0,0,1-.11206.28.37649.37649,0,0,1-.28809.12h-1.88794a.41752.41752,0,0,1-.29614-.11194.37652.37652,0,0,1-.11987-.28809v-4.736a1.60534,1.60534,0,0,0-1.80811-1.8241h-1.408v6.56006a.39749.39749,0,0,1-.11206.28.37593.37593,0,0,1-.28784.12H144.33A.41712.41712,0,0,1,144.03386,103.0849Z"/><path class="o" d="M160.26579,95.06085a4.34858,4.34858,0,0,1,.91211,3.016,4.70465,4.70465,0,0,1-1.2,3.328,6.37266,6.37266,0,0,1-3.00806,1.808l-.656.192a.30978.30978,0,0,1-.2959-.11193.45523.45523,0,0,1-.136-.32007v-1.616a.45619.45619,0,0,1,.11182-.296.79027.79027,0,0,1,.28809-.21594l.512-.208a2.5816,2.5816,0,0,0,1.15991-.85608,2.67648,2.67648,0,0,0,.42407-1.6239,2.1541,2.1541,0,0,0-.352-1.40808,1.70618,1.70618,0,0,0-1.312-.4h-.416l-2.1438-.016a.38365.38365,0,0,1-.40015-.4v-3.696a.37606.37606,0,0,1,.12012-.28784.3972.3972,0,0,1,.28-.11206h1.728a.3838.3838,0,0,1,.39991.3999v1.8241h.99194A3.88475,3.88475,0,0,1,160.26579,95.06085Z"/><line class="p" x1="234.88553" y1="146.45045" x2="142.53791" y2="0.68952"/><line class="p" x1="188.71172" y1="75.09369" x2="143.41522" y2="146.6308"/><polyline class="q" points="187.973 74.646 142.538 146.45 234.886 146.45"/><line class="r" x1="52.20245" y1="147.14366" x2="232.4297" y2="147.14366"/><line class="m" x1="142.53791" y1="0.68952" x2="96.8833" y2="73.478"/></svg>