<svg xmlns="http://www.w3.org/2000/svg" xmlns:xlink="http://www.w3.org/1999/xlink" viewBox="0 0 344.43634 209.3756"><defs><style>.a{fill:#879647;}.b{fill:#ffcfae;}.c{fill:#fff;}.d{fill:#353363;}.e{fill:#1d1d1b;}.f{fill:#f7f3f8;}.ac,.ad,.ah,.ak,.ar,.as,.g,.l,.q{fill:none;}.g{stroke:#8c5632;stroke-width:0.64641px;}.ac,.ad,.ak,.ar,.as,.g,.l,.q{stroke-linecap:round;}.ac,.ah,.ar,.g{stroke-miterlimit:10;}.h{fill:#d9d6da;}.i{fill:#f8e1f2;}.j{fill:#dce3f6;}.k{fill:#696987;}.l{stroke:#1d1d1b;stroke-width:1.29283px;}.ad,.ak,.as,.l,.q{stroke-linejoin:round;}.m{fill:#e29460;}.n{clip-path:url(#a);}.o{fill:#97a34f;}.p{fill:#a3af5a;}.ac,.q{stroke:#879647;}.q{stroke-width:11.63547px;}.r{fill:#756f48;}.s{clip-path:url(#b);}.t{fill:#73842f;}.u{fill:#546023;}.v{fill:#689300;}.w{fill:#99b523;}.x{fill:#b9d324;}.y{fill:#79891b;}.z{clip-path:url(#c);}.aa{fill:#683c11;}.ab{fill:#ffada4;}.ac{stroke-width:10.34264px;}.ad{stroke:#ffcfae;stroke-width:7.78782px;}.ae{fill:#3c3c3b;}.af{fill:#432918;}.ag{fill:#7d4e24;}.ah{stroke:#b2b2b2;}.ah,.ar,.as{stroke-width:0.26355px;}.ai{fill:#ad8b63;}.aj{fill:#cca581;}.ak{stroke:#ccb297;stroke-width:0.5271px;}.al{fill:#d3b398;}.am{fill:#b2b2b2;}.an{fill:#c6c6c6;}.ao{fill:#ba8e6e;}.ap{fill:#896a4c;}.aq{fill:#9b5623;opacity:0.25;}.ar,.as{stroke:#fff;}.ar{opacity:0.42;}.as{opacity:0.32;}.at{fill:#878787;opacity:0.35;}</style><clipPath id="a"><path class="a" d="M262.56211,175.13082l4.5362,2.00712h3.69718l2.18011,19.811,1.81,12.42662h17.89177l.63648-12.42662s.55479-26.64882-2.374-39.50992l-24.79714,3.45019Z"/></clipPath><clipPath id="b"><path class="a" d="M247.72662,125.655l-4.34257,17.52609c-.568,2.29244-1.167,4.57843-1.81739,6.85173a58.35869,58.35869,0,0,1-1.81676,6.4508.71081.71081,0,0,0-.08051.40294.61092.61092,0,0,0,.25712.33137,3.954,3.954,0,0,0,2.19878.80584c.35273.01806.70948-.01007,1.05924.03268a6.91834,6.91834,0,0,1,2.27627.97153,9.85394,9.85394,0,0,0,2.80291.95937,22.04277,22.04277,0,0,1,.78842-3.62713c2.36863-7.84432,3.15676-16.36113,4.66469-24.44455.33558-1.79889.54907-3.23229-.16382-4.859-.72957-1.6648-1.89436-2.83853-.92626-4.78683C251.012,123.40435,249.27231,124.42832,247.72662,125.655Z"/></clipPath><clipPath id="c"><path class="b" d="M302.33963,76.55075a12.89549,12.89549,0,0,1,.08252,2.22807,9.3447,9.3447,0,0,1-1.32033,4.45614,14.14076,14.14076,0,0,1-12.63722,5.93977,2.9589,2.9589,0,0,1-.88-.1818h0A45.43442,45.43442,0,0,1,255.755,101.79245c-13.00248,0-33.45825-6.06537-33.45825-22.08164A17.19708,17.19708,0,0,1,230.132,65.25738a.54492.54492,0,0,1,.12878-.07828.20093.20093,0,0,1,.10352-.05176.54789.54789,0,0,1-.12877-.33584,10.28227,10.28227,0,0,1-.80171-1.914,33.91928,33.91928,0,0,1-.98225-6.72171,18.67724,18.67724,0,0,1,13.807-17.37619c1.31029-5.90565,4.155-10.5938,9.3091-13.77646a63.22663,63.22663,0,0,1,10.59991-4.88528c5.14044-1.98275,9.405-2.822,14.88064-2.02819A45.14461,45.14461,0,0,1,290.788,22.37745a39.18445,39.18445,0,0,1,18.47222,18.9209,33.6942,33.6942,0,0,1,2.83642,13.48635C312.09662,63.577,308.15737,70.19013,302.33963,76.55075Z"/></clipPath></defs><path class="c" d="M10.07123,0H274.232a0,0,0,0,1,0,0V103.43582a14.45226,14.45226,0,0,1-14.45226,14.45226H10.07123A10.07123,10.07123,0,0,1,0,107.81685V10.07123A10.07123,10.07123,0,0,1,10.07123,0Z"/><path class="c" d="M326.40284,59.9398a59.87452,59.87452,0,1,0-75.54461,57.94828l31.12808-.08841A59.9,59.9,0,0,0,326.40284,59.9398Z"/><path class="d" d="M275.26159,148.47845,264.476,140.60186a2.46037,2.46037,0,0,1-.60327-3.34093l25.66793-38.94431a2.46038,2.46038,0,0,1,3.50536-.633l14.40211,10.5177a2.46039,2.46039,0,0,1,.464,3.53171l-29.28447,36.30319A2.46039,2.46039,0,0,1,275.26159,148.47845Z"/><path class="e" d="M291.01643,97.28956s.12414,5.69471,9.53617,10.71205,5.43623.34933,5.43623.34933Z"/><polygon class="f" points="307.465 104.303 307.228 100.745 311.977 94.344 312.214 97.902 307.465 104.303"/><polygon class="f" points="307.664 104.451 311.138 103.646 315.887 97.245 312.413 98.05 307.664 104.451"/><line class="g" x1="313.27141" y1="96.477" x2="300.21212" y2="114.07832"/><polygon class="f" points="295.16 96.098 294.922 92.54 299.671 86.139 299.909 89.697 295.16 96.098"/><polygon class="f" points="295.358 96.246 298.833 95.441 303.582 89.04 300.107 89.845 295.358 96.246"/><line class="g" x1="300.96617" y1="88.27193" x2="287.90689" y2="105.87325"/><polygon class="f" points="301.652 97.216 301.415 93.657 306.164 87.257 306.401 90.815 301.652 97.216"/><polygon class="f" points="301.85 97.363 305.325 96.559 310.074 90.158 306.599 90.963 301.85 97.363"/><line class="g" x1="307.4582" y1="89.38953" x2="294.39891" y2="106.99085"/><polygon class="h" points="302.68 101.37 302.443 97.811 307.192 91.411 307.429 94.969 302.68 101.37"/><polygon class="h" points="302.879 101.517 306.353 100.712 311.102 94.312 307.628 95.116 302.879 101.517"/><line class="g" x1="308.48645" y1="93.54333" x2="295.42717" y2="111.14465"/><polygon class="i" points="302.286 105.778 302.049 102.22 306.798 95.819 307.035 99.378 302.286 105.778"/><polygon class="i" points="302.485 105.926 305.959 105.121 310.708 98.72 307.234 99.525 302.485 105.926"/><line class="g" x1="308.09252" y1="97.95205" x2="295.03324" y2="115.55337"/><polygon class="j" points="295.309 100.987 295.072 97.429 299.821 91.028 300.058 94.586 295.309 100.987"/><polygon class="j" points="295.507 101.134 298.982 100.33 303.731 93.929 300.256 94.734 295.507 101.134"/><line class="g" x1="301.11524" y1="93.16059" x2="288.05596" y2="110.76192"/><polygon class="f" points="297.098 104.807 296.861 101.248 301.61 94.848 301.847 98.406 297.098 104.807"/><polygon class="f" points="297.297 104.954 300.771 104.149 305.52 97.749 302.046 98.553 297.297 104.954"/><line class="g" x1="302.9051" y1="96.98036" x2="289.84582" y2="114.58169"/><path class="d" d="M291.225,98.19019s-.05856,2.74041,4.28241,6.39453,6.38942,4.02394,6.38942,4.02394l3.36412,1.52989-9.21829,11.90194-13.48243-6.808,5.49572-11.4248Z"/><path class="k" d="M291.01643,97.28956s.88795,7.34718,11.52825,11.59775c0,0-10.29067-4.27682-11.64734-7.42375l-1.35667-3.14694A1.75767,1.75767,0,0,1,291.01643,97.28956Z"/><path class="k" d="M304.786,115.38308s-8.19889-1.85642-9.18823-3.65357l-1.39918,2.94149s7.71967,4.26714,8.66753,3.0921Z"/><polygon class="l" points="296.581 111.345 293.803 117.218 291.016 114.288 293.603 109.572 296.581 111.345"/><path class="b" d="M247.71133,165.88718a10.83733,10.83733,0,0,0-1.33851-3.92654c-.58919-1.27056-.74284-2.35174-2.27691-2.5414-2.61266-.323-5.14429,2.043-5.65457,5.28471s1.29755,5.47388,3.91021,5.79687a4.83054,4.83054,0,0,0,4.66809-2.20979A4.04232,4.04232,0,0,0,247.71133,165.88718Z"/><polygon class="b" points="241.581 153.578 240.098 161.135 245.733 162.285 247.295 152.593 241.581 153.578"/><path class="m" d="M240.73457,157.89138s3.209,2.096,5.36907,2.096l.33779-2.096-5.42738-1.42472Z"/><path class="a" d="M251.63841,160.88925c-2.618,16.30477-1.616,36.05973-1.616,36.05973l.58318,12.42662h15.04275a22.20186,22.20186,0,0,1,.31354-4.32916q.284-3.88458.57856-7.76841c.44556-5.7938,1.34581-11.54156,1.7076-17.34527a13.41359,13.41359,0,0,1,.11635-2.79482l6.07325-3.79123.24358-12.45746Z"/><path class="a" d="M262.56211,175.13082l4.5362,2.00712h3.69718l2.18011,19.811,1.81,12.42662h17.89177l.63648-12.42662s.55479-26.64882-2.374-39.50992l-24.79714,3.45019Z"/><g class="n"><path class="o" d="M285.28379,173.97828l1.92261,13.59535s5.08511-.36306,6.02219-1.60812c0,0-.26548-13.63323-.204-14.62569Z"/><polygon class="a" points="285.284 173.978 288.419 186.304 293.229 185.966 294.938 171.945 292.677 170.71 285.284 173.978"/><path class="p" d="M292.86928,167.70516s-5.10719,2.89173-8.51052,3.097l.925,3.17607s6.58669-.95081,7.74078-2.63846Z"/></g><line class="q" x1="293.67862" y1="126.40943" x2="301.1018" y2="152.59264"/><path class="r" d="M251.796,156.136s15.53339,3.41149,39.47848-.75862l-.74817,4.61s-19.22949,4.641-26.00781,3.91593a75.09441,75.09441,0,0,1-12.89208-2.6518Z"/><path class="a" d="M247.72662,125.655l-4.34257,17.52609c-.568,2.29244-1.167,4.57843-1.81739,6.85173a58.35869,58.35869,0,0,1-1.81676,6.4508.71081.71081,0,0,0-.08051.40294.61092.61092,0,0,0,.25712.33137,3.954,3.954,0,0,0,2.19878.80584c.35273.01806.70948-.01007,1.05924.03268a6.91834,6.91834,0,0,1,2.27627.97153,9.85394,9.85394,0,0,0,2.80291.95937,22.04277,22.04277,0,0,1,.78842-3.62713c2.36863-7.84432,3.15676-16.36113,4.66469-24.44455.33558-1.79889.54907-3.23229-.16382-4.859-.72957-1.6648-1.89436-2.83853-.92626-4.78683C251.012,123.40435,249.27231,124.42832,247.72662,125.655Z"/><g class="s"><path class="t" d="M255.42135,125.237c4.525,11.34459,3.92,16.1727-2.47827,28.67668-.48592.94961.44131,2.1215.03491,3.10655-3.68884-2.28668-3.59586-8.65862-3.30083-12.45333.17881-2.29976.37027-4.59894.56174-6.89811a27.69271,27.69271,0,0,1,.9717-6.23208,19.20426,19.20426,0,0,1,1.57867-4.09388C252.93,127.142,255.40175,125.37146,255.42135,125.237Z"/></g><path class="a" d="M267.95472,118.0304l5.93617-6.46881h-9.53914c-4.32685,0-9.87655,2.16246-9.94371,6.46881-.25142,16.12175-6.30857,30.28632-3.1563,37.21971.8619,1.89273,6.858,2.825,13.93582,3.08569C262.286,144.88012,267.95472,118.0304,267.95472,118.0304Z"/><path class="a" d="M290.9084,155.67409c2.87816-1.11074-.758-22.36814-2.30712-33.40424-.87417-6.22772-4.747-10.70826-11.09606-10.70826h-3.61433l-5.93617,6.46881s-5.66872,26.84972-2.76716,40.3054C276.34246,158.74788,289.08008,156.37967,290.9084,155.67409Z"/><path class="t" d="M291.46053,143.12031l-2.01862-14.99716-4.96372,3.85029S290.08134,138.9163,291.46053,143.12031Z"/><path class="u" d="M264.006,158.27632c.397.01947.783.04542,1.18887.05948-2.89971-13.446,2.75819-40.2643,2.766-40.30324A144.276,144.276,0,0,0,264.006,158.27632Z"/><path class="v" d="M297.61907,131.18217c.06441-.03291-1.02328-1.99467-.8373-2.30421a1.77074,1.77074,0,0,1,1.89842-.57883c.76047.2074,1.34842,1.03167,1.64205,1.2244.08359.05487.25306-.2437.35473-.2447.1224-.0012.37883.33961.47734.2641.26406-.20244.24358-.776.50765-.97848.0418-.032-.20748.04519-.19961-.00613.0094-.06127.23049.12161.187.079-.46018-.45043-.49783-1.27868-.89611-1.78451a4.3234,4.3234,0,0,1-.98452-1.84155,7.29886,7.29886,0,0,0-3.088.474c-.54772.18847-.82776,1.17272-1.378,1.35314-.54982.18026-1.39425-.45586-1.93407-.24463-.59459.23287-1.15969.476-1.76522.67538-.60609.19959-.953,1.25178-1.56654,1.4254-.61415.17379-1.26781.25007-1.88587.40542-.69223.174-1.45286.10607-2.15424.25805-.69814.15127-1.35035.58724-2.05572.71826-.7027.13052-1.514-.337-2.22208-.22505-.70661.11173-1.40966.23253-2.1198.3273-.70969.09472-1.37326.58188-2.08467.66119-.70957.0799-1.40893.348-2.1206.41271-.71208.06471-1.48887-.66412-2.20085-.616-.71461.04832-1.40988.34626-2.12216.37659-.71613.03049-1.42329.431-2.13481.44195-.71759.01106-1.42946-.82409-2.14-.83426-.692-.01161-1.38106.4233-2.0585.38167-.688-.04228-1.33367-.3976-2.00971-.47328-.6825-.07641-1.45782.52861-2.13132.41564-.67446-.11313-1.28126-.61982-1.9499-.77216-.66393-.15127-1.19414-.77087-1.85549-.96329-.71045-.20671-1.46741-.22222-2.17076-.44933-.7037-.22723-1.47423-.24461-2.17435-.48193-.70026-.23737-1.52042-.1205-2.22063-.35762-.30134-.102-.76127-.74759-1.35055-.97281a2.43073,2.43073,0,0,0-1.58208-.22934c-.29366.15656-.24651,1.04823-.55186,1.78162a8.94722,8.94722,0,0,1-1.08976,1.56294c.93782.30706.70649,1.07789,1.64574,1.00386.52094-.04106.88639-.787,1.48089-.72.74885.08436,2.09685.70926,1.07112,1.48944-.35132.26722-1.22915.86388-.99518,1.22128.31123.4754,1.46185-.16394,1.92549.1659.265.18856.03787.87624.28738,1.0844.30143.25149,1.377-.15093,1.63574-.4627a15.33888,15.33888,0,0,0,.41875-2.19091c.87671.28905,2.25225.57122,3.13758.82885-.0174,1.28018-1.50794,1.10283-1.49674,2.38308.9445.26266,1.799.37322,2.77695.57933.77254-1.0094.32749-1.151,1.06438-2.18673.87125.18726,1.90684.19391,2.79162.31582a3.1507,3.1507,0,0,1-.79354,2.30073,3.26922,3.26922,0,0,0,2.33885-.42522,1.61126,1.61126,0,0,0,.97379-1.49215c.22558.00045,2.47014.01235,2.47617-.00485a4.25619,4.25619,0,0,0-.09739,1.78718c.38872.57189,1.25851-.08916,1.77651.20473,1.31841.748,1.74485-1.05529,1.74951-1.91688-.00006.011,2.10213.036,2.31914.046a3.95142,3.95142,0,0,0-.04212,1.46119c.43431.53046,1.524-.17277,2.13683-.46264.63094-.29845,1.31428-.31105,1.76861-.7638a2.03751,2.03751,0,0,1,1.69006-.78937c.04186.22879.21039,1.88857.221,1.88724.00162-.0002,2.98572.68227,3.0046.6799.01434-.0018.1488-1.56049.15877-1.64628.07723-.66456-.11605-1.39992.35705-1.63952.47446-.24028.88717.10408,1.41575.02242.47351,1.15653-.44505,1.93616.63711,2.56122,1.26437.7303,1.94177.24109,2.83717-.91227.76684-.98777-.78733-1.10217-.61661-2.34095.91573-.20234,1.66456-.12066,2.57157-.36447.75781,1.32225.67031,1.20751,1.44223,2.52157.9557-.22747,1.18209-.29093,2.13734-.58123.06884-1.51986-.22386-1.39084-.19281-2.91193.874-.23878,1.1419-.35429,2.00344-.6358.884,1.23606.17134,1.53871.90463,2.86972.481-.19965,1.3471-.63667,1.82791-.83145C296.87293,132.00614,297.14736,131.42325,297.61907,131.18217Z"/><path class="w" d="M247.23207,127.21288a.491.491,0,0,0,.25185.21391,43.33146,43.33146,0,0,0,18.89788,4.5253,82.74,82.74,0,0,0,18.20051-1.51809,58.8617,58.8617,0,0,0,9.03787-2.56552c1.639-.618,5.08182-1.03168,6.23108-2.376-2.77984-5.15627-6.33314-11-12.23043-12.93495a50.792,50.792,0,0,0-18.19256-1.68245c-4.75924.55907-10.88.0541-15.05162,3.006-4.01289,2.83962-5.69989,8.61059-7.11652,12.98074A.56175.56175,0,0,0,247.23207,127.21288Z"/><path class="x" d="M267.09754,125.37294a5.94592,5.94592,0,0,1-1.00837,2.531,4.67352,4.67352,0,0,0,.0045,3.97261,15.00968,15.00968,0,0,0,3.76194-.171,3.27,3.27,0,0,1-2.74874-1.65222.68562.68562,0,0,1-.06362-.38893c.0668-.34133.48816-.46994.83252-.528l3.09624-.52174-2.52762-.14981c-.59539-.03529-1.35358-.21966-1.39629-.8113a.974.974,0,0,1,.81061-.89153,5.67681,5.67681,0,0,1,1.29454-.03079,1.40934,1.40934,0,0,0,1.1669-.47537,5.60864,5.60864,0,0,1-2.03886-.95221,1.045,1.045,0,0,1-.50509-.7297.88853.88853,0,0,1,.60391-.77718,4.24177,4.24177,0,0,1,1.02345-.19,4.40253,4.40253,0,0,0,2.5313-1.30757c-.93628-.73021-2.41.33542-3.52667-.089-.53231-.20233.71421-3.805-1.57078-1.60484C264.99339,122.38093,267.03017,123.5442,267.09754,125.37294Z"/><path class="y" d="M268.41114,120.34979a8.297,8.297,0,0,0,3.15254-1.24622,20.46583,20.46583,0,0,0,5.34416-4.65219c.41837-.51741.76545-1.38482.2103-1.71594a1.17911,1.17911,0,0,0-.48264-.12318l-7.46446-.80974c-2.29276-.24871-6.47742-.02368-6.244,3.29528C263.10377,117.6114,265.79279,120.68544,268.41114,120.34979Z"/><polygon class="b" points="275.945 111.581 267.956 119.008 265.122 111.581 265.122 94.375 275.945 94.375 275.945 111.581"/><polygon class="m" points="265.122 106.382 275.945 100.441 275.945 96.828 265.122 98.089 265.122 106.382"/><path class="b" d="M302.33963,76.55075a12.89549,12.89549,0,0,1,.08252,2.22807,9.3447,9.3447,0,0,1-1.32033,4.45614,14.14076,14.14076,0,0,1-12.63722,5.93977,2.9589,2.9589,0,0,1-.88-.1818h0A45.43442,45.43442,0,0,1,255.755,101.79245c-13.00248,0-33.45825-6.06537-33.45825-22.08164A17.19708,17.19708,0,0,1,230.132,65.25738a.54492.54492,0,0,1,.12878-.07828.20093.20093,0,0,1,.10352-.05176.54789.54789,0,0,1-.12877-.33584,10.28227,10.28227,0,0,1-.80171-1.914,33.91928,33.91928,0,0,1-.98225-6.72171,18.67724,18.67724,0,0,1,13.807-17.37619c1.31029-5.90565,4.155-10.5938,9.3091-13.77646a63.22663,63.22663,0,0,1,10.59991-4.88528c5.14044-1.98275,9.405-2.822,14.88064-2.02819A45.14461,45.14461,0,0,1,290.788,22.37745a39.18445,39.18445,0,0,1,18.47222,18.9209,33.6942,33.6942,0,0,1,2.83642,13.48635C312.09662,63.577,308.15737,70.19013,302.33963,76.55075Z"/><g class="z"><path class="m" d="M302.33963,76.55075c.19017-.22076-.06072-1.11543-.13349-1.36457a3.94353,3.94353,0,0,0-.59417-1.20354c-2.30949-3.18335-9.02154-2.94388-10.81783.75956a3.26823,3.26823,0,0,0,.15554-1.72722l-.12274-1.35386a30.61723,30.61723,0,0,1,5.66951-.63928c3.88834-.33008,8.2236,2.76446,8.2236,2.76446Z"/><path class="aa" d="M304.76529,74.98039a24.27989,24.27989,0,0,0,5.00613-6.37423c6.56962-12.5608,3.82113-30.40118-4.65-41.40364a36.29717,36.29717,0,0,0-25.70922-13.86363,43.082,43.082,0,0,0-14.11378,1.45122,39.2669,39.2669,0,0,0-13.35807,6.106c-2.3257,1.71209-6.022,4.72075-7.13825,7.46192a4.71446,4.71446,0,0,0,.47265,4.56288,6.91907,6.91907,0,0,0,3.41417,2.09074c5.51558,1.86529,11.46832,1.80945,17.22553,2.67862,3.20306.48357,6.301,1.56792,9.48406,2.05762,2.627.40415,5.15662.62033,7.63787,1.79476a13.15643,13.15643,0,0,1,6.343,6.27754,11.06,11.06,0,0,1,.20994,8.84386c-.86383,2.01466-2.35277,3.68661-3.50934,5.5487s-1.99666,4.13137-1.35891,6.22863c.68632,2.25691,2.90457,3.52861,5.11243,3.9083,2.85625.49118,5.66448-.97818,8.481-.20467A5.93686,5.93686,0,0,1,302.52,76.94C303.289,76.31256,304.04188,75.66126,304.76529,74.98039Z"/></g><polygon class="o" points="285.217 156.681 283.739 157.035 283.739 162.677 284.809 162.677 285.217 156.681"/><path class="b" d="M302.0406,73.91511c1.31319,4.0622.59353,9.06366-3.61561,11.11772a13.35564,13.35564,0,0,1-1.95345.7265,2.44589,2.44589,0,0,1-1.26995.14845c-.74386-.17876-1.08731-.92633-1.79616-1.17521a5.14384,5.14384,0,0,1-1.617-.76009,5.07309,5.07309,0,0,1-1.68429-3.07519,10.705,10.705,0,0,1,1.35427-7.38722C293.77874,69.80521,300.58263,69.405,302.0406,73.91511Z"/><path class="aa" d="M243.30159,82.24622a1.59689,1.59689,0,0,0,.646,1.79639,5.33058,5.33058,0,0,0,1.80322.82958,13.0196,13.0196,0,0,0,1.89013.52,16.64819,16.64819,0,0,0,1.92579.14063,18.06826,18.06826,0,0,0,3.97461-.14648,9.34389,9.34389,0,0,0,3.74658-1.47559.69313.69313,0,1,1,.79834,1.1333.70137.70137,0,0,1-.48535.12109,14.22682,14.22682,0,0,0-4.05957.22168c-1.31055.21973-2.61524.55664-3.96778.65479a6.58914,6.58914,0,0,1-2.05078-.12695,8.93045,8.93045,0,0,1-1.85937-.84082,10.7981,10.7981,0,0,1-1.7168-1.03028c-.53858-.41308-1.03418-.77881-1.83154-1.28369l-.11231-.07129a.88077.88077,0,1,1,1.29883-.44238Z"/><path class="m" d="M297.28642,79.40382a2.49349,2.49349,0,0,0,.15143-.53252c.19411-1.19662-1.134-1.82659-2.16159-1.88859a4.038,4.038,0,0,1,2.29232-1.62643,2.62287,2.62287,0,0,1,2.72785.77809c-.49535-1.45506-1.63566-1.79132-3.08675-1.55642A5.96328,5.96328,0,0,0,293.181,77.2594a6.26624,6.26624,0,0,0-.57574,1.06245c-.1091.25916-.16274.87348-.33469,1.06554a3.83486,3.83486,0,0,1,1.25239-1.04826,1.31,1.31,0,0,1,1.51267.25134c.91819,1.12428-.46068,2.82051-1.3809,3.47681.7274-.51878,1.75815-.54334,2.51022-1.17588A3.97813,3.97813,0,0,0,297.28642,79.40382Z"/><path class="aa" d="M241.35237,47.00794a12.65,12.65,0,0,0-5.63916.564c-.91113.29834-1.89111.67676-2.82666,1.01514a15.3079,15.3079,0,0,0-2.63428,1.3999.262.262,0,0,1-.30761-.42236,16.04492,16.04492,0,0,1,2.50439-1.88233,29.05866,29.05866,0,0,1,2.7627-1.44238,14.39316,14.39316,0,0,1,6.3291-1.291l.00537.00048a1.03526,1.03526,0,1,1-.19385,2.0586Z"/><path class="aa" d="M264.84212,47.24427a12.43028,12.43028,0,0,1,4.86132,1.081,20.50085,20.50085,0,0,1,4.09278,2.40186,32.89064,32.89064,0,0,1,6.481,6.54589.32675.32675,0,0,1-.064.4585.3332.3332,0,0,1-.439-.04053,31.75894,31.75894,0,0,0-6.87647-5.61572c-2.499-1.47217-5.33154-2.52295-7.93066-2.248a1.295,1.295,0,0,1-.27246-2.57568,1.31521,1.31521,0,0,1,.13769-.00732Z"/><ellipse class="ab" cx="270.5334" cy="81.11255" rx="8.53829" ry="3.457"/><ellipse class="ab" cx="230.09782" cy="74.50967" rx="5.89298" ry="3.457"/><path class="m" d="M247.75169,54.76345a7.20021,7.20021,0,0,0-6.02722-2.67223,9.6948,9.6948,0,0,0-6.11713,2.76624,7.62311,7.62311,0,0,0-1.733,2.32452,6.7228,6.7228,0,0,0,1.04923,6.77676,10.32648,10.32648,0,0,0,12.83471,2.22076C251.417,63.96642,249.89379,57.5984,247.75169,54.76345Z"/><path class="c" d="M249.60443,64.68157c.45909-6.02407-3.44334-12.34454-8.82018-12.75431s-10.192,5.24634-10.6511,11.27041a9.7641,9.7641,0,1,0,19.47128,1.4839Z"/><ellipse class="aa" cx="239.86347" cy="63.06112" rx="8.65714" ry="4.84265" transform="translate(135.69351 288.13846) rotate(-79.8944)"/><ellipse class="c" cx="243.98873" cy="59.22028" rx="1.91567" ry="0.71951"/><ellipse class="e" cx="239.99116" cy="63.63242" rx="3.6558" ry="1.7527" transform="translate(135.23635 288.73522) rotate(-79.8944)"/><path class="m" d="M274.01593,61.33469a11.71758,11.71758,0,0,0-8.52238-6.37285,7.64141,7.64141,0,0,0-5.0529.72568c-2.97274,1.72736-3.719,5.9965-2.28078,9.11939s4.51731,5.19988,7.72016,6.44992c2.3319.91011,7.21256,2.38446,8.425-.60275A11.70716,11.70716,0,0,0,274.01593,61.33469Z"/><path class="c" d="M274.24306,68.37667c.27169-6.54267-4.74829-13.59937-11.291-13.87106S250.82167,60.85011,250.55,67.39278s4.87557,10.53422,11.41824,10.80591S273.97137,74.91933,274.24306,68.37667Z"/><ellipse class="aa" cx="263.43002" cy="66.35536" rx="9.49773" ry="5.31286" transform="translate(151.88187 314.05563) rotate(-79.8944)"/><ellipse class="c" cx="267.95584" cy="62.14159" rx="2.10168" ry="0.78938"/><ellipse class="e" cx="263.35661" cy="66.76728" rx="3.48056" ry="1.7527" transform="translate(151.41581 314.32299) rotate(-79.8944)"/><circle class="ab" cx="246.16544" cy="73.7752" r="3.457"/><polygon class="a" points="267.956 119.008 275.806 111.562 275.945 107.372 285.068 114.19 278.867 113.533 267.956 119.008"/><polygon class="a" points="267.956 119.008 265.134 111.562 265.248 108.112 257.947 113.163 261.72 113.533 267.956 119.008"/><path class="x" d="M283.64223,120.43776a11.33637,11.33637,0,0,1,3.02757-2.81925,5.37162,5.37162,0,0,1-1.83836,3.39161,22.51264,22.51264,0,0,1-5.8034,4.47576c-2.20509,1.12348-4.10194,2.303-6.61,2.70878a21.794,21.794,0,0,0,6.32728-3.145A41.342,41.342,0,0,0,283.64223,120.43776Z"/><path class="x" d="M275.916,128.491a31.49015,31.49015,0,0,0,14.18772-5.13865c.19766-.13222.41028-.413.23228-.55924a.36449.36449,0,0,0-.25421-.0509,10.5187,10.5187,0,0,0-4.05381,1.4787,49.24518,49.24518,0,0,1-12.55153,4.40833,24.179,24.179,0,0,0,5.77493-.50518"/><path class="x" d="M259.969,125.45317c.85315,1.69121,4.056,4.4764,6.12339,3.19921C264.51939,127.47739,260.99133,127.47981,259.969,125.45317Z"/><path class="y" d="M254.12818,123.081a11.19339,11.19339,0,0,1-2.20879,3.52471.54628.54628,0,0,0-.16485.26428c-.055.34441.52221.41186.6528.7293.18082.43954-.41746.62515-.70782.733-.17482.06494-.3334.12886-.513.18338a5.15276,5.15276,0,0,1-.55963.2192l2.08231.78985a2.17992,2.17992,0,0,1,.45359.21315c.051-1.132.44015-2.20148.59748-3.32122C253.91612,125.30744,253.979,124.19078,254.12818,123.081Z"/><path class="y" d="M288.31537,125.34385a3.21936,3.21936,0,0,0,1.47364,2.39553,3.6088,3.6088,0,0,0-.40691.39743c.34518.214.58985.53648.94713.73987-.12136.148-1.32256.87087-1.35528.71952A28.12206,28.12206,0,0,1,288.31537,125.34385Z"/><line class="ac" x1="301.2185" y1="153.55766" x2="291.33329" y2="159.37566"/><line class="ad" x1="292.18413" y1="159.02802" x2="285.40323" y2="162.94264"/><path class="t" d="M268.30144,177.18014a16.76365,16.76365,0,0,1-6.67736-2.12516l6.44622,4.73644Z"/><polygon class="o" points="256.442 157.439 254.998 156.947 254.998 162.943 256.068 162.943 256.442 157.439"/><polygon class="o" points="274.232 157.891 272.754 158.245 272.754 163.887 273.824 163.887 274.232 157.891"/><rect class="e" x="263.31207" y="158.24891" width="1.91796" height="5.70703"/><rect class="ae" x="264.92063" y="159.09071" width="1.27345" height="3.78923"/><path class="m" d="M285.962,158.14466a31.56206,31.56206,0,0,0,1.07493,3.361,39.13288,39.13288,0,0,0,2.46548,3.61426l1.95807-1.164-5.14558-6.06456Z"/><path class="a" d="M292.12309,153.16867l-6.409,2.8783a10.76024,10.76024,0,0,0,1.89419,5.09285,37.06691,37.06691,0,0,0,3.85252,4.10713l3.65412-2.4021,4.52574-5.21521Z"/><polygon class="t" points="294.684 151.359 297.565 150.242 294.437 150.242 294.684 151.359"/><path class="af" d="M276.143,28.3421c-.02419.20858,1.82012,1.256,1.99129,1.37176a31.25088,31.25088,0,0,1,3.664,2.9166c2.43416,2.21828,6.17811-.28366,8.71369,1.79559a11.89756,11.89756,0,0,1,1.903,2.71891c.82206,1.19721,2.14417,1.76192,3.08119,2.8004a11.88169,11.88169,0,0,1,2.39508,4.3906,8.49443,8.49443,0,0,0,.69538-3.72042c.01423.34814,1.05059,1.38444,1.27384,1.72853a9.15167,9.15167,0,0,1,.96011,1.957,16.75514,16.75514,0,0,1,.96662,4.98461,7.02049,7.02049,0,0,1-.95341,4.27927,9.02287,9.02287,0,0,0,4.27749-11.88168,15.39359,15.39359,0,0,1,3.32245,4.32988,3.45951,3.45951,0,0,0-.69-3.35883c1.285.743,1.876,2.25332,2.37614,3.65085-.24536-.68559-.03675-1.7291-.23437-2.48969a7.91832,7.91832,0,0,0-1.0939-2.43234,47.67872,47.67872,0,0,1-2.946-5.11564l-2.96705-5.8174L276.623,24.20346Z"/><path class="ae" d="M314.91833,43.18259q-.6336-.33616-1.25418-.69615a37.9563,37.9563,0,0,1-3.3618-2.19555c-.84753-.61987-1.76472-1.20887-2.631-1.75476a4.17367,4.17367,0,0,1,3.57013-.06949C313.342,39.3414,313.53065,42.44634,314.91833,43.18259Z"/><path class="ae" d="M310.755,45.93247q-.35064-.6257-.67745-1.26438a37.9582,37.9582,0,0,1-1.63745-3.66618c-.37688-.98006-.829-1.97187-1.26172-2.89988a4.17363,4.17363,0,0,1,3.03907,1.87475C311.50977,41.84961,309.98705,44.56209,310.755,45.93247Z"/><path class="a" d="M251.43492,19.72945s2.9456-10.49369,12.887-14.728l32.4016,14.728s12.1506,11.2301,12.5188,19.6987c0,0-19.6987.3682-28.9037-11.4142C280.33861,28.014,261.74451,30.95955,251.43492,19.72945Z"/><path class="u" d="M268.28006,21.6625c.13808-.41422-2.07112-11.87444-2.07112-11.87444s7.73993,12.6154,14.12967,18.22589L269.331,18.07255Z"/><path class="u" d="M256.93337,14.5052l5.96177-6.236c-1.51883.41423-10.14852,8.20837-10.14852,8.20837l6.49515-5.03264Z"/><path class="aa" d="M247.96878,42.00281c-3.95524.45823-8.164-.09463-11.45754-2.33217s-5.4419-6.37919-4.6011-10.2711c.93384-4.32252,5.022-7.16756,8.98775-9.12445.06981,2.13444,2.42,3.51045,4.55068,3.65546s4.25412-.49944,6.38615-.37645a11.27351,11.27351,0,0,1,5.93459,2.30768c3.89818,2.868,5.51342,7.681,2.2659,11.74617C257.56394,40.70142,251.63171,41.57844,247.96878,42.00281Z"/><path class="aa" d="M269.22876,30.24266c2.28894,1.04732,4.54192,1.84243,6.522,3.47487a3.78872,3.78872,0,0,1,1.64008,2.549,2.80357,2.80357,0,0,1-1.2503,2.28076,7.29751,7.29751,0,0,1-2.48983,1.02737,25.77144,25.77144,0,0,1-11.87356.6081,15.70417,15.70417,0,0,1-4.1944-1.525A20.40092,20.40092,0,0,1,253.091,34.7627a23.50163,23.50163,0,0,0-3.79869-2.76922,7.1761,7.1761,0,0,1-2.69243-6.20667,9.45693,9.45693,0,0,1,.89906-3.89566c1.41848-2.88956,5.12175-5.935,8.4927-5.83142a6.98542,6.98542,0,0,0,.964,4.57713,24.33667,24.33667,0,0,1,1.28706,3.399,11.02873,11.02873,0,0,0,2.32181,3.69589C262.78144,29.80316,266.50281,28.99538,269.22876,30.24266Z"/><path class="aa" d="M273.02853,39.37681a12.03958,12.03958,0,0,1-3.45085-1.32774,8.91666,8.91666,0,0,1-2.97644-3.63532,12.63111,12.63111,0,0,1-1.31792-7.78444,8.39859,8.39859,0,0,1,4.60674-6.1931c-.78618,2.07712.51013,4.48445,2.3911,5.66531a47.69127,47.69127,0,0,0,7.9929,4.03953c1.22748.46508,2.506.79586,3.70514,1.32977,2.95782,1.317,5.98255,6.63707,1.64459,8.49767-1.32831.56973-3.66694.45764-5.07864.49053A26.56228,26.56228,0,0,1,273.02853,39.37681Z"/><path class="aa" d="M256.98984,29.7138a5.88663,5.88663,0,0,1-.79245-4.52523,9.95816,9.95816,0,0,1,5.282-7.30313c-.86123,1.18324-.317,2.87674.52863,4.07117a9.72686,9.72686,0,0,0,2.45679,2.41259c.61359.4179,1.27613.76612,1.85259,1.23391,1.38342,1.12262,2.14805,3.25766,1.13525,4.72339a4.27164,4.27164,0,0,1-2.18008,1.45044C262.517,32.74252,258.87925,32.21882,256.98984,29.7138Z"/><path class="ag" d="M240.89789,20.27509s-1.74373,6.81671,3.20754,7.73886,8.94425-3.86943,8.94425-3.86943-8.76377,2.15846-10.92476-.81985S240.89789,20.27509,240.89789,20.27509Z"/><path class="ag" d="M255.57585,16.4776s-2.14554,2.556-.90773,4.94909,2.14391,1.59953,2.14391,1.59953A10.43909,10.43909,0,0,1,255.57585,16.4776Z"/><path class="ag" d="M260.21674,22.21544s-.187,8.34473,3.95393,8.84646,5.42316-.86682,5.42316-.86682S261.84022,27.6215,260.21674,22.21544Z"/><path class="af" d="M252.74609,22.65942a3.146,3.146,0,0,1-1.55163.45947c-.90273.09277-3.401.81954-3.45863-.48728a3.1077,3.1077,0,0,1,.66509-1.48795c.09537-.14646.81267-.86171.80306-.98762A2.98941,2.98941,0,0,0,252.74609,22.65942Z"/><path class="af" d="M271.485,28.68012c-1.04824-.77885-5.12347-3.80731-3.74259-5.59593L266.7416,24.3805a.85651.85651,0,0,0-.2105.40953.78244.78244,0,0,0,.12994.44789C267.649,27.03157,269.90962,27.51019,271.485,28.68012Z"/><path class="af" d="M298.51664,68.6728a9.53069,9.53069,0,0,0,4.52561-1.31724c-.09964.05483-.50539,1.66624-.93957,2.00835a2.93893,2.93893,0,0,1-2.30979.49964,46.92016,46.92016,0,0,0-6.922.39276,10.39556,10.39556,0,0,0,7.3005-6.57416C300.1555,64.46175,299.822,68.66553,298.51664,68.6728Z"/><path class="ag" d="M295.46507,66.10744a24.95551,24.95551,0,0,0,1.24363-5.01172,8.032,8.032,0,0,1-.46035,5.3193c-.5388,1.17973-2.01679,3.44158-3.39892,3.464A13.30726,13.30726,0,0,0,295.46507,66.10744Z"/><line class="ah" x1="332.19532" y1="180.39907" x2="235.66306" y2="120.01396"/><path class="ai" d="M254.63948,157.89149a23.28015,23.28015,0,0,1-4.75461-2.54208,23.63424,23.63424,0,0,1-4.1521-3.65423,19.34151,19.34151,0,0,1-3.10943-4.71492c-.10882-.22351-.18-.408-.26923-.613l-.25879-.6001c-.17612-.39933-.32347-.81481-.48368-1.21967-.309-.81806-.58823-1.64876-.84707-2.48219-.51787-1.66683-.89131-3.34592-1.24513-4.95688-.35848-1.61372-.68125-3.16489-1.09923-4.68833a41.70877,41.70877,0,0,0-1.47359-4.46257,30.65061,30.65061,0,0,0-2.01192-4.19309c-.1913-.34037-.40318-.66264-.60444-.99679-.21693-.31906-.42464-.648-.64884-.96537-.437-.64328-.91471-1.25616-1.40536-1.85831a25.48708,25.48708,0,0,0-3.3066-3.29639,23.05841,23.05841,0,0,0-1.88545-1.39391c-.32633-.21355-.65483-.419-.99172-.61111-.17088-.09445-.33958-.18753-.50889-.27477-.1633-.08667-.35245-.17691-.4838-.2404l-.07029-.03153a.88858.88858,0,0,1,.61573-1.66034c.2595.07217.45144.13319.66936.20727.20973.07215.41311.14958.61724.23067q.60705.2445,1.19539.524a21.96138,21.96138,0,0,1,2.26886,1.27309,25.14708,25.14708,0,0,1,2.11549,1.51292c.04268.03611.0868.06993.12966.106l.003.00509c.62833.51114,1.2321,1.0567,1.81883,1.61954a30.71062,30.71062,0,0,1,6.02363,8.47457,45.96257,45.96257,0,0,1,1.95023,4.78866c.5648,1.62166,1.03651,3.2628,1.46789,4.84441.43711,1.58216.87236,3.09788,1.3913,4.55409.26315.7273.54147,1.44541.84429,2.154.15942.35154.30636.70773.47305,1.0576l.24849.52216c.08317.17012.16639.36516.24726.5091a16.41824,16.41824,0,0,0,5.73711,6.18456,40.54253,40.54253,0,0,0,3.87524,2.22817c1.35077.68331,2.74806,1.33667,4.19916,1.89938.3734.14341.70334.27209,1.06363.39182.3553.12283.7279.23767,1.10751.34156.76153.20891,1.56177.42049,2.38962.62748l.006.00058c.82809.21656,1.68227.44624,2.54713.73846.42986.14778.86168.3121,1.29179.49418.20984.09695.4408.19483.62937.29109.1899.09389.38407.1812.57447.26919.40786.1929.82954.36348,1.25337.526,1.1725.44126,2.39032.80522,3.52748,1.33305a25.15519,25.15519,0,0,1,4.27208,2.67237c.96091.7846,1.81172,1.7054,2.7096,2.55607.13686.12918.27286.25463.41241.37926.21031.1906.42259.37318.64129.55036l.01424.01195c.16035.13142.3183.26134.48144.38829.16677.126.358.29225.537.43852.26118.22865.51809.46389.76487.70539.08274.07665.16482.159.24466.24.639.64848,1.22139,1.31745,1.77852,1.96741.54917.65759,1.08953,1.28461,1.61056,1.878.26168.29727.52806.58214.794.8479.26528.27159.52305.51056.81766.785,1.14075,1.05861,2.33969,2.02929,3.54509,2.945a40.51312,40.51312,0,0,0,3.69674,2.50843c.15477.09059.31173.18255.476.27284q.17178.09811.34771.18957c.04835.02706.10035.05336.15453.081.15446.08114.31036.16.4654.23512a16.26845,16.26845,0,0,0,5.32953,1.59314c.43353.0473.86643.07569,1.30032.08284.16493.00982.37661-.00075.56378-.00176l.58044-.00363c.38753-.00318.76993-.02824,1.15579-.03868.77191-.03626,1.5393-.10024,2.30843-.18179.48836-.05517.9787-.11835,1.47452-.19055l.00509-.003c1.053-.15263,2.12374-.34392,3.22431-.54768,1.36635-.26124,2.78737-.51014,4.22895-.70262.25561-.03592.512-.06828.76714-.09829a45.63549,45.63549,0,0,1,5.16158-.33992c.93833.00562,1.88286.04622,2.81986.12872a31.03957,31.03957,0,0,1,3.54935.49807,27.136,27.136,0,0,1,3.88661,1.08214c.81675.29947,1.62119.62858,2.40772.99627a25.24319,25.24319,0,0,1,2.28826,1.24183c.34764.21443.69577.43827,1.03086.67277.04473.028.08574.05682.129.08692q.49813.34438.97527.72209.50971.40742.99639.847c.16234.14815.32095.29715.47758.45418.15966.16211.30069.30938.47693.50978a.88846.88846,0,0,1-1.22363,1.28008l-.0591-.04941c-.11226-.0889-.27616-.21951-.42565-.3285-.15241-.114-.31221-.22642-.46972-.33739-.32-.21884-.65078-.42576-.98557-.62578-.25-.14711-.50509-.29106-.76208-.42693-.42862-.234-.86947-.45372-1.31406-.65731a25.48849,25.48849,0,0,0-4.41081-1.53118c-.75831-.17912-1.51842-.34055-2.28576-.45065-.38348-.06274-.77014-.10562-1.152-.16116-.04687-.00443-.09167-.00755-.1371-.01427-.344-.03168-.6809-.07454-1.02357-.09309a30.652,30.652,0,0,0-4.65083.02525,42.17037,42.17037,0,0,0-4.65971.62594c-1.55048.29208-3.08882.679-4.69444,1.06412-1.6057.3852-3.27895.784-5.00207,1.049-.86279.1318-1.73194.24415-2.60273.32419-.43634.0317-.87223.08234-1.30826.09874l-.65284.02984c-.22353.00938-.42272.02473-.66912.026a19.34145,19.34145,0,0,1-5.60012-.73327,23.68032,23.68032,0,0,1-5.1025-2.13492,23.25924,23.25924,0,0,1-4.36591-3.16321,29.37086,29.37086,0,0,1-3.53051-3.9275c-.25625-.34062-.53854-.71924-.78842-1.09018-.25712-.36909-.48806-.74048-.72231-1.10149-.46477-.72288-.87465-1.43935-1.31134-2.09791a17.74155,17.74155,0,0,0-1.35442-1.84511c-.12034-.14055-.244-.27089-.36361-.40778l-.38309-.3764c-.13655-.11972-.25248-.23262-.4047-.362q-.23037-.19079-.465-.37481c-.19821-.1551-.40212-.30133-.613-.43625-1.13-.738-2.41745-1.25418-3.60779-1.88069-.70412-.37519-1.38418-.77889-2.0525-1.20621l-.00229-.00144-.00447-.00279-.00219-.00137-.00229-.00143c-.67675-.41408-1.33948-.85035-1.98261-1.31793-1.02-.7499-1.99284-1.6197-3.06488-2.29654a9.56741,9.56741,0,0,0-.86524-.48523q-.26815-.13039-.54047-.25415c-.18511-.08164-.33516-.13513-.50245-.20547l-.50618-.17987c-.1753-.04758-.34662-.10177-.52565-.1485a17.40181,17.40181,0,0,0-2.25183-.41075c-.78542-.10592-1.609-.161-2.46237-.26271-.42493-.05133-.85992-.09652-1.30649-.16761-.44059-.061-.90684-.1506-1.32306-.23065A29.366,29.366,0,0,1,254.63948,157.89149Z"/><path class="aj" d="M275.05812,165.31427l-.00229-.00144-.00447-.00279-.00219-.00137-.00229-.00143c-.67675-.41408-1.33948-.85035-1.98261-1.31793-1.02-.7499-1.99284-1.6197-3.06488-2.29654a1.30036,1.30036,0,0,1,.00122-.16089,2.28931,2.28931,0,0,1,.36158-1.14462,7.752,7.752,0,0,1,1.42128-1.57614c.07538.02849.153.0584.2298.08471,1.09917.40464,2.2355.755,3.29768,1.24834a25.15519,25.15519,0,0,1,4.27208,2.67237c1.00813.8234,1.8933,1.79362,2.84031,2.67518.09325.08945.18576.17524.2817.26015a3.46269,3.46269,0,0,0-1.98663,2.6493c-1.13-.738-2.41745-1.25418-3.60779-1.88069C276.4065,166.14529,275.72644,165.74159,275.05812,165.31427Z"/><path class="ak" d="M282.705,165.75187a3.78584,3.78584,0,0,0-1.98663,2.6493"/><path class="al" d="M271.901,158.99346a3.78584,3.78584,0,0,0-1.98663,2.6493Z"/><path class="am" d="M330.98684,183.302a6.14907,6.14907,0,0,1,.16115-2.3301,4.58086,4.58086,0,0,1,.39577-.9804,27.136,27.136,0,0,1,3.88661,1.08214c.81675.29947,1.62119.62858,2.40772.99627a25.24319,25.24319,0,0,1,2.28826,1.24183c.20025.12223.40214.25155.60041.3818.14606.09456.28711.192.43045.291.04473.028.08574.05682.129.08692a3.18685,3.18685,0,0,0-.40293.351,1.97892,1.97892,0,0,0-.59665,1.69414c-.42862-.234-.86947-.45372-1.31406-.65731a25.48849,25.48849,0,0,0-4.41081-1.53118c-.75831-.17912-1.51842-.34055-2.28576-.45065-.38348-.06274-.77014-.10562-1.152-.16116C331.07707,183.31183,331.03227,183.30871,330.98684,183.302Z"/><path class="an" d="M340.5608,184.833s-7.141-3.36514-9.58755-2.918l-.02025.96341s5.84854.43466,9.32071,2.80659Z"/><path class="ao" d="M279.69616,164.958c-.21835.27938-.32584.65511-.51625.95261a.29308.29308,0,0,1-.12783.12639.31038.31038,0,0,1-.1657.0011c-.3515-.062-.7587-.16661-.89515-.49642-.14652-.35414.113-.73917.379-1.0151a7.06252,7.06252,0,0,1,.80755-.71852.73409.73409,0,0,1,1.11025.1016.44075.44075,0,0,1,.15473.463c-.119.25809-.52728.327-.71237.54346Q279.71283,164.93661,279.69616,164.958Z"/><path class="ao" d="M278.00624,163.66273c-.21835.27938-.32584.65512-.51625.95261a.29308.29308,0,0,1-.12783.12639.31047.31047,0,0,1-.1657.00111c-.3515-.062-.7587-.16662-.89515-.49643-.14652-.35414.113-.73917.379-1.0151a7.06252,7.06252,0,0,1,.80755-.71852.73408.73408,0,0,1,1.11025.10161.44072.44072,0,0,1,.15472.463c-.11894.25809-.52727.327-.71236.54346Q278.0229,163.64138,278.00624,163.66273Z"/><path class="ao" d="M275.81355,162.17205c-.21835.27938-.32584.65512-.51626.95262a.29306.29306,0,0,1-.12783.12638.31047.31047,0,0,1-.1657.00111c-.35149-.062-.75869-.16661-.89515-.49643-.14651-.35414.113-.73917.379-1.0151a7.06263,7.06263,0,0,1,.80755-.71852.73409.73409,0,0,1,1.11025.10161.44072.44072,0,0,1,.15472.463c-.11894.25809-.52728.327-.71236.54346Q275.8302,162.1507,275.81355,162.17205Z"/><path class="ao" d="M273.6851,161.08005c-.2008.25693-.29965.60248-.47477.87608a.26949.26949,0,0,1-.11756.11623.28554.28554,0,0,1-.15239.001c-.32326-.057-.69774-.15323-.82323-.45654-.13474-.32569.10395-.67979.34855-.93355a6.49647,6.49647,0,0,1,.74267-.66079.67512.67512,0,0,1,1.02106.09345.40531.40531,0,0,1,.14229.42577c-.10939.23736-.48492.30075-.65513.4998Z"/><path class="al" d="M280.80879,167.195s-7.8056-3.594-10.27682-6.54765c0,0-.28415-.24692-.2959.473s7.67592,5.558,10.56369,6.60805Z"/><path class="ap" d="M297.3219,181.16242a40.18913,40.18913,0,0,1-8.28425-6.923,46.66126,46.66126,0,0,1-3.464-4.23731c-.8767-1.20749-1.32507-2.52316-2.213-3.6879-.08685-.1196-.1801-.23379-.277-.34724.70207.6318,1.39184,1.21871,2.06033,1.87944.08274.07665.16482.159.24466.24.639.64848,1.22139,1.31745,1.77852,1.96741.54917.65759,1.08953,1.28461,1.61056,1.878.26168.29727.52806.58214.794.8479.26528.27159.52305.51056.81766.785,1.14075,1.05861,2.33969,2.02929,3.54509,2.945a40.51312,40.51312,0,0,0,3.69674,2.50843c.15477.09059.31173.18255.476.27284q.16851.09606.34771.18957c.04835.02706.10035.05336.15453.081.15217.07971.30578.15713.4654.23512a14.68243,14.68243,0,0,0,5.32953,1.59314c.43353.0473.86643.07569,1.30032.08284.16493.00982.37661-.00075.56378-.00176l.58044-.00363c.38753-.00318.76993-.02824,1.15579-.03868.77191-.03626,1.5393-.10024,2.30843-.18179.48836-.05517.9787-.11835,1.47452-.19055l.00509-.003c1.053-.15263,2.12374-.34392,3.22431-.54768,1.36635-.26124,2.78737-.51014,4.22895-.70262-2.90122.74675-5.85738,1.313-8.69129,2.285-3.80343,1.30456-8.0171,1.62512-11.74369-.11541A14.36548,14.36548,0,0,1,297.3219,181.16242Z"/><path class="ap" d="M246.589,149.42682c-5.82447-7.36153-1.94225-14.61643-8.0099-23.92984-2.65348-4.0721-4.45447-6.99239-5.93506-9.2024.62833.51114,1.2321,1.0567,1.81883,1.61954a30.71062,30.71062,0,0,1,6.02363,8.47457,45.96257,45.96257,0,0,1,1.95023,4.78866c.5648,1.62166,1.03651,3.2628,1.46789,4.84441.43711,1.58216.87236,3.09788,1.3913,4.55409.26315.7273.54147,1.44541.84429,2.154.15942.35154.30636.70773.47305,1.0576l.24849.52216c.08317.17012.16639.36516.24726.5091a16.41824,16.41824,0,0,0,5.73711,6.18456,40.54253,40.54253,0,0,0,3.87524,2.22817c1.35077.68331,2.74806,1.33667,4.19916,1.89938.3734.14341.70334.27209,1.06363.39182.3553.12283.7279.23767,1.10751.34156.76153.20891,1.56177.42049,2.38962.62748C265.15405,156.4982,252.33716,156.69688,246.589,149.42682Z"/><path class="aq" d="M270.53146,160.64857l1.15873-1.37046.32308-.38228c1.09917.40464,2.2355.755,3.29768,1.24834a25.15519,25.15519,0,0,1,4.27208,2.67237c1.00813.8234,1.8933,1.79362,2.84031,2.67518l.04048.10926s-5.41526-3.88938-7.78173-4.59877c-2.09728-.628-3.48672-.1777-4.04077-.32544C270.56825,160.65915,270.53146,160.64857,270.53146,160.64857Z"/><path class="ar" d="M340.66036,184.05916a2.29129,2.29129,0,0,0-.82805,1.70436"/><path class="ar" d="M340.25087,183.803a2.29129,2.29129,0,0,0-.828,1.70436"/><path class="ar" d="M339.84139,183.54685a2.29132,2.29132,0,0,0-.828,1.70437"/><path class="ar" d="M339.4319,183.2907a2.29133,2.29133,0,0,0-.828,1.70437"/><path class="ar" d="M338.88834,182.95068a2.64141,2.64141,0,0,0-.85616,1.90583"/><path class="ar" d="M338.26027,182.68736a3.08447,3.08447,0,0,0-.83257,1.91647"/><path class="ar" d="M337.61407,182.347a2.873,2.873,0,0,0-.94038,1.992"/><path class="ar" d="M336.84521,182.02978a3.06985,3.06985,0,0,0-.91235,2.04484"/><path class="ar" d="M336.20871,181.8102a3.27291,3.27291,0,0,0-.88478,2.189"/><path class="ar" d="M335.69105,181.48638a3.54025,3.54025,0,0,0-.91385,2.272"/><path class="ar" d="M335.11565,181.39735a3.41927,3.41927,0,0,0-.8089,2.21061"/><path class="ar" d="M334.58219,181.27771a3.13423,3.13423,0,0,0-.78933,2.21079"/><path class="ar" d="M334.16757,181.01835s-1.09955,1.45884-.85886,2.47589"/><path class="ar" d="M333.55436,180.72522s-1.17276,1.61033-.96054,2.6337"/><path class="ar" d="M332.72776,180.76191s-1.0086,1.438-.72517,2.444"/><path class="ar" d="M332.18193,180.42048s-1.01824,1.76438-.66715,2.74879"/><path class="as" d="M341.02373,184.28646a2.18866,2.18866,0,0,0-.73711,1.8301"/><path class="as" d="M331.40017,180.221a8.29526,8.29526,0,0,0-.5374,3.00335"/><path class="at" d="M331.148,180.97189a4.58086,4.58086,0,0,1,.39577-.9804,27.136,27.136,0,0,1,3.88661,1.08214c.81675.29947,1.62119.62858,2.40772.99627a25.24319,25.24319,0,0,1,2.28826,1.24183c.20025.12223.40214.25155.60041.3818.14606.09456.4161.279.55944.37789l-.40293.351S338.26171,181.50188,331.148,180.97189Z"/><path class="am" d="M234.33777,122.84382a6.14907,6.14907,0,0,0,2.02477-1.16432,4.58183,4.58183,0,0,0,.70845-.78482,27.136,27.136,0,0,0-2.67348-3.02147c-.62662-.60342-1.2745-1.1828-1.94924-1.7292a25.24675,25.24675,0,0,0-2.11779-1.51435c-.19752-.12659-.40213-.25155-.606-.37286-.14893-.09-.29831-.17415-.45-.25977-.04473-.028-.0886-.05223-.13459-.078a3.18684,3.18684,0,0,1-.13935.51588,1.97889,1.97889,0,0,1-1.26237,1.27771c.39791.28306.7884.58333,1.166.89405a25.489,25.489,0,0,1,3.3066,3.29639c.49283.60352.97054,1.2164,1.40525,1.85824.2242.31739.43191.64632.649.96544C234.28945,122.767,234.31186,122.8059,234.33777,122.84382Z"/><path class="an" d="M228.77244,114.90455s6.15019,4.94906,6.81846,7.3447l-.85746.4397s-2.94959-5.069-6.60155-7.15347Z"/><path class="ar" d="M229.42475,114.47647a2.29131,2.29131,0,0,1-1.17033,1.49026"/><path class="ar" d="M229.83424,114.73262a2.29131,2.29131,0,0,1-1.17033,1.49026"/><path class="ar" d="M230.24372,114.98877a2.29131,2.29131,0,0,1-1.17033,1.49026"/><path class="ar" d="M230.65321,115.24492a2.29129,2.29129,0,0,1-1.17033,1.49026"/><path class="ar" d="M231.19677,115.585a2.64145,2.64145,0,0,1-1.33918,1.60368"/><path class="ar" d="M231.70834,116.03452a3.08454,3.08454,0,0,1-1.35908,1.58711"/><path class="ar" d="M232.29708,116.4667a2.873,2.873,0,0,1-1.37985,1.71712"/><path class="ar" d="M232.91874,117.01927a3.0699,3.0699,0,0,1-1.43962,1.715"/><path class="ar" d="M233.39465,117.49556s-.58045,1.4523-1.58131,1.7533"/><path class="ar" d="M233.91231,117.81938s-.64233,1.51475-1.64319,1.81574"/><path class="ar" d="M234.24411,118.29784s-.63307,1.39352-1.63393,1.69451"/><path class="ar" d="M234.58507,118.72519s-.62466,1.44029-1.64264,1.677"/><path class="ar" d="M234.9997,118.98456s-.83077,1.627-1.85062,1.8555"/><path class="ar" d="M235.53156,119.40772s-.935,1.75908-1.948,2.016"/><path class="ar" d="M235.86021,120.16707s-.85183,1.53608-1.88042,1.72133"/><path class="ar" d="M236.406,120.50851s-1.14108,1.68754-2.17988,1.80251"/><path class="as" d="M229.06138,114.24917a2.18867,2.18867,0,0,1-1.32318,1.46349"/><path class="as" d="M236.9274,121.12422a8.29532,8.29532,0,0,1-2.46555,1.79721"/><path class="at" d="M236.36254,121.6795a4.58183,4.58183,0,0,0,.70845-.78482,27.136,27.136,0,0,0-2.67348-3.02147c-.62662-.60342-1.2745-1.1828-1.94924-1.7292a25.24675,25.24675,0,0,0-2.11779-1.51435c-.19752-.12659-.40213-.25155-.606-.37286-.14893-.09-.43289-.25212-.58456-.33773l-.13935.51588S232.77371,115.51457,236.36254,121.6795Z"/><path class="ag" d="M304.8647,64.26633a25.63038,25.63038,0,0,1,1.79229-2.6626,4.23774,4.23774,0,0,1-1.577,3.78933,6.93913,6.93913,0,0,1-3.48631,1.76318A10.17911,10.17911,0,0,0,304.8647,64.26633Z"/><path class="c" d="M245.57015,71.49378a.95174.95174,0,0,0-1.6314.88654c.1224.22525.45413-.0348.90463-.27961S245.69256,71.719,245.57015,71.49378Z"/><path class="b" d="M287.02844,165.91512c.15351-1.332-1.80821-2.72793-2.37832-4.26936-.539-1.45739-.15771-2.37166-2.21273-2.30134-3.2819.1123-6.09279.48295-7.27493,3.56737a5.95029,5.95029,0,0,0,3.77537,7.68546,6.73915,6.73915,0,0,0,6.29968-1.39642A6.82439,6.82439,0,0,0,287.02844,165.91512Z"/></svg>