<svg xmlns="http://www.w3.org/2000/svg" viewBox="0 0 35.18044 35.62942"><defs><style>.a{fill:#f6f6f6;}.b{fill:#29235c;}.c{fill:#e30613;}.d{fill:#ffc931;}.e{fill:#3c3c3b;opacity:0.46;}.f,.g,.h{fill:none;}.f{stroke:#706f6f;stroke-width:2.78504px;}.f,.g{stroke-linecap:round;stroke-linejoin:round;}.g{stroke:#878787;stroke-width:1.31189px;}.h{stroke:#575756;stroke-miterlimit:10;stroke-width:0.55126px;}.i{fill:#bf614b;}.j{fill:#dc7751;}.k{fill:#874a31;}</style></defs><circle class="a" cx="16.42322" cy="19.2062" r="16.42322"/><circle class="b" cx="16.42322" cy="19.2062" r="13.13858"/><circle class="c" cx="16.42322" cy="19.2062" r="9.85393"/><circle class="d" cx="16.42322" cy="19.2062" r="6.56929"/><ellipse class="e" cx="17.1549" cy="20.18463" rx="2.02718" ry="3.30567" transform="translate(-7.33568 10.08901) rotate(-27.23615)"/><line class="f" x1="30.92731" y1="4.37027" x2="16.70504" y2="18.59254"/><line class="g" x1="30.69219" y1="4.13515" x2="16.46992" y2="18.35742"/><path class="h" d="M31.51167,5.75271l-.11345-.11344A9.8598,9.8598,0,0,1,29.6653,3.90634l-.12682-.12682"/><path class="h" d="M30.75635,6.508l-.11344-.11345A9.85955,9.85955,0,0,1,28.91,4.66166l-.12683-.12682"/><path class="h" d="M30.001,7.26335l-.11345-.11345A9.85955,9.85955,0,0,1,28.15467,5.417l-.12683-.12682"/><path class="h" d="M29.24572,8.01867l-.11345-.11345A9.85955,9.85955,0,0,1,27.39935,6.1723l-.12682-.12683"/><path class="h" d="M28.4904,8.774,28.377,8.66054A9.8598,9.8598,0,0,1,26.644,6.92761l-.12682-.12682"/><path class="h" d="M27.73508,9.5293l-.11344-.11345a9.85955,9.85955,0,0,1-1.73292-1.73292l-.12683-.12682"/><path class="h" d="M26.97977,10.28462l-.11345-.11345A9.85955,9.85955,0,0,1,25.1334,8.43825l-.12683-.12682"/><path class="h" d="M26.22445,11.03994l-.11345-.11345a9.85955,9.85955,0,0,1-1.73292-1.73292l-.12682-.12683"/><path class="h" d="M25.46913,11.79525l-.11345-.11344a9.85992,9.85992,0,0,1-1.73292-1.73292l-.12682-.12683"/><path class="h" d="M24.71381,12.55057l-.11344-.11345a9.85955,9.85955,0,0,1-1.73292-1.73292l-.12683-.12682"/><path class="h" d="M23.9585,13.30589l-.11345-.11345a9.85955,9.85955,0,0,1-1.73292-1.73292l-.12683-.12682"/><path class="h" d="M23.20318,14.06121l-.11345-.11345a9.85955,9.85955,0,0,1-1.73292-1.73292L21.23,12.088"/><path class="h" d="M22.44786,14.81652l-.11345-.11344a9.85992,9.85992,0,0,1-1.73292-1.73292l-.12682-.12683"/><path class="h" d="M21.69254,15.57184l-.11344-.11345a9.8598,9.8598,0,0,1-1.73293-1.73292l-.12682-.12682"/><path class="h" d="M20.93723,16.32716l-.11345-.11345a9.85955,9.85955,0,0,1-1.73292-1.73292L18.964,14.354"/><polygon class="i" points="21.131 15.639 26.565 15.2 35.18 6.585 29.746 7.024 21.131 15.639"/><polygon class="j" points="29.746 7.024 33.098 7.638 26.198 14.538 21.131 15.639 26.565 15.2 35.18 6.585 29.746 7.024"/><polygon class="k" points="29.746 7.024 22.015 15.568 21.131 15.639 29.746 7.024"/><polygon class="i" points="19.489 14.049 19.928 8.615 28.543 0 28.105 5.434 19.489 14.049"/><polygon class="k" points="28.28 3.261 19.489 14.049 28.105 5.434 28.28 3.261"/><polygon class="j" points="28.543 0 20.786 8.499 19.489 14.049 19.928 8.615 28.543 0"/></svg>