<svg xmlns="http://www.w3.org/2000/svg" xmlns:xlink="http://www.w3.org/1999/xlink" viewBox="0 0 206.24031 324.11522"><defs><style>.a{fill:#879647;}.b{fill:#ffcfae;}.c{fill:#353363;}.d{fill:#1d1d1b;}.e{fill:#f7f3f8;}.ad,.ae,.ai,.al,.as,.at,.f,.k,.p{fill:none;}.f{stroke:#8c5632;stroke-width:1.09151px;}.ad,.ae,.al,.as,.at,.f,.k,.p{stroke-linecap:round;}.ad,.ai,.as,.f{stroke-miterlimit:10;}.g{fill:#d9d6da;}.h{fill:#f8e1f2;}.i{fill:#dce3f6;}.j{fill:#696987;}.k{stroke:#1d1d1b;stroke-width:2.18302px;}.ae,.al,.at,.k,.p{stroke-linejoin:round;}.l{fill:#e29460;}.m{clip-path:url(#a);}.n{fill:#97a34f;}.o{fill:#a3af5a;}.ad,.p{stroke:#879647;}.p{stroke-width:19.64721px;}.q{fill:#756f48;}.r{clip-path:url(#b);}.s{fill:#73842f;}.t{fill:#546023;}.u{fill:#4c5430;}.v{fill:#689300;}.w{fill:#99b523;}.x{fill:#b9d324;}.y{fill:#79891b;}.z{clip-path:url(#c);}.aa{fill:#683c11;}.ab{fill:#ffada4;}.ac{fill:#fff;}.ad{stroke-width:17.46418px;}.ae{stroke:#ffcfae;stroke-width:13.15021px;}.af{fill:#3c3c3b;}.ag{fill:#432918;}.ah{fill:#7d4e24;}.ai{stroke:#b2b2b2;}.ai,.as,.at{stroke-width:0.44502px;}.aj{fill:#ad8b63;}.ak{fill:#cca581;}.al{stroke:#ccb297;stroke-width:0.89003px;}.am{fill:#d3b398;}.an{fill:#b2b2b2;}.ao{fill:#c6c6c6;}.ap{fill:#ba8e6e;}.aq{fill:#896a4c;}.ar{fill:#9b5623;opacity:0.25;}.as,.at{stroke:#fff;}.as{opacity:0.42;}.at{opacity:0.32;}.au{fill:#878787;opacity:0.35;}</style><clipPath id="a"><path class="a" d="M67.99063,287.27391l7.65964,3.38915H81.8932l3.68123,33.45216h34.34249s.93679-44.99818-4.00872-66.71493l-41.87149,5.82585Z"/></clipPath><clipPath id="b"><path class="a" d="M42.94,203.731l-7.33269,29.59388c-.95913,3.87092-1.9705,7.731-3.06877,11.56957-1.0452,3.6531-1.59,7.30274-3.06772,10.89258a1.2003,1.2003,0,0,0-.136.68039,1.03168,1.03168,0,0,0,.43416.55953,6.67652,6.67652,0,0,0,3.71278,1.36071c.59561.03049,1.198-.017,1.78859.05519A11.68138,11.68138,0,0,1,39.114,260.0833a16.63951,16.63951,0,0,0,4.73289,1.61994,37.22,37.22,0,0,1,1.3313-6.12463c3.99958-13.24562,5.33038-27.62678,7.87662-41.27613.56664-3.03754.92714-5.45792-.27662-8.20472-1.23193-2.81111-3.19875-4.793-1.56406-8.08285C48.48759,199.93058,45.55,201.65961,42.94,203.731Z"/></clipPath><clipPath id="c"><path class="b" d="M135.15742,120.8154a21.775,21.775,0,0,1,.13934,3.76223,15.77906,15.77906,0,0,1-2.22947,7.52446,23.87753,23.87753,0,0,1-21.33872,10.02967,4.99611,4.99611,0,0,1-1.48591-.307h0a76.71882,76.71882,0,0,1-53.74634,21.61278C34.54082,163.43753,0,153.1958,0,126.15135a29.03836,29.03836,0,0,1,13.23031-24.40552.9211.9211,0,0,1,.21745-.13217.33933.33933,0,0,1,.17482-.08741.925.925,0,0,1-.21745-.56707,17.36328,17.36328,0,0,1-1.35373-3.2319,57.27438,57.27438,0,0,1-1.65859-11.35,31.53768,31.53768,0,0,1,23.314-29.34077c2.2125-9.97205,7.01593-17.88827,15.719-23.2624,5.598-3.45675,11.7601-5.88137,17.89859-8.24909,8.68-3.348,15.88086-4.76513,25.12689-3.42472a76.22914,76.22914,0,0,1,23.20046,7.24015c13.56912,6.80381,25.06381,17.95557,31.19148,31.94912a56.89456,56.89456,0,0,1,4.78947,22.77253C151.63269,98.90833,144.981,110.0751,135.15742,120.8154Z"/></clipPath><symbol id="d" viewBox="0 0 206.24 324.115"><path class="c" d="M89.43447,242.26974l-18.21211-13.3001a4.15451,4.15451,0,0,1-1.01866-5.64137l43.34188-65.75986a4.15451,4.15451,0,0,1,5.919-1.0688l24.31887,17.75979a4.15452,4.15452,0,0,1,.78341,5.9635L95.11824,241.52308A4.15451,4.15451,0,0,1,89.43447,242.26974Z"/><path class="d" d="M116.0375,155.83414s.20961,9.61588,16.1024,18.088,9.17941.58987,9.17941.58987Z"/><polygon class="e" points="143.812 167.677 143.411 161.669 151.43 150.861 151.831 156.869 143.812 167.677"/><polygon class="e" points="144.147 167.926 150.014 166.567 158.033 155.759 152.166 157.118 144.147 167.926"/><line class="f" x1="153.6164" y1="154.46209" x2="131.56499" y2="184.183"/><polygon class="e" points="123.033 153.822 122.633 147.814 130.652 137.006 131.052 143.014 123.033 153.822"/><polygon class="e" points="123.369 154.071 129.235 152.713 137.254 141.905 131.388 143.263 123.369 154.071"/><line class="f" x1="132.83825" y1="140.60732" x2="110.78684" y2="170.32824"/><polygon class="e" points="133.996 155.709 133.595 149.701 141.614 138.893 142.015 144.901 133.996 155.709"/><polygon class="e" points="134.331 155.959 140.198 154.6 148.217 143.792 142.35 145.151 134.331 155.959"/><line class="f" x1="143.80043" y1="142.49446" x2="121.74902" y2="172.21538"/><polygon class="g" points="135.732 162.723 135.332 156.715 143.351 145.907 143.751 151.915 135.732 162.723"/><polygon class="g" points="136.068 162.972 141.934 161.614 149.953 150.806 144.087 152.164 136.068 162.972"/><line class="f" x1="145.5367" y1="149.50841" x2="123.4853" y2="179.22932"/><polygon class="h" points="135.067 170.168 134.666 164.159 142.685 153.351 143.086 159.36 135.067 170.168"/><polygon class="h" points="135.402 170.417 141.269 169.058 149.288 158.25 143.421 159.609 135.402 170.417"/><line class="f" x1="144.87152" y1="156.9528" x2="122.82012" y2="186.67372"/><polygon class="i" points="123.285 162.077 122.885 156.069 130.904 145.261 131.304 151.269 123.285 162.077"/><polygon class="i" points="123.621 162.326 129.487 160.967 137.506 150.159 131.64 151.518 123.621 162.326"/><line class="f" x1="133.08996" y1="148.86213" x2="111.03856" y2="178.58305"/><polygon class="e" points="126.307 168.527 125.907 162.519 133.926 151.711 134.326 157.719 126.307 168.527"/><polygon class="e" points="126.643 168.776 132.509 167.417 140.528 156.609 134.662 157.968 126.643 168.776"/><line class="f" x1="136.11225" y1="155.31205" x2="114.06085" y2="185.03297"/><path class="c" d="M116.38969,157.35492s-.09888,4.62735,7.23113,10.79756,10.78891,6.79466,10.78891,6.79466l5.68053,2.58332-15.56564,20.09715-22.76592-11.4957,9.27986-19.29148Z"/><path class="j" d="M116.0375,155.83414s1.49935,12.40618,19.46615,19.58352c0,0-17.37642-7.22167-19.66724-12.53546l-2.29083-5.31379A2.968,2.968,0,0,1,116.0375,155.83414Z"/><path class="j" d="M139.28821,186.38616s-13.84433-3.13467-15.51489-6.16927l-2.3626,4.96689s13.03513,7.20532,14.63565,5.22121Z"/><polygon class="k" points="125.433 179.567 120.743 189.485 116.038 184.538 120.405 176.574 125.433 179.567"/><path class="b" d="M42.91416,271.66545c-.08391-2.22036-1.20789-4.36107-2.26015-6.6302-.99489-2.14541-1.25432-3.97106-3.8447-4.29131-4.41163-.5454-8.68646,3.44981-9.54809,8.92355s2.191,9.243,6.60262,9.78839a8.15672,8.15672,0,0,0,7.88237-3.73138A6.82564,6.82564,0,0,0,42.91416,271.66545Z"/><polygon class="b" points="32.562 250.881 30.059 263.642 39.574 265.584 42.212 249.217 32.562 250.881"/><path class="l" d="M31.13347,258.164s5.41859,3.53919,9.066,3.53919l.57038-3.53919-9.16446-2.40572Z"/><path class="a" d="M49.54527,263.22614c-4.42067,27.53161-2.72869,60.88908-2.72869,60.88908h27.7247s3.14056-23.513,3.24686-33.45216l10.25507-6.40173.41129-21.03519Z"/><path class="a" d="M67.99063,287.27391l7.65964,3.38915H81.8932l3.68123,33.45216h34.34249s.93679-44.99818-4.00872-66.71493l-41.87149,5.82585Z"/><g class="m"><path class="n" d="M106.35758,285.32778l3.24644,22.95658s8.58652-.613,10.16885-2.71541c0,0-.44829-23.02055-.34451-24.69638Z"/><polygon class="a" points="106.358 285.328 111.652 306.14 119.773 305.569 122.66 281.895 118.842 279.809 106.358 285.328"/><path class="o" d="M119.16614,274.73522s-8.62381,4.88287-14.37054,5.22956l1.562,5.363s11.122-1.60551,13.07078-4.45521Z"/></g><line class="p" x1="120.53277" y1="205.00485" x2="133.06727" y2="249.21681"/><path class="q" d="M49.81136,255.19992s26.22908,5.76052,66.66184-1.281l-1.26334,7.78429s-32.47017,7.8366-43.91579,6.61229A126.80175,126.80175,0,0,1,49.525,263.8378Z"/><path class="a" d="M42.94,203.731l-7.33269,29.59388c-.95913,3.87092-1.9705,7.731-3.06877,11.56957-1.0452,3.6531-1.59,7.30274-3.06772,10.89258a1.2003,1.2003,0,0,0-.136.68039,1.03168,1.03168,0,0,0,.43416.55953,6.67652,6.67652,0,0,0,3.71278,1.36071c.59561.03049,1.198-.017,1.78859.05519A11.68138,11.68138,0,0,1,39.114,260.0833a16.63951,16.63951,0,0,0,4.73289,1.61994,37.22,37.22,0,0,1,1.3313-6.12463c3.99958-13.24562,5.33038-27.62678,7.87662-41.27613.56664-3.03754.92714-5.45792-.27662-8.20472-1.23193-2.81111-3.19875-4.793-1.56406-8.08285C48.48759,199.93058,45.55,201.65961,42.94,203.731Z"/><g class="r"><path class="s" d="M55.933,203.0251c7.64082,19.156,6.61914,27.3086-4.18473,48.42234-.8205,1.60349.74519,3.58229.059,5.24562-6.22883-3.86122-6.07183-14.62063-5.57365-21.02823.30192-3.88329.62523-7.7656.94853-11.64788a46.76122,46.76122,0,0,1,1.64078-10.52326c.60127-1.863,1.57716-5.35946,2.66568-6.91276C51.72619,206.24187,55.89991,203.25216,55.933,203.0251Z"/></g><path class="a" d="M77.09637,190.85634l10.0236-10.923H71.01254c-7.30616,0-16.67717,3.65143-16.79057,10.923-.42453,27.22256-10.65241,51.14032-5.32961,62.84778,1.45538,3.196,11.58022,4.77024,23.5315,5.21037C67.52439,236.19374,77.09637,190.85634,77.09637,190.85634Z"/><path class="a" d="M115.85508,254.42c4.85995-1.87555-1.27993-37.77-3.89571-56.40511-1.4761-10.51589-8.01562-18.08155-18.73638-18.08155H87.12l-10.0236,10.923s-9.572,45.3374-4.67251,68.05815C91.25959,259.61031,112.76785,255.61144,115.85508,254.42Z"/><path class="s" d="M116.78739,233.2222l-3.40856-25.32363L104.99727,214.4S114.45854,226.12346,116.78739,233.2222Z"/><path class="t" d="M70.42876,258.81405c.67041.03287,1.32211.0767,2.0075.10044-4.89634-22.70431,4.65736-67.98875,4.67055-68.0545C68.25064,225.342,70.41881,258.6716,70.42876,258.81405Z"/><polygon class="u" points="77.109 190.856 77.109 190.856 77.109 190.856 77.109 190.856"/><path class="v" d="M127.18646,213.06391c.10875-.05558-1.72787-3.36812-1.41383-3.8908a2.98994,2.98994,0,0,1,3.20551-.97742c1.28413.3502,2.277,1.742,2.77278,2.0675.14115.09265.42732-.41149.599-.41318.20667-.002.63967.57345.806.44593.44588-.34182.41131-1.31038.8572-1.65221.07058-.05411-.35034.07631-.337-.01035.01587-.10346.3892.20535.31578.13348-.77706-.76059-.84062-2.15913-1.51314-3.01326a7.30028,7.30028,0,0,1-1.66243-3.10958,12.32483,12.32483,0,0,0-5.21427.80032c-.92486.31825-1.39773,1.98021-2.32692,2.28486-.92839.30438-2.35427-.76974-3.26579-.41307-1.004.39321-1.95814.8037-2.98057,1.14039-1.02344.337-1.60926,2.11372-2.64526,2.40688-1.037.29346-2.1408.42227-3.18446.6846-1.16887.29381-2.45323.17911-3.63756.43573-1.17886.25544-2.28016.9916-3.47122,1.21283-1.18655.22039-2.55653-.56906-3.75211-.38-1.19316.18866-2.38031.39264-3.57941.55267-1.19836.15994-2.31885.98253-3.5201,1.11645-1.19815.13493-2.37906.5877-3.58076.6969-1.20239.10926-2.514-1.12141-3.71627-1.04011-1.20666.0816-2.38066.58468-3.58339.63589-1.20922.05149-2.40331.72775-3.60473.74627-1.21172.01867-2.41376-1.39153-3.61364-1.40871-1.16769-.01959-2.33034.71484-3.47342.64463-1.162-.07137-2.25244-.67132-3.39418-.79911-1.15266-.129-2.462.89261-3.59946.70184-1.13907-.191-2.16392-1.04664-3.29317-1.30391-1.12127-.25546-2.01678-1.30175-3.1337-1.62672-1.19963-.349-2.47782-.37522-3.66546-.75872-1.18824-.38369-2.48933-.413-3.67152-.81376-1.18244-.40081-2.56733-.20347-3.74967-.60386-.50883-.17231-1.28546-1.26235-2.28049-1.64266a4.10445,4.10445,0,0,0-2.67145-.38726c-.49586.26437-.41624,1.77-.93185,3.00838a15.10742,15.10742,0,0,1-1.84013,2.63913c1.58358.51848,1.193,1.82008,2.77894,1.69507.87964-.06933,1.49674-1.32889,2.50059-1.2158,1.26447.14244,3.54065,1.19761,1.80864,2.515-.59322.45121-2.0755,1.45872-1.68042,2.0622.52554.80274,2.46843-.27681,3.2513.28014.44754.31839.06395,1.47958.48527,1.83108.509.42465,2.32519-.25486,2.76205-.78131a25.90127,25.90127,0,0,0,.70708-3.69948c1.48038.48808,3.80307.96454,5.298,1.39956-.02938,2.16167-2.54626,1.8622-2.52735,4.024,1.59485.44351,3.03774.6302,4.68905.97822,1.30449-1.70443.553-1.94356,1.79728-3.69242,1.47116.31619,3.21982.32743,4.71383.53328a5.32023,5.32023,0,0,1-1.33994,3.88493,5.52032,5.52032,0,0,0,3.94929-.718,2.72072,2.72072,0,0,0,1.64429-2.51958c.38091.00075,4.171.02083,4.18117-.00821a7.18713,7.18713,0,0,0-.16444,3.01778c.65637.96566,2.12506-.15056,2.99974.34568,2.22622,1.263,2.94629-1.78192,2.95416-3.23675-.0001.01858,3.54957.0608,3.916.07772a6.67234,6.67234,0,0,0-.07113,2.4673c.73336.89572,2.5734-.29172,3.60818-.78119,1.06768-.505,2.22207-.52913,2.99131-1.29461a3.43654,3.43654,0,0,1,2.84883-1.328c.07068.38634.35528,3.189.37319,3.18673.00274-.00034,5.04156,1.15206,5.07346,1.148.02419-.003.25124-2.635.26808-2.77984.13041-1.12215-.196-2.36384.60291-2.76842.80115-.40573,1.498.17573,2.39058.03785.79954,1.95287-.7515,3.26932,1.0758,4.32477,2.135,1.23317,3.27879.4071,4.79072-1.54042,1.29486-1.66791-1.32945-1.86107-1.04117-3.95284,1.54626-.34165,2.81071-.20373,4.34224-.61542,1.27961,2.2327,1.13186,2.039,2.4353,4.25783,1.61376-.3841,1.996-.49126,3.609-.98146.11624-2.56636-.378-2.34851-.32557-4.917,1.47582-.40319,1.92815-.59823,3.38292-1.07358,1.49271,2.08716.28932,2.5982,1.52753,4.8457.81217-.33712,2.27466-1.07506,3.08653-1.404C125.92656,214.45523,126.38994,213.471,127.18646,213.06391Z"/><path class="w" d="M42.10491,206.36152a.82913.82913,0,0,0,.42525.3612A73.16794,73.16794,0,0,0,74.44041,214.364a139.71086,139.71086,0,0,0,30.73268-2.5634,99.38953,99.38953,0,0,0,15.261-4.332c2.76756-1.04351,8.581-1.742,10.52156-4.012-4.69393-8.70668-10.69389-18.57416-20.65183-21.84145-8.17438-2.68207-22.05435-3.85879-30.71926-2.84092-8.03628.944-18.37158.09135-25.41558,5.07585-6.776,4.79486-9.62463,14.53951-12.0167,21.91878A.94859.94859,0,0,0,42.10491,206.36152Z"/><path class="x" d="M75.649,203.25467c.05632,1.53155-1.042,2.86546-1.7027,4.2738a7.89156,7.89156,0,0,0,.0076,6.708,25.34588,25.34588,0,0,0,6.35227-.2888c-1.89455-.24443-3.91957-1.04506-4.64141-2.78987a1.15763,1.15763,0,0,1-.10743-.65674c.11278-.57635.82428-.79353,1.40575-.89151l5.22819-.881-4.268-.253c-1.00536-.05959-2.28561-.37091-2.35772-1.36993a1.64473,1.64473,0,0,1,1.36876-1.5054,9.586,9.586,0,0,1,2.18591-.052,2.37979,2.37979,0,0,0,1.97038-.80268,9.47065,9.47065,0,0,1-3.44273-1.60787,1.76455,1.76455,0,0,1-.85289-1.23216,1.50037,1.50037,0,0,1,1.01974-1.3123,7.1624,7.1624,0,0,1,1.72816-.32081,7.43386,7.43386,0,0,0,4.27426-2.20792c-1.581-1.233-4.06945.56638-5.955-.1503-.89883-.34164,1.206-6.42491-2.65235-2.70986C72.096,198.20247,75.53521,200.16672,75.649,203.25467Z"/><path class="y" d="M77.86706,194.77277a14.00974,14.00974,0,0,0,5.32327-2.10433,34.55736,34.55736,0,0,0,9.02394-7.8555c.70644-.87368,1.29251-2.33835.3551-2.89748a1.99088,1.99088,0,0,0-.815-.208l-12.6042-1.36729c-3.87147-.42-10.93752-.04-10.54343,5.56427C68.90524,190.14883,73.44583,195.33954,77.86706,194.77277Z"/><polygon class="b" points="90.589 179.966 77.098 192.507 72.313 179.966 72.313 150.913 90.589 150.913 90.589 179.966"/><polygon class="l" points="72.313 171.187 90.589 161.155 90.589 155.055 72.313 157.184 72.313 171.187"/><path class="b" d="M135.15742,120.8154a21.775,21.775,0,0,1,.13934,3.76223,15.77906,15.77906,0,0,1-2.22947,7.52446,23.87753,23.87753,0,0,1-21.33872,10.02967,4.99611,4.99611,0,0,1-1.48591-.307h0a76.71882,76.71882,0,0,1-53.74634,21.61278C34.54082,163.43753,0,153.1958,0,126.15135a29.03836,29.03836,0,0,1,13.23031-24.40552.9211.9211,0,0,1,.21745-.13217.33933.33933,0,0,1,.17482-.08741.925.925,0,0,1-.21745-.56707,17.36328,17.36328,0,0,1-1.35373-3.2319,57.27438,57.27438,0,0,1-1.65859-11.35,31.53768,31.53768,0,0,1,23.314-29.34077c2.2125-9.97205,7.01593-17.88827,15.719-23.2624,5.598-3.45675,11.7601-5.88137,17.89859-8.24909,8.68-3.348,15.88086-4.76513,25.12689-3.42472a76.22914,76.22914,0,0,1,23.20046,7.24015c13.56912,6.80381,25.06381,17.95557,31.19148,31.94912a56.89456,56.89456,0,0,1,4.78947,22.77253C151.63269,98.90833,144.981,110.0751,135.15742,120.8154Z"/><g class="z"><path class="l" d="M135.15742,120.8154c.32111-.37278-.10253-1.88348-.22541-2.30417a6.65883,6.65883,0,0,0-1.00329-2.03225c-3.89972-5.37528-15.23344-4.97093-18.26657,1.28257a5.51881,5.51881,0,0,0,.26263-2.91652l-.20725-2.28608c3.03186-.85856,6.45579-.81477,9.57331-1.07946,6.56571-.55737,13.88606,4.668,13.88606,4.668Z"/><path class="aa" d="M139.2533,118.16374a40.998,40.998,0,0,0,8.45314-10.76328c11.09321-21.20968,6.45222-51.33426-7.85182-69.91261A61.29,61.29,0,0,0,96.443,14.07827a72.74676,72.74676,0,0,0-23.832,2.45047A66.30455,66.30455,0,0,0,50.05511,26.83913C46.128,29.7301,39.88654,34.81041,38.00174,39.439a7.96067,7.96067,0,0,0,.79809,7.70471c1.38865,1.81823,3.59777,2.79741,5.765,3.53035,9.3134,3.14964,19.365,3.05537,29.08636,4.523,5.40857.81653,10.63963,2.64753,16.01442,3.47442,4.4358.68244,8.70728,1.04746,12.897,3.03057a22.21537,22.21537,0,0,1,10.71047,10.6,18.6756,18.6756,0,0,1,.35449,14.93341c-1.45864,3.40187-3.97279,6.22506-5.92573,9.36932s-3.37148,6.97608-2.2946,10.51742c1.15889,3.81093,4.90453,5.95829,8.63265,6.5994,4.82295.8294,9.56482-1.65171,14.32065-.34559a10.02478,10.02478,0,0,1,7.10145,8.09661C136.76053,120.4132,138.03178,119.31344,139.2533,118.16374Z"/></g><polygon class="n" points="106.245 256.12 103.75 256.717 103.75 266.244 105.556 266.244 106.245 256.12"/><path class="b" d="M134.65249,116.365c2.21739,6.85927,1.00221,15.30453-6.10519,18.77294a22.5502,22.5502,0,0,1-3.29851,1.22674,4.12983,4.12983,0,0,1-2.14439.25066c-1.25605-.30184-1.836-1.56416-3.03293-1.98441a8.68535,8.68535,0,0,1-2.73039-1.28346,8.56622,8.56622,0,0,1-2.844-5.19264,18.0761,18.0761,0,0,1,2.28676-12.47378C120.70183,109.42513,132.19062,108.7494,134.65249,116.365Z"/><path class="aa" d="M35.46812,130.43231a2.687,2.687,0,0,0,1.09033,3.03369,6.93611,6.93611,0,0,0,1.45073.8457c.50808.22949,1.06269.36377,1.59446.55469a21.99555,21.99555,0,0,0,3.19164.87842,28.05239,28.05239,0,0,0,3.25211.2373,30.50863,30.50863,0,0,0,6.71086-.24756,15.61925,15.61925,0,0,0,6.32686-2.4917,1.17073,1.17073,0,1,1,.52812,2.11817,23.675,23.675,0,0,0-6.85483.37451c-2.21324.37061-4.416.94043-6.69959,1.10547a15.77729,15.77729,0,0,1-1.71276.02588,6.9372,6.9372,0,0,1-1.75019-.24024,15.0351,15.0351,0,0,1-3.13985-1.41992,18.20572,18.20572,0,0,1-2.89919-1.73877,35.76651,35.76651,0,0,0-3.092-2.168l-.18948-.11963a1.48954,1.48954,0,1,1,2.19277-.748Z"/><path class="l" d="M126.62475,125.633a4.20921,4.20921,0,0,0,.2557-.8992c.32778-2.02056-1.91481-3.08431-3.65-3.189a6.81823,6.81823,0,0,1,3.87072-2.74632,4.42885,4.42885,0,0,1,4.60614,1.31385c-.83643-2.457-2.76191-3.02476-5.21217-2.62811a10.06937,10.06937,0,0,0-6.80272,4.52779,10.58194,10.58194,0,0,0-.97218,1.794c-.18421.43762-.27479,1.47493-.56514,1.79923a6.47546,6.47546,0,0,1,2.11474-1.77006,2.21206,2.21206,0,0,1,2.55423.42441c1.55042,1.89843-.77788,4.76261-2.33173,5.87081,1.22826-.876,2.96874-.91746,4.23867-1.98555A6.71732,6.71732,0,0,0,126.62475,125.633Z"/><path class="aa" d="M32.17657,70.93035a21.36284,21.36284,0,0,0-9.5218.95264c-.79976.2417-1.54424.541-2.36579.83545l-2.40757.87842a25.835,25.835,0,0,0-4.44774,2.36426.44277.44277,0,0,1-.51983-.71387,27.13655,27.13655,0,0,1,4.2287-3.17822A49.10736,49.10736,0,0,1,21.80768,69.634,24.28716,24.28716,0,0,1,32.4951,67.45379l.00917.00049a1.74848,1.74848,0,0,1-.1405,3.49414A1.812,1.812,0,0,1,32.17657,70.93035Z"/><path class="aa" d="M71.84065,71.32977A21.00431,21.00431,0,0,1,80.04941,73.155,34.61278,34.61278,0,0,1,86.96,77.21063a55.53821,55.53821,0,0,1,10.944,11.05322.55274.55274,0,0,1-.84267.71289l-.00687-.00732A53.63617,53.63617,0,0,0,85.44312,79.487a31.47008,31.47008,0,0,0-6.62733-3.00292,17.06644,17.06644,0,0,0-6.76417-.79346,2.18666,2.18666,0,1,1-.46858-4.34815,2.15725,2.15725,0,0,1,.237-.01269Z"/><ellipse class="ab" cx="81.45064" cy="128.51827" rx="14.41743" ry="5.83736"/><ellipse class="ab" cx="13.17267" cy="117.3689" rx="9.95066" ry="5.83736"/><path class="l" d="M42.98231,84.0262A12.158,12.158,0,0,0,32.805,79.514a16.37022,16.37022,0,0,0-10.32915,4.671A12.87169,12.87169,0,0,0,19.54963,88.11a11.35188,11.35188,0,0,0,1.77168,11.443c4.90254,6.17747,14.93737,7.82372,21.67219,3.74988C49.17135,99.566,46.59939,88.81317,42.98231,84.0262Z"/><path class="ac" d="M46.11078,100.77355c.77521-10.172-5.81429-20.84452-14.89342-21.53644s-17.20983,8.85878-17.985,19.03079,6.09864,17.11341,15.17777,17.80533S45.33558,110.94556,46.11078,100.77355Z"/><ellipse class="aa" cx="29.66257" cy="98.03732" rx="14.61811" ry="8.17712" transform="translate(-72.05849 110.03778) rotate(-79.8944)"/><ellipse class="ac" cx="36.62833" cy="91.55183" rx="3.23473" ry="1.21494"/><ellipse class="d" cx="29.87818" cy="99.002" rx="6.17304" ry="2.95953" transform="translate(-72.83042 111.04546) rotate(-79.8944)"/><path class="l" d="M87.33111,95.12214a19.78592,19.78592,0,0,0-14.39056-10.761,12.90309,12.90309,0,0,0-8.53215,1.22536c-5.01965,2.91675-6.27976,10.12546-3.85123,15.39866s7.62776,8.78031,13.036,10.89108c3.93755,1.53678,12.17885,4.0263,14.22617-1.01778A19.76825,19.76825,0,0,0,87.33111,95.12214Z"/><path class="ac" d="M87.71462,107.013c.45878-11.0477-8.01778-22.96337-19.06547-23.42214s-20.483,10.71309-20.94176,21.76078,8.23271,17.78768,19.2804,18.24645S87.25585,118.06064,87.71462,107.013Z"/><ellipse class="aa" cx="69.45615" cy="103.59985" rx="16.03749" ry="8.9711" transform="translate(-44.72344 153.80052) rotate(-79.8944)"/><ellipse class="ac" cx="77.09826" cy="96.48464" rx="3.54882" ry="1.33291"/><ellipse class="d" cx="69.33218" cy="104.2954" rx="5.87714" ry="2.95953" transform="matrix(0.17546, -0.98449, 0.98449, 0.17546, -45.51042, 154.25198)"/><circle class="ab" cx="40.30383" cy="116.1287" r="5.83736"/><polygon class="a" points="77.098 192.507 90.354 179.933 90.589 172.86 105.993 184.372 95.523 183.262 77.098 192.507"/><polygon class="a" points="77.098 192.507 72.333 179.933 72.526 174.108 60.197 182.638 66.569 183.262 77.098 192.507"/><path class="x" d="M103.5857,194.92131c1.53372-1.77063,3.04473-3.66363,5.11224-4.76048-.04375,2.19482-1.54634,4.12234-3.10419,5.72695a38.01392,38.01392,0,0,1-9.79938,7.5576c-3.72344,1.89705-6.92638,3.88881-11.16142,4.57394,3.57715-1.32624,7.73165-2.84537,10.684-5.31048A69.80926,69.80926,0,0,0,103.5857,194.92131Z"/><path class="x" d="M90.53952,208.51967a53.17306,53.17306,0,0,0,23.95684-8.67692c.33377-.22327.69278-.69747.39222-.94433a.61552.61552,0,0,0-.42926-.08594c-2.425.13413-4.65986,1.37839-6.8451,2.49687a83.15323,83.15323,0,0,1-21.194,7.44375,40.8279,40.8279,0,0,0,9.75132-.853"/><path class="x" d="M63.61194,203.39014c1.4406,2.8557,6.84882,7.55868,10.33973,5.40206C71.29562,206.80816,65.33827,206.81224,63.61194,203.39014Z"/><path class="y" d="M53.74941,199.38456a18.90045,18.90045,0,0,1-3.72968,5.95168.92233.92233,0,0,0-.27835.44625c-.09294.58156.88178.69545,1.10229,1.23148.30532.74219-.70491,1.0556-1.1952,1.23775-.2952.10967-.563.2176-.86625.30965a8.70055,8.70055,0,0,1-.945.37013l3.51612,1.33372a3.68108,3.68108,0,0,1,.7659.35991c.08619-1.9115.74323-3.71733,1.00889-5.60808C53.39134,203.14406,53.49757,201.25851,53.74941,199.38456Z"/><path class="y" d="M111.47659,203.20555c-.10479,1.65832,1.24425,2.97009,2.48833,4.045a6.09386,6.09386,0,0,0-.68709.6711c.58286.36131.996.90587,1.59928,1.2493-.20491.25-2.23321,1.47052-2.28846,1.215A47.48339,47.48339,0,0,1,111.47659,203.20555Z"/><line class="ad" x1="133.26432" y1="250.84631" x2="116.57253" y2="260.67035"/><line class="ae" x1="118.00922" y1="260.08334" x2="106.55925" y2="266.69341"/><path class="s" d="M77.68184,290.73432s-6.59949-.55207-11.27515-3.58847l10.88485,7.99778Z"/><polygon class="n" points="57.657 257.4 55.219 256.569 55.219 266.693 57.025 266.693 57.657 257.4"/><polygon class="n" points="87.696 258.164 85.201 258.761 85.201 268.288 87.007 268.288 87.696 258.164"/><rect class="d" x="69.25698" y="258.76776" width="3.2386" height="9.63668"/><rect class="af" x="71.97312" y="260.1892" width="2.15029" height="6.39834"/><path class="l" d="M107.50286,258.59174a53.29707,53.29707,0,0,0,1.81508,5.67521,66.07976,66.07976,0,0,0,4.16313,6.1029l3.30632-1.96541L108.09875,258.164Z"/><path class="a" d="M117.90616,250.18947l-10.82192,4.86018a18.1693,18.1693,0,0,0,3.19846,8.59959,62.59012,62.59012,0,0,0,6.5052,6.93515l6.17022-4.05609,7.642-8.80621Z"/><polygon class="s" points="122.23 247.134 127.094 245.248 121.813 245.248 122.23 247.134"/><path class="ag" d="M90.92281,39.41211c-.04084.3522,3.07338,2.12081,3.36242,2.3163a52.76827,52.76827,0,0,1,6.18686,4.92487c4.11025,3.74569,10.43213-.479,14.71361,3.032,1.45175,1.19047,2.15068,3.04332,3.21341,4.591,1.38809,2.02157,3.62056,2.97511,5.20277,4.72866a20.06291,20.06291,0,0,1,4.04424,7.4138,14.34325,14.34325,0,0,0,1.17419-6.28217c.024.58785,1.774,2.33772,2.151,2.91873a15.45287,15.45287,0,0,1,1.62119,3.3045,28.29219,28.29219,0,0,1,1.6322,8.41681,11.85451,11.85451,0,0,1-1.6099,7.22583,15.23568,15.23568,0,0,0,7.22282-20.063,25.99287,25.99287,0,0,1,5.61016,7.31127,5.84162,5.84162,0,0,0-1.16508-5.67159c2.16976,1.25465,3.16773,3.80486,4.01227,6.16468-.41431-1.15766-.06206-2.91969-.39576-4.204a13.3705,13.3705,0,0,0-1.84711-4.10714,80.50866,80.50866,0,0,1-4.97447-8.63809l-5.01-9.823L91.73336,32.42376Z"/><path class="af" d="M156.39733,64.4712q-1.06988-.56764-2.11777-1.17549a64.0998,64.0998,0,0,1-5.67661-3.70732c-1.4311-1.0467-2.97982-2.04126-4.44256-2.963a7.04745,7.04745,0,0,1,6.02838-.11733C153.73569,57.98512,154.05414,63.228,156.39733,64.4712Z"/><path class="af" d="M149.36733,69.11454q-.5921-1.05654-1.14392-2.135a64.09492,64.09492,0,0,1-2.76494-6.19057c-.63638-1.6549-1.39987-3.32964-2.13049-4.89664a7.04753,7.04753,0,0,1,5.13166,3.16563C150.64176,62.22038,148.07056,66.80056,149.36733,69.11454Z"/><path class="a" d="M49.20167,24.86913S54.1755,7.14988,70.96216,0l54.71209,24.86913s20.517,18.96271,21.13876,33.26246c0,0-33.26246.62173-48.80567-19.27357C98.00734,38.858,66.61006,43.83184,49.20167,24.86913Z"/><path class="t" d="M77.64574,28.1332c.23315-.69944-3.49722-20.05073-3.49722-20.05073S87.21787,29.38436,98.00734,38.858l-18.587-16.78667Z"/><path class="t" d="M58.48616,16.04765,68.553,5.51784c-2.56463.69944-17.1364,13.86033-17.1364,13.86033L62.384,10.88024Z"/><path class="aa" d="M43.34888,62.47907c-6.67866.77374-13.78545-.15979-19.34676-3.938s-9.189-10.77166-7.76923-17.34338c1.57683-7.29884,8.48-12.10287,15.17636-15.4072.11789,3.60414,4.08637,5.92762,7.68411,6.17248s7.18333-.84334,10.78341-.63567a19.03608,19.03608,0,0,1,10.02092,3.89666C66.48,40.06679,69.20744,48.1938,63.7238,55.05807,59.55091,60.28159,49.534,61.76249,43.34888,62.47907Z"/><path class="aa" d="M79.24767,42.62132c3.865,1.76848,7.66931,3.11106,11.01273,5.86754,1.35729,1.119,2.69414,2.54669,2.76939,4.30418a4.734,4.734,0,0,1-2.11122,3.8512A12.3226,12.3226,0,0,1,86.71434,58.379c-6.53345,1.71109-13.44613,2.44556-20.04923,1.02681a26.51677,26.51677,0,0,1-7.0825-2.575c-2.998-1.624-5.21209-4.19782-7.58455-6.57713-2.01694-2.02277-4.1316-3.116-6.41433-4.676-3.27214-2.2361-4.634-6.40693-4.54634-10.48036a15.96876,15.96876,0,0,1,1.51812-6.57805c2.39519-4.87921,8.6484-10.02163,14.34046-9.84671a11.79526,11.79526,0,0,0,1.62768,7.72876c1.05388,1.69922,1.39094,3.89336,2.17328,5.73939a18.62251,18.62251,0,0,0,3.92053,6.24074C68.361,41.8792,74.64473,40.51521,79.24767,42.62132Z"/><path class="aa" d="M85.66382,58.0449a20.33018,20.33018,0,0,1-5.827-2.242,15.05637,15.05637,0,0,1-5.0259-6.13846A21.32839,21.32839,0,0,1,72.58555,36.52a14.18155,14.18155,0,0,1,7.77876-10.45742c-1.32751,3.50734.86139,7.57226,4.03753,9.56622a80.53012,80.53012,0,0,0,13.4965,6.821c2.07268.78531,4.23154,1.34386,6.25637,2.24541,4.99445,2.22377,10.10189,11.20708,2.777,14.34883-2.24292.962-6.19185.77276-8.57559.82829A44.85154,44.85154,0,0,1,85.66382,58.0449Z"/><path class="aa" d="M58.58151,41.72831c-1.60159-2.12341-1.78209-5.01875-1.3381-7.64112A16.81494,16.81494,0,0,1,66.16235,21.7554c-1.45425,1.998-.53529,4.85756.89263,6.87443a16.42424,16.42424,0,0,0,4.14843,4.07379c1.03609.70566,2.15483,1.29365,3.12822,2.08354,2.336,1.89562,3.62711,5.50075,1.91694,7.97573a7.21279,7.21279,0,0,1-3.6812,2.44916C67.91448,46.84249,61.77188,45.9582,58.58151,41.72831Z"/><path class="ah" d="M31.40925,25.79047S28.46486,37.30091,36.82538,38.858,51.9283,32.32425,51.9283,32.32425s-14.79816,3.64468-18.44713-1.38438S31.40925,25.79047,31.40925,25.79047Z"/><path class="ah" d="M56.1939,19.37817S52.571,23.6941,54.66114,27.735s3.62012,2.70091,3.62012,2.70091A17.627,17.627,0,0,1,56.1939,19.37817Z"/><path class="ah" d="M64.03032,29.06687s-.31577,14.09059,6.67646,14.9378S79.86411,42.541,79.86411,42.541,66.77167,38.19534,64.03032,29.06687Z"/><path class="ag" d="M51.41567,29.81656a5.31222,5.31222,0,0,1-2.62.77584c-1.52432.15665-5.74275,1.38385-5.84011-.8228a5.24752,5.24752,0,0,1,1.123-2.51249c.161-.24731,1.37224-1.45506,1.356-1.66766C45.65378,28.46414,48.63522,30.26894,51.41567,29.81656Z"/><path class="ag" d="M83.05744,39.98288c-1.77-1.31514-8.6513-6.42887-6.31959-9.44906L75.04794,32.7227a1.44637,1.44637,0,0,0-.35544.69153,1.3213,1.3213,0,0,0,.21941.75629C76.5802,37.19921,80.39734,38.00738,83.05744,39.98288Z"/><path class="ag" d="M128.70207,107.513a16.09327,16.09327,0,0,0,7.64177-2.22424c-.16826.09258-.85339,2.81354-1.58653,3.39122-1.33738,1.0538-2.28025.87118-3.90022.84367a79.22489,79.22489,0,0,0-11.68825.66321A17.55355,17.55355,0,0,0,131.49617,99.086C131.46938,100.40237,130.9062,107.5007,128.70207,107.513Z"/><path class="ah" d="M123.5493,103.18121a42.13815,42.13815,0,0,0,2.09994-8.46259,13.5625,13.5625,0,0,1-.77733,8.982c-.90979,1.992-3.40548,5.81133-5.73927,5.84926A22.47058,22.47058,0,0,0,123.5493,103.18121Z"/><line class="ai" x1="185.57059" y1="296.16968" x2="22.56991" y2="194.2057"/><path class="aj" d="M54.61278,258.16423a39.31008,39.31008,0,0,1-8.02846-4.29244,39.90914,39.90914,0,0,1-7.01108-6.17039A32.65954,32.65954,0,0,1,34.32278,239.74c-.18375-.3774-.3039-.68888-.45461-1.0351l-.437-1.0133c-.29739-.67429-.5462-1.37586-.81673-2.0595-.52176-1.38133-.99325-2.784-1.43033-4.19133-.87446-2.81454-1.505-5.64979-2.10248-8.37-.60531-2.72486-1.15033-5.34409-1.85612-7.91652a70.427,70.427,0,0,0-2.48824-7.53534A51.75379,51.75379,0,0,0,21.34,200.53858c-.323-.57473-.68079-1.11891-1.02063-1.68315-.36629-.53875-.717-1.09416-1.0956-1.63008-.7379-1.08621-1.54455-2.1211-2.373-3.13787a43.03753,43.03753,0,0,0-5.58339-5.56616,38.93976,38.93976,0,0,0-3.1837-2.35371c-.551-.36059-1.10573-.70757-1.67458-1.03189-.28855-.15947-.5734-.31665-.8593-.464-.27574-.14635-.59513-.29872-.81692-.40594l-.11869-.05322a1.50043,1.50043,0,0,1,1.0397-2.8036c.43818.12186.76229.2249,1.13026.35.35413.12183.69755.25258,1.04223.38951q1.02507.41285,2.0185.88486a37.08237,37.08237,0,0,1,3.8311,2.1497,42.46022,42.46022,0,0,1,3.57215,2.55466c.07207.061.14656.11808.21893.179l.00513.00859c1.061.8631,2.08048,1.78431,3.07122,2.7347a51.8572,51.8572,0,0,1,10.17127,14.30983,77.615,77.615,0,0,1,3.29308,8.086c.95369,2.73826,1.7502,5.50943,2.47861,8.18007.73809,2.67157,1.473,5.231,2.3493,7.68986.44436,1.22809.91431,2.44067,1.42564,3.63709.26918.59359.51731,1.195.79878,1.78581l.41959.88171c.14044.28725.281.61659.41751.85964a27.72311,27.72311,0,0,0,9.68747,10.443,68.45341,68.45341,0,0,0,6.54358,3.7624c2.28086,1.15381,4.64026,2.25705,7.09054,3.20722.6305.24217,1.18763.45945,1.796.66162.6.20741,1.22912.40132,1.87011.57674,1.28589.35277,2.63715.71,4.035,1.05955a.01414.01414,0,0,1,.01016.001c1.39829.36567,2.84063.75351,4.301,1.24694.72586.24952,1.455.527,2.18128.83444.35432.16372.74432.329,1.06273.49153.32065.15854.64852.306.97.45454.68869.32573,1.40072.61376,2.11639.88818,1.97983.74508,4.03619,1.35965,5.95636,2.25093a30.26458,30.26458,0,0,1,3.72012,2.07514,30.23152,30.23152,0,0,1,3.49355,2.43732c1.62255,1.32485,3.05921,2.87968,4.57533,4.31608.2311.21812.46075.43.69638.64041.35512.32184.71357.63014,1.08286.92932.00756.00473.01649.01544.024.02017.27076.22191.53747.44129.813.65565.28159.2128.60452.49349.90675.74048.441.38609.87484.7833,1.29153,1.19108.13971.12943.27832.26842.41312.40529,1.07893,1.095,2.06239,2.2246,3.00314,3.3221.92731,1.11037,1.83975,2.16914,2.71954,3.1711.44186.502.89166.983,1.34066,1.43173.44795.4586.88321.86211,1.38068,1.32554,1.92622,1.78752,3.9507,3.42658,5.9861,4.97278a68.41158,68.41158,0,0,0,6.24217,4.23564c.26134.153.52637.30825.80367.4607q.29005.16568.58713.32011c.08163.04568.16944.0901.26093.13683.26082.137.52406.27015.78585.397a27.4701,27.4701,0,0,0,8.99926,2.69011c.732.07987,1.463.12781,2.19566.13989.27849.01658.63592-.00127.952-.003l.98011-.00613c.65437-.00537,1.30007-.04768,1.95161-.06532,1.30342-.06122,2.59921-.16925,3.89794-.307.82462-.09315,1.65258-.19984,2.48981-.32175l.0086-.00513c1.778-.25774,3.58606-.58074,5.44445-.92479,2.30717-.44113,4.70664-.86142,7.14083-1.18643.43162-.06064.86461-.11529,1.29537-.166a77.05744,77.05744,0,0,1,8.71564-.574c1.58444.00949,3.17934.07806,4.76151.21736a52.4119,52.4119,0,0,1,5.99329.841,45.82215,45.82215,0,0,1,6.56279,1.82727c1.37914.50567,2.73748,1.06139,4.06558,1.68226a42.627,42.627,0,0,1,3.86387,2.0969c.587.36208,1.17486.74,1.74067,1.136.07553.04725.14477.09595.21781.14676q.84113.58152,1.64681,1.2193.86067.68794,1.68246,1.43025c.27411.25015.54194.50176.80641.7669.26961.27374.50775.52241.80534.86081a1.50021,1.50021,0,0,1-2.06617,2.16149l-.09979-.08344c-.18958-.15011-.46633-.37065-.71874-.55469-.25737-.19252-.52719-.38232-.79315-.56971-.54033-.36952-1.09888-.71892-1.66421-1.05667-.42208-.24839-.85286-.49147-1.28681-.72088-.72375-.39507-1.46815-.76615-2.21887-1.10991a43.03761,43.03761,0,0,0-7.44793-2.58549c-1.28045-.30247-2.564-.57506-3.85965-.761-.64753-.106-1.30042-.17834-1.94531-.27213-.07914-.00747-.15478-.01275-.2315-.02409-.58089-.0535-1.14973-.12587-1.72836-.15719a51.75661,51.75661,0,0,0-7.85321.04263,71.21126,71.21126,0,0,0-7.8682,1.05694c-2.61809.49319-5.21566,1.14659-7.92686,1.79684-2.71132.65043-5.5367,1.32383-8.4463,1.77128-1.45688.22256-2.92448.41226-4.39487.54742-.73678.05352-1.47281.139-2.20907.16672l-1.10236.05038c-.37745.01584-.71379.04176-1.12986.04395a32.65943,32.65943,0,0,1-9.45615-1.23818,39.98513,39.98513,0,0,1-8.61589-3.60495,39.274,39.274,0,0,1-7.37211-5.34127,49.59478,49.59478,0,0,1-5.96147-6.63182c-.4327-.57517-.90935-1.21447-1.33131-1.84084-.43416-.62324-.82411-1.25035-1.21965-1.85993-.78479-1.22063-1.4769-2.43043-2.21428-3.54246a29.959,29.959,0,0,0-2.287-3.11558c-.2032-.23732-.412-.45741-.614-.68856l-.64686-.63557c-.23058-.20216-.42633-.39279-.68336-.61124q-.389-.32216-.78516-.63289c-.33468-.2619-.679-.50881-1.035-.73663-1.9081-1.24615-4.082-2.11776-6.092-3.17567-1.189-.63353-2.33727-1.3152-3.46577-2.03676l-.00387-.00242-.00756-.00473-.00368-.0023-.00387-.00242c-1.14274-.6992-2.26179-1.43587-3.34777-2.22541-1.72226-1.26624-3.365-2.735-5.17523-3.87784a16.15574,16.15574,0,0,0-1.461-.81935q-.45279-.22019-.91261-.42914c-.31258-.13786-.566-.22817-.84843-.34695l-.85471-.30373c-.296-.08034-.58529-.17184-.88759-.25074a29.38365,29.38365,0,0,0-3.80235-.69358c-1.32624-.17886-2.71692-.27193-4.15787-.4436-.71752-.08668-1.452-.163-2.20609-.283-.744-.103-1.53125-.25431-2.23408-.38946A49.587,49.587,0,0,1,54.61278,258.16423Z"/><path class="ak" d="M89.09091,270.69806l-.00387-.00242-.00756-.00473-.00368-.0023-.00387-.00242c-1.14274-.6992-2.26179-1.43587-3.34777-2.22541-1.72226-1.26624-3.365-2.735-5.17523-3.87784a2.194,2.194,0,0,1,.00206-.27167,3.86554,3.86554,0,0,1,.61056-1.93276,13.08836,13.08836,0,0,1,2.39991-2.66141c.12728.04809.25843.09861.388.143,1.856.68327,3.77479,1.27481,5.56834,2.10791a30.26458,30.26458,0,0,1,3.72012,2.07514,30.23152,30.23152,0,0,1,3.49355,2.43732c1.70229,1.39036,3.197,3.02864,4.79605,4.5172.15746.151.31366.29591.47566.43929-1.0667.76573-2.89248,1.46082-3.35455,4.47351-1.9081-1.24615-4.082-2.11776-6.092-3.17567C91.36773,272.10129,90.21941,271.41962,89.09091,270.69806Z"/><path class="al" d="M102.0032,271.437s-3.098,1.5712-3.35455,4.47351"/><path class="am" d="M83.75988,260.025s-3.098,1.5712-3.35455,4.47351Z"/><path class="an" d="M183.53,301.07144a10.38321,10.38321,0,0,1,.27211-3.93452,7.73622,7.73622,0,0,1,.66828-1.65547,45.82215,45.82215,0,0,1,6.56279,1.82727c1.37914.50567,2.73748,1.06139,4.06558,1.68226a42.627,42.627,0,0,1,3.86387,2.0969c.33814.20639.679.42476,1.01382.6447.24665.15967.48482.32428.72685.49132.07553.04725.14477.09595.21781.14676a5.38154,5.38154,0,0,0-.68037.5927,3.3415,3.3415,0,0,0-1.00748,2.86066c-.72375-.39507-1.46815-.76615-2.21887-1.10991a43.03761,43.03761,0,0,0-7.44793-2.58549c-1.28045-.30247-2.564-.57506-3.85965-.761-.64753-.106-1.30042-.17834-1.94531-.27213C183.68235,301.08806,183.60671,301.08278,183.53,301.07144Z"/><path class="ao" d="M199.69622,303.65666s-12.058-5.68225-16.18918-4.92718l-.03419,1.62678s9.87562.73395,15.7386,4.73909Z"/><path class="ap" d="M96.92252,270.0964c-.36869.47175-.5502,1.10621-.87172,1.60856a.49487.49487,0,0,1-.21585.2134.524.524,0,0,1-.2798.00187c-.59352-.10473-1.2811-.28133-1.51151-.83825-.2474-.598.19085-1.24813.64-1.714a11.92627,11.92627,0,0,1,1.3636-1.21327,1.23956,1.23956,0,0,1,1.87473.17157.74419.74419,0,0,1,.26125.78176c-.20084.43581-.89034.55221-1.20286.91767Q96.95065,270.06035,96.92252,270.0964Z"/><path class="ap" d="M94.069,267.90933c-.36869.47175-.5502,1.10621-.87173,1.60855a.49479.49479,0,0,1-.21585.21341.524.524,0,0,1-.27979.00187c-.59353-.10473-1.28111-.28133-1.51152-.83825-.2474-.598.19086-1.24813.64-1.714a11.92532,11.92532,0,0,1,1.3636-1.21327,1.23956,1.23956,0,0,1,1.87473.17157.7442.7442,0,0,1,.26126.78176c-.20085.43581-.89034.5522-1.20287.91767Q94.09712,267.87329,94.069,267.90933Z"/><path class="ap" d="M90.36649,265.39223c-.36869.47175-.5502,1.10621-.87173,1.60855a.49482.49482,0,0,1-.21584.21341.52424.52424,0,0,1-.2798.00187c-.59353-.10473-1.28111-.28134-1.51152-.83825-.2474-.598.19086-1.24813.64-1.714a11.92522,11.92522,0,0,1,1.3636-1.21327,1.23956,1.23956,0,0,1,1.87473.17157.74419.74419,0,0,1,.26126.78176c-.20085.4358-.89034.5522-1.20287.91767Q90.39462,265.35619,90.36649,265.39223Z"/><path class="ap" d="M86.77248,263.54832c-.33906.43385-.506,1.01733-.80168,1.47932a.45508.45508,0,0,1-.19851.19626.48212.48212,0,0,1-.25732.00172c-.54584-.09632-1.17817-.25873-1.39007-.7709-.22753-.54994.17552-1.14786.58855-1.57634a10.96743,10.96743,0,0,1,1.254-1.1158,1.14,1.14,0,0,1,1.72411.15779.6844.6844,0,0,1,.24027.719c-.18471.40079-.81881.50784-1.10623.84394Q86.79836,263.51518,86.77248,263.54832Z"/><path class="am" d="M98.80127,273.87381S85.621,267.8052,81.44823,262.8177c0,0-.4798-.41695-.49966.79876s12.96128,9.385,17.83745,11.15809Z"/><path class="aq" d="M126.68466,297.45864a67.86261,67.86261,0,0,1-13.98845-11.69,78.78954,78.78954,0,0,1-5.84926-7.155c-1.48037-2.03891-2.23747-4.26051-3.73685-6.22724-.14664-.20195-.30411-.39477-.46776-.58633,1.18549,1.06682,2.35021,2.05786,3.479,3.17354.13971.12943.27832.26842.41312.40529,1.07893,1.095,2.06239,2.2246,3.00314,3.3221.92731,1.11037,1.83975,2.16914,2.71954,3.1711.44186.502.89166.983,1.34066,1.43173.44795.4586.88321.86211,1.38068,1.32554,1.92622,1.78752,3.9507,3.42658,5.9861,4.97278a68.41158,68.41158,0,0,0,6.24217,4.23564c.26134.153.52637.30825.80367.4607q.28452.16221.58713.32011c.08163.04568.16944.0901.26093.13683.25695.13459.51632.26531.78585.397a24.79174,24.79174,0,0,0,8.99926,2.69011c.732.07987,1.463.12781,2.19566.13989.27849.01658.63592-.00127.952-.003l.98011-.00613c.65437-.00537,1.30007-.04768,1.95161-.06532,1.30342-.06122,2.59921-.16925,3.89794-.307.82462-.09315,1.65258-.19984,2.48981-.32175l.0086-.00513c1.778-.25774,3.58606-.58074,5.44445-.92479,2.30717-.44113,4.70664-.86142,7.14083-1.18643-4.89889,1.26094-9.89055,2.217-14.67578,3.85843-6.42231,2.20284-13.53737,2.74412-19.82993-.19487A24.25775,24.25775,0,0,1,126.68466,297.45864Z"/><path class="aq" d="M41.01911,243.87113c-9.835-12.43041-3.27962-24.68075-13.52521-40.407-4.48056-6.876-7.52165-11.80708-10.02172-15.53882,1.061.8631,2.08048,1.78431,3.07122,2.7347a51.8572,51.8572,0,0,1,10.17127,14.30983,77.615,77.615,0,0,1,3.29308,8.086c.95369,2.73826,1.7502,5.50943,2.47861,8.18007.73809,2.67157,1.473,5.231,2.3493,7.68986.44436,1.22809.91431,2.44067,1.42564,3.63709.26918.59359.51731,1.195.79878,1.78581l.41959.88171c.14044.28725.281.61659.41751.85964a27.72311,27.72311,0,0,0,9.68747,10.443,68.45341,68.45341,0,0,0,6.54358,3.7624c2.28086,1.15381,4.64026,2.25705,7.09054,3.20722.6305.24217,1.18763.45945,1.796.66162.6.20741,1.22912.40132,1.87011.57674,1.28589.35277,2.63715.71,4.035,1.05955C72.36728,255.81159,50.72517,256.14707,41.01911,243.87113Z"/><path class="ar" d="M81.44735,262.81975l1.9566-2.31411.54553-.64552c1.856.68327,3.77479,1.27481,5.56834,2.10791a30.26458,30.26458,0,0,1,3.72012,2.07514,30.23152,30.23152,0,0,1,3.49355,2.43732c1.70229,1.39036,3.197,3.02864,4.79605,4.5172l.06835.1845s-9.144-6.56745-13.13994-7.7653c-3.54137-1.06038-5.88753-.30006-6.82308-.54953C81.50949,262.8376,81.44735,262.81975,81.44735,262.81975Z"/><path class="as" d="M199.86433,302.35a3.869,3.869,0,0,0-1.39821,2.87793"/><path class="as" d="M199.17289,301.91743a3.869,3.869,0,0,0-1.39821,2.87793"/><path class="as" d="M198.48145,301.48491a3.869,3.869,0,0,0-1.39821,2.87793"/><path class="as" d="M197.79,301.05238a3.869,3.869,0,0,0-1.39821,2.87793"/><path class="as" d="M196.87217,300.47823a4.46017,4.46017,0,0,0-1.44569,3.21811"/><path class="as" d="M195.81163,300.0336a5.20843,5.20843,0,0,0-1.40585,3.23608"/><path class="as" d="M194.72048,299.45893s-1.75251,1.60656-1.58789,3.36366"/><path class="as" d="M193.42221,298.92323s-1.70517,1.69575-1.54055,3.45284"/><path class="as" d="M192.34745,298.55246s-1.77636,1.95422-1.494,3.69628"/><path class="as" d="M191.47335,298.00567s-1.82546,2.09432-1.5431,3.83637"/><path class="as" d="M190.50174,297.85534s-1.64822,1.99069-1.36587,3.73275"/><path class="as" d="M189.601,297.65332s-1.72545,2.01249-1.33284,3.733"/><path class="as" d="M188.90085,297.21537s-1.85666,2.46334-1.45023,4.1807"/><path class="as" d="M187.86542,296.7204s-1.98028,2.71914-1.62194,4.44717"/><path class="as" d="M186.46965,296.78236s-1.7031,2.42817-1.2245,4.12683"/><path class="as" d="M185.548,296.20582s-1.71936,2.97927-1.12652,4.6415"/><path class="at" d="M200.4779,302.73377a3.69569,3.69569,0,0,0-1.24465,3.09025"/><path class="at" d="M184.22793,295.869s-1.19472,3.28238-.90744,5.07135"/><path class="au" d="M183.8021,297.13692a7.73622,7.73622,0,0,1,.66828-1.65547,45.82215,45.82215,0,0,1,6.56279,1.82727c1.37914.50567,2.73748,1.06139,4.06558,1.68226a42.627,42.627,0,0,1,3.86387,2.0969c.33814.20639.679.42476,1.01382.6447.24665.15967.70263.471.94466.63808l-.68037.5927S195.81407,298.03184,183.8021,297.13692Z"/><path class="an" d="M20.33209,198.98409a10.38319,10.38319,0,0,0,3.41895-1.966,7.73646,7.73646,0,0,0,1.19625-1.3252,45.82125,45.82125,0,0,0-4.51433-5.10195c-1.05808-1.01892-2.15207-1.99724-3.29141-2.91985a42.62454,42.62454,0,0,0-3.576-2.55708c-.33353-.21376-.679-.42476-1.02328-.62959-.25148-.15194-.50371-.29408-.7598-.43864-.07553-.04725-.14961-.08821-.22726-.13166a5.38188,5.38188,0,0,1-.2353.87111,3.3415,3.3415,0,0,1-2.13159,2.15748c.6719.478,1.33125.985,1.96881,1.50967a43.03816,43.03816,0,0,1,5.58339,5.56616c.83217,1.01908,1.63883,2.054,2.37286,3.13775.37857.53592.72931,1.09134,1.09578,1.6302C20.25049,198.85436,20.28833,198.92006,20.33209,198.98409Z"/><path class="ao" d="M10.93469,185.57815s10.385,8.35679,11.51337,12.402l-1.44786.74246s-4.98057-8.55923-11.14712-12.07908Z"/><path class="as" d="M12.03615,184.85531A3.869,3.869,0,0,1,10.06,187.3717"/><path class="as" d="M12.72759,185.28783a3.869,3.869,0,0,1-1.97617,2.51639"/><path class="as" d="M13.419,185.72036a3.869,3.869,0,0,1-1.97618,2.51639"/><path class="as" d="M14.11048,186.15289a3.869,3.869,0,0,1-1.97618,2.51639"/><path class="as" d="M15.02832,186.727a4.46024,4.46024,0,0,1-2.2613,2.70792"/><path class="as" d="M15.89212,187.48616a5.20844,5.20844,0,0,1-2.29488,2.67995"/><path class="as" d="M16.88625,188.21593s-.67792,2.27875-2.33,2.89946"/><path class="as" d="M17.936,189.149s-.77884,2.27521-2.43087,2.89592"/><path class="as" d="M18.73957,189.95322s-.98012,2.45231-2.67014,2.96056"/><path class="as" d="M19.61367,190.5s-1.08461,2.55775-2.77463,3.066"/><path class="as" d="M20.17393,191.30792s-1.069,2.353-2.759,2.86129"/><path class="as" d="M20.74967,192.02953s-1.05478,2.432-2.77371,2.83173"/><path class="as" d="M21.44979,192.46748s-1.4028,2.74726-3.12488,3.13314"/><path class="as" d="M22.34787,193.182s-1.57872,2.97032-3.28937,3.40411"/><path class="as" d="M22.90281,194.46423s-1.43835,2.59378-3.1752,2.90658"/><path class="as" d="M23.82447,195.04077s-1.92678,2.84952-3.68086,3.04365"/><path class="at" d="M11.42258,184.47149a3.69566,3.69566,0,0,1-2.23427,2.47119"/><path class="at" d="M24.70484,196.08045s-2.42889,2.51035-4.16324,3.03469"/><path class="au" d="M23.751,197.01806a7.73646,7.73646,0,0,0,1.19625-1.3252,45.82125,45.82125,0,0,0-4.51433-5.10195c-1.05808-1.01892-2.15207-1.99724-3.29141-2.91985a42.62454,42.62454,0,0,0-3.576-2.55708c-.33353-.21376-.679-.42476-1.02328-.62959-.25148-.15194-.731-.42573-.98706-.5703l-.2353.87111S17.69107,186.6082,23.751,197.01806Z"/><path class="ah" d="M139.42115,100.07239a43.28119,43.28119,0,0,1,3.02639-4.496,7.15567,7.15567,0,0,1-2.66285,6.39852c-1.50953,1.318-3.85481,2.81091-5.88685,2.97723A17.1879,17.1879,0,0,0,139.42115,100.07239Z"/><path class="ac" d="M39.29865,112.27639a1.60706,1.60706,0,0,0-2.75472,1.497c.20669.38034.76683-.05877,1.52753-.47215S39.50534,112.65674,39.29865,112.27639Z"/><path class="b" d="M109.30354,271.71263c.2592-2.24911-3.05329-4.60627-4.016-7.20907-.91018-2.46089-.2663-4.00469-3.73634-3.88595-5.54169.18962-10.288.81548-12.28417,6.02371A10.04746,10.04746,0,0,0,95.642,279.61871c3.89112,1.36555,8.00764-.21354,10.6374-2.358A11.52353,11.52353,0,0,0,109.30354,271.71263Z"/></symbol></defs><use width="206.24031" height="324.11522" xlink:href="#d"/></svg>