<svg xmlns="http://www.w3.org/2000/svg" xmlns:xlink="http://www.w3.org/1999/xlink" viewBox="0 0 281.03329 417.93914"><defs><style>.a{fill:#879647;}.b{fill:#ffcfae;}.c{fill:#683c11;}.d{fill:#353363;}.e{fill:#1d1d1b;}.f{fill:#f7f3f8;}.ad,.ae,.ai,.al,.as,.at,.g,.l,.q,.u{fill:none;}.g{stroke:#8c5632;stroke-width:1.42766px;}.ad,.ae,.al,.as,.at,.g,.l,.q,.u{stroke-linecap:round;}.ad,.ai,.as,.g{stroke-miterlimit:10;}.h{fill:#d9d6da;}.i{fill:#f8e1f2;}.j{fill:#dce3f6;}.k{fill:#696987;}.l{stroke:#1d1d1b;stroke-width:2.85533px;}.ae,.al,.at,.l,.q,.u{stroke-linejoin:round;}.m{fill:#e29460;}.n{clip-path:url(#a);}.o{fill:#97a34f;}.p{fill:#a3af5a;}.ad,.q{stroke:#879647;}.q{stroke-width:25.69793px;}.r{fill:#756f48;}.s{clip-path:url(#b);}.t{fill:#73842f;}.u{stroke:#66184a;stroke-width:4px;}.v{fill:#546023;}.w{fill:#689300;}.x{fill:#99b523;}.y{fill:#b9d324;}.z{fill:#79891b;}.aa{clip-path:url(#c);}.ab{fill:#ffada4;}.ac{fill:#fff;}.ad{stroke-width:22.8426px;}.ae{stroke:#ffcfae;stroke-width:17.20006px;}.af{fill:#3c3c3b;}.ag{fill:#432918;}.ah{fill:#7d4e24;}.ai{stroke:#b2b2b2;}.ai,.as,.at{stroke-width:0.58207px;}.aj{fill:#ad8b63;}.ak{fill:#cca581;}.al{stroke:#ccb297;stroke-width:1.16414px;}.am{fill:#d3b398;}.an{fill:#b2b2b2;}.ao{fill:#c6c6c6;}.ap{fill:#ba8e6e;}.aq{fill:#896a4c;}.ar{fill:#9b5623;opacity:0.25;}.as,.at{stroke:#fff;}.as{opacity:0.42;}.at{opacity:0.32;}.au{fill:#878787;opacity:0.35;}.av{fill:#ed827a;}.aw{fill:#3b8296;}.ax{fill:#1b5060;}</style><clipPath id="a"><path class="a" d="M88.9296,369.75187l10.01857,4.4329h8.16556l4.81493,43.75437h44.91889s1.22529-58.8562-5.24327-87.261l-54.7666,7.62Z"/></clipPath><clipPath id="b"><path class="a" d="M56.16414,260.48032l-9.59093,38.70786c-1.2545,5.06305-2.57735,10.11187-4.01385,15.13263-1.36708,4.77815-2.07962,9.55175-4.01248,14.24715a1.56984,1.56984,0,0,0-.17781.88993,1.34932,1.34932,0,0,0,.56786.73185,8.7327,8.7327,0,0,0,4.8562,1.77977c.779.03988,1.567-.02224,2.33942.07218,1.83556.22437,3.40547,1.29811,5.02733,2.14571a21.76407,21.76407,0,0,0,6.19047,2.11884,48.682,48.682,0,0,1,1.7413-8.01083c5.23133-17.32485,6.972-36.135,10.30237-53.98788.74115-3.973,1.21267-7.13878-.36181-10.73151-1.61133-3.67685-4.18387-6.26913-2.04574-10.57211C63.42024,255.50954,59.57793,257.77106,56.16414,260.48032Z"/></clipPath><clipPath id="c"><path class="b" d="M176.78165,152.02937a28.48082,28.48082,0,0,1,.18225,4.92088,20.63847,20.63847,0,0,1-2.91607,9.84176c-5.9393,8.79463-17.46223,14.20318-27.91038,13.11849a6.53466,6.53466,0,0,1-1.94352-.40153h0A100.34582,100.34582,0,0,1,73.8954,207.77781C45.1783,207.77778,0,194.38193,0,159.00863A37.98126,37.98126,0,0,1,17.30483,127.087a1.205,1.205,0,0,1,.28442-.17288.4438.4438,0,0,1,.22865-.11432,1.21,1.21,0,0,1-.28442-.74172,22.71065,22.71065,0,0,1-1.77063-4.22722,74.91258,74.91258,0,0,1-2.16938-14.84546,41.25029,41.25029,0,0,1,30.494-38.37681c2.89389-13.04313,9.17663-23.3973,20.55994-30.42648,7.322-4.52133,15.38184-7.69265,23.4108-10.78956,11.35311-4.37908,20.77165-6.23263,32.86517-4.47942A99.70509,99.70509,0,0,1,151.26884,32.383c17.748,8.89916,32.78267,23.48532,40.79747,41.78844a74.41625,74.41625,0,0,1,6.26448,29.78574C198.33078,123.37562,189.63061,137.9814,176.78165,152.02937Z"/></clipPath></defs><path class="c" d="M137.88273,43.96951c.55274-10.21728,6.198-20.36572,14.6521-27.98925a57.901,57.901,0,0,1,14.18067-9.354,66.06429,66.06429,0,0,1,15.71875-5.04541,73.85165,73.85165,0,0,1,30.41552.71143A78.97908,78.97908,0,0,1,238.97551,13.6199c1.92065,1.32764,3.79687,2.6211,5.66308,4.1294l2.77808,2.21631,2.73437,2.38428c1.81568,1.55712,3.57349,3.35058,5.31421,5.062.865.88867,1.70533,1.8247,2.53931,2.75049.83716.92138,1.65991,1.86083,2.45386,2.85644A90.38995,90.38995,0,0,1,275.861,59.48953a89.86853,89.86853,0,0,1,5.59985,29.15723,98.05047,98.05047,0,0,1-.697,13.90479,102.19772,102.19772,0,0,1-2.541,12.98339,100.84769,100.84769,0,0,1-3.99805,11.96387,103.84979,103.84979,0,0,1-5.14428,10.9541,108.12258,108.12258,0,0,1-6.08594,9.97364c-1.06714,1.58447-2.21655,3.13964-3.31055,4.63037-1.08618,1.37207-2.17944,2.749-3.26928,4.03173-8.73511,10.37891-17.50586,18.2129-25.606,25.646-8.09131,7.42725-15.69263,14.22754-22.06641,22.07178a72.80887,72.80887,0,0,0-8.50927,12.94971c-.648,1.1997-1.12745,2.43505-1.71412,3.707l-1.52026,3.80664a18.37649,18.37649,0,0,0-1.01074,3.416,5.05228,5.05228,0,0,0,.40845,3.33789l.12426.228a1.36684,1.36684,0,0,1-1.42895,2.001,8.588,8.588,0,0,1-4.91089-3.16846,19.848,19.848,0,0,1-2.8811-4.90283c-.17823-.41846-.344-.8335-.50562-1.251l-.44458-1.15039-.88013-2.3418c-.48339-1.57861-.99926-3.20019-1.3645-4.84179a69.30172,69.30172,0,0,1-1.70337-20.50586,101.01771,101.01771,0,0,1,1.1626-10.24756c.561-3.354,1.27051-6.687,2.08179-9.918,1.63769-6.47314,3.65722-12.67529,5.78149-18.55273,4.24194-11.76026,8.83618-22.46338,11.72974-31.73291.37915-1.16309.675-2.27784.99511-3.3877.24585-1.02685.48438-1.96631.67139-2.94385.18677-.96826.37671-1.92187.49829-2.8706.16773-.94239.26587-1.86768.38648-2.78125a43.34456,43.34456,0,0,0,.00464-10.002,22.9462,22.9462,0,0,0-1.98316-7.2207,18.203,18.203,0,0,0-1.43579-2.30371A17.52727,17.52727,0,0,0,200.769,92.5911a21.56023,21.56023,0,0,0-3.29882-2.019c-1.22608-.64746-2.84107-1.40966-4.885-2.25586a22.08188,22.08188,0,0,1-4.94287-2.80566,10.88145,10.88145,0,0,1-3.323-4.15039c-.4209-.89014-.7815-1.83936-1.24463-2.99024a18.33776,18.33776,0,0,0-1.93433-3.69921c-1.82666-2.64014-5.11987-5.22168-11.49975-6.38184l-14.656-2.66455A20.86914,20.86914,0,0,1,137.88273,43.96951Z"/><path class="d" d="M116.97748,310.88783,93.1566,293.49172a5.434,5.434,0,0,1-1.33237-7.37873l56.68982-86.01184a5.434,5.434,0,0,1,7.74188-1.39795l31.8083,23.22925a5.434,5.434,0,0,1,1.02468,7.80007l-64.67725,80.1787A5.434,5.434,0,0,1,116.97748,310.88783Z"/><path class="e" d="M151.7734,197.83279s.27416,12.57726,21.06143,23.65848,12.00638.77153,12.00638.77153Z"/><polygon class="f" points="188.101 213.323 187.577 205.464 198.066 191.328 198.59 199.186 188.101 213.323"/><polygon class="f" points="188.54 213.649 196.213 211.871 206.702 197.735 199.029 199.512 188.54 213.649"/><line class="g" x1="200.92541" y1="196.03818" x2="172.08287" y2="234.9122"/><polygon class="f" points="160.924 195.201 160.4 187.343 170.889 173.206 171.412 181.065 160.924 195.201"/><polygon class="f" points="161.363 195.527 169.036 193.75 179.525 179.613 171.852 181.391 161.363 195.527"/><line class="g" x1="173.74824" y1="177.91658" x2="144.9057" y2="216.79061"/><polygon class="f" points="175.262 197.67 174.738 189.811 185.227 175.674 185.751 183.533 175.262 197.67"/><polygon class="f" points="175.701 197.996 183.374 196.218 193.863 182.082 186.19 183.859 175.701 197.996"/><line class="g" x1="188.08643" y1="180.38491" x2="159.24389" y2="219.25893"/><polygon class="h" points="177.533 206.844 177.009 198.985 187.498 184.848 188.022 192.707 177.533 206.844"/><polygon class="h" points="177.972 207.17 185.645 205.392 196.134 191.256 188.461 193.033 177.972 207.17"/><line class="g" x1="190.35742" y1="189.55892" x2="161.51488" y2="228.43295"/><polygon class="i" points="176.663 216.581 176.139 208.722 186.628 194.585 187.152 202.444 176.663 216.581"/><polygon class="i" points="177.102 216.907 184.775 215.129 195.264 200.993 187.591 202.77 177.102 216.907"/><line class="g" x1="189.48739" y1="199.29596" x2="160.64485" y2="238.16998"/><polygon class="j" points="161.253 205.998 160.729 198.14 171.218 184.003 171.742 191.862 161.253 205.998"/><polygon class="j" points="161.692 206.324 169.365 204.547 179.854 190.41 172.181 192.188 161.692 206.324"/><line class="g" x1="174.07748" y1="188.71362" x2="145.23494" y2="227.58764"/><polygon class="f" points="165.206 214.435 164.683 206.576 175.171 192.439 175.695 200.298 165.206 214.435"/><polygon class="f" points="165.645 214.761 173.318 212.983 183.807 198.847 176.134 200.624 165.645 214.761"/><line class="g" x1="178.03054" y1="197.14991" x2="149.18799" y2="236.02393"/><path class="d" d="M152.23405,199.82192s-.12934,6.05242,9.45808,14.12286S175.8037,222.832,175.8037,222.832l7.43,3.3789-20.35937,26.28644-29.77711-15.036,12.13777-25.23264Z"/><path class="k" d="M151.7734,197.83279s1.96109,16.22689,25.46111,25.61462c0,0-22.72781-9.44572-25.72414-16.396l-2.99632-6.95027A3.882,3.882,0,0,1,151.7734,197.83279Z"/><path class="k" d="M182.18459,237.79387s-18.10795-4.10006-20.293-8.06921l-3.09021,6.49653s17.04954,9.42434,19.143,6.82918Z"/><polygon class="l" points="164.063 228.875 157.927 241.847 151.773 235.376 157.486 224.96 164.063 228.875"/><path class="b" d="M56.13037,349.33649c-.10975-2.90416-1.57989-5.70414-2.95621-8.67209-1.30128-2.80613-1.64061-5.194-5.02874-5.6129-5.77028-.71337-11.36162,4.51224-12.4886,11.67173s2.86574,12.08953,8.636,12.80289a10.66871,10.66871,0,0,0,10.30989-4.88052A8.92774,8.92774,0,0,0,56.13037,349.33649Z"/><polygon class="b" points="42.59 322.151 39.316 338.842 51.762 341.382 55.212 319.974 42.59 322.151"/><path class="m" d="M40.7216,331.67709s7.08735,4.62915,11.858,4.62915l.746-4.62915-11.98682-3.14661Z"/><path class="a" d="M64.80366,338.29814c-5.78211,36.01048-3.569,79.641-3.569,79.641h36.263s4.10774-30.75422,4.24679-43.75437l13.41331-8.37326.538-27.51337Z"/><path class="a" d="M88.9296,369.75187l10.01857,4.4329h8.16556l4.81493,43.75437h44.91889s1.22529-58.8562-5.24327-87.261l-54.7666,7.62Z"/><g class="n"><path class="o" d="M139.11237,367.20639l4.24624,30.02648s11.2309-.80184,13.30053-3.55166c0,0-.58635-30.11016-.45061-32.30209Z"/><polygon class="a" points="139.112 367.206 146.037 394.428 156.659 393.681 160.435 362.716 155.442 359.988 139.112 367.206"/><path class="p" d="M155.86556,353.35166s-11.27967,6.38664-18.79621,6.8401l2.043,7.01463s14.54727-2.1,17.09616-5.82727Z"/></g><line class="q" x1="157.65307" y1="262.14652" x2="174.0478" y2="319.97438"/><path class="r" d="M65.15168,327.8001s34.30682,7.53457,87.1916-1.67547l-1.65242,10.18161s-42.46995,10.25-57.44046,8.64866a165.852,165.852,0,0,1-28.47326-5.85672Z"/><path class="a" d="M56.16414,260.48032l-9.59093,38.70786c-1.2545,5.06305-2.57735,10.11187-4.01385,15.13263-1.36708,4.77815-2.07962,9.55175-4.01248,14.24715a1.56984,1.56984,0,0,0-.17781.88993,1.34932,1.34932,0,0,0,.56786.73185,8.7327,8.7327,0,0,0,4.8562,1.77977c.779.03988,1.567-.02224,2.33942.07218,1.83556.22437,3.40547,1.29811,5.02733,2.14571a21.76407,21.76407,0,0,0,6.19047,2.11884,48.682,48.682,0,0,1,1.7413-8.01083c5.23133-17.32485,6.972-36.135,10.30237-53.98788.74115-3.973,1.21267-7.13878-.36181-10.73151-1.61133-3.67685-4.18387-6.26913-2.04574-10.57211C63.42024,255.50954,59.57793,257.77106,56.16414,260.48032Z"/><g class="s"><path class="t" d="M73.15862,259.55707c9.994,25.05551,8.65764,35.7188-5.47349,63.33491-1.07318,2.0973.97469,4.68551.07711,6.86109-8.14711-5.05035-7.94176-19.12331-7.29015-27.50425.3949-5.07922.81777-10.15716,1.24063-15.23507.38189-4.58583.713-9.32384,2.14609-13.76409.78645-2.43675,2.06288-7.01,3.48663-9.04167C67.65622,263.76451,73.11532,259.85406,73.15862,259.55707Z"/></g><path class="a" d="M100.83962,243.64072l13.11056-14.28692h-21.068c-9.55622,0-21.8132,4.776-21.96153,14.28692-.55528,35.60626-13.933,66.88992-6.971,82.20291,1.90358,4.18026,15.14657,6.23933,30.77845,6.815C88.31978,302.94061,100.83962,243.64072,100.83962,243.64072Z"/><path class="a" d="M151.53479,326.78c6.35667-2.45316-1.6741-49.40193-5.09546-73.7761-1.93069-13.75445-10.48418-23.65011-24.50659-23.65011h-7.98256l-13.11056,14.28692s-12.51984,59.29989-6.1115,89.01792C119.36467,333.56874,147.4968,328.33835,151.53479,326.78Z"/><path class="t" d="M152.75423,299.05393l-4.4583-33.12251-10.9628,8.50369S149.70817,289.769,152.75423,299.05393Z"/><path class="u" d="M143.84745,278.20841a2.47955,2.47955,0,0,0,.52451-2.80853,6.84365,6.84365,0,0,0-2.5577,2.59183l2.58979.20418a9.46392,9.46392,0,0,1-2.60549,2.31513c-.38456.2309-.85334.60532-.68266,1.02014a.91647.91647,0,0,0,.535.41836l2.73729,1.18059a4.41418,4.41418,0,0,0-1.7571,1.56506,1.52119,1.52119,0,0,0,.51,2.06416c.5478.24237,1.47335.28071,1.3805.87249a.8546.8546,0,0,1-.33653.46868l-1.09054.94871a1.167,1.167,0,0,0-.44076.59508c-.11336.5579.57078.92385,1.13173,1.02109s1.25817.22693,1.413.77522c.29666,1.0527-1.29555,1.17972-1.41486,1.92246-.2184,1.35966,1.09619,1.1276,1.14251,2.33164.12759,3.31688-3.50035,2.91233-5.37312,1.27563a35.87478,35.87478,0,0,1-5.71619-5.81865c-2.3114-3.20824-3.49321-7.07579-4.52492-10.893a52.94,52.94,0,0,0,6.10606,10.69473,19.87244,19.87244,0,0,0,10.5657,6.98073c3.03874.7786,5.84984-.95774,8.79232-.23013"/><path class="v" d="M92.1186,332.52726c.87688.043,1.72928.10033,2.62574.13138-6.40425-29.69653,6.09169-88.92715,6.10894-89.01315C89.26969,288.74686,92.10558,332.34094,92.1186,332.52726Z"/><path class="w" d="M166.35588,272.68753c.14225-.0727-2.26-4.4054-1.84923-5.089a3.91073,3.91073,0,0,1,4.1927-1.27844c1.6796.45805,2.97819,2.27855,3.62671,2.70423.18461.12118.55891-.53822.78346-.54043.27033-.00266.83667.75006,1.05424.58327.58321-.4471.538-1.714,1.12119-2.161.09232-.07078-.45823.0998-.44085-.01354.02076-.13533.50906.26859.413.17459-1.01636-.99483-1.0995-2.82408-1.97913-3.94126a9.54846,9.54846,0,0,1-2.17441-4.06722,16.12031,16.12031,0,0,0-6.82011,1.04679c-1.20968.41626-1.82818,2.59-3.04353,2.98852-1.21431.39813-3.07931-1.00679-4.27155-.54027-1.31316.51429-2.56118,1.05121-3.8985,1.49159-1.33861.4408-2.10486,2.76467-3.45991,3.14812-1.35641.38384-2.8001.55232-4.16517.89544-1.52885.38429-3.20876.23426-4.75782.56991-1.54191.33411-2.98237,1.297-4.54025,1.58635-1.55211.28829-3.34415-.74426-4.90809-.497-1.56054.24675-3.11321.51353-4.68153.72284-1.56735.20917-3.03282,1.28509-4.604,1.46024-1.56713.17648-3.11173.7687-4.68351.91152-1.57269.14291-3.28829-1.46676-4.86076-1.36043-1.57782.1067-3.11293.7647-4.6856.83168-1.58185.06736-3.1439.95191-4.71556.97614-1.58511.02443-3.15758-1.82007-4.72721-1.84254-1.5273-.02562-3.048.935-4.54312.84315-1.5198-.09334-2.94612-.87806-4.43949-1.0452-1.50763-.16874-3.22024,1.1675-4.708.918-1.48988-.24988-2.83035-1.369-4.30738-1.70548-1.46658-.33413-2.63787-1.70264-4.09877-2.1277-1.56908-.45653-3.2409-.49078-4.7943-.99238-1.55419-.50185-3.256-.54023-4.80224-1.06437-1.54659-.52424-3.358-.26613-4.90445-.78983-.66541-.22533-1.68084-1.65088-2.98207-2.14826-1.36075-.52014-2.818-.86769-3.4949-.50681-.64858.34579-.54444,2.31511-1.21884,3.93487a19.76029,19.76029,0,0,1-2.40683,3.4519c2.07128.67815,1.56037,2.3806,3.63477,2.21709,1.15053-.09068,1.95768-1.73814,3.27068-1.59023,1.65389.18632,4.63107,1.56645,2.36565,3.28955-.77591.59017-2.71469,1.908-2.19793,2.6973.68738,1.04995,3.22862-.36208,4.25259.3664.58537.41645.08364,1.93525.63472,2.395.66574.55542,3.04128-.33336,3.61268-1.02193a33.87764,33.87764,0,0,0,.92483-4.83881c1.9363.6384,4.9743,1.26159,6.92962,1.83059-.03843,2.8274-3.33042,2.4357-3.30569,5.26324,2.086.58011,3.97327.82429,6.13313,1.27949,1.70623-2.22934.72329-2.54211,2.35078-4.82957,1.92423.41357,4.21143.42827,6.16554.69751a6.95862,6.95862,0,0,1-1.7526,5.08137,7.22041,7.22041,0,0,0,5.16555-.93914c1.46168-.95478,2.038-1.51241,2.15068-3.29553.49822.001,5.45552.02725,5.46884-.01073-.21548.61449-.56583,3.43113-.21508,3.94715.85852,1.26306,2.77951-.19691,3.92356.45215,2.91183,1.652,3.85366-2.3307,3.864-4.23358-.00013.02432,4.64273.07954,5.122.10166a8.72718,8.72718,0,0,0-.093,3.22716c.95922,1.17156,3.36594-.38156,4.71939-1.02178,1.39651-.66058,2.90641-.69211,3.91257-1.69334a4.49488,4.49488,0,0,1,3.72615-1.737c.09245.50532.4647,4.17109.48812,4.16815.00358-.00045,6.59421,1.50685,6.63592,1.50161.03165-.004.32862-3.44646.35064-3.63595.17058-1.46773-.25631-3.09183.78859-3.621,1.04789-.53069,1.95938.22985,3.12681.0495,1.04577,2.5543-.98294,4.27618,1.4071,5.65667,2.79248,1.61295,4.28857.53248,6.26612-2.01482,1.69364-2.18158-1.73888-2.43423-1.36182-5.17019,2.02246-.44687,3.67632-.26648,5.67952-.80495,1.67369,2.92029,1.48044,2.66689,3.18529,5.5691,2.11075-.50239,2.61074-.64254,4.72051-1.28371.152-3.35672-.49442-3.07178-.42584-6.43124,1.93033-.52737,2.522-.78247,4.42476-1.40421,1.95241,2.72994.37841,3.39838,1.998,6.338,1.06231-.441,2.97523-1.40617,4.03716-1.83637C164.708,274.5073,165.31409,273.22,166.35588,272.68753Z"/><path class="x" d="M55.07189,263.921a1.08446,1.08446,0,0,0,.55622.47244,95.70137,95.70137,0,0,0,41.7376,9.99452,182.73785,182.73785,0,0,0,40.19738-3.35284,129.99864,129.99864,0,0,0,19.96091-5.66618c3.61988-1.36488,11.22362-2.27853,13.76186-5.24764-6.1395-11.38805-13.98727-24.29441-27.01193-28.56792-10.69184-3.50807-28.84641-5.04717-40.17983-3.71584-10.5112,1.23475-24.02945.11948-33.24279,6.639-8.86282,6.27154-12.58871,19.01722-15.71746,28.66907A1.24075,1.24075,0,0,0,55.07189,263.921Z"/><path class="y" d="M98.94649,259.85734c.07366,2.00322-1.36289,3.74794-2.22708,5.59a10.32189,10.32189,0,0,0,.00994,8.77385,33.15162,33.15162,0,0,0,8.30856-.37773c-2.478-.31971-5.12667-1.36692-6.07082-3.64907a1.51424,1.51424,0,0,1-.14051-.859c.14752-.75386,1.07813-1.03791,1.83868-1.16607l6.83831-1.1523-5.58245-.33087c-1.315-.07794-2.98951-.48515-3.08383-1.79182a2.15125,2.15125,0,0,1,1.7903-1.969,12.53744,12.53744,0,0,1,2.85911-.068,3.11264,3.11264,0,0,0,2.57718-1.04988,12.38746,12.38746,0,0,1-4.503-2.103,2.308,2.308,0,0,1-1.11555-1.61162,1.96243,1.96243,0,0,1,1.33379-1.71645,9.36735,9.36735,0,0,1,2.26037-.41961,9.72336,9.72336,0,0,0,5.59061-2.88789c-2.06787-1.61274-5.32272.7408-7.789-.19659-1.17564-.44685,1.57741-8.40358-3.46919-3.54441C94.29928,253.24923,98.79768,255.81841,98.94649,259.85734Z"/><path class="z" d="M101.84767,248.76329a18.32441,18.32441,0,0,0,6.96266-2.7524,45.2,45.2,0,0,0,11.803-10.27474c.924-1.14275,1.69057-3.0585.46446-3.78981a2.604,2.604,0,0,0-1.066-.27206L103.526,229.88592c-5.06377-.54931-14.30595-.05232-13.79049,7.27789C90.12589,242.71532,96.06483,249.5046,101.84767,248.76329Z"/><polygon class="b" points="118.487 229.397 100.842 245.799 94.582 229.397 94.582 191.396 118.487 191.396 118.487 229.397"/><polygon class="m" points="94.582 217.914 118.487 204.792 118.487 196.813 94.582 199.598 94.582 217.914"/><path class="b" d="M176.78165,152.02937a28.48082,28.48082,0,0,1,.18225,4.92088,20.63847,20.63847,0,0,1-2.91607,9.84176c-5.9393,8.79463-17.46223,14.20318-27.91038,13.11849a6.53466,6.53466,0,0,1-1.94352-.40153h0A100.34582,100.34582,0,0,1,73.8954,207.77781C45.1783,207.77778,0,194.38193,0,159.00863A37.98126,37.98126,0,0,1,17.30483,127.087a1.205,1.205,0,0,1,.28442-.17288.4438.4438,0,0,1,.22865-.11432,1.21,1.21,0,0,1-.28442-.74172,22.71065,22.71065,0,0,1-1.77063-4.22722,74.91258,74.91258,0,0,1-2.16938-14.84546,41.25029,41.25029,0,0,1,30.494-38.37681c2.89389-13.04313,9.17663-23.3973,20.55994-30.42648,7.322-4.52133,15.38184-7.69265,23.4108-10.78956,11.35311-4.37908,20.77165-6.23263,32.86517-4.47942A99.70509,99.70509,0,0,1,151.26884,32.383c17.748,8.89916,32.78267,23.48532,40.79747,41.78844a74.41625,74.41625,0,0,1,6.26448,29.78574C198.33078,123.37562,189.63061,137.9814,176.78165,152.02937Z"/><g class="aa"><path class="m" d="M176.78165,152.02937c.42-.48758-.13411-2.46353-.29483-3.01377a8.70934,8.70934,0,0,0-1.31228-2.65812c-5.1007-7.0307-19.92485-6.50182-23.89209,1.67755a7.21832,7.21832,0,0,0,.34351-3.81471l-.27107-2.99012c3.96557-1.123,8.444-1.0657,12.52159-1.4119,8.58773-.729,18.16253,6.10554,18.16253,6.10554Z"/><path class="c" d="M182.13893,148.56109a53.62428,53.62428,0,0,0,11.05645-14.078c14.50956-27.7416,8.43929-67.1436-10.26994-91.44349a80.16539,80.16539,0,0,0-56.781-30.619A95.15066,95.15066,0,0,0,94.973,15.62571C84.45308,18.39238,74.23043,22.66266,65.4705,29.11138,60.334,32.89267,52.17034,39.53755,49.70508,45.59166A10.41233,10.41233,0,0,0,50.749,55.66918c1.81631,2.37818,4.70577,3.65893,7.5405,4.61759,12.18164,4.11963,25.32875,3.99632,38.044,5.916,7.07424,1.068,13.9163,3.46289,20.94636,4.54444,5.80188.8926,11.38885,1.37,16.86889,3.96388a29.05709,29.05709,0,0,1,14.009,13.86447,24.427,24.427,0,0,1,.46366,19.53242c-1.90785,4.44954-5.19629,8.14219-7.75067,12.25478s-4.40979,9.12449-3.00126,13.75646c1.51579,4.98458,6.415,7.79325,11.29123,8.63181,6.30827,1.08482,12.51049-2.16039,18.731-.452a13.1121,13.1121,0,0,1,9.28848,10.59011C178.87846,151.50331,180.54122,150.06486,182.13893,148.56109Z"/></g><polygon class="o" points="138.965 329.004 135.701 329.785 135.701 342.246 138.064 342.246 138.965 329.004"/><path class="b" d="M176.12122,146.20834c2.90027,8.97171,1.31086,20.01785-7.98539,24.55442a29.49624,29.49624,0,0,1-4.31436,1.60454,5.40172,5.40172,0,0,1-2.80479.32785c-1.64288-.39479-2.40141-2.04587-3.967-2.59554a11.36049,11.36049,0,0,1-3.57126-1.67873,11.20436,11.20436,0,0,1-3.71989-6.79181,23.643,23.643,0,0,1,2.991-16.31531C157.87419,137.13126,172.90117,136.24743,176.12122,146.20834Z"/><path class="m" d="M165.62119,158.33062a5.506,5.506,0,0,0,.33444-1.17613c.42872-2.64283-2.5045-4.03417-4.774-4.1711a8.918,8.918,0,0,1,5.06278-3.59211,5.79284,5.79284,0,0,1,6.02469,1.71847c-1.094-3.21362-3.6125-3.95628-6.81736-3.43748a13.17044,13.17044,0,0,0-8.89775,5.92221,13.84111,13.84111,0,0,0-1.27157,2.3465c-.24095.5724-.35942,1.92917-.73919,2.35334a8.46956,8.46956,0,0,1,2.766-2.31518,2.89331,2.89331,0,0,1,3.34085.55511c2.02789,2.48309-1.01744,6.22935-3.04983,7.67885,1.60652-1.14577,3.883-1.2,5.544-2.597A8.786,8.786,0,0,0,165.62119,158.33062Z"/><path class="c" d="M42.08592,86.78173a27.92556,27.92556,0,0,0-12.4541,1.2456c-1.04614.31592-2.02.70752-3.09448,1.09277-1.06079.38477-2.13062.75586-3.14893,1.14893a33.79788,33.79788,0,0,0-5.81762,3.09229.57908.57908,0,0,1-.67994-.9336,35.48223,35.48223,0,0,1,5.531-4.15674c1.00684-.58349,1.99731-1.11328,2.98315-1.65869.97022-.54834,2.05591-1.062,3.11866-1.52685a31.7789,31.7789,0,0,1,13.979-2.85157l.012.00049a2.287,2.287,0,0,1-.18384,4.57032A2.3725,2.3725,0,0,1,42.08592,86.78173Z"/><path class="c" d="M93.96532,87.3037a27.468,27.468,0,0,1,10.73681,2.38721,45.2601,45.2601,0,0,1,9.03882,5.30517,66.3413,66.3413,0,0,1,7.699,6.7627,76.302,76.302,0,0,1,6.61523,7.69433.72307.72307,0,0,1-.145,1.01221.73137.73137,0,0,1-.96606-.08936,74.25877,74.25877,0,0,0-7.20044-6.76562,63.30724,63.30724,0,0,0-7.98682-5.6377,41.1854,41.1854,0,0,0-8.66821-3.92724,22.31333,22.31333,0,0,0-8.84741-1.0376,2.86021,2.86021,0,1,1-.303-5.7041Z"/><ellipse class="ab" cx="106.53487" cy="162.10448" rx="18.85755" ry="7.63508"/><ellipse class="ab" cx="17.22944" cy="147.52146" rx="13.01514" ry="7.63508"/><path class="m" d="M56.21951,103.91026a15.90221,15.90221,0,0,0-13.31163-5.90185,21.41172,21.41172,0,0,0-13.51021,6.10948,16.83579,16.83579,0,0,0-3.82737,5.13389c-2.196,4.83608-.98442,10.80671,2.3173,14.96706C34.3,132.29878,47.42521,134.452,56.23415,129.12357,64.31457,124.23579,60.95053,110.17147,56.21951,103.91026Z"/><path class="ac" d="M60.31145,125.81527c1.01394-13.30467-7.60491-27.264-19.48013-28.169S18.3214,109.23328,17.30746,122.538s7.97682,22.3838,19.852,23.2888S59.29751,139.11994,60.31145,125.81527Z"/><ellipse class="c" cx="38.7977" cy="122.23637" rx="19.12003" ry="10.69542" transform="translate(-88.34985 138.98421) rotate(-79.8944)"/><ellipse class="ac" cx="47.9087" cy="113.75355" rx="4.23093" ry="1.58911"/><ellipse class="e" cx="39.07971" cy="123.49813" rx="8.07414" ry="3.87098" transform="translate(-89.35952 140.30221) rotate(-79.8944)"/><path class="m" d="M114.22634,118.4234a25.87934,25.87934,0,0,0-18.8224-14.075,16.8768,16.8768,0,0,0-11.15978,1.60272c-6.56555,3.815-8.21373,13.24379-5.03729,20.141s9.97686,11.48436,17.05063,14.24519c5.1502,2.01007,15.92957,5.26628,18.60739-1.33123A25.85616,25.85616,0,0,0,114.22634,118.4234Z"/><path class="ac" d="M114.728,133.9762c.6-14.45-10.487-30.03535-24.937-30.63541s-26.7911,14.01238-27.39116,28.46241S73.16789,155.06892,87.61793,155.669,114.12791,148.42623,114.728,133.9762Z"/><ellipse class="c" cx="90.84646" cy="129.51198" rx="20.97654" ry="11.73391" transform="translate(-52.59648 196.22449) rotate(-79.8944)"/><ellipse class="ac" cx="100.8421" cy="120.2055" rx="4.64174" ry="1.74341"/><ellipse class="e" cx="90.68431" cy="130.42174" rx="7.68711" ry="3.87098" transform="matrix(0.17546, -0.98449, 0.98449, 0.17546, -53.62581, 196.81498)"/><circle class="ab" cx="52.71614" cy="145.89932" r="7.63508"/><polygon class="a" points="100.842 245.799 118.181 229.354 118.487 220.102 138.635 235.159 124.941 233.708 100.842 245.799"/><polygon class="a" points="100.842 245.799 94.61 229.354 94.862 221.734 78.736 232.892 87.071 233.708 100.842 245.799"/><path class="y" d="M135.48683,248.95757c2.00606-2.31592,3.98242-4.79191,6.68666-6.22655-.05723,2.87075-2.02257,5.39188-4.06018,7.49067a49.72132,49.72132,0,0,1-12.8173,9.8851c-4.87013,2.48128-9.05948,5.08644-14.59877,5.98257,4.6788-1.73468,10.11275-3.72166,13.97434-6.94594A91.30764,91.30764,0,0,0,135.48683,248.95757Z"/><path class="y" d="M118.42284,266.7438a69.54867,69.54867,0,0,0,31.33479-11.34914c.43656-.292.90614-.91227.513-1.23515a.80509.80509,0,0,0-.56146-.11241c-3.1718.17544-6.095,1.80289-8.95318,3.26583a108.76225,108.76225,0,0,1-27.72112,9.73619,53.40161,53.40161,0,0,0,12.75442-1.11575"/><path class="y" d="M83.20241,260.03454c1.88426,3.73517,8.95805,9.88651,13.524,7.06573C93.25242,264.5052,85.46039,264.51054,83.20241,260.03454Z"/><path class="z" d="M70.30253,254.79536a24.72111,24.72111,0,0,1-4.8783,7.78461,1.20648,1.20648,0,0,0-.36408.58369c-.12156.76066,1.15335.90962,1.44177,1.61073.39934.97076-.922,1.38069-1.56329,1.61894-.38611.14345-.73635.28462-1.133.405a11.382,11.382,0,0,1-1.236.48411l4.599,1.74446a4.815,4.815,0,0,1,1.00177.47076c.11274-2.50018.97212-4.86216,1.31961-7.33519C69.83419,259.71268,69.97314,257.24643,70.30253,254.79536Z"/><path class="z" d="M145.80787,259.7931c-.13706,2.169,1.62743,3.88478,3.25466,5.29072a7.97053,7.97053,0,0,0-.8987.87777c.76237.47259,1.30273,1.18485,2.09182,1.63405-.268.327-2.921,1.9234-2.99325,1.58912A62.1078,62.1078,0,0,1,145.80787,259.7931Z"/><line class="ad" x1="174.30554" y1="322.10571" x2="152.47319" y2="334.95525"/><line class="ae" x1="154.35235" y1="334.18746" x2="139.37615" y2="342.83322"/><path class="t" d="M101.60539,374.278s-8.63191-.7221-14.74752-4.69361l14.237,10.46084Z"/><polygon class="o" points="75.414 330.678 72.224 329.591 72.224 342.833 74.587 342.833 75.414 330.678"/><polygon class="o" points="114.704 331.677 111.44 332.458 111.44 344.919 113.803 344.919 114.704 331.677"/><rect class="e" x="90.58595" y="332.46672" width="4.23599" height="12.60447"/><rect class="af" x="94.13858" y="334.32592" width="2.81252" height="8.36883"/><path class="m" d="M140.61036,332.23649a69.71041,69.71041,0,0,0,2.37406,7.423,86.43086,86.43086,0,0,0,5.44525,7.9824l4.32456-2.5707-11.36446-13.3941Z"/><path class="a" d="M154.21754,321.24658l-14.15473,6.357s.51251,6.53109,4.18349,11.248a81.86591,81.86591,0,0,0,8.5086,9.071l8.07045-5.30524,9.99549-11.51824Z"/><polygon class="t" points="159.874 317.25 166.236 314.783 159.327 314.783 159.874 317.25"/><path class="ag" d="M118.92417,45.55644c-.05342.46066,4.01988,2.77395,4.39794,3.02964a69.02048,69.02048,0,0,1,8.09223,6.44157c5.37606,4.89926,13.64489-.62649,19.24493,3.96572,1.89884,1.5571,2.813,3.98057,4.203,6.00493,1.81558,2.64416,4.73559,3.89136,6.80507,6.18494a26.24193,26.24193,0,0,1,5.28974,9.697,18.76061,18.76061,0,0,0,1.5358-8.21688c.03142.76889,2.32032,3.05766,2.8134,3.8176a20.213,20.213,0,0,1,2.12047,4.32219,37.00542,37.00542,0,0,1,2.13486,11.00893c.12713,3.28243-.24346,6.7451-2.10569,9.45114a19.92779,19.92779,0,0,0,9.44722-26.2417,33.998,33.998,0,0,1,7.33791,9.56291,7.64064,7.64064,0,0,0-1.5239-7.41826c2.838,1.641,4.1433,4.97664,5.24793,8.06321-.5419-1.51418-.08117-3.81887-.51765-5.49871a17.48817,17.48817,0,0,0-2.416-5.372,105.30312,105.30312,0,0,1-6.50646-11.29834l-6.553-12.84823L119.98434,36.41589Z"/><path class="c" d="M62.23477,65.60714A42.588,42.588,0,0,0,48.6952,66.98823c-5.49437,1.49673-10.03267,2.81331-11.65076,8.78806A27.2083,27.2083,0,0,1,29.163,88.68777c-1.42085,1.29521-3.07007,2.5774-3.52574,4.44522-.42924,1.75944.32214,3.56.66886,5.33759a12.22369,12.22369,0,0,1-3.62023,11.09271c.97148-2.75451,1.95152-5.74193,1.09995-8.53584-.35439-1.16272-1.01272-2.22256-1.29195-3.40559-.70619-2.992,1.12946-5.97292,3.14945-8.29032s4.40395-4.55266,5.14045-7.53734c.40163-1.62761-.23532-3.59712-2.20172-3.58783-1.37229.00649-3.14527,1.88818-4.09205,2.72106-4.40271,3.873-7.93514,9.25332-8.22556,15.20274-.19925,4.08169.1956,8.35187-1.464,12.08625-1.283,2.887-3.65837,5.1201-5.97322,7.27011L2.0385,121.79187c4.68553-5.07917,8.80709-10.99537,10.141-17.7757.85848-4.36377.52206-8.875,1.07562-13.28783a31.86014,31.86014,0,0,1,8.911-18.34495c5.04164-5.296,9.26381-11.32324,14.58879-16.35875a109.41966,109.41966,0,0,1,14.72693-11.9063c5.75431-3.81854,10.335-9.04054,17.23957-10.98523a8.35755,8.35755,0,0,1,3.21253-.37629c3.33717.3902,5.90728,3.12177,8.01512,6.25223,1.70557,2.533,3.10846,5.32722,4.37018,7.35352,3.124,5.01707,4.75192,14.78151-1.08847,18.4426C77.44667,68.431,68.49753,65.95259,62.23477,65.60714Z"/><path class="c" d="M121.85369,76.92963l-.09469-.03181c-5.168-1.74424-8.501-4.9841-12.89879-7.77325-4.88748-3.0997-8.27339-4.642-11.00992-10.1585-.88822-1.79055-3.992-7.2712-2.1913-9.05947a4.89149,4.89149,0,0,1,2.35343-1.06276q2.20519-.54423,4.42653-1.02c9.18481-1.96736,16.92606-1.58407,25.60918,1.70583,2.71094,1.02713,5.53459,1.75768,8.18308,2.93691,3.97248,1.76882,8.90719,7.26774,8.426,11.97553-.49065,4.79976-4.93746,6.93638-2.41547,12.47851,1.56332,3.43544,3.9809,6.03426,3.47834,10.10916-.31373,2.54295-1.98374,4.674-3.14189,6.95955a18.38393,18.38393,0,0,0-1.81882,10.6027c-3.76212-5.25592-.0011-13.055-2.82646-18.86837-1.38474-2.8492-4.18206-4.7746-7.10976-5.98481a76.09283,76.09283,0,0,0-19.78449-4.8676,33.7314,33.7314,0,0,1-8.87456-1.98755,11.37018,11.37018,0,0,1-6.41921-6.12572c-1.15885-3.11169-.52909-5.98938.0937-9.25092"/><path class="ag" d="M168.33825,134.63024a21.04942,21.04942,0,0,0,9.9952-2.90923c-.22007.12109-1.11621,3.68-2.07513,4.4356-1.74926,1.37835-2.9825,1.13948-5.10137,1.1035a103.62608,103.62608,0,0,0-15.28787.86745,22.95948,22.95948,0,0,0,16.12377-14.5196C171.95781,125.32978,171.22119,134.61417,168.33825,134.63024Z"/><path class="ah" d="M161.5986,128.96442a55.11582,55.11582,0,0,0,2.74665-11.06881,17.73937,17.73937,0,0,1-1.01672,11.74812c-1.19,2.60553-4.45426,7.601-7.50679,7.65065C158.09882,134.65753,160.25186,132.32023,161.5986,128.96442Z"/><line class="ai" x1="242.72049" y1="381.38725" x2="29.52073" y2="248.02158"/><path class="aj" d="M71.43179,331.67733a51.41631,51.41631,0,0,1-10.501-5.61438,52.2,52.2,0,0,1-9.17028-8.07068,42.71725,42.71725,0,0,1-6.86743-10.41333c-.24034-.49362-.3975-.901-.59462-1.35387l-.57156-1.32537c-.389-.882-.71441-1.79959-1.06826-2.69376-.68244-1.80674-1.29913-3.64142-1.87082-5.48213-1.14376-3.68133-1.96853-7.38975-2.75-10.94769-.79172-3.564-1.50459-6.98991-2.42774-10.35456a92.12042,92.12042,0,0,0-3.25454-9.856,67.6918,67.6918,0,0,0-4.44351-9.26078c-.4225-.75174-.89045-1.46351-1.33495-2.20151-.4791-.70466-.93785-1.43113-1.433-2.1321-.96515-1.42072-2.02022-2.77433-3.10387-4.10423a56.29178,56.29178,0,0,0-7.30289-7.28037,50.93489,50.93489,0,0,0-4.16418-3.07857c-.72075-.47164-1.44626-.92547-2.19031-1.34967-.3774-.2086-.75-.41418-1.12393-.60686-.36066-.19141-.77841-.39071-1.0685-.53095l-.15525-.06962a1.96251,1.96251,0,0,1,1.3599-3.667c.57312.15938.997.29415,1.47834.45778.46319.15934.91237.33036,1.36321.50946q1.34075.54,2.64013,1.15738a48.50078,48.50078,0,0,1,5.011,2.81173A55.5344,55.5344,0,0,1,22.56,239.56166c.09427.07975.1917.15444.28636.23411-.00317.00506.00165.00807.00671.01124,1.38773,1.1289,2.7212,2.33381,4.01706,3.57689a67.82761,67.82761,0,0,1,13.3037,18.7168,101.51734,101.51734,0,0,1,4.30724,10.57618c1.24741,3.58157,2.28921,7.20617,3.242,10.69929.96539,3.49433,1.92669,6.84194,3.0728,10.05809.5812,1.6063,1.19589,3.19231,1.86469,4.75719.35209.77641.67663,1.56308,1.04478,2.33579l.54881,1.15324c.18369.37572.36747.80648.54609,1.12439A36.261,36.261,0,0,0,67.4711,316.464a89.53367,89.53367,0,0,0,8.5588,4.9211c2.98329,1.50915,6.06931,2.95215,9.27419,4.195.82468.31674,1.55339.60093,2.34911.86536.78472.2713,1.60765.52492,2.446.75436,1.6819.46142,3.4493.92871,5.27768,1.38587a.01846.01846,0,0,1,.01329.00127c1.82891.47828,3.71545.98556,5.62555,1.63095.9494.32637,1.90309.68929,2.853,1.09143.46344.21414.97355.43031,1.39.6429.4194.20737.84824.4002,1.26876.59453.9008.426,1.8321.80277,2.76817,1.1617,2.58957.97455,5.27922,1.77838,7.79075,2.94415a39.58725,39.58725,0,0,1,4.86578,2.71422,39.54346,39.54346,0,0,1,4.56946,3.18793c2.12225,1.73286,4.00135,3.76654,5.98439,5.64531.30227.28529.60264.56236.91085.83763.46447.421.93333.8242,1.41634,1.21552.00988.00618.02157.0202.03145.02638.35414.29025.703.57719,1.06331.85757.36831.27833.79069.64547,1.186.96852.57685.505,1.14426,1.02454,1.68928,1.5579.18274.16929.364.35109.54035.53011,1.4112,1.43222,2.69754,2.90971,3.928,4.3452,1.2129,1.45233,2.40633,2.83717,3.55707,4.1477.57793.65654,1.16627,1.28572,1.75354,1.87266.58591.59984,1.15521,1.1276,1.80589,1.73376,2.51944,2.338,5.16738,4.48186,7.82963,6.50424a89.47838,89.47838,0,0,0,8.16456,5.54008c.34183.20009.68847.40318,1.05118.60258q.37938.2167.76794.4187c.10678.05975.22163.11785.3413.179.34114.17921.68545.35335,1.02786.51927a35.93007,35.93007,0,0,0,11.77074,3.51859c.95747.10446,1.91357.16717,2.87186.183.36425.02169.83177-.00166,1.24516-.00388l1.28195-.008c.8559-.007,1.70045-.06236,2.55265-.08544,1.70483-.08007,3.39969-.22137,5.09838-.40149,1.07858-.12183,2.16153-.26138,3.2566-.42083a.01816.01816,0,0,0,.01124-.00672c2.32557-.33711,4.69045-.75958,7.12117-1.2096,3.0177-.577,6.15614-1.1267,9.34-1.55181.56454-.07931,1.13089-.15079,1.69431-.21706a100.78676,100.78676,0,0,1,11.39978-.75076c2.07239.01241,4.15847.10209,6.22791.28429a68.55562,68.55562,0,0,1,7.839,1.1,59.93254,59.93254,0,0,1,8.58392,2.39c1.80387.66141,3.58054,1.38827,5.31765,2.20035a55.755,55.755,0,0,1,5.05382,2.74267c.7678.47359,1.53668.968,2.27675,1.48588.09879.0618.18935.1255.28489.192q1.10016.76062,2.154,1.59481,1.12573.8998,2.20062,1.87072c.35852.32719.70883.65628,1.05476,1.00308.35264.358.66411.68329,1.05335,1.12591a1.96223,1.96223,0,0,1-2.70249,2.82716l-.13052-.10914c-.248-.19634-.60994-.48479-.94009-.72551-.33662-.25181-.68955-.50007-1.03742-.74516-.70673-.48333-1.4373-.94033-2.17673-1.38209-.55206-.32489-1.11551-.64283-1.6831-.9429-.94665-.51674-1.9203-1.00209-2.90221-1.45172a56.29144,56.29144,0,0,0-9.74166-3.38174c-1.67479-.39562-3.35357-.75216-5.0483-.99531-.84695-.13858-1.70091-.23327-2.54441-.35594-.10351-.00977-.20244-.01668-.30279-.03151-.75979-.07-1.50382-.16463-2.26064-.20559a67.696,67.696,0,0,0-10.27175.05575,93.14265,93.14265,0,0,0-10.29137,1.38244c-3.42437.64508-6.82192,1.49971-10.36808,2.35021-3.54631.85075-7.24183,1.73153-11.04748,2.31679-1.90556.29109-3.82514.53921-5.74836.716-.96369.07-1.92639.18184-2.8894.21807l-1.44185.0659c-.49369.02071-.93361.05461-1.47782.05747a42.717,42.717,0,0,1-12.36835-1.61949,52.29952,52.29952,0,0,1-11.2693-4.71516,51.36925,51.36925,0,0,1-9.64249-6.98622,64.86768,64.86768,0,0,1-7.79742-8.67421c-.566-.7523-1.18941-1.58849-1.74131-2.40776-.56786-.81517-1.07792-1.63542-1.59527-2.43274-1.02648-1.59653-1.93174-3.17892-2.89621-4.63341a39.18354,39.18354,0,0,0-2.99136-4.07509c-.26577-.3104-.53894-.59828-.80306-.90061l-.84608-.83131c-.30158-.26442-.55762-.51376-.89381-.79949q-.50881-.42137-1.027-.82779c-.43776-.34256-.88811-.66551-1.35375-.9635-2.49574-1.62991-5.33915-2.76995-7.96811-4.15367-1.55511-.82863-3.05708-1.72024-4.53312-2.664l-.00506-.00316-.00988-.00618-.00482-.003-.00506-.00316c-1.49467-.91454-2.95835-1.87807-4.37878-2.91076-2.25266-1.65621-4.40135-3.57725-6.769-5.07209a21.12628,21.12628,0,0,0-1.911-1.07169q-.59223-.288-1.19366-.5613c-.40884-.18031-.74024-.29845-1.10972-.45381l-1.11793-.39726c-.38717-.10508-.76554-.22477-1.16094-.328a38.43167,38.43167,0,0,0-4.97336-.90718c-1.73468-.23395-3.55364-.35568-5.43836-.58022-.93849-.11337-1.89921-.21317-2.88549-.37018-.9731-.13468-2.00283-.33263-2.92211-.50941A64.85791,64.85791,0,0,1,71.43179,331.67733Z"/><path class="ak" d="M116.5281,348.07117l-.00506-.00316-.00988-.00618-.00482-.003-.00506-.00316c-1.49467-.91454-2.95835-1.87807-4.37878-2.91076-2.25266-1.65621-4.40135-3.57725-6.769-5.07209a2.86972,2.86972,0,0,1,.0027-.35534,5.056,5.056,0,0,1,.79859-2.528,17.11971,17.11971,0,0,1,3.139-3.481c.16649.06291.338.129.50753.18708,2.42761.89368,4.9373,1.66741,7.28322,2.75707a39.58725,39.58725,0,0,1,4.86578,2.71422,39.54346,39.54346,0,0,1,4.56946,3.18793c2.22655,1.81856,4.18152,3.96137,6.27308,5.90836.206.19756.41026.387.62216.57458-1.39522,1.00155-3.78328,1.91071-4.38765,5.8512-2.49574-1.62991-5.33915-2.76995-7.96811-4.15367C119.50611,349.90656,118.00414,349.015,116.5281,348.07117Z"/><path class="al" d="M133.417,349.03766s-4.05214,2.05508-4.38765,5.8512"/><path class="am" d="M109.55529,334.11114s-4.05214,2.05507-4.38766,5.8512Z"/><path class="an" d="M240.05145,387.7986a13.58076,13.58076,0,0,1,.35591-5.14622,10.11794,10.11794,0,0,1,.87409-2.16531,59.93254,59.93254,0,0,1,8.58392,2.39c1.80387.66141,3.58054,1.38827,5.31765,2.20035a55.755,55.755,0,0,1,5.05382,2.74267c.44227.26995.88816.55558,1.32605.84325.32261.20884.63412.42415.9507.64263.09879.0618.18935.1255.28489.192a7.03861,7.03861,0,0,0-.88991.77523,4.37056,4.37056,0,0,0-1.31775,3.74165c-.94665-.51674-1.9203-1.00209-2.90221-1.45172a56.29144,56.29144,0,0,0-9.74166-3.38174c-1.67479-.39562-3.35357-.75216-5.0483-.99531-.84695-.13858-1.70091-.23327-2.54441-.35594C240.25073,387.82034,240.1518,387.81343,240.05145,387.7986Z"/><path class="ao" d="M261.19637,391.18s-15.77148-7.4322-21.17493-6.44459l-.04473,2.12777s12.917.96,20.58559,6.19859Z"/><path class="ap" d="M126.77161,347.28423c-.48224.617-.71964,1.44688-1.14019,2.10393a.6472.6472,0,0,1-.28232.27913.68561.68561,0,0,1-.366.00245c-.77631-.137-1.67565-.368-1.977-1.0964-.32359-.78214.24964-1.63252.83707-2.24193a15.59857,15.59857,0,0,1,1.78354-1.58692,1.62131,1.62131,0,0,1,2.45209.22441.97339.97339,0,0,1,.34172,1.02252c-.2627.57-1.16454.72226-1.57332,1.20028Q126.80841,347.23709,126.77161,347.28423Z"/><path class="ap" d="M123.03927,344.42361c-.48223.617-.71964,1.44688-1.14019,2.10393a.6472.6472,0,0,1-.28232.27913.68558.68558,0,0,1-.366.00245c-.77632-.137-1.67565-.368-1.977-1.0964-.32359-.78214.24963-1.63252.83706-2.24193a15.59866,15.59866,0,0,1,1.78355-1.58692,1.62131,1.62131,0,0,1,2.45209.22441.97338.97338,0,0,1,.34171,1.02252c-.2627.57-1.16454.72226-1.57331,1.20028Q123.07606,344.37647,123.03927,344.42361Z"/><path class="ap" d="M118.19652,341.13132c-.48223.617-.71964,1.44688-1.14019,2.10393a.6472.6472,0,0,1-.28232.27913.68558.68558,0,0,1-.366.00245c-.77632-.137-1.67565-.368-1.977-1.0964-.32359-.78214.24963-1.63252.83706-2.24193a15.59771,15.59771,0,0,1,1.78355-1.58692,1.6213,1.6213,0,0,1,2.45209.22441.97338.97338,0,0,1,.34171,1.02252c-.2627.57-1.16454.72226-1.57331,1.20028Q118.23331,341.08418,118.19652,341.13132Z"/><path class="ap" d="M113.49568,338.71954c-.44349.56746-.66183,1.33064-1.04858,1.9349a.59525.59525,0,0,1-.25965.2567.63046.63046,0,0,1-.33656.00226c-.71394-.126-1.541-.33842-1.81817-1.00832-.2976-.7193.22957-1.50136.76981-2.0618a14.34292,14.34292,0,0,1,1.64024-1.45942,1.49105,1.49105,0,0,1,2.25509.20637.8952.8952,0,0,1,.31426.94037c-.2416.52422-1.071.66423-1.44691,1.10385Q113.52951,338.67618,113.49568,338.71954Z"/><path class="am" d="M129.229,352.225s-17.23935-7.93755-22.69723-14.461c0,0-.62757-.54535-.65354,1.04475s16.953,12.27535,23.33083,14.59444Z"/><path class="aq" d="M165.69955,383.07317a88.76193,88.76193,0,0,1-18.29646-15.29009,103.05375,103.05375,0,0,1-7.65065-9.35848c-1.93627-2.66683-2.92654-5.57262-4.88767-8.145-.19181-.26414-.39777-.51635-.61182-.7669,1.55058,1.39537,3.074,2.69162,4.55041,4.15089.18274.16929.364.35109.54035.53011,1.4112,1.43222,2.69754,2.90971,3.928,4.3452,1.2129,1.45233,2.40633,2.83717,3.55707,4.1477.57793.65654,1.16627,1.28572,1.75354,1.87266.58591.59984,1.15521,1.1276,1.80589,1.73376,2.51944,2.338,5.16738,4.48186,7.82963,6.50424a89.47838,89.47838,0,0,0,8.16456,5.54008c.34183.20009.68847.40318,1.05118.60258q.37215.21217.76794.4187c.10678.05975.22163.11785.3413.179.33608.176.67533.347,1.02786.51927a32.42681,32.42681,0,0,0,11.77074,3.51859c.95747.10446,1.91357.16717,2.87186.183.36425.02169.83177-.00166,1.24516-.00388l1.28195-.008c.8559-.007,1.70045-.06236,2.55265-.08544,1.70483-.08007,3.39969-.22137,5.09838-.40149,1.07858-.12183,2.16153-.26138,3.2566-.42083a.01816.01816,0,0,0,.01124-.00672c2.32557-.33711,4.69045-.75958,7.12117-1.2096,3.0177-.577,6.15614-1.1267,9.34-1.55181-6.40759,1.64927-12.93652,2.89981-19.19545,5.04671-8.40019,2.88124-17.70646,3.58922-25.93694-.25488A31.72813,31.72813,0,0,1,165.69955,383.07317Z"/><path class="aq" d="M53.65171,312.98239c-12.86385-16.25858-4.28964-32.28163-17.69056-52.8511-5.86043-8.99358-9.83808-15.4433-13.10809-20.32428,1.38773,1.1289,2.7212,2.33381,4.01706,3.57689a67.82761,67.82761,0,0,1,13.3037,18.7168,101.51734,101.51734,0,0,1,4.30724,10.57618c1.24741,3.58157,2.28921,7.20617,3.242,10.69929.96539,3.49433,1.92669,6.84194,3.0728,10.05809.5812,1.6063,1.19589,3.19231,1.86469,4.75719.35209.77641.67663,1.56308,1.04478,2.33579l.54881,1.15324c.18369.37572.36747.80648.54609,1.12439A36.261,36.261,0,0,0,67.4711,316.464a89.53367,89.53367,0,0,0,8.5588,4.9211c2.98329,1.50915,6.06931,2.95215,9.27419,4.195.82468.31674,1.55339.60093,2.34911.86536.78472.2713,1.60765.52492,2.446.75436,1.6819.46142,3.4493.92871,5.27768,1.38587C94.65412,328.60015,66.34693,329.03894,53.65171,312.98239Z"/><path class="ar" d="M106.53057,337.76659l2.55917-3.02678.71354-.84431c2.42761.89368,4.9373,1.66741,7.28322,2.75707a39.58725,39.58725,0,0,1,4.86578,2.71422,39.54346,39.54346,0,0,1,4.56946,3.18793c2.22655,1.81856,4.18152,3.96137,6.27308,5.90836l.08941.24132s-11.96008-8.59-17.18663-10.15677c-4.632-1.38693-7.70071-.39247-8.92438-.71876C106.61185,337.78994,106.53057,337.76659,106.53057,337.76659Z"/><path class="as" d="M261.41625,389.47086a5.06055,5.06055,0,0,0-1.82881,3.76425"/><path class="as" d="M260.51187,388.90513a5.06054,5.06054,0,0,0-1.82882,3.76424"/><path class="as" d="M259.60748,388.3394a5.06054,5.06054,0,0,0-1.82881,3.76424"/><path class="as" d="M258.7031,387.77367a5.06054,5.06054,0,0,0-1.82881,3.76424"/><path class="as" d="M257.50259,387.0227s-2.10622,1.911-1.89091,4.20919"/><path class="as" d="M256.11544,386.44114c.37435-.37765-1.98718,1.86694-1.8388,4.23269"/><path class="as" d="M254.68826,385.68949s-2.29223,2.10133-2.07692,4.39956"/><path class="as" d="M252.99016,384.98881s-2.2303,2.218-2.015,4.51621"/><path class="as" d="M251.5844,384.50385s-2.32342,2.55607-1.9541,4.83463"/><path class="as" d="M250.44111,383.78868s-2.38764,2.73929-2.01833,5.01785"/><path class="as" d="M249.17028,383.592s-2.15583,2.60375-1.78651,4.88231"/><path class="as" d="M247.9921,383.32781s-2.25683,2.63227-1.74332,4.88271"/><path class="as" d="M247.07637,382.755s-2.42845,3.222-1.89687,5.46823"/><path class="as" d="M245.72205,382.10758s-2.59014,3.55654-2.12145,5.81675"/><path class="as" d="M243.89643,382.18862s-2.2276,3.176-1.60161,5.39776"/><path class="as" d="M242.69092,381.43452s-2.24888,3.89679-1.47346,6.07094"/><path class="at" d="M262.21878,389.97288a4.83385,4.83385,0,0,0-1.628,4.04194"/><path class="at" d="M240.96433,380.994s-1.56265,4.29325-1.1869,6.63316"/><path class="au" d="M240.40736,382.65238a10.11794,10.11794,0,0,1,.87409-2.16531,59.93254,59.93254,0,0,1,8.58392,2.39c1.80387.66141,3.58054,1.38827,5.31765,2.20035a55.755,55.755,0,0,1,5.05382,2.74267c.44227.26995.88816.55558,1.32605.84325.32261.20884.919.61611,1.23559.83459l-.88991.77523S256.11863,383.8229,240.40736,382.65238Z"/><path class="an" d="M26.59374,254.27156a13.5808,13.5808,0,0,0,4.47187-2.57151,10.11831,10.11831,0,0,0,1.56466-1.73332,59.93277,59.93277,0,0,0-5.9046-6.67319c-1.38394-1.3327-2.81484-2.61231-4.30506-3.81907a55.75758,55.75758,0,0,0-4.67731-3.34458c-.43625-.27959-.88816-.55557-1.33841-.82348-.32894-.19873-.65884-.38465-.9938-.57373-.0988-.0618-.19569-.11537-.29726-.1722a7.03836,7.03836,0,0,1-.30776,1.13939,4.37057,4.37057,0,0,1-2.788,2.82191c.87882.62517,1.74123,1.28835,2.57514,1.9746a56.29241,56.29241,0,0,1,7.3029,7.28036c1.08846,1.33292,2.14353,2.68653,3.10362,4.10408.49516.701.95391,1.42744,1.43325,2.13225C26.487,254.10188,26.5365,254.18782,26.59374,254.27156Z"/><path class="ao" d="M14.30223,236.737s13.5832,10.93042,15.05913,16.22138l-1.89376.97112s-6.51442-11.19521-14.58008-15.79906Z"/><path class="as" d="M15.74291,235.79156a5.06055,5.06055,0,0,1-2.58477,3.29136"/><path class="as" d="M16.64729,236.35729a5.06055,5.06055,0,0,1-2.58477,3.29136"/><path class="as" d="M17.55168,236.923a5.06054,5.06054,0,0,1-2.58478,3.29136"/><path class="as" d="M18.45606,237.48875a5.06055,5.06055,0,0,1-2.58477,3.29136"/><path class="as" d="M19.65656,238.23972s-.79689,2.73-2.9577,3.54186"/><path class="as" d="M20.7864,239.23264c.1758-.50184-.8094,2.6037-3.00164,3.50528"/><path class="as" d="M22.08668,240.18714s-.8867,2.98055-3.04751,3.79241"/><path class="as" d="M23.45967,241.40755s-1.0187,2.9759-3.1795,3.78777"/><path class="as" d="M24.51077,242.45947s-1.282,3.20754-3.49246,3.87232"/><path class="as" d="M25.65406,243.17465s-1.41863,3.34545-3.62913,4.01023"/><path class="as" d="M26.38686,244.23138s-1.39817,3.0777-3.60867,3.74247"/><path class="as" d="M27.13992,245.17522s-1.37962,3.181-3.62793,3.70381"/><path class="as" d="M28.05565,245.74805s-1.83481,3.59332-4.08725,4.098"/><path class="as" d="M29.23032,246.68264s-2.06492,3.88508-4.3024,4.45247"/><path class="as" d="M29.95616,248.35972s-1.88132,3.39258-4.15307,3.80172"/><path class="as" d="M31.16166,249.11382s-2.52017,3.72708-4.81446,3.981"/><path class="at" d="M14.94038,235.28954a4.83387,4.83387,0,0,1-2.92236,3.23224"/><path class="at" d="M32.31315,250.47369s-3.17691,3.28346-5.44539,3.96928"/><path class="au" d="M31.06561,251.70005a10.11831,10.11831,0,0,0,1.56466-1.73332,59.93277,59.93277,0,0,0-5.9046-6.67319c-1.38394-1.3327-2.81484-2.61231-4.30506-3.81907a55.75758,55.75758,0,0,0-4.67731-3.34458c-.43625-.27959-.88816-.55557-1.33841-.82348-.32894-.19873-.95609-.55685-1.29106-.74593l-.30776,1.13939S23.13937,238.08429,31.06561,251.70005Z"/><path class="ah" d="M182.35847,124.89817c1.35392-1.94028,2.372-4.12527,3.95843-5.88057.57018,3.10983-1.10132,6.28962-3.48293,8.36906-1.97442,1.72391-5.042,3.67658-7.69981,3.89413A22.48123,22.48123,0,0,0,182.35847,124.89817Z"/><path class="ac" d="M51.4014,140.86062a2.102,2.102,0,0,0-3.60309,1.958c.27034.49748,1.003-.07687,1.998-.61755S51.67174,141.3581,51.4014,140.86062Z"/><path class="b" d="M142.96558,349.39821c.339-2.94177-3.99359-6.02486-5.25273-9.42925-1.19048-3.21876-.34831-5.238-4.887-5.0827-7.24836.248-13.45645,1.06663-16.06731,7.87883s1.12686,14.44323,8.33824,16.974c5.08946,1.78611,10.47373-.2793,13.91338-3.08413A15.07238,15.07238,0,0,0,142.96558,349.39821Z"/><path class="av" d="M45.97881,184.28966A6.26773,6.26773,0,0,0,47.945,186.3134a6.86622,6.86622,0,0,0,7.1138.24256,13.46788,13.46788,0,0,0,3.26543-3.02308c3.17688-3.67386,2.65663-6.51382,4.164-10.69215-2.5882-.62669-5.37045-.2938-7.91895-1.06625-2.7069-.82045-3.68228-2.9183-5.27009-.2533C47.15846,175.11419,43.73732,180.44916,45.97881,184.28966Z"/><path class="ab" d="M54.66833,172.076a.73947.73947,0,0,0-.38877.38132,14.81335,14.81335,0,0,0-1.98642,8.818"/><path class="c" d="M46.3911,164.6079a2.9468,2.9468,0,0,0,.06933,2.25488,4.11353,4.11353,0,0,0,1.35694,1.71289,9.074,9.074,0,0,0,1.89746,1.10693c.66455.29932,1.38989.4751,2.08545.7251a28.68865,28.68865,0,0,0,4.17456,1.14844,13.01763,13.01763,0,0,0,2.08325.20947c.72119.04688,1.44507.061,2.17041.10157a39.9329,39.9329,0,0,0,8.77759-.32374,20.44289,20.44289,0,0,0,8.27539-3.25927,1.53138,1.53138,0,1,1,.699,2.77148l-.0083-.001a30.963,30.963,0,0,0-8.96582.48974c-2.89477.48486-5.77588,1.23-8.76294,1.4458a20.64761,20.64761,0,0,1-2.24023.03418A9.0976,9.0976,0,0,1,55.7141,172.71a19.65065,19.65065,0,0,1-4.10694-1.85694,23.83348,23.83348,0,0,1-3.792-2.27441c-.57666-.457-1.16772-.88818-1.80981-1.34424-.64869-.457-1.32764-.93457-2.23438-1.4917l-.283-.17382a1.9995,1.9995,0,1,1,2.90308-.96094Z"/><path class="ag" d="M72.82524,42.57571a14.41282,14.41282,0,0,0,2.234,2.97334l-2.7075-.23674L73.929,48.0126a23.203,23.203,0,0,0-8.7704,2.03878,10.39961,10.39961,0,0,1,4.127,1.64479,48.41272,48.41272,0,0,0-10.38379,5.54614l8.26151-.42134c-.88681,2.3198-4.76594,1.68163-6.18537,3.71955a13.5782,13.5782,0,0,1,5.66868,1.54455,14.61757,14.61757,0,0,1-4.56494,2.44058A19.68827,19.68827,0,0,0,70.94,66.75514a11.51373,11.51373,0,0,0,6.22269-1.47339,9.66289,9.66289,0,0,0,4.14981-6.2389c.64946-3.07567-.754-5.33412.46086-8.32445.20248-.49839,3.679-7.70569,3.00462-7.695C82.3569,43.062,74.502,45.5399,72.82524,42.57571Z"/><path class="c" d="M77.93221,68.33959c-3.18088-1.72305-5.88474-3.24865-5.3924-6.9344.79757-5.9707,6.40412-12.8857,11.122-16.49928a1.7612,1.7612,0,0,1,1.02917-.46584,1.83544,1.83544,0,0,1,1.05188.50184c2.55232,1.99163,4.82206,2.27854,8.02829,2.73657,3.32614.48787,6.77956.65583,9.88286,2.07575,6.45818,2.95484,11.48953,5.46949,16.54219,10.35076,2.49416,2.40956,5.99132,4.03317,8.75438,6.16986a82.98014,82.98014,0,0,1,8.37843,7.43367c-9.5032.34466-18.9756-2.1977-28.45573-1.45168-7.25341.57079-14.4273,1.00852-21.67741-.54925A34.68359,34.68359,0,0,1,77.93221,68.33959Z"/><path class="e" d="M210.16468,73.32737q-1.46358-.60613-2.90352-1.26737a83.83425,83.83425,0,0,1-7.852-4.12165c-1.99346-1.185-4.13357-2.28751-6.15269-3.30593,1.94541-1.50028,5.24187-1.70241,7.83468-.90194C205.893,65.21294,206.95923,71.99984,210.16468,73.32737Z"/><path class="e" d="M201.58831,80.2469q-.90224-1.3021-1.75477-2.6377a83.83841,83.83841,0,0,1-4.36943-7.71683c-1.03425-2.07568-2.23649-4.16139-3.38253-6.11091,2.4479-.20789,5.32873,1.40715,7.0751,3.48408C202.39091,71.112,199.61228,77.39513,201.58831,80.2469Z"/><path class="aw" d="M65.6689,35.08516S69.943,11.39566,90.91157,0l74.32855,25.58155S194.31093,47.72223,196.89755,66.264c0,0-43.23216,4.94321-65.9427-19.02987C130.95485,47.2341,90.69211,57.61216,65.6689,35.08516Z"/><path class="ax" d="M103.11018,35.80027c.21665-.93968-7.04536-25.67247-7.04536-25.67247s19.66426,26.112,34.89,37.1063L104.66749,27.68689Z"/><path class="ax" d="M76.66149,22.44532,88.4604,7.48391c-3.25235,1.22943-20.59,20.17648-20.59,20.17648L81.09453,15.23268Z"/><path class="e" d="M66.23047,32.71931s20.9312,14.44994,61.26922,11.94554l3.45516,2.56925S87.01073,57.88221,65.6689,35.08516Z"/><path class="af" d="M114.41307,129.55175a47.187,47.187,0,0,0-6.70581-13.65284,27.66754,27.66754,0,0,0-11.12647-9.49316,21.65431,21.65431,0,0,0-7.08349-1.75195,20.79962,20.79962,0,0,0-7.33667.87255,29.86443,29.86443,0,0,0-12.80615,8.23487.01563.01563,0,0,1-.02173.00049.016.016,0,0,1-.00244-.02,26.49391,26.49391,0,0,1,12.15722-10.14453,21.91247,21.91247,0,0,1,8.08643-1.57178,23.51639,23.51639,0,0,1,8.16479,1.61377,24.98341,24.98341,0,0,1,7.083,4.32324,26.91181,26.91181,0,0,1,5.48242,6.14795,28.06714,28.06714,0,0,1,3.43946,7.40869,24.493,24.493,0,0,1,.9541,7.999.14565.14565,0,0,1-.1543.13672A.14931.14931,0,0,1,114.41307,129.55175Z"/><path class="af" d="M105.88451,110.40624a1.6556,1.6556,0,0,0,.62963.105c.2461.01416.49878.01318.75562.00488a9.10346,9.10346,0,0,0,1.55371-.19678,7.69345,7.69345,0,0,0,1.552-.50146,7.17186,7.17186,0,0,0,1.48438-.88721,7.84081,7.84081,0,0,1-.5874,1.75781,9.56261,9.56261,0,0,1-1.009,1.67481,12.26448,12.26448,0,0,1-1.33887,1.51807c-.24829.23584-.50634.46826-.78149.69042a5.874,5.874,0,0,1-.95776.66211Z"/><path class="af" d="M108.94919,114.71122c.707-.18066,1.49829-.44873,2.24365-.709.75513-.26709,1.50562-.55615,2.241-.87647a21.592,21.592,0,0,0,2.16382-1.06494,10.18416,10.18416,0,0,0,1.9873-1.41894,10.80107,10.80107,0,0,1-1.10913,2.30859,23.20687,23.20687,0,0,1-1.488,2.1333c-.53.68994-1.08863,1.355-1.66675,2.00635-.58911.65625-1.1521,1.27734-1.83374,1.9292Z"/><path class="af" d="M113.01219,119.28417a21.29845,21.29845,0,0,0,2.33008.874,23.98192,23.98192,0,0,0,2.46216.64209,11.46919,11.46919,0,0,0,2.49658.23291,3.36794,3.36794,0,0,0,2.34521-.82764,3.96075,3.96075,0,0,1-1.98193,2.02393,13.21629,13.21629,0,0,1-2.71924,1.06689,26.96312,26.96312,0,0,1-2.83008.605,26.01009,26.01009,0,0,1-2.93359.31348Z"/><path class="af" d="M58.35741,112.81786A31.32727,31.32727,0,0,0,49.812,102.68749a16.55621,16.55621,0,0,0-11.7439-3.36475,20.88332,20.88332,0,0,0-11.2229,5.40088A37.8534,37.8534,0,0,0,18.811,115.34716a.01554.01554,0,0,1-.021.00683.01647.01647,0,0,1-.0083-.0166,25.51575,25.51575,0,0,1,6.23584-12.46094,20.30372,20.30372,0,0,1,12.7085-6.77051,17.4901,17.4901,0,0,1,13.64648,4.66749A23.45911,23.45911,0,0,1,58.35741,112.81786Z"/><path class="af" d="M19.28319,113.86962a19.76371,19.76371,0,0,1-1.67383-1.61719,22.09849,22.09849,0,0,1-1.46484-1.72949,12.00284,12.00284,0,0,1-1.21875-1.918,4.47546,4.47546,0,0,1-.5669-2.13379,3.88224,3.88224,0,0,0,1.49194,1.293,10.2645,10.2645,0,0,0,1.79444.75928,19.0799,19.0799,0,0,0,1.89136.5122,14.98064,14.98064,0,0,0,1.87377.30908Z"/><path class="af" d="M22.23436,109.07714a5.71489,5.71489,0,0,1-1.0127-.77979,9.82959,9.82959,0,0,1-.80273-.82519,8.86225,8.86225,0,0,1-1.262-1.87745,5.97062,5.97062,0,0,1-.6001-2.10058,4.925,4.925,0,0,1,.2395-1.97217,4.24988,4.24988,0,0,0,.91968,1.50439,4.11657,4.11657,0,0,0,1.29614.89307,5.85591,5.85591,0,0,0,1.45581.41162,5.767,5.767,0,0,0,.73828.06739c.21729,0,.53736.01953.61695-.062Z"/><path class="af" d="M25.62523,104.59081a9.13424,9.13424,0,0,1-.84155-1.65039,12.96324,12.96324,0,0,1-.55152-1.64893A6.63032,6.63032,0,0,1,24.116,97.9912a5.45,5.45,0,0,0,2.15039,1.84717,9.96905,9.96905,0,0,0,1.2544.53906,4.64087,4.64087,0,0,0,1.21777.30078Z"/></svg>