<svg xmlns="http://www.w3.org/2000/svg" viewBox="0 0 29.31023 29.69712"><defs><style>.a{fill:#69ffa0;}.b{fill:#29235c;}.c{fill:#e30613;}.d{fill:#ffc931;}.e{fill:#3c3c3b;opacity:0.46;}.f,.g,.h{fill:none;}.f{stroke:#706f6f;stroke-width:2.32033px;}.f,.g{stroke-linecap:round;stroke-linejoin:round;}.g{stroke:#878787;stroke-width:1.09299px;}.h{stroke:#575756;stroke-miterlimit:10;stroke-width:0.45927px;}.i{fill:#bf614b;}.j{fill:#dc7751;}.k{fill:#874a31;}</style></defs><circle class="a" cx="13.6194" cy="16.07772" r="13.6194"/><circle class="b" cx="13.6194" cy="16.07772" r="10.89552"/><circle class="c" cx="13.6194" cy="16.07772" r="8.17164"/><circle class="d" cx="13.6194" cy="16.07772" r="5.44776"/><ellipse class="e" cx="14.29243" cy="16.81662" rx="1.68892" ry="2.75409" transform="translate(-6.11165 8.40556) rotate(-27.23615)"/><line class="f" x1="25.76677" y1="3.64105" x2="13.91763" y2="15.49019"/><line class="g" x1="25.57089" y1="3.44516" x2="13.72175" y2="15.2943"/><path class="h" d="M26.25363,4.79281l-.09452-.09451a8.21477,8.21477,0,0,1-1.44376-1.44377l-.10566-.10566"/><path class="h" d="M25.62434,5.4221l-.09451-.09452a8.21437,8.21437,0,0,1-1.44377-1.44376l-.10566-.10566"/><path class="h" d="M24.99506,6.05138l-.09452-.09451A8.21477,8.21477,0,0,1,23.45678,4.5131l-.10566-.10566"/><path class="h" d="M24.36577,6.68067l-.09451-.09452a8.21437,8.21437,0,0,1-1.44377-1.44376l-.10566-.10566"/><path class="h" d="M23.73649,7.31,23.642,7.21544a8.21477,8.21477,0,0,1-1.44376-1.44377L22.09254,5.666"/><path class="h" d="M23.1072,7.93924l-.09451-.09452A8.21437,8.21437,0,0,1,21.56892,6.401l-.10566-.10566"/><path class="h" d="M22.47792,8.56853,22.3834,8.474a8.21477,8.21477,0,0,1-1.44376-1.44377L20.834,6.92458"/><path class="h" d="M21.84863,9.19781l-.09451-.09452a8.21437,8.21437,0,0,1-1.44377-1.44376l-.10566-.10566"/><path class="h" d="M21.21935,9.8271l-.09452-.09452a8.2144,8.2144,0,0,1-1.44376-1.44377l-.10567-.10566"/><path class="h" d="M20.59006,10.45638l-.09451-.09452A8.21437,8.21437,0,0,1,19.05178,8.9181l-.10566-.10566"/><path class="h" d="M19.96078,11.08567l-.09452-.09452A8.2144,8.2144,0,0,1,18.4225,9.54738l-.10567-.10566"/><path class="h" d="M19.33149,11.715l-.09451-.09452a8.21437,8.21437,0,0,1-1.44377-1.44376l-.10566-.10566"/><path class="h" d="M18.70221,12.34424l-.09452-.09452A8.21465,8.21465,0,0,1,17.16392,10.806l-.10566-.10566"/><path class="h" d="M18.07292,12.97352l-.09451-.09452a8.21437,8.21437,0,0,1-1.44377-1.44376l-.10566-.10566"/><path class="h" d="M17.44364,13.60281l-.09452-.09452a8.21425,8.21425,0,0,1-1.44377-1.44377l-.10566-.10566"/><polygon class="i" points="17.605 13.029 22.132 12.664 29.31 5.486 24.783 5.852 17.605 13.029"/><polygon class="j" points="24.783 5.852 27.575 6.364 21.827 12.112 17.605 13.029 22.132 12.664 29.31 5.486 24.783 5.852"/><polygon class="k" points="24.783 5.852 18.342 12.97 17.605 13.029 24.783 5.852"/><polygon class="i" points="16.237 11.705 16.603 7.178 23.781 0 23.415 4.527 16.237 11.705"/><polygon class="k" points="23.561 2.717 16.237 11.705 23.415 4.527 23.561 2.717"/><polygon class="j" points="23.781 0 17.318 7.081 16.237 11.705 16.603 7.178 23.781 0"/></svg>