<svg xmlns="http://www.w3.org/2000/svg" viewBox="0 0 300.80274 50.58049"><defs><style>.a,.b,.f{fill:none;}.a{stroke:#706f6f;stroke-width:6.82666px;}.a,.b{stroke-linecap:round;stroke-linejoin:round;}.b{stroke:#878787;stroke-width:2.27555px;}.c{fill:#9d9d9c;}.d{fill:#3c3c3b;}.e{fill:#ededed;}.f{stroke:#575756;stroke-miterlimit:10;stroke-width:1.70667px;}.g{fill:#c6c6c6;}.h{fill:#decfe2;}.i{fill:#ffe3ff;}.j{fill:#aa96a9;}.k{fill:#fff;}</style></defs><line class="a" x1="297.3894" y1="25.34896" x2="23.44133" y2="25.34896"/><line class="b" x1="297.3894" y1="24.84059" x2="23.44133" y2="24.84059"/><polygon class="c" points="21.392 29.178 21.392 21.52 18.19 19.11 17.406 25.349 18.19 31.588 21.392 29.178"/><rect class="d" x="17.48537" y="24.20143" width="9.61696" height="2.29496" rx="1.14748" transform="translate(47.64276 3.05505) rotate(90)"/><polygon class="e" points="18.19 19.11 0 25.349 18.19 31.588 17.406 25.349 18.19 19.11"/><path class="f" d="M48.06089,28.76229V28.371a15.02955,15.02955,0,0,1,0-5.97739v-.43745"/><path class="f" d="M43.86313,28.76229V28.371a15.02955,15.02955,0,0,1,0-5.97739v-.43745"/><path class="f" d="M39.66536,28.76229V28.371a15.02976,15.02976,0,0,1,0-5.97739v-.43745"/><path class="f" d="M35.4676,28.76229V28.371a15.02955,15.02955,0,0,1,0-5.97739v-.43745"/><path class="f" d="M293.96989,28.76229V28.371a15.02955,15.02955,0,0,1,0-5.97739v-.43745"/><path class="f" d="M289.77213,28.76229V28.371a15.02955,15.02955,0,0,1,0-5.97739v-.43745"/><path class="f" d="M285.57437,28.76229V28.371a15.02955,15.02955,0,0,1,0-5.97739v-.43745"/><path class="f" d="M281.3766,28.76229V28.371a15.02955,15.02955,0,0,1,0-5.97739v-.43745"/><path class="f" d="M277.17884,28.76229V28.371a15.02955,15.02955,0,0,1,0-5.97739v-.43745"/><path class="f" d="M272.98108,28.76229V28.371a15.02955,15.02955,0,0,1,0-5.97739v-.43745"/><path class="f" d="M268.78331,28.76229V28.371a15.02955,15.02955,0,0,1,0-5.97739v-.43745"/><path class="f" d="M264.58555,28.76229V28.371a15.02955,15.02955,0,0,1,0-5.97739v-.43745"/><path class="f" d="M260.38779,28.76229V28.371a15.02955,15.02955,0,0,1,0-5.97739v-.43745"/><path class="f" d="M256.19,28.76229V28.371a15.02955,15.02955,0,0,1,0-5.97739v-.43745"/><path class="f" d="M251.99226,28.76229V28.371a15.02955,15.02955,0,0,1,0-5.97739v-.43745"/><path class="f" d="M247.7945,28.76229V28.371a15.02955,15.02955,0,0,1,0-5.97739v-.43745"/><polygon class="g" points="17.406 25.349 0 25.349 18.19 31.588 17.406 25.349"/><polygon class="h" points="261.253 27.861 270.896 36.063 299.188 36.063 289.545 27.861 261.253 27.861"/><polygon class="i" points="289.545 27.861 294.039 34.373 271.381 34.373 261.253 27.861 270.896 36.063 299.188 36.063 289.545 27.861"/><polygon class="j" points="289.545 27.861 262.822 29.195 261.253 27.861 289.545 27.861"/><polygon class="h" points="261.253 22.72 270.896 14.518 299.188 14.518 289.545 22.72 261.253 22.72"/><polygon class="j" points="293.401 19.441 261.253 22.72 289.545 22.72 293.401 19.441"/><polygon class="i" points="299.188 14.518 272.496 15.736 261.253 22.72 270.896 14.518 299.188 14.518"/><rect class="k" x="34.42788" width="215.84717" height="50.58049" rx="7.60502"/><path class="d" d="M90.46312,14.68575v4.56006a.3339.3339,0,0,1-.3457.345h-.62988a.33387.33387,0,0,1-.34473-.345V14.7607a2.28061,2.28061,0,0,0-2.58008-2.58H85.48265q-.14942.945-.21777,1.56751a11.18345,11.18345,0,0,0-.05176,1.41748l.0293,4.08008a.33238.33238,0,0,1-.34473.345l-2.085-.03a.33385.33385,0,0,1-.34473-.345v-.45007a.33387.33387,0,0,1,.34473-.345l1.15527.015v-3.21q-.01464-.945.03711-1.59754a9.17225,9.17225,0,0,1,.248-1.44751h-.81055a.34959.34959,0,0,1-.24707-.09.30946.30946,0,0,1-.09765-.24v-.48a.32825.32825,0,0,1,.09765-.255.34914.34914,0,0,1,.24707-.09008h3.21Q90.46263,11.02572,90.46312,14.68575Z"/><path class="d" d="M101.12035,11.12325a.33751.33751,0,0,1,.09668.24756v4.16992a4.56535,4.56535,0,0,1-.5166,2.21252,3.52626,3.52626,0,0,1-1.45508,1.455,4.25748,4.25748,0,0,1-2.15332.47253H95.98265a3.44575,3.44575,0,0,1-1.75488-.45,3.17131,3.17131,0,0,1-1.22266-1.26757,3.89266,3.89266,0,0,1-.44238-1.88245v-4.71a.32826.32826,0,0,1,.09766-.255.34913.34913,0,0,1,.24707-.09008h.585a.33386.33386,0,0,1,.34473.34509l.04492,4.25989a2.666,2.666,0,0,0,1.89746-.735,2.46654,2.46654,0,0,0,.5332-1.6499v-1.875a.33386.33386,0,0,1,.34473-.34509h.585a.33386.33386,0,0,1,.34473.34509v1.93493a3.23685,3.23685,0,0,1-.915,2.37,3.89545,3.89545,0,0,1-2.68457,1.02,2.37214,2.37214,0,0,0,.89257,1.34253,2.59886,2.59886,0,0,0,1.56739.47241H96.927a2.86572,2.86572,0,0,0,2.2207-.825,3.12085,3.12085,0,0,0,.79492-2.235V11.37081a.33386.33386,0,0,1,.34473-.34509h.585A.33816.33816,0,0,1,101.12035,11.12325Z"/><path class="d" d="M106.40746,19.7408a.26889.26889,0,0,1-.26953-.285v-.66a.439.439,0,0,1,.3291-.405l.585-.225a3.45536,3.45536,0,0,0,1.59082-1.125,3.55325,3.55325,0,0,0,.55469-2.16,4.22329,4.22329,0,0,0-.24024-1.5824,1.53432,1.53432,0,0,0-.78711-.83252,3.644,3.644,0,0,0-1.50781-.255h-3a.33385.33385,0,0,1-.34473-.345v-.51a.30966.30966,0,0,1,.09766-.24.34913.34913,0,0,1,.24707-.09008H106.842a5.063,5.063,0,0,1,2.18262.39,2.34579,2.34579,0,0,1,1.16308,1.245,5.99428,5.99428,0,0,1,.35938,2.28,4.37518,4.37518,0,0,1-.94434,2.99256,5.56676,5.56676,0,0,1-2.46,1.5824l-.62988.21008A.26676.26676,0,0,1,106.40746,19.7408Zm-2.99219,2.625a.3286.3286,0,0,1-.09766-.255v-7.905a.33367.33367,0,0,1,.34473-.345h.61523a.33365.33365,0,0,1,.34473.345v7.905a.33385.33385,0,0,1-.34473.345h-.61523A.34958.34958,0,0,1,103.41527,22.3658Z"/><path class="d" d="M112.77465,19.49324a.33359.33359,0,0,1-.09766-.24743v-7.875a.32826.32826,0,0,1,.09766-.255.35153.35153,0,0,1,.248-.09008h.65918a.33389.33389,0,0,1,.3457.34509v7.875a.3339.3339,0,0,1-.3457.345h-.65918A.33562.33562,0,0,1,112.77465,19.49324Z"/><path class="d" d="M122.77269,21.21077l-3.78027-9.6a2.23336,2.23336,0,0,1-.0752-.285.30747.30747,0,0,1,.29981-.3h.66015c.18946,0,.33008.12.41993.36l1.62011,4.08008q2.12989-.23986,2.12989-2.61v-1.485a.33384.33384,0,0,1,.34472-.34509h.585a.33391.33391,0,0,1,.34571.34509v1.57495A3.81966,3.81966,0,0,1,124.55,15.4283a3.49615,3.49615,0,0,1-2.18262,1.2074l1.67969,4.2301a1.09535,1.09535,0,0,1,.08984.28492.30723.30723,0,0,1-.2998.3h-.68946A.3934.3934,0,0,1,122.77269,21.21077Z"/><path class="d" d="M127.175,19.49324a.33359.33359,0,0,1-.09766-.24743v-7.875a.32826.32826,0,0,1,.09766-.255.34913.34913,0,0,1,.24707-.09008H130.302a3.97759,3.97759,0,0,1,2.87988.92248,3.70486,3.70486,0,0,1,.94531,2.76758v4.53a.33385.33385,0,0,1-.34472.345h-.62989a.33392.33392,0,0,1-.3457-.345V14.7607a2.28022,2.28022,0,0,0-2.58008-2.58h-1.8291v7.06507a.3339.3339,0,0,1-.3457.345h-.62988A.3334.3334,0,0,1,127.175,19.49324Z"/><path class="d" d="M136.10668,19.49324a.35227.35227,0,0,1-.08985-.24743v-.4801a.35289.35289,0,0,1,.08985-.24744.313.313,0,0,1,.24023-.09754h4.335v-3.66a2.274,2.274,0,0,0-2.58008-2.56494H136.4973a.30932.30932,0,0,1-.24023-.09754.352.352,0,0,1-.08985-.24743v-.48a.35319.35319,0,0,1,.08985-.24756.31017.31017,0,0,1,.24023-.09753H138.177q3.83936,0,3.83984,3.675v3.72h.57032a.31306.31306,0,0,1,.24023.09754.35288.35288,0,0,1,.08984.24744v.4801a.35226.35226,0,0,1-.08984.24743.31218.31218,0,0,1-.24023.09754h-6.24024A.31215.31215,0,0,1,136.10668,19.49324Z"/><path class="d" d="M147.99437,16.01326a.33367.33367,0,0,1-.09765-.24755v-4.3949a.32825.32825,0,0,1,.09765-.255.35156.35156,0,0,1,.24805-.09008h.65918a.33389.33389,0,0,1,.3457.34509v4.3949a.33391.33391,0,0,1-.3457.34509h-.65918A.33564.33564,0,0,1,147.99437,16.01326Z"/><path class="d" d="M156.07933,19.49324a.33358.33358,0,0,1-.09765-.24743V14.7607a2.28062,2.28062,0,0,0-2.58008-2.58H151.467a.352.352,0,0,1-.24805-.09.31217.31217,0,0,1-.09668-.24v-.48a.33238.33238,0,0,1,.34473-.34509h2.02441q3.81006,0,3.81055,3.66v4.56006a.33387.33387,0,0,1-.34473.345h-.63086A.33494.33494,0,0,1,156.07933,19.49324Z"/><path class="d" d="M159.54418,16.01326a.33368.33368,0,0,1-.09766-.24755v-4.3949a.32826.32826,0,0,1,.09766-.255.34913.34913,0,0,1,.24707-.09008h.66015a.33386.33386,0,0,1,.34473.34509v4.3949a.33387.33387,0,0,1-.34473.34509h-.66015A.3334.3334,0,0,1,159.54418,16.01326Z"/><path class="d" d="M170.719,11.41573a2.34044,2.34044,0,0,1,1.16211,1.245,5.9734,5.9734,0,0,1,.36035,2.28,4.37057,4.37057,0,0,1-.94531,2.99256,5.56124,5.56124,0,0,1-2.46,1.5824l-.62988.21008a.25792.25792,0,0,1-.1045.015.27042.27042,0,0,1-.1875-.07507.26767.26767,0,0,1-.083-.21v-.66a.44011.44011,0,0,1,.33007-.405l.585-.225a3.45229,3.45229,0,0,0,1.58985-1.125,3.5463,3.5463,0,0,0,.55566-2.16,4.22351,4.22351,0,0,0-.24023-1.5824,1.53436,1.53436,0,0,0-.78711-.83252,3.64408,3.64408,0,0,0-1.50781-.255h-.50977l-1.38086-.015a.35124.35124,0,0,1-.24707-.09.30964.30964,0,0,1-.09766-.24V9.28572a.33387.33387,0,0,1,.34473-.345h.60059a.313.313,0,0,1,.24023.09754.35268.35268,0,0,1,.08985.24743v1.74H168.552A5.01954,5.01954,0,0,1,170.719,11.41573Z"/><path class="d" d="M179.14183,19.30574a.2568.2568,0,0,1-.09765.20252.34889.34889,0,0,1-.23243.08252h-.66015c-.19043,0-.30469-.11487-.34473-.345l-.3457-1.755a4.54919,4.54919,0,0,1-1.27442,1.335,6.13086,6.13086,0,0,1-1.03515.57752,5.15837,5.15837,0,0,1-1.01953.30749l-.10547.015q-.25488,0-.25488-.24v-.70508q0-.25488.31445-.375.0454-.01466.59277-.20251a4.35061,4.35061,0,0,0,.98242-.47242,4.07585,4.07585,0,0,0,.88477-.78759,3.46268,3.46268,0,0,0,.61523-.9524l-.26953-1.35009a8.84654,8.84654,0,0,0-.38281-1.40247,1.80071,1.80071,0,0,0-.54785-.78748,1.415,1.415,0,0,0-.89942-.27h-.55468a.352.352,0,0,1-.24805-.09.30947.30947,0,0,1-.09766-.24v-.51a.33372.33372,0,0,1,.34571-.345h.55468a2.89786,2.89786,0,0,1,1.5752.38989,2.71472,2.71472,0,0,1,.98242,1.1626,8.96774,8.96774,0,0,1,.62207,2.01745l.90039,4.68006Z"/><path class="d" d="M184.7141,19.49324a.33359.33359,0,0,1-.09766-.24743V14.7607a2.28061,2.28061,0,0,0-2.58008-2.58h-1.93554a.34957.34957,0,0,1-.24707-.09.30947.30947,0,0,1-.09766-.24v-.48a.33386.33386,0,0,1,.34473-.34509h2.02539q3.81006,0,3.80957,3.66v4.56006a.33238.33238,0,0,1-.34473.345h-.62988A.33187.33187,0,0,1,184.7141,19.49324Z"/><path class="d" d="M195.8059,14.68575v4.56006a.33387.33387,0,0,1-.34473.345h-.62988a.33238.33238,0,0,1-.34473-.345V14.7607a2.28061,2.28061,0,0,0-2.58008-2.58H190.8264q-.15087.945-.21777,1.56751a11.353,11.353,0,0,0-.05273,1.41748l.03027,4.08008a.33387.33387,0,0,1-.34473.345l-2.085-.03a.33389.33389,0,0,1-.3457-.345v-.45007a.3339.3339,0,0,1,.3457-.345l1.1543.015v-3.21q-.01466-.945.03808-1.59754a9.16178,9.16178,0,0,1,.24707-1.44751h-.80957a.352.352,0,0,1-.248-.09.31283.31283,0,0,1-.09766-.24v-.48a.33169.33169,0,0,1,.09766-.255.35155.35155,0,0,1,.248-.09008h3.21Q195.80638,11.02572,195.8059,14.68575Z"/><path class="d" d="M198.04808,16.01326a.33367.33367,0,0,1-.09765-.24755v-4.3949a.32825.32825,0,0,1,.09765-.255.35156.35156,0,0,1,.24805-.09008h.65918a.33389.33389,0,0,1,.3457.34509v4.3949a.33391.33391,0,0,1-.3457.34509h-.65918A.33564.33564,0,0,1,198.04808,16.01326Z"/><path class="d" d="M207.19066,12.18074h-2.20508a.30946.30946,0,0,1-.33008-.33v-.48a.35319.35319,0,0,1,.08985-.24756.313.313,0,0,1,.24023-.09753h2.28028a4.04139,4.04139,0,0,1,2.87988.9,3.64819,3.64819,0,0,1,.94531,2.76v6.42a.33389.33389,0,0,1-.3457.345h-.62988a.34962.34962,0,0,1-.24707-.09.32861.32861,0,0,1-.09766-.255V14.7607A2.28061,2.28061,0,0,0,207.19066,12.18074Z"/><path class="d" d="M213.33324,16.01326a.33368.33368,0,0,1-.09766-.24755v-4.3949a.32826.32826,0,0,1,.09766-.255.34913.34913,0,0,1,.24707-.09008h.66016a.33384.33384,0,0,1,.34472.34509v4.3949a.33386.33386,0,0,1-.34472.34509h-.66016A.3334.3334,0,0,1,213.33324,16.01326Z"/><path class="d" d="M220.99047,19.29073a.27257.27257,0,0,1-.09766.21753.34888.34888,0,0,1-.23242.08252H216.6555a.33392.33392,0,0,1-.3457-.345v-.4801a.33392.33392,0,0,1,.3457-.345h2.95508l-.24023-3.80993q-.07471-.975-.15723-1.4325a1.36331,1.36331,0,0,0-.36816-.74255,1.20709,1.20709,0,0,0-.88477-.285H217.345a.34905.34905,0,0,1-.24707-.09.30947.30947,0,0,1-.09766-.24v-.48a.33367.33367,0,0,1,.34473-.345h.61523a2.75034,2.75034,0,0,1,1.65723.42749,2.1649,2.1649,0,0,1,.79492,1.17749,9.28613,9.28613,0,0,1,.293,1.965l.28516,4.68006Z"/><path class="d" d="M222.99242,19.49324a.33359.33359,0,0,1-.09766-.24743v-7.875a.32826.32826,0,0,1,.09766-.255.35156.35156,0,0,1,.248-.09008h2.87988a3.97759,3.97759,0,0,1,2.87988.92248,3.70486,3.70486,0,0,1,.94531,2.76758v4.53a.3339.3339,0,0,1-.3457.345H228.97a.33387.33387,0,0,1-.34473-.345V14.7607a2.28061,2.28061,0,0,0-2.58008-2.58h-1.83008v7.06507a.33385.33385,0,0,1-.34472.345h-.62988A.33564.33564,0,0,1,222.99242,19.49324Z"/><path class="d" d="M237.99242,19.49324a.33359.33359,0,0,1-.09766-.24743V14.7607a2.27347,2.27347,0,0,0-2.56445-2.58h-2.79a.352.352,0,0,1-.24805-.09.30946.30946,0,0,1-.09765-.24v-.48a.32825.32825,0,0,1,.09765-.255.35156.35156,0,0,1,.24805-.09008h2.86426q3.81006,0,3.81054,3.69006v4.53a.33385.33385,0,0,1-.34472.345h-.63086A.3334.3334,0,0,1,237.99242,19.49324Zm-5.7002,0a.33358.33358,0,0,1-.09765-.24743v-5.04a.33371.33371,0,0,1,.3457-.345h.62988a.33367.33367,0,0,1,.34473.345v5.04a.33387.33387,0,0,1-.34473.345h-.62988A.33564.33564,0,0,1,232.29222,19.49324Z"/><path class="d" d="M152.47875,37.49324a.33359.33359,0,0,1-.09766-.24743V32.7607a2.28061,2.28061,0,0,0-2.58008-2.58h-1.93457a.352.352,0,0,1-.248-.09.31213.31213,0,0,1-.09668-.24v-.48a.33237.33237,0,0,1,.34472-.34509h2.02442q3.81006,0,3.81054,3.66v4.56006a.33385.33385,0,0,1-.34472.345h-.63086A.33494.33494,0,0,1,152.47875,37.49324Z"/><path class="d" d="M156.7766,36.8033a3.801,3.801,0,0,1-.90039-2.73755V29.37081a.32825.32825,0,0,1,.09765-.255.34914.34914,0,0,1,.24707-.09008h.57032a.31325.31325,0,0,1,.34472.34509v4.62a2.67308,2.67308,0,0,0,.62305,1.90491,3.04718,3.04718,0,0,0,3.71973.05249,2.63357,2.63357,0,0,0,.62207-1.8374v-1.545a2.95066,2.95066,0,0,0-.52442-1.83,1.65813,1.65813,0,0,0-1.35058-.6001,2.13583,2.13583,0,0,0-.59961.09753,2.32565,2.32565,0,0,0-.57031.24756.24272.24272,0,0,1-.14942.04493.2836.2836,0,0,1-.27051-.27v-.43494a1.05544,1.05544,0,0,1,.03028-.285.31452.31452,0,0,1,.165-.17993,2.31121,2.31121,0,0,1,.667-.30749,3.4265,3.4265,0,0,1,.89258-.09754,2.81321,2.81321,0,0,1,2.21289.84754,4.00366,4.00366,0,0,1,.80273,2.61743q.01466.15015.01465.885,0,.73517-.01465.885a3.83423,3.83423,0,0,1-.9375,2.67749,3.87926,3.87926,0,0,1-2.82812.87756A3.81956,3.81956,0,0,1,156.7766,36.8033Z"/><path class="d" d="M170.8391,29.46822a3.03306,3.03306,0,0,1,1.13965,1.26758,4.30734,4.30734,0,0,1,.41211,1.94995v4.56006a.33238.33238,0,0,1-.34473.345H168.176a.31215.31215,0,0,1-.24023-.09754.35227.35227,0,0,1-.08985-.24743v-.4801a.35289.35289,0,0,1,.08985-.24744.313.313,0,0,1,.24023-.09754h2.89551v-3.645a2.85135,2.85135,0,0,0-.57812-1.85242,1.803,1.803,0,0,0-1.46192-.71253h-1.58984l-1.15528,7.02a.39053.39053,0,0,1-.12793.255.353.353,0,0,1-.24707.105h-.62988a.27718.27718,0,0,1-.23242-.105.33576.33576,0,0,1-.06738-.255l1.19922-7.02h-.76465a.33385.33385,0,0,1-.34473-.345v-.495a.33386.33386,0,0,1,.34473-.34509h3.76465A3.13047,3.13047,0,0,1,170.8391,29.46822Z"/><path class="d" d="M181.06078,37.49324a.34792.34792,0,0,1-.08985-.24743V28.78572l-2.5205,1.93506a.33984.33984,0,0,1-.22461.09.33345.33345,0,0,1-.25489-.15l-.36035-.465a.36077.36077,0,0,1-.07519-.21.31657.31657,0,0,1,.15039-.27l3.25488-2.52a.7133.7133,0,0,1,.38965-.105h.70508a.33372.33372,0,0,1,.3457.345v9.81006a.33392.33392,0,0,1-.3457.345H181.301A.30932.30932,0,0,1,181.06078,37.49324Z"/><path class="d" d="M185.44847,36.60823a4.914,4.914,0,0,1-.95312-2.96252l-.01465-1.28992.01465-1.33508a4.767,4.767,0,0,1,.95312-2.94751,4.11472,4.11472,0,0,1,5.66993,0,4.77264,4.77264,0,0,1,.95214,2.94751q.01466.42022.01465,1.33508,0,.88514-.01465,1.28992a4.92,4.92,0,0,1-.95214,2.96252,4.1144,4.1144,0,0,1-5.66993,0Zm4.56739-.87744a3.63052,3.63052,0,0,0,.61523-2.16q.01466-.43488.01465-1.245,0-.8247-.01465-1.23a3.60591,3.60591,0,0,0-.62305-2.15258,2.05066,2.05066,0,0,0-1.73242-.77247,2.0283,2.0283,0,0,0-1.72461.77247,3.62614,3.62614,0,0,0-.61523,2.15258l-.01563,1.23.01563,1.245a3.61686,3.61686,0,0,0,.61523,2.16,2.34406,2.34406,0,0,0,3.46485,0Z"/><path class="d" d="M194.94261,36.60823a4.92,4.92,0,0,1-.95214-2.96252l-.01563-1.28992.01563-1.33508a4.76662,4.76662,0,0,1,.95214-2.94751,4.11472,4.11472,0,0,1,5.66993,0,4.767,4.767,0,0,1,.95312,2.94751q.01466.42022.01465,1.33508,0,.88514-.01465,1.28992a4.92042,4.92042,0,0,1-.95312,2.96252,4.11441,4.11441,0,0,1-5.66993,0Zm4.56739-.87744a3.62368,3.62368,0,0,0,.61523-2.16q.01466-.43488.01465-1.245,0-.8247-.01465-1.23a3.60587,3.60587,0,0,0-.62207-2.15258,2.05068,2.05068,0,0,0-1.73242-.77247,2.029,2.029,0,0,0-1.72559.77247,3.63989,3.63989,0,0,0-.61523,2.15258l-.01465,1.23.01465,1.245a3.63045,3.63045,0,0,0,.61523,2.16,2.34407,2.34407,0,0,0,3.46485,0Z"/><path class="d" d="M207.48265,37.49324a.33358.33358,0,0,1-.09765-.24743v-7.875a.32825.32825,0,0,1,.09765-.255.35156.35156,0,0,1,.24805-.09008h2.87988a3.97764,3.97764,0,0,1,2.87989.92248,3.70486,3.70486,0,0,1,.94531,2.76758v4.53a.33392.33392,0,0,1-.34571.345h-.62988a.33385.33385,0,0,1-.34472-.345V32.7607a2.28062,2.28062,0,0,0-2.58008-2.58h-1.83008v7.06507a.33387.33387,0,0,1-.34473.345h-.62988A.33564.33564,0,0,1,207.48265,37.49324Z"/><path class="d" d="M216.78246,37.49324a.33359.33359,0,0,1-.09766-.24743v-7.875a.32826.32826,0,0,1,.09766-.255.35155.35155,0,0,1,.248-.09008h.65918a.33391.33391,0,0,1,.34571.34509v7.875a.33392.33392,0,0,1-.34571.345h-.65918A.33563.33563,0,0,1,216.78246,37.49324Z"/><path class="d" d="M220.45726,37.49324a.33358.33358,0,0,1-.09765-.24743v-7.875a.32825.32825,0,0,1,.09765-.255.35156.35156,0,0,1,.24805-.09008h.65918a.33389.33389,0,0,1,.3457.34509v7.875a.3339.3339,0,0,1-.3457.345h-.65918A.33564.33564,0,0,1,220.45726,37.49324Z"/><path class="d" d="M224.85961,36.8033a3.805,3.805,0,0,1-.89942-2.73755V29.37081a.33119.33119,0,0,1,.09668-.255.35156.35156,0,0,1,.24805-.09008h.56933a.31341.31341,0,0,1,.34571.34509v4.62a2.6728,2.6728,0,0,0,.62207,1.90491,3.04718,3.04718,0,0,0,3.71972.05249,2.63379,2.63379,0,0,0,.62305-1.8374v-1.545a2.95677,2.95677,0,0,0-.52539-1.83,1.65621,1.65621,0,0,0-1.34961-.6001,2.13589,2.13589,0,0,0-.59961.09753,2.30964,2.30964,0,0,0-.57031.24756.24367.24367,0,0,1-.15039.04493.28174.28174,0,0,1-.26953-.27v-.43494a1.103,1.103,0,0,1,.02929-.285.31793.31793,0,0,1,.165-.17993,2.30488,2.30488,0,0,1,.668-.30749,3.41628,3.41628,0,0,1,.89258-.09754,2.81238,2.81238,0,0,1,2.21191.84754,3.99818,3.99818,0,0,1,.80274,2.61743c.00976.1001.01562.39514.01562.885,0,.49011-.00586.78516-.01562.885a3.83423,3.83423,0,0,1-.9375,2.67749,3.87666,3.87666,0,0,1-2.82715.87756A3.822,3.822,0,0,1,224.85961,36.8033Z"/><path class="d" d="M233.05,37.49324a.34792.34792,0,0,1-.08985-.24743v-.4801a.34853.34853,0,0,1,.08985-.24744.31016.31016,0,0,1,.24023-.09754h4.335v-3.66a2.274,2.274,0,0,0-2.58008-2.56494h-1.60547a.31217.31217,0,0,1-.24023-.09754.352.352,0,0,1-.08984-.24743v-.48a.35318.35318,0,0,1,.08984-.24756.313.313,0,0,1,.24023-.09753h1.68067q3.83936,0,3.83984,3.675v3.72h.56934a.31017.31017,0,0,1,.24023.09754.34853.34853,0,0,1,.08985.24744v.4801a.34792.34792,0,0,1-.08985.24743.30932.30932,0,0,1-.24023.09754h-6.23926A.30931.30931,0,0,1,233.05,37.49324Z"/></svg>