<svg xmlns="http://www.w3.org/2000/svg" viewBox="0 0 300.80274 32.44474"><defs><style>.a,.b,.f{fill:none;}.a{stroke:#727070;stroke-width:6.82666px;}.a,.b{stroke-linecap:round;stroke-linejoin:round;}.b{stroke:#878787;stroke-width:2.27555px;}.c{fill:#9e9d9c;}.d{fill:#3d3d3b;}.e{fill:#eeeded;}.f{stroke:#585857;stroke-miterlimit:10;stroke-width:1.70667px;}.g{fill:#c7c6c6;}.h{fill:#dfcfe2;}.i{fill:#f7e3f0;}.j{fill:#ab96a9;}.k{fill:#fff;}</style></defs><line class="a" x1="297.3894" y1="16.73074" x2="23.44133" y2="16.73074"/><line class="b" x1="297.3894" y1="16.22237" x2="23.44133" y2="16.22237"/><polygon class="c" points="21.392 20.56 21.392 12.902 18.19 10.491 17.406 16.731 18.19 22.97 21.392 20.56"/><rect class="d" x="17.48537" y="15.58321" width="9.61696" height="2.29496" rx="1.14748" transform="translate(39.02454 -5.56316) rotate(90)"/><polygon class="e" points="18.19 10.491 0 16.731 18.19 22.97 17.406 16.731 18.19 10.491"/><path class="f" d="M48.06089,20.14407v-.39132a15.02956,15.02956,0,0,1,0-5.97739v-.43745"/><path class="f" d="M43.86313,20.14407v-.39132a15.02956,15.02956,0,0,1,0-5.97739v-.43745"/><path class="f" d="M39.66536,20.14407v-.39132a15.02977,15.02977,0,0,1,0-5.97739v-.43745"/><path class="f" d="M35.4676,20.14407v-.39132a15.02956,15.02956,0,0,1,0-5.97739v-.43745"/><path class="f" d="M293.96989,20.14407v-.39132a15.02956,15.02956,0,0,1,0-5.97739v-.43745"/><path class="f" d="M289.77213,20.14407v-.39132a15.02956,15.02956,0,0,1,0-5.97739v-.43745"/><path class="f" d="M285.57437,20.14407v-.39132a15.02956,15.02956,0,0,1,0-5.97739v-.43745"/><path class="f" d="M281.3766,20.14407v-.39132a15.02956,15.02956,0,0,1,0-5.97739v-.43745"/><path class="f" d="M277.17884,20.14407v-.39132a15.02956,15.02956,0,0,1,0-5.97739v-.43745"/><path class="f" d="M272.98108,20.14407v-.39132a15.02956,15.02956,0,0,1,0-5.97739v-.43745"/><path class="f" d="M268.78331,20.14407v-.39132a15.02956,15.02956,0,0,1,0-5.97739v-.43745"/><path class="f" d="M264.58555,20.14407v-.39132a15.02956,15.02956,0,0,1,0-5.97739v-.43745"/><path class="f" d="M260.38779,20.14407v-.39132a15.02956,15.02956,0,0,1,0-5.97739v-.43745"/><path class="f" d="M256.19,20.14407v-.39132a15.02956,15.02956,0,0,1,0-5.97739v-.43745"/><path class="f" d="M251.99226,20.14407v-.39132a15.02956,15.02956,0,0,1,0-5.97739v-.43745"/><path class="f" d="M247.7945,20.14407v-.39132a15.02956,15.02956,0,0,1,0-5.97739v-.43745"/><polygon class="g" points="17.406 16.731 0 16.731 18.19 22.97 17.406 16.731"/><polygon class="h" points="261.253 19.242 270.896 27.444 299.188 27.444 289.545 19.242 261.253 19.242"/><polygon class="i" points="289.545 19.242 294.039 25.755 271.381 25.755 261.253 19.242 270.896 27.444 299.188 27.444 289.545 19.242"/><polygon class="j" points="289.545 19.242 262.822 20.577 261.253 19.242 289.545 19.242"/><polygon class="h" points="261.253 14.102 270.896 5.9 299.188 5.9 289.545 14.102 261.253 14.102"/><polygon class="j" points="293.401 10.822 261.253 14.102 289.545 14.102 293.401 10.822"/><polygon class="i" points="299.188 5.9 272.496 7.117 261.253 14.102 270.896 5.9 299.188 5.9"/><rect class="k" x="34.42788" width="215.84717" height="32.44474" rx="6.0909"/><path class="d" d="M74.87733,11.49075h.375a.45823.45823,0,0,1,.33789.1123.33213.33213,0,0,1,.09765.27735q-.12011.62988-.20312,1.14062-.082.50976-.1123,1.01172c-.01954.33594-.03028.71289-.03028,1.13281l.0459,4.08008a.33409.33409,0,0,1-.3457.34473l-2.12989-.0293a.3475.3475,0,0,1-.24707-.09082.32691.32691,0,0,1-.09765-.25488v-.4795a.33407.33407,0,0,1,.34472-.3457l1.15528.01563V15.22512c0-.40918.00488-.78711.01465-1.13183a9.28049,9.28049,0,0,1,.08984-1.043,11.755,11.755,0,0,1,.24023-1.18457.63432.63432,0,0,1,.14258-.27051A.42727.42727,0,0,1,74.87733,11.49075Zm-1.34961.73437a.33109.33109,0,0,1-.34473-.34472v-.50977a.33255.33255,0,0,1,.34473-.34473H76.7826a4.88625,4.88625,0,0,1,2.1377.41211,2.7315,2.7315,0,0,1,1.26757,1.23047,4.38822,4.38822,0,0,1,.41993,2.01758v4.55957a.334.334,0,0,1-.34473.34473h-.67578a.32972.32972,0,0,1-.25488-.09766.35115.35115,0,0,1-.08985-.24707V14.76028a2.69838,2.69838,0,0,0-.59961-1.86719,2.48638,2.48638,0,0,0-1.93554-.668Z"/><path class="d" d="M87.08729,18.46536a3.2,3.2,0,0,0,1.64258-.35938,2.48623,2.48623,0,0,0,1.0205-1.07324,3.49908,3.49908,0,0,0,.35254-1.59668V11.37063a.33255.33255,0,0,1,.34473-.34473h.62988a.31144.31144,0,0,1,.24024.09766.35114.35114,0,0,1,.08984.24707v4.16992a4.76889,4.76889,0,0,1-.2998,1.73242,3.65707,3.65707,0,0,1-2.168,2.15235,4.28872,4.28872,0,0,1-1.67188.25488H86.143a3.45265,3.45265,0,0,1-1.75586-.44922,3.24765,3.24765,0,0,1-1.22949-1.26074,3.7969,3.7969,0,0,1-.45019-1.875V11.37063a.334.334,0,0,1,.34472-.34473H83.682a.33409.33409,0,0,1,.3457.34473l.04492,4.4248a2.61657,2.61657,0,0,0,.71973,1.98047,2.5379,2.5379,0,0,0,1.83008.68946Zm-3.33008-1.75489-.0293-1.09472a3.66807,3.66807,0,0,0,1.69434-.33789,1.78573,1.78573,0,0,0,.81738-.86231,2.96047,2.96047,0,0,0,.23242-1.18457V11.37063a.34753.34753,0,0,1,.09082-.24707.327.327,0,0,1,.25489-.09766H87.432a.33409.33409,0,0,1,.3457.34473v1.91992a3.53825,3.53825,0,0,1-.43555,1.75488A3.03091,3.03091,0,0,1,86.015,16.2759,4.88277,4.88277,0,0,1,83.75721,16.71047Z"/><path class="d" d="M96.73182,19.72512a.25753.25753,0,0,1-.24707-.03711.27078.27078,0,0,1-.1123-.23242v-.69043a.3762.3762,0,0,1,.082-.23926.53566.53566,0,0,1,.248-.165l.56934-.22558a5.3608,5.3608,0,0,0,1.08789-.61426,2.39833,2.39833,0,0,0,.76465-.99023,4.12811,4.12811,0,0,0,.27734-1.65039,4.15118,4.15118,0,0,0-.23926-1.55274,1.50065,1.50065,0,0,0-.78808-.82422,3.644,3.644,0,0,0-1.47754-.248H93.85194a.334.334,0,0,1-.34473-.34473v-.54a.334.334,0,0,1,.34473-.34473h3.24023a5.06545,5.06545,0,0,1,2.18262.38965,2.3107,2.3107,0,0,1,1.15527,1.25293,6.06534,6.06534,0,0,1,.35254,2.25684,5.21385,5.21385,0,0,1-.28515,1.81543,4.02882,4.02882,0,0,1-.77247,1.30468,4.51791,4.51791,0,0,1-1.0957.89258,6.9565,6.9565,0,0,1-1.26758.57715Zm-2.87988,2.73047a.334.334,0,0,1-.34473-.34473v-7.875a.33409.33409,0,0,1,.34473-.3457h.66015a.33032.33032,0,0,1,.25489.09766.34926.34926,0,0,1,.08984.248v7.875a.34848.34848,0,0,1-.08984.24707.32692.32692,0,0,1-.25489.09766Z"/><path class="d" d="M108.94276,19.59036a.33409.33409,0,0,1-.34571-.34473V14.76028a2.69842,2.69842,0,0,0-.5996-1.86719,2.485,2.485,0,0,0-1.93555-.668h-2.81934a.33261.33261,0,0,1-.3457-.34472v-.50977a.33409.33409,0,0,1,.3457-.34473h2.89453a3.91508,3.91508,0,0,1,2.8877.94434,3.73558,3.73558,0,0,1,.9375,2.74512v4.53027a.334.334,0,0,1-.34473.34473Zm-5.7002,0a.33409.33409,0,0,1-.3457-.34473V14.23586a.33414.33414,0,0,1,.3457-.3457h.68946a.31191.31191,0,0,1,.24023.09766.34922.34922,0,0,1,.08984.248v5.00977a.34681.34681,0,0,1-.08984.24707.30859.30859,0,0,1-.24023.09766Z"/><path class="d" d="M116.09705,16.11086a.33479.33479,0,0,1-.248-.09765.3386.3386,0,0,1-.09766-.24805V11.37063a.33409.33409,0,0,1,.3457-.34473h.71973a.31144.31144,0,0,1,.24024.09766.35114.35114,0,0,1,.08984.24707v4.39453a.35359.35359,0,0,1-.08984.24805.31144.31144,0,0,1-.24024.09765Z"/><path class="d" d="M122.5912,19.72512a.25755.25755,0,0,1-.24708-.03711.27081.27081,0,0,1-.1123-.23242v-.69043a.3762.3762,0,0,1,.082-.23926.53575.53575,0,0,1,.248-.165l.56933-.22558a5.36053,5.36053,0,0,0,1.08789-.61426,2.39833,2.39833,0,0,0,.76465-.99023,4.1281,4.1281,0,0,0,.27735-1.65039,4.15118,4.15118,0,0,0-.23926-1.55274,1.50067,1.50067,0,0,0-.78809-.82422,3.644,3.644,0,0,0-1.47754-.248h-3.04492a.334.334,0,0,1-.34472-.34473v-.54a.334.334,0,0,1,.34472-.34473h3.24024a5.06537,5.06537,0,0,1,2.18261.38965,2.31072,2.31072,0,0,1,1.15528,1.25293,6.06555,6.06555,0,0,1,.35254,2.25684,5.21384,5.21384,0,0,1-.28516,1.81543,4.0288,4.0288,0,0,1-.77246,1.30468,4.5181,4.5181,0,0,1-1.0957.89258,6.9565,6.9565,0,0,1-1.26758.57715Zm-2.87989,2.73047a.334.334,0,0,1-.34472-.34473v-7.875a.33407.33407,0,0,1,.34472-.3457h.66016a.33031.33031,0,0,1,.25488.09766.34923.34923,0,0,1,.08985.248v7.875a.34844.34844,0,0,1-.08985.24707.32691.32691,0,0,1-.25488.09766Z"/><path class="d" d="M130.63123,12.2554l-1.78418-.01465a.35359.35359,0,0,1-.248-.08985.31141.31141,0,0,1-.09766-.24023v-2.625a.33261.33261,0,0,1,.3457-.34473h.62989a.33271.33271,0,0,1,.25488.09668.35527.35527,0,0,1,.08984.248V11.0259h.83985Zm-.02929,7.46972a.27431.27431,0,0,1-.25489-.03711.26583.26583,0,0,1-.12011-.23242v-.69043a.3762.3762,0,0,1,.082-.23926.5357.5357,0,0,1,.24805-.165l.585-.22558a5.537,5.537,0,0,0,1.07226-.61426,2.39833,2.39833,0,0,0,.76465-.99023,4.12811,4.12811,0,0,0,.27734-1.65039,4.24816,4.24816,0,0,0-.23242-1.55274,1.4698,1.4698,0,0,0-.77929-.82422,3.694,3.694,0,0,0-1.49317-.248h-.44922a.33409.33409,0,0,1-.3457-.34473v-.54a.33409.33409,0,0,1,.3457-.34473h.65918a5.07686,5.07686,0,0,1,2.17578.38965,2.30491,2.30491,0,0,1,1.16211,1.25293,6.06534,6.06534,0,0,1,.35254,2.25684,5.19107,5.19107,0,0,1-.28515,1.81543,4.01155,4.01155,0,0,1-.77247,1.30468,4.45908,4.45908,0,0,1-1.10253.89258,7.23622,7.23622,0,0,1-1.27442.57715Z"/><path class="d" d="M136.96131,19.59036a.334.334,0,0,1-.34472-.34473v-7.875a.334.334,0,0,1,.34472-.34473h2.92481a4.88323,4.88323,0,0,1,2.13769.41211,2.727,2.727,0,0,1,1.26758,1.23047,4.451,4.451,0,0,1,.41992,2.04688v4.53027a.334.334,0,0,1-.34472.34473h-.67481a.32691.32691,0,0,1-.25488-.09766.34749.34749,0,0,1-.09082-.24707V14.76028a2.69368,2.69368,0,0,0-.59961-1.86719,2.484,2.484,0,0,0-1.93457-.668h-1.83008v7.02051a.35114.35114,0,0,1-.08984.24707.31144.31144,0,0,1-.24024.09766Z"/><path class="d" d="M151.556,11.49075h.375a.45823.45823,0,0,1,.33789.1123.33217.33217,0,0,1,.09766.27735q-.12012.62988-.20313,1.14062-.082.50976-.1123,1.01172c-.01954.33594-.03028.71289-.03028,1.13281l.0459,4.08008a.33409.33409,0,0,1-.3457.34473l-2.12988-.0293a.34753.34753,0,0,1-.24708-.09082.32694.32694,0,0,1-.09765-.25488v-.4795a.33407.33407,0,0,1,.34473-.3457l1.15527.01563V15.22512c0-.40918.00488-.78711.01465-1.13183a9.28049,9.28049,0,0,1,.08984-1.043,11.75532,11.75532,0,0,1,.24024-1.18457.6342.6342,0,0,1,.14257-.27051A.42727.42727,0,0,1,151.556,11.49075Zm-1.34961.73437a.33109.33109,0,0,1-.34473-.34472v-.50977a.33255.33255,0,0,1,.34473-.34473h3.25488a4.88625,4.88625,0,0,1,2.1377.41211,2.73157,2.73157,0,0,1,1.26758,1.23047,4.38835,4.38835,0,0,1,.41992,2.01758v4.55957a.334.334,0,0,1-.34473.34473H156.266a.32972.32972,0,0,1-.25488-.09766.35115.35115,0,0,1-.08985-.24707V14.76028a2.69838,2.69838,0,0,0-.59961-1.86719,2.48637,2.48637,0,0,0-1.93554-.668Z"/><path class="d" d="M159.49159,19.59036a.33409.33409,0,0,1-.34571-.34473v-2.25a6.127,6.127,0,0,1,.13574-1.3125,3.21253,3.21253,0,0,1,.53223-1.18457,4.04928,4.04928,0,0,1,1.19238-1.05762l.69043,1.00489a2.48726,2.48726,0,0,0-.81054.7871,2.75281,2.75281,0,0,0-.36035.915,4.895,4.895,0,0,0-.08985.90723v2.19043a.334.334,0,0,1-.34472.34473Zm5.84961,0a.34113.34113,0,0,1-.25489-.08985c-.06054-.05957-.11523-.11523-.165-.165l-5.50488-7.72461a.55706.55706,0,0,1-.10547-.28515.27548.27548,0,0,1,.09766-.21.31179.31179,0,0,1,.21777-.08985h.70508a.3715.3715,0,0,1,.26269.08985,1.5742,1.5742,0,0,1,.15723.165l5.51953,7.72461a1.35426,1.35426,0,0,1,.083.165.34827.34827,0,0,1,.02246.12012.307.307,0,0,1-.2998.29981Zm-1.2002-2.74512-.61523-1.03418a2.98871,2.98871,0,0,0,1.043-.7207,1.59626,1.59626,0,0,0,.36719-.78711,5.98576,5.98576,0,0,0,.06055-.86231V11.37063a.334.334,0,0,1,.34473-.34473h.62988a.33255.33255,0,0,1,.34472.34473v2.14453a4.89562,4.89562,0,0,1-.14941,1.21582,2.67549,2.67549,0,0,1-.60742,1.10254A4.88842,4.88842,0,0,1,164.141,16.84524Z"/><path class="d" d="M175.70545,19.74075a3.74359,3.74359,0,0,1-2.89453-.97559,3.86868,3.86868,0,0,1-.88476-2.69922V11.37063a.334.334,0,0,1,.34472-.34473h.61524a.32975.32975,0,0,1,.25488.09766.35114.35114,0,0,1,.08984.24707v4.62012a2.62247,2.62247,0,0,0,.61524,1.85937,3.00791,3.00791,0,0,0,3.68262.06055,2.60694,2.60694,0,0,0,.60742-1.79981,4.19284,4.19284,0,0,0,.00683-.458q-.00732-.30762-.00683-.62207v-.46485a2.81625,2.81625,0,0,0-.53321-1.81543,1.66713,1.66713,0,0,0-1.3125-.57031,2.24168,2.24168,0,0,0-.585.09082,1.89939,1.89939,0,0,0-.55468.23926.30066.30066,0,0,1-.28516.00781.23588.23588,0,0,1-.14941-.23242v-.46484a1.05318,1.05318,0,0,1,.02929-.2627.36614.36614,0,0,1,.165-.20215,3.11036,3.11036,0,0,1,.65234-.293,3.04782,3.04782,0,0,1,.90821-.1123,3.32288,3.32288,0,0,1,1.63476.36719,2.40194,2.40194,0,0,1,1.0127,1.13281,4.87115,4.87115,0,0,1,.36719,1.96484q.01464.15089.01464.50977v.73535c0,.25-.00488.4248-.01464.52539a4.79592,4.79592,0,0,1-.41211,1.94238,2.53133,2.53133,0,0,1-1.2002,1.207A4.90787,4.90787,0,0,1,175.70545,19.74075Z"/><path class="d" d="M186.16053,19.59036a.334.334,0,0,1-.34473-.34473V14.76028a2.69842,2.69842,0,0,0-.5996-1.86719,2.48641,2.48641,0,0,0-1.93555-.668H181.3158a.33253.33253,0,0,1-.34472-.34472v-.50977a.334.334,0,0,1,.34472-.34473h2.04a4.966,4.966,0,0,1,2.1377.4043,2.69273,2.69273,0,0,1,1.26758,1.22266,4.42869,4.42869,0,0,1,.41992,2.0332v4.55957a.33409.33409,0,0,1-.3457.34473Z"/><path class="d" d="M190.61561,12.2554v1.16992a2.97138,2.97138,0,0,0,.14258.90039.6569.6569,0,0,0,.458.45019l.55468.14942a.29187.29187,0,0,1,.1875.1582.64921.64921,0,0,1,.06739.30664v.375a.24941.24941,0,0,1-.165.24024.61432.61432,0,0,1-.36036.04492l-.585-.12012a1.89726,1.89726,0,0,1-.82421-.42676,1.85633,1.85633,0,0,1-.51758-.84082,4.17716,4.17716,0,0,1-.17285-1.28222V11.37063a.35114.35114,0,0,1,.08984-.24707.32833.32833,0,0,1,.25488-.09766h2.77539a3.63988,3.63988,0,0,1,1.875.44239,2.8315,2.8315,0,0,1,1.13965,1.27441,4.998,4.998,0,0,1,.41992,2.00293c.00977.15039.01563.33789.01563.5625s-.00586.41211-.01563.5625a5.01439,5.01439,0,0,1-.41992,1.99512,2.82622,2.82622,0,0,1-1.13965,1.28222,3.63988,3.63988,0,0,1-1.875.44239h-2.59472a.33409.33409,0,0,1-.34571-.34473v-.54a.33409.33409,0,0,1,.34571-.34473h2.51953a1.97237,1.97237,0,0,0,1.59765-.668,3.06018,3.06018,0,0,0,.62207-1.86719c.00977-.15039.01563-.32227.01563-.51758s-.00586-.36719-.01563-.51758a2.87653,2.87653,0,0,0-.60742-1.86719,2.01641,2.01641,0,0,0-1.6123-.668Z"/><path class="d" d="M198.17518,16.11086a.33407.33407,0,0,1-.34473-.3457V11.37063a.334.334,0,0,1,.34473-.34473h.7207a.30788.30788,0,0,1,.23926.09766.34681.34681,0,0,1,.08984.24707v4.39453a.34923.34923,0,0,1-.08984.24805.30788.30788,0,0,1-.23926.09765Z"/><path class="d" d="M209.65077,14.76028a2.67752,2.67752,0,0,0-.60743-1.86719,2.50993,2.50993,0,0,0-1.94238-.668h-2.20508a.33261.33261,0,0,1-.3457-.34472v-.50977a.33409.33409,0,0,1,.3457-.34473h2.2793a5.08742,5.08742,0,0,1,2.15332.39746,2.66573,2.66573,0,0,1,1.26758,1.2002,4.44034,4.44034,0,0,1,.41992,2.0625V21.106a.33409.33409,0,0,1-.3457.34473h-.67481a.32691.32691,0,0,1-.25488-.09766.35281.35281,0,0,1-.08984-.24707Z"/><path class="d" d="M213.475,16.11086a.33406.33406,0,0,1-.34472-.3457V11.37063a.334.334,0,0,1,.34472-.34473h.72071a.3079.3079,0,0,1,.23926.09766.34686.34686,0,0,1,.08984.24707v4.39453a.34927.34927,0,0,1-.08984.24805.30789.30789,0,0,1-.23926.09765Z"/><path class="d" d="M216.61073,19.59036a.33409.33409,0,0,1-.34571-.34473v-.50977a.33414.33414,0,0,1,.34571-.3457h4.22949v.915a.24452.24452,0,0,1-.09766.21777.42383.42383,0,0,1-.24707.06739Zm3.31445,0a.28659.28659,0,0,1-.23242-.09766.53489.53489,0,0,1-.11231-.24707l-.28515-4.63477a11.71625,11.71625,0,0,0-.11231-1.27539,1.54338,1.54338,0,0,0-.36035-.83984,1.20774,1.20774,0,0,0-.92187-.2998h-.61524a.33261.33261,0,0,1-.34473-.34571v-.50976a.33255.33255,0,0,1,.34473-.34473h.62988a3.25872,3.25872,0,0,1,1.37989.24707,1.87707,1.87707,0,0,1,.81738.7207,3.326,3.326,0,0,1,.41992,1.13184,11.07253,11.07253,0,0,1,.17285,1.4707l.28516,4.67969a.28294.28294,0,0,1-.08984.24707.36035.36035,0,0,1-.25489.09766Z"/><path class="d" d="M223.19569,19.59036a.33409.33409,0,0,1-.34571-.34473v-7.875a.33409.33409,0,0,1,.34571-.34473h2.9248a4.88625,4.88625,0,0,1,2.1377.41211,2.73157,2.73157,0,0,1,1.26758,1.23047,4.46359,4.46359,0,0,1,.41992,2.04688v4.53027a.33409.33409,0,0,1-.34571.34473h-.6748a.32831.32831,0,0,1-.25488-.09766.35115.35115,0,0,1-.08985-.24707V14.76028a2.69838,2.69838,0,0,0-.59961-1.86719,2.48637,2.48637,0,0,0-1.93554-.668h-1.83008v7.02051a.34682.34682,0,0,1-.08985.24707.30857.30857,0,0,1-.24023.09766Z"/><path class="d" d="M238.21034,19.59036a.33409.33409,0,0,1-.34571-.34473V14.76028a2.69838,2.69838,0,0,0-.59961-1.86719,2.485,2.485,0,0,0-1.93554-.668h-2.81934a.33259.33259,0,0,1-.3457-.34472v-.50977a.33407.33407,0,0,1,.3457-.34473h2.89453a3.91508,3.91508,0,0,1,2.8877.94434,3.73558,3.73558,0,0,1,.9375,2.74512v4.53027a.334.334,0,0,1-.34473.34473Zm-5.7002,0a.33407.33407,0,0,1-.3457-.34473V14.23586a.33412.33412,0,0,1,.3457-.3457h.68945a.31192.31192,0,0,1,.24024.09766.34926.34926,0,0,1,.08984.248v5.00977a.34686.34686,0,0,1-.08984.24707.30859.30859,0,0,1-.24024.09766Z"/></svg>