<svg xmlns="http://www.w3.org/2000/svg" viewBox="0 0 300.80274 50.58049"><defs><style>.a,.b,.f{fill:none;}.a{stroke:#706f6f;stroke-width:6.82666px;}.a,.b{stroke-linecap:round;stroke-linejoin:round;}.b{stroke:#878787;stroke-width:2.27555px;}.c{fill:#9d9d9c;}.d{fill:#3c3c3b;}.e{fill:#ededed;}.f{stroke:#575756;stroke-miterlimit:10;stroke-width:1.70667px;}.g{fill:#c6c6c6;}.h{fill:#decfe2;}.i{fill:#ffe3ff;}.j{fill:#aa96a9;}.k{fill:#fff;}</style></defs><line class="a" x1="297.3894" y1="25.34896" x2="23.44133" y2="25.34896"/><line class="b" x1="297.3894" y1="24.84059" x2="23.44133" y2="24.84059"/><polygon class="c" points="21.392 29.178 21.392 21.52 18.19 19.11 17.406 25.349 18.19 31.588 21.392 29.178"/><rect class="d" x="17.48537" y="24.20143" width="9.61696" height="2.29496" rx="1.14748" transform="translate(47.64276 3.05505) rotate(90)"/><polygon class="e" points="18.19 19.11 0 25.349 18.19 31.588 17.406 25.349 18.19 19.11"/><path class="f" d="M48.06089,28.76229V28.371a15.02955,15.02955,0,0,1,0-5.97739v-.43745"/><path class="f" d="M43.86313,28.76229V28.371a15.02955,15.02955,0,0,1,0-5.97739v-.43745"/><path class="f" d="M39.66536,28.76229V28.371a15.02976,15.02976,0,0,1,0-5.97739v-.43745"/><path class="f" d="M35.4676,28.76229V28.371a15.02955,15.02955,0,0,1,0-5.97739v-.43745"/><path class="f" d="M293.96989,28.76229V28.371a15.02955,15.02955,0,0,1,0-5.97739v-.43745"/><path class="f" d="M289.77213,28.76229V28.371a15.02955,15.02955,0,0,1,0-5.97739v-.43745"/><path class="f" d="M285.57437,28.76229V28.371a15.02955,15.02955,0,0,1,0-5.97739v-.43745"/><path class="f" d="M281.3766,28.76229V28.371a15.02955,15.02955,0,0,1,0-5.97739v-.43745"/><path class="f" d="M277.17884,28.76229V28.371a15.02955,15.02955,0,0,1,0-5.97739v-.43745"/><path class="f" d="M272.98108,28.76229V28.371a15.02955,15.02955,0,0,1,0-5.97739v-.43745"/><path class="f" d="M268.78331,28.76229V28.371a15.02955,15.02955,0,0,1,0-5.97739v-.43745"/><path class="f" d="M264.58555,28.76229V28.371a15.02955,15.02955,0,0,1,0-5.97739v-.43745"/><path class="f" d="M260.38779,28.76229V28.371a15.02955,15.02955,0,0,1,0-5.97739v-.43745"/><path class="f" d="M256.19,28.76229V28.371a15.02955,15.02955,0,0,1,0-5.97739v-.43745"/><path class="f" d="M251.99226,28.76229V28.371a15.02955,15.02955,0,0,1,0-5.97739v-.43745"/><path class="f" d="M247.7945,28.76229V28.371a15.02955,15.02955,0,0,1,0-5.97739v-.43745"/><polygon class="g" points="17.406 25.349 0 25.349 18.19 31.588 17.406 25.349"/><polygon class="h" points="261.253 27.861 270.896 36.063 299.188 36.063 289.545 27.861 261.253 27.861"/><polygon class="i" points="289.545 27.861 294.039 34.373 271.381 34.373 261.253 27.861 270.896 36.063 299.188 36.063 289.545 27.861"/><polygon class="j" points="289.545 27.861 262.822 29.195 261.253 27.861 289.545 27.861"/><polygon class="h" points="261.253 22.72 270.896 14.518 299.188 14.518 289.545 22.72 261.253 22.72"/><polygon class="j" points="293.401 19.441 261.253 22.72 289.545 22.72 293.401 19.441"/><polygon class="i" points="299.188 14.518 272.496 15.736 261.253 22.72 270.896 14.518 299.188 14.518"/><rect class="k" x="34.42788" width="215.84717" height="50.58049" rx="7.60502"/><path class="d" d="M66.08031,16.01313a.33322.33322,0,0,1-.09766-.24744v-4.395a.32858.32858,0,0,1,.09766-.255.352.352,0,0,1,.24805-.09h.65918a.33372.33372,0,0,1,.3457.345v4.395a.3339.3339,0,0,1-.3457.345h-.65918A.33567.33567,0,0,1,66.08031,16.01313Z"/><path class="d" d="M74.48754,19.30573a.25381.25381,0,0,1-.09766.20239.34465.34465,0,0,1-.23242.08252h-.65918q-.28564,0-.34571-.345l-.34472-1.755a4.53827,4.53827,0,0,1-1.27539,1.335,6.16427,6.16427,0,0,1-1.03418.57751,5.14866,5.14866,0,0,1-1.02051.3075l-.10449.015c-.1709,0-.25586-.08008-.25586-.24v-.705q0-.25488.31543-.375.04541-.01482.59277-.20251a4.37672,4.37672,0,0,0,.98242-.47253,4.072,4.072,0,0,0,.88477-.78748,3.46322,3.46322,0,0,0,.61523-.95251l-.2705-1.35a8.85755,8.85755,0,0,0-.38184-1.40247,1.81708,1.81708,0,0,0-.54785-.78759,1.42045,1.42045,0,0,0-.90039-.2699h-.55469a.34913.34913,0,0,1-.24707-.09009.3093.3093,0,0,1-.09766-.24v-.51a.33385.33385,0,0,1,.34473-.345h.55469a2.8956,2.8956,0,0,1,1.57519.39,2.70777,2.70777,0,0,1,.98242,1.16248,9.01638,9.01638,0,0,1,.62305,2.01746l.89942,4.68005Z"/><path class="d" d="M76.3098,19.49323a.33368.33368,0,0,1-.09765-.24756v-7.875a.32858.32858,0,0,1,.09765-.255.352.352,0,0,1,.24805-.09H77.217a.33372.33372,0,0,1,.3457.345v7.875a.33372.33372,0,0,1-.3457.345h-.65918A.336.336,0,0,1,76.3098,19.49323Z"/><path class="d" d="M80.72,18.77314a3.87617,3.87617,0,0,1-.92285-2.78247v-4.62a.32858.32858,0,0,1,.09765-.255.3496.3496,0,0,1,.24707-.09h3.60059a3.73446,3.73446,0,0,1,2.77441.87,3.96413,3.96413,0,0,1,.915,2.66993c.00977.10009.01563.37011.01563.81006,0,.44018-.00586.7102-.01563.80993a3.65266,3.65266,0,0,1-.97461,2.67,4.20091,4.20091,0,0,1-2.96972.885A3.65251,3.65251,0,0,1,80.72,18.77314Zm4.77734-.80994a2.55719,2.55719,0,0,0,.64453-1.85254q.01611-.14977.01563-.735,0-.585-.01563-.735a2.52059,2.52059,0,0,0-.68164-1.83008,2.47509,2.47509,0,0,0-1.793-.62988H81.05687v3.80994a2.71857,2.71857,0,0,0,.60742,1.905,2.33709,2.33709,0,0,0,1.80762.66A2.85738,2.85738,0,0,0,85.4973,17.9632Z"/><path class="d" d="M92.79515,19.49323a.33368.33368,0,0,1-.09765-.24756v-.45a.87951.87951,0,0,1,.375-.66l3.26953-3.255a9.31393,9.31393,0,0,0,1.53027-1.545,2.1824,2.1824,0,0,0,.41992-1.275,1.89176,1.89176,0,0,0-.49511-1.38745,2.25322,2.25322,0,0,0-2.86426.02246,2.37762,2.37762,0,0,0-.64551,1.41.41471.41471,0,0,1-.38965.345H93.177a.3037.3037,0,0,1-.22461-.09.289.289,0,0,1-.08984-.21,3.49018,3.49018,0,0,1,.42773-1.53748A3.15029,3.15029,0,0,1,94.467,9.39814a3.58574,3.58574,0,0,1,1.89062-.47242,3.3614,3.3614,0,0,1,2.52735.87745,3.078,3.078,0,0,1,.84765,2.22753,3.2315,3.2315,0,0,1-.458,1.70252A6.93386,6.93386,0,0,1,97.842,15.33063l-2.95508,3h4.72559a.31327.31327,0,0,1,.34472.34509v.57a.33365.33365,0,0,1-.34472.345H93.04222A.33381.33381,0,0,1,92.79515,19.49323Z"/><path class="d" d="M101.85472,15.60065a.30929.30929,0,0,1-.09765-.24v-.54a.33383.33383,0,0,1,.34472-.345h4.5a.3339.3339,0,0,1,.34571.345v.54a.31268.31268,0,0,1-.09766.24.35148.35148,0,0,1-.24805.09h-4.5A.34907.34907,0,0,1,101.85472,15.60065Z"/><path class="d" d="M108.25218,19.49323a.34806.34806,0,0,1-.08984-.24756v-.48a.34889.34889,0,0,1,.08984-.24756.31009.31009,0,0,1,.24024-.09741h4.335v-3.66a2.274,2.274,0,0,0-2.58008-2.56506h-1.60547a.31253.31253,0,0,1-.24023-.09741.35237.35237,0,0,1-.08985-.24756v-.48a.35322.35322,0,0,1,.08985-.24756.31337.31337,0,0,1,.24023-.09741h1.68067q3.83935,0,3.83984,3.67493v3.72009h.56934a.31008.31008,0,0,1,.24023.09741.34885.34885,0,0,1,.08984.24756v.48a.348.348,0,0,1-.08984.24756.30967.30967,0,0,1-.24023.09741h-6.23926A.30968.30968,0,0,1,108.25218,19.49323Z"/><path class="d" d="M128.55492,11.12311a.33755.33755,0,0,1,.09668.24756v4.17a4.56494,4.56494,0,0,1-.5166,2.21241,3.52658,3.52658,0,0,1-1.45508,1.45507,4.2587,4.2587,0,0,1-2.15332.47254h-1.10938a3.44473,3.44473,0,0,1-1.75488-.45007,3.17019,3.17019,0,0,1-1.22266-1.26746,3.89275,3.89275,0,0,1-.44238-1.88257v-4.71a.32858.32858,0,0,1,.09766-.255.34958.34958,0,0,1,.24707-.09h.585a.33367.33367,0,0,1,.34473.345l.04492,4.26a2.66639,2.66639,0,0,0,1.89746-.735,2.46685,2.46685,0,0,0,.5332-1.65v-1.875a.33367.33367,0,0,1,.34473-.345h.585a.33367.33367,0,0,1,.34473.345v1.93506a3.237,3.237,0,0,1-.915,2.37,3.89485,3.89485,0,0,1-2.68457,1.0199,2.3717,2.3717,0,0,0,.89257,1.34253,2.59813,2.59813,0,0,0,1.56739.47253h.47949a2.86621,2.86621,0,0,0,2.2207-.82507,3.12043,3.12043,0,0,0,.79492-2.235v-4.08a.33367.33367,0,0,1,.34473-.345h.585A.33854.33854,0,0,1,128.55492,11.12311Z"/><path class="d" d="M136.26488,11.4682a3.03279,3.03279,0,0,1,1.13965,1.26746,4.30734,4.30734,0,0,1,.41211,1.95v4.56006a.33219.33219,0,0,1-.34473.345h-3.87012a.31253.31253,0,0,1-.24023-.09741.35237.35237,0,0,1-.08984-.24756v-.48a.35322.35322,0,0,1,.08984-.24756.313.313,0,0,1,.24023-.09741h2.89551v-3.645a2.85171,2.85171,0,0,0-.57812-1.85254,1.803,1.803,0,0,0-1.46192-.71252h-1.58984l-1.15527,7.02a.39006.39006,0,0,1-.12793.255.35308.35308,0,0,1-.24707.105h-.62989a.27718.27718,0,0,1-.23242-.105.3355.3355,0,0,1-.06738-.255l1.19922-7.02H130.842a.33368.33368,0,0,1-.34473-.345v-.495a.33367.33367,0,0,1,.34473-.345h3.76465A3.12938,3.12938,0,0,1,136.26488,11.4682Z"/><path class="d" d="M147.68675,14.68561v4.56006a.33371.33371,0,0,1-.3457.345h-.62988a.33367.33367,0,0,1-.34473-.345v-4.485a2.28061,2.28061,0,0,0-2.58008-2.58h-1.08007q-.14941.94482-.21778,1.56738a11.18639,11.18639,0,0,0-.05176,1.4176l.0293,4.08a.33219.33219,0,0,1-.34473.345l-2.085-.03a.33365.33365,0,0,1-.34472-.345v-.45a.33365.33365,0,0,1,.34472-.345l1.15528.01489v-3.21q-.01466-.945.03711-1.59753a9.17161,9.17161,0,0,1,.248-1.44739h-.81054a.34913.34913,0,0,1-.24707-.09009.3093.3093,0,0,1-.09766-.24v-.48a.32858.32858,0,0,1,.09766-.255.34958.34958,0,0,1,.24707-.09h3.21Q147.68627,11.0257,147.68675,14.68561Z"/><path class="d" d="M158.344,11.12311a.33447.33447,0,0,1,.09766.24756v4.17a4.56514,4.56514,0,0,1-.51758,2.21241,3.51521,3.51521,0,0,1-1.45508,1.45507,4.25729,4.25729,0,0,1-2.15234.47254h-1.11035a3.44987,3.44987,0,0,1-1.75489-.45007,3.17656,3.17656,0,0,1-1.22265-1.26746,3.89264,3.89264,0,0,1-.44239-1.88257v-4.71a.32858.32858,0,0,1,.09766-.255.352.352,0,0,1,.24805-.09h.585a.33365.33365,0,0,1,.34472.345l.04493,4.26a2.66828,2.66828,0,0,0,1.89746-.735,2.47153,2.47153,0,0,0,.53222-1.65v-1.875a.33372.33372,0,0,1,.34571-.345h.585a.33365.33365,0,0,1,.34472.345v1.93506a3.241,3.241,0,0,1-.915,2.37,3.89745,3.89745,0,0,1-2.68555,1.0199,2.37648,2.37648,0,0,0,.89258,1.34253,2.60217,2.60217,0,0,0,1.56738.47253h.48047a2.864,2.864,0,0,0,2.21972-.82507,3.1162,3.1162,0,0,0,.79493-2.235v-4.08a.33371.33371,0,0,1,.3457-.345h.585A.33628.33628,0,0,1,158.344,11.12311Z"/><path class="d" d="M166.33812,19.49323a.33675.33675,0,0,1-.09668-.24756v-4.485a2.27416,2.27416,0,0,0-2.56543-2.58h-2.79a.34915.34915,0,0,1-.24707-.09009.30929.30929,0,0,1-.09765-.24v-.48a.32858.32858,0,0,1,.09765-.255.3496.3496,0,0,1,.24707-.09h2.86524q3.81006,0,3.80957,3.68994v4.53a.33367.33367,0,0,1-.34473.345h-.62988A.336.336,0,0,1,166.33812,19.49323Zm-5.69922,0a.33368.33368,0,0,1-.09765-.24756v-5.04a.33383.33383,0,0,1,.34472-.345h.62989a.3339.3339,0,0,1,.3457.345v5.04a.33372.33372,0,0,1-.3457.345H160.886A.33381.33381,0,0,1,160.6389,19.49323Z"/><path class="d" d="M173.8684,11.41571a2.34,2.34,0,0,1,1.1621,1.245,5.97252,5.97252,0,0,1,.36036,2.27991,4.37054,4.37054,0,0,1-.94532,2.99255,5.56023,5.56023,0,0,1-2.46,1.58252l-.62988.21a.25554.25554,0,0,1-.10449.015.27021.27021,0,0,1-.27051-.285v-.65991a.43991.43991,0,0,1,.33008-.405l.585-.225a3.45393,3.45393,0,0,0,1.58984-1.125,3.54625,3.54625,0,0,0,.55567-2.16,4.2244,4.2244,0,0,0-.24024-1.58252,1.53436,1.53436,0,0,0-.78711-.83252,3.644,3.644,0,0,0-1.50781-.255h-.50977l-1.38085-.015a.35072.35072,0,0,1-.24707-.09.30931.30931,0,0,1-.09766-.24v-2.58a.33386.33386,0,0,1,.34473-.34509h.60058a.31306.31306,0,0,1,.24024.09753.35322.35322,0,0,1,.08984.24756v1.74h1.15527A5.0178,5.0178,0,0,1,173.8684,11.41571Z"/><path class="d" d="M187.36156,11.11567a.34686.34686,0,0,1,.08984.255v4.14a3.645,3.645,0,0,1-.87011,2.37745,4.647,4.647,0,0,1-2.3252,1.49255l-3.26953,1.035a.40029.40029,0,0,1-.12012.015.3175.3175,0,0,1-.21-.07507.24136.24136,0,0,1-.09082-.19495v-.46509q0-.34479.24024-.41992l1.96484-.66-1.94922-6.99a1.82617,1.82617,0,0,1-.0752-.3.30727.30727,0,0,1,.29981-.29993h.69043a.36447.36447,0,0,1,.22461.0675.332.332,0,0,1,.12012.15748l1.91992,6.96a3.04494,3.04494,0,0,0,1.65722-1.18494,3.59088,3.59088,0,0,0,.47266-1.92v-3.735a.33367.33367,0,0,1,.34473-.345h.62988A.34755.34755,0,0,1,187.36156,11.11567Z"/><path class="d" d="M196.1057,11.11567a.34686.34686,0,0,1,.08984.255v.48a.30929.30929,0,0,1-.09765.24.34915.34915,0,0,1-.24707.09009h-.88477a1.64552,1.64552,0,0,0-.33789.705,4.21588,4.21588,0,0,0-.127,1.08v5.295a.29959.29959,0,0,1-.10547.24.37977.37977,0,0,1-.25488.09H193.511a.30944.30944,0,0,1-.33007-.33v-5.385a4.57656,4.57656,0,0,1,.10449-1.05,1.55821,1.55821,0,0,1,.28515-.6449H189.4309a.35156.35156,0,0,1-.24805-.09009.312.312,0,0,1-.09668-.24v-.48a.33219.33219,0,0,1,.34473-.345h6.41992A.34513.34513,0,0,1,196.1057,11.11567Z"/><path class="d" d="M198.04808,16.01313a.33322.33322,0,0,1-.09765-.24744v-4.395a.32858.32858,0,0,1,.09765-.255.352.352,0,0,1,.24805-.09h.65918a.33371.33371,0,0,1,.3457.345v4.395a.33389.33389,0,0,1-.3457.345h-.65918A.33567.33567,0,0,1,198.04808,16.01313Z"/><path class="d" d="M207.19066,12.18073h-2.20508a.30965.30965,0,0,1-.33008-.33008v-.48a.35322.35322,0,0,1,.08985-.24756.31337.31337,0,0,1,.24023-.09741h2.28028a4.04088,4.04088,0,0,1,2.87988.9,3.6481,3.6481,0,0,1,.94531,2.75989v6.42005a.33372.33372,0,0,1-.3457.345h-.62988a.34905.34905,0,0,1-.24707-.09.32825.32825,0,0,1-.09766-.255v-6.345A2.28061,2.28061,0,0,0,207.19066,12.18073Z"/><path class="d" d="M213.33324,16.01313a.33322.33322,0,0,1-.09766-.24744v-4.395a.32858.32858,0,0,1,.09766-.255.34958.34958,0,0,1,.24707-.09h.66016a.33365.33365,0,0,1,.34472.345v4.395a.33383.33383,0,0,1-.34472.345h-.66016A.33343.33343,0,0,1,213.33324,16.01313Z"/><path class="d" d="M220.99047,19.29071a.27233.27233,0,0,1-.09766.21741.34822.34822,0,0,1-.23242.08252H216.6555a.33372.33372,0,0,1-.3457-.345v-.48a.33372.33372,0,0,1,.3457-.345h2.95508l-.24023-3.81006q-.07471-.97485-.15723-1.43249a1.36375,1.36375,0,0,0-.36816-.74256,1.20707,1.20707,0,0,0-.88477-.28491H217.345a.34913.34913,0,0,1-.24707-.09009.30928.30928,0,0,1-.09766-.24v-.48a.33385.33385,0,0,1,.34473-.345h.61523a2.75041,2.75041,0,0,1,1.65723.42749,2.16577,2.16577,0,0,1,.79492,1.17749,9.28739,9.28739,0,0,1,.293,1.965l.28516,4.68005Z"/><path class="d" d="M222.99242,19.49323a.33368.33368,0,0,1-.09766-.24756v-7.875a.32858.32858,0,0,1,.09766-.255.352.352,0,0,1,.248-.09h2.87988a3.97759,3.97759,0,0,1,2.87988.92248,3.70458,3.70458,0,0,1,.94531,2.76746v4.53a.33371.33371,0,0,1-.3457.345H228.97a.33367.33367,0,0,1-.34473-.345v-4.485a2.28061,2.28061,0,0,0-2.58008-2.58h-1.83008v7.06494a.33365.33365,0,0,1-.34472.345h-.62988A.336.336,0,0,1,222.99242,19.49323Z"/><path class="d" d="M237.99242,19.49323a.33368.33368,0,0,1-.09766-.24756v-4.485a2.27347,2.27347,0,0,0-2.56445-2.58h-2.79a.35156.35156,0,0,1-.24805-.09009.30929.30929,0,0,1-.09765-.24v-.48a.32858.32858,0,0,1,.09765-.255.352.352,0,0,1,.24805-.09h2.86426q3.81006,0,3.81054,3.68994v4.53a.33365.33365,0,0,1-.34472.345h-.63086A.3338.3338,0,0,1,237.99242,19.49323Zm-5.7002,0a.33368.33368,0,0,1-.09765-.24756v-5.04a.33389.33389,0,0,1,.3457-.345h.62988a.33385.33385,0,0,1,.34473.345v5.04a.33367.33367,0,0,1-.34473.345h-.62988A.336.336,0,0,1,232.29222,19.49323Z"/><path class="d" d="M46.4016,37.49323a.33368.33368,0,0,1-.09766-.24756v-7.875a.32858.32858,0,0,1,.09766-.255.3508.3508,0,0,1,.24756-.09h.65966a.33369.33369,0,0,1,.34522.345v7.875a.33369.33369,0,0,1-.34522.345h-.65966A.33492.33492,0,0,1,46.4016,37.49323Z"/><path class="d" d="M56.384,29.11567a.34686.34686,0,0,1,.08984.255v.48a.311.311,0,0,1-.09765.24.35035.35035,0,0,1-.24756.09009h-.88477a1.64555,1.64555,0,0,0-.3374.705,4.19338,4.19338,0,0,0-.12744,1.08v5.295a.30071.30071,0,0,1-.105.24.38015.38015,0,0,1-.25537.09h-.62988a.31011.31011,0,0,1-.33008-.33v-5.385a4.5469,4.5469,0,0,1,.105-1.05,1.55191,1.55191,0,0,1,.28515-.6449H49.70873a.35035.35035,0,0,1-.24756-.09009.31063.31063,0,0,1-.09717-.24v-.48a.33293.33293,0,0,1,.34473-.345h6.41992A.34634.34634,0,0,1,56.384,29.11567Z"/><path class="d" d="M63.84593,29.4682a3.01983,3.01983,0,0,1,1.13965,1.26746,4.30733,4.30733,0,0,1,.41309,1.94995v4.56006a.33367.33367,0,0,1-.34473.345H61.18382a.30967.30967,0,0,1-.24023-.09741.35237.35237,0,0,1-.08984-.24756v-.48a.35322.35322,0,0,1,.08984-.24756.31008.31008,0,0,1,.24023-.09741h2.89454v-3.645a2.85131,2.85131,0,0,0-.57715-1.85254,1.8048,1.8048,0,0,0-1.46289-.71252H60.44847l-1.15527,7.02a.38887.38887,0,0,1-.127.255.35529.35529,0,0,1-.248.105h-.62988a.2784.2784,0,0,1-.23242-.105.34378.34378,0,0,1-.06739-.255l1.2002-7.02h-.76563a.33367.33367,0,0,1-.34472-.345v-.495a.33365.33365,0,0,1,.34472-.345h3.76563A3.12592,3.12592,0,0,1,63.84593,29.4682Z"/><path class="d" d="M71.70629,29.41571a2.34734,2.34734,0,0,1,1.16211,1.245,5.97274,5.97274,0,0,1,.36035,2.27991,4.37539,4.37539,0,0,1-.94532,2.99255,5.5657,5.5657,0,0,1-2.46,1.58252l-.62988.21a.26428.26428,0,0,1-.10547.015.26872.26872,0,0,1-.26953-.285v-.65991a.43869.43869,0,0,1,.33008-.405l.585-.225a3.45907,3.45907,0,0,0,1.58984-1.125,3.54651,3.54651,0,0,0,.55469-2.16,4.22463,4.22463,0,0,0-.24023-1.58252,1.52763,1.52763,0,0,0-.78711-.83252,3.641,3.641,0,0,0-1.50782-.255h-.50976l-1.37988-.015a.34909.34909,0,0,1-.24707-.09.30931.30931,0,0,1-.09766-.24v-2.58a.33386.33386,0,0,1,.34473-.34509H68.053a.31017.31017,0,0,1,.24023.09753.34885.34885,0,0,1,.08984.24756v1.74h1.15528A5.01956,5.01956,0,0,1,71.70629,29.41571Z"/><path class="d" d="M79.39379,37.29071a.27233.27233,0,0,1-.09766.21741.34822.34822,0,0,1-.23242.08252H75.05882a.33372.33372,0,0,1-.3457-.345v-.48a.33372.33372,0,0,1,.3457-.345H78.0139l-.24023-3.81006q-.07471-.97485-.15723-1.43249a1.36375,1.36375,0,0,0-.36816-.74256,1.20707,1.20707,0,0,0-.88477-.28491h-.61523a.34913.34913,0,0,1-.24707-.09009.30928.30928,0,0,1-.09766-.24v-.48a.33385.33385,0,0,1,.34473-.345h.61523a2.75041,2.75041,0,0,1,1.65723.42749,2.16577,2.16577,0,0,1,.79492,1.17749,9.28739,9.28739,0,0,1,.293,1.965l.28516,4.68Z"/><path class="d" d="M89.70629,29.12311a.33755.33755,0,0,1,.09668.24756v4.17a4.56483,4.56483,0,0,1-.51661,2.21241,3.5265,3.5265,0,0,1-1.45507,1.45507,4.25872,4.25872,0,0,1-2.15332.47254H84.56859a3.44473,3.44473,0,0,1-1.75488-.45007,3.17013,3.17013,0,0,1-1.22266-1.26746,3.89275,3.89275,0,0,1-.44238-1.88257v-4.71a.32861.32861,0,0,1,.09765-.255.34962.34962,0,0,1,.24708-.09h.585a.33365.33365,0,0,1,.34472.345l.04492,4.26a2.66642,2.66642,0,0,0,1.89747-.735,2.4669,2.4669,0,0,0,.5332-1.65v-1.875a.33365.33365,0,0,1,.34473-.345h.585a.33365.33365,0,0,1,.34472.345v1.93506a3.237,3.237,0,0,1-.915,2.37,3.89481,3.89481,0,0,1-2.68457,1.0199,2.37172,2.37172,0,0,0,.89258,1.34253,2.5981,2.5981,0,0,0,1.56738.47253h.4795a2.86621,2.86621,0,0,0,2.2207-.82507,3.12043,3.12043,0,0,0,.79492-2.235v-4.08a.33367.33367,0,0,1,.34473-.345h.585A.33854.33854,0,0,1,89.70629,29.12311Z"/><path class="d" d="M103.21312,32.68561v4.56006a.33371.33371,0,0,1-.3457.345h-.62988a.33367.33367,0,0,1-.34473-.345v-4.485a2.28061,2.28061,0,0,0-2.58008-2.58H98.23265q-.14942.94482-.21777,1.56738a11.18639,11.18639,0,0,0-.05176,1.4176l.0293,4.08a.33219.33219,0,0,1-.34473.345l-2.085-.03a.33367.33367,0,0,1-.34473-.345v-.45a.33367.33367,0,0,1,.34473-.345l1.15527.01489v-3.21q-.01464-.945.03711-1.59753a9.17287,9.17287,0,0,1,.248-1.44739h-.81055a.34915.34915,0,0,1-.24707-.09009.30929.30929,0,0,1-.09765-.24v-.48a.32858.32858,0,0,1,.09765-.255.3496.3496,0,0,1,.24707-.09h3.21Q103.21263,29.0257,103.21312,32.68561Z"/><path class="d" d="M105.5598,37.49323a.33368.33368,0,0,1-.09765-.24756v-7.875a.32858.32858,0,0,1,.09765-.255.352.352,0,0,1,.24805-.09h.65918a.33372.33372,0,0,1,.3457.345v7.875a.33372.33372,0,0,1-.3457.345h-.65918A.336.336,0,0,1,105.5598,37.49323Z"/><path class="d" d="M113.3225,37.29071a.26939.26939,0,0,1-.09766.21741.34465.34465,0,0,1-.23242.08252h-4.00488a.33367.33367,0,0,1-.34473-.345v-.48a.33367.33367,0,0,1,.34473-.345h2.95507l-.24023-3.81006q-.07472-.97485-.15723-1.43249a1.36268,1.36268,0,0,0-.36718-.74256,1.20862,1.20862,0,0,0-.88477-.28491H109.678a.35156.35156,0,0,1-.24805-.09009.312.312,0,0,1-.09668-.24v-.48a.33237.33237,0,0,1,.34473-.345h.61523a2.75041,2.75041,0,0,1,1.65723.42749,2.171,2.171,0,0,1,.79492,1.17749,9.35893,9.35893,0,0,1,.292,1.965l.28516,4.68Z"/><path class="d" d="M115.32543,37.49323a.33368.33368,0,0,1-.09766-.24756v-7.875a.32858.32858,0,0,1,.09766-.255.34958.34958,0,0,1,.24707-.09h.66015a.33367.33367,0,0,1,.34473.345v7.875a.33367.33367,0,0,1-.34473.345h-.66015A.3338.3338,0,0,1,115.32543,37.49323Z"/><path class="d" d="M123.51488,37.49323a.33368.33368,0,0,1-.09766-.24756v-4.485a2.28061,2.28061,0,0,0-2.58007-2.58h-1.93458a.35156.35156,0,0,1-.248-.09009.312.312,0,0,1-.09668-.24v-.48a.33219.33219,0,0,1,.34472-.345H120.927q3.81006,0,3.81055,3.65991v4.56006a.33367.33367,0,0,1-.34473.345H123.762A.33534.33534,0,0,1,123.51488,37.49323Z"/><path class="d" d="M130.07738,37.74067a.26872.26872,0,0,1-.26953-.285v-.65991a.43884.43884,0,0,1,.3291-.405l.585-.225a3.45709,3.45709,0,0,0,1.59082-1.125,3.55321,3.55321,0,0,0,.55469-2.16,4.2244,4.2244,0,0,0-.24024-1.58252,1.53436,1.53436,0,0,0-.78711-.83252,3.644,3.644,0,0,0-1.50781-.255h-3a.33367.33367,0,0,1-.34472-.345v-.51a.3098.3098,0,0,1,.09765-.24.3496.3496,0,0,1,.24707-.09H130.512a5.0612,5.0612,0,0,1,2.18262.39,2.34539,2.34539,0,0,1,1.16308,1.245,5.99361,5.99361,0,0,1,.35938,2.27991,4.37515,4.37515,0,0,1-.94434,2.99255,5.5657,5.5657,0,0,1-2.46,1.58252l-.62988.21A.26432.26432,0,0,1,130.07738,37.74067Zm-2.99219,2.625a.32825.32825,0,0,1-.09765-.255v-7.905a.33383.33383,0,0,1,.34472-.345h.61524a.33383.33383,0,0,1,.34472.345v7.905a.33365.33365,0,0,1-.34472.345h-.61524A.3491.3491,0,0,1,127.08519,40.36567Z"/><path class="d" d="M142.633,29.11567a.34687.34687,0,0,1,.08985.255v4.14a3.645,3.645,0,0,1-.87012,2.37745,4.647,4.647,0,0,1-2.3252,1.49255l-3.26953,1.035a.40026.40026,0,0,1-.12011.015.3175.3175,0,0,1-.21-.07507.24136.24136,0,0,1-.09082-.19495v-.46509q0-.34479.24023-.41992l1.96484-.66-1.94922-6.99a1.82558,1.82558,0,0,1-.07519-.3.30725.30725,0,0,1,.2998-.29993h.69043a.36443.36443,0,0,1,.22461.0675.332.332,0,0,1,.12012.15748l1.91992,6.96a3.045,3.045,0,0,0,1.65723-1.18494,3.59087,3.59087,0,0,0,.47265-1.92v-3.735a.33367.33367,0,0,1,.34473-.345h.62988A.34752.34752,0,0,1,142.633,29.11567Z"/><path class="d" d="M150.76976,37.49323a.33368.33368,0,0,1-.09765-.24756v-4.485a2.27348,2.27348,0,0,0-2.56446-2.58h-2.79a.35156.35156,0,0,1-.248-.09009.3093.3093,0,0,1-.09766-.24v-.48a.32858.32858,0,0,1,.09766-.255.352.352,0,0,1,.248-.09h2.86426q3.81006,0,3.81055,3.68994v4.53a.33367.33367,0,0,1-.34473.345h-.63086A.33381.33381,0,0,1,150.76976,37.49323Zm-5.70019,0a.33368.33368,0,0,1-.09766-.24756v-5.04a.3339.3339,0,0,1,.3457-.345h.62989a.33383.33383,0,0,1,.34472.345v5.04a.33365.33365,0,0,1-.34472.345h-.62989A.336.336,0,0,1,145.06957,37.49323Z"/><path class="d" d="M157.92406,34.01313a.33322.33322,0,0,1-.09766-.24744v-4.395a.32858.32858,0,0,1,.09766-.255.352.352,0,0,1,.24805-.09h.65918a.33372.33372,0,0,1,.3457.345v4.395a.3339.3339,0,0,1-.3457.345h-.65918A.33567.33567,0,0,1,157.92406,34.01313Z"/><path class="d" d="M162.58129,31.41071a2.64492,2.64492,0,0,0,.13574.94495.6721.6721,0,0,0,.46484.435l.56934.14991a.29051.29051,0,0,1,.1875.15759.65072.65072,0,0,1,.06738.30749v.345a.24985.24985,0,0,1-.16406.24.62221.62221,0,0,1-.36035.045l-.585-.12q-1.5-.32976-1.5-2.55v-1.995a.32858.32858,0,0,1,.09765-.255.34958.34958,0,0,1,.24707-.09h2.75977a3.17771,3.17771,0,0,1,2.50488.96,4.217,4.217,0,0,1,.915,2.745c.01074.10009.01562.29016.01562.57006q0,.43524-.01562.585a4.216,4.216,0,0,1-.915,2.745,3.1773,3.1773,0,0,1-2.50488.96h-2.58008a.33367.33367,0,0,1-.34473-.345v-.495a.33368.33368,0,0,1,.34473-.345H164.427a2.00187,2.00187,0,0,0,1.61914-.675,3.05229,3.05229,0,0,0,.61523-1.905c.00977-.09986.01563-.27491.01563-.52491,0-.24011-.00586-.41-.01563-.51a2.95877,2.95877,0,0,0-.60742-1.905,2.02487,2.02487,0,0,0-1.627-.675h-1.8457Z"/><path class="d" d="M177.634,29.41571a2.34,2.34,0,0,1,1.16211,1.245,5.97274,5.97274,0,0,1,.36035,2.27991,4.37054,4.37054,0,0,1-.94531,2.99255,5.56023,5.56023,0,0,1-2.46,1.58252l-.62989.21a.2555.2555,0,0,1-.10449.015.27021.27021,0,0,1-.27051-.285v-.65991a.43992.43992,0,0,1,.33008-.405l.585-.225a3.454,3.454,0,0,0,1.58985-1.125,3.54633,3.54633,0,0,0,.55566-2.16,4.22463,4.22463,0,0,0-.24023-1.58252,1.53439,1.53439,0,0,0-.78711-.83252,3.64409,3.64409,0,0,0-1.50781-.255H174.762l-1.38086-.015a.35074.35074,0,0,1-.24707-.09.30931.30931,0,0,1-.09766-.24v-2.58a.33386.33386,0,0,1,.34473-.34509h.60059a.313.313,0,0,1,.24023.09753.35322.35322,0,0,1,.08984.24756v1.74H175.467A5.01775,5.01775,0,0,1,177.634,29.41571Z"/><path class="d" d="M187.42211,29.11567a.34686.34686,0,0,1,.08984.255v4.14a3.645,3.645,0,0,1-.87012,2.37745,4.647,4.647,0,0,1-2.32519,1.49255l-3.26953,1.035a.40038.40038,0,0,1-.12012.015.3175.3175,0,0,1-.21-.07507.24136.24136,0,0,1-.09082-.19495v-.46509q0-.34479.24023-.41992l1.96485-.66-1.94922-6.99a1.82617,1.82617,0,0,1-.0752-.3.30727.30727,0,0,1,.29981-.29993h.69043a.36447.36447,0,0,1,.22461.0675.33193.33193,0,0,1,.12011.15748l1.91992,6.96A3.045,3.045,0,0,0,185.719,35.0257a3.59088,3.59088,0,0,0,.47266-1.92v-3.735a.33365.33365,0,0,1,.34472-.345h.62989A.34755.34755,0,0,1,187.42211,29.11567Z"/><path class="d" d="M193.54808,37.49323a.33368.33368,0,0,1-.09765-.24756v-7.875a.32858.32858,0,0,1,.09765-.255.352.352,0,0,1,.24805-.09h2.835a3.94965,3.94965,0,0,1,2.85742.91492,3.67388,3.67388,0,0,1,.9375,2.745v4.56006a.33371.33371,0,0,1-.3457.345h-6.28418A.336.336,0,0,1,193.54808,37.49323Zm5.58789-1.07251v-3.66a2.28061,2.28061,0,0,0-2.58007-2.58h-1.86036v6.24Z"/><path class="d" d="M202.6682,34.01313a.33322.33322,0,0,1-.09766-.24744v-4.395a.32858.32858,0,0,1,.09766-.255.352.352,0,0,1,.248-.09h.65918a.33372.33372,0,0,1,.3457.345v4.395a.3339.3339,0,0,1-.3457.345h-.65918A.33567.33567,0,0,1,202.6682,34.01313Z"/><path class="d" d="M209.2307,37.74067a.26872.26872,0,0,1-.26953-.285v-.65991a.43884.43884,0,0,1,.3291-.405l.585-.225a3.45709,3.45709,0,0,0,1.59082-1.125,3.55321,3.55321,0,0,0,.55469-2.16,4.2244,4.2244,0,0,0-.24024-1.58252,1.53437,1.53437,0,0,0-.7871-.83252,3.64411,3.64411,0,0,0-1.50782-.255h-3a.33367.33367,0,0,1-.34472-.345v-.51a.3098.3098,0,0,1,.09765-.24.3496.3496,0,0,1,.24707-.09h3.17969a5.0612,5.0612,0,0,1,2.18262.39,2.34539,2.34539,0,0,1,1.16308,1.245,5.99361,5.99361,0,0,1,.35938,2.27991,4.3751,4.3751,0,0,1-.94434,2.99255,5.5657,5.5657,0,0,1-2.46,1.58252l-.62988.21A.26432.26432,0,0,1,209.2307,37.74067Zm-2.99219,2.625a.32825.32825,0,0,1-.09765-.255v-7.905a.33383.33383,0,0,1,.34472-.345h.61524a.33383.33383,0,0,1,.34472.345v7.905a.33365.33365,0,0,1-.34472.345h-.61524A.3491.3491,0,0,1,206.23851,40.36567Z"/><path class="d" d="M223.90843,29.12311a.33751.33751,0,0,1,.09668.24756v4.17a4.56483,4.56483,0,0,1-.5166,2.21241,3.52647,3.52647,0,0,1-1.45508,1.45507,4.2587,4.2587,0,0,1-2.15332.47254h-1.10937a3.44473,3.44473,0,0,1-1.75488-.45007,3.17013,3.17013,0,0,1-1.22266-1.26746,3.89275,3.89275,0,0,1-.44238-1.88257v-4.71a.32858.32858,0,0,1,.09765-.255.3496.3496,0,0,1,.24707-.09h.585a.33367.33367,0,0,1,.34473.345l.04492,4.26a2.66637,2.66637,0,0,0,1.89746-.735,2.46686,2.46686,0,0,0,.53321-1.65v-1.875a.33365.33365,0,0,1,.34472-.345h.585a.33367.33367,0,0,1,.34473.345v1.93506a3.237,3.237,0,0,1-.915,2.37,3.89481,3.89481,0,0,1-2.68457,1.0199,2.37172,2.37172,0,0,0,.89258,1.34253,2.5981,2.5981,0,0,0,1.56738.47253h.47949a2.86623,2.86623,0,0,0,2.22071-.82507,3.12047,3.12047,0,0,0,.79492-2.235v-4.08a.33367.33367,0,0,1,.34473-.345h.585A.33852.33852,0,0,1,223.90843,29.12311Z"/><path class="d" d="M230.29027,37.29071a.26939.26939,0,0,1-.09766.21741.34465.34465,0,0,1-.23242.08252h-4.00488a.33367.33367,0,0,1-.34473-.345v-.48a.33367.33367,0,0,1,.34473-.345h2.95508l-.24024-3.81006q-.0747-.97485-.15722-1.43249a1.36276,1.36276,0,0,0-.36719-.74256,1.2086,1.2086,0,0,0-.88477-.28491h-.61523a.35156.35156,0,0,1-.248-.09009.312.312,0,0,1-.09668-.24v-.48a.33237.33237,0,0,1,.34473-.345h.61523a2.75041,2.75041,0,0,1,1.65723.42749,2.17091,2.17091,0,0,1,.79492,1.17749,9.35893,9.35893,0,0,1,.292,1.965l.28516,4.68Z"/><path class="d" d="M237.99242,37.49323a.33675.33675,0,0,1-.09668-.24756v-4.485a2.27416,2.27416,0,0,0-2.56543-2.58h-2.79a.34913.34913,0,0,1-.24707-.09009.3093.3093,0,0,1-.09766-.24v-.48a.32858.32858,0,0,1,.09766-.255.34958.34958,0,0,1,.24707-.09h2.86523q3.81006,0,3.80957,3.68994v4.53a.33365.33365,0,0,1-.34472.345h-.62988A.336.336,0,0,1,237.99242,37.49323Zm-5.69922,0a.33368.33368,0,0,1-.09766-.24756v-5.04a.33385.33385,0,0,1,.34473-.345h.62988a.3339.3339,0,0,1,.34571.345v5.04a.33372.33372,0,0,1-.34571.345h-.62988A.3338.3338,0,0,1,232.2932,37.49323Z"/></svg>