<svg xmlns="http://www.w3.org/2000/svg" viewBox="0 0 300.80274 50.58049"><defs><style>.a,.b,.f{fill:none;}.a{stroke:#706f6f;stroke-width:6.82666px;}.a,.b{stroke-linecap:round;stroke-linejoin:round;}.b{stroke:#878787;stroke-width:2.27555px;}.c{fill:#9d9d9c;}.d{fill:#3c3c3b;}.e{fill:#ededed;}.f{stroke:#575756;stroke-miterlimit:10;stroke-width:1.70667px;}.g{fill:#c6c6c6;}.h{fill:#decfe2;}.i{fill:#ffe3ff;}.j{fill:#aa96a9;}.k{fill:#fff;}</style></defs><line class="a" x1="297.3894" y1="25.34896" x2="23.44133" y2="25.34896"/><line class="b" x1="297.3894" y1="24.84059" x2="23.44133" y2="24.84059"/><polygon class="c" points="21.392 29.178 21.392 21.52 18.19 19.11 17.406 25.349 18.19 31.588 21.392 29.178"/><rect class="d" x="17.48537" y="24.20143" width="9.61696" height="2.29496" rx="1.14748" transform="translate(47.64276 3.05505) rotate(90)"/><polygon class="e" points="18.19 19.11 0 25.349 18.19 31.588 17.406 25.349 18.19 19.11"/><path class="f" d="M48.06089,28.76229V28.371a15.02955,15.02955,0,0,1,0-5.97739v-.43745"/><path class="f" d="M43.86313,28.76229V28.371a15.02955,15.02955,0,0,1,0-5.97739v-.43745"/><path class="f" d="M39.66536,28.76229V28.371a15.02976,15.02976,0,0,1,0-5.97739v-.43745"/><path class="f" d="M35.4676,28.76229V28.371a15.02955,15.02955,0,0,1,0-5.97739v-.43745"/><path class="f" d="M293.96989,28.76229V28.371a15.02955,15.02955,0,0,1,0-5.97739v-.43745"/><path class="f" d="M289.77213,28.76229V28.371a15.02955,15.02955,0,0,1,0-5.97739v-.43745"/><path class="f" d="M285.57437,28.76229V28.371a15.02955,15.02955,0,0,1,0-5.97739v-.43745"/><path class="f" d="M281.3766,28.76229V28.371a15.02955,15.02955,0,0,1,0-5.97739v-.43745"/><path class="f" d="M277.17884,28.76229V28.371a15.02955,15.02955,0,0,1,0-5.97739v-.43745"/><path class="f" d="M272.98108,28.76229V28.371a15.02955,15.02955,0,0,1,0-5.97739v-.43745"/><path class="f" d="M268.78331,28.76229V28.371a15.02955,15.02955,0,0,1,0-5.97739v-.43745"/><path class="f" d="M264.58555,28.76229V28.371a15.02955,15.02955,0,0,1,0-5.97739v-.43745"/><path class="f" d="M260.38779,28.76229V28.371a15.02955,15.02955,0,0,1,0-5.97739v-.43745"/><path class="f" d="M256.19,28.76229V28.371a15.02955,15.02955,0,0,1,0-5.97739v-.43745"/><path class="f" d="M251.99226,28.76229V28.371a15.02955,15.02955,0,0,1,0-5.97739v-.43745"/><path class="f" d="M247.7945,28.76229V28.371a15.02955,15.02955,0,0,1,0-5.97739v-.43745"/><polygon class="g" points="17.406 25.349 0 25.349 18.19 31.588 17.406 25.349"/><polygon class="h" points="261.253 27.861 270.896 36.063 299.188 36.063 289.545 27.861 261.253 27.861"/><polygon class="i" points="289.545 27.861 294.039 34.373 271.381 34.373 261.253 27.861 270.896 36.063 299.188 36.063 289.545 27.861"/><polygon class="j" points="289.545 27.861 262.822 29.195 261.253 27.861 289.545 27.861"/><polygon class="h" points="261.253 22.72 270.896 14.518 299.188 14.518 289.545 22.72 261.253 22.72"/><polygon class="j" points="293.401 19.441 261.253 22.72 289.545 22.72 293.401 19.441"/><polygon class="i" points="299.188 14.518 272.496 15.736 261.253 22.72 270.896 14.518 299.188 14.518"/><rect class="k" x="34.42788" width="215.84717" height="50.58049" rx="7.60502"/><path class="d" d="M77.40453,19.49326a.3336.3336,0,0,1-.09766-.24744v-4.4851a2.27347,2.27347,0,0,0-2.56445-2.58h-2.79a.352.352,0,0,1-.24805-.09.30945.30945,0,0,1-.09765-.24v-.48a.32825.32825,0,0,1,.09765-.255.35156.35156,0,0,1,.24805-.09009h2.86426q3.81006,0,3.81054,3.69006v4.53a.33383.33383,0,0,1-.34472.345H77.6516A.33339.33339,0,0,1,77.40453,19.49326Zm-5.7002,0a.33359.33359,0,0,1-.09765-.24744v-5.04a.33372.33372,0,0,1,.3457-.345h.62988a.33368.33368,0,0,1,.34473.345v5.04a.33385.33385,0,0,1-.34473.345h-.62988A.33563.33563,0,0,1,71.70433,19.49326Z"/><path class="d" d="M85.06175,19.29075a.2696.2696,0,0,1-.09765.21752.34525.34525,0,0,1-.23242.08252H80.72679a.33383.33383,0,0,1-.34472-.345v-.4801a.33383.33383,0,0,1,.34472-.345h2.95508l-.24023-3.80994q-.07472-.975-.15723-1.43249a1.36225,1.36225,0,0,0-.36719-.74255,1.20862,1.20862,0,0,0-.88476-.285h-.61524a.35151.35151,0,0,1-.248-.09.31216.31216,0,0,1-.09668-.24v-.48a.3322.3322,0,0,1,.34472-.345h.61524a2.75037,2.75037,0,0,1,1.65722.42749,2.17009,2.17009,0,0,1,.79493,1.17749,9.35843,9.35843,0,0,1,.292,1.965l.28515,4.68Z"/><path class="d" d="M87.06468,19.49326a.33359.33359,0,0,1-.09765-.24744v-7.875a.32825.32825,0,0,1,.09765-.255.34917.34917,0,0,1,.24707-.09009h.66016a.33387.33387,0,0,1,.34473.34509v7.875a.33385.33385,0,0,1-.34473.345h-.66016A.33342.33342,0,0,1,87.06468,19.49326Z"/><path class="d" d="M90.73949,19.49326a.3336.3336,0,0,1-.09766-.24744v-.49511a.32816.32816,0,0,1,.09766-.25489.34917.34917,0,0,1,.24707-.09008h2.14551a2.51033,2.51033,0,0,0,1.91992-.65992,2.93734,2.93734,0,0,0,.6748-1.92q.01466-.20983.01465-.525,0-.29994-.01465-.51a2.84651,2.84651,0,0,0-.668-1.92749,2.55217,2.55217,0,0,0-1.92675-.65247H90.98656a.33385.33385,0,0,1-.34473-.345v-.495a.32825.32825,0,0,1,.09766-.255.34913.34913,0,0,1,.24707-.09009h2.21973a3.77589,3.77589,0,0,1,2.82812.95252,4.00144,4.00144,0,0,1,.98242,2.75256q.01466.21021.01465.57,0,.36-.01465.585a4.001,4.001,0,0,1-.98242,2.75256,3.77493,3.77493,0,0,1-2.82812.95251H90.98656A.33339.33339,0,0,1,90.73949,19.49326Z"/><path class="d" d="M103.06175,19.29075a.27254.27254,0,0,1-.09765.21752.34883.34883,0,0,1-.23242.08252H98.72679a.3339.3339,0,0,1-.3457-.345v-.4801a.3339.3339,0,0,1,.3457-.345h2.95508l-.24023-3.80994q-.07472-.975-.15723-1.43249a1.36331,1.36331,0,0,0-.36816-.74255,1.20709,1.20709,0,0,0-.88477-.285h-.61523a.34909.34909,0,0,1-.24707-.09.30949.30949,0,0,1-.09766-.24v-.48a.33368.33368,0,0,1,.34473-.345h.61523a2.75041,2.75041,0,0,1,1.65723.42749,2.16494,2.16494,0,0,1,.79492,1.17749,9.28623,9.28623,0,0,1,.293,1.965l.28515,4.68Z"/><path class="d" d="M114.45336,19.49326a.33662.33662,0,0,1-.09668-.24744v-4.4851a2.27416,2.27416,0,0,0-2.56543-2.58h-2.79a.34958.34958,0,0,1-.24707-.09.30945.30945,0,0,1-.09766-.24v-.48a.32825.32825,0,0,1,.09766-.255.34913.34913,0,0,1,.24707-.09009h2.86523q3.81006,0,3.80957,3.69006v4.53a.33383.33383,0,0,1-.34472.345h-.62989A.33563.33563,0,0,1,114.45336,19.49326Zm-5.69922,0a.3336.3336,0,0,1-.09766-.24744v-5.04a.33368.33368,0,0,1,.34473-.345h.62988a.33372.33372,0,0,1,.3457.345v5.04a.33389.33389,0,0,1-.3457.345h-.62988A.33339.33339,0,0,1,108.75414,19.49326Z"/><path class="d" d="M121.01586,19.74082a.27392.27392,0,0,1-.1875-.07507.27043.27043,0,0,1-.082-.21v-.66a.44014.44014,0,0,1,.33008-.405l.585-.225a3.45229,3.45229,0,0,0,1.58985-1.125,3.54663,3.54663,0,0,0,.55469-2.16,4.2457,4.2457,0,0,0-.23926-1.5824,1.53271,1.53271,0,0,0-.78809-.83252,3.639,3.639,0,0,0-1.50683-.255h-3a.3339.3339,0,0,1-.34571-.345v-.51a.30966.30966,0,0,1,.09766-.24.35156.35156,0,0,1,.24805-.09009h3.17968a5.063,5.063,0,0,1,2.18262.39,2.34767,2.34767,0,0,1,1.16211,1.245,5.9734,5.9734,0,0,1,.36035,2.28,4.37544,4.37544,0,0,1-.94531,2.99255,5.56659,5.56659,0,0,1-2.46,1.5824l-.62989.21008A.26313.26313,0,0,1,121.01586,19.74082Zm-2.99219,2.625a.32861.32861,0,0,1-.09766-.255v-7.905a.33374.33374,0,0,1,.34571-.345h.61425a.33374.33374,0,0,1,.34571.345v7.905a.3339.3339,0,0,1-.34571.345h-.61425A.352.352,0,0,1,118.02367,22.36582Z"/><path class="d" d="M131.1184,11.12327a.33446.33446,0,0,1,.09765.24755v.48a.30948.30948,0,0,1-.09765.24.34962.34962,0,0,1-.24708.09h-.90039a1.65836,1.65836,0,0,0-.33691.705,4.2142,4.2142,0,0,0-.12793,1.08007v5.29493a.30931.30931,0,0,1-.09766.24.34913.34913,0,0,1-.24707.09008h-.62988a.30963.30963,0,0,1-.33008-.33007v-5.385a4.5754,4.5754,0,0,1,.1045-1.04993,1.55868,1.55868,0,0,1,.28515-.645h-1.32031a.35124.35124,0,0,1-.24707-.09.30945.30945,0,0,1-.09766-.24v-.48a.33387.33387,0,0,1,.34473-.34509h3.60058A.33436.33436,0,0,1,131.1184,11.12327Z"/><path class="d" d="M133.29418,19.49326a.3336.3336,0,0,1-.09766-.24744v-7.875a.32825.32825,0,0,1,.09766-.255.34913.34913,0,0,1,.24707-.09009h2.87988a3.97759,3.97759,0,0,1,2.87988.92249,3.70479,3.70479,0,0,1,.94531,2.76757v4.53a.33383.33383,0,0,1-.34472.345h-.62988a.3339.3339,0,0,1-.34571-.345v-4.4851a2.28022,2.28022,0,0,0-2.58008-2.58h-1.8291v7.06506a.33389.33389,0,0,1-.3457.345h-.62988A.33339.33339,0,0,1,133.29418,19.49326Z"/><path class="d" d="M148.2932,19.49326a.33666.33666,0,0,1-.09668-.24744v-4.4851a2.27416,2.27416,0,0,0-2.56543-2.58h-2.79a.34958.34958,0,0,1-.24707-.09.30945.30945,0,0,1-.09766-.24v-.48a.32825.32825,0,0,1,.09766-.255.34913.34913,0,0,1,.24707-.09009h2.86524q3.81,0,3.80957,3.69006v4.53a.33385.33385,0,0,1-.34473.345h-.62988A.33563.33563,0,0,1,148.2932,19.49326Zm-5.69922,0a.3336.3336,0,0,1-.09766-.24744v-5.04a.33368.33368,0,0,1,.34473-.345h.62988a.33374.33374,0,0,1,.34571.345v5.04a.3339.3339,0,0,1-.34571.345h-.62988A.33339.33339,0,0,1,142.594,19.49326Z"/><path class="d" d="M151.49632,19.49326a.348.348,0,0,1-.08984-.24744v-.4801a.3486.3486,0,0,1,.08984-.24744.31019.31019,0,0,1,.24024-.09753h4.335v-3.66a2.274,2.274,0,0,0-2.58008-2.56495H151.886a.31216.31216,0,0,1-.24023-.09753.35207.35207,0,0,1-.08984-.24744v-.48a.35318.35318,0,0,1,.08984-.24755.313.313,0,0,1,.24023-.09754h1.68067q3.83935,0,3.83984,3.67505v3.72h.56934a.31017.31017,0,0,1,.24023.09753.34856.34856,0,0,1,.08985.24744v.4801a.34793.34793,0,0,1-.08985.24744.30931.30931,0,0,1-.24023.09753h-6.23926A.30933.30933,0,0,1,151.49632,19.49326Z"/><path class="d" d="M169.18773,19.49326a.33666.33666,0,0,1-.09668-.24744v-4.4851a2.27416,2.27416,0,0,0-2.56543-2.58h-2.79a.3496.3496,0,0,1-.24707-.09.30945.30945,0,0,1-.09765-.24v-.48a.32825.32825,0,0,1,.09765-.255.34915.34915,0,0,1,.24707-.09009h2.86524q3.81006,0,3.80957,3.69006v4.53a.33385.33385,0,0,1-.34473.345h-.62988A.33563.33563,0,0,1,169.18773,19.49326Zm-5.69922,0a.33359.33359,0,0,1-.09765-.24744v-5.04a.33367.33367,0,0,1,.34472-.345h.62989a.33374.33374,0,0,1,.3457.345v5.04a.3339.3339,0,0,1-.3457.345h-.62989A.3334.3334,0,0,1,163.48851,19.49326Z"/><path class="d" d="M173.4934,18.77329a3.87618,3.87618,0,0,1-.92286-2.78247v-4.62a.32825.32825,0,0,1,.09766-.255.34913.34913,0,0,1,.24707-.09009h3.60059a3.73442,3.73442,0,0,1,2.77441.87,3.96448,3.96448,0,0,1,.915,2.67c.00976.1001.01562.37012.01562.80994,0,.44018-.00586.7102-.01562.81006a3.65266,3.65266,0,0,1-.97461,2.67,4.2015,4.2015,0,0,1-2.96973.885A3.65249,3.65249,0,0,1,173.4934,18.77329Zm4.77734-.81006a2.55687,2.55687,0,0,0,.64453-1.85242q.01611-.14977.01563-.7351,0-.58485-.01563-.735a2.52025,2.52025,0,0,0-.68164-1.83,2.47462,2.47462,0,0,0-1.793-.63h-2.61035v3.81006a2.71845,2.71845,0,0,0,.60742,1.90491,2.3371,2.3371,0,0,0,1.80762.66A2.8574,2.8574,0,0,0,178.27074,17.96323Z"/><path class="d" d="M186.2805,19.29075a.2696.2696,0,0,1-.09765.21752.34525.34525,0,0,1-.23242.08252h-4.00489a.33383.33383,0,0,1-.34472-.345v-.4801a.33383.33383,0,0,1,.34472-.345h2.95508l-.24023-3.80994q-.07472-.975-.15723-1.43249a1.36225,1.36225,0,0,0-.36719-.74255,1.20862,1.20862,0,0,0-.88476-.285H182.636a.35151.35151,0,0,1-.248-.09.31216.31216,0,0,1-.09668-.24v-.48a.3322.3322,0,0,1,.34472-.345h.61524a2.75037,2.75037,0,0,1,1.65722.42749,2.17009,2.17009,0,0,1,.79493,1.17749,9.35843,9.35843,0,0,1,.292,1.965l.28515,4.68Z"/><path class="d" d="M195.8059,14.68577v4.56a.3339.3339,0,0,1-.34571.345h-.62988a.33385.33385,0,0,1-.34473-.345v-4.4851a2.28061,2.28061,0,0,0-2.58008-2.58h-1.08007q-.14942.945-.21778,1.56751a11.18165,11.18165,0,0,0-.05175,1.41748l.02929,4.08007a.33237.33237,0,0,1-.34472.345l-2.085-.03a.33385.33385,0,0,1-.34472-.345v-.45007a.33383.33383,0,0,1,.34472-.345l1.15528.015v-3.21q-.01466-.945.03711-1.59753a9.17061,9.17061,0,0,1,.248-1.44751h-.81054a.34958.34958,0,0,1-.24707-.09.30945.30945,0,0,1-.09766-.24v-.48a.32825.32825,0,0,1,.09766-.255.34913.34913,0,0,1,.24707-.09009h3.21Q195.80541,11.02573,195.8059,14.68577Z"/><path class="d" d="M198.04808,16.01328a.33368.33368,0,0,1-.09765-.24756v-4.3949a.32825.32825,0,0,1,.09765-.255.35156.35156,0,0,1,.24805-.09009h.65918a.33391.33391,0,0,1,.3457.34509v4.3949a.33389.33389,0,0,1-.3457.34509h-.65918A.33563.33563,0,0,1,198.04808,16.01328Z"/><path class="d" d="M207.18968,12.18076h-2.2041a.30947.30947,0,0,1-.33008-.33v-.48a.34881.34881,0,0,1,.08985-.24755.31014.31014,0,0,1,.24023-.09754h2.2793a4.04139,4.04139,0,0,1,2.87988.9,3.64438,3.64438,0,0,1,.94531,2.76v6.42a.33383.33383,0,0,1-.34472.345h-.62988a.352.352,0,0,1-.248-.09.33206.33206,0,0,1-.09766-.255V14.76072A2.28022,2.28022,0,0,0,207.18968,12.18076Z"/><path class="d" d="M213.33324,16.01328a.33368.33368,0,0,1-.09766-.24756v-4.3949a.32825.32825,0,0,1,.09766-.255.34913.34913,0,0,1,.24707-.09009h.66016a.33386.33386,0,0,1,.34472.34509v4.3949a.33384.33384,0,0,1-.34472.34509h-.66016A.33339.33339,0,0,1,213.33324,16.01328Z"/><path class="d" d="M220.99047,19.29075a.27255.27255,0,0,1-.09766.21752.34883.34883,0,0,1-.23242.08252H216.6555a.3339.3339,0,0,1-.3457-.345v-.4801a.3339.3339,0,0,1,.3457-.345h2.95508l-.24023-3.80994q-.07471-.975-.15723-1.43249a1.36331,1.36331,0,0,0-.36816-.74255,1.20709,1.20709,0,0,0-.88477-.285H217.345a.34909.34909,0,0,1-.24707-.09.30949.30949,0,0,1-.09766-.24v-.48a.33368.33368,0,0,1,.34473-.345h.61523a2.75041,2.75041,0,0,1,1.65723.42749,2.16494,2.16494,0,0,1,.79492,1.17749,9.28623,9.28623,0,0,1,.293,1.965l.28516,4.68Z"/><path class="d" d="M222.99242,19.49326a.3336.3336,0,0,1-.09766-.24744v-7.875a.32825.32825,0,0,1,.09766-.255.35156.35156,0,0,1,.248-.09009h2.87988a3.97759,3.97759,0,0,1,2.87988.92249,3.70483,3.70483,0,0,1,.94531,2.76757v4.53a.33389.33389,0,0,1-.3457.345H228.97a.33385.33385,0,0,1-.34473-.345v-4.4851a2.28061,2.28061,0,0,0-2.58008-2.58h-1.83008v7.06506a.33383.33383,0,0,1-.34472.345h-.62988A.33563.33563,0,0,1,222.99242,19.49326Z"/><path class="d" d="M237.99242,19.49326a.3336.3336,0,0,1-.09766-.24744v-4.4851a2.27347,2.27347,0,0,0-2.56445-2.58h-2.79a.352.352,0,0,1-.24805-.09.30945.30945,0,0,1-.09765-.24v-.48a.32825.32825,0,0,1,.09765-.255.35156.35156,0,0,1,.24805-.09009h2.86426q3.81006,0,3.81054,3.69006v4.53a.33383.33383,0,0,1-.34472.345h-.63086A.33339.33339,0,0,1,237.99242,19.49326Zm-5.7002,0a.33359.33359,0,0,1-.09765-.24744v-5.04a.33372.33372,0,0,1,.3457-.345h.62988a.33368.33368,0,0,1,.34473.345v5.04a.33385.33385,0,0,1-.34473.345h-.62988A.33563.33563,0,0,1,232.29222,19.49326Z"/><path class="d" d="M197.44066,32.68577v4.56005a.33385.33385,0,0,1-.34473.345h-.62988a.33237.33237,0,0,1-.34473-.345v-4.4851a2.28061,2.28061,0,0,0-2.58007-2.58h-1.08008q-.15089.945-.21777,1.56751a11.35282,11.35282,0,0,0-.05274,1.41748l.03027,4.08007a.33383.33383,0,0,1-.34472.345l-2.085-.03a.33392.33392,0,0,1-.34571-.345v-.45007a.3339.3339,0,0,1,.34571-.345l1.15429.015v-3.21q-.01464-.945.03809-1.59753a9.1614,9.1614,0,0,1,.24707-1.44751h-.80957a.352.352,0,0,1-.24805-.09.31284.31284,0,0,1-.09765-.24v-.48a.33171.33171,0,0,1,.09765-.255.35156.35156,0,0,1,.24805-.09009h3.21Q197.44115,29.02573,197.44066,32.68577Z"/><path class="d" d="M208.09789,29.12327a.33442.33442,0,0,1,.09765.24755v4.16993a4.56572,4.56572,0,0,1-.51757,2.21252,3.515,3.515,0,0,1-1.45508,1.455,4.25618,4.25618,0,0,1-2.15235.47253h-1.11035a3.45088,3.45088,0,0,1-1.75488-.45,3.17766,3.17766,0,0,1-1.22266-1.26758,3.8926,3.8926,0,0,1-.44238-1.88245v-4.71a.32825.32825,0,0,1,.09766-.255.35156.35156,0,0,1,.248-.09009h.585a.33387.33387,0,0,1,.34473.34509l.04492,4.25989a2.66779,2.66779,0,0,0,1.89746-.735,2.4712,2.4712,0,0,0,.53223-1.64991v-1.875a.33392.33392,0,0,1,.3457-.34509h.585a.33387.33387,0,0,1,.34473.34509v1.93494a3.24076,3.24076,0,0,1-.915,2.37,3.898,3.898,0,0,1-2.68555,1.02,2.37694,2.37694,0,0,0,.89258,1.34253,2.60289,2.60289,0,0,0,1.56739.47242h.48046a2.8635,2.8635,0,0,0,2.21973-.825,3.11667,3.11667,0,0,0,.79492-2.235v-4.08a.33393.33393,0,0,1,.34571-.34509h.585A.33587.33587,0,0,1,208.09789,29.12327Z"/><path class="d" d="M213.385,37.74082a.27392.27392,0,0,1-.1875-.07507.27042.27042,0,0,1-.082-.21v-.66a.44013.44013,0,0,1,.33007-.405l.585-.225a3.45229,3.45229,0,0,0,1.58985-1.125,3.54656,3.54656,0,0,0,.55469-2.16,4.2457,4.2457,0,0,0-.23926-1.5824,1.53271,1.53271,0,0,0-.78809-.83252,3.639,3.639,0,0,0-1.50683-.255h-3a.3339.3339,0,0,1-.34571-.345v-.51a.30966.30966,0,0,1,.09766-.24.35156.35156,0,0,1,.24805-.09009h3.17968a5.063,5.063,0,0,1,2.18262.39,2.34767,2.34767,0,0,1,1.16211,1.245,5.9734,5.9734,0,0,1,.36035,2.28,4.37544,4.37544,0,0,1-.94531,2.99255,5.56659,5.56659,0,0,1-2.46,1.5824l-.62988.21008A.26323.26323,0,0,1,213.385,37.74082Zm-2.99219,2.625a.32861.32861,0,0,1-.09766-.255v-7.905a.33374.33374,0,0,1,.34571-.345h.61425a.33374.33374,0,0,1,.34571.345v7.905a.3339.3339,0,0,1-.34571.345h-.61425A.352.352,0,0,1,210.39281,40.36582Z"/><path class="d" d="M227.35863,29.41575a2.3477,2.3477,0,0,1,1.16211,1.245,5.9734,5.9734,0,0,1,.36035,2.28,4.37544,4.37544,0,0,1-.94531,2.99255,5.56659,5.56659,0,0,1-2.46,1.5824l-.62989.21008a.26644.26644,0,0,1-.10546.015.26891.26891,0,0,1-.26954-.285v-.66c0-.17993.10938-.31494.33008-.405l.585-.225a3.45737,3.45737,0,0,0,1.58985-1.125,3.54663,3.54663,0,0,0,.55468-2.16,4.22331,4.22331,0,0,0-.24023-1.5824,1.52763,1.52763,0,0,0-.78711-.83252,3.64093,3.64093,0,0,0-1.50781-.255h-.50977l-1.37988-.015a.34957.34957,0,0,1-.24707-.09.30966.30966,0,0,1-.09766-.24V27.28574a.33385.33385,0,0,1,.34473-.345h.59961a.31015.31015,0,0,1,.24023.09753.34836.34836,0,0,1,.08985.24744v1.74h1.15527A5.0213,5.0213,0,0,1,227.35863,29.41575Z"/><path class="d" d="M239.26781,29.12327a.33443.33443,0,0,1,.09766.24755v4.16993a4.56572,4.56572,0,0,1-.51758,2.21252,3.515,3.515,0,0,1-1.45508,1.455,4.25614,4.25614,0,0,1-2.15234.47253h-1.11036a3.45088,3.45088,0,0,1-1.75488-.45,3.17773,3.17773,0,0,1-1.22266-1.26758,3.8926,3.8926,0,0,1-.44238-1.88245v-4.71a.32825.32825,0,0,1,.09766-.255.35156.35156,0,0,1,.24805-.09009h.585a.33386.33386,0,0,1,.34472.34509l.04492,4.25989a2.66782,2.66782,0,0,0,1.89747-.735,2.47124,2.47124,0,0,0,.53222-1.64991v-1.875a.33393.33393,0,0,1,.34571-.34509h.585a.33386.33386,0,0,1,.34472.34509v1.93494a3.24076,3.24076,0,0,1-.915,2.37,3.898,3.898,0,0,1-2.68554,1.02,2.37687,2.37687,0,0,0,.89257,1.34253,2.60289,2.60289,0,0,0,1.56739.47242h.48047a2.86349,2.86349,0,0,0,2.21972-.825,3.11662,3.11662,0,0,0,.79492-2.235v-4.08a.33393.33393,0,0,1,.34571-.34509h.585A.33587.33587,0,0,1,239.26781,29.12327Z"/></svg>