<svg xmlns="http://www.w3.org/2000/svg" viewBox="0 0 300.80274 50.58049"><defs><style>.a,.b,.f{fill:none;}.a{stroke:#727070;stroke-width:6.82666px;}.a,.b{stroke-linecap:round;stroke-linejoin:round;}.b{stroke:#878787;stroke-width:2.27555px;}.c{fill:#9e9d9c;}.d{fill:#3d3d3b;}.e{fill:#eeeded;}.f{stroke:#585857;stroke-miterlimit:10;stroke-width:1.70667px;}.g{fill:#c7c6c6;}.h{fill:#dfcfe2;}.i{fill:#f7e3f0;}.j{fill:#ab96a9;}.k{fill:#fff;}</style></defs><line class="a" x1="297.3894" y1="25.34896" x2="23.44133" y2="25.34896"/><line class="b" x1="297.3894" y1="24.84059" x2="23.44133" y2="24.84059"/><polygon class="c" points="21.392 29.178 21.392 21.52 18.19 19.11 17.406 25.349 18.19 31.588 21.392 29.178"/><rect class="d" x="17.48537" y="24.20143" width="9.61696" height="2.29496" rx="1.14748" transform="translate(47.64276 3.05505) rotate(90)"/><polygon class="e" points="18.19 19.11 0 25.349 18.19 31.588 17.406 25.349 18.19 19.11"/><path class="f" d="M48.06089,28.76229V28.371a15.02955,15.02955,0,0,1,0-5.97739v-.43745"/><path class="f" d="M43.86313,28.76229V28.371a15.02955,15.02955,0,0,1,0-5.97739v-.43745"/><path class="f" d="M39.66536,28.76229V28.371a15.02976,15.02976,0,0,1,0-5.97739v-.43745"/><path class="f" d="M35.4676,28.76229V28.371a15.02955,15.02955,0,0,1,0-5.97739v-.43745"/><path class="f" d="M293.96989,28.76229V28.371a15.02955,15.02955,0,0,1,0-5.97739v-.43745"/><path class="f" d="M289.77213,28.76229V28.371a15.02955,15.02955,0,0,1,0-5.97739v-.43745"/><path class="f" d="M285.57437,28.76229V28.371a15.02955,15.02955,0,0,1,0-5.97739v-.43745"/><path class="f" d="M281.3766,28.76229V28.371a15.02955,15.02955,0,0,1,0-5.97739v-.43745"/><path class="f" d="M277.17884,28.76229V28.371a15.02955,15.02955,0,0,1,0-5.97739v-.43745"/><path class="f" d="M272.98108,28.76229V28.371a15.02955,15.02955,0,0,1,0-5.97739v-.43745"/><path class="f" d="M268.78331,28.76229V28.371a15.02955,15.02955,0,0,1,0-5.97739v-.43745"/><path class="f" d="M264.58555,28.76229V28.371a15.02955,15.02955,0,0,1,0-5.97739v-.43745"/><path class="f" d="M260.38779,28.76229V28.371a15.02955,15.02955,0,0,1,0-5.97739v-.43745"/><path class="f" d="M256.19,28.76229V28.371a15.02955,15.02955,0,0,1,0-5.97739v-.43745"/><path class="f" d="M251.99226,28.76229V28.371a15.02955,15.02955,0,0,1,0-5.97739v-.43745"/><path class="f" d="M247.7945,28.76229V28.371a15.02955,15.02955,0,0,1,0-5.97739v-.43745"/><polygon class="g" points="17.406 25.349 0 25.349 18.19 31.588 17.406 25.349"/><polygon class="h" points="261.253 27.861 270.896 36.063 299.188 36.063 289.545 27.861 261.253 27.861"/><polygon class="i" points="289.545 27.861 294.039 34.373 271.381 34.373 261.253 27.861 270.896 36.063 299.188 36.063 289.545 27.861"/><polygon class="j" points="289.545 27.861 262.822 29.195 261.253 27.861 289.545 27.861"/><polygon class="h" points="261.253 22.72 270.896 14.518 299.188 14.518 289.545 22.72 261.253 22.72"/><polygon class="j" points="293.401 19.441 261.253 22.72 289.545 22.72 293.401 19.441"/><polygon class="i" points="299.188 14.518 272.496 15.736 261.253 22.72 270.896 14.518 299.188 14.518"/><rect class="k" x="34.42788" width="215.84717" height="50.58049" rx="7.60502"/><path class="d" d="M48.17713,19.59116a.33407.33407,0,0,1-.34472-.34571V10.846L45.34217,12.766a.3526.3526,0,0,1-.25488.0752.31676.31676,0,0,1-.22461-.13574l-.39063-.49512a.37005.37005,0,0,1-.06738-.26953.3433.3433,0,0,1,.14258-.22461l3.26953-2.52051a.48494.48494,0,0,1,.19531-.08984,1.22153,1.22153,0,0,1,.19532-.01465h.76464a.33109.33109,0,0,1,.34473.34472v9.80957a.33261.33261,0,0,1-.34473.34571Z"/><path class="d" d="M55.21229,19.74057a4.234,4.234,0,0,1-1.74805-.32226,3.05883,3.05883,0,0,1-1.16211-.89258,3.63733,3.63733,0,0,1-.65234-1.30469,6.77178,6.77178,0,0,1-.23242-1.56055c-.01075-.26953-.01758-.55468-.02246-.85449-.00586-.2998-.00586-.60547,0-.915.00488-.30957.01171-.60547.02246-.88476a5.82564,5.82564,0,0,1,.23242-1.56055,3.764,3.764,0,0,1,.667-1.29785A3.1036,3.1036,0,0,1,53.47987,9.263a4.18548,4.18548,0,0,1,1.73242-.32226,4.22915,4.22915,0,0,1,1.74707.32226,3.096,3.096,0,0,1,1.16309.88477,3.764,3.764,0,0,1,.667,1.29785,5.826,5.826,0,0,1,.23242,1.56055c.00976.27929.01758.57519.02246.88476s.00488.61524,0,.915-.0127.585-.02246.85449a5.82018,5.82018,0,0,1-.23242,1.56055,3.90666,3.90666,0,0,1-.66016,1.30469,2.99511,2.99511,0,0,1-1.1543.89258A4.27478,4.27478,0,0,1,55.21229,19.74057Zm0-1.29a2.0083,2.0083,0,0,0,1.73242-.76465,3.54742,3.54742,0,0,0,.57715-2.10058c.02051-.28906.03027-.57227.03027-.84668v-.8252q0-.41309-.03027-.81738a3.60114,3.60114,0,0,0-.57715-2.09277,2.284,2.284,0,0,0-3.45019,0,3.684,3.684,0,0,0-.59278,2.09277q0,.40429-.00683.81738c-.00586.27539-.00586.54981,0,.8252.00488.27441.00683.55762.00683.84668a3.59,3.59,0,0,0,.60059,2.10058A1.99623,1.99623,0,0,0,55.21229,18.45053Z"/><path class="d" d="M64.7367,19.74057a4.22915,4.22915,0,0,1-1.74707-.32226,3.05141,3.05141,0,0,1-1.16211-.89258A3.63939,3.63939,0,0,1,61.1742,17.221a6.82578,6.82578,0,0,1-.23242-1.56055q-.01464-.40429-.02246-.85449c-.00488-.2998-.00488-.60547,0-.915s.0127-.60547.02246-.88476a5.86541,5.86541,0,0,1,.23242-1.56055,3.78286,3.78286,0,0,1,.668-1.29785A3.10019,3.10019,0,0,1,63.00428,9.263a4.85976,4.85976,0,0,1,3.48047,0,3.10019,3.10019,0,0,1,1.16211.88477,3.78286,3.78286,0,0,1,.668,1.29785,5.90492,5.90492,0,0,1,.23242,1.56055c.00977.27929.01758.57519.02246.88476s.00488.61524,0,.915-.01269.585-.02246.85449a5.8989,5.8989,0,0,1-.23242,1.56055,3.925,3.925,0,0,1-.66016,1.30469,2.99841,2.99841,0,0,1-1.15527.89258A4.27165,4.27165,0,0,1,64.7367,19.74057Zm0-1.29a2.00828,2.00828,0,0,0,1.73242-.76465,3.55434,3.55434,0,0,0,.57813-2.10058c.01953-.28906.03027-.57227.03027-.84668v-.8252c0-.27539-.01074-.54785-.03027-.81738a3.60843,3.60843,0,0,0-.57813-2.09277,2.28289,2.28289,0,0,0-3.44921,0,3.67642,3.67642,0,0,0-.59278,2.09277q0,.40429-.00781.81738c-.00488.27539-.00488.54981,0,.8252.00488.27441.00781.55762.00781.84668a3.58283,3.58283,0,0,0,.59961,2.10058A1.99625,1.99625,0,0,0,64.7367,18.45053Z"/><path class="d" d="M74.682,19.59116a.33414.33414,0,0,1-.34571-.34571v-7.875a.33407.33407,0,0,1,.34571-.34472h2.9248a4.8861,4.8861,0,0,1,2.1377.41211,2.73145,2.73145,0,0,1,1.26757,1.23047,4.46491,4.46491,0,0,1,.41993,2.04785v4.52929a.33414.33414,0,0,1-.34571.34571h-.6748a.33182.33182,0,0,1-.25489-.09766.35359.35359,0,0,1-.08984-.248V14.76108a2.701,2.701,0,0,0-.59961-1.86816,2.48968,2.48968,0,0,0-1.93555-.667H75.70155v7.01953a.34924.34924,0,0,1-.08985.248.312.312,0,0,1-.24023.09766Z"/><path class="d" d="M83.99647,19.59116a.33409.33409,0,0,1-.34473-.34571v-7.875a.334.334,0,0,1,.34473-.34472h.70508a.32691.32691,0,0,1,.25488.09765.34844.34844,0,0,1,.08984.24707v7.875a.34923.34923,0,0,1-.08984.248.33035.33035,0,0,1-.25488.09766Z"/><path class="d" d="M87.70155,19.59116a.33409.33409,0,0,1-.34473-.34571v-7.875a.334.334,0,0,1,.34473-.34472h.70507a.32692.32692,0,0,1,.25489.09765.34848.34848,0,0,1,.08984.24707v7.875a.34927.34927,0,0,1-.08984.248.33036.33036,0,0,1-.25489.09766Z"/><path class="d" d="M94.766,19.74057a3.74339,3.74339,0,0,1-2.89453-.97461,3.87123,3.87123,0,0,1-.88477-2.70019V11.37045a.334.334,0,0,1,.34473-.34472h.61523a.32975.32975,0,0,1,.25489.09765.35281.35281,0,0,1,.08984.24707v4.62012a2.62508,2.62508,0,0,0,.61523,1.86035,3.006,3.006,0,0,0,3.68262.05957,2.60505,2.60505,0,0,0,.60742-1.7998,4.167,4.167,0,0,0,.00684-.457q-.00732-.30762-.00684-.62305v-.46484a2.81815,2.81815,0,0,0-.5332-1.81543A1.66632,1.66632,0,0,0,95.351,12.181a2.2368,2.2368,0,0,0-.585.08984,1.87423,1.87423,0,0,0-.55469.24024.30338.30338,0,0,1-.28515.00684.23591.23591,0,0,1-.14942-.23243v-.46484a1.05315,1.05315,0,0,1,.0293-.2627.36934.36934,0,0,1,.165-.20214,2.73612,2.73612,0,0,1,1.56054-.40528,3.3228,3.3228,0,0,1,1.63477.36817,2.39967,2.39967,0,0,1,1.0127,1.13183,4.871,4.871,0,0,1,.36718,1.96485c.00977.10058.01465.2705.01465.51074v.73437c0,.25-.00488.42578-.01465.52539a4.79567,4.79567,0,0,1-.41211,1.94239,2.53131,2.53131,0,0,1-1.20019,1.207A4.90788,4.90788,0,0,1,94.766,19.74057Z"/><path class="d" d="M100.34705,19.59116a.33863.33863,0,0,1-.248-.09766.3348.3348,0,0,1-.09766-.248v-.50976a.33409.33409,0,0,1,.3457-.34473h4.30469V14.76108a2.701,2.701,0,0,0-.59961-1.86816,2.48967,2.48967,0,0,0-1.93554-.667h-1.62012a.334.334,0,0,1-.34473-.34472v-.51075a.334.334,0,0,1,.34473-.34472h1.69531a4.85834,4.85834,0,0,1,2.14453.41992,2.79938,2.79938,0,0,1,1.28321,1.2373,4.36739,4.36739,0,0,1,.42675,2.03321V18.391h.55567a.334.334,0,0,1,.34472.34473v.50976a.33407.33407,0,0,1-.34472.34571Z"/><path class="d" d="M113.95155,11.49057h.375a.46231.46231,0,0,1,.33789.11231.333.333,0,0,1,.09765.27832q-.12011.62988-.20312,1.13964-.082.50978-.11231,1.0127c-.01953.335-.03027.71191-.03027,1.13184l.0459,4.08007a.33414.33414,0,0,1-.3457.34571l-2.12989-.03028a.35116.35116,0,0,1-.24707-.08984.32974.32974,0,0,1-.09765-.25488v-.48047a.334.334,0,0,1,.34472-.34473l1.15528.01465V15.22592q0-.61523.01464-1.13281a9.244,9.244,0,0,1,.08985-1.042,11.71492,11.71492,0,0,1,.24023-1.18555.63049.63049,0,0,1,.14258-.26953A.42357.42357,0,0,1,113.95155,11.49057Zm-1.34961.73535a.33253.33253,0,0,1-.34473-.34472v-.51075a.33253.33253,0,0,1,.34473-.34472h3.25488a4.8861,4.8861,0,0,1,2.1377.41211,2.73145,2.73145,0,0,1,1.26757,1.23047,4.391,4.391,0,0,1,.41993,2.01757v4.55957a.33409.33409,0,0,1-.34473.34571h-.67578a.33326.33326,0,0,1-.25489-.09766.35359.35359,0,0,1-.08984-.248V14.76108a2.701,2.701,0,0,0-.59961-1.86816,2.48968,2.48968,0,0,0-1.93555-.667Z"/><path class="d" d="M126.16151,18.46616a3.20983,3.20983,0,0,0,1.64258-.36035,2.48923,2.48923,0,0,0,1.0205-1.07227,3.50326,3.50326,0,0,0,.35254-1.59766V11.37045a.33253.33253,0,0,1,.34473-.34472h.62988a.31144.31144,0,0,1,.24024.09765.35281.35281,0,0,1,.08984.24707v4.16993a4.76543,4.76543,0,0,1-.2998,1.73242,3.66216,3.66216,0,0,1-2.168,2.15332,4.32536,4.32536,0,0,1-1.67188.25488h-1.125a3.45339,3.45339,0,0,1-1.75586-.45019,3.23848,3.23848,0,0,1-1.22949-1.25977,3.79954,3.79954,0,0,1-.4502-1.875V11.37045a.334.334,0,0,1,.34473-.34472h.62988a.33407.33407,0,0,1,.34571.34472l.04492,4.42579a2.61574,2.61574,0,0,0,.71973,1.97949,2.53858,2.53858,0,0,0,1.83007.69043Zm-3.33008-1.75586-.0293-1.09473a3.68192,3.68192,0,0,0,1.69434-.33691,1.78761,1.78761,0,0,0,.81738-.86328,2.95733,2.95733,0,0,0,.23242-1.18457V11.37045a.34917.34917,0,0,1,.09082-.24707.32692.32692,0,0,1,.25489-.09765h.61425a.33407.33407,0,0,1,.34571.34472v1.91993a3.54464,3.54464,0,0,1-.43555,1.75586,3.029,3.029,0,0,1-1.32715,1.22949A4.87055,4.87055,0,0,1,122.83143,16.7103Z"/><path class="d" d="M135.806,19.72592a.25532.25532,0,0,1-.24707-.03808.26963.26963,0,0,1-.11231-.23242V18.766a.38081.38081,0,0,1,.082-.24023.54308.54308,0,0,1,.248-.165l.56934-.22461a5.31755,5.31755,0,0,0,1.08789-.61524,2.39841,2.39841,0,0,0,.76465-.99023,4.12636,4.12636,0,0,0,.27734-1.64941,4.14424,4.14424,0,0,0-.23926-1.55274,1.50247,1.50247,0,0,0-.78808-.82519,3.64569,3.64569,0,0,0-1.47754-.24707h-3.04492a.33409.33409,0,0,1-.34473-.34571v-.54a.334.334,0,0,1,.34473-.34472h3.24023a5.0653,5.0653,0,0,1,2.18262.38965,2.314,2.314,0,0,1,1.15527,1.25293,6.06728,6.06728,0,0,1,.35254,2.25781,5.20779,5.20779,0,0,1-.28516,1.81445,4.04414,4.04414,0,0,1-.77246,1.30567,4.53717,4.53717,0,0,1-1.0957.8916,7.02755,7.02755,0,0,1-1.26758.57812Zm-2.87988,2.7295a.33255.33255,0,0,1-.34473-.34473v-7.875a.334.334,0,0,1,.34473-.34473h.66015a.327.327,0,0,1,.25489.09766.34686.34686,0,0,1,.08984.24707v7.875a.3509.3509,0,0,1-.08984.248.32986.32986,0,0,1-.25489.09668Z"/><path class="d" d="M142.3158,19.59116a.33407.33407,0,0,1-.34472-.34571v-7.875a.334.334,0,0,1,.34472-.34472h.70508a.32693.32693,0,0,1,.25489.09765.34848.34848,0,0,1,.08984.24707v7.875a.34927.34927,0,0,1-.08984.248.33037.33037,0,0,1-.25489.09766Z"/><path class="d" d="M152.47108,21.45053a.35133.35133,0,0,1-.24707-.07519.50386.50386,0,0,1-.12793-.17969L148.33143,11.596q-.04541-.10547-.06738-.1582a.26841.26841,0,0,1-.02246-.11231.277.277,0,0,1,.09765-.21.31213.31213,0,0,1,.2168-.08984h.70508a.345.345,0,0,1,.25488.08984.8309.8309,0,0,1,.165.27051l1.60547,4.06445a2.23557,2.23557,0,0,0,1.59765-.80273,2.88184,2.88184,0,0,0,.502-1.77735v-1.5a.334.334,0,0,1,.34472-.34472h.63086a.33409.33409,0,0,1,.24707.09765.3379.3379,0,0,1,.09766.24707V12.9603a4.22476,4.22476,0,0,1-.35254,1.793,3.13677,3.13677,0,0,1-1.01269,1.2373,3.927,3.927,0,0,1-1.5752.66016l1.665,4.21484a1.08,1.08,0,0,1,.07519.28516.307.307,0,0,1-.2998.2998Z"/><path class="d" d="M156.77577,19.59116a.33409.33409,0,0,1-.34473-.34571v-7.875a.334.334,0,0,1,.34473-.34472h2.9248a4.88316,4.88316,0,0,1,2.1377.41211,2.72694,2.72694,0,0,1,1.26757,1.23047,4.45233,4.45233,0,0,1,.41993,2.04785v4.52929a.33409.33409,0,0,1-.34473.34571h-.67481a.33035.33035,0,0,1-.25488-.09766.3499.3499,0,0,1-.09082-.248V14.76108a2.6963,2.6963,0,0,0-.59961-1.86816,2.48732,2.48732,0,0,0-1.93457-.667h-1.83008v7.01953a.35359.35359,0,0,1-.08984.248.31487.31487,0,0,1-.24023.09766Z"/><path class="d" d="M165.73084,19.59116a.33407.33407,0,0,1-.34472-.34571v-.50976a.334.334,0,0,1,.34472-.34473h4.30469V14.76108a2.701,2.701,0,0,0-.59961-1.86816,2.48732,2.48732,0,0,0-1.93457-.667h-1.62012a.33407.33407,0,0,1-.3457-.34472v-.51075a.33407.33407,0,0,1,.3457-.34472h1.69434a4.86289,4.86289,0,0,1,2.14551.41992,2.7971,2.7971,0,0,1,1.28222,1.2373,4.35493,4.35493,0,0,1,.42774,2.03321V18.391h.55469a.33409.33409,0,0,1,.3457.34473v.50976a.33414.33414,0,0,1-.3457.34571Z"/><path class="d" d="M183.431,19.59116a.33409.33409,0,0,1-.34473-.34571V14.76108a2.69661,2.69661,0,0,0-.60058-1.86816,2.48593,2.48593,0,0,0-1.93457-.667h-2.82032a.334.334,0,0,1-.34472-.34472v-.51075a.334.334,0,0,1,.34472-.34472h2.89551a3.91682,3.91682,0,0,1,2.8877.94531,3.73965,3.73965,0,0,1,.9375,2.74512v4.52929a.33414.33414,0,0,1-.34571.34571Zm-5.7002,0a.33407.33407,0,0,1-.34472-.34571V14.23569a.334.334,0,0,1,.34472-.34473h.69043a.31144.31144,0,0,1,.24024.09766.35114.35114,0,0,1,.08984.24707v5.00976a.35359.35359,0,0,1-.08984.248.31488.31488,0,0,1-.24024.09766Z"/><path class="d" d="M191.18592,19.59116a.33407.33407,0,0,1-.34472-.34571V14.76108a2.70105,2.70105,0,0,0-.59961-1.86816,2.48968,2.48968,0,0,0-1.93555-.667H186.3412a.334.334,0,0,1-.34473-.34472v-.51075a.334.334,0,0,1,.34473-.34472h2.04a4.95078,4.95078,0,0,1,2.1377.40527,2.68825,2.68825,0,0,1,1.26758,1.22266,4.42441,4.42441,0,0,1,.41992,2.03222v4.55957a.33414.33414,0,0,1-.3457.34571Z"/><path class="d" d="M194.66541,16.11069a.334.334,0,0,1-.34472-.34473V11.37045a.334.334,0,0,1,.34472-.34472h.72071a.30786.30786,0,0,1,.23925.09765.34844.34844,0,0,1,.08985.24707V15.766a.34682.34682,0,0,1-.08985.24707.30786.30786,0,0,1-.23925.09766Z"/><path class="d" d="M198.17518,16.11069a.334.334,0,0,1-.34473-.34473V11.37045a.334.334,0,0,1,.34473-.34472h.7207a.30788.30788,0,0,1,.23926.09765.34844.34844,0,0,1,.08984.24707V15.766a.34681.34681,0,0,1-.08984.24707.30788.30788,0,0,1-.23926.09766Z"/><path class="d" d="M209.65077,14.76108a2.68012,2.68012,0,0,0-.60743-1.86816,2.51327,2.51327,0,0,0-1.94238-.667h-2.20508a.33407.33407,0,0,1-.3457-.34472v-.51075a.33407.33407,0,0,1,.3457-.34472h2.2793a5.08726,5.08726,0,0,1,2.15332.39746,2.67029,2.67029,0,0,1,1.26758,1.20019,4.44589,4.44589,0,0,1,.41992,2.0625v6.41993a.33407.33407,0,0,1-.3457.34472h-.67481a.32691.32691,0,0,1-.25488-.09765.35116.35116,0,0,1-.08984-.24707Z"/><path class="d" d="M213.476,16.11069a.33407.33407,0,0,1-.3457-.34473V11.37045a.33406.33406,0,0,1,.3457-.34472h.71973a.31141.31141,0,0,1,.24023.09765.35282.35282,0,0,1,.08985.24707V15.766a.35115.35115,0,0,1-.08985.24707.31142.31142,0,0,1-.24023.09766Z"/><path class="d" d="M216.61073,19.59116a.33414.33414,0,0,1-.34571-.34571v-.50976a.33409.33409,0,0,1,.34571-.34473h4.22949v.915a.24385.24385,0,0,1-.09766.2168.41707.41707,0,0,1-.24707.06836Zm3.31445,0a.28959.28959,0,0,1-.23242-.09766.53865.53865,0,0,1-.11231-.248l-.28515-4.63476a11.71579,11.71579,0,0,0-.11231-1.27539,1.54666,1.54666,0,0,0-.36035-.83985,1.21159,1.21159,0,0,0-.92187-.2998h-.61524a.33255.33255,0,0,1-.34473-.34473v-.50976a.33261.33261,0,0,1,.34473-.34571h.62988a3.25753,3.25753,0,0,1,1.37989.248,1.875,1.875,0,0,1,.81738.71973,3.33134,3.33134,0,0,1,.41992,1.13281,11.03731,11.03731,0,0,1,.17285,1.46973l.28516,4.67968a.28483.28483,0,0,1-.08984.248.36467.36467,0,0,1-.25489.09766Z"/><path class="d" d="M223.19569,19.59116a.33414.33414,0,0,1-.34571-.34571v-7.875a.33407.33407,0,0,1,.34571-.34472h2.9248a4.8861,4.8861,0,0,1,2.1377.41211,2.73152,2.73152,0,0,1,1.26758,1.23047,4.465,4.465,0,0,1,.41992,2.04785v4.52929a.33414.33414,0,0,1-.34571.34571h-.6748a.33178.33178,0,0,1-.25488-.09766.3536.3536,0,0,1-.08985-.248V14.76108a2.701,2.701,0,0,0-.59961-1.86816,2.48965,2.48965,0,0,0-1.93554-.667h-1.83008v7.01953a.34924.34924,0,0,1-.08985.248.31193.31193,0,0,1-.24023.09766Z"/><path class="d" d="M238.21034,19.59116a.33863.33863,0,0,1-.24805-.09766.3348.3348,0,0,1-.09766-.248V14.76108a2.701,2.701,0,0,0-.59961-1.86816,2.48825,2.48825,0,0,0-1.93554-.667h-2.81934a.33406.33406,0,0,1-.3457-.34472v-.51075a.33406.33406,0,0,1,.3457-.34472h2.89453a3.91528,3.91528,0,0,1,2.8877.94531,3.73558,3.73558,0,0,1,.9375,2.74512v4.52929a.33409.33409,0,0,1-.34473.34571Zm-5.7002,0a.33413.33413,0,0,1-.3457-.34571V14.23569a.33407.33407,0,0,1,.3457-.34473h.68945a.30859.30859,0,0,1,.24024.09766.34686.34686,0,0,1,.08984.24707v5.00976a.34927.34927,0,0,1-.08984.248.312.312,0,0,1-.24024.09766Z"/><path class="d" d="M80.683,41.19077a.33409.33409,0,0,1-.3457-.34473V32.971a.33261.33261,0,0,1,.3457-.34473h.70508a.33268.33268,0,0,1,.25488.09668.35528.35528,0,0,1,.08985.248v7.875a.35115.35115,0,0,1-.08985.24707.32972.32972,0,0,1-.25488.09766Z"/><path class="d" d="M83.78748,33.82553a.334.334,0,0,1-.34472-.34472V32.971a.33253.33253,0,0,1,.34472-.34473H90.223a.33255.33255,0,0,1,.34473.34473v.50977a.334.334,0,0,1-.34473.34472Zm4.05079,7.36524a.29124.29124,0,0,1-.33008-.33008V35.5062a3.61874,3.61874,0,0,1,.21-1.37989q.20948-.49511.52441-.49511h1.47071q-.37647,0-.6084.56933a3.766,3.766,0,0,0-.23242,1.41016v5.25a.3023.3023,0,0,1-.1045.24023.3815.3815,0,0,1-.25488.08985Z"/><path class="d" d="M92.35194,41.19077a.28462.28462,0,0,1-.22461-.1045.32971.32971,0,0,1-.0752-.25585l1.27539-7.34961a.374.374,0,0,1,.13477-.23243.30161.30161,0,0,1,.25488-.05273l.60059.03027a.33718.33718,0,0,1,.23926.127.30566.30566,0,0,1,.06054.26269l-1.20019,7.21485a.39205.39205,0,0,1-.12793.25585.37248.37248,0,0,1-.26172.1045Zm3.79492-7.335H92.50233a.32691.32691,0,0,1-.25488-.09766.34682.34682,0,0,1-.08985-.24707v-.54a.35087.35087,0,0,1,.08985-.248.32982.32982,0,0,1,.25488-.09668H96.3119a3.16932,3.16932,0,0,1,1.6582.43457,2.99211,2.99211,0,0,1,1.13965,1.25293,4.33018,4.33018,0,0,1,.41211,1.97168V40.846a.34686.34686,0,0,1-.08984.24707.32694.32694,0,0,1-.25489.09766H95.307a.334.334,0,0,1-.34473-.34473v-.50977a.33409.33409,0,0,1,.34473-.3457H98.1576V36.37631a3.172,3.172,0,0,0-.26269-1.33593,2.06767,2.06767,0,0,0-.71973-.877A1.80207,1.80207,0,0,0,96.14686,33.85581Z"/><path class="d" d="M103.34705,33.85581l-1.78418-.01465a.35359.35359,0,0,1-.248-.08985.31141.31141,0,0,1-.09766-.24023v-2.625a.33412.33412,0,0,1,.3457-.3457h.62989a.33325.33325,0,0,1,.25488.09765.35527.35527,0,0,1,.08984.248v1.74023h.83985Zm-.02929,7.46972a.27431.27431,0,0,1-.25489-.03711.26583.26583,0,0,1-.12011-.23242v-.69043a.3762.3762,0,0,1,.082-.23926.5357.5357,0,0,1,.24805-.165l.585-.22558a5.48991,5.48991,0,0,0,1.07226-.61524,2.38881,2.38881,0,0,0,.76465-.98925,4.12811,4.12811,0,0,0,.27734-1.65039,4.24816,4.24816,0,0,0-.23242-1.55274,1.47159,1.47159,0,0,0-.77929-.82519,3.71256,3.71256,0,0,0-1.49317-.24707H103.018a.33409.33409,0,0,1-.3457-.34473v-.54a.33261.33261,0,0,1,.3457-.34473h.65918a5.07686,5.07686,0,0,1,2.17578.38965,2.30626,2.30626,0,0,1,1.16211,1.252,6.07082,6.07082,0,0,1,.35254,2.25781,5.19486,5.19486,0,0,1-.28515,1.81543,4.022,4.022,0,0,1-.77246,1.30468,4.48159,4.48159,0,0,1-1.10254.89258,7.23589,7.23589,0,0,1-1.27442.57715Z"/><path class="d" d="M109.19764,41.19077a.33407.33407,0,0,1-.3457-.34473v-.50977a.33412.33412,0,0,1,.3457-.3457h4.22949v.915a.24451.24451,0,0,1-.09765.21777.42386.42386,0,0,1-.24707.06739Zm3.31445,0a.28659.28659,0,0,1-.23242-.09766.53488.53488,0,0,1-.1123-.24707l-.28516-4.63477a11.719,11.719,0,0,0-.1123-1.27539,1.54339,1.54339,0,0,0-.36036-.83984,1.20772,1.20772,0,0,0-.92187-.2998h-.61523a.33261.33261,0,0,1-.34473-.34571v-.50976a.33255.33255,0,0,1,.34473-.34473h.62988a3.25871,3.25871,0,0,1,1.37988.24707,1.877,1.877,0,0,1,.81738.7207,3.326,3.326,0,0,1,.41993,1.13184,11.07809,11.07809,0,0,1,.17285,1.46973l.28515,4.68066a.28289.28289,0,0,1-.08984.24707.36031.36031,0,0,1-.25488.09766Z"/><path class="d" d="M119.69764,40.06577a3.20235,3.20235,0,0,0,1.64258-.36035,2.48738,2.48738,0,0,0,1.01953-1.07227,3.488,3.488,0,0,0,.35254-1.59766V32.971a.33255.33255,0,0,1,.34473-.34473h.62988a.31127.31127,0,0,1,.24023.09668.35087.35087,0,0,1,.08985.248V37.141a4.7482,4.7482,0,0,1-.29981,1.73242,3.73779,3.73779,0,0,1-.85449,1.32032,3.69,3.69,0,0,1-1.3125.832,4.29369,4.29369,0,0,1-1.67285.25488h-1.125a3.43747,3.43747,0,0,1-1.75488-.45019,3.24088,3.24088,0,0,1-1.23047-1.25977,3.79905,3.79905,0,0,1-.44922-1.875V32.971a.33109.33109,0,0,1,.34472-.34473h.62989a.33253.33253,0,0,1,.34472.34473l.04493,4.4248a2.61335,2.61335,0,0,0,.7207,1.98047,2.5363,2.5363,0,0,0,1.83008.68946Zm-3.33008-1.75489-.03027-1.09472a3.68519,3.68519,0,0,0,1.69531-.33789A1.79017,1.79017,0,0,0,118.85,36.016a2.96185,2.96185,0,0,0,.23243-1.18554V32.971a.35527.35527,0,0,1,.08984-.248.33126.33126,0,0,1,.25488-.09668h.61524a.33253.33253,0,0,1,.34472.34473V34.891a3.53766,3.53766,0,0,1-.43457,1.75488,3.02822,3.02822,0,0,1-1.32812,1.23047A4.88119,4.88119,0,0,1,116.36756,38.31088Z"/><path class="d" d="M131.74159,33.09116h.375a.45823.45823,0,0,1,.33789.1123.33106.33106,0,0,1,.09765.27735q-.12012.62988-.20312,1.13964c-.05469.34082-.0918.67774-.11231,1.0127-.01953.335-.03027.71289-.03027,1.13281l.0459,4.08008a.33409.33409,0,0,1-.34571.34473l-2.12988-.03028a.34681.34681,0,0,1-.24707-.08984.32691.32691,0,0,1-.09765-.25488v-.4795a.33407.33407,0,0,1,.34472-.3457l1.15528.01563V36.82553c0-.40918.00488-.78711.01464-1.13183a9.26087,9.26087,0,0,1,.08985-1.043,11.7008,11.7008,0,0,1,.24023-1.18457.63432.63432,0,0,1,.14258-.27051A.42727.42727,0,0,1,131.74159,33.09116Zm-1.34961.73437a.33253.33253,0,0,1-.34473-.34472V32.971a.33109.33109,0,0,1,.34473-.34473h3.25488a4.8722,4.8722,0,0,1,2.13769.41211,2.72943,2.72943,0,0,1,1.26758,1.2295,4.39381,4.39381,0,0,1,.41992,2.01757V40.846a.334.334,0,0,1-.34472.34473h-.67578a.32976.32976,0,0,1-.25489-.09766.35114.35114,0,0,1-.08984-.24707V36.36069a2.69842,2.69842,0,0,0-.59961-1.86719,2.48639,2.48639,0,0,0-1.93555-.668Z"/><path class="d" d="M140.03651,41.19077a.334.334,0,0,1-.34473-.34473V32.971a.33255.33255,0,0,1,.34473-.34473h.70508a.32982.32982,0,0,1,.25488.09668.35086.35086,0,0,1,.08984.248v7.875a.34681.34681,0,0,1-.08984.24707.32691.32691,0,0,1-.25488.09766Z"/><path class="d" d="M143.26209,41.19077a.33409.33409,0,0,1-.3457-.34473v-.50977a.33414.33414,0,0,1,.3457-.3457h4.2295v.915a.24452.24452,0,0,1-.09766.21777.42383.42383,0,0,1-.24707.06739Zm3.31446,0a.28661.28661,0,0,1-.23243-.09766.535.535,0,0,1-.1123-.24707l-.28516-4.63477a11.71649,11.71649,0,0,0-.1123-1.27539,1.54345,1.54345,0,0,0-.36035-.83984,1.20775,1.20775,0,0,0-.92188-.2998h-.61523a.33261.33261,0,0,1-.34473-.34571v-.50976a.33255.33255,0,0,1,.34473-.34473h.62988a3.25871,3.25871,0,0,1,1.37988.24707,1.8771,1.8771,0,0,1,.81739.7207,3.326,3.326,0,0,1,.41992,1.13184,11.07642,11.07642,0,0,1,.17285,1.46973L147.642,40.846a.28292.28292,0,0,1-.08985.24707.36031.36031,0,0,1-.25488.09766Z"/><path class="d" d="M149.84705,41.19077a.33409.33409,0,0,1-.3457-.34473V32.971a.33261.33261,0,0,1,.3457-.34473h.70508a.33272.33272,0,0,1,.25489.09668.35527.35527,0,0,1,.08984.248v7.875a.35114.35114,0,0,1-.08984.24707.32976.32976,0,0,1-.25489.09766Z"/><path class="d" d="M158.05116,41.19077a.334.334,0,0,1-.34473-.34473V36.36069a2.69842,2.69842,0,0,0-.59961-1.86719,2.48639,2.48639,0,0,0-1.93555-.668h-1.96484a.334.334,0,0,1-.34473-.34472V32.971a.33255.33255,0,0,1,.34473-.34473h2.04a4.966,4.966,0,0,1,2.13769.4043,2.69264,2.69264,0,0,1,1.26758,1.22266,4.42708,4.42708,0,0,1,.41992,2.03222V40.846a.33407.33407,0,0,1-.3457.34473Z"/><path class="d" d="M164.516,41.32553a.25753.25753,0,0,1-.24707-.03711.27079.27079,0,0,1-.11231-.23242v-.69043a.37621.37621,0,0,1,.082-.23926.53566.53566,0,0,1,.248-.165l.56934-.22558a5.31755,5.31755,0,0,0,1.08789-.61524,2.38889,2.38889,0,0,0,.76465-.98925,5.1013,5.1013,0,0,0,.03808-3.20313,1.50247,1.50247,0,0,0-.78808-.82519,3.66237,3.66237,0,0,0-1.47754-.24707h-3.04492a.334.334,0,0,1-.34473-.34473v-.54a.33255.33255,0,0,1,.34473-.34473h3.24023a5.06545,5.06545,0,0,1,2.18262.38965,2.31209,2.31209,0,0,1,1.15527,1.252,6.07082,6.07082,0,0,1,.35254,2.25781,5.21743,5.21743,0,0,1-.28516,1.81543,4.039,4.039,0,0,1-.77246,1.30468,4.54092,4.54092,0,0,1-1.0957.89258,6.9565,6.9565,0,0,1-1.26758.57715ZM161.63612,44.056a.334.334,0,0,1-.34473-.34473v-7.875a.33409.33409,0,0,1,.34473-.3457h.66015a.33034.33034,0,0,1,.25489.09766.34926.34926,0,0,1,.08984.248v7.875a.34846.34846,0,0,1-.08984.24707.33034.33034,0,0,1-.25489.09766Z"/><path class="d" d="M170.59217,42.016a.30407.30407,0,0,1-.28515-.02246.25978.25978,0,0,1-.13477-.23242v-.50977a.563.563,0,0,1,.05957-.25586.32676.32676,0,0,1,.19531-.165l3.165-1.03418a3.44214,3.44214,0,0,0,1.31934-.73536,2.47376,2.47376,0,0,0,.65332-1.0498,4.38983,4.38983,0,0,0,.1875-1.30566V32.971a.33109.33109,0,0,1,.34472-.34473h.67481a.32982.32982,0,0,1,.25488.09668.35087.35087,0,0,1,.08985.248v4.15527a3.5929,3.5929,0,0,1-.38965,1.64161,4.03967,4.03967,0,0,1-1.11719,1.35058,5.10818,5.10818,0,0,1-1.71777.877Zm1.96485-1.18554-2.11524-7.6045a1.731,1.731,0,0,0-.05273-.17968.34827.34827,0,0,1-.02246-.12012.307.307,0,0,1,.2998-.29981h.73535a.30888.30888,0,0,1,.34473.22461l2.085,7.63477Z"/><path class="d" d="M185.38123,41.19077a.334.334,0,0,1-.34472-.34473V36.36069a2.694,2.694,0,0,0-.60059-1.86719,2.48262,2.48262,0,0,0-1.93457-.668H179.681a.334.334,0,0,1-.34473-.34472V32.971a.33255.33255,0,0,1,.34473-.34473h2.89551a3.91659,3.91659,0,0,1,2.88769.94434,3.73961,3.73961,0,0,1,.9375,2.74512V40.846a.33407.33407,0,0,1-.3457.34473Zm-5.70019,0a.334.334,0,0,1-.34473-.34473V35.83627a.33409.33409,0,0,1,.34473-.3457h.69043a.31481.31481,0,0,1,.24023.09766.35359.35359,0,0,1,.08985.248V40.846a.35115.35115,0,0,1-.08985.24707.31141.31141,0,0,1-.24023.09766Z"/><path class="d" d="M192.53553,37.71127a.33407.33407,0,0,1-.34473-.3457V32.971a.33255.33255,0,0,1,.34473-.34473h.7207a.31056.31056,0,0,1,.23926.09668.35087.35087,0,0,1,.08985.248v4.39453a.34924.34924,0,0,1-.08985.248.31125.31125,0,0,1-.23926.09765Z"/><path class="d" d="M197.02088,33.85581v1.16992a2.97169,2.97169,0,0,0,.14258.90039.65873.65873,0,0,0,.458.45019l.55469.14942a.29315.29315,0,0,1,.1875.15722.65332.65332,0,0,1,.06738.30762v.375a.24941.24941,0,0,1-.165.24024.62219.62219,0,0,1-.36035.04492l-.585-.12012a1.90936,1.90936,0,0,1-.82422-.42773,1.84781,1.84781,0,0,1-.51758-.83985,4.17747,4.17747,0,0,1-.17285-1.28222V32.971a.35527.35527,0,0,1,.08984-.248.33127.33127,0,0,1,.25489-.09668h2.77539a3.63988,3.63988,0,0,1,1.875.44239,2.83148,2.83148,0,0,1,1.13964,1.27441,4.998,4.998,0,0,1,.41993,2.00293c.00976.14941.01562.33691.01562.5625,0,.22461-.00586.41211-.01562.5625a5.01815,5.01815,0,0,1-.41993,1.99512,2.8262,2.8262,0,0,1-1.13964,1.28222,3.63988,3.63988,0,0,1-1.875.44239h-2.59473a.33407.33407,0,0,1-.3457-.34473v-.54a.33259.33259,0,0,1,.3457-.34473H198.851a1.97239,1.97239,0,0,0,1.59766-.668,3.06018,3.06018,0,0,0,.62207-1.86719c.00976-.15039.01562-.32324.01562-.51758,0-.19531-.00586-.36816-.01562-.51758a2.87658,2.87658,0,0,0-.60742-1.86719,2.01644,2.01644,0,0,0-1.61231-.668Z"/><path class="d" d="M209.56092,33.85581l-1.78515-.01465a.35115.35115,0,0,1-.24707-.08985.31141.31141,0,0,1-.09766-.24023v-2.625a.33407.33407,0,0,1,.34473-.3457h.62988a.33034.33034,0,0,1,.25488.09765.35154.35154,0,0,1,.09082.248v1.74023h.83985Zm-.03027,7.46972a.27468.27468,0,0,1-.25488-.03711.26581.26581,0,0,1-.12012-.23242v-.69043a.37155.37155,0,0,1,.083-.23926.53229.53229,0,0,1,.24707-.165l.585-.22558a5.43376,5.43376,0,0,0,1.07226-.61524,2.39875,2.39875,0,0,0,.76563-.98925,4.1454,4.1454,0,0,0,.27734-1.65039,4.24837,4.24837,0,0,0-.23242-1.55274,1.47323,1.47323,0,0,0-.78027-.82519,3.70738,3.70738,0,0,0-1.49219-.24707h-.4502a.334.334,0,0,1-.34472-.34473v-.54a.33253.33253,0,0,1,.34472-.34473h.66016a5.072,5.072,0,0,1,2.1748.38965,2.30276,2.30276,0,0,1,1.16211,1.252,6.05079,6.05079,0,0,1,.35254,2.25781,5.21851,5.21851,0,0,1-.28418,1.81543,4.03923,4.03923,0,0,1-.77246,1.30468,4.49939,4.49939,0,0,1-1.10254.89258,7.24449,7.24449,0,0,1-1.27539.57715Z"/><path class="d" d="M215.45643,42.016a.30409.30409,0,0,1-.28516-.02246.25979.25979,0,0,1-.13476-.23242v-.50977a.563.563,0,0,1,.05957-.25586.32676.32676,0,0,1,.19531-.165l3.165-1.03418a3.44214,3.44214,0,0,0,1.31934-.73536,2.47376,2.47376,0,0,0,.65332-1.0498,4.38983,4.38983,0,0,0,.1875-1.30566V32.971a.33109.33109,0,0,1,.34472-.34473h.67481a.32982.32982,0,0,1,.25488.09668.35086.35086,0,0,1,.08984.248v4.15527a3.59289,3.59289,0,0,1-.38964,1.64161A4.03967,4.03967,0,0,1,220.474,40.1185a5.10813,5.10813,0,0,1-1.71778.877Zm1.96484-1.18554-2.11523-7.6045a1.728,1.728,0,0,0-.05274-.17968.34851.34851,0,0,1-.02246-.12012.30705.30705,0,0,1,.29981-.29981h.73535a.30888.30888,0,0,1,.34473.22461l2.085,7.63477Z"/><path class="d" d="M227.92616,31.8851a.26846.26846,0,0,1-.207-.08984.31438.31438,0,0,1-.08105-.2168.81769.81769,0,0,1,.05469-.28808l.95312-2.46582a1.3083,1.3083,0,0,1,.19824-.29688.421.421,0,0,1,.32422-.11719h.59375a.26736.26736,0,0,1,.22559.1084.35208.35208,0,0,1,.04492.28809l-.39648,2.55566a.64568.64568,0,0,1-.14356.36914.43884.43884,0,0,1-.36035.15332Z"/><path class="d" d="M232.06,41.19077a.28462.28462,0,0,1-.22461-.1045.32967.32967,0,0,1-.0752-.25585l1.27539-7.34961a.374.374,0,0,1,.13477-.23243.30161.30161,0,0,1,.25488-.05273l.60059.03027a.33718.33718,0,0,1,.23925.127.30564.30564,0,0,1,.06055.26269l-1.2002,7.21485a.392.392,0,0,1-.12792.25585.37248.37248,0,0,1-.26172.1045Zm3.79492-7.335h-3.64453a.32692.32692,0,0,1-.25489-.09766.34686.34686,0,0,1-.08984-.24707v-.54a.3509.3509,0,0,1,.08984-.248.32983.32983,0,0,1,.25489-.09668h3.80957a3.16934,3.16934,0,0,1,1.6582.43457,2.99217,2.99217,0,0,1,1.13965,1.25293,4.33018,4.33018,0,0,1,.41211,1.97168V40.846a.34682.34682,0,0,1-.08985.24707.32691.32691,0,0,1-.25488.09766H235.015a.334.334,0,0,1-.34472-.34473v-.50977a.33407.33407,0,0,1,.34472-.3457h2.85059V36.37631a3.17188,3.17188,0,0,0-.2627-1.33593,2.06765,2.06765,0,0,0-.71972-.877A1.80209,1.80209,0,0,0,235.85487,33.85581Z"/></svg>