<svg xmlns="http://www.w3.org/2000/svg" viewBox="0 0 300.80274 50.58049"><defs><style>.a,.b,.f{fill:none;}.a{stroke:#727070;stroke-width:6.82666px;}.a,.b{stroke-linecap:round;stroke-linejoin:round;}.b{stroke:#878787;stroke-width:2.27555px;}.c{fill:#9e9d9c;}.d{fill:#3d3d3b;}.e{fill:#eeeded;}.f{stroke:#585857;stroke-miterlimit:10;stroke-width:1.70667px;}.g{fill:#c7c6c6;}.h{fill:#dfcfe2;}.i{fill:#f7e3f0;}.j{fill:#ab96a9;}.k{fill:#fff;}</style></defs><line class="a" x1="297.3894" y1="25.34896" x2="23.44133" y2="25.34896"/><line class="b" x1="297.3894" y1="24.84059" x2="23.44133" y2="24.84059"/><polygon class="c" points="21.392 29.178 21.392 21.52 18.19 19.11 17.406 25.349 18.19 31.588 21.392 29.178"/><rect class="d" x="17.48537" y="24.20143" width="9.61696" height="2.29496" rx="1.14748" transform="translate(47.64276 3.05505) rotate(90)"/><polygon class="e" points="18.19 19.11 0 25.349 18.19 31.588 17.406 25.349 18.19 19.11"/><path class="f" d="M48.06089,28.76229V28.371a15.02955,15.02955,0,0,1,0-5.97739v-.43745"/><path class="f" d="M43.86313,28.76229V28.371a15.02955,15.02955,0,0,1,0-5.97739v-.43745"/><path class="f" d="M39.66536,28.76229V28.371a15.02976,15.02976,0,0,1,0-5.97739v-.43745"/><path class="f" d="M35.4676,28.76229V28.371a15.02955,15.02955,0,0,1,0-5.97739v-.43745"/><path class="f" d="M293.96989,28.76229V28.371a15.02955,15.02955,0,0,1,0-5.97739v-.43745"/><path class="f" d="M289.77213,28.76229V28.371a15.02955,15.02955,0,0,1,0-5.97739v-.43745"/><path class="f" d="M285.57437,28.76229V28.371a15.02955,15.02955,0,0,1,0-5.97739v-.43745"/><path class="f" d="M281.3766,28.76229V28.371a15.02955,15.02955,0,0,1,0-5.97739v-.43745"/><path class="f" d="M277.17884,28.76229V28.371a15.02955,15.02955,0,0,1,0-5.97739v-.43745"/><path class="f" d="M272.98108,28.76229V28.371a15.02955,15.02955,0,0,1,0-5.97739v-.43745"/><path class="f" d="M268.78331,28.76229V28.371a15.02955,15.02955,0,0,1,0-5.97739v-.43745"/><path class="f" d="M264.58555,28.76229V28.371a15.02955,15.02955,0,0,1,0-5.97739v-.43745"/><path class="f" d="M260.38779,28.76229V28.371a15.02955,15.02955,0,0,1,0-5.97739v-.43745"/><path class="f" d="M256.19,28.76229V28.371a15.02955,15.02955,0,0,1,0-5.97739v-.43745"/><path class="f" d="M251.99226,28.76229V28.371a15.02955,15.02955,0,0,1,0-5.97739v-.43745"/><path class="f" d="M247.7945,28.76229V28.371a15.02955,15.02955,0,0,1,0-5.97739v-.43745"/><polygon class="g" points="17.406 25.349 0 25.349 18.19 31.588 17.406 25.349"/><polygon class="h" points="261.253 27.861 270.896 36.063 299.188 36.063 289.545 27.861 261.253 27.861"/><polygon class="i" points="289.545 27.861 294.039 34.373 271.381 34.373 261.253 27.861 270.896 36.063 299.188 36.063 289.545 27.861"/><polygon class="j" points="289.545 27.861 262.822 29.195 261.253 27.861 289.545 27.861"/><polygon class="h" points="261.253 22.72 270.896 14.518 299.188 14.518 289.545 22.72 261.253 22.72"/><polygon class="j" points="293.401 19.441 261.253 22.72 289.545 22.72 293.401 19.441"/><polygon class="i" points="299.188 14.518 272.496 15.736 261.253 22.72 270.896 14.518 299.188 14.518"/><rect class="k" x="34.42788" width="215.84717" height="50.58049" rx="7.60502"/><path class="d" d="M101.36659,11.49059h.375a.4623.4623,0,0,1,.33789.1123.33213.33213,0,0,1,.09765.27735q-.12012.63134-.20312,1.14062-.082.50976-.11231,1.0127c-.01953.335-.03027.71191-.03027,1.13183l.0459,4.08008a.33413.33413,0,0,1-.34571.3457l-2.12988-.03027a.35114.35114,0,0,1-.24707-.08984.32975.32975,0,0,1-.09765-.25489V18.7357a.334.334,0,0,1,.34472-.34472l1.15528.01465V15.22594q0-.61524.01464-1.13281a9.24414,9.24414,0,0,1,.08985-1.042,11.71533,11.71533,0,0,1,.24023-1.18554.63038.63038,0,0,1,.14258-.26953A.42353.42353,0,0,1,101.36659,11.49059Zm-1.34961.73535a.33261.33261,0,0,1-.34473-.3457v-.50977a.33255.33255,0,0,1,.34473-.34473h3.25488a4.8862,4.8862,0,0,1,2.13769.41211,2.73147,2.73147,0,0,1,1.26758,1.23047,4.391,4.391,0,0,1,.41992,2.01758v4.55957a.33406.33406,0,0,1-.34472.3457h-.67578a.33326.33326,0,0,1-.25489-.09765.35359.35359,0,0,1-.08984-.248V14.76109a2.69938,2.69938,0,0,0-.59961-1.86816,2.48968,2.48968,0,0,0-1.93555-.667Z"/><path class="d" d="M109.66151,19.59117a.33407.33407,0,0,1-.34473-.3457v-7.875a.334.334,0,0,1,.34473-.34473h.70508a.32691.32691,0,0,1,.25488.09766.34844.34844,0,0,1,.08984.24707v7.875a.34923.34923,0,0,1-.08984.248.33034.33034,0,0,1-.25488.09765Z"/><path class="d" d="M113.00721,19.59117a.33863.33863,0,0,1-.24805-.09765.3348.3348,0,0,1-.09765-.248v-2.25a6.127,6.127,0,0,1,.13574-1.3125,3.21221,3.21221,0,0,1,.53223-1.18457,4.04915,4.04915,0,0,1,1.19238-1.05762l.69043,1.00489a2.50692,2.50692,0,0,0-.81055.7871,2.76114,2.76114,0,0,0-.36035.915,4.89708,4.89708,0,0,0-.08984.90821v2.18945a.33407.33407,0,0,1-.34473.3457Zm5.84961,0a.34155.34155,0,0,1-.25488-.09082c-.06055-.05957-.11524-.11426-.165-.165L112.932,11.6107a.557.557,0,0,1-.10547-.28515.27694.27694,0,0,1,.09765-.21.31614.31614,0,0,1,.21778-.08985h.70507a.376.376,0,0,1,.2627.08985,1.677,1.677,0,0,1,.15723.165l5.51953,7.72461a1.43006,1.43006,0,0,1,.083.165.35278.35278,0,0,1,.02246.12012.30881.30881,0,0,1-.29981.30078Zm-1.2002-2.74511-.61523-1.03516a2.9885,2.9885,0,0,0,1.043-.71973,1.59923,1.59923,0,0,0,.36719-.78808,5.97588,5.97588,0,0,0,.06054-.86231V11.37047a.334.334,0,0,1,.34473-.34473h.62988a.33255.33255,0,0,1,.34473.34473V13.516a4.88833,4.88833,0,0,1-.14941,1.21484,2.66954,2.66954,0,0,1-.60743,1.10254A4.88872,4.88872,0,0,1,117.65662,16.84606Z"/><path class="d" d="M126.6869,19.59117a.33411.33411,0,0,1-.3457-.3457V14.76109a2.69464,2.69464,0,0,0-.59961-1.86816,2.48734,2.48734,0,0,0-1.93457-.667H121.8412a.33407.33407,0,0,1-.34473-.3457v-.50977a.334.334,0,0,1,.34473-.34473h2.04a4.94475,4.94475,0,0,1,2.1377.40528,2.68386,2.68386,0,0,1,1.26758,1.22265,4.4119,4.4119,0,0,1,.41992,2.03223v4.55957a.33407.33407,0,0,1-.34473.3457Z"/><path class="d" d="M130.27088,19.59117a.33406.33406,0,0,1-.34472-.3457v-7.875a.334.334,0,0,1,.34472-.34473h.70508a.32691.32691,0,0,1,.25488.09766.34844.34844,0,0,1,.08985.24707v7.875a.34924.34924,0,0,1-.08985.248.33034.33034,0,0,1-.25488.09765Z"/><path class="d" d="M139.67616,19.59117a.33407.33407,0,0,1-.34473-.3457V14.76109a2.695,2.695,0,0,0-.60059-1.86816,2.4859,2.4859,0,0,0-1.93457-.667H133.976a.33409.33409,0,0,1-.34473-.3457v-.50977a.334.334,0,0,1,.34473-.34473h2.89551a3.91675,3.91675,0,0,1,2.88769.94532,3.7396,3.7396,0,0,1,.9375,2.74511v4.5293a.33411.33411,0,0,1-.3457.3457Zm-5.7002,0a.33407.33407,0,0,1-.34473-.3457V14.2357a.334.334,0,0,1,.34473-.34472h.69043a.3114.3114,0,0,1,.24023.09765.35112.35112,0,0,1,.08985.24707v5.00977a.35355.35355,0,0,1-.08985.248.31483.31483,0,0,1-.24023.09765Z"/><path class="d" d="M148.54139,11.49059h.375a.45977.45977,0,0,1,.33691.1123.33211.33211,0,0,1,.09766.27735q-.12012.63134-.20215,1.14062a9.78928,9.78928,0,0,0-.1123,1.0127q-.03077.50244-.03028,1.13183l.04493,4.08008a.33407.33407,0,0,1-.34473.3457l-2.12988-.03027a.35359.35359,0,0,1-.24805-.08984.32976.32976,0,0,1-.09766-.25489V18.7357a.33407.33407,0,0,1,.34571-.34472l1.15429.01465V15.22594q0-.61524.01563-1.13281a9.02133,9.02133,0,0,1,.08984-1.042,11.71836,11.71836,0,0,1,.24024-1.18554.62.62,0,0,1,.14257-.26953A.42063.42063,0,0,1,148.54139,11.49059Zm-1.35059.73535a.33407.33407,0,0,1-.34472-.3457v-.50977a.334.334,0,0,1,.34472-.34473h3.25489a4.88323,4.88323,0,0,1,2.13769.41211,2.727,2.727,0,0,1,1.26758,1.23047,4.37864,4.37864,0,0,1,.41992,2.01758v4.55957a.33406.33406,0,0,1-.34472.3457h-.67481a.33034.33034,0,0,1-.25488-.09765.34924.34924,0,0,1-.08985-.248V14.76109a2.695,2.695,0,0,0-.60058-1.86816,2.48732,2.48732,0,0,0-1.93457-.667Z"/><path class="d" d="M156.476,19.59117a.33863.33863,0,0,1-.248-.09765.3348.3348,0,0,1-.09765-.248v-2.25a6.127,6.127,0,0,1,.13574-1.3125,3.21221,3.21221,0,0,1,.53223-1.18457,4.04915,4.04915,0,0,1,1.19238-1.05762l.69043,1.00489a2.50692,2.50692,0,0,0-.81055.7871,2.76114,2.76114,0,0,0-.36035.915,4.89708,4.89708,0,0,0-.08984.90821v2.18945a.33407.33407,0,0,1-.34473.3457Zm5.84961,0a.34155.34155,0,0,1-.25488-.09082c-.06055-.05957-.11524-.11426-.165-.165l-5.50488-7.72461a.557.557,0,0,1-.10547-.28515.27694.27694,0,0,1,.09765-.21.31614.31614,0,0,1,.21778-.08985h.70507a.376.376,0,0,1,.2627.08985,1.677,1.677,0,0,1,.15723.165l5.51953,7.72461a1.43006,1.43006,0,0,1,.083.165.35278.35278,0,0,1,.02246.12012.30881.30881,0,0,1-.29981.30078Zm-1.2002-2.74511-.61523-1.03516a2.9885,2.9885,0,0,0,1.043-.71973,1.59923,1.59923,0,0,0,.36719-.78808,5.97588,5.97588,0,0,0,.06054-.86231V11.37047a.334.334,0,0,1,.34473-.34473h.62988a.33255.33255,0,0,1,.34473.34473V13.516a4.88833,4.88833,0,0,1-.14941,1.21484,2.66954,2.66954,0,0,1-.60743,1.10254A4.88872,4.88872,0,0,1,161.12537,16.84606Z"/><path class="d" d="M173.47108,19.59117a.33413.33413,0,0,1-.34571-.3457V14.76109a2.69464,2.69464,0,0,0-.5996-1.86816,2.48735,2.48735,0,0,0-1.93457-.667h-1.96583a.33407.33407,0,0,1-.34472-.3457v-.50977a.334.334,0,0,1,.34472-.34473h2.04a4.94475,4.94475,0,0,1,2.1377.40528,2.68386,2.68386,0,0,1,1.26758,1.22265,4.4119,4.4119,0,0,1,.41992,2.03223v4.55957a.33407.33407,0,0,1-.34473.3457Z"/><path class="d" d="M176.95057,16.1107a.334.334,0,0,1-.34473-.34472V11.37047a.334.334,0,0,1,.34473-.34473h.7207a.30788.30788,0,0,1,.23926.09766.34844.34844,0,0,1,.08984.24707V15.766a.34683.34683,0,0,1-.08984.24707.30788.30788,0,0,1-.23926.09765Z"/><path class="d" d="M180.20545,19.59117a.33406.33406,0,0,1-.34472-.3457V18.7357a.334.334,0,0,1,.34472-.34472h4.30469V14.76109a2.69933,2.69933,0,0,0-.59961-1.86816,2.48732,2.48732,0,0,0-1.93457-.667h-1.62012a.3348.3348,0,0,1-.248-.09766.33859.33859,0,0,1-.09766-.248v-.50977a.33409.33409,0,0,1,.3457-.34473h1.69434a4.84919,4.84919,0,0,1,2.14551.41993,2.7971,2.7971,0,0,1,1.28222,1.2373,4.35215,4.35215,0,0,1,.42774,2.0332V18.391h.55469a.33407.33407,0,0,1,.3457.34472v.50977a.33412.33412,0,0,1-.3457.3457Z"/><path class="d" d="M191.99549,19.74059a3.63666,3.63666,0,0,1-2.79-.98242,3.91034,3.91034,0,0,1-.915-2.76758V11.37047a.33409.33409,0,0,1,.34571-.34473h3.61425a4.71312,4.71312,0,0,1,2.12989.40528,2.48773,2.48773,0,0,1,1.16308,1.19238,5.03849,5.03849,0,0,1,.41211,1.94238c.00977.09961.01563.25977.01563.47949v.66016c0,.2207-.00586.38086-.01563.48047a4.5449,4.5449,0,0,1-.43457,1.94238,2.61218,2.61218,0,0,1-1.26758,1.207A5.34119,5.34119,0,0,1,191.99549,19.74059Zm0-1.2295a2.76294,2.76294,0,0,0,2.00977-.59277,2.57154,2.57154,0,0,0,.61523-1.80762c.00977-.09961.01563-.25.01563-.45019v-.585c0-.18946-.00586-.335-.01563-.43457a2.43744,2.43744,0,0,0-.68262-1.80762,2.481,2.481,0,0,0-1.76171-.60742h-2.56543v3.76465a2.68836,2.68836,0,0,0,.59277,1.86035A2.288,2.288,0,0,0,191.99549,18.51109Z"/><path class="d" d="M198.17518,16.1107a.334.334,0,0,1-.34473-.34472V11.37047a.334.334,0,0,1,.34473-.34473h.7207a.30788.30788,0,0,1,.23926.09766.34844.34844,0,0,1,.08984.24707V15.766a.34683.34683,0,0,1-.08984.24707.30788.30788,0,0,1-.23926.09765Z"/><path class="d" d="M209.65077,14.76109a2.67847,2.67847,0,0,0-.60743-1.86816,2.51327,2.51327,0,0,0-1.94238-.667h-2.20508a.3348.3348,0,0,1-.248-.09766.33859.33859,0,0,1-.09766-.248v-.50977a.33409.33409,0,0,1,.3457-.34473h2.2793a5.08742,5.08742,0,0,1,2.15332.39746,2.66573,2.66573,0,0,1,1.26758,1.2002,4.44589,4.44589,0,0,1,.41992,2.0625v6.41992a.33409.33409,0,0,1-.3457.34473h-.67481a.32691.32691,0,0,1-.25488-.09766.35114.35114,0,0,1-.08984-.24707Z"/><path class="d" d="M213.475,16.1107a.334.334,0,0,1-.34472-.34472V11.37047a.334.334,0,0,1,.34472-.34473h.72071a.3079.3079,0,0,1,.23926.09766.34848.34848,0,0,1,.08984.24707V15.766a.34687.34687,0,0,1-.08984.24707.30789.30789,0,0,1-.23926.09765Z"/><path class="d" d="M216.61073,19.59117a.33413.33413,0,0,1-.34571-.3457V18.7357a.33407.33407,0,0,1,.34571-.34472h4.22949v.915a.24383.24383,0,0,1-.09766.21679.42408.42408,0,0,1-.24707.06836Zm3.31445,0a.28959.28959,0,0,1-.23242-.09765.53865.53865,0,0,1-.11231-.248l-.28515-4.63477a11.71625,11.71625,0,0,0-.11231-1.27539,1.54666,1.54666,0,0,0-.36035-.83984,1.21155,1.21155,0,0,0-.92187-.2998h-.61524a.33255.33255,0,0,1-.34473-.34473v-.50977a.33261.33261,0,0,1,.34473-.3457h.62988a3.25753,3.25753,0,0,1,1.37989.24805,1.875,1.875,0,0,1,.81738.71972,3.3314,3.3314,0,0,1,.41992,1.13282,11.03715,11.03715,0,0,1,.17285,1.46972l.28516,4.67969a.28483.28483,0,0,1-.08984.248.36466.36466,0,0,1-.25489.09765Z"/><path class="d" d="M223.19569,19.59117a.33413.33413,0,0,1-.34571-.3457v-7.875a.33409.33409,0,0,1,.34571-.34473h2.9248a4.88625,4.88625,0,0,1,2.1377.41211,2.73157,2.73157,0,0,1,1.26758,1.23047,4.46508,4.46508,0,0,1,.41992,2.04785v4.5293a.33413.33413,0,0,1-.34571.3457h-.6748a.33178.33178,0,0,1-.25488-.09765.3536.3536,0,0,1-.08985-.248V14.76109a2.69933,2.69933,0,0,0-.59961-1.86816,2.48965,2.48965,0,0,0-1.93554-.667h-1.83008v7.01953a.34924.34924,0,0,1-.08985.248.31193.31193,0,0,1-.24023.09765Z"/><path class="d" d="M238.21034,19.59117a.33863.33863,0,0,1-.24805-.09765.3348.3348,0,0,1-.09766-.248V14.76109a2.69933,2.69933,0,0,0-.59961-1.86816,2.48824,2.48824,0,0,0-1.93554-.667h-2.81934a.3348.3348,0,0,1-.24805-.09766.33862.33862,0,0,1-.09765-.248v-.50977a.33407.33407,0,0,1,.3457-.34473h2.89453a3.91524,3.91524,0,0,1,2.8877.94532,3.73557,3.73557,0,0,1,.9375,2.74511v4.5293a.33407.33407,0,0,1-.34473.3457Zm-5.7002,0a.33411.33411,0,0,1-.3457-.3457V14.2357a.33406.33406,0,0,1,.3457-.34472h.68945a.30859.30859,0,0,1,.24024.09765.34687.34687,0,0,1,.08984.24707v5.00977a.34927.34927,0,0,1-.08984.248.312.312,0,0,1-.24024.09765Z"/><path class="d" d="M99.14686,29.49059h.375a.4623.4623,0,0,1,.33789.1123.33214.33214,0,0,1,.09766.27735q-.12012.63134-.20313,1.14062-.082.50976-.1123,1.0127c-.01953.335-.03028.71191-.03028,1.13183l.0459,4.08008a.33411.33411,0,0,1-.3457.3457L97.182,37.5609a.35114.35114,0,0,1-.24707-.08984.32976.32976,0,0,1-.09766-.25489V36.7357A.334.334,0,0,1,97.182,36.391l1.15527.01465V33.22594q0-.61524.01465-1.13281a9.24411,9.24411,0,0,1,.08984-1.042,11.7156,11.7156,0,0,1,.24024-1.18554.63025.63025,0,0,1,.14257-.26953A.42354.42354,0,0,1,99.14686,29.49059Zm-1.34961.73535a.33261.33261,0,0,1-.34473-.3457v-.50977a.33255.33255,0,0,1,.34473-.34473h3.25488a4.88625,4.88625,0,0,1,2.1377.41211,2.73157,2.73157,0,0,1,1.26758,1.23047,4.39115,4.39115,0,0,1,.41992,2.01758v4.55957a.33407.33407,0,0,1-.34473.3457h-.67578a.33323.33323,0,0,1-.25488-.09765.3536.3536,0,0,1-.08985-.248V32.76109a2.69933,2.69933,0,0,0-.59961-1.86816,2.48965,2.48965,0,0,0-1.93554-.667Z"/><path class="d" d="M111.35682,36.46617a3.2097,3.2097,0,0,0,1.64258-.36035,2.48928,2.48928,0,0,0,1.02051-1.07226,3.50629,3.50629,0,0,0,.35254-1.59766V29.37047a.33253.33253,0,0,1,.34472-.34473h.62988a.31144.31144,0,0,1,.24024.09766.35281.35281,0,0,1,.08984.24707v4.16992a4.76514,4.76514,0,0,1-.2998,1.73242,3.66209,3.66209,0,0,1-2.168,2.15332,4.32514,4.32514,0,0,1-1.67188.25489h-1.125a3.45329,3.45329,0,0,1-1.75586-.4502,3.23852,3.23852,0,0,1-1.22949-1.25976,3.79954,3.79954,0,0,1-.45019-1.875V29.37047a.334.334,0,0,1,.34472-.34473h.62989a.33409.33409,0,0,1,.3457.34473l.04492,4.4248a2.61661,2.61661,0,0,0,.71973,1.98047,2.5386,2.5386,0,0,0,1.83008.69043Zm-3.33008-1.75586-.02929-1.09472a3.68189,3.68189,0,0,0,1.69433-.33692,1.79167,1.79167,0,0,0,.81738-.86328,2.9571,2.9571,0,0,0,.23243-1.18457V29.37047a.34912.34912,0,0,1,.09082-.24707.32691.32691,0,0,1,.25488-.09766h.61426a.33409.33409,0,0,1,.3457.34473v1.91992a3.53825,3.53825,0,0,1-.43555,1.75488,3.02533,3.02533,0,0,1-1.32715,1.23047A4.87029,4.87029,0,0,1,108.02674,34.71031Z"/><path class="d" d="M121.00135,37.72594a.2578.2578,0,0,1-.24707-.03809.26962.26962,0,0,1-.1123-.23242V36.766a.38083.38083,0,0,1,.082-.24024.53572.53572,0,0,1,.248-.165l.56934-.22461a5.31772,5.31772,0,0,0,1.08789-.61523,2.39833,2.39833,0,0,0,.76465-.99023,5.09838,5.09838,0,0,0,.03809-3.20215,1.50251,1.50251,0,0,0-.78809-.8252,3.644,3.644,0,0,0-1.47754-.248h-3.04492a.33255.33255,0,0,1-.34473-.34473v-.54a.334.334,0,0,1,.34473-.34473h3.24023a5.06545,5.06545,0,0,1,2.18262.38965,2.314,2.314,0,0,1,1.15527,1.25293,6.06736,6.06736,0,0,1,.35254,2.25781,5.212,5.212,0,0,1-.28515,1.81446,4.029,4.029,0,0,1-.77246,1.30468,4.518,4.518,0,0,1-1.09571.89258,7.02728,7.02728,0,0,1-1.26758.57813Zm-2.87988,2.72949a.334.334,0,0,1-.34473-.34473v-7.875a.334.334,0,0,1,.34473-.34472h.66015a.32692.32692,0,0,1,.25489.09765.34687.34687,0,0,1,.08984.24707v7.875a.34686.34686,0,0,1-.08984.24707.32692.32692,0,0,1-.25489.09766Z"/><path class="d" d="M127.15174,37.59117a.33406.33406,0,0,1-.34472-.3457V36.7357a.334.334,0,0,1,.34472-.34472h4.30469V32.76109a2.69938,2.69938,0,0,0-.59961-1.86816,2.48732,2.48732,0,0,0-1.93457-.667h-1.62012a.3348.3348,0,0,1-.248-.09766.33859.33859,0,0,1-.09766-.248v-.50977a.33409.33409,0,0,1,.3457-.34473h1.69434a4.84919,4.84919,0,0,1,2.14551.41993,2.7971,2.7971,0,0,1,1.28222,1.2373,4.35215,4.35215,0,0,1,.42774,2.0332V36.391h.55468a.33407.33407,0,0,1,.34571.34472v.50977a.33413.33413,0,0,1-.34571.3457Z"/><path class="d" d="M143.06678,36.46617a3.212,3.212,0,0,0,1.64258-.36035,2.49261,2.49261,0,0,0,1.01953-1.07226,3.4937,3.4937,0,0,0,.35254-1.59766V29.37047a.334.334,0,0,1,.34473-.34473h.62988a.30859.30859,0,0,1,.24023.09766.34844.34844,0,0,1,.08985.24707v4.16992a4.74449,4.74449,0,0,1-.29981,1.73242,3.65709,3.65709,0,0,1-2.167,2.15332,4.33015,4.33015,0,0,1-1.67285.25489h-1.125a3.44711,3.44711,0,0,1-1.75488-.4502,3.24086,3.24086,0,0,1-1.23047-1.25976,3.79905,3.79905,0,0,1-.44922-1.875V29.37047a.33255.33255,0,0,1,.34472-.34473h.62989a.334.334,0,0,1,.34472.34473l.04493,4.4248a2.61335,2.61335,0,0,0,.7207,1.98047,2.537,2.537,0,0,0,1.83008.69043Zm-3.33008-1.75586-.03027-1.09472a3.68641,3.68641,0,0,0,1.69531-.33692,1.79618,1.79618,0,0,0,.81738-.86328,2.9571,2.9571,0,0,0,.23243-1.18457V29.37047a.35281.35281,0,0,1,.08984-.24707.32833.32833,0,0,1,.25488-.09766h.61524a.334.334,0,0,1,.34472.34473v1.91992a3.53766,3.53766,0,0,1-.43457,1.75488,3.02265,3.02265,0,0,1-1.32812,1.23047A4.86871,4.86871,0,0,1,139.7367,34.71031Z"/><path class="d" d="M149.83143,37.59117a.33407.33407,0,0,1-.34473-.3457v-7.875a.334.334,0,0,1,.34473-.34473h.70508a.32691.32691,0,0,1,.25488.09766.34844.34844,0,0,1,.08984.24707v7.875a.34923.34923,0,0,1-.08984.248.33034.33034,0,0,1-.25488.09765Z"/><path class="d" d="M153.14588,37.59117a.28257.28257,0,0,1-.22461-.10547.32857.32857,0,0,1-.07519-.25488l1.27539-7.35058a.37668.37668,0,0,1,.13476-.23243.29809.29809,0,0,1,.25489-.05175l.60058.02929a.33821.33821,0,0,1,.23926.12793.30492.30492,0,0,1,.06055.2627l-1.2002,7.21484a.39188.39188,0,0,1-.12793.25488.36922.36922,0,0,1-.26172.10547Zm3.79492-7.33593h-3.64453a.32982.32982,0,0,1-.25488-.09668.34925.34925,0,0,1-.08984-.24805v-.54a.34844.34844,0,0,1,.08984-.24707.32691.32691,0,0,1,.25488-.09766h3.80957a3.17856,3.17856,0,0,1,1.65821.43457,2.99809,2.99809,0,0,1,1.13965,1.25293,4.33162,4.33162,0,0,1,.4121,1.97266v4.55957a.34923.34923,0,0,1-.08984.248.33034.33034,0,0,1-.25488.09765H156.101a.33407.33407,0,0,1-.34473-.3457V36.7357a.334.334,0,0,1,.34473-.34472h2.85059V32.77574a3.16732,3.16732,0,0,0-.2627-1.335,2.0706,2.0706,0,0,0-.71973-.87793A1.8095,1.8095,0,0,0,156.9408,30.25524Z"/><path class="d" d="M162.77674,34.1107a.33407.33407,0,0,1-.3457-.34472V29.37047a.33409.33409,0,0,1,.3457-.34473h.71973a.31141.31141,0,0,1,.24023.09766.35282.35282,0,0,1,.08985.24707V33.766a.35117.35117,0,0,1-.08985.24707.3114.3114,0,0,1-.24023.09765Z"/><path class="d" d="M170.306,36.46617a3.20973,3.20973,0,0,0,1.64258-.36035,2.4892,2.4892,0,0,0,1.0205-1.07226,3.50616,3.50616,0,0,0,.35254-1.59766V29.37047a.33255.33255,0,0,1,.34473-.34473h.62988a.31144.31144,0,0,1,.24024.09766.35281.35281,0,0,1,.08984.24707v4.16992a4.76514,4.76514,0,0,1-.2998,1.73242,3.66209,3.66209,0,0,1-2.168,2.15332,4.32514,4.32514,0,0,1-1.67188.25489h-1.125a3.45329,3.45329,0,0,1-1.75586-.4502,3.23852,3.23852,0,0,1-1.22949-1.25976,3.79954,3.79954,0,0,1-.45019-1.875V29.37047a.334.334,0,0,1,.34472-.34473h.62989a.33409.33409,0,0,1,.3457.34473l.04492,4.4248a2.61657,2.61657,0,0,0,.71973,1.98047,2.5386,2.5386,0,0,0,1.83008.69043ZM166.976,34.71031l-.0293-1.09472a3.68191,3.68191,0,0,0,1.69434-.33692,1.79172,1.79172,0,0,0,.81738-.86328,2.95709,2.95709,0,0,0,.23242-1.18457V29.37047a.34917.34917,0,0,1,.09082-.24707.327.327,0,0,1,.25489-.09766h.61426a.33409.33409,0,0,1,.3457.34473v1.91992a3.53825,3.53825,0,0,1-.43555,1.75488,3.02533,3.02533,0,0,1-1.32715,1.23047A4.87029,4.87029,0,0,1,166.976,34.71031Z"/><path class="d" d="M178.601,30.25524l-1.78516-.01465a.35118.35118,0,0,1-.24707-.08985.30858.30858,0,0,1-.09765-.24023v-2.625a.334.334,0,0,1,.34472-.34473h.62989a.32691.32691,0,0,1,.25488.09766.34749.34749,0,0,1,.09082.24707v1.74023h.83984Zm-.03027,7.4707a.275.275,0,0,1-.25489-.03809.26469.26469,0,0,1-.12011-.23242V36.766a.37609.37609,0,0,1,.083-.24024.53229.53229,0,0,1,.24707-.165l.585-.22461a5.43423,5.43423,0,0,0,1.07226-.61523,2.40833,2.40833,0,0,0,.76563-.99023,4.1454,4.1454,0,0,0,.27734-1.65039,4.23906,4.23906,0,0,0-.23242-1.55176,1.47322,1.47322,0,0,0-.78027-.8252,3.68883,3.68883,0,0,0-1.49219-.248h-.4502a.33253.33253,0,0,1-.34472-.34473v-.54a.334.334,0,0,1,.34472-.34473h.66016a5.07206,5.07206,0,0,1,2.1748.38965,2.30465,2.30465,0,0,1,1.16211,1.25293,6.04755,6.04755,0,0,1,.35254,2.25781,5.21279,5.21279,0,0,1-.28418,1.81446,4.0288,4.0288,0,0,1-.77246,1.30468,4.47692,4.47692,0,0,1-1.10254.89258,7.32143,7.32143,0,0,1-1.27539.57813Z"/><path class="d" d="M190.21034,29.49059h.375a.4623.4623,0,0,1,.33789.1123.33213.33213,0,0,1,.09765.27735q-.12012.63134-.20312,1.14062-.082.50976-.11231,1.0127c-.01953.335-.03027.71191-.03027,1.13183l.0459,4.08008a.33413.33413,0,0,1-.34571.3457l-2.12988-.03027a.35114.35114,0,0,1-.24707-.08984.32975.32975,0,0,1-.09765-.25489V36.7357a.334.334,0,0,1,.34472-.34472l1.15528.01465V33.22594q0-.61524.01464-1.13281a9.24414,9.24414,0,0,1,.08985-1.042,11.71533,11.71533,0,0,1,.24023-1.18554.63038.63038,0,0,1,.14258-.26953A.42353.42353,0,0,1,190.21034,29.49059Zm-1.34961.73535a.33261.33261,0,0,1-.34473-.3457v-.50977a.33255.33255,0,0,1,.34473-.34473h3.25488a4.8862,4.8862,0,0,1,2.13769.41211,2.73147,2.73147,0,0,1,1.26758,1.23047,4.391,4.391,0,0,1,.41992,2.01758v4.55957a.33406.33406,0,0,1-.34472.3457h-.67578a.33326.33326,0,0,1-.25489-.09765.35359.35359,0,0,1-.08984-.248V32.76109a2.69938,2.69938,0,0,0-.59961-1.86816,2.48968,2.48968,0,0,0-1.93555-.667Z"/><path class="d" d="M198.50526,37.59117a.33407.33407,0,0,1-.34473-.3457v-7.875a.334.334,0,0,1,.34473-.34473h.70508a.32691.32691,0,0,1,.25488.09766.34844.34844,0,0,1,.08984.24707v7.875a.34923.34923,0,0,1-.08984.248.33034.33034,0,0,1-.25488.09765Z"/><path class="d" d="M202.21034,37.59117a.33407.33407,0,0,1-.34473-.3457v-7.875a.334.334,0,0,1,.34473-.34473h2.9248a4.88331,4.88331,0,0,1,2.1377.41211,2.727,2.727,0,0,1,1.26757,1.23047,4.45236,4.45236,0,0,1,.41993,2.04785v4.5293a.33407.33407,0,0,1-.34473.3457h-.67481a.33034.33034,0,0,1-.25488-.09765.3499.3499,0,0,1-.09082-.248V32.76109a2.69464,2.69464,0,0,0-.59961-1.86816,2.48732,2.48732,0,0,0-1.93457-.667h-1.83008v7.01953a.35359.35359,0,0,1-.08984.248.31486.31486,0,0,1-.24023.09765Z"/><path class="d" d="M211.4203,34.1107a.33407.33407,0,0,1-.34571-.34472V29.37047a.33409.33409,0,0,1,.34571-.34473H212.14a.31144.31144,0,0,1,.24024.09766.35281.35281,0,0,1,.08984.24707V33.766a.35116.35116,0,0,1-.08984.24707.31144.31144,0,0,1-.24024.09765Z"/><path class="d" d="M218.39491,37.74059a3.74706,3.74706,0,0,1-2.89454-.97461,3.8713,3.8713,0,0,1-.88476-2.7002V29.37047a.334.334,0,0,1,.34473-.34473h.61523a.32972.32972,0,0,1,.25488.09766.35282.35282,0,0,1,.08985.24707v4.62012a2.62666,2.62666,0,0,0,.61523,1.86035,3.00605,3.00605,0,0,0,3.68262.05957,2.60518,2.60518,0,0,0,.60742-1.79981,4.167,4.167,0,0,0,.00684-.457q-.00734-.30762-.00684-.623v-.46485a2.8182,2.8182,0,0,0-.5332-1.81543,1.66634,1.66634,0,0,0-1.3125-.56933,2.23638,2.23638,0,0,0-.585.08984,1.87422,1.87422,0,0,0-.55469.24023.30338.30338,0,0,1-.28516.00684.23588.23588,0,0,1-.14941-.23242v-.46484a1.05268,1.05268,0,0,1,.0293-.2627.36607.36607,0,0,1,.165-.20215,2.73608,2.73608,0,0,1,1.56055-.40527,3.33357,3.33357,0,0,1,1.63477.36719,2.40656,2.40656,0,0,1,1.01269,1.13281,4.871,4.871,0,0,1,.36719,1.96484c.00977.10059.01465.27051.01465.51074v.73438c0,.25-.00488.42578-.01465.52539a4.79592,4.79592,0,0,1-.41211,1.94238,2.53124,2.53124,0,0,1-1.2002,1.207A4.90782,4.90782,0,0,1,218.39491,37.74059Z"/><path class="d" d="M223.976,37.59117a.33863.33863,0,0,1-.248-.09765.3348.3348,0,0,1-.09765-.248V36.7357a.33406.33406,0,0,1,.3457-.34472h4.30469V32.76109a2.69938,2.69938,0,0,0-.59961-1.86816,2.48968,2.48968,0,0,0-1.93555-.667h-1.62012a.33407.33407,0,0,1-.34472-.3457v-.50977a.334.334,0,0,1,.34472-.34473h1.69532a4.84468,4.84468,0,0,1,2.14453.41993,2.79931,2.79931,0,0,1,1.2832,1.2373,4.36459,4.36459,0,0,1,.42676,2.0332V36.391h.55566a.334.334,0,0,1,.34473.34472v.50977a.33407.33407,0,0,1-.34473.3457Z"/><path class="d" d="M238.21034,37.59117a.33407.33407,0,0,1-.34473-.3457V32.76109a2.695,2.695,0,0,0-.60059-1.86816,2.4859,2.4859,0,0,0-1.93457-.667h-2.82031a.33409.33409,0,0,1-.34473-.3457v-.50977a.334.334,0,0,1,.34473-.34473h2.89551a3.91675,3.91675,0,0,1,2.88769.94532,3.7396,3.7396,0,0,1,.9375,2.74511v4.5293a.33411.33411,0,0,1-.3457.3457Zm-5.7002,0a.33407.33407,0,0,1-.34473-.3457V32.2357a.334.334,0,0,1,.34473-.34472h.69043a.3114.3114,0,0,1,.24023.09765.35117.35117,0,0,1,.08985.24707v5.00977a.3536.3536,0,0,1-.08985.248.31483.31483,0,0,1-.24023.09765Z"/></svg>