<svg xmlns="http://www.w3.org/2000/svg" viewBox="0 0 300.80274 32.44474"><defs><style>.a,.b,.f{fill:none;}.a{stroke:#706f6f;stroke-width:6.82666px;}.a,.b{stroke-linecap:round;stroke-linejoin:round;}.b{stroke:#878787;stroke-width:2.27555px;}.c{fill:#9d9d9c;}.d{fill:#3c3c3b;}.e{fill:#ededed;}.f{stroke:#575756;stroke-miterlimit:10;stroke-width:1.70667px;}.g{fill:#c6c6c6;}.h{fill:#decfe2;}.i{fill:#ffe3ff;}.j{fill:#aa96a9;}.k{fill:#fff;}</style></defs><line class="a" x1="297.3894" y1="16.73074" x2="23.44133" y2="16.73074"/><line class="b" x1="297.3894" y1="16.22237" x2="23.44133" y2="16.22237"/><polygon class="c" points="21.392 20.56 21.392 12.902 18.19 10.491 17.406 16.731 18.19 22.97 21.392 20.56"/><rect class="d" x="17.48537" y="15.58321" width="9.61696" height="2.29496" rx="1.14748" transform="translate(39.02454 -5.56316) rotate(90)"/><polygon class="e" points="18.19 10.491 0 16.731 18.19 22.97 17.406 16.731 18.19 10.491"/><path class="f" d="M48.06089,20.14407v-.39132a15.02956,15.02956,0,0,1,0-5.97739v-.43745"/><path class="f" d="M43.86313,20.14407v-.39132a15.02956,15.02956,0,0,1,0-5.97739v-.43745"/><path class="f" d="M39.66536,20.14407v-.39132a15.02977,15.02977,0,0,1,0-5.97739v-.43745"/><path class="f" d="M35.4676,20.14407v-.39132a15.02956,15.02956,0,0,1,0-5.97739v-.43745"/><path class="f" d="M293.96989,20.14407v-.39132a15.02956,15.02956,0,0,1,0-5.97739v-.43745"/><path class="f" d="M289.77213,20.14407v-.39132a15.02956,15.02956,0,0,1,0-5.97739v-.43745"/><path class="f" d="M285.57437,20.14407v-.39132a15.02956,15.02956,0,0,1,0-5.97739v-.43745"/><path class="f" d="M281.3766,20.14407v-.39132a15.02956,15.02956,0,0,1,0-5.97739v-.43745"/><path class="f" d="M277.17884,20.14407v-.39132a15.02956,15.02956,0,0,1,0-5.97739v-.43745"/><path class="f" d="M272.98108,20.14407v-.39132a15.02956,15.02956,0,0,1,0-5.97739v-.43745"/><path class="f" d="M268.78331,20.14407v-.39132a15.02956,15.02956,0,0,1,0-5.97739v-.43745"/><path class="f" d="M264.58555,20.14407v-.39132a15.02956,15.02956,0,0,1,0-5.97739v-.43745"/><path class="f" d="M260.38779,20.14407v-.39132a15.02956,15.02956,0,0,1,0-5.97739v-.43745"/><path class="f" d="M256.19,20.14407v-.39132a15.02956,15.02956,0,0,1,0-5.97739v-.43745"/><path class="f" d="M251.99226,20.14407v-.39132a15.02956,15.02956,0,0,1,0-5.97739v-.43745"/><path class="f" d="M247.7945,20.14407v-.39132a15.02956,15.02956,0,0,1,0-5.97739v-.43745"/><polygon class="g" points="17.406 16.731 0 16.731 18.19 22.97 17.406 16.731"/><polygon class="h" points="261.253 19.242 270.896 27.444 299.188 27.444 289.545 19.242 261.253 19.242"/><polygon class="i" points="289.545 19.242 294.039 25.755 271.381 25.755 261.253 19.242 270.896 27.444 299.188 27.444 289.545 19.242"/><polygon class="j" points="289.545 19.242 262.822 20.577 261.253 19.242 289.545 19.242"/><polygon class="h" points="261.253 14.102 270.896 5.9 299.188 5.9 289.545 14.102 261.253 14.102"/><polygon class="j" points="293.401 10.822 261.253 14.102 289.545 14.102 293.401 10.822"/><polygon class="i" points="299.188 5.9 272.496 7.117 261.253 14.102 270.896 5.9 299.188 5.9"/><rect class="k" x="34.42788" width="215.84717" height="32.44474" rx="6.0909"/><path class="d" d="M87.29808,14.68579v4.56006a.3339.3339,0,0,1-.3457.345H86.3225a.33387.33387,0,0,1-.34473-.345V14.76074a2.28061,2.28061,0,0,0-2.58008-2.58H82.31761q-.14942.945-.21777,1.56751a11.18345,11.18345,0,0,0-.05176,1.41748l.0293,4.08008a.33238.33238,0,0,1-.34473.345l-2.085-.03a.33385.33385,0,0,1-.34472-.345v-.45008a.33385.33385,0,0,1,.34472-.345l1.15528.015v-3.21q-.01466-.945.0371-1.59754a9.17187,9.17187,0,0,1,.24805-1.44751h-.81055a.34965.34965,0,0,1-.24707-.09.30948.30948,0,0,1-.09765-.24v-.48a.32825.32825,0,0,1,.09765-.255.34917.34917,0,0,1,.24707-.09009h3.21Q87.29759,11.02575,87.29808,14.68579Z"/><path class="d" d="M97.95531,11.12329a.33751.33751,0,0,1,.09668.24756v4.16992a4.56541,4.56541,0,0,1-.5166,2.21252,3.52632,3.52632,0,0,1-1.45508,1.455,4.25756,4.25756,0,0,1-2.15332.47253H92.81761a3.44575,3.44575,0,0,1-1.75488-.44995,3.17127,3.17127,0,0,1-1.22266-1.26758,3.89259,3.89259,0,0,1-.44238-1.88244v-4.71a.32826.32826,0,0,1,.09766-.255.34913.34913,0,0,1,.24707-.09009h.585a.33387.33387,0,0,1,.34473.3451l.04492,4.25988a2.66592,2.66592,0,0,0,1.89746-.735,2.46654,2.46654,0,0,0,.5332-1.6499v-1.875a.33387.33387,0,0,1,.34473-.3451h.585a.33387.33387,0,0,1,.34473.3451v1.93493a3.23688,3.23688,0,0,1-.915,2.37,3.8955,3.8955,0,0,1-2.68457,1.02,2.37214,2.37214,0,0,0,.89257,1.34253,2.59888,2.59888,0,0,0,1.56739.47241H93.762a2.8657,2.8657,0,0,0,2.2207-.82495,3.12087,3.12087,0,0,0,.79492-2.235V11.37085a.33387.33387,0,0,1,.34473-.3451h.585A.33817.33817,0,0,1,97.95531,11.12329Z"/><path class="d" d="M103.24242,19.74084a.26889.26889,0,0,1-.26953-.285v-.66a.43905.43905,0,0,1,.3291-.405l.585-.225a3.45536,3.45536,0,0,0,1.59082-1.125,3.55326,3.55326,0,0,0,.55469-2.16,4.22323,4.22323,0,0,0-.24024-1.58239,1.53432,1.53432,0,0,0-.78711-.83252,3.64385,3.64385,0,0,0-1.50781-.255h-3a.33385.33385,0,0,1-.34473-.345v-.51a.30966.30966,0,0,1,.09766-.24.34913.34913,0,0,1,.24707-.09009H103.677a5.063,5.063,0,0,1,2.18262.39,2.34579,2.34579,0,0,1,1.16308,1.245,5.99428,5.99428,0,0,1,.35938,2.28,4.3752,4.3752,0,0,1-.94434,2.99256,5.5666,5.5666,0,0,1-2.46,1.58239l-.62988.21009A.26676.26676,0,0,1,103.24242,19.74084Zm-2.99219,2.625a.3286.3286,0,0,1-.09766-.255v-7.905a.33367.33367,0,0,1,.34473-.345h.61524a.33365.33365,0,0,1,.34472.345v7.905a.33385.33385,0,0,1-.34472.345h-.61524A.34958.34958,0,0,1,100.25023,22.36584Z"/><path class="d" d="M115.3098,19.49328a.33358.33358,0,0,1-.09765-.24743V14.76074a2.27348,2.27348,0,0,0-2.56446-2.58h-2.79a.352.352,0,0,1-.248-.09.30948.30948,0,0,1-.09766-.24v-.48a.32826.32826,0,0,1,.09766-.255.35156.35156,0,0,1,.248-.09009h2.86426q3.81006,0,3.81055,3.69007v4.53a.33387.33387,0,0,1-.34473.345h-.63086A.3334.3334,0,0,1,115.3098,19.49328Zm-5.70019,0a.33359.33359,0,0,1-.09766-.24743v-5.04a.33372.33372,0,0,1,.3457-.345h.62989a.33365.33365,0,0,1,.34472.345v5.04a.33385.33385,0,0,1-.34472.345h-.62989A.33563.33563,0,0,1,109.60961,19.49328Z"/><path class="d" d="M122.46507,16.0133a.33371.33371,0,0,1-.09765-.24756V11.37085a.32829.32829,0,0,1,.09765-.255.34917.34917,0,0,1,.24708-.09009h.66015a.33387.33387,0,0,1,.34473.3451v4.39489a.33387.33387,0,0,1-.34473.3451h-.66015A.33343.33343,0,0,1,122.46507,16.0133Z"/><path class="d" d="M129.0266,19.74084a.27392.27392,0,0,1-.1875-.07507.2704.2704,0,0,1-.082-.21v-.66a.44013.44013,0,0,1,.33008-.405l.585-.225a3.45226,3.45226,0,0,0,1.58984-1.125,3.54656,3.54656,0,0,0,.55469-2.16,4.24564,4.24564,0,0,0-.23926-1.58239,1.53264,1.53264,0,0,0-.78809-.83252,3.63881,3.63881,0,0,0-1.50683-.255h-3a.3339.3339,0,0,1-.34571-.345v-.51a.30966.30966,0,0,1,.09766-.24.35156.35156,0,0,1,.24805-.09009h3.17969a5.06291,5.06291,0,0,1,2.18261.39,2.3477,2.3477,0,0,1,1.16211,1.245,5.97321,5.97321,0,0,1,.36035,2.28,4.37548,4.37548,0,0,1-.94531,2.99256,5.5666,5.5666,0,0,1-2.46,1.58239l-.62988.21009A.26345.26345,0,0,1,129.0266,19.74084Zm-2.99219,2.625a.3286.3286,0,0,1-.09766-.255v-7.905a.33372.33372,0,0,1,.34571-.345h.61426a.33372.33372,0,0,1,.3457.345v7.905a.33392.33392,0,0,1-.3457.345h-.61426A.352.352,0,0,1,126.03441,22.36584Z"/><path class="d" d="M139.63988,11.41577a2.34774,2.34774,0,0,1,1.16211,1.245,5.9734,5.9734,0,0,1,.36035,2.28,4.37548,4.37548,0,0,1-.94531,2.99256,5.56666,5.56666,0,0,1-2.46,1.58239l-.62989.21009a.26667.26667,0,0,1-.10546.015.26891.26891,0,0,1-.26954-.285v-.66c0-.17993.10938-.31494.33008-.405l.585-.225a3.45737,3.45737,0,0,0,1.58985-1.125,3.54663,3.54663,0,0,0,.55468-2.16,4.22325,4.22325,0,0,0-.24023-1.58239,1.52756,1.52756,0,0,0-.78711-.83252,3.64075,3.64075,0,0,0-1.50781-.255h-.50977l-1.37988-.015a.34958.34958,0,0,1-.24707-.09.30964.30964,0,0,1-.09766-.24V9.28576a.33387.33387,0,0,1,.34473-.345h.59961a.31013.31013,0,0,1,.24023.09754.34832.34832,0,0,1,.08985.24743v1.74h1.15527A5.0213,5.0213,0,0,1,139.63988,11.41577Z"/><path class="d" d="M143.23949,19.49328a.33359.33359,0,0,1-.09766-.24743v-7.875a.32826.32826,0,0,1,.09766-.255.34913.34913,0,0,1,.24707-.09009h2.87988a3.97759,3.97759,0,0,1,2.87988.92249,3.70482,3.70482,0,0,1,.94532,2.76758v4.53a.33387.33387,0,0,1-.34473.345H149.217a.33392.33392,0,0,1-.34571-.345V14.76074a2.28022,2.28022,0,0,0-2.58007-2.58h-1.8291v7.06507a.33392.33392,0,0,1-.34571.345h-.62988A.3334.3334,0,0,1,143.23949,19.49328Z"/><path class="d" d="M163.75121,14.68579v4.56006a.33387.33387,0,0,1-.34473.345h-.62988a.33238.33238,0,0,1-.34473-.345V14.76074a2.28061,2.28061,0,0,0-2.58008-2.58h-1.08007q-.15088.945-.21778,1.56751a11.353,11.353,0,0,0-.05273,1.41748l.03027,4.08008a.33387.33387,0,0,1-.34473.345l-2.085-.03a.33392.33392,0,0,1-.3457-.345v-.45008a.33392.33392,0,0,1,.3457-.345l1.1543.015v-3.21q-.01466-.945.03809-1.59754a9.16025,9.16025,0,0,1,.24707-1.44751h-.80957a.35206.35206,0,0,1-.24805-.09.31288.31288,0,0,1-.09766-.24v-.48a.33172.33172,0,0,1,.09766-.255.35156.35156,0,0,1,.24805-.09009h3.21Q163.7517,11.02575,163.75121,14.68579Z"/><path class="d" d="M172.81078,19.29077a.30749.30749,0,0,1-.29981.30005h-.6748a.38882.38882,0,0,1-.29981-.11255q-.10547-.11242-.12011-.12744l-3.41993-4.81507a2.3568,2.3568,0,0,0-.87792,1.10254,4.0599,4.0599,0,0,0-.23243,1.40247v2.20508a.33385.33385,0,0,1-.34472.345h-.55567a.33385.33385,0,0,1-.34472-.345v-2.265a5.07786,5.07786,0,0,1,.33789-1.93506,3.37867,3.37867,0,0,1,1.32715-1.485l-1.39454-1.95a.55527.55527,0,0,1-.10546-.285.30747.30747,0,0,1,.2998-.3h.66016a.51286.51286,0,0,1,.41992.255l3.15039,4.395a2.49621,2.49621,0,0,0,.78711-.66,1.68382,1.68382,0,0,0,.30762-.68249,5.18122,5.18122,0,0,0,.06054-.87744v-2.085a.33239.33239,0,0,1,.34473-.3451h.585a.33387.33387,0,0,1,.34473.3451v2.14489a3.97019,3.97019,0,0,1-.35254,1.74756,3.44185,3.44185,0,0,1-1.417,1.35755l1.71,2.38488A.46106.46106,0,0,1,172.81078,19.29077Z"/><path class="d" d="M182.73363,19.49328a.33359.33359,0,0,1-.09766-.24743V14.76074a2.28061,2.28061,0,0,0-2.58007-2.58h-1.93458a.352.352,0,0,1-.248-.09.31215.31215,0,0,1-.09668-.24v-.48a.33239.33239,0,0,1,.34472-.3451h2.02442q3.81006,0,3.81055,3.66v4.56006a.33387.33387,0,0,1-.34473.345h-.63086A.33494.33494,0,0,1,182.73363,19.49328Z"/><path class="d" d="M186.19847,16.0133a.33368.33368,0,0,1-.09765-.24756V11.37085a.32825.32825,0,0,1,.09765-.255.35156.35156,0,0,1,.24805-.09009h.65918a.33391.33391,0,0,1,.3457.3451v4.39489a.33391.33391,0,0,1-.3457.3451h-.65918A.33564.33564,0,0,1,186.19847,16.0133Z"/><path class="d" d="M189.76879,19.49328a.33359.33359,0,0,1-.09766-.24743v-.49512a.32814.32814,0,0,1,.09766-.25488.34913.34913,0,0,1,.24707-.09009h2.1455a2.51039,2.51039,0,0,0,1.91993-.65991,2.93739,2.93739,0,0,0,.6748-1.92005q.01466-.20983.01465-.525,0-.29992-.01465-.51a2.84653,2.84653,0,0,0-.668-1.92749,2.55221,2.55221,0,0,0-1.92676-.65247h-2.1455a.33385.33385,0,0,1-.34473-.345v-.495a.32826.32826,0,0,1,.09766-.255.34913.34913,0,0,1,.24707-.09009h2.21972a3.77592,3.77592,0,0,1,2.82813.95252,4.00149,4.00149,0,0,1,.98242,2.75256q.01466.21021.01465.57,0,.36-.01465.585a4.001,4.001,0,0,1-.98242,2.75256,3.775,3.775,0,0,1-2.82813.95252h-2.21972A.3334.3334,0,0,1,189.76879,19.49328Z"/><path class="d" d="M198.04808,16.0133a.33368.33368,0,0,1-.09765-.24756V11.37085a.32825.32825,0,0,1,.09765-.255.35156.35156,0,0,1,.24805-.09009h.65918a.33391.33391,0,0,1,.3457.3451v4.39489a.33391.33391,0,0,1-.3457.3451h-.65918A.33564.33564,0,0,1,198.04808,16.0133Z"/><path class="d" d="M207.19066,12.18078h-2.20508a.30946.30946,0,0,1-.33008-.33v-.48a.35319.35319,0,0,1,.08985-.24756.313.313,0,0,1,.24023-.09754h2.28028a4.04139,4.04139,0,0,1,2.87988.9,3.64818,3.64818,0,0,1,.94531,2.76v6.42a.33389.33389,0,0,1-.3457.345h-.62988a.34962.34962,0,0,1-.24707-.09.32862.32862,0,0,1-.09766-.255V14.76074A2.28061,2.28061,0,0,0,207.19066,12.18078Z"/><path class="d" d="M213.33324,16.0133a.33368.33368,0,0,1-.09766-.24756V11.37085a.32826.32826,0,0,1,.09766-.255.34913.34913,0,0,1,.24707-.09009h.66016a.33386.33386,0,0,1,.34472.3451v4.39489a.33386.33386,0,0,1-.34472.3451h-.66016A.3334.3334,0,0,1,213.33324,16.0133Z"/><path class="d" d="M220.99047,19.29077a.27259.27259,0,0,1-.09766.21753.34888.34888,0,0,1-.23242.08252H216.6555a.33392.33392,0,0,1-.3457-.345v-.48011a.33392.33392,0,0,1,.3457-.345h2.95508l-.24023-3.80993q-.07471-.975-.15723-1.4325a1.36331,1.36331,0,0,0-.36816-.74255,1.20709,1.20709,0,0,0-.88477-.285H217.345a.349.349,0,0,1-.24707-.09.30948.30948,0,0,1-.09766-.24v-.48a.33367.33367,0,0,1,.34473-.345h.61523a2.75034,2.75034,0,0,1,1.65723.42749,2.1649,2.1649,0,0,1,.79492,1.17749,9.286,9.286,0,0,1,.293,1.965l.28516,4.68006Z"/><path class="d" d="M222.99242,19.49328a.33359.33359,0,0,1-.09766-.24743v-7.875a.32826.32826,0,0,1,.09766-.255.35156.35156,0,0,1,.248-.09009h2.87988a3.97759,3.97759,0,0,1,2.87988.92249,3.70486,3.70486,0,0,1,.94531,2.76758v4.53a.3339.3339,0,0,1-.3457.345H228.97a.33387.33387,0,0,1-.34473-.345V14.76074a2.28061,2.28061,0,0,0-2.58008-2.58h-1.83008v7.06507a.33385.33385,0,0,1-.34472.345h-.62988A.33564.33564,0,0,1,222.99242,19.49328Z"/><path class="d" d="M237.99242,19.49328a.33359.33359,0,0,1-.09766-.24743V14.76074a2.27347,2.27347,0,0,0-2.56445-2.58h-2.79a.35206.35206,0,0,1-.24805-.09.30948.30948,0,0,1-.09765-.24v-.48a.32825.32825,0,0,1,.09765-.255.35156.35156,0,0,1,.24805-.09009h2.86426q3.81006,0,3.81054,3.69007v4.53a.33385.33385,0,0,1-.34472.345h-.63086A.3334.3334,0,0,1,237.99242,19.49328Zm-5.7002,0a.33358.33358,0,0,1-.09765-.24743v-5.04a.33371.33371,0,0,1,.3457-.345h.62988a.33367.33367,0,0,1,.34473.345v5.04a.33387.33387,0,0,1-.34473.345h-.62988A.33564.33564,0,0,1,232.29222,19.49328Z"/></svg>