<svg xmlns="http://www.w3.org/2000/svg" viewBox="0 0 282.1893 349.30851"><defs><style>.a{fill:#4e4e75;}.b{fill:#446;}.c{fill:#383856;}.d{fill:#1d1d1b;}.e,.i{fill:none;stroke-width:3px;}.e{stroke:#696987;stroke-miterlimit:10;}.f{fill:#8585a6;}.g{fill:#53537a;}.h{fill:#696987;}.i{stroke:#383856;stroke-linecap:round;stroke-linejoin:round;}.j{fill:#7b7b9b;}</style></defs><path class="a" d="M277.19422,344.70561c-5.78,5.6499-9.09,4.75-14.11,3.43017a37.4147,37.4147,0,0,0-10.31-1.57031c-12.45,0-12.45-.93945-24.9-.93945-12.45,0-12.45.22949-24.9.22949s-12.45.55029-24.9.55029c-12.45,0-12.45-1.33007-24.9-1.33007-12.46,0-12.46.27-24.91.27-12.45,0-12.45-.33984-24.9-.33984-12.46,0-12.46,1.02-24.91,1.02s-12.45-.51025-24.9-.51025c-12.46,0-12.46.68017-24.91.68017-12.46,0-15.98,7.68994-24.89-1.01025-8.71-8.5.46-12.13965.46-24.30957,0-12.16016-1.68994-12.16016-1.68994-24.32031s2.78-12.16016,2.78-24.31983c0-12.17041-1.11-12.17041-1.11-24.33008,0-12.16015-.19-12.16015-.19-24.31982,0-12.16016-1.1-12.16016-1.1-24.32031,0-12.16993.07-12.16993.07-24.33008,0-12.15967.97-12.15967.97-24.31983,0-12.16992-1.12-12.16992-1.12-24.33007,0-12.15967.46-12.15967.46-24.33008,0-12.15967-.09-12.15967-.09-24.31983,0-12.16992,1.93-12.16992,1.93-24.33007,0-12.16993-2.73-12.16993-2.73-24.33008,0-12.16992-6.52-14.96973,2.18-23.46973,8.91-8.70019,11.61.34961,24.06.34961s12.45-1.87988,24.9-1.87988c12.45,0,12.45,1.1001,24.9,1.1001s12.45-2.08985,24.9-2.08985c12.45,0,12.45-.04,24.9-.04s12.45.83008,24.91.83008c12.45,0,12.45-.21045,24.9-.21045s12.45.39014,24.91.39014c12.45,0,12.45,1.18017,24.9,1.18017,12.46,0,12.46-2.04,24.91-2.04a33.65283,33.65283,0,0,0,8.37006-1.10009c6.38995-1.60987,10.06-3.77,16.59,2.60009,8.7,8.5-.13,12.21-.13,24.37012s.8,12.16016.8,24.31983c0,12.16992-.9,12.16992-.9,24.33007s.15,12.16016.15,24.31983c0,12.16015-.13,12.16015-.13,24.33008,0,12.16015-1.29,12.16015-1.29,24.32031,0,12.15967.08,12.15967.08,24.31982,0,12.15967,2.93,12.15967,2.93,24.33008,0,12.15967-1.18,12.15967-1.18,24.31983,0,12.16992.1,12.16992.1,24.33007s1.22,12.16016,1.22,24.33008c0,12.16016-3.21,12.16016-3.21,24.31983,0,12.16992-.11,12.25,2.36,24.16015C281.1042,333.16557,285.89418,336.20561,277.19422,344.70561Z"/><path class="b" d="M50.57264,326.60376c-4.03981,3.919-6.24621-1.43862-11.87462-1.43861-5.63228,0-5.63228,1.51338-11.26455,1.51338s-7.51243,3.51-11.55816-.40846c-3.9185-3.79526-.46005-5.75829-.46005-11.21343,0-5.45417.863-5.45417.863-10.90834,0-5.45468-1.57157-5.45468-1.57157-10.90937,0-5.45479.49536-5.45479.49536-10.90958,0-5.45439,1.60932-5.45439,1.60932-10.90879,0-5.45489-1.32654-5.45489-1.32654-10.90978,0-5.45543,2.191-5.45543,2.191-10.91086,0-5.45493-.49536-5.45493-.49536-10.90985,0-5.45248-1.535-5.45248-1.535-10.905,0-5.45357.96172-5.45357.96172-10.90714,0-5.4532,1.05085-5.4532,1.05085-10.9064,0-5.45476-2.48294-5.45476-2.48294-10.90952,0-5.4534.73721-5.4534.73721-10.9068,0-5.45494,1.17252-5.45494,1.17252-10.90988,0-5.45578-2.0065-5.45578-2.0065-10.91157,0-5.455-.20755-5.455-.20755-10.90993,0-5.45507.73693-5.45507.73693-10.91014,0-5.45569,1.19285-5.45569,1.19285-10.91139,0-5.45655-.78895-5.45655-.78895-10.9131,0-5.45562-.35243-5.45562-.35243-10.91125,0-5.45618.27756-5.45618.27756-10.91236,0-5.45473,1.66238-5.45473,1.66238-10.90946,0-5.45483-.96247-5.45483-.96247-10.90965,0-5.45624.61815-5.45624.61815-10.91247,0-5.45813-.08112-5.45813-.08112-10.91627,0-5.4564-1.19918-5.4564-1.19918-10.9128,0-5.46015-.05408-5.46015-.05408-10.9203s-4.72173-8.202-.80268-12.0039c4.03981-3.919,6.67961.12286,12.308.12286,5.63228,0,5.63228.35355,11.26455.35355s8.16414-4.28732,12.20987-.36883c3.91849,3.79526-1.28539,6.43115-1.28539,11.88629,0,5.45418-.88592,5.45418-.88592,10.90835,0,5.45468.06564,5.45468.06564,10.90936,0,5.45479.596,5.45479.596,10.90959,0,5.45439.28782,5.45439.28781,10.90878,0,5.45489,1.08265,5.45489,1.08265,10.90979,0,5.45543-1.80251,5.45543-1.80251,10.91086,0,5.45492,1.98777,5.45492,1.98777,10.90985,0,5.45248-1.52449,5.45248-1.52449,10.905,0,5.45357.81217,5.45357.81217,10.90713,0,5.4532-1.74535,5.4532-1.74535,10.9064,0,5.45476.87668,5.45476.87668,10.90952,0,5.4534,1.54341,5.4534,1.54341,10.9068,0,5.45494-.34655,5.45494-.34655,10.90988,0,5.45579-.82867,5.45579-.82867,10.91158,0,5.455,1.1121,5.455,1.1121,10.90993,0,5.45506-.45965,5.45506-.45965,10.91013,0,5.4557-1.52849,5.4557-1.52849,10.91139,0,5.45655,2.59874,5.45655,2.59874,10.9131,0,5.45563-2.45189,5.45563-2.45189,10.91125,0,5.45618,2.085,5.45618,2.085,10.91236,0,5.45473-1.9791,5.45473-1.9791,10.90947,0,5.45482-.51139,5.45482-.51139,10.90965,0,5.45623,2.37506,5.45623,2.37506,10.91247,0,5.45813-2.31959,5.45813-2.31959,10.91626,0,5.4564,1.10987,5.4564,1.10987,10.9128,0,5.46015-2.21211,5.88507-.92317,11.1909C50.30333,321.337,54.49168,322.80187,50.57264,326.60376Z"/><circle class="c" cx="32.87469" cy="285.84421" r="13.12529"/><path class="d" d="M23.59371,276.5632a13.12373,13.12373,0,0,0-3.77186,9.28125,12.87167,12.87167,0,0,0,13.05284,12.69824A12.87517,12.87517,0,0,0,45.572,285.84445a12.8752,12.8752,0,0,0-12.69727-13.05274A13.12314,13.12314,0,0,0,23.59371,276.5632Zm0,0a13.19571,13.19571,0,0,1,9.281-3.917A13.37177,13.37177,0,0,1,46.428,285.84445,13.383,13.383,0,0,1,32.87469,299.3962,13.37527,13.37527,0,0,1,19.677,285.84445,13.19628,13.19628,0,0,1,23.59371,276.5632Z"/><path class="e" d="M33.36055,292.52909a.43213.43213,0,0,1-.13477-.31506v-1.98H27.6457a.46186.46186,0,0,1-.45019-.45007v-1.81787a.908.908,0,0,1,.19824-.54l5.21972-7.056a.82066.82066,0,0,1,.666-.306h2.73633a.47162.47162,0,0,1,.333.126.42432.42432,0,0,1,.13476.3241V287.444h1.584a.44714.44714,0,0,1,.46826.45007v1.8899a.44754.44754,0,0,1-.12647.31506.42307.42307,0,0,1-.32373.135h-1.602v1.98a.423.423,0,0,1-.13476.324.47014.47014,0,0,1-.333.12609H33.67549A.43126.43126,0,0,1,33.36055,292.52909Zm-2.96094-4.959h2.89795v-4.05Z"/><path class="f" d="M33.36055,292.52909a.43213.43213,0,0,1-.13477-.31506v-1.98H27.6457a.46186.46186,0,0,1-.45019-.45007v-1.81787a.908.908,0,0,1,.19824-.54l5.21972-7.056a.82066.82066,0,0,1,.666-.306h2.73633a.47162.47162,0,0,1,.333.126.42432.42432,0,0,1,.13476.3241V287.444h1.584a.44714.44714,0,0,1,.46826.45007v1.8899a.44754.44754,0,0,1-.12647.31506.42307.42307,0,0,1-.32373.135h-1.602v1.98a.423.423,0,0,1-.13476.324.47014.47014,0,0,1-.333.12609H33.67549A.43126.43126,0,0,1,33.36055,292.52909Zm-2.96094-4.959h2.89795v-4.05Z"/><path class="d" d="M32.86055,291.52909a.43213.43213,0,0,1-.13477-.31506v-1.98H27.1457a.46186.46186,0,0,1-.45019-.45007v-1.81787a.908.908,0,0,1,.19824-.54l5.21972-7.056a.82066.82066,0,0,1,.666-.306h2.73633a.47162.47162,0,0,1,.333.126.42432.42432,0,0,1,.13476.3241V286.444h1.584a.44714.44714,0,0,1,.46826.45007v1.8899a.44754.44754,0,0,1-.12647.31506.42307.42307,0,0,1-.32373.135h-1.602v1.98a.423.423,0,0,1-.13476.324.47014.47014,0,0,1-.333.12609H33.17549A.43126.43126,0,0,1,32.86055,291.52909Zm-2.96094-4.959h2.89795v-4.05Z"/><circle class="c" cx="32.87469" cy="206.04796" r="13.12529"/><path class="d" d="M23.59371,196.76681a13.12375,13.12375,0,0,0-3.77186,9.28125,12.87251,12.87251,0,0,0,13.05284,12.69873A12.87516,12.87516,0,0,0,45.572,206.04806a12.87437,12.87437,0,0,0-12.69727-13.05225A13.12267,13.12267,0,0,0,23.59371,196.76681Zm0,0a13.1957,13.1957,0,0,1,9.281-3.917A13.3726,13.3726,0,0,1,46.428,206.04806a13.383,13.383,0,0,1-13.55332,13.55176A13.37447,13.37447,0,0,1,19.677,206.04806,13.19628,13.19628,0,0,1,23.59371,196.76681Z"/><path class="e" d="M30.18574,213.2006a4.24142,4.24142,0,0,1-1.76367-1.359,3.05609,3.05609,0,0,1-.603-1.62.35152.35152,0,0,1,.1167-.27.3988.3988,0,0,1,.2793-.108h2.48388a.62659.62659,0,0,1,.3418.08105.78264.78264,0,0,1,.23438.261q.34131.8822,1.88964.88208a2.0464,2.0464,0,0,0,1.36817-.41406,1.3896,1.3896,0,0,0,.48584-1.116q0-1.35-1.79981-1.35H31.20283a.46072.46072,0,0,1-.46777-.468v-1.062a.67719.67719,0,0,1,.30566-.61193l2.89844-2.3761H28.9709a.46188.46188,0,0,1-.4502-.45v-1.782a.46794.46794,0,0,1,.12647-.333.42161.42161,0,0,1,.32373-.135h8.38818a.42307.42307,0,0,1,.32373.135.46967.46967,0,0,1,.126.333v1.60193a.702.702,0,0,1-.28809.594l-2.66357,2.43.126.036a4.672,4.672,0,0,1,2.57373,1.116,3.28468,3.28468,0,0,1,.95411,2.538,3.39142,3.39142,0,0,1-.69288,2.11511,4.37849,4.37849,0,0,1-1.9082,1.3949,7.38812,7.38812,0,0,1-2.76269.486A7.08991,7.08991,0,0,1,30.18574,213.2006Z"/><path class="f" d="M30.18574,213.2006a4.24142,4.24142,0,0,1-1.76367-1.359,3.05609,3.05609,0,0,1-.603-1.62.35152.35152,0,0,1,.1167-.27.3988.3988,0,0,1,.2793-.108h2.48388a.62659.62659,0,0,1,.3418.08105.78264.78264,0,0,1,.23438.261q.34131.8822,1.88964.88208a2.0464,2.0464,0,0,0,1.36817-.41406,1.3896,1.3896,0,0,0,.48584-1.116q0-1.35-1.79981-1.35H31.20283a.46072.46072,0,0,1-.46777-.468v-1.062a.67719.67719,0,0,1,.30566-.61193l2.89844-2.3761H28.9709a.46188.46188,0,0,1-.4502-.45v-1.782a.46794.46794,0,0,1,.12647-.333.42161.42161,0,0,1,.32373-.135h8.38818a.42307.42307,0,0,1,.32373.135.46967.46967,0,0,1,.126.333v1.60193a.702.702,0,0,1-.28809.594l-2.66357,2.43.126.036a4.672,4.672,0,0,1,2.57373,1.116,3.28468,3.28468,0,0,1,.95411,2.538,3.39142,3.39142,0,0,1-.69288,2.11511,4.37849,4.37849,0,0,1-1.9082,1.3949,7.38812,7.38812,0,0,1-2.76269.486A7.08991,7.08991,0,0,1,30.18574,213.2006Z"/><path class="d" d="M29.68574,212.2006a4.24142,4.24142,0,0,1-1.76367-1.359,3.05609,3.05609,0,0,1-.603-1.62.35152.35152,0,0,1,.1167-.27.3988.3988,0,0,1,.2793-.108h2.48388a.62659.62659,0,0,1,.3418.08105.78264.78264,0,0,1,.23438.261q.34131.8822,1.88964.88208a2.0464,2.0464,0,0,0,1.36817-.41406,1.3896,1.3896,0,0,0,.48584-1.116q0-1.35-1.79981-1.35H30.70283a.46072.46072,0,0,1-.46777-.468v-1.062a.67719.67719,0,0,1,.30566-.61193l2.89844-2.3761H28.4709a.46188.46188,0,0,1-.4502-.45v-1.782a.46794.46794,0,0,1,.12647-.333.42161.42161,0,0,1,.32373-.135h8.38818a.42307.42307,0,0,1,.32373.135.46967.46967,0,0,1,.126.333v1.60193a.702.702,0,0,1-.28809.594l-2.66357,2.43.126.036a4.672,4.672,0,0,1,2.57373,1.116,3.28468,3.28468,0,0,1,.95411,2.538,3.39142,3.39142,0,0,1-.69288,2.11511,4.37849,4.37849,0,0,1-1.9082,1.3949,7.38812,7.38812,0,0,1-2.76269.486A7.08991,7.08991,0,0,1,29.68574,212.2006Z"/><circle class="c" cx="32.87469" cy="126.83023" r="13.12529"/><path class="d" d="M23.59371,117.549a13.12372,13.12372,0,0,0-3.77186,9.28125A12.87251,12.87251,0,0,0,32.87469,139.529,12.87516,12.87516,0,0,0,45.572,126.83029,12.87437,12.87437,0,0,0,32.87469,113.778,13.12267,13.12267,0,0,0,23.59371,117.549Zm0,0a13.19571,13.19571,0,0,1,9.281-3.917A13.37262,13.37262,0,0,1,46.428,126.83029,13.383,13.383,0,0,1,32.87469,140.382,13.37445,13.37445,0,0,1,19.677,126.83029,13.19628,13.19628,0,0,1,23.59371,117.549Z"/><path class="e" d="M28.215,133.76213a.43235.43235,0,0,1-.13526-.315v-1.35a1.10779,1.10779,0,0,1,.4502-.9l1.67383-1.638q1.71019-1.296,2.583-2.016a8.88929,8.88929,0,0,0,1.332-1.305,1.82788,1.82788,0,0,0,.459-1.107,1.17733,1.17733,0,0,0-1.332-1.332,1.373,1.373,0,0,0-1.07959.423,2.18623,2.18623,0,0,0-.5044,1.053.55191.55191,0,0,1-.61181.414H28.674a.37932.37932,0,0,1-.27881-.117.35873.35873,0,0,1-.11718-.261,4.12639,4.12639,0,0,1,.65673-2.151,4.36812,4.36812,0,0,1,1.73731-1.53,5.60506,5.60506,0,0,1,2.57373-.567,6.41567,6.41567,0,0,1,2.61035.486,3.54688,3.54688,0,0,1,2.23193,3.42005,3.74713,3.74713,0,0,1-.80127,2.34,12.54871,12.54871,0,0,1-2.439,2.268l-1.49365,1.494h4.55371a.43152.43152,0,0,1,.45019.45v1.926a.44908.44908,0,0,1-.126.315.42492.42492,0,0,1-.32422.135H28.53A.4313.4313,0,0,1,28.215,133.76213Z"/><path class="f" d="M28.215,133.76213a.43235.43235,0,0,1-.13526-.315v-1.35a1.10779,1.10779,0,0,1,.4502-.9l1.67383-1.638q1.71019-1.296,2.583-2.016a8.88929,8.88929,0,0,0,1.332-1.305,1.82788,1.82788,0,0,0,.459-1.107,1.17733,1.17733,0,0,0-1.332-1.332,1.373,1.373,0,0,0-1.07959.423,2.18623,2.18623,0,0,0-.5044,1.053.55191.55191,0,0,1-.61181.414H28.674a.37932.37932,0,0,1-.27881-.117.35873.35873,0,0,1-.11718-.261,4.12639,4.12639,0,0,1,.65673-2.151,4.36812,4.36812,0,0,1,1.73731-1.53,5.60506,5.60506,0,0,1,2.57373-.567,6.41567,6.41567,0,0,1,2.61035.486,3.54688,3.54688,0,0,1,2.23193,3.42005,3.74713,3.74713,0,0,1-.80127,2.34,12.54871,12.54871,0,0,1-2.439,2.268l-1.49365,1.494h4.55371a.43152.43152,0,0,1,.45019.45v1.926a.44908.44908,0,0,1-.126.315.42492.42492,0,0,1-.32422.135H28.53A.4313.4313,0,0,1,28.215,133.76213Z"/><path class="d" d="M27.715,132.76213a.43235.43235,0,0,1-.13526-.315v-1.35a1.10779,1.10779,0,0,1,.4502-.9l1.67383-1.638q1.71019-1.296,2.583-2.016a8.88929,8.88929,0,0,0,1.332-1.305,1.82788,1.82788,0,0,0,.459-1.107,1.17733,1.17733,0,0,0-1.332-1.332,1.373,1.373,0,0,0-1.07959.423,2.18623,2.18623,0,0,0-.5044,1.053.55191.55191,0,0,1-.61181.414H28.174a.37932.37932,0,0,1-.27881-.117.35873.35873,0,0,1-.11718-.261,4.12639,4.12639,0,0,1,.65673-2.151,4.36812,4.36812,0,0,1,1.73731-1.53,5.60506,5.60506,0,0,1,2.57373-.567,6.41567,6.41567,0,0,1,2.61035.486,3.54688,3.54688,0,0,1,2.23193,3.42005,3.74713,3.74713,0,0,1-.80127,2.34,12.54871,12.54871,0,0,1-2.439,2.268l-1.49365,1.494h4.55371a.43152.43152,0,0,1,.45019.45v1.926a.44908.44908,0,0,1-.126.315.42492.42492,0,0,1-.32422.135H28.03A.4313.4313,0,0,1,27.715,132.76213Z"/><circle class="c" cx="32.87469" cy="53.0038" r="13.12529"/><path class="d" d="M23.59371,43.72286a13.12261,13.12261,0,0,0-3.77186,9.28077A12.87251,12.87251,0,0,0,32.87469,65.70236,12.87516,12.87516,0,0,0,45.572,53.00363,12.87519,12.87519,0,0,0,32.87469,39.95138,13.12318,13.12318,0,0,0,23.59371,43.72286Zm0,0a13.19622,13.19622,0,0,1,9.281-3.91748A13.37262,13.37262,0,0,1,46.428,53.00363,13.383,13.383,0,0,1,32.87469,66.55587,13.37528,13.37528,0,0,1,19.677,53.00363,13.19606,13.19606,0,0,1,23.59371,43.72286Z"/><path class="e" d="M32.37568,60.23167a.432.432,0,0,1-.13476-.315v-8.424l-2.41211,1.854a.514.514,0,0,1-.27.09.46681.46681,0,0,1-.37793-.216l-1.11621-1.44a.53572.53572,0,0,1-.07178-.27.46357.46357,0,0,1,.19775-.396l4.17627-3.222a.70431.70431,0,0,1,.41407-.126h2.376a.47138.47138,0,0,1,.333.126.424.424,0,0,1,.13477.324v11.7a.423.423,0,0,1-.13477.324.47.47,0,0,1-.333.126H32.69062A.43184.43184,0,0,1,32.37568,60.23167Z"/><path class="f" d="M32.37568,60.23167a.432.432,0,0,1-.13476-.315v-8.424l-2.41211,1.854a.514.514,0,0,1-.27.09.46681.46681,0,0,1-.37793-.216l-1.11621-1.44a.53572.53572,0,0,1-.07178-.27.46357.46357,0,0,1,.19775-.396l4.17627-3.222a.70431.70431,0,0,1,.41407-.126h2.376a.47138.47138,0,0,1,.333.126.424.424,0,0,1,.13477.324v11.7a.423.423,0,0,1-.13477.324.47.47,0,0,1-.333.126H32.69062A.43184.43184,0,0,1,32.37568,60.23167Z"/><path class="d" d="M31.87568,59.23167a.432.432,0,0,1-.13476-.315v-8.424l-2.41211,1.854a.514.514,0,0,1-.27.09.46681.46681,0,0,1-.37793-.216l-1.11621-1.44a.53572.53572,0,0,1-.07178-.27.46357.46357,0,0,1,.19775-.396l4.17627-3.222a.70431.70431,0,0,1,.41407-.126h2.376a.47138.47138,0,0,1,.333.126.424.424,0,0,1,.13477.324v11.7a.423.423,0,0,1-.13477.324.47.47,0,0,1-.333.126H32.19062A.43184.43184,0,0,1,31.87568,59.23167Z"/><path class="g" d="M55.025,275.17661c-4.52006-3.65359-4.22677-8.37653.29183-12.03193,5.58566-4.5186,7.20346-.04519,14.388-.04519,7.18563,0,7.18563.88265,14.37127.88265,7.18456,0,7.18456-1.64666,14.36912-1.64666,7.18469,0,7.18469,1.71982,14.36938,1.71982,7.18552,0,7.18552-.04691,14.371-.04691,7.18665,0,7.18665-1.78556,14.37329-1.78556,7.18543,0,7.18543,1.95189,14.37085,1.95189,7.18616,0,7.18616-1.35663,14.37232-1.35663,7.18635,0,7.18635-.425,14.3727-.425,7.18721,0,7.18721,1.24116,14.37442,1.24116,7.18524,0,7.18524-.49188,14.37048-.49188,7.18774,0,7.18774,1.00752,14.37548,1.00752,7.18546,0,7.18546-1.29716,14.37093-1.29716,7.1904,0,7.1904.54,14.38079.54s8.787-4.74243,14.379-.22237c4.52007,3.65359,5.117,8.70394.59841,12.35934-5.58566,4.5186-7.78113-.03379-14.96566-.03379-7.18564,0-7.18564-.15521-14.37127-.15521-7.18456,0-7.18456-1.46836-14.36912-1.46835-7.18469,0-7.18469.40306-14.36938.40306-7.18552,0-7.18552-.235-14.371-.235-7.18665,0-7.18665-.07323-14.37329-.07323-7.18543,0-7.18543.83112-14.37086.83112-7.18615,0-7.18615.29885-14.37231.29885-7.18635,0-7.18635-1.32118-14.3727-1.32118-7.18721,0-7.18721.12929-14.37442.12929-7.18524,0-7.18524,1.19491-14.37048,1.19491-7.18774,0-7.18774.65414-14.37548.65414-7.18547,0-7.18547-1.40967-14.37093-1.40967-7.1904,0-7.45183-1.547-14.49032-.07678C62.02359,275.85181,60.617,279.69668,55.025,275.17661Z"/><path class="g" d="M55.84182,310.32174c-4.52006-3.65359-4.84812-7.12434-.32951-10.77973,5.58566-4.51861,7.008.82379,14.1925.82379,7.18563,0,7.18563-1.76891,14.37127-1.76891,7.18456,0,7.18456.65078,14.36912.65078,7.18469,0,7.18469.38148,14.36938.38148,7.18552,0,7.18552-.54643,14.371-.54643,7.18665,0,7.18665.804,14.37329.804,7.18543,0,7.18543-.53459,14.37085-.53459,7.18616,0,7.18616.44768,14.37232.44768,7.18635,0,7.18635-.97674,14.3727-.97674,7.18721,0,7.18721-.07954,14.37442-.07954,7.18524,0,7.18524.8029,14.37048.8029,7.18774,0,7.18774-.82041,14.37548-.82041,7.18546,0,7.18546-.28864,14.37093-.28864,7.1904,0,7.1904.642,14.38079.642s9.26113-4.86006,14.85316-.34c4.52007,3.65359,4.44936,9.05136-.06924,12.70675-5.58566,4.51861-7.58764-1.06109-14.77217-1.06109-7.18564,0-7.18564.88772-14.37127.88772-7.18456,0-7.18456-.30858-14.36912-.30858-7.18469,0-7.18469.76921-14.36938.76921-7.18552,0-7.18552-.00059-14.371-.00059-7.18665,0-7.18665-1.41408-14.37329-1.41408-7.18543,0-7.18543,1.163-14.37086,1.163-7.18615,0-7.18615-1.4625-14.37231-1.4625-7.18635,0-7.18635.59848-14.3727.59848-7.18721,0-7.18721,1.07983-14.37442,1.07983-7.18524,0-7.18524.105-14.37048.105-7.18774,0-7.18774-.76764-14.37548-.76764-7.18547,0-7.18547-1.11418-14.37093-1.11418-7.1904,0-7.39721-.78976-14.48377.42783C62.42772,311.58315,61.43386,314.84181,55.84182,310.32174Z"/><path class="g" d="M55.14953,193.98961c-4.52007-3.65359-3.67523-7.38672.84338-11.04212,5.58566-4.51861,6.52737-.04039,13.7119-.04039,7.18563,0,7.18563-.22055,14.37127-.22055,7.18456,0,7.18456-.136,14.36912-.136,7.18469,0,7.18469.38234,14.36938.38234,7.18552,0,7.18552-.37339,14.371-.37339,7.18665,0,7.18665-.0104,14.37329-.0104,7.18543,0,7.18543-1.0974,14.37085-1.0974,7.18616,0,7.18616,1.28459,14.37232,1.28459,7.18635,0,7.18635-.5559,14.3727-.5559,7.18721,0,7.18721-.66809,14.37442-.66809,7.18524,0,7.18524,1.56744,14.37048,1.56744,7.18774,0,7.18774.02349,14.37548.02349,7.18546,0,7.18546-1.02252,14.37093-1.02252,7.1904,0,7.1904.374,14.38079.374s9.38418-5.57628,14.97621-1.05621c4.52007,3.65359,4.03909,8.84853-.47952,12.50393-5.58566,4.51861-7.30041-.30857-14.48494-.30857-7.18564,0-7.18564-.25226-14.37127-.25225-7.18456,0-7.18456-.43136-14.36912-.43136-7.18469,0-7.18469.29726-14.36938.29726-7.18552,0-7.18552.28148-14.371.28148-7.18665,0-7.18665-.63539-14.37329-.63539-7.18543,0-7.18543,1.87458-14.37086,1.87458-7.18615,0-7.18615-1.2838-14.37231-1.2838-7.18635,0-7.18635-.22713-14.3727-.22713-7.18721,0-7.18721-.05349-14.37442-.05349-7.18524,0-7.18524.97272-14.37048.97272-7.18774,0-7.18774-.183-14.37548-.183-7.18547,0-7.18547-.1079-14.37093-.1079-7.1904,0-7.12709-.499-14.17322.93412C62.40232,196.30966,60.74156,198.50967,55.14953,193.98961Z"/><path class="g" d="M54.90955,230.44217c-4.52006-3.65359-4.36189-8.82908.15671-12.48447,5.58566-4.51861,7.454-.62574,14.63855-.62574,7.18563,0,7.18563,1.19886,14.37127,1.19886,7.18456,0,7.18456.62519,14.36912.62519,7.18469,0,7.18469-.04632,14.36938-.04632,7.18552,0,7.18552-.42063,14.371-.42063,7.18665,0,7.18665-.20311,14.37329-.20311,7.18543,0,7.18543-.764,14.37085-.764,7.18616,0,7.18616,1.272,14.37232,1.272,7.18635,0,7.18635-1.40276,14.3727-1.40276,7.18721,0,7.18721,1.07583,14.37442,1.07583,7.18524,0,7.18524-.57315,14.37048-.57315,7.18774,0,7.18774,1.23169,14.37548,1.23169,7.18546,0,7.18546-.61867,14.37093-.61867,7.1904,0,7.1904-1.08918,14.38079-1.08918s9.05817-4.18024,14.65021.33983c4.52006,3.65359,4.15094,8.1805-.36767,11.83589-5.58566,4.51861-7.08626.75-14.27079.75-7.18564,0-7.18564-.32437-14.37127-.32437-7.18456,0-7.18456-1.07865-14.36912-1.07865-7.18469,0-7.18469,1.83391-14.36938,1.83391-7.18552,0-7.18552-1.73028-14.371-1.73028-7.18665,0-7.18665,1.47138-14.37329,1.47138-7.18543,0-7.18543-1.39664-14.37086-1.39664-7.18615,0-7.18615-.36089-14.37231-.36089-7.18635,0-7.18635,1.67607-14.3727,1.67607-7.18721,0-7.18721-1.63692-14.37442-1.63692-7.18524,0-7.18524.78323-14.37048.78323-7.18774,0-7.18774-.67434-14.37548-.67434-7.18547,0-7.18547-.19311-14.37093-.19311-7.1904,0-7.294-.24258-14.3253,1.26148C62.13122,231.80879,60.50159,234.96224,54.90955,230.44217Z"/><path class="g" d="M55.05047,115.08049c-4.52007-3.65359-3.78307-7.765.73553-11.42044,5.58566-4.5186,6.73428-1.55307,13.91881-1.55307,7.18563,0,7.18563.3166,14.37127.3166,7.18456,0,7.18456,1.09819,14.36912,1.09819,7.18469,0,7.18469-.517,14.36938-.517,7.18552,0,7.18552.57512,14.371.57512,7.18665,0,7.18665-.0604,14.37329-.0604,7.18543,0,7.18543-.56183,14.37085-.56183,7.18616,0,7.18616.52788,14.37232.52788,7.18635,0,7.18635-1.44559,14.3727-1.44559,7.18721,0,7.18721.28423,14.37442.28423,7.18524,0,7.18524.63,14.37048.63,7.18774,0,7.18774.49676,14.37548.49676,7.18546,0,7.18546-.50873,14.37093-.50873,7.1904,0,7.1904-.26114,14.38079-.26114s8.86282-4.18931,14.45486.33075c4.52007,3.65359,5.05006,8.80879.53145,12.46418-5.58566,4.51861-7.79-1.27509-14.97456-1.27509-7.18564,0-7.18564-.38964-14.37127-.38964-7.18456,0-7.18456.66335-14.36912.66335-7.18469,0-7.18469-.39826-14.36938-.39826-7.18552,0-7.18552.247-14.371.247-7.18665,0-7.18665-.19765-14.37329-.19764-7.18543,0-7.18543-.07718-14.37086-.07718-7.18615,0-7.18615.11034-14.37231.11034-7.18635,0-7.18635,1.00239-14.3727,1.00239-7.18721,0-7.18721.11935-14.37442.11935-7.18524,0-7.18524-1.32255-14.37048-1.32255-7.18774,0-7.18774,1.144-14.37548,1.144-7.18547,0-7.18547-1.01608-14.37093-1.01608-7.1904,0-7.24684-.36917-14.2869,1.09348C62.23965,116.7524,60.6425,119.60055,55.05047,115.08049Z"/><path class="g" d="M54.82311,151.51744c-4.52007-3.65359-4.23788-8.88957.28073-12.545,5.58566-4.51861,7.41644.86585,14.601.86585,7.18563,0,7.18563-.72829,14.37127-.72829,7.18456,0,7.18456-.55294,14.36912-.55294,7.18469,0,7.18469,1.51375,14.36938,1.51375,7.18552,0,7.18552-.43464,14.371-.43464,7.18665,0,7.18665.13126,14.37329.13126,7.18543,0,7.18543-1.51843,14.37085-1.51843,7.18616,0,7.18616,1.326,14.37232,1.326,7.18635,0,7.18635-.76849,14.3727-.76849,7.18721,0,7.18721.71342,14.37442.71342,7.18524,0,7.18524.646,14.37048.646,7.18774,0,7.18774-.17718,14.37548-.17718,7.18546,0,7.18546.03164,14.37093.03164,7.1904,0,7.1904-.1231,14.38079-.1231s8.70024-5.04872,14.29227-.52865c4.52007,3.65359,4.28927,7.4662-.22934,11.1216-5.58566,4.5186-6.86665-.19341-14.05118-.1934-7.18564,0-7.18564.6467-14.37127.6467-7.18456,0-7.18456-.91522-14.36912-.91522-7.18469,0-7.18469.75922-14.36938.75922-7.18552,0-7.18552-.44-14.371-.44-7.18665,0-7.18665.034-14.37329.034-7.18543,0-7.18543,1.47033-14.37086,1.47033-7.18615,0-7.18615-1.066-14.37231-1.066-7.18635,0-7.18635,1.0701-14.3727,1.0701-7.18721,0-7.18721-1.77477-14.37442-1.77477-7.18524,0-7.18524.2643-14.37048.2643-7.18774,0-7.18774.03356-14.37548.03356-7.18547,0-7.18547-.06718-14.37093-.06718-7.1904,0-7.43173-1.311-14.45765.21816C61.95571,152.20248,60.41514,156.03751,54.82311,151.51744Z"/><path class="g" d="M55.51139,39.4811c-4.52006-3.65359-5.31262-8.51578-.794-12.17118,5.58566-4.51861,7.8029,1.21843,14.98743,1.21843,7.18563,0,7.18563.20344,14.37127.20344,7.18456,0,7.18456.30391,14.36912.30391,7.18469,0,7.18469-.03481,14.36938-.03481,7.18552,0,7.18552-.03086,14.371-.03086,7.18665,0,7.18665.08567,14.37329.08567,7.18543,0,7.18543-.34924,14.37085-.34924,7.18616,0,7.18616-.52755,14.37232-.52755,7.18635,0,7.18635.54426,14.3727.54426,7.18721,0,7.18721-.34859,14.37442-.34859,7.18524,0,7.18524-.74414,14.37048-.74414,7.18774,0,7.18774,1.21445,14.37548,1.21445,7.18546,0,7.18546-.42938,14.37093-.42938,7.1904,0,7.1904.65565,14.38079.65565s9.15-5.96384,14.74207-1.44377c4.52006,3.65359,3.48972,7.59033-1.02889,11.24572-5.58566,4.51861-6.5169,1.0852-13.70143,1.08521-7.18564,0-7.18564-.43248-14.37127-.43248-7.18456,0-7.18456-.74454-14.36912-.74454-7.18469,0-7.18469,1.685-14.36938,1.685-7.18552,0-7.18552-1.82043-14.371-1.82043-7.18665,0-7.18665,1.3746-14.37329,1.3746-7.18543,0-7.18543-1.11655-14.37086-1.11655-7.18615,0-7.18615,1.38217-14.37231,1.38217-7.18635,0-7.18635-1.27071-14.3727-1.27071-7.18721,0-7.18721.78251-14.37442.78251-7.18524,0-7.18524.37279-14.37048.37279-7.18774,0-7.18774-.62012-14.37548-.62012-7.18547,0-7.18547.85146-14.37093.85146-7.1904,0-7.48992-2.97124-14.55764-1.64868C62.195,40.12775,61.10343,44.00116,55.51139,39.4811Z"/><path class="g" d="M55.01081,76.25608c-4.52007-3.65359-3.8832-7.9869.63541-11.6423,5.58566-4.5186,6.87406.32027,14.05859.32027,7.18563,0,7.18563-1.21708,14.37127-1.21708,7.18456,0,7.18456-.32326,14.36912-.32326,7.18469,0,7.18469,1.69285,14.36938,1.69285,7.18552,0,7.18552-1.26215,14.371-1.26215,7.18665,0,7.18665-.4836,14.37329-.4836,7.18543,0,7.18543,1.9182,14.37085,1.9182,7.18616,0,7.18616-.603,14.37232-.603,7.18635,0,7.18635.25252,14.3727.25252,7.18721,0,7.18721-1.30156,14.37442-1.30156,7.18524,0,7.18524.55268,14.37048.55268,7.18774,0,7.18774.20791,14.37548.20791,7.18546,0,7.18546-1.16741,14.37093-1.16741,7.1904,0,7.1904,1.24965,14.38079,1.24965s8.75905-4.70309,14.35109-.183c4.52006,3.65359,4.27142,7.58961-.24719,11.245-5.58566,4.5186-6.90762,1.08693-14.09215,1.08693-7.18564,0-7.18564-.37642-14.37127-.37642-7.18456,0-7.18456-.22252-14.36912-.22252-7.18469,0-7.18469.91383-14.36938.91384-7.18552,0-7.18552-1.9238-14.371-1.9238-7.18665,0-7.18665.87659-14.37329.87659-7.18543,0-7.18543.7356-14.37086.7356-7.18615,0-7.18615-.2091-14.37231-.2091-7.18635,0-7.18635-.54577-14.3727-.54577-7.18721,0-7.18721.80106-14.37442.80106-7.18524,0-7.18524-1.85609-14.37048-1.85609-7.18774,0-7.18774.41267-14.37548.41267-7.18547,0-7.18547-.06251-14.37093-.06251-7.1904,0-7.14188.19828-14.1795,1.67265C62.32738,78.40511,60.60284,80.77615,55.01081,76.25608Z"/><path class="h" d="M197.6042,345.89574V3.92574c-6.22-.08-8.46-.27-15.03-.34v342.79Z"/><rect class="i" x="178.10495" y="239.55296" width="23.74013" height="15.34839"/><rect class="j" x="182.57506" y="236.1617" width="15.0304" height="9.17771"/><rect class="i" x="178.10495" y="322.22579" width="23.74013" height="15.34839"/><rect class="j" x="182.57506" y="316.36403" width="15.0304" height="11.64821"/><rect class="i" x="178.10495" y="160.12774" width="23.74013" height="15.34839"/><rect class="j" x="182.57506" y="156.30875" width="15.0304" height="9.60544"/><rect class="i" x="178.10495" y="80.45877" width="23.74013" height="15.34839"/><rect class="j" x="182.57506" y="74.59702" width="15.0304" height="11.64821"/><rect class="i" x="178.10495" y="14.99139" width="23.74013" height="15.34839"/><rect class="j" x="182.57506" y="9.12963" width="15.0304" height="11.64821"/><path class="h" d="M277.19422,344.70561c-5.78,5.6499-9.09,4.75-14.11,3.43017a93.29429,93.29429,0,0,0,.5-9.60986c0-17.30029,1.87-17.30029,1.87-34.59033,0-17.29981.03-17.29981.03-34.58985s-1.79-17.29-1.79-34.58007c0-17.29981,4.22-17.29981,4.22-34.58985s-2.11-17.29-2.11-34.58984c0-17.29,1.25-17.29,1.25-34.59033,0-17.29-2.12-17.29-2.12-34.58985,0-17.29,2.5-17.29,2.5-34.59033,0-17.28955,1.33-17.28955,1.33-34.58984,0-12.21973-7.07-17.98-7.62994-25.23,6.38995-1.60987,10.06-3.77,16.59,2.60009,8.7,8.5-.13,12.21-.13,24.37012s.8,12.16016.8,24.31983c0,12.16992-.9,12.16992-.9,24.33007s.15,12.16016.15,24.31983c0,12.16015-.13,12.16015-.13,24.33008,0,12.16015-1.29,12.16015-1.29,24.32031,0,12.15967.08,12.15967.08,24.31982,0,12.15967,2.93,12.15967,2.93,24.33008,0,12.15967-1.18,12.15967-1.18,24.31983,0,12.16992.1,12.16992.1,24.33007s1.22,12.16016,1.22,24.33008c0,12.16016-3.21,12.16016-3.21,24.31983,0,12.16992-.11,12.25,2.36,24.16015C281.1042,333.16557,285.89418,336.20561,277.19422,344.70561Z"/><path class="h" d="M71.11251,305.56442H57.606s-2.27012-5.504-2.27012-19.52329c0-12.02329,2.27012-19.52329,2.27012-19.52329H71.11251a79.094,79.094,0,0,0-2.27011,19.52329A85.56555,85.56555,0,0,0,71.11251,305.56442Z"/><path class="h" d="M71.11251,226.11909H57.606s-2.27012-5.504-2.27012-19.52329c0-12.02329,2.27012-19.52329,2.27012-19.52329H71.11251A79.094,79.094,0,0,0,68.8424,206.5958,85.56555,85.56555,0,0,0,71.11251,226.11909Z"/><path class="h" d="M71.11251,146.67376H57.606s-2.27012-5.504-2.27012-19.52329c0-12.02329,2.27012-19.52329,2.27012-19.52329H71.11251a79.094,79.094,0,0,0-2.27011,19.52329A85.56555,85.56555,0,0,0,71.11251,146.67376Z"/><path class="h" d="M71.11251,72.99539H57.606s-2.27012-5.504-2.27012-19.52329c0-12.02329,2.27012-19.52329,2.27012-19.52329H71.11251A79.094,79.094,0,0,0,68.8424,53.4721,85.56555,85.56555,0,0,0,71.11251,72.99539Z"/></svg>