<svg xmlns="http://www.w3.org/2000/svg" viewBox="0 0 300.80274 50.58049"><defs><style>.a,.b,.f{fill:none;}.a{stroke:#727070;stroke-width:6.82666px;}.a,.b{stroke-linecap:round;stroke-linejoin:round;}.b{stroke:#878787;stroke-width:2.27555px;}.c{fill:#9e9d9c;}.d{fill:#3d3d3b;}.e{fill:#eeeded;}.f{stroke:#585857;stroke-miterlimit:10;stroke-width:1.70667px;}.g{fill:#c7c6c6;}.h{fill:#dfcfe2;}.i{fill:#f7e3f0;}.j{fill:#ab96a9;}.k{fill:#fff;}</style></defs><line class="a" x1="297.3894" y1="25.34896" x2="23.44133" y2="25.34896"/><line class="b" x1="297.3894" y1="24.84059" x2="23.44133" y2="24.84059"/><polygon class="c" points="21.392 29.178 21.392 21.52 18.19 19.11 17.406 25.349 18.19 31.588 21.392 29.178"/><rect class="d" x="17.48537" y="24.20143" width="9.61696" height="2.29496" rx="1.14748" transform="translate(47.64276 3.05505) rotate(90)"/><polygon class="e" points="18.19 19.11 0 25.349 18.19 31.588 17.406 25.349 18.19 19.11"/><path class="f" d="M48.06089,28.76229V28.371a15.02955,15.02955,0,0,1,0-5.97739v-.43745"/><path class="f" d="M43.86313,28.76229V28.371a15.02955,15.02955,0,0,1,0-5.97739v-.43745"/><path class="f" d="M39.66536,28.76229V28.371a15.02976,15.02976,0,0,1,0-5.97739v-.43745"/><path class="f" d="M35.4676,28.76229V28.371a15.02955,15.02955,0,0,1,0-5.97739v-.43745"/><path class="f" d="M293.96989,28.76229V28.371a15.02955,15.02955,0,0,1,0-5.97739v-.43745"/><path class="f" d="M289.77213,28.76229V28.371a15.02955,15.02955,0,0,1,0-5.97739v-.43745"/><path class="f" d="M285.57437,28.76229V28.371a15.02955,15.02955,0,0,1,0-5.97739v-.43745"/><path class="f" d="M281.3766,28.76229V28.371a15.02955,15.02955,0,0,1,0-5.97739v-.43745"/><path class="f" d="M277.17884,28.76229V28.371a15.02955,15.02955,0,0,1,0-5.97739v-.43745"/><path class="f" d="M272.98108,28.76229V28.371a15.02955,15.02955,0,0,1,0-5.97739v-.43745"/><path class="f" d="M268.78331,28.76229V28.371a15.02955,15.02955,0,0,1,0-5.97739v-.43745"/><path class="f" d="M264.58555,28.76229V28.371a15.02955,15.02955,0,0,1,0-5.97739v-.43745"/><path class="f" d="M260.38779,28.76229V28.371a15.02955,15.02955,0,0,1,0-5.97739v-.43745"/><path class="f" d="M256.19,28.76229V28.371a15.02955,15.02955,0,0,1,0-5.97739v-.43745"/><path class="f" d="M251.99226,28.76229V28.371a15.02955,15.02955,0,0,1,0-5.97739v-.43745"/><path class="f" d="M247.7945,28.76229V28.371a15.02955,15.02955,0,0,1,0-5.97739v-.43745"/><polygon class="g" points="17.406 25.349 0 25.349 18.19 31.588 17.406 25.349"/><polygon class="h" points="261.253 27.861 270.896 36.063 299.188 36.063 289.545 27.861 261.253 27.861"/><polygon class="i" points="289.545 27.861 294.039 34.373 271.381 34.373 261.253 27.861 270.896 36.063 299.188 36.063 289.545 27.861"/><polygon class="j" points="289.545 27.861 262.822 29.195 261.253 27.861 289.545 27.861"/><polygon class="h" points="261.253 22.72 270.896 14.518 299.188 14.518 289.545 22.72 261.253 22.72"/><polygon class="j" points="293.401 19.441 261.253 22.72 289.545 22.72 293.401 19.441"/><polygon class="i" points="299.188 14.518 272.496 15.736 261.253 22.72 270.896 14.518 299.188 14.518"/><rect class="k" x="34.42788" width="215.84717" height="50.58049" rx="7.60502"/><path class="d" d="M55.933,19.59021a.33261.33261,0,0,1-.3457-.34472v-7.875a.33409.33409,0,0,1,.3457-.34473h2.86524a4.83786,4.83786,0,0,1,2.12988.41211,2.70416,2.70416,0,0,1,1.252,1.22265,4.43331,4.43331,0,0,1,.41309,2.0254v4.55957a.34993.34993,0,0,1-.09082.248.32979.32979,0,0,1-.25488.09668Zm.94434-1.19922h4.38086V14.76013A2.694,2.694,0,0,0,60.6576,12.893a2.48732,2.48732,0,0,0-1.93457-.667h-1.8457Z"/><path class="d" d="M64.81287,19.59021a.33261.33261,0,0,1-.3457-.34472v-2.25a6.1269,6.1269,0,0,1,.13574-1.3125,3.21253,3.21253,0,0,1,.53223-1.18457,4.04928,4.04928,0,0,1,1.19238-1.05762l.69043,1.00488a2.49705,2.49705,0,0,0-.81054.78711,2.753,2.753,0,0,0-.36036.915,4.897,4.897,0,0,0-.08984.9082v2.18946a.33255.33255,0,0,1-.34473.34472Zm5.84961,0a.34112.34112,0,0,1-.25488-.08984c-.06055-.05957-.11523-.11426-.165-.165l-5.50488-7.72461a.55709.55709,0,0,1-.10547-.28516.2755.2755,0,0,1,.09766-.21.31611.31611,0,0,1,.21777-.08984h.70508a.376.376,0,0,1,.26269.08984,1.57518,1.57518,0,0,1,.15723.165l5.51953,7.72461a1.355,1.355,0,0,1,.083.165.34827.34827,0,0,1,.02246.12012.307.307,0,0,1-.2998.2998ZM69.46229,16.8451l-.61524-1.03418a2.98867,2.98867,0,0,0,1.043-.72071,1.59239,1.59239,0,0,0,.36719-.78711,5.98572,5.98572,0,0,0,.06055-.8623V11.37049a.334.334,0,0,1,.34472-.34473h.62989a.33255.33255,0,0,1,.34472.34473V13.516a4.89361,4.89361,0,0,1-.14941,1.21485,2.67555,2.67555,0,0,1-.60742,1.10254A4.8705,4.8705,0,0,1,69.46229,16.8451Z"/><path class="d" d="M75.598,11.4906h.375a.45572.45572,0,0,1,.33692.11231.33211.33211,0,0,1,.09765.27734q-.12012.62988-.20215,1.14063a9.80066,9.80066,0,0,0-.1123,1.01172q-.03076.50389-.03028,1.13281l.04493,4.08008a.33255.33255,0,0,1-.34473.34472l-2.12988-.02929a.34994.34994,0,0,1-.248-.09082.327.327,0,0,1-.09766-.25489v-.47949a.33261.33261,0,0,1,.34571-.34473l1.15429.01465V15.226q0-.61523.01563-1.13281a9.05676,9.05676,0,0,1,.08984-1.043,11.7581,11.7581,0,0,1,.24024-1.18457.6237.6237,0,0,1,.14258-.2705A.42429.42429,0,0,1,75.598,11.4906Zm-1.35058.73535a.33406.33406,0,0,1-.34473-.3457v-.50976a.334.334,0,0,1,.34473-.34473h3.25488a4.88309,4.88309,0,0,1,2.13769.41211,2.727,2.727,0,0,1,1.26758,1.23047,4.37864,4.37864,0,0,1,.41992,2.01758v4.55957a.33253.33253,0,0,1-.34472.34472H80.308a.32979.32979,0,0,1-.25488-.09668.34922.34922,0,0,1-.08984-.248V14.76013a2.694,2.694,0,0,0-.60059-1.86718,2.48732,2.48732,0,0,0-1.93457-.667Z"/><path class="d" d="M89.59315,19.59021a.33259.33259,0,0,1-.3457-.34472V14.76013a2.69841,2.69841,0,0,0-.59961-1.86718,2.48827,2.48827,0,0,0-1.93555-.667H83.893a.33412.33412,0,0,1-.3457-.3457v-.50976a.33409.33409,0,0,1,.3457-.34473h2.89453a3.915,3.915,0,0,1,2.8877.94434,3.73863,3.73863,0,0,1,.9375,2.74511v4.53028a.33255.33255,0,0,1-.34473.34472Zm-5.7002,0a.33261.33261,0,0,1-.3457-.34472V14.23572a.33261.33261,0,0,1,.3457-.34473h.68946a.31127.31127,0,0,1,.24023.09668.35086.35086,0,0,1,.08984.24805v5.00977a.34922.34922,0,0,1-.08984.248.31124.31124,0,0,1-.24023.09668Z"/><path class="d" d="M92.81776,19.59021a.33261.33261,0,0,1-.34571-.34472v-.50977a.33261.33261,0,0,1,.34571-.34473h4.30469V14.76013a2.69841,2.69841,0,0,0-.59961-1.86718,2.48968,2.48968,0,0,0-1.93555-.667H92.96717a.33406.33406,0,0,1-.34472-.3457v-.50976a.334.334,0,0,1,.34472-.34473h1.69531a4.84484,4.84484,0,0,1,2.14454.41992,2.79933,2.79933,0,0,1,1.2832,1.23731,4.36311,4.36311,0,0,1,.42676,2.03222V18.391h.55566a.33255.33255,0,0,1,.34473.34473v.50977a.33255.33255,0,0,1-.34473.34472Z"/><path class="d" d="M106.42225,11.4906h.375a.45818.45818,0,0,1,.33789.11231.33212.33212,0,0,1,.09766.27734q-.12012.62988-.20313,1.14063c-.05469.33984-.0918.67773-.1123,1.01172-.01953.33593-.03028.71289-.03028,1.13281l.0459,4.08008a.33259.33259,0,0,1-.3457.34472l-2.12988-.02929a.34753.34753,0,0,1-.24707-.09082.327.327,0,0,1-.09766-.25489v-.47949a.33255.33255,0,0,1,.34473-.34473l1.15527.01465V15.226q0-.61523.01465-1.13281a9.2809,9.2809,0,0,1,.08984-1.043,11.75532,11.75532,0,0,1,.24024-1.18457.63416.63416,0,0,1,.14257-.2705A.42729.42729,0,0,1,106.42225,11.4906Zm-1.34961.73535a.33259.33259,0,0,1-.34473-.3457v-.50976a.33255.33255,0,0,1,.34473-.34473h3.25488a4.8861,4.8861,0,0,1,2.1377.41211,2.73157,2.73157,0,0,1,1.26758,1.23047,4.39115,4.39115,0,0,1,.41992,2.01758v4.55957a.33255.33255,0,0,1-.34473.34472h-.67578a.33266.33266,0,0,1-.25488-.09668.35359.35359,0,0,1-.08985-.248V14.76013a2.69837,2.69837,0,0,0-.59961-1.86718,2.48965,2.48965,0,0,0-1.93554-.667Z"/><path class="d" d="M118.63221,18.46521a3.20228,3.20228,0,0,0,1.64258-.35937,2.48968,2.48968,0,0,0,1.01953-1.07324,3.48672,3.48672,0,0,0,.35254-1.59668V11.37049a.334.334,0,0,1,.34473-.34473h.62988a.30859.30859,0,0,1,.24023.09766.34682.34682,0,0,1,.08985.24707v4.16992a4.74457,4.74457,0,0,1-.29981,1.73242,3.729,3.729,0,0,1-.85449,1.32031,3.6897,3.6897,0,0,1-1.3125.832,4.31192,4.31192,0,0,1-1.67285.25586h-1.125a3.4472,3.4472,0,0,1-1.75488-.45019,3.24352,3.24352,0,0,1-1.23047-1.26074,3.79385,3.79385,0,0,1-.44922-1.875V11.37049a.33255.33255,0,0,1,.34472-.34473h.62989a.334.334,0,0,1,.34472.34473l.04493,4.4248a2.61337,2.61337,0,0,0,.7207,1.98047,2.5363,2.5363,0,0,0,1.83008.68945Zm-3.33008-1.75488-.03027-1.09473a3.67241,3.67241,0,0,0,1.69531-.33789,1.79011,1.79011,0,0,0,.81738-.8623,2.95716,2.95716,0,0,0,.23243-1.18457V11.37049a.35114.35114,0,0,1,.08984-.24707.32833.32833,0,0,1,.25488-.09766h.61524a.334.334,0,0,1,.34472.34473v1.91992a3.53766,3.53766,0,0,1-.43457,1.75488,3.02271,3.02271,0,0,1-1.32812,1.23047A4.869,4.869,0,0,1,115.30213,16.71033Z"/><path class="d" d="M128.27674,19.726a.26036.26036,0,0,1-.24707-.03808.26965.26965,0,0,1-.1123-.23242V18.766a.37885.37885,0,0,1,.082-.24023.5357.5357,0,0,1,.248-.165l.56933-.22559a5.361,5.361,0,0,0,1.08789-.61425,2.39842,2.39842,0,0,0,.76465-.99024,4.128,4.128,0,0,0,.27734-1.65039,4.14218,4.14218,0,0,0-.23925-1.55176,1.49938,1.49938,0,0,0-.78809-.82519,3.644,3.644,0,0,0-1.47754-.248h-3.04492a.334.334,0,0,1-.34473-.34473v-.54a.334.334,0,0,1,.34473-.34473h3.24023a5.06527,5.06527,0,0,1,2.18262.38965,2.31394,2.31394,0,0,1,1.15527,1.25293,6.06528,6.06528,0,0,1,.35254,2.25683,5.21377,5.21377,0,0,1-.28515,1.81543,4.02892,4.02892,0,0,1-.77246,1.30469,4.51842,4.51842,0,0,1-1.09571.89258,7.02724,7.02724,0,0,1-1.26758.57812Zm-2.87988,2.7295a.334.334,0,0,1-.34473-.34473v-7.875a.33255.33255,0,0,1,.34473-.34473h.66016a.32982.32982,0,0,1,.25488.09668.35086.35086,0,0,1,.08984.24805v7.875a.34681.34681,0,0,1-.08984.24707.32691.32691,0,0,1-.25488.09766Z"/><path class="d" d="M140.4867,19.59021a.33253.33253,0,0,1-.34472-.34472V14.76013a2.694,2.694,0,0,0-.60059-1.86718,2.4859,2.4859,0,0,0-1.93457-.667h-2.82031a.33407.33407,0,0,1-.34473-.3457v-.50976a.334.334,0,0,1,.34473-.34473H137.682a3.91657,3.91657,0,0,1,2.88769.94434,3.74271,3.74271,0,0,1,.9375,2.74511v4.53028a.33261.33261,0,0,1-.3457.34472Zm-5.70019,0a.33255.33255,0,0,1-.34473-.34472V14.23572a.33255.33255,0,0,1,.34473-.34473h.69043a.31415.31415,0,0,1,.24023.09668.35528.35528,0,0,1,.08985.24805v5.00977a.35359.35359,0,0,1-.08985.248.31412.31412,0,0,1-.24023.09668Z"/><path class="d" d="M149.35194,11.4906h.375a.45571.45571,0,0,1,.33691.11231.33212.33212,0,0,1,.09766.27734q-.12012.62988-.20215,1.14063a9.80347,9.80347,0,0,0-.11231,1.01172q-.03075.50389-.03027,1.13281l.04492,4.08008a.33253.33253,0,0,1-.34472.34472l-2.12989-.02929a.34993.34993,0,0,1-.248-.09082.327.327,0,0,1-.09766-.25489v-.47949a.33261.33261,0,0,1,.3457-.34473l1.1543.01465V15.226q0-.61523.01563-1.13281a9.05676,9.05676,0,0,1,.08984-1.043,11.755,11.755,0,0,1,.24023-1.18457.6238.6238,0,0,1,.14258-.2705A.42432.42432,0,0,1,149.35194,11.4906Zm-1.35059.73535a.33407.33407,0,0,1-.34473-.3457v-.50976a.334.334,0,0,1,.34473-.34473h3.25488a4.8831,4.8831,0,0,1,2.1377.41211,2.72706,2.72706,0,0,1,1.26758,1.23047,4.37864,4.37864,0,0,1,.41992,2.01758v4.55957a.33255.33255,0,0,1-.34473.34472h-.6748a.32979.32979,0,0,1-.25488-.09668.34923.34923,0,0,1-.08985-.248V14.76013a2.694,2.694,0,0,0-.60058-1.86718,2.48734,2.48734,0,0,0-1.93457-.667Z"/><path class="d" d="M157.28651,19.59021a.33255.33255,0,0,1-.34473-.34472v-2.25a6.19018,6.19018,0,0,1,.13477-1.3125,3.22821,3.22821,0,0,1,.53222-1.18457,4.07439,4.07439,0,0,1,1.19239-1.05762l.69043,1.00488a2.49321,2.49321,0,0,0-.80957.78711,2.7117,2.7117,0,0,0-.36036.915,4.897,4.897,0,0,0-.08984.9082v2.18946a.33255.33255,0,0,1-.34473.34472Zm5.85058,0a.345.345,0,0,1-.25586-.08984l-.165-.165-5.50489-7.72461a.56346.56346,0,0,1-.10449-.28516.2755.2755,0,0,1,.09766-.21.31211.31211,0,0,1,.21679-.08984h.70508a.37437.37437,0,0,1,.2627.08984,1.47972,1.47972,0,0,1,.15722.165l5.52051,7.72461a1.1942,1.1942,0,0,1,.082.165.32678.32678,0,0,1,.02246.12012.307.307,0,0,1-.2998.2998ZM161.9369,16.8451l-.61524-1.03418a2.98343,2.98343,0,0,0,1.042-.72071,1.59439,1.59439,0,0,0,.36816-.78711,5.98827,5.98827,0,0,0,.05957-.8623V11.37049a.33409.33409,0,0,1,.3457-.34473h.62989a.334.334,0,0,1,.34472.34473V13.516a4.84828,4.84828,0,0,1-.15039,1.21485,2.66439,2.66439,0,0,1-.60742,1.10254A4.85055,4.85055,0,0,1,161.9369,16.8451Z"/><path class="d" d="M173.02088,19.726a.26036.26036,0,0,1-.24707-.03808.26965.26965,0,0,1-.1123-.23242V18.766a.37885.37885,0,0,1,.082-.24023.5357.5357,0,0,1,.24805-.165l.56933-.22559a5.361,5.361,0,0,0,1.08789-.61425,2.39842,2.39842,0,0,0,.76465-.99024,4.128,4.128,0,0,0,.27734-1.65039,4.14218,4.14218,0,0,0-.23925-1.55176,1.49934,1.49934,0,0,0-.78809-.82519,3.644,3.644,0,0,0-1.47754-.248H170.141a.334.334,0,0,1-.34473-.34473v-.54a.334.334,0,0,1,.34473-.34473h3.24023a5.06524,5.06524,0,0,1,2.18262.38965,2.31394,2.31394,0,0,1,1.15527,1.25293,6.06528,6.06528,0,0,1,.35254,2.25683,5.21377,5.21377,0,0,1-.28515,1.81543,4.02874,4.02874,0,0,1-.77246,1.30469,4.51842,4.51842,0,0,1-1.09571.89258,7.02714,7.02714,0,0,1-1.26757.57812Zm-2.87988,2.7295a.334.334,0,0,1-.34473-.34473v-7.875a.33255.33255,0,0,1,.34473-.34473h.66016a.32982.32982,0,0,1,.25488.09668.35086.35086,0,0,1,.08984.24805v7.875a.34681.34681,0,0,1-.08984.24707.32691.32691,0,0,1-.25488.09766Z"/><path class="d" d="M179.42616,16.11072a.334.334,0,0,1-.34473-.34473v-4.3955a.334.334,0,0,1,.34473-.34473h.7207a.30788.30788,0,0,1,.23926.09766.34686.34686,0,0,1,.08984.24707V15.766a.34686.34686,0,0,1-.08984.24707.30788.30788,0,0,1-.23926.09766Z"/><path class="d" d="M182.681,12.22595a.33407.33407,0,0,1-.34473-.3457v-.50976a.334.334,0,0,1,.34473-.34473h3.62988a.32691.32691,0,0,1,.25488.09766.34749.34749,0,0,1,.09082.24707v.50976a.3499.3499,0,0,1-.09082.248.33034.33034,0,0,1-.25488.09765Zm1.25976,7.36426a.29162.29162,0,0,1-.33007-.33008V13.90564a3.64146,3.64146,0,0,1,.21-1.37988q.21093-.49512.51074-.49512h1.48437q-.375,0-.60742.57031a3.73779,3.73779,0,0,0-.23242,1.40918v5.25a.301.301,0,0,1-.10449.24024.37658.37658,0,0,1-.25488.08984Z"/><path class="d" d="M188.9662,19.59021a.33261.33261,0,0,1-.34571-.34472v-7.875a.33409.33409,0,0,1,.34571-.34473h2.9248a4.8861,4.8861,0,0,1,2.1377.41211,2.7315,2.7315,0,0,1,1.26757,1.23047,4.46344,4.46344,0,0,1,.41993,2.04687v4.53028a.33261.33261,0,0,1-.34571.34472h-.6748a.33125.33125,0,0,1-.25489-.09668.35358.35358,0,0,1-.08984-.248V14.76013a2.69837,2.69837,0,0,0-.59961-1.86718,2.48968,2.48968,0,0,0-1.93555-.667h-1.83007v7.01954a.34923.34923,0,0,1-.08985.248.31124.31124,0,0,1-.24023.09668Z"/><path class="d" d="M198.17616,16.11072a.33409.33409,0,0,1-.34571-.34473v-4.3955a.33409.33409,0,0,1,.34571-.34473h.71972a.31144.31144,0,0,1,.24024.09766.35114.35114,0,0,1,.08984.24707V15.766a.35114.35114,0,0,1-.08984.24707.31144.31144,0,0,1-.24024.09766Z"/><path class="d" d="M209.65077,14.76013a2.67751,2.67751,0,0,0-.60743-1.86718,2.51327,2.51327,0,0,0-1.94238-.667h-2.20508a.33412.33412,0,0,1-.3457-.3457v-.50976a.33409.33409,0,0,1,.3457-.34473h2.2793a5.08726,5.08726,0,0,1,2.15332.39746,2.66573,2.66573,0,0,1,1.26758,1.2002,4.44309,4.44309,0,0,1,.41992,2.0625v6.41992a.33407.33407,0,0,1-.3457.34472h-.67481a.32691.32691,0,0,1-.25488-.09765.35281.35281,0,0,1-.08984-.24707Z"/><path class="d" d="M213.476,16.11072a.33407.33407,0,0,1-.3457-.34473v-4.3955a.33407.33407,0,0,1,.3457-.34473h.71973a.31142.31142,0,0,1,.24023.09766.35115.35115,0,0,1,.08985.24707V15.766a.35115.35115,0,0,1-.08985.24707.31142.31142,0,0,1-.24023.09766Z"/><path class="d" d="M216.61073,19.59021a.33261.33261,0,0,1-.34571-.34472v-.50977a.33261.33261,0,0,1,.34571-.34473h4.22949v.915a.24385.24385,0,0,1-.09766.2168.42391.42391,0,0,1-.24707.06738Zm3.31445,0a.28892.28892,0,0,1-.23242-.09668.53866.53866,0,0,1-.11231-.248l-.28515-4.63477a11.716,11.716,0,0,0-.11231-1.27539,1.54659,1.54659,0,0,0-.36035-.83984,1.20774,1.20774,0,0,0-.92187-.29981h-.61524a.33255.33255,0,0,1-.34473-.34473v-.51074a.33253.33253,0,0,1,.34473-.34472h.62988a3.25754,3.25754,0,0,1,1.37989.248,1.869,1.869,0,0,1,.81738.71973,3.3258,3.3258,0,0,1,.41992,1.13184,11.07233,11.07233,0,0,1,.17285,1.4707l.28516,4.67969a.28482.28482,0,0,1-.08984.248.36379.36379,0,0,1-.25489.09668Z"/><path class="d" d="M223.19569,19.59021a.33261.33261,0,0,1-.34571-.34472v-7.875a.33409.33409,0,0,1,.34571-.34473h2.9248a4.8861,4.8861,0,0,1,2.1377.41211,2.73157,2.73157,0,0,1,1.26758,1.23047,4.46358,4.46358,0,0,1,.41992,2.04687v4.53028a.33261.33261,0,0,1-.34571.34472h-.6748a.33121.33121,0,0,1-.25488-.09668.35359.35359,0,0,1-.08985-.248V14.76013a2.69837,2.69837,0,0,0-.59961-1.86718,2.48965,2.48965,0,0,0-1.93554-.667h-1.83008v7.01954a.34923.34923,0,0,1-.08985.248.31122.31122,0,0,1-.24023.09668Z"/><path class="d" d="M238.21034,19.59021a.33255.33255,0,0,1-.34473-.34472V14.76013A2.694,2.694,0,0,0,237.265,12.893a2.4859,2.4859,0,0,0-1.93457-.667h-2.82031a.33407.33407,0,0,1-.34473-.3457v-.50976a.334.334,0,0,1,.34473-.34473h2.89551a3.91655,3.91655,0,0,1,2.88769.94434,3.74267,3.74267,0,0,1,.9375,2.74511v4.53028a.33259.33259,0,0,1-.3457.34472Zm-5.7002,0a.33255.33255,0,0,1-.34473-.34472V14.23572a.33255.33255,0,0,1,.34473-.34473h.69043a.31414.31414,0,0,1,.24023.09668.35528.35528,0,0,1,.08985.24805v5.00977a.35359.35359,0,0,1-.08985.248.3141.3141,0,0,1-.24023.09668Z"/><path class="d" d="M135.44666,29.4906h.375a.45572.45572,0,0,1,.33692.11231.33211.33211,0,0,1,.09765.27734q-.1201.62988-.20214,1.14063a9.798,9.798,0,0,0-.11231,1.01172q-.03077.5039-.03027,1.13281l.04492,4.08008a.33255.33255,0,0,1-.34473.34472l-2.12988-.02929a.34994.34994,0,0,1-.24805-.09082.327.327,0,0,1-.09765-.25489v-.47949a.33259.33259,0,0,1,.3457-.34473l1.1543.01465V33.226q0-.61522.01562-1.13281a9.05679,9.05679,0,0,1,.08985-1.043,11.755,11.755,0,0,1,.24023-1.18457.6238.6238,0,0,1,.14258-.2705A.42429.42429,0,0,1,135.44666,29.4906Zm-1.35058.73535a.33407.33407,0,0,1-.34473-.3457v-.50976a.334.334,0,0,1,.34473-.34473H137.351a4.88316,4.88316,0,0,1,2.1377.41211,2.727,2.727,0,0,1,1.26757,1.23047,4.37851,4.37851,0,0,1,.41993,2.01758v4.55957a.33255.33255,0,0,1-.34473.34472h-.67481a.32979.32979,0,0,1-.25488-.09668.34926.34926,0,0,1-.08984-.248V32.76013a2.694,2.694,0,0,0-.60059-1.86718,2.48732,2.48732,0,0,0-1.93457-.667Z"/><path class="d" d="M143.74159,37.59021a.33261.33261,0,0,1-.34571-.34472v-7.875a.33409.33409,0,0,1,.34571-.34473h.70507a.32976.32976,0,0,1,.25489.09766.35114.35114,0,0,1,.08984.24707v7.875a.35358.35358,0,0,1-.08984.248.33268.33268,0,0,1-.25489.09668Z"/><path class="d" d="M147.44569,37.59021a.33255.33255,0,0,1-.34473-.34472v-7.875a.334.334,0,0,1,.34473-.34473h2.9248a4.88316,4.88316,0,0,1,2.1377.41211,2.72706,2.72706,0,0,1,1.26758,1.23047,4.451,4.451,0,0,1,.41992,2.04687v4.53028a.33255.33255,0,0,1-.34473.34472h-.6748a.3298.3298,0,0,1-.25489-.09668.34993.34993,0,0,1-.09082-.248V32.76013a2.69367,2.69367,0,0,0-.59961-1.86718,2.48732,2.48732,0,0,0-1.93457-.667H148.4662v7.01954a.35359.35359,0,0,1-.08985.248.31412.31412,0,0,1-.24023.09668Z"/><path class="d" d="M156.65565,34.11072a.334.334,0,0,1-.34473-.34473v-4.3955a.334.334,0,0,1,.34473-.34473h.7207a.30788.30788,0,0,1,.23926.09766.34681.34681,0,0,1,.08984.24707V33.766a.34681.34681,0,0,1-.08984.24707.30788.30788,0,0,1-.23926.09766Z"/><path class="d" d="M163.63123,37.7406a3.74937,3.74937,0,0,1-2.8955-.97461,3.8729,3.8729,0,0,1-.88477-2.70019V29.37049a.334.334,0,0,1,.34473-.34473h.61523a.32691.32691,0,0,1,.25488.09766.34682.34682,0,0,1,.08985.24707V33.9906a2.62669,2.62669,0,0,0,.61523,1.86035,3.00974,3.00974,0,0,0,3.68262.05957,2.60041,2.60041,0,0,0,.60742-1.7998,4.12755,4.12755,0,0,0,.00781-.458c-.00488-.2041-.00781-.41211-.00781-.62207V32.5658a2.81069,2.81069,0,0,0-.53222-1.81543,1.66638,1.66638,0,0,0-1.3125-.56934,2.2306,2.2306,0,0,0-.585.08985,1.88788,1.88788,0,0,0-.55468.23925.30073.30073,0,0,1-.28516.00782.2354.2354,0,0,1-.15039-.23243v-.46484a1.00683,1.00683,0,0,1,.03027-.26269.362.362,0,0,1,.165-.20215,3.08723,3.08723,0,0,1,.65235-.293,3.03589,3.03589,0,0,1,.90722-.11231,3.32847,3.32847,0,0,1,1.63477.36719,2.39206,2.39206,0,0,1,1.01269,1.13281,4.86973,4.86973,0,0,1,.36817,1.96485q.01464.15087.01465.50976v.73535c0,.25-.00489.42481-.01465.5254a4.7956,4.7956,0,0,1-.41309,1.94238,2.53131,2.53131,0,0,1-1.20019,1.207A4.90623,4.90623,0,0,1,163.63123,37.7406Z"/><path class="d" d="M169.21131,37.59021a.33261.33261,0,0,1-.3457-.34472v-.50977a.33261.33261,0,0,1,.3457-.34473H173.516V32.76013a2.69841,2.69841,0,0,0-.59961-1.86718,2.48968,2.48968,0,0,0-1.93555-.667h-1.62011a.33407.33407,0,0,1-.34473-.3457v-.50976a.334.334,0,0,1,.34473-.34473H171.056a4.84482,4.84482,0,0,1,2.14453.41992,2.79928,2.79928,0,0,1,1.2832,1.23731,4.36311,4.36311,0,0,1,.42676,2.03222V36.391h.55567a.33253.33253,0,0,1,.34472.34473v.50977a.33253.33253,0,0,1-.34472.34472Z"/><path class="d" d="M183.44666,37.59021a.33261.33261,0,0,1-.3457-.34472V32.76013a2.69837,2.69837,0,0,0-.59961-1.86718,2.48826,2.48826,0,0,0-1.93555-.667h-2.81933a.33411.33411,0,0,1-.3457-.3457v-.50976a.33407.33407,0,0,1,.3457-.34473H180.641a3.91505,3.91505,0,0,1,2.8877.94434,3.73863,3.73863,0,0,1,.9375,2.74511v4.53028a.33255.33255,0,0,1-.34473.34472Zm-5.70019,0a.33259.33259,0,0,1-.3457-.34472V32.23572a.33259.33259,0,0,1,.3457-.34473h.68945a.31128.31128,0,0,1,.24024.09668.3509.3509,0,0,1,.08984.248v5.00977a.34926.34926,0,0,1-.08984.248.31124.31124,0,0,1-.24024.09668Z"/><path class="d" d="M192.31092,29.4906h.375a.45572.45572,0,0,1,.33692.11231.33211.33211,0,0,1,.09765.27734q-.12012.62988-.20215,1.14063a9.80066,9.80066,0,0,0-.1123,1.01172q-.03077.5039-.03027,1.13281l.04492,4.08008a.33255.33255,0,0,1-.34473.34472l-2.12988-.02929a.34994.34994,0,0,1-.24805-.09082.327.327,0,0,1-.09766-.25489v-.47949a.33261.33261,0,0,1,.34571-.34473l1.15429.01465V33.226q0-.61522.01563-1.13281a9.059,9.059,0,0,1,.08984-1.043,11.7581,11.7581,0,0,1,.24024-1.18457.6237.6237,0,0,1,.14258-.2705A.42429.42429,0,0,1,192.31092,29.4906Zm-1.35058.73535a.33407.33407,0,0,1-.34473-.3457v-.50976a.334.334,0,0,1,.34473-.34473h3.25488a4.88309,4.88309,0,0,1,2.13769.41211,2.727,2.727,0,0,1,1.26758,1.23047,4.37852,4.37852,0,0,1,.41992,2.01758v4.55957a.33253.33253,0,0,1-.34472.34472h-.67481a.32979.32979,0,0,1-.25488-.09668.34922.34922,0,0,1-.08984-.248V32.76013a2.694,2.694,0,0,0-.60059-1.86718,2.48732,2.48732,0,0,0-1.93457-.667Z"/><path class="d" d="M200.60584,37.59021a.33261.33261,0,0,1-.3457-.34472v-7.875a.33409.33409,0,0,1,.3457-.34473h.70508a.32972.32972,0,0,1,.25488.09766.35115.35115,0,0,1,.08985.24707v7.875a.35359.35359,0,0,1-.08985.248.33264.33264,0,0,1-.25488.09668Z"/><path class="d" d="M203.95057,37.59021a.33255.33255,0,0,1-.34473-.34472v-2.25a6.19083,6.19083,0,0,1,.13477-1.3125,3.22823,3.22823,0,0,1,.53223-1.18457,4.07421,4.07421,0,0,1,1.19238-1.05762l.69043,1.00488a2.49341,2.49341,0,0,0-.80957.78711,2.71167,2.71167,0,0,0-.36035.915,4.897,4.897,0,0,0-.08985.9082v2.18946a.33253.33253,0,0,1-.34472.34472Zm5.85059,0a.345.345,0,0,1-.25586-.08984l-.165-.165-5.50489-7.72461a.56346.56346,0,0,1-.10449-.28516.2755.2755,0,0,1,.09766-.21.31211.31211,0,0,1,.2168-.08984h.70507a.37435.37435,0,0,1,.2627.08984,1.47991,1.47991,0,0,1,.15723.165l5.5205,7.72461a1.193,1.193,0,0,1,.082.165.32679.32679,0,0,1,.02247.12012.307.307,0,0,1-.29981.2998ZM208.601,34.8451l-.61523-1.03418a2.98347,2.98347,0,0,0,1.042-.72071,1.5943,1.5943,0,0,0,.36816-.78711,5.98827,5.98827,0,0,0,.05957-.8623V29.37049a.33409.33409,0,0,1,.34571-.34473h.62988a.334.334,0,0,1,.34473.34473V31.516a4.84828,4.84828,0,0,1-.1504,1.21485,2.66427,2.66427,0,0,1-.60742,1.10254A4.85042,4.85042,0,0,1,208.601,34.8451Z"/><path class="d" d="M217.63026,37.59021a.33255.33255,0,0,1-.34473-.34472V32.76013a2.69837,2.69837,0,0,0-.59961-1.86718,2.48968,2.48968,0,0,0-1.93555-.667h-1.96484a.33407.33407,0,0,1-.34473-.3457v-.50976a.334.334,0,0,1,.34473-.34473h2.04a4.95078,4.95078,0,0,1,2.1377.40527,2.6862,2.6862,0,0,1,1.26757,1.22168,4.43143,4.43143,0,0,1,.41993,2.03321v4.55957a.33261.33261,0,0,1-.34571.34472Z"/><path class="d" d="M221.21522,37.59021a.33255.33255,0,0,1-.34473-.34472v-7.875a.334.334,0,0,1,.34473-.34473h.70508a.32691.32691,0,0,1,.25488.09766.34681.34681,0,0,1,.08984.24707v7.875a.34922.34922,0,0,1-.08984.248.32979.32979,0,0,1-.25488.09668Z"/><path class="d" d="M230.62049,37.59021a.33261.33261,0,0,1-.3457-.34472V32.76013a2.69841,2.69841,0,0,0-.59961-1.86718,2.48826,2.48826,0,0,0-1.93555-.667H224.9203a.33413.33413,0,0,1-.34571-.3457v-.50976a.33409.33409,0,0,1,.34571-.34473h2.89453a3.915,3.915,0,0,1,2.88769.94434,3.73863,3.73863,0,0,1,.9375,2.74511v4.53028a.33253.33253,0,0,1-.34472.34472Zm-5.70019,0a.33261.33261,0,0,1-.34571-.34472V32.23572a.33261.33261,0,0,1,.34571-.34473h.68945a.31126.31126,0,0,1,.24023.09668.35087.35087,0,0,1,.08985.248v5.00977a.34923.34923,0,0,1-.08985.248.31122.31122,0,0,1-.24023.09668Z"/><path class="d" d="M235.46522,30.25525l-1.78516-.01465a.35116.35116,0,0,1-.24707-.08984.31.31,0,0,1-.09765-.24024v-2.625a.334.334,0,0,1,.34472-.34472H234.31a.32691.32691,0,0,1,.25488.09765.34756.34756,0,0,1,.09082.24707v1.74024h.83984ZM235.435,37.726a.2778.2778,0,0,1-.25489-.03808.26469.26469,0,0,1-.12011-.23242V36.766a.3742.3742,0,0,1,.083-.24023.53239.53239,0,0,1,.24707-.165l.585-.22559a5.47984,5.47984,0,0,0,1.07227-.61425,2.40833,2.40833,0,0,0,.76562-.99024,4.14514,4.14514,0,0,0,.27735-1.65039,4.23913,4.23913,0,0,0-.23242-1.55176,1.47023,1.47023,0,0,0-.78028-.82519,3.68873,3.68873,0,0,0-1.49218-.248h-.4502a.334.334,0,0,1-.34473-.34473v-.54a.334.334,0,0,1,.34473-.34473h.66016a5.07194,5.07194,0,0,1,2.1748.38965,2.30462,2.30462,0,0,1,1.16211,1.25293,6.04547,6.04547,0,0,1,.35254,2.25683,5.21485,5.21485,0,0,1-.28418,1.81543,4.02874,4.02874,0,0,1-.77246,1.30469,4.47756,4.47756,0,0,1-1.10254.89258,7.32172,7.32172,0,0,1-1.27539.57812Z"/></svg>