<svg xmlns="http://www.w3.org/2000/svg" viewBox="0 0 96.70986 32.93617"><defs><style>.a{fill:#fff;}.b{fill:#3c3c3b;}</style></defs><rect class="a" width="96.70986" height="32.93617" rx="16.46807"/><path class="b" d="M27.78442,22.71549a.53911.53911,0,0,1-.15332-.396v-6.512a2.20738,2.20738,0,0,0-2.48632-2.508H20.12915a.575.575,0,0,1-.40723-.154.519.519,0,0,1-.165-.396v-1.892a.52.52,0,0,1,.165-.396.5766.5766,0,0,1,.40723-.154h5.126a6.74736,6.74736,0,0,1,4.56445,1.342,5.2783,5.2783,0,0,1,1.5293,4.18006v6.49a.51548.51548,0,0,1-.165.396.57328.57328,0,0,1-.40723.154h-2.5957A.53835.53835,0,0,1,27.78442,22.71549Zm-8.0625,0a.51889.51889,0,0,1-.165-.396v-6.424a.52.52,0,0,1,.165-.396.5763.5763,0,0,1,.40723-.154h2.5957a.52647.52647,0,0,1,.54981.55v6.424a.54629.54629,0,0,1-.15332.385.51861.51861,0,0,1-.39649.165h-2.5957A.57494.57494,0,0,1,19.72192,22.71549Z"/><path class="b" d="M39.29028,23.0015a.64689.64689,0,0,1-.17578-.44006V20.33952a.6721.6721,0,0,1,.1543-.418.86282.86282,0,0,1,.39648-.286l.68164-.28595a3.62186,3.62186,0,0,0,1.60547-1.177,3.62664,3.62664,0,0,0,.59473-2.233,2.91238,2.91238,0,0,0-.49512-1.936,2.38748,2.38748,0,0,0-1.81543-.55H34.385a.5636.5636,0,0,1-.57227-.572v-2.046a.47792.47792,0,0,1,.17676-.374.5841.5841,0,0,1,.39551-.154h6.62207a5.34026,5.34026,0,0,1,4.11328,1.375,5.98086,5.98086,0,0,1,1.25488,4.147,6.46684,6.46684,0,0,1-1.65039,4.576,8.75947,8.75947,0,0,1-4.13574,2.486l-.90234.264A.40478.40478,0,0,1,39.29028,23.0015Zm-5.3125,3.916a.52.52,0,0,1-.165-.396v-10.626a.52.52,0,0,1,.165-.396.5763.5763,0,0,1,.40723-.154h2.50781a.52792.52792,0,0,1,.54981.55v10.626a.52782.52782,0,0,1-.54981.54993H34.385A.57651.57651,0,0,1,33.97778,26.91752Z"/><path class="b" d="M48.56372,17.5015a.51557.51557,0,0,1-.165-.396v-6.248a.51661.51661,0,0,1,.165-.396.57493.57493,0,0,1,.40723-.154h2.75a.5279.5279,0,0,1,.5498.55v6.248a.54737.54737,0,0,1-.15429.385.5165.5165,0,0,1-.39551.165h-2.75A.57328.57328,0,0,1,48.56372,17.5015Z"/><path class="b" d="M64.89868,10.46146a.53717.53717,0,0,1,.1543.396v1.892a.54724.54724,0,0,1-.1543.385.518.518,0,0,1-.39551.165H63.49048a3.38308,3.38308,0,0,0-.40723,1.122,7.84266,7.84266,0,0,0-.14258,1.562v6.402a.41165.41165,0,0,1-.209.341.7497.7497,0,0,1-.42871.143H59.72876a.45408.45408,0,0,1-.48437-.484v-6.644a4.74143,4.74143,0,0,1,.44043-2.442H54.66919a.56392.56392,0,0,1-.55078-.55v-1.892a.52.52,0,0,1,.165-.396.54857.54857,0,0,1,.38574-.154h9.834A.53755.53755,0,0,1,64.89868,10.46146Z"/><path class="b" d="M66.802,22.70451a.52728.52728,0,0,1-.166-.385v-1.892a.5174.5174,0,0,1,.166-.39606.54625.54625,0,0,1,.38477-.154h5.52148v-4.07a2.197,2.197,0,0,0-2.48535-2.486H67.40649a.51479.51479,0,0,1-.3955-.165.57009.57009,0,0,1-.1543-.407v-1.892a.51661.51661,0,0,1,.165-.396.548.548,0,0,1,.38476-.154h2.92579a7.17055,7.17055,0,0,1,4.65332,1.298,5.14747,5.14747,0,0,1,1.57324,4.202v4.07h.76953a.52648.52648,0,0,1,.5498.55005v1.892a.54629.54629,0,0,1-.15332.385.51859.51859,0,0,1-.39648.165H67.18677A.52648.52648,0,0,1,66.802,22.70451Z"/></svg>