<svg xmlns="http://www.w3.org/2000/svg" viewBox="0 0 69.43052 7.00903"><defs><style>.a,.b,.c{fill:none;}.a{stroke:#706f6f;stroke-width:2.08789px;}.a,.b{stroke-linecap:round;stroke-linejoin:round;}.b{stroke:#878787;stroke-width:0.9835px;}.c{stroke:#575756;stroke-miterlimit:10;stroke-width:0.41326px;}.d{fill:#9d9d9c;}.e{fill:#3c3c3b;}.f{fill:#ededed;}.g{fill:#c6c6c6;}.h{fill:#64c4ff;}.i{fill:#5083dc;}.j{fill:#314c87;}</style></defs><line class="a" x1="68.34989" y1="3.58046" x2="9.91278" y2="3.58046"/><line class="b" x1="68.34989" y1="3.33119" x2="9.91278" y2="3.33119"/><path class="c" d="M14.60936,4.62307V4.50279a7.3917,7.3917,0,0,1,0-1.83725V2.53108"/><path class="c" d="M13.80857,4.62307V4.50279a7.3917,7.3917,0,0,1,0-1.83725V2.53108"/><path class="c" d="M13.00778,4.62307V4.50279a7.3917,7.3917,0,0,1,0-1.83725V2.53108"/><path class="c" d="M12.207,4.62307V4.50279a7.3917,7.3917,0,0,1,0-1.83725V2.53108"/><path class="c" d="M67.92683,4.62307V4.50279a7.3917,7.3917,0,0,1,0-1.83725V2.53108"/><path class="c" d="M67.126,4.62307V4.50279a7.3917,7.3917,0,0,1,0-1.83725V2.53108"/><path class="c" d="M66.32525,4.62307V4.50279a7.39115,7.39115,0,0,1,0-1.83725V2.53108"/><path class="c" d="M65.52445,4.62307V4.50279a7.3917,7.3917,0,0,1,0-1.83725V2.53108"/><path class="c" d="M64.72366,4.62307V4.50279a7.3917,7.3917,0,0,1,0-1.83725V2.53108"/><path class="c" d="M63.92287,4.62307V4.50279a7.3917,7.3917,0,0,1,0-1.83725V2.53108"/><path class="c" d="M63.12208,4.62307V4.50279a7.3917,7.3917,0,0,1,0-1.83725V2.53108"/><path class="c" d="M62.32129,4.62307V4.50279a7.3917,7.3917,0,0,1,0-1.83725V2.53108"/><path class="c" d="M61.5205,4.62307V4.50279a7.3917,7.3917,0,0,1,0-1.83725V2.53108"/><path class="c" d="M60.71971,4.62307V4.50279a7.39115,7.39115,0,0,1,0-1.83725V2.53108"/><path class="c" d="M59.91891,4.62307V4.50279a7.3917,7.3917,0,0,1,0-1.83725V2.53108"/><path class="c" d="M59.11812,4.62307V4.50279a7.3917,7.3917,0,0,1,0-1.83725V2.53108"/><path class="c" d="M58.31733,4.62307V4.50279a7.3917,7.3917,0,0,1,0-1.83725V2.53108"/><path class="c" d="M57.51654,4.62307V4.50279a7.3917,7.3917,0,0,1,0-1.83725V2.53108"/><path class="c" d="M56.71575,4.62307V4.50279a7.3917,7.3917,0,0,1,0-1.83725V2.53108"/><path class="c" d="M55.915,4.62307V4.50279a7.39115,7.39115,0,0,1,0-1.83725V2.53108"/><path class="c" d="M55.11416,4.62307V4.50279a7.3917,7.3917,0,0,1,0-1.83725V2.53108"/><path class="c" d="M54.31337,4.62307V4.50279a7.3917,7.3917,0,0,1,0-1.83725V2.53108"/><path class="c" d="M53.51258,4.62307V4.50279a7.3917,7.3917,0,0,1,0-1.83725V2.53108"/><path class="c" d="M52.71179,4.62307V4.50279a7.3917,7.3917,0,0,1,0-1.83725V2.53108"/><polygon class="d" points="9.046 5.2 9.046 1.961 7.692 0.942 7.361 3.58 7.692 6.219 9.046 5.2"/><rect class="e" x="7.39415" y="3.0952" width="4.06678" height="0.97048" rx="0.48524" transform="translate(13.00798 -5.8471) rotate(90)"/><polygon class="f" points="7.692 0.942 0 3.58 7.692 6.219 7.361 3.58 7.692 0.942"/><polygon class="g" points="7.361 3.58 0 3.58 7.692 6.219 7.361 3.58"/><polygon class="h" points="57.183 4.361 60.296 7.009 69.431 7.009 66.317 4.361 57.183 4.361"/><polygon class="i" points="66.317 4.361 67.768 6.464 60.453 6.464 57.183 4.361 60.296 7.009 69.431 7.009 66.317 4.361"/><polygon class="j" points="66.317 4.361 57.69 4.792 57.183 4.361 66.317 4.361"/><polygon class="h" points="57.156 2.648 60.269 0 69.403 0 66.29 2.648 57.156 2.648"/><polygon class="j" points="67.534 1.589 57.156 2.648 66.29 2.648 67.534 1.589"/><polygon class="i" points="69.403 0 60.785 0.393 57.156 2.648 60.269 0 69.403 0"/></svg>