<svg xmlns="http://www.w3.org/2000/svg" xmlns:xlink="http://www.w3.org/1999/xlink" viewBox="0 0 319.41627 69.43052"><defs><style>.a,.b,.c{fill:none;}.a{stroke:#706f6f;stroke-width:4.8097px;}.a,.b{stroke-linecap:round;stroke-linejoin:round;}.b{stroke:#878787;stroke-width:2.26561px;}.c{stroke:#575756;stroke-miterlimit:10;stroke-width:0.952px;}.d{fill:#9d9d9c;}.e{fill:#3c3c3b;}.f{fill:#ededed;}.g{fill:#c6c6c6;}.h{fill:#bf614b;}.i{fill:#dc7751;}.j{fill:#874a31;}</style><symbol id="a" viewBox="0 0 16.146 159.942"><line class="a" x1="8.24803" y1="2.48936" x2="8.24803" y2="137.10638"/><line class="b" x1="7.6738" y1="2.48936" x2="7.6738" y2="137.10638"/><path class="c" d="M10.64981,126.28723h-.27707a17.02736,17.02736,0,0,1-4.23234,0H5.83066"/><path class="c" d="M10.64981,128.132h-.27707a17.02792,17.02792,0,0,1-4.23234,0H5.83066"/><path class="c" d="M10.64981,129.97668h-.27707a17.02792,17.02792,0,0,1-4.23234,0H5.83066"/><path class="c" d="M10.64981,131.8214h-.27707a17.02792,17.02792,0,0,1-4.23234,0H5.83066"/><path class="c" d="M10.64981,3.46394h-.27707a17.02792,17.02792,0,0,1-4.23234,0H5.83066"/><path class="c" d="M10.64981,5.30866h-.27707a17.02736,17.02736,0,0,1-4.23234,0H5.83066"/><path class="c" d="M10.64981,7.15338h-.27707a17.02736,17.02736,0,0,1-4.23234,0H5.83066"/><path class="c" d="M10.64981,8.9981h-.27707a17.02736,17.02736,0,0,1-4.23234,0H5.83066"/><path class="c" d="M10.64981,10.84282h-.27707a17.02736,17.02736,0,0,1-4.23234,0H5.83066"/><path class="c" d="M10.64981,12.68754h-.27707a17.02736,17.02736,0,0,1-4.23234,0H5.83066"/><path class="c" d="M10.64981,14.53226h-.27707a17.02736,17.02736,0,0,1-4.23234,0H5.83066"/><path class="c" d="M10.64981,16.377h-.27707a17.02736,17.02736,0,0,1-4.23234,0H5.83066"/><path class="c" d="M10.64981,18.22171h-.27707a17.02792,17.02792,0,0,1-4.23234,0H5.83066"/><path class="c" d="M10.64981,20.06643h-.27707a17.02792,17.02792,0,0,1-4.23234,0H5.83066"/><path class="c" d="M10.64981,21.91115h-.27707a17.02736,17.02736,0,0,1-4.23234,0H5.83066"/><path class="c" d="M10.64981,23.75587h-.27707a17.02736,17.02736,0,0,1-4.23234,0H5.83066"/><path class="c" d="M10.64981,25.60059h-.27707a17.02736,17.02736,0,0,1-4.23234,0H5.83066"/><path class="c" d="M10.64981,27.44531h-.27707a17.02736,17.02736,0,0,1-4.23234,0H5.83066"/><path class="c" d="M10.64981,29.29h-.27707a17.02736,17.02736,0,0,1-4.23234,0H5.83066"/><path class="c" d="M10.64981,31.13475h-.27707a17.02736,17.02736,0,0,1-4.23234,0H5.83066"/><path class="c" d="M10.64981,32.97947h-.27707a17.02736,17.02736,0,0,1-4.23234,0H5.83066"/><path class="c" d="M10.64981,34.8242h-.27707a17.02792,17.02792,0,0,1-4.23234,0H5.83066"/><path class="c" d="M10.64981,36.66892h-.27707a17.02792,17.02792,0,0,1-4.23234,0H5.83066"/><path class="c" d="M10.64981,38.51364h-.27707a17.02736,17.02736,0,0,1-4.23234,0H5.83066"/><polygon class="d" points="11.978 139.102 4.518 139.102 2.17 142.222 8.248 142.986 14.326 142.222 11.978 139.102"/><rect class="e" x="3.56382" y="137.10638" width="9.36833" height="2.23562" rx="1.11781"/><polygon class="f" points="2.17 142.222 8.248 159.942 14.326 142.222 8.248 142.986 2.17 142.222"/><polygon class="g" points="8.248 142.986 8.248 159.942 14.326 142.222 8.248 142.986"/><polygon class="h" points="10.046 28.213 16.146 21.041 16.146 0 10.046 7.171 10.046 28.213"/><polygon class="i" points="10.046 7.171 14.89 3.83 14.89 20.681 10.046 28.213 16.146 21.041 16.146 0 10.046 7.171"/><polygon class="j" points="10.046 7.171 11.039 27.046 10.046 28.213 10.046 7.171"/><polygon class="h" points="6.1 28.277 0 21.105 0 0.064 6.1 7.235 6.1 28.277"/><polygon class="j" points="3.661 4.368 6.1 28.277 6.1 7.235 3.661 4.368"/><polygon class="i" points="0 0.064 0.906 19.915 6.1 28.277 0 21.105 0 0.064"/></symbol></defs><use width="16.14616" height="159.94169" transform="matrix(0.4341, 0, 0, -0.4341, 0, 69.43052)" xlink:href="#a"/><use width="16.14616" height="159.94169" transform="translate(48.85841) scale(0.4341)" xlink:href="#a"/><use width="16.14616" height="159.94169" transform="translate(94.27809) scale(0.4341)" xlink:href="#a"/><use width="16.14616" height="159.94169" transform="translate(158.87047 2.82274) rotate(90) scale(0.4341)" xlink:href="#a"/><use width="16.14616" height="159.94169" transform="translate(236.71598 19.01213) rotate(90) scale(0.4341)" xlink:href="#a"/><use width="16.14616" height="159.94169" transform="translate(236.71598 42.19371) rotate(90) scale(0.4341)" xlink:href="#a"/><use width="16.14616" height="159.94169" transform="translate(312.40724) scale(0.4341)" xlink:href="#a"/><use width="16.14616" height="159.94169" transform="matrix(0.4341, 0, 0, -0.4341, 147.12516, 69.43052)" xlink:href="#a"/><use width="16.14616" height="159.94169" transform="matrix(0, 0.4341, 0.4341, 0, 89.43995, 61.17567)" xlink:href="#a"/></svg>