<svg xmlns="http://www.w3.org/2000/svg" viewBox="0 0 59.52454 16.04432"><defs><style>.a{opacity:0.9;}.b{fill:#e7ff00;}</style></defs><g class="a"><path class="b" d="M56.98415,14.87654c-2.572,2.434-3.00428-.99165-6.54542-.99165s-3.54113,2.15943-7.08226,2.15943c-3.54119,0-3.54119-.76939-7.08239-.76939-3.54211,0-3.54211.23529-7.08421.23529-3.54019,0-3.54019.4218-7.08038.4218-3.54327,0-3.54327-.526-7.08653-.526-3.5457,0-3.5457-1.37728-7.0914-1.37728s-3.67822,2.96573-6.25514.53027c-2.43546-2.30178-.44275-2.46623-.44275-5.81729s-2.63585-4.19627-.20186-6.4996c2.572-2.434,3.34948-1.14145,6.89062-1.14145S11.46356.76553,15.00469.76553c3.54119,0,3.54119,1.91252,7.08239,1.91252,3.54211,0,3.54211-.59222,7.08421-.59222,3.54019,0,3.54019,1.5284,7.08038,1.5284,3.54327,0,3.54327-2.02793,7.08653-2.02793,3.5457,0,3.5457.203,7.0914.203S56.03051-1.5454,58.60743.89006c2.43547,2.30177-.81794,4.39833-.224,7.69633C58.967,11.82646,59.41813,12.5732,56.98415,14.87654Z"/></g></svg>