<svg xmlns="http://www.w3.org/2000/svg" viewBox="0 0 334.69064 56.2788"><defs><style>.a,.b,.f{fill:none;}.a{stroke:#706f6f;stroke-width:7.59574px;}.a,.b{stroke-linecap:round;stroke-linejoin:round;}.b{stroke:#878787;stroke-width:2.53191px;}.c{fill:#9d9d9c;}.d{fill:#3c3c3b;}.e{fill:#ededed;}.f{stroke:#575756;stroke-miterlimit:10;stroke-width:1.89894px;}.g{fill:#c6c6c6;}.h{fill:#cb8652;}.i{fill:#e8a257;}.j{fill:#936836;}.k{fill:#fff;}</style></defs><line class="a" x1="330.89279" y1="28.70504" x2="26.08217" y2="28.70504"/><line class="b" x1="330.89279" y1="28.1394" x2="26.08217" y2="28.1394"/><polygon class="c" points="23.802 32.965 23.802 24.445 20.239 21.763 19.367 28.705 20.239 35.647 23.802 32.965"/><rect class="d" x="19.45523" y="27.42823" width="10.70039" height="2.5535" rx="1.27675" transform="translate(53.5104 3.89956) rotate(90)"/><polygon class="e" points="20.239 21.763 0 28.705 20.239 35.647 19.367 28.705 20.239 21.763"/><path class="f" d="M53.47533,32.50291v-.4354a16.72275,16.72275,0,0,1,0-6.65079V24.93"/><path class="f" d="M48.80466,32.50291v-.4354a16.72275,16.72275,0,0,1,0-6.65079V24.93"/><path class="f" d="M44.134,32.50291v-.4354a16.72275,16.72275,0,0,1,0-6.65079V24.93"/><path class="f" d="M39.4633,32.50291v-.4354a16.72275,16.72275,0,0,1,0-6.65079V24.93"/><path class="f" d="M327.088,32.50291v-.4354a16.72275,16.72275,0,0,1,0-6.65079V24.93"/><path class="f" d="M322.41736,32.50291v-.4354a16.72275,16.72275,0,0,1,0-6.65079V24.93"/><path class="f" d="M317.74669,32.50291v-.4354a16.72275,16.72275,0,0,1,0-6.65079V24.93"/><path class="f" d="M313.076,32.50291v-.4354a16.72275,16.72275,0,0,1,0-6.65079V24.93"/><path class="f" d="M308.40533,32.50291v-.4354a16.72275,16.72275,0,0,1,0-6.65079V24.93"/><path class="f" d="M303.73466,32.50291v-.4354a16.72275,16.72275,0,0,1,0-6.65079V24.93"/><path class="f" d="M299.064,32.50291v-.4354a16.72275,16.72275,0,0,1,0-6.65079V24.93"/><path class="f" d="M294.3933,32.50291v-.4354a16.72275,16.72275,0,0,1,0-6.65079V24.93"/><path class="f" d="M289.72263,32.50291v-.4354a16.72275,16.72275,0,0,1,0-6.65079V24.93"/><path class="f" d="M285.05195,32.50291v-.4354a16.72275,16.72275,0,0,1,0-6.65079V24.93"/><path class="f" d="M280.38127,32.50291v-.4354a16.723,16.723,0,0,1,0-6.65079V24.93"/><path class="f" d="M275.7106,32.50291v-.4354a16.72275,16.72275,0,0,1,0-6.65079V24.93"/><polygon class="g" points="19.367 28.705 0 28.705 20.239 35.647 19.367 28.705"/><polygon class="h" points="290.686 31.5 301.415 40.626 332.894 40.626 322.165 31.5 290.686 31.5"/><polygon class="i" points="322.165 31.5 327.164 38.746 301.954 38.746 290.686 31.5 301.415 40.626 332.894 40.626 322.165 31.5"/><polygon class="j" points="322.165 31.5 292.431 32.984 290.686 31.5 322.165 31.5"/><polygon class="h" points="290.686 25.78 301.415 16.654 332.894 16.654 322.165 25.78 290.686 25.78"/><polygon class="j" points="326.455 22.131 290.686 25.78 322.165 25.78 326.455 22.131"/><polygon class="i" points="332.894 16.654 303.195 18.009 290.686 25.78 301.415 16.654 332.894 16.654"/><rect class="k" x="36.01982" y="10.08945" width="250.83123" height="36.09991" rx="6.92596"/><path class="d" d="M54.90316,26.93134v5.47205a.40069.40069,0,0,1-.41407.41394h-.75585a.40069.40069,0,0,1-.41407-.41394V27.02131q0-3.09558-3.0957-3.09595h-1.2959q-.18018,1.134-.26123,1.881a13.48157,13.48157,0,0,0-.063,1.70105l.03614,4.896a.40069.40069,0,0,1-.41407.41394l-2.502-.036a.40048.40048,0,0,1-.41406-.41406v-.53992a.40048.40048,0,0,1,.41406-.41394l1.38574.01794v-3.852q-.01758-1.134.04492-1.917a11.1258,11.1258,0,0,1,.29688-1.73694h-.97168a.41963.41963,0,0,1-.29688-.108.37259.37259,0,0,1-.11718-.288v-.576a.39551.39551,0,0,1,.11718-.306.41951.41951,0,0,1,.29688-.10791h3.85205Q54.90316,22.53938,54.90316,26.93134Z"/><path class="d" d="M57.72005,32.70026a.40124.40124,0,0,1-.1167-.29687V22.95332a.39525.39525,0,0,1,.1167-.306.42072.42072,0,0,1,.29736-.10791h.792a.39972.39972,0,0,1,.41357.41394v9.45007a.39992.39992,0,0,1-.41357.41394h-.792A.40158.40158,0,0,1,57.72005,32.70026Z"/><path class="d" d="M62.00374,28.52436a.40152.40152,0,0,1-.1167-.297v-5.274a.39525.39525,0,0,1,.1167-.306.42116.42116,0,0,1,.29688-.10791h.792a.39975.39975,0,0,1,.41406.41394v5.274a.39975.39975,0,0,1-.41406.41394h-.792A.40237.40237,0,0,1,62.00374,28.52436Z"/><path class="d" d="M71.1932,32.45734a.32472.32472,0,0,1-.11719.261.41737.41737,0,0,1-.2793.099H65.99105a.40067.40067,0,0,1-.41406-.41394v-.57605a.40048.40048,0,0,1,.41406-.41394H69.537l-.28809-4.572q-.09009-1.17-.189-1.719a1.636,1.636,0,0,0-.44092-.89111,1.44925,1.44925,0,0,0-1.062-.34192h-.7378a.42165.42165,0,0,1-.29736-.108.37239.37239,0,0,1-.1167-.288v-.576a.39975.39975,0,0,1,.41406-.41394h.7378a3.3019,3.3019,0,0,1,1.98877.51293,2.60028,2.60028,0,0,1,.9541,1.413,11.21988,11.21988,0,0,1,.35107,2.358l.34229,5.61609Z"/><path class="d" d="M83.56722,22.65632a.40267.40267,0,0,1,.11719.297v5.004a5.47429,5.47429,0,0,1-.6211,2.655,4.2209,4.2209,0,0,1-1.74609,1.746,5.105,5.105,0,0,1-2.583.567h-1.332a4.13487,4.13487,0,0,1-2.10547-.54,3.80961,3.80961,0,0,1-1.46728-1.521,4.66984,4.66984,0,0,1-.53077-2.259v-5.652a.3938.3938,0,0,1,.11719-.306.41951.41951,0,0,1,.29688-.10791h.70215a.39972.39972,0,0,1,.41357.41394l.0542,5.11194a3.20117,3.20117,0,0,0,2.27685-.882,2.9639,2.9639,0,0,0,.63916-1.98v-2.25a.40049.40049,0,0,1,.41407-.41394h.70215a.39972.39972,0,0,1,.41357.41394v2.322a3.88627,3.88627,0,0,1-1.09814,2.844,4.67539,4.67539,0,0,1-3.22168,1.224,2.84507,2.84507,0,0,0,1.0708,1.611,3.12036,3.12036,0,0,0,1.88134.567h.57569a3.4373,3.4373,0,0,0,2.66406-.99,3.74021,3.74021,0,0,0,.9541-2.682v-4.896a.39972.39972,0,0,1,.41358-.41394h.70214A.40257.40257,0,0,1,83.56722,22.65632Z"/><path class="d" d="M92.12581,32.5384a3.73923,3.73923,0,0,1-1.55664-1.197,2.81263,2.81263,0,0,1-.56738-1.53.33662.33662,0,0,1,.1084-.261.38539.38539,0,0,1,.27-.099h.81006a.58926.58926,0,0,1,.32373.08094.5509.5509,0,0,1,.19775.31506,1.86828,1.86828,0,0,0,1.01758,1.296,4.20007,4.20007,0,0,0,1.84473.37793,3.17488,3.17488,0,0,0,2.061-.621,2.15166,2.15166,0,0,0,.76514-1.77307q0-2.1958-2.68213-2.19593H93.0262a.40067.40067,0,0,1-.41406-.41394v-.468a.63708.63708,0,0,1,.19824-.468l3.50977-3.88806H90.992a.4204.4204,0,0,1-.29687-.108.37236.37236,0,0,1-.11719-.288v-.64795a.42586.42586,0,0,1,.11719-.31506.40255.40255,0,0,1,.29687-.11695H98.12a.40279.40279,0,0,1,.43213.432v.594a.65825.65825,0,0,1-.18017.41394l-3.50977,3.942h.28809a4.59932,4.59932,0,0,1,2.90722.954,3.241,3.241,0,0,1,1.07032,2.628,3.528,3.528,0,0,1-.585,2.043A3.74037,3.74037,0,0,1,96.9139,32.5384a5.8019,5.8019,0,0,1-2.35791.459A5.917,5.917,0,0,1,92.12581,32.5384Z"/><path class="d" d="M101.35091,28.02937a.37254.37254,0,0,1-.1167-.28809v-.64795a.39994.39994,0,0,1,.41406-.41406h5.39942a.39994.39994,0,0,1,.41406.41406v.64795a.3742.3742,0,0,1-.1167.28809.42155.42155,0,0,1-.29736.10791h-5.39942A.42159.42159,0,0,1,101.35091,28.02937Z"/><path class="d" d="M109.02816,32.70026a.41938.41938,0,0,1-.1084-.29687v-.57605a.42052.42052,0,0,1,.1084-.297.37387.37387,0,0,1,.28808-.11694h5.20215V27.02131q0-3.078-3.09619-3.078h-1.92627a.373.373,0,0,1-.28809-.11695.42123.42123,0,0,1-.10742-.297v-.576a.42206.42206,0,0,1,.10742-.297.37389.37389,0,0,1,.28809-.11694H111.512q4.60767,0,4.60791,4.40991V31.4134h.68409a.37388.37388,0,0,1,.28808.11694.42237.42237,0,0,1,.10791.297v.57605a.42122.42122,0,0,1-.10791.29687.37269.37269,0,0,1-.28808.11707h-7.4878A.37268.37268,0,0,1,109.02816,32.70026Z"/><path class="d" d="M123.41878,32.70026a.40161.40161,0,0,1-.11719-.29687V22.95332a.39551.39551,0,0,1,.11719-.306.42033.42033,0,0,1,.29688-.10791H127.118a4.73826,4.73826,0,0,1,3.42871,1.0979,4.40865,4.40865,0,0,1,1.125,3.29406v5.47205a.40069.40069,0,0,1-.41406.41394h-7.542A.40123.40123,0,0,1,123.41878,32.70026Zm6.70508-1.28686V27.02131q0-3.09558-3.09619-3.09595h-2.23193v7.488Z"/><path class="d" d="M134.36263,28.52436a.40148.40148,0,0,1-.1167-.297v-5.274a.39521.39521,0,0,1,.1167-.306.42032.42032,0,0,1,.29687-.10791h.792a.39975.39975,0,0,1,.41406.41394v5.274a.39975.39975,0,0,1-.41406.41394h-.792A.40159.40159,0,0,1,134.36263,28.52436Z"/><path class="d" d="M145.04574,27.09333a3.71965,3.71965,0,0,1-1.69239,1.512l1.87207,2.70008a.86382.86382,0,0,1,.21582.53991v.55811a.39992.39992,0,0,1-.41357.41394h-6.48a.40067.40067,0,0,1-.41406-.41394v-.594a.37321.37321,0,0,1,.11718-.28809.41955.41955,0,0,1,.29688-.10791h4.896l-5.63427-8.17212a.78941.78941,0,0,1-.14356-.34192.33266.33266,0,0,1,.1167-.25207.39611.39611,0,0,1,.27881-.10791h.792a.57923.57923,0,0,1,.48633.288l3.22168,4.64392a2.927,2.927,0,0,0,1.53027-2.9519v-1.566a.39551.39551,0,0,1,.11719-.306.41951.41951,0,0,1,.29688-.10791h.70214a.40049.40049,0,0,1,.41407.41394v1.764A4.64738,4.64738,0,0,1,145.04574,27.09333Z"/><path class="d" d="M148.07845,28.52436a.40148.40148,0,0,1-.1167-.297v-5.274a.39521.39521,0,0,1,.1167-.306.42032.42032,0,0,1,.29687-.10791h.792a.39975.39975,0,0,1,.41406.41394v5.274a.39975.39975,0,0,1-.41406.41394h-.792A.40159.40159,0,0,1,148.07845,28.52436Z"/><path class="d" d="M152.36214,32.70026a.40161.40161,0,0,1-.11719-.29687V22.95332a.39551.39551,0,0,1,.11719-.306.42033.42033,0,0,1,.29688-.10791h3.45605a4.77374,4.77374,0,0,1,3.45606,1.10693,4.44543,4.44543,0,0,1,1.13378,3.321v5.436a.39993.39993,0,0,1-.41406.41394H159.535a.40069.40069,0,0,1-.41406-.41394V27.02131q0-3.09558-3.0957-3.09595h-2.19629v8.478a.39994.39994,0,0,1-.41406.41394H152.659A.40123.40123,0,0,1,152.36214,32.70026Z"/><path class="d" d="M171.10872,32.70026a.42126.42126,0,0,1-.10791-.29687V22.25129l-3.02392,2.322a.40956.40956,0,0,1-.27.108.39988.39988,0,0,1-.30615-.18l-.43213-.558a.43041.43041,0,0,1-.08985-.252.38189.38189,0,0,1,.17969-.32409l3.90625-3.02393a.85479.85479,0,0,1,.46777-.126h.84668a.39974.39974,0,0,1,.41358.41395V32.40339a.39992.39992,0,0,1-.41358.41394h-.88232A.372.372,0,0,1,171.10872,32.70026Z"/><path class="d" d="M176.37337,31.63838a5.89869,5.89869,0,0,1-1.14306-3.55506l-.01758-1.548.01758-1.60205a5.72181,5.72181,0,0,1,1.14306-3.537,4.93783,4.93783,0,0,1,6.8042,0,5.7216,5.7216,0,0,1,1.14258,3.537q.01831.50409.01855,1.60205,0,1.0622-.01855,1.548a5.90166,5.90166,0,0,1-1.14258,3.55506,4.93786,4.93786,0,0,1-6.8042,0Zm5.481-1.05311a4.3531,4.3531,0,0,0,.73828-2.59191q.01758-.52185.01758-1.494,0-.98969-.01758-1.47608a4.324,4.324,0,0,0-.74707-2.583,2.46085,2.46085,0,0,0-2.0791-.92688,2.436,2.436,0,0,0-2.07031.92688,4.36131,4.36131,0,0,0-.7378,2.583l-.01806,1.47608.01806,1.494a4.3497,4.3497,0,0,0,.7378,2.59191,2.81315,2.81315,0,0,0,4.1582,0Z"/><path class="d" d="M187.76741,31.63838a5.8985,5.8985,0,0,1-1.14257-3.55506l-.01856-1.548.01856-1.60205a5.71856,5.71856,0,0,1,1.14257-3.537,4.93783,4.93783,0,0,1,6.8042,0,5.72175,5.72175,0,0,1,1.14307,3.537q.01758.50409.01758,1.60205,0,1.0622-.01758,1.548a5.9083,5.9083,0,0,1-1.14307,3.55506,4.93786,4.93786,0,0,1-6.8042,0Zm5.481-1.05311a4.34628,4.34628,0,0,0,.73779-2.59191q.01831-.52185.01856-1.494,0-.98969-.01856-1.47608a4.31725,4.31725,0,0,0-.74658-2.583,2.46085,2.46085,0,0,0-2.0791-.92688,2.43441,2.43441,0,0,0-2.06982.92688,4.35786,4.35786,0,0,0-.73828,2.583l-.01758,1.47608.01758,1.494a4.34627,4.34627,0,0,0,.73828,2.59191,2.8126,2.8126,0,0,0,4.15771,0Z"/><path class="d" d="M209.65511,32.70026a.40161.40161,0,0,1-.11719-.29687V27.02131q0-3.09558-3.07763-3.09595h-3.34815a.42042.42042,0,0,1-.29687-.108.37256.37256,0,0,1-.11719-.288v-.576a.39548.39548,0,0,1,.11719-.306.42029.42029,0,0,1,.29687-.10791h3.43848q4.57177,0,4.57129,4.428v5.436a.39992.39992,0,0,1-.41358.41394H209.952A.40123.40123,0,0,1,209.65511,32.70026Zm-6.83984,0a.40158.40158,0,0,1-.11719-.29687v-6.0481a.40051.40051,0,0,1,.41406-.41394h.75586a.39976.39976,0,0,1,.41406.41394v6.0481a.39994.39994,0,0,1-.41406.41394h-.75586A.40119.40119,0,0,1,202.81527,32.70026Z"/><path class="d" d="M218.96126,32.70026a.40124.40124,0,0,1-.1167-.29687V27.02131q0-3.09558-3.09619-3.09595h-2.32178a.42084.42084,0,0,1-.29736-.108.37225.37225,0,0,1-.1167-.288v-.576a.39975.39975,0,0,1,.41406-.41394h2.42969q4.57178,0,4.57227,4.392v5.47205a.40069.40069,0,0,1-.41406.41394h-.75586A.40158.40158,0,0,1,218.96126,32.70026Z"/><path class="d" d="M223.119,28.52436a.40186.40186,0,0,1-.11719-.297v-5.274a.39548.39548,0,0,1,.11719-.306.42031.42031,0,0,1,.29687-.10791h.792a.40049.40049,0,0,1,.41407.41394v5.274a.40049.40049,0,0,1-.41407.41394h-.792A.40157.40157,0,0,1,223.119,28.52436Z"/><path class="d" d="M227.27718,28.52436a.4019.4019,0,0,1-.11719-.297v-5.274a.39551.39551,0,0,1,.11719-.306.41951.41951,0,0,1,.29688-.10791h.792a.40049.40049,0,0,1,.41406.41394v5.274a.40049.40049,0,0,1-.41406.41394h-.792A.40083.40083,0,0,1,227.27718,28.52436Z"/><path class="d" d="M238.2474,23.92536h-2.646a.37157.37157,0,0,1-.396-.396v-.576a.4224.4224,0,0,1,.10791-.297.37389.37389,0,0,1,.28809-.11694h2.73633a4.85134,4.85134,0,0,1,3.45605,1.08,4.37772,4.37772,0,0,1,1.13379,3.312v7.704a.4007.4007,0,0,1-.41406.41407h-.75586a.4196.4196,0,0,1-.29688-.108.39551.39551,0,0,1-.11718-.306v-7.614Q241.34359,23.92573,238.2474,23.92536Z"/><path class="d" d="M245.61849,28.52436a.40148.40148,0,0,1-.1167-.297v-5.274a.39521.39521,0,0,1,.1167-.306.42032.42032,0,0,1,.29687-.10791h.792a.39975.39975,0,0,1,.41406.41394v5.274a.39975.39975,0,0,1-.41406.41394h-.792A.40159.40159,0,0,1,245.61849,28.52436Z"/><path class="d" d="M254.80745,32.45734a.32472.32472,0,0,1-.11718.261.41737.41737,0,0,1-.2793.099h-4.80566a.40069.40069,0,0,1-.41407-.41394v-.57605a.40049.40049,0,0,1,.41407-.41394h3.54589l-.28808-4.572q-.09009-1.17-.189-1.719a1.636,1.636,0,0,0-.44091-.89111,1.44928,1.44928,0,0,0-1.062-.34192h-.73779a.42163.42163,0,0,1-.29736-.108.37239.37239,0,0,1-.1167-.288v-.576a.39975.39975,0,0,1,.41406-.41394h.73779a3.30188,3.30188,0,0,1,1.98877.51293,2.60018,2.60018,0,0,1,.9541,1.413,11.21914,11.21914,0,0,1,.35108,2.358l.34228,5.61609Z"/><path class="d" d="M257.2098,32.70026a.4012.4012,0,0,1-.1167-.29687V22.95332a.39521.39521,0,0,1,.1167-.306.42151.42151,0,0,1,.29736-.10791h3.45557a4.77292,4.77292,0,0,1,3.45605,1.10693,4.44362,4.44362,0,0,1,1.13428,3.321v5.436a.39994.39994,0,0,1-.41406.41394h-.75586a.39995.39995,0,0,1-.41407-.41394V27.02131q0-3.09558-3.09619-3.09595h-2.1958v8.478a.39994.39994,0,0,1-.41406.41394h-.75586A.40231.40231,0,0,1,257.2098,32.70026Z"/><path class="d" d="M275.2098,32.70026a.40158.40158,0,0,1-.11719-.29687V27.02131q0-3.09558-3.07764-3.09595h-3.34814a.42046.42046,0,0,1-.29688-.108.37259.37259,0,0,1-.11718-.288v-.576a.39551.39551,0,0,1,.11718-.306.42033.42033,0,0,1,.29688-.10791h3.43848q4.57178,0,4.57128,4.428v5.436a.3999.3999,0,0,1-.41357.41394h-.75635A.40121.40121,0,0,1,275.2098,32.70026Zm-6.83985,0a.40161.40161,0,0,1-.11718-.29687v-6.0481a.40049.40049,0,0,1,.41406-.41394h.75586a.39976.39976,0,0,1,.41406.41394v6.0481a.39994.39994,0,0,1-.41406.41394h-.75586A.40123.40123,0,0,1,268.37,32.70026Z"/></svg>