<svg xmlns="http://www.w3.org/2000/svg" viewBox="0 0 334.69068 56.27881"><defs><style>.a,.b,.f{fill:none;}.a{stroke:#727070;stroke-width:7.59574px;}.a,.b{stroke-linecap:round;stroke-linejoin:round;}.b{stroke:#878787;stroke-width:2.53191px;}.c{fill:#9e9d9c;}.d{fill:#3d3d3b;}.e{fill:#eeeded;}.f{stroke:#585857;stroke-miterlimit:10;stroke-width:1.89894px;}.g{fill:#c7c6c6;}.h{fill:#cfa2cb;}.i{fill:#e5b3d4;}.j{fill:#aa74a0;}.k{fill:#fff;}</style></defs><line class="a" x1="330.89281" y1="28.86216" x2="26.08219" y2="28.86216"/><line class="b" x1="330.89281" y1="28.29652" x2="26.08219" y2="28.29652"/><polygon class="c" points="23.802 33.122 23.802 24.602 20.239 21.92 19.367 28.862 20.239 35.804 23.802 33.122"/><rect class="d" x="19.45525" y="27.58536" width="10.70039" height="2.5535" rx="1.27675" transform="translate(53.66755 4.05667) rotate(90)"/><polygon class="e" points="20.239 21.92 0 28.862 20.239 35.804 19.367 28.862 20.239 21.92"/><path class="f" d="M53.47535,32.66v-.4354a16.72281,16.72281,0,0,1,0-6.6508v-.48673"/><path class="f" d="M48.80468,32.66v-.4354a16.72281,16.72281,0,0,1,0-6.6508v-.48673"/><path class="f" d="M44.134,32.66v-.4354a16.72281,16.72281,0,0,1,0-6.6508v-.48673"/><path class="f" d="M39.46332,32.66v-.4354a16.72281,16.72281,0,0,1,0-6.6508v-.48673"/><path class="f" d="M327.08806,32.66v-.4354a16.72281,16.72281,0,0,1,0-6.6508v-.48673"/><path class="f" d="M322.41739,32.66v-.4354a16.72281,16.72281,0,0,1,0-6.6508v-.48673"/><path class="f" d="M317.74671,32.66v-.4354a16.72281,16.72281,0,0,1,0-6.6508v-.48673"/><path class="f" d="M313.076,32.66v-.4354a16.72281,16.72281,0,0,1,0-6.6508v-.48673"/><path class="f" d="M308.40536,32.66v-.4354a16.72281,16.72281,0,0,1,0-6.6508v-.48673"/><path class="f" d="M303.73468,32.66v-.4354a16.72281,16.72281,0,0,1,0-6.6508v-.48673"/><path class="f" d="M299.064,32.66v-.4354a16.72281,16.72281,0,0,1,0-6.6508v-.48673"/><path class="f" d="M294.39333,32.66v-.4354a16.72281,16.72281,0,0,1,0-6.6508v-.48673"/><path class="f" d="M289.72265,32.66v-.4354a16.72281,16.72281,0,0,1,0-6.6508v-.48673"/><path class="f" d="M285.052,32.66v-.4354a16.72281,16.72281,0,0,1,0-6.6508v-.48673"/><path class="f" d="M280.3813,32.66v-.4354a16.72281,16.72281,0,0,1,0-6.6508v-.48673"/><path class="f" d="M275.71062,32.66v-.4354a16.72281,16.72281,0,0,1,0-6.6508v-.48673"/><polygon class="g" points="19.367 28.862 0 28.862 20.239 35.804 19.367 28.862"/><polygon class="h" points="290.686 31.657 301.415 40.783 332.894 40.783 322.165 31.657 290.686 31.657"/><polygon class="i" points="322.165 31.657 327.164 38.903 301.954 38.903 290.686 31.657 301.415 40.783 332.894 40.783 322.165 31.657"/><polygon class="j" points="322.165 31.657 292.432 33.142 290.686 31.657 322.165 31.657"/><polygon class="h" points="290.686 25.937 301.415 16.811 332.894 16.811 322.165 25.937 290.686 25.937"/><polygon class="j" points="326.455 22.288 290.686 25.937 322.165 25.937 326.455 22.288"/><polygon class="i" points="332.894 16.811 303.195 18.166 290.686 25.937 301.415 16.811 332.894 16.811"/><rect class="k" x="35.99856" width="250.83123" height="56.27881" rx="8.64767"/><path class="d" d="M77.399,22.72829a.40088.40088,0,0,1-.41406-.41406V12.864A.40088.40088,0,0,1,77.399,12.45h3.50977a5.8524,5.8524,0,0,1,2.56543.49512,3.27183,3.27183,0,0,1,1.52051,1.47558,5.35028,5.35028,0,0,1,.5039,2.457v5.43653a.40011.40011,0,0,1-.41357.41406H84.275a.393.393,0,0,1-.30566-.11719.41958.41958,0,0,1-.1084-.29687V16.93141a3.23717,3.23717,0,0,0-.71973-2.24023,2.983,2.983,0,0,0-2.32227-.80176H78.62263v8.42481a.42109.42109,0,0,1-.10743.29687.37388.37388,0,0,1-.28808.11719Z"/><path class="d" d="M88.57673,22.72829a.40088.40088,0,0,1-.41407-.41406V12.864a.40088.40088,0,0,1,.41407-.41406h.8457a.39556.39556,0,0,1,.30615.11719.4214.4214,0,0,1,.10791.29687v9.4502a.42142.42142,0,0,1-.10791.29687.39556.39556,0,0,1-.30615.11719Z"/><path class="d" d="M93.023,22.72829a.40013.40013,0,0,1-.41407-.41406V12.864A.40013.40013,0,0,1,93.023,12.45h.8457a.39445.39445,0,0,1,.30566.11719.41956.41956,0,0,1,.1084.29687v9.4502a.41958.41958,0,0,1-.1084.29687.39445.39445,0,0,1-.30566.11719Z"/><path class="d" d="M101.50056,22.908a4.494,4.494,0,0,1-3.47413-1.16992,4.64544,4.64544,0,0,1-1.062-3.24024V12.864a.40088.40088,0,0,1,.41407-.41406h.73828a.39519.39519,0,0,1,.30566.11719.41956.41956,0,0,1,.1084.29687V18.408a3.147,3.147,0,0,0,.73779,2.23144,3.60924,3.60924,0,0,0,4.41895.07227,3.12594,3.12594,0,0,0,.729-2.16016,4.97168,4.97168,0,0,0,.00879-.54883q-.00879-.36914-.00879-.74707V16.698a3.37694,3.37694,0,0,0-.63916-2.17774,2.00019,2.00019,0,0,0-1.57471-.68457,2.69626,2.69626,0,0,0-.70214.1084,2.24693,2.24693,0,0,0-.666.28809.36435.36435,0,0,1-.3418.00878.283.283,0,0,1-.18017-.27929v-.55762a1.23627,1.23627,0,0,1,.03564-.31543.4434.4434,0,0,1,.19824-.24316,3.72,3.72,0,0,1,.78321-.35059,3.659,3.659,0,0,1,1.08886-.13476,3.9886,3.9886,0,0,1,1.96192.44043,2.87415,2.87415,0,0,1,1.21484,1.35937,5.84039,5.84039,0,0,1,.44141,2.3584c.01172.12012.01758.32324.01758.61133v.88183q0,.45117-.01758.63086a5.75094,5.75094,0,0,1-.49512,2.33008,3.04187,3.04187,0,0,1-1.43994,1.44922A5.895,5.895,0,0,1,101.50056,22.908Z"/><path class="d" d="M108.19684,22.72829a.40088.40088,0,0,1-.41406-.41406v-.61231a.40088.40088,0,0,1,.41406-.41406h5.166V16.93141a3.235,3.235,0,0,0-.72021-2.24023,2.9819,2.9819,0,0,0-2.32178-.80176h-1.94434a.39934.39934,0,0,1-.41406-.41308V12.864a.40088.40088,0,0,1,.41406-.41406h2.03418a5.82389,5.82389,0,0,1,2.57422.50391,3.359,3.359,0,0,1,1.53906,1.48535,5.22553,5.22553,0,0,1,.5127,2.43847v4.41016h.666a.40088.40088,0,0,1,.41407.41406v.61231a.40088.40088,0,0,1-.41407.41406Z"/><path class="d" d="M122.59675,22.72829a.40013.40013,0,0,1-.41407-.41406V12.864a.40013.40013,0,0,1,.41407-.41406h3.438a5.7879,5.7879,0,0,1,2.55566.49512,3.24153,3.24153,0,0,1,1.50342,1.46679,5.33236,5.33236,0,0,1,.49463,2.42969v5.47266a.42109.42109,0,0,1-.10743.29687.39667.39667,0,0,1-.30664.11719Zm1.13427-1.44043h5.25586V16.93141a3.235,3.235,0,0,0-.72021-2.24023,2.98189,2.98189,0,0,0-2.32178-.80176H123.731Z"/><path class="d" d="M133.55866,18.55153a.39866.39866,0,0,1-.41406-.41406V12.864a.40013.40013,0,0,1,.41406-.41406h.86377a.3732.3732,0,0,1,.28809.11719.4196.4196,0,0,1,.10839.29687v5.27344a.422.422,0,0,1-.10839.29785.37251.37251,0,0,1-.28809.11621Z"/><path class="d" d="M137.51862,22.72829a.40013.40013,0,0,1-.41406-.41406v-.63086a.3986.3986,0,0,1,.41406-.41309h4.87793l-5.63428-8.11816c-.03613-.07227-.06591-.13477-.08984-.18946a.36794.36794,0,0,1-.03613-.15234.33416.33416,0,0,1,.11719-.25293.37838.37838,0,0,1,.26074-.10742h.86426a.43737.43737,0,0,1,.30566.09863,1.15379,1.15379,0,0,1,.18066.207l5.86768,8.40625a1.64453,1.64453,0,0,1,.15283.26075.69478.69478,0,0,1,.06348.29687v.59473a.40088.40088,0,0,1-.41406.41406Zm4.5542-4.10449-.792-1.16992a2.37305,2.37305,0,0,0,1.36767-1.125,4.0633,4.0633,0,0,0,.41407-1.917V12.864a.40011.40011,0,0,1,.41357-.41406h.75635a.37316.37316,0,0,1,.28808.11719.42141.42141,0,0,1,.10792.29687V14.6277a4.56049,4.56049,0,0,1-.648,2.48438A3.78947,3.78947,0,0,1,142.07282,18.6238Z"/><path class="d" d="M147.36432,18.55153a.39866.39866,0,0,1-.41406-.41406V12.864a.40013.40013,0,0,1,.41406-.41406h.86377a.3732.3732,0,0,1,.28809.11719.41956.41956,0,0,1,.1084.29687v5.27344a.422.422,0,0,1-.1084.29785.37251.37251,0,0,1-.28809.11621Z"/><path class="d" d="M151.70222,22.72829a.40013.40013,0,0,1-.41407-.41406V12.864a.40013.40013,0,0,1,.41407-.41406h3.51025a5.84931,5.84931,0,0,1,2.56445.49512,3.2762,3.2762,0,0,1,1.52149,1.47558,5.35028,5.35028,0,0,1,.5039,2.457v5.43653a.40086.40086,0,0,1-.41406.41406h-.81006a.39559.39559,0,0,1-.30615-.11719.42142.42142,0,0,1-.10791-.29687V16.93141a3.2349,3.2349,0,0,0-.72022-2.24023,2.98044,2.98044,0,0,0-2.32177-.80176h-2.1958v8.42481a.41962.41962,0,0,1-.1084.29687.37248.37248,0,0,1-.28809.11719Z"/><path class="d" d="M167.16364,18.55153a.39939.39939,0,0,1-.41406-.41406V12.864a.40088.40088,0,0,1,.41406-.41406h.86426a.37392.37392,0,0,1,.28809.11719.42145.42145,0,0,1,.10791.29687v5.27344a.42389.42389,0,0,1-.10791.29785.37322.37322,0,0,1-.28809.11621Z"/><path class="d" d="M176.90192,22.72829a.40088.40088,0,0,1-.41406-.41406V16.93141a3.235,3.235,0,0,0-.72021-2.24023,2.98119,2.98119,0,0,0-2.32178-.80176h-2.3584a.39932.39932,0,0,1-.41406-.41308V12.864a.40086.40086,0,0,1,.41406-.41406h2.44824a5.94139,5.94139,0,0,1,2.56494.48633,3.21647,3.21647,0,0,1,1.521,1.46679,5.30226,5.30226,0,0,1,.50391,2.43848v5.47266a.40088.40088,0,0,1-.41407.41406Z"/><path class="d" d="M181.0777,18.55153a.39939.39939,0,0,1-.41406-.41406V12.864a.40088.40088,0,0,1,.41406-.41406h.86426a.37285.37285,0,0,1,.2876.11719.4214.4214,0,0,1,.10791.29687v5.27344a.42385.42385,0,0,1-.10791.29785.37215.37215,0,0,1-.2876.11621Z"/><path class="d" d="M191.26569,13.92556,189.1236,13.908a.41962.41962,0,0,1-.29687-.1084.37177.37177,0,0,1-.11719-.28809V10.36208a.40086.40086,0,0,1,.41406-.41406h.75586a.39559.39559,0,0,1,.30615.11718.42144.42144,0,0,1,.10791.29688V12.45h1.0083Zm-.03564,8.96386a.32946.32946,0,0,1-.30664-.04492.31745.31745,0,0,1-.14356-.27832v-.82812a.453.453,0,0,1,.09864-.28809.64637.64637,0,0,1,.29687-.19824l.70215-.26953a6.57493,6.57493,0,0,0,1.28711-.73829,2.8823,2.8823,0,0,0,.918-1.18847,4.96685,4.96685,0,0,0,.333-1.97949,5.09747,5.09747,0,0,0-.2788-1.86329,1.769,1.769,0,0,0-.936-.99023,4.44412,4.44412,0,0,0-1.791-.29687h-.54a.40088.40088,0,0,1-.41407-.41407V12.864a.40088.40088,0,0,1,.41407-.41406h.792a6.09443,6.09443,0,0,1,2.61035.46777,2.77137,2.77137,0,0,1,1.39453,1.50293,7.26192,7.26192,0,0,1,.42285,2.709,6.248,6.248,0,0,1-.34179,2.17773,4.81707,4.81707,0,0,1-.92676,1.56641,5.39157,5.39157,0,0,1-1.32324,1.07129,8.70272,8.70272,0,0,1-1.53028.69238Z"/><path class="d" d="M200.8238,21.81032a7.24145,7.24145,0,0,1-1.251.69238,6.47339,6.47339,0,0,1-1.21533.36914.61855.61855,0,0,1-.30615-.03613.22584.22584,0,0,1-.126-.2334v-.90039c0-.2041.126-.35351.37793-.45019q.126-.05421.46826-.1709.342-.11719.73779-.2793a4.48052,4.48052,0,0,0,.68409-.3418,4.6737,4.6737,0,0,0,.88232-.74707,5.55942,5.55942,0,0,0,.72852-.9541,1.75454,1.75454,0,0,0,.29736-.873l1.04394-.126a4.38614,4.38614,0,0,1-.34228,1.56641,5.74269,5.74269,0,0,1-.8457,1.43945A4.87044,4.87044,0,0,1,200.8238,21.81032Zm2.32177.918a.34382.34382,0,0,1-.2788-.11719.64189.64189,0,0,1-.13526-.29687l-1.09814-5.52637a9.52817,9.52817,0,0,0-.42285-1.59277,2.27658,2.27658,0,0,0-.648-.97266,1.69439,1.69439,0,0,0-1.10694-.333h-.64843a.39857.39857,0,0,1-.41358-.41308V12.8279a.40009.40009,0,0,1,.41358-.41406h.666a3.53953,3.53953,0,0,1,1.94434.47656,3.29046,3.29046,0,0,1,1.17871,1.43164,10.86994,10.86994,0,0,1,.72949,2.376l1.09766,5.61621a.29184.29184,0,0,1-.09864.29687.46708.46708,0,0,1-.31543.11719Z"/><path class="d" d="M211.35309,22.72829a.40088.40088,0,0,1-.41406-.41406V16.93141a3.23479,3.23479,0,0,0-.71972-2.24023,2.98166,2.98166,0,0,0-2.32227-.80176h-2.35742a.39932.39932,0,0,1-.41406-.41308V12.864a.40086.40086,0,0,1,.41406-.41406h2.44775a5.94139,5.94139,0,0,1,2.56494.48633,3.21865,3.21865,0,0,1,1.521,1.46679,5.30209,5.30209,0,0,1,.50439,2.43848v5.47266a.40086.40086,0,0,1-.41406.41406Z"/><path class="d" d="M217.58161,13.00759h.44971a.5458.5458,0,0,1,.40478.13574.398.398,0,0,1,.11719.333q-.14429.75585-.24316,1.36718a12.1596,12.1596,0,0,0-.13477,1.21485q-.03662.60351-.03613,1.35937l.05371,4.89649a.40011.40011,0,0,1-.41358.41406l-2.55615-.03613a.41961.41961,0,0,1-.29687-.1084.3952.3952,0,0,1-.11719-.30567v-.57617a.40088.40088,0,0,1,.41406-.41406l1.38574.01758V17.49q0-.73829.01856-1.35938a11.148,11.148,0,0,1,.10742-1.251,14.46441,14.46441,0,0,1,.28809-1.42188.758.758,0,0,1,.17138-.32422A.50761.50761,0,0,1,217.58161,13.00759Zm-1.62012.88183a.39934.39934,0,0,1-.41406-.41308V12.864a.40088.40088,0,0,1,.41406-.41406h3.90576a5.85019,5.85019,0,0,1,2.56495.49512,3.27289,3.27289,0,0,1,1.521,1.47558,5.25886,5.25886,0,0,1,.5044,2.4209v5.47266a.40088.40088,0,0,1-.41407.41406H223.233a.3952.3952,0,0,1-.30567-.11719.41929.41929,0,0,1-.10791-.29687V16.93141a3.235,3.235,0,0,0-.72021-2.24023,2.98118,2.98118,0,0,0-2.32178-.80176Z"/><path class="d" d="M227.40925,18.55153a.39866.39866,0,0,1-.41407-.41406V12.864a.40013.40013,0,0,1,.41407-.41406h.86377a.37318.37318,0,0,1,.28808.11719.41956.41956,0,0,1,.1084.29687v5.27344a.422.422,0,0,1-.1084.29785.37248.37248,0,0,1-.28808.11621Z"/><path class="d" d="M241.17927,16.93141a3.20979,3.20979,0,0,0-.729-2.24023,3.01155,3.01155,0,0,0-2.33056-.80176h-2.64649a.39934.39934,0,0,1-.41406-.41308V12.864a.40088.40088,0,0,1,.41406-.41406h2.73633a6.10312,6.10312,0,0,1,2.583.47656,3.20087,3.20087,0,0,1,1.52051,1.44043,5.32157,5.32157,0,0,1,.50439,2.47461v7.7041a.40086.40086,0,0,1-.41406.41406h-.81006a.39452.39452,0,0,1-.30567-.11718.41964.41964,0,0,1-.10839-.29688Z"/><path class="d" d="M245.76911,18.55153a.39866.39866,0,0,1-.41406-.41406V12.864a.40013.40013,0,0,1,.41406-.41406h.86377a.37213.37213,0,0,1,.2876.11719.41961.41961,0,0,1,.1084.29687v5.27344a.422.422,0,0,1-.1084.29785.37143.37143,0,0,1-.2876.11621Z"/><path class="d" d="M249.53083,22.72829a.40086.40086,0,0,1-.41406-.41406v-.61231a.40086.40086,0,0,1,.41406-.41406H254.607v1.09766a.29663.29663,0,0,1-.11719.26171.51287.51287,0,0,1-.29687.08106Zm3.97754,0a.34281.34281,0,0,1-.27832-.11719.64189.64189,0,0,1-.13526-.29687l-.34228-5.5625a14.24511,14.24511,0,0,0-.13477-1.53028,1.86381,1.86381,0,0,0-.43213-1.00781,1.45578,1.45578,0,0,0-1.10693-.35937h-.73828a.40011.40011,0,0,1-.41358-.41407v-.6123a.40009.40009,0,0,1,.41358-.41406h.75635a3.90865,3.90865,0,0,1,1.65576.29687,2.262,2.262,0,0,1,.98144.86426,4.02955,4.02955,0,0,1,.50391,1.3584,13.30854,13.30854,0,0,1,.207,1.76465l.3418,5.61621a.33972.33972,0,0,1-.10791.29687.434.434,0,0,1-.30615.11719Z"/><path class="d" d="M257.43268,22.72829a.40013.40013,0,0,1-.41406-.41406V12.864a.40013.40013,0,0,1,.41406-.41406h3.51026a5.84931,5.84931,0,0,1,2.56445.49512,3.2762,3.2762,0,0,1,1.52149,1.47558,5.35028,5.35028,0,0,1,.5039,2.457v5.43653a.40088.40088,0,0,1-.41406.41406h-.81006a.39558.39558,0,0,1-.30615-.11719.42142.42142,0,0,1-.10791-.29687V16.93141a3.235,3.235,0,0,0-.72022-2.24023,2.98044,2.98044,0,0,0-2.32177-.80176h-2.1958v8.42481a.41962.41962,0,0,1-.1084.29687.37248.37248,0,0,1-.28809.11719Z"/><path class="d" d="M275.45075,22.72829a.40088.40088,0,0,1-.41406-.41406V16.93141a3.23717,3.23717,0,0,0-.71973-2.24023,2.983,2.983,0,0,0-2.32226-.80176h-3.38379a.3986.3986,0,0,1-.41407-.41308V12.864a.40013.40013,0,0,1,.41407-.41406h3.47363a4.69749,4.69749,0,0,1,3.46484,1.13379,4.48344,4.48344,0,0,1,1.125,3.29394v5.43653a.40013.40013,0,0,1-.41406.41406Zm-6.83984,0a.40013.40013,0,0,1-.41407-.41406v-6.0127a.40013.40013,0,0,1,.41407-.41406h.82763a.3732.3732,0,0,1,.28809.11719.42307.42307,0,0,1,.10791.29687v6.0127a.42142.42142,0,0,1-.10791.29687.3732.3732,0,0,1-.28809.11719Z"/><path class="d" d="M228.74128,33.44216a.267.267,0,0,1-.207-.08985.31139.31139,0,0,1-.08106-.21582.8091.8091,0,0,1,.0542-.28808l.9541-2.4668a1.29127,1.29127,0,0,1,.19776-.29688.42263.42263,0,0,1,.32373-.11718h.59424a.26521.26521,0,0,1,.22509.1084.35026.35026,0,0,1,.04493.28808l-.396,2.55567a.64962.64962,0,0,1-.144.36914.43853.43853,0,0,1-.35987.15332Z"/><path class="d" d="M233.09724,42.74782a.34189.34189,0,0,1-.27051-.126.39137.39137,0,0,1-.08985-.30566l1.53028-8.82031a.45024.45024,0,0,1,.16211-.2793.35756.35756,0,0,1,.30566-.0625l.71973.03613a.4033.4033,0,0,1,.28808.15235.36673.36673,0,0,1,.07227.31543l-1.43994,8.6582a.47083.47083,0,0,1-.15283.30566.44856.44856,0,0,1-.31543.126Zm4.55371-8.80176h-4.374a.39451.39451,0,0,1-.30566-.11718.4196.4196,0,0,1-.1084-.29688v-.64844a.42121.42121,0,0,1,.1084-.29687.39742.39742,0,0,1,.30566-.11621h4.57227a3.80456,3.80456,0,0,1,1.98877.52148,3.59167,3.59167,0,0,1,1.36767,1.50293,5.2063,5.2063,0,0,1,.49512,2.36719v5.47168a.41977.41977,0,0,1-.10791.29687.39559.39559,0,0,1-.30615.11719h-4.64356a.40088.40088,0,0,1-.41406-.41406v-.61133a.39939.39939,0,0,1,.41406-.41406h3.41993V36.97048a3.79931,3.79931,0,0,0-.31543-1.60254,2.48219,2.48219,0,0,0-.86377-1.05274A2.159,2.159,0,0,0,237.651,33.94606Z"/><path class="d" d="M252.357,42.74782a.40013.40013,0,0,1-.41406-.41406V32.25368l-2.98828,2.30469a.42379.42379,0,0,1-.30567.08984.38252.38252,0,0,1-.2705-.16211l-.46778-.59375a.44357.44357,0,0,1-.08105-.32422.4174.4174,0,0,1,.1709-.2705l3.92382-3.02344a.57981.57981,0,0,1,.23438-.1084,1.45991,1.45991,0,0,1,.23389-.01758h.91845a.40011.40011,0,0,1,.41358.41406V42.33376a.40011.40011,0,0,1-.41358.41406Z"/><path class="d" d="M260.79841,42.92751a5.0727,5.0727,0,0,1-2.09668-.38672,3.66314,3.66314,0,0,1-1.395-1.07031,4.37852,4.37852,0,0,1-.78321-1.56641,8.15617,8.15617,0,0,1-.2788-1.87207q-.01832-.48633-.02735-1.02637-.00879-.53905,0-1.09765.00879-.55811.02735-1.06153a6.99374,6.99374,0,0,1,.2788-1.87207,4.51077,4.51077,0,0,1,.80127-1.55761,3.70431,3.70431,0,0,1,1.39454-1.06153,5.81717,5.81717,0,0,1,4.17626,0,3.70977,3.70977,0,0,1,1.395,1.06153,4.50965,4.50965,0,0,1,.80079,1.55761,7.03316,7.03316,0,0,1,.27929,1.87207q.01758.50391.02686,1.06153.00879.55811,0,1.09765-.00952.54053-.02686,1.02637a7.0331,7.0331,0,0,1-.27929,1.87207,4.70232,4.70232,0,0,1-.792,1.56641,3.5873,3.5873,0,0,1-1.38574,1.07031A5.12971,5.12971,0,0,1,260.79841,42.92751Zm0-1.54785a2.40912,2.40912,0,0,0,2.0791-.918,4.25864,4.25864,0,0,0,.69336-2.51953q.03516-.52149.03564-1.01758v-.98926q0-.49512-.03564-.98144a4.32448,4.32448,0,0,0-.69336-2.51075,2.73864,2.73864,0,0,0-4.13965,0,4.40727,4.40727,0,0,0-.71094,2.51075q0,.48632-.00927.98144-.00952.49512,0,.98926.00878.49658.00927,1.01758a4.29407,4.29407,0,0,0,.71973,2.51953A2.39366,2.39366,0,0,0,260.79841,41.37966Z"/><path class="d" d="M272.22858,42.92751a5.07677,5.07677,0,0,1-2.09717-.38672,3.65787,3.65787,0,0,1-1.39453-1.07031,4.37071,4.37071,0,0,1-.7832-1.56641,8.15662,8.15662,0,0,1-.2793-1.87207q-.01758-.48633-.02685-1.02637-.00952-.53905,0-1.09765.00879-.55811.02685-1.06153a6.99378,6.99378,0,0,1,.2793-1.87207,4.51823,4.51823,0,0,1,.80078-1.55761,3.70985,3.70985,0,0,1,1.395-1.06153,5.02677,5.02677,0,0,1,2.0791-.38769,5.07923,5.07923,0,0,1,2.09717.38769,3.708,3.708,0,0,1,1.39453,1.06153,4.519,4.519,0,0,1,.80127,1.55761,7.01337,7.01337,0,0,1,.27881,1.87207q.01758.50391.02734,1.06153.00879.55811,0,1.09765-.00951.54053-.02734,1.02637a7.01331,7.01331,0,0,1-.27881,1.87207,4.71147,4.71147,0,0,1-.792,1.56641,3.589,3.589,0,0,1-1.38623,1.07031A5.12574,5.12574,0,0,1,272.22858,42.92751Zm0-1.54785a2.40818,2.40818,0,0,0,2.07862-.918,4.25514,4.25514,0,0,0,.69336-2.51953q.03588-.52149.03613-1.01758v-.98926q0-.49512-.03613-.98144a4.32085,4.32085,0,0,0-.69336-2.51075,2.73864,2.73864,0,0,0-4.13965,0,4.411,4.411,0,0,0-.71094,2.51075q0,.48632-.00879.98144-.01024.49512,0,.98926.00879.49658.00879,1.01758a4.2976,4.2976,0,0,0,.71973,2.51953A2.39457,2.39457,0,0,0,272.22858,41.37966Z"/></svg>