<svg xmlns="http://www.w3.org/2000/svg" viewBox="0 0 334.69064 56.2788"><defs><style>.a,.b,.f{fill:none;}.a{stroke:#706f6f;stroke-width:7.59574px;}.a,.b{stroke-linecap:round;stroke-linejoin:round;}.b{stroke:#878787;stroke-width:2.53191px;}.c{fill:#9d9d9c;}.d{fill:#3c3c3b;}.e{fill:#ededed;}.f{stroke:#575756;stroke-miterlimit:10;stroke-width:1.89894px;}.g{fill:#c6c6c6;}.h{fill:#58d268;}.i{fill:#5eef8d;}.j{fill:#3b9a5f;}.k{fill:#fff;}</style></defs><line class="a" x1="330.89279" y1="28.20473" x2="26.08217" y2="28.20473"/><line class="b" x1="330.89279" y1="27.63909" x2="26.08217" y2="27.63909"/><polygon class="c" points="23.802 32.465 23.802 23.945 20.239 21.262 19.367 28.205 20.239 35.147 23.802 32.465"/><rect class="d" x="19.45523" y="26.92792" width="10.70039" height="2.5535" rx="1.27675" transform="translate(53.01009 3.39925) rotate(90)"/><polygon class="e" points="20.239 21.262 0 28.205 20.239 35.147 19.367 28.205 20.239 21.262"/><path class="f" d="M53.47533,32.0026v-.4354a16.72275,16.72275,0,0,1,0-6.65079v-.48674"/><path class="f" d="M48.80466,32.0026v-.4354a16.72275,16.72275,0,0,1,0-6.65079v-.48674"/><path class="f" d="M44.134,32.0026v-.4354a16.72275,16.72275,0,0,1,0-6.65079v-.48674"/><path class="f" d="M39.4633,32.0026v-.4354a16.72275,16.72275,0,0,1,0-6.65079v-.48674"/><path class="f" d="M327.088,32.0026v-.4354a16.72275,16.72275,0,0,1,0-6.65079v-.48674"/><path class="f" d="M322.41736,32.0026v-.4354a16.72275,16.72275,0,0,1,0-6.65079v-.48674"/><path class="f" d="M317.74669,32.0026v-.4354a16.72275,16.72275,0,0,1,0-6.65079v-.48674"/><path class="f" d="M313.076,32.0026v-.4354a16.72275,16.72275,0,0,1,0-6.65079v-.48674"/><path class="f" d="M308.40533,32.0026v-.4354a16.72275,16.72275,0,0,1,0-6.65079v-.48674"/><path class="f" d="M303.73466,32.0026v-.4354a16.72275,16.72275,0,0,1,0-6.65079v-.48674"/><path class="f" d="M299.064,32.0026v-.4354a16.72275,16.72275,0,0,1,0-6.65079v-.48674"/><path class="f" d="M294.3933,32.0026v-.4354a16.72275,16.72275,0,0,1,0-6.65079v-.48674"/><path class="f" d="M289.72263,32.0026v-.4354a16.72275,16.72275,0,0,1,0-6.65079v-.48674"/><path class="f" d="M285.05195,32.0026v-.4354a16.72275,16.72275,0,0,1,0-6.65079v-.48674"/><path class="f" d="M280.38127,32.0026v-.4354a16.723,16.723,0,0,1,0-6.65079v-.48674"/><path class="f" d="M275.7106,32.0026v-.4354a16.72275,16.72275,0,0,1,0-6.65079v-.48674"/><polygon class="g" points="19.367 28.205 0 28.205 20.239 35.147 19.367 28.205"/><polygon class="h" points="290.686 30.999 301.415 40.125 332.894 40.125 322.165 30.999 290.686 30.999"/><polygon class="i" points="322.165 30.999 327.164 38.245 301.954 38.245 290.686 30.999 301.415 40.125 332.894 40.125 322.165 30.999"/><polygon class="j" points="322.165 30.999 292.431 32.484 290.686 30.999 322.165 30.999"/><polygon class="h" points="290.686 25.28 301.415 16.153 332.894 16.153 322.165 25.28 290.686 25.28"/><polygon class="j" points="326.455 21.631 290.686 25.28 322.165 25.28 326.455 21.631"/><polygon class="i" points="332.894 16.153 303.195 17.508 290.686 25.28 301.415 16.153 332.894 16.153"/><rect class="k" x="36.01982" width="250.83123" height="56.27881" rx="8.64767"/><path class="d" d="M65.58626,12.918a2.81368,2.81368,0,0,1,1.395,1.494,7.17258,7.17258,0,0,1,.43164,2.736A5.25061,5.25061,0,0,1,66.27913,20.739,6.6781,6.6781,0,0,1,63.327,22.63793l-.75586.252a.311.311,0,0,1-.126.01806.32426.32426,0,0,1-.32422-.342v-.792q0-.32391.39648-.486l.70215-.27a4.14555,4.14555,0,0,0,1.90772-1.35,4.25781,4.25781,0,0,0,.666-2.592,5.07506,5.07506,0,0,0-.28808-1.89892,1.839,1.839,0,0,0-.94483-.999,4.37122,4.37122,0,0,0-1.80908-.306h-.61181L60.48324,13.854a.42046.42046,0,0,1-.29688-.108.37261.37261,0,0,1-.11719-.288V10.36193a.40051.40051,0,0,1,.41407-.41394H61.203a.37317.37317,0,0,1,.28809.11695.42073.42073,0,0,1,.1084.297V12.45h1.38574A6.02374,6.02374,0,0,1,65.58626,12.918Z"/><path class="d" d="M77.96077,22.36791a.36811.36811,0,0,1-.35937.36011h-.81055a.46845.46845,0,0,1-.35986-.135c-.084-.09009-.13233-.141-.144-.15307l-4.10352-5.778a2.8268,2.8268,0,0,0-1.05322,1.323,4.87847,4.87847,0,0,0-.27881,1.683v2.646a.40068.40068,0,0,1-.41406.41406h-.666a.40068.40068,0,0,1-.41406-.41406v-2.718a6.10732,6.10732,0,0,1,.40478-2.322,4.06033,4.06033,0,0,1,1.59327-1.782L69.681,13.152a.66828.66828,0,0,1-.126-.342.369.369,0,0,1,.35987-.36h.792a.61422.61422,0,0,1,.5039.306l3.78028,5.274a3.00838,3.00838,0,0,0,.94531-.792,2.0291,2.0291,0,0,0,.36865-.81909,6.25071,6.25071,0,0,0,.07178-1.053V12.864a.4005.4005,0,0,1,.41406-.41406H77.493a.40048.40048,0,0,1,.41406.41406v2.574a4.77277,4.77277,0,0,1-.42285,2.09693,4.13727,4.13727,0,0,1-1.70117,1.629L77.8348,22.026A.549.549,0,0,1,77.96077,22.36791Z"/><path class="d" d="M93.909,16.842V22.314a.40068.40068,0,0,1-.41407.41406h-.75586A.40068.40068,0,0,1,92.325,22.314V16.932q0-3.09576-3.09619-3.09607h-1.2959q-.18018,1.13417-.26123,1.88111a13.48731,13.48731,0,0,0-.0625,1.70092l.03565,4.896a.39991.39991,0,0,1-.41358.41406l-2.50244-.03613a.39972.39972,0,0,1-.41357-.41394V21.738a.39973.39973,0,0,1,.41357-.41406l1.38623.01807V17.49q-.01832-1.134.04492-1.917a11.06969,11.06969,0,0,1,.29688-1.73706h-.97168a.4213.4213,0,0,1-.29737-.10791.37251.37251,0,0,1-.11669-.28808V12.864a.39524.39524,0,0,1,.11669-.306.42085.42085,0,0,1,.29737-.108h3.85156Q93.90853,12.45,93.909,16.842Z"/><path class="d" d="M106.69759,12.56689a.40484.40484,0,0,1,.11719.29712v5.0039a5.47429,5.47429,0,0,1-.6211,2.655,4.2202,4.2202,0,0,1-1.74609,1.746,5.10619,5.10619,0,0,1-2.583.567h-1.332a4.13677,4.13677,0,0,1-2.106-.54,3.80369,3.80369,0,0,1-1.46679-1.521,4.66413,4.66413,0,0,1-.53125-2.25891V12.864a.39548.39548,0,0,1,.11719-.306.42042.42042,0,0,1,.29687-.108h.70215a.4005.4005,0,0,1,.41406.41406l.05371,5.11194a3.20357,3.20357,0,0,0,2.27735-.882,2.96373,2.96373,0,0,0,.63867-1.98v-2.25a.4005.4005,0,0,1,.41406-.41406h.70215a.4005.4005,0,0,1,.41406.41406v2.322a3.88646,3.88646,0,0,1-1.09814,2.844,4.67608,4.67608,0,0,1-3.22217,1.22388A2.84616,2.84616,0,0,0,99.2098,20.865a3.11975,3.11975,0,0,0,1.88086.567h.57617a3.43872,3.43872,0,0,0,2.66406-.99011A3.74222,3.74222,0,0,0,105.285,17.76V12.864a.39973.39973,0,0,1,.41358-.41406h.70215A.40332.40332,0,0,1,106.69759,12.56689Z"/><path class="d" d="M113.04281,22.908a.32278.32278,0,0,1-.32422-.342v-.792a.52725.52725,0,0,1,.396-.486l.70166-.27a4.1471,4.1471,0,0,0,1.90821-1.35,4.25787,4.25787,0,0,0,.666-2.592,5.07506,5.07506,0,0,0-.28808-1.89892,1.83725,1.83725,0,0,0-.94483-.999,4.37125,4.37125,0,0,0-1.80908-.306h-3.59961a.39975.39975,0,0,1-.41406-.41394v-.61206a.37274.37274,0,0,1,.1167-.288.42081.42081,0,0,1,.29736-.108h3.81543a6.07465,6.07465,0,0,1,2.61914.468,2.81372,2.81372,0,0,1,1.395,1.494,7.1716,7.1716,0,0,1,.43213,2.736,5.25061,5.25061,0,0,1-1.13379,3.59107,6.68084,6.68084,0,0,1-2.95215,1.89892l-.75586.252A.31412.31412,0,0,1,113.04281,22.908Zm-3.59131,3.15a.39521.39521,0,0,1-.1167-.306V16.266a.4.4,0,0,1,.41406-.41407h.7373a.4.4,0,0,1,.41407.41407v9.486a.39994.39994,0,0,1-.41407.41406h-.7373A.42081.42081,0,0,1,109.4515,26.058Z"/><path class="d" d="M120.68343,22.611a.40171.40171,0,0,1-.11719-.297v-9.45a.39551.39551,0,0,1,.11719-.306.42046.42046,0,0,1,.29688-.108h.792a.4005.4005,0,0,1,.41406.41406v9.45a.40068.40068,0,0,1-.41406.41406h-.792A.40126.40126,0,0,1,120.68343,22.611Z"/><path class="d" d="M132.6805,24.672l-4.53613-11.52a2.71281,2.71281,0,0,1-.08985-.342.36814.36814,0,0,1,.35938-.36h.792q.34278,0,.5044.432l1.94384,4.896q2.55616-.28766,2.55616-3.132V12.864a.39976.39976,0,0,1,.41406-.41406h.70166a.4005.4005,0,0,1,.41406.41406V14.7539a4.57954,4.57954,0,0,1-.92676,2.979,4.19259,4.19259,0,0,1-2.61914,1.44909l2.01612,5.07593a1.35645,1.35645,0,0,1,.10791.342.369.369,0,0,1-.35987.36h-.82812A.4733.4733,0,0,1,132.6805,24.672Z"/><path class="d" d="M137.96273,22.611a.40129.40129,0,0,1-.1167-.297v-9.45a.39521.39521,0,0,1,.1167-.306.42163.42163,0,0,1,.29736-.108h3.45557a4.77294,4.77294,0,0,1,3.456,1.10705,4.44333,4.44333,0,0,1,1.13428,3.32092v5.436a.39994.39994,0,0,1-.41406.41406h-.75586a.39994.39994,0,0,1-.41407-.41406V16.932q0-3.09576-3.09619-3.09607H139.43v8.478a.39994.39994,0,0,1-.41406.41406h-.75586A.40235.40235,0,0,1,137.96273,22.611Z"/><path class="d" d="M148.682,22.611a.42132.42132,0,0,1-.10791-.297V21.738a.42267.42267,0,0,1,.10791-.29712.37207.37207,0,0,1,.28759-.11694h5.20215V16.932q0-3.078-3.0957-3.078h-1.92578a.372.372,0,0,1-.28809-.11707.41952.41952,0,0,1-.1084-.297V12.864a.42086.42086,0,0,1,.1084-.29712.37317.37317,0,0,1,.28809-.11694h2.01562q4.60767,0,4.6084,4.41v4.464h.68359a.37389.37389,0,0,1,.28809.11694.42048.42048,0,0,1,.10791.29712V22.314a.41915.41915,0,0,1-.10791.297.37273.37273,0,0,1-.28809.11706h-7.48828A.37092.37092,0,0,1,148.682,22.611Z"/><path class="d" d="M162.94661,18.43493a.40133.40133,0,0,1-.1167-.297V12.864a.39525.39525,0,0,1,.1167-.306.42046.42046,0,0,1,.29688-.108h.792a.39976.39976,0,0,1,.41406.41406v5.27392a.4.4,0,0,1-.41406.41407h-.792A.40123.40123,0,0,1,162.94661,18.43493Z"/><path class="d" d="M172.64827,22.611a.40133.40133,0,0,1-.1167-.297V16.932q0-3.09576-3.09619-3.09607h-2.32177a.42213.42213,0,0,1-.29737-.10791.37251.37251,0,0,1-.1167-.28808V12.864a.39976.39976,0,0,1,.41407-.41406h2.43017q4.57178,0,4.57178,4.39209V22.314a.39994.39994,0,0,1-.41406.41406h-.75586A.40238.40238,0,0,1,172.64827,22.611Z"/><path class="d" d="M176.80648,18.43493a.40167.40167,0,0,1-.11719-.297V12.864a.39548.39548,0,0,1,.11719-.306.41961.41961,0,0,1,.29687-.108h.792a.4005.4005,0,0,1,.41407.41406v5.27392a.4007.4007,0,0,1-.41407.41407h-.792A.40044.40044,0,0,1,176.80648,18.43493Z"/><path class="d" d="M192.65511,12.558a.41312.41312,0,0,1,.1084.306v.57593a.37283.37283,0,0,1-.11719.28808.42171.42171,0,0,1-.29687.10791H191.287a1.98654,1.98654,0,0,0-.40479.84607,5.05322,5.05322,0,0,0-.15283,1.296v6.354a.36025.36025,0,0,1-.126.288.45573.45573,0,0,1-.30615.108h-.75586a.37157.37157,0,0,1-.396-.396V15.87a5.44514,5.44514,0,0,1,.126-1.26,1.87363,1.87363,0,0,1,.3418-.77405h-4.96778a.42008.42008,0,0,1-.29687-.10791.37283.37283,0,0,1-.11719-.28808V12.864a.4005.4005,0,0,1,.41406-.41406h7.70411A.41288.41288,0,0,1,192.65511,12.558Z"/><path class="d" d="M201.61019,12.981a3.63533,3.63533,0,0,1,1.36767,1.521A5.18085,5.18085,0,0,1,203.473,16.842V22.314a.40068.40068,0,0,1-.41406.41406h-4.644a.37273.37273,0,0,1-.28809-.11706.42132.42132,0,0,1-.10791-.297V21.738a.42267.42267,0,0,1,.10791-.29712.37389.37389,0,0,1,.28809-.11694H201.889V16.95a3.42065,3.42065,0,0,0-.69287-2.223,2.16629,2.16629,0,0,0-1.75489-.855H197.533l-1.38623,8.424a.47115.47115,0,0,1-.15283.306.42582.42582,0,0,1-.29688.1261h-.75586a.33387.33387,0,0,1-.27929-.1261.40922.40922,0,0,1-.08106-.306l1.43994-8.42395h-.918a.40049.40049,0,0,1-.41406-.41394v-.594a.4005.4005,0,0,1,.41406-.41406h4.51807A3.75475,3.75475,0,0,1,201.61019,12.981Z"/><path class="d" d="M211.04183,12.918a2.81468,2.81468,0,0,1,1.39453,1.494,7.1716,7.1716,0,0,1,.43213,2.736A5.25061,5.25061,0,0,1,211.7347,20.739a6.68084,6.68084,0,0,1-2.95215,1.89892l-.75586.252a.31091.31091,0,0,1-.126.01806.32352.32352,0,0,1-.32422-.342v-.792a.52787.52787,0,0,1,.396-.486l.70215-.27a4.147,4.147,0,0,0,1.9082-1.35,4.26115,4.26115,0,0,0,.666-2.592,5.08484,5.08484,0,0,0-.28809-1.89892,1.83974,1.83974,0,0,0-.94531-.999,4.36873,4.36873,0,0,0-1.80859-.306h-.61231l-1.65625-.01794a.42043.42043,0,0,1-.29687-.108.37257.37257,0,0,1-.11719-.288V10.36193a.40051.40051,0,0,1,.41406-.41394h.72022a.37386.37386,0,0,1,.28808.11695.42253.42253,0,0,1,.10791.297V12.45h1.38575A6.02765,6.02765,0,0,1,211.04183,12.918Z"/><path class="d" d="M215.23568,18.43493a.40129.40129,0,0,1-.1167-.297V12.864a.39521.39521,0,0,1,.1167-.306.42042.42042,0,0,1,.29687-.108h.792a.39976.39976,0,0,1,.41407.41406v5.27392a.4.4,0,0,1-.41407.41407h-.792A.40119.40119,0,0,1,215.23568,18.43493Z"/><path class="d" d="M226.20638,13.83593h-2.646a.37141.37141,0,0,1-.396-.396V12.864a.42267.42267,0,0,1,.10791-.29712.37387.37387,0,0,1,.28808-.11694h2.73633A4.85084,4.85084,0,0,1,229.75277,13.53a4.37755,4.37755,0,0,1,1.13379,3.312v7.70385a.40051.40051,0,0,1-.41407.41407h-.75586a.41959.41959,0,0,1-.29687-.108.3953.3953,0,0,1-.11719-.306V16.932Q229.30257,13.83624,226.20638,13.83593Z"/><path class="d" d="M233.577,18.43493a.40129.40129,0,0,1-.1167-.297V12.864a.39521.39521,0,0,1,.1167-.306.42124.42124,0,0,1,.29687-.108h.792a.39974.39974,0,0,1,.41406.41406v5.27392a.39994.39994,0,0,1-.41406.41407h-.792A.402.402,0,0,1,233.577,18.43493Z"/><path class="d" d="M243.27913,22.611a.4017.4017,0,0,1-.11718-.297V16.932q0-3.09576-3.09571-3.09607H237.744a.42091.42091,0,0,1-.29688-.10791.37286.37286,0,0,1-.11719-.28808V12.864A.4005.4005,0,0,1,237.744,12.45h2.43017q4.57178,0,4.57178,4.39209V22.314a.39994.39994,0,0,1-.41406.41406H243.576A.40126.40126,0,0,1,243.27913,22.611Z"/><path class="d" d="M254.73616,12.558a.4129.4129,0,0,1,.10791.306v.57593a.3742.3742,0,0,1-.11669.28808.423.423,0,0,1-.29737.10791h-1.062a1.98651,1.98651,0,0,0-.40527.84607,5.07543,5.07543,0,0,0-.15235,1.296v6.354a.36179.36179,0,0,1-.126.288.45705.45705,0,0,1-.30664.108h-.75586a.37086.37086,0,0,1-.39551-.396V15.87a5.41781,5.41781,0,0,1,.126-1.26,1.861,1.861,0,0,1,.34179-.77405H246.7264a.42126.42126,0,0,1-.29736-.10791.37248.37248,0,0,1-.1167-.28808V12.864a.39976.39976,0,0,1,.41406-.41406H254.43A.41406.41406,0,0,1,254.73616,12.558Z"/><path class="d" d="M263.69124,12.981a3.63535,3.63535,0,0,1,1.36768,1.521A5.18085,5.18085,0,0,1,265.554,16.842V22.314a.40068.40068,0,0,1-.41407.41406h-4.644a.37273.37273,0,0,1-.28809-.11706.42137.42137,0,0,1-.10791-.297V21.738a.42271.42271,0,0,1,.10791-.29712.37389.37389,0,0,1,.28809-.11694h3.47412V16.95a3.42065,3.42065,0,0,0-.69287-2.223,2.16626,2.16626,0,0,0-1.75488-.855h-1.90821l-1.38623,8.424a.47106.47106,0,0,1-.15283.306.42578.42578,0,0,1-.29687.1261h-.75586a.33388.33388,0,0,1-.2793-.1261.40921.40921,0,0,1-.08105-.306l1.43994-8.42395h-.918a.40048.40048,0,0,1-.41406-.41394v-.594a.40048.40048,0,0,1,.41406-.41406H261.702A3.75471,3.75471,0,0,1,263.69124,12.981Z"/><path class="d" d="M275.21077,22.611a.4017.4017,0,0,1-.11718-.297V16.932q0-3.09576-3.07813-3.09607h-3.34765a.42008.42008,0,0,1-.29688-.10791.37286.37286,0,0,1-.11719-.28808V12.864a.39551.39551,0,0,1,.11719-.306.41963.41963,0,0,1,.29688-.108h3.438q4.57179,0,4.57178,4.428v5.436a.40068.40068,0,0,1-.41406.41406h-.75586A.40126.40126,0,0,1,275.21077,22.611Zm-6.83984,0a.40171.40171,0,0,1-.11719-.297V16.266a.4007.4007,0,0,1,.41407-.41407h.75585a.4007.4007,0,0,1,.41407.41407v6.048a.40068.40068,0,0,1-.41407.41406h-.75585A.40049.40049,0,0,1,268.37093,22.611Z"/><path class="d" d="M139.25863,34.87792a.31021.31021,0,0,1-.08106-.21594,1.07539,1.07539,0,0,1,.05371-.288l.93653-2.41211a.889.889,0,0,1,.19775-.31494.4659.4659,0,0,1,.32373-.099h.55859a.26465.26465,0,0,1,.22461.108.31716.31716,0,0,1,.04492.27l-.396,2.52q-.05347.52221-.50391.522h-1.15185A.26478.26478,0,0,1,139.25863,34.87792Z"/><path class="d" d="M150.45443,34.58093a3.63531,3.63531,0,0,1,1.36767,1.521,5.1748,5.1748,0,0,1,.49512,2.34009v5.47193a.40069.40069,0,0,1-.41406.41406H147.2596a.372.372,0,0,1-.28808-.11707.41947.41947,0,0,1-.1084-.297V43.338a.4203.4203,0,0,1,.1084-.297.37323.37323,0,0,1,.28808-.11706h3.47364v-4.374a3.42082,3.42082,0,0,0-.69288-2.223,2.16626,2.16626,0,0,0-1.75488-.855h-1.9082L144.99105,43.896a.468.468,0,0,1-.15235.30591.42723.42723,0,0,1-.29736.1261h-.75586a.33261.33261,0,0,1-.27881-.1261.40688.40688,0,0,1-.08105-.30591l1.43945-8.42407h-.918a.40049.40049,0,0,1-.41406-.41394v-.594a.40069.40069,0,0,1,.41406-.41406h4.51856A3.75424,3.75424,0,0,1,150.45443,34.58093Z"/><path class="d" d="M160.9388,44.022a3.74778,3.74778,0,0,1-1.51221-1.269,3.21429,3.21429,0,0,1-.55761-1.683v-.036a.29133.29133,0,0,1,.10791-.234.38111.38111,0,0,1,.25195-.09h.88232a.47028.47028,0,0,1,.48536.396,2.43415,2.43415,0,0,0,.999,1.449,3.00428,3.00428,0,0,0,1.68359.477,2.8844,2.8844,0,0,0,2.03369-.74707,2.66383,2.66383,0,0,0,.81006-2.06092,2.422,2.422,0,0,0-.81006-1.917,2.97145,2.97145,0,0,0-2.03369-.71106,2.79783,2.79783,0,0,0-1.04394.162,3.79236,3.79236,0,0,0-.81055.468,2.9116,2.9116,0,0,1-.38672.261.7011.7011,0,0,1-.333.08106h-.86425a.41068.41068,0,0,1-.28809-.11707.31357.31357,0,0,1-.10742-.27893l.55762-5.994q.0542-.4497.45019-.45h6.22754a.37526.37526,0,0,1,.41406.41394v.666a.3739.3739,0,0,1-.1167.288.42163.42163,0,0,1-.29736.108h-5.18359l-.32422,3.61805A3.94633,3.94633,0,0,1,163.495,36.21a4.99372,4.99372,0,0,1,2.1958.477,3.77571,3.77571,0,0,1,1.5752,1.395,3.96905,3.96905,0,0,1,.585,2.178,4.3383,4.3383,0,0,1-.585,2.29493,3.741,3.741,0,0,1-1.62012,1.458,5.4219,5.4219,0,0,1-2.3667.495A5.25559,5.25559,0,0,1,160.9388,44.022Z"/><path class="d" d="M170.99154,43.14892a5.89847,5.89847,0,0,1-1.14307-3.55493l-.01758-1.5481.01758-1.60193a5.72174,5.72174,0,0,1,1.14307-3.537,4.93783,4.93783,0,0,1,6.8042,0,5.72159,5.72159,0,0,1,1.14257,3.537q.01832.50409.01856,1.60193,0,1.06239-.01856,1.5481a5.90156,5.90156,0,0,1-1.14257,3.55493,4.93783,4.93783,0,0,1-6.8042,0Zm5.481-1.053a4.3532,4.3532,0,0,0,.73828-2.592q.01758-.52185.01758-1.4939,0-.98986-.01758-1.47607a4.32374,4.32374,0,0,0-.74707-2.583,2.46061,2.46061,0,0,0-2.0791-.927,2.43573,2.43573,0,0,0-2.07031.927,4.3611,4.3611,0,0,0-.73779,2.583L171.55843,38.01l.01807,1.4939a4.34986,4.34986,0,0,0,.73779,2.592,2.81342,2.81342,0,0,0,4.1582,0Z"/><path class="d" d="M186.03939,44.21093a.40129.40129,0,0,1-.1167-.297v-9.45a.39524.39524,0,0,1,.1167-.306.42081.42081,0,0,1,.29736-.108h3.45557a4.773,4.773,0,0,1,3.45605,1.10706,4.44361,4.44361,0,0,1,1.13428,3.321v5.43592a.40069.40069,0,0,1-.41406.41406h-.75586a.4.4,0,0,1-.41407-.41406V38.532q0-3.09577-3.09619-3.09595h-2.1958v8.47791a.40068.40068,0,0,1-.41406.41406h-.75586A.40155.40155,0,0,1,186.03939,44.21093Z"/><path class="d" d="M197.19906,44.21093a.40129.40129,0,0,1-.1167-.297v-9.45a.39524.39524,0,0,1,.1167-.306.42163.42163,0,0,1,.29736-.108h.792a.39992.39992,0,0,1,.41358.41406v9.45a.39992.39992,0,0,1-.41358.41406h-.792A.40231.40231,0,0,1,197.19906,44.21093Z"/><path class="d" d="M201.60921,44.21093a.4017.4017,0,0,1-.11719-.297v-9.45a.39554.39554,0,0,1,.11719-.306.42046.42046,0,0,1,.29688-.108h.792a.40069.40069,0,0,1,.41406.41406v9.45a.40069.40069,0,0,1-.41406.41406h-.792A.40123.40123,0,0,1,201.60921,44.21093Z"/><path class="d" d="M206.89241,43.38293a4.56283,4.56283,0,0,1-1.08007-3.285V34.464a.39524.39524,0,0,1,.1167-.306.42081.42081,0,0,1,.29736-.108H206.91a.376.376,0,0,1,.41407.41406v5.544a3.20746,3.20746,0,0,0,.74707,2.286,3.65707,3.65707,0,0,0,4.46386.063,3.162,3.162,0,0,0,.74707-2.205V38.298a3.54812,3.54812,0,0,0-.62988-2.196,1.98919,1.98919,0,0,0-1.62012-.72,2.56071,2.56071,0,0,0-.71972.11707,2.77789,2.77789,0,0,0-.68457.29687.289.289,0,0,1-.17969.05408.34031.34031,0,0,1-.32422-.324v-.5221A1.27547,1.27547,0,0,1,209.16,34.662a.377.377,0,0,1,.19825-.21594,2.77,2.77,0,0,1,.80078-.36914,4.11032,4.11032,0,0,1,1.07129-.11694,3.37687,3.37687,0,0,1,2.65478,1.017,4.803,4.803,0,0,1,.96338,3.141q.01758.18018.01758,1.062,0,.88219-.01758,1.062a4.60376,4.60376,0,0,1-1.125,3.213,4.65412,4.65412,0,0,1-3.39356,1.053A4.58309,4.58309,0,0,1,206.89241,43.38293Z"/><path class="d" d="M216.72054,44.21093a.41947.41947,0,0,1-.1084-.297V43.338a.4203.4203,0,0,1,.1084-.297.37218.37218,0,0,1,.2876-.11706h5.20215V38.532q0-3.078-3.0962-3.078h-1.92578a.37267.37267,0,0,1-.28808-.11706.41905.41905,0,0,1-.10791-.29688V34.464a.41994.41994,0,0,1,.10791-.297.374.374,0,0,1,.28808-.11707h2.01563q4.60839,0,4.6084,4.41v4.464h.68359a.37325.37325,0,0,1,.28809.11706.42034.42034,0,0,1,.10839.297v.57593a.41951.41951,0,0,1-.10839.297.372.372,0,0,1-.28809.11707h-7.48779A.37092.37092,0,0,1,216.72054,44.21093Z"/><path class="d" d="M240.13851,38.442v5.47193a.40069.40069,0,0,1-.41406.41406h-.75635a.39992.39992,0,0,1-.41358-.41406V38.532q0-3.09577-3.09668-3.09595H234.162q-.18018,1.134-.26075,1.881a13.57158,13.57158,0,0,0-.063,1.70093l.03564,4.896a.39992.39992,0,0,1-.41357.41406l-2.50245-.036a.39992.39992,0,0,1-.41357-.41407V43.338a.39991.39991,0,0,1,.41357-.41406l1.38623.01806V39.09q-.0183-1.134.04542-1.917a11.008,11.008,0,0,1,.29687-1.73694h-.97217a.42217.42217,0,0,1-.29736-.108.3724.3724,0,0,1-.1167-.288V34.464a.39524.39524,0,0,1,.1167-.306.42163.42163,0,0,1,.29736-.108h3.852Q240.138,34.04992,240.13851,38.442Z"/><path class="d" d="M242.95491,44.21093a.40169.40169,0,0,1-.11718-.297v-9.45a.39554.39554,0,0,1,.11718-.306.42046.42046,0,0,1,.29688-.108h.792a.40068.40068,0,0,1,.41406.41406v9.45a.40068.40068,0,0,1-.41406.41406h-.792A.40123.40123,0,0,1,242.95491,44.21093Z"/><path class="d" d="M252.783,44.21093a.40166.40166,0,0,1-.11719-.297V38.532q0-3.09577-3.0957-3.09595h-2.32227a.42016.42016,0,0,1-.29687-.108.37275.37275,0,0,1-.11719-.288V34.464a.40069.40069,0,0,1,.41406-.41406h2.42969q4.57178,0,4.57227,4.39209v5.47193a.4007.4007,0,0,1-.41407.41406h-.75586A.40046.40046,0,0,1,252.783,44.21093Z"/><path class="d" d="M257.93929,43.38293a4.56495,4.56495,0,0,1-1.08008-3.285V34.464a.39551.39551,0,0,1,.11719-.306.42043.42043,0,0,1,.29687-.108h.68457a.37593.37593,0,0,1,.41358.41406v5.544a3.20746,3.20746,0,0,0,.74707,2.286,3.6578,3.6578,0,0,0,4.46435.063,3.16193,3.16193,0,0,0,.74659-2.205V38.298a3.545,3.545,0,0,0-.62989-2.196,1.98917,1.98917,0,0,0-1.62011-.72,2.56666,2.56666,0,0,0-.72022.11707,2.77015,2.77015,0,0,0-.68359.29687.29239.29239,0,0,1-.18018.05408.3384.3384,0,0,1-.32373-.324v-.5221a1.27547,1.27547,0,0,1,.03613-.34192.37594.37594,0,0,1,.19776-.21594,2.776,2.776,0,0,1,.80078-.36914,4.10633,4.10633,0,0,1,1.0708-.11694,3.37726,3.37726,0,0,1,2.65527,1.017,4.803,4.803,0,0,1,.96289,3.141q.01758.18018.01807,1.062,0,.88219-.01807,1.062a4.59923,4.59923,0,0,1-1.125,3.213,4.65225,4.65225,0,0,1-3.39257,1.053A4.5863,4.5863,0,0,1,257.93929,43.38293Z"/><path class="d" d="M274.81429,34.58093a3.63307,3.63307,0,0,1,1.36816,1.521,5.1748,5.1748,0,0,1,.49512,2.34009v5.47193a.40069.40069,0,0,1-.41406.41406h-4.644a.372.372,0,0,1-.28809-.11707.42131.42131,0,0,1-.10791-.297V43.338a.42215.42215,0,0,1,.10791-.297.37325.37325,0,0,1,.28809-.11706h3.47412v-4.374a3.42107,3.42107,0,0,0-.69336-2.223,2.165,2.165,0,0,0-1.75489-.855h-1.9082L269.3514,43.896a.46864.46864,0,0,1-.15283.30591.42639.42639,0,0,1-.29737.1261h-.75586a.33321.33321,0,0,1-.2788-.1261.40892.40892,0,0,1-.08106-.30591l1.43994-8.42407h-.918a.40049.40049,0,0,1-.41406-.41394v-.594a.40069.40069,0,0,1,.41406-.41406h4.51807A3.753,3.753,0,0,1,274.81429,34.58093Z"/></svg>
