<svg xmlns="http://www.w3.org/2000/svg" viewBox="0 0 59.24725 170.81171"><defs><style>.a{fill:#fcdf74;}.b{fill:#dbad2e;}.c{fill:#76ea8d;}.d,.e,.i,.j,.l{fill:none;}.d{stroke:#c2fce0;stroke-width:0.69282px;}.d,.e,.i,.j{stroke-linecap:round;}.d,.e,.j{stroke-linejoin:round;}.e{stroke:#6cc464;stroke-width:1.38564px;}.f{fill:#10a83b;opacity:0.25;}.g{fill:#b2b2b2;}.h{fill:#c6c6c6;}.i,.j,.l{stroke:#fff;}.i,.l{stroke-miterlimit:10;}.i,.j{stroke-width:0.49441px;}.i{opacity:0.42;}.j{opacity:0.32;}.k{fill:#878787;opacity:0.35;}.l{stroke-width:0.34641px;}</style></defs><path class="a" d="M.35333,118.80013a18.78186,18.78186,0,0,0,3.04739,7.07477,25.48435,25.48435,0,0,0,6.37175,6.17378,49.948,49.948,0,0,0,8.46683,4.56581c2.94781,1.28352,5.92592,2.3759,8.77418,3.45705,2.84825,1.07559,5.60126,2.12628,8.09457,3.29623l.47181.219.45019.22443.896.45753c.619.29374,1.14707.62917,1.71412.94808.58005.31323,1.06919.66247,1.5843,1.0063.25538.17746.51942.32988.77049.524l.75318.5849c.99991.78173,2.07343,1.53854,2.9435,2.37576l1.38514,1.23086c.44587.41868.82679.85672,1.24665,1.28365a30.38269,30.38269,0,0,1,4.18149,5.41143l.79212,1.42483c.22944.48244.42423.97029.64066,1.45543l.16449.366c.05194.122.08655.24663.12986.36873l.25107.74017a11.72489,11.72489,0,0,1,.41553,1.49143,11.41742,11.41742,0,0,1,.27271,1.50809c.09091.50449.09091,1.00629.13852,1.51363.0173.25232,0,.50179,0,.75411l-.00434.37983-.03463.37414c-.01731.25232-.04328.50179-.08222.743-.01733.122-.03464.24948-.06061.36589l-.06927.32433-.02164.10816c-.12552.60994.54108,1.16994,1.49339,1.25035a1.93984,1.93984,0,0,0,1.883-.76237c.08658-.17746.14285-.30782.20779-.45469s.11252-.28548.1688-.42693a8.19344,8.19344,0,0,0,.2727-.84562l.12122-.42409.09522-.42139c.05194-.27993.12554-.56554.16449-.84548a14.12381,14.12381,0,0,0,.17315-1.69935,13.91613,13.91613,0,0,0-.00866-1.69949,19.19218,19.19218,0,0,0-1.61025-6.71713,27.2214,27.2214,0,0,0-3.8352-6.34286c-.40689-.5045-.78348-1.02023-1.225-1.51363L50.57,147.19341a38.9189,38.9189,0,0,0-2.95214-2.81935l-.76615-.69035c-.25974-.23012-.58872-.45739-.87873-.68751-.17313-.13022-.34629-.26328-.51944-.39364-.4242-.32433-.8614-.64595-1.32887-.937-.6493-.41868-1.277-.86213-1.96523-1.23926l-1.01289-.5849-.5108-.29117-.51941-.27154c-2.77035-1.47492-5.65322-2.74733-8.46684-3.94773-5.62724-2.37577-10.97746-4.5853-14.68709-7.3964a15.30643,15.30643,0,0,1-6.44536-9.89966,22.07757,22.07757,0,0,1-.039-5.6831,34.35737,34.35737,0,0,1,1.16874-5.86326c.13852-.4934.32465-.98139.48048-1.47763.07791-.255.17315-.46565.2554-.70416l.303-.70416c.43717-.95079.98691-1.93773,1.554-2.96622.58005-1.02023,1.186-2.09312,1.71415-3.21853.13419-.26613.25107-.53794.36359-.81516.12122-.30213.2381-.60981.35062-.91749.09524-.29943.19479-.59885.27271-.901l.10388-.46024.09091-.43533q.24024-1.20994.59736-2.41177l.00433-.00284c.04328-.02761.08658-.05536.12552-.08311A2.63764,2.63764,0,0,0,18.9319,90.135a8.15967,8.15967,0,0,0,.40256-1.65225,11.35983,11.35983,0,0,0,.14716-1.66334,14.64233,14.64233,0,0,0-.19477-2.7445v-.08311a13.44278,13.44278,0,0,0-.355-3.31288,2.30592,2.30592,0,0,0-.83112-1.21421,3.05973,3.05973,0,0,0-.33762-.24677,20.06192,20.06192,0,0,1-.62333-2.29536l-.09524-.43519-.10388-.438-.00434-.0222c-.07791-.30213-.17746-.60155-.277-.901a18.38613,18.38613,0,0,0-.71857-1.73c-.53241-1.1227-1.14274-2.19275-1.72279-3.21569-.56705-1.02578-1.12113-2.01272-1.5583-2.96365l-.29868-.70686c-.08658-.23838-.17749-.44914-.2554-.70687-.15583-.49354-.342-.98423-.48048-1.47763a34.6884,34.6884,0,0,1-1.15143-5.86611,22.27057,22.27057,0,0,1,.0433-5.68309,15.30678,15.30678,0,0,1,6.44536-9.89967c3.70963-2.80825,9.05985-5.02049,14.68709-7.39639,2.70541-1.15316,5.47573-2.37576,8.14652-3.78124.10822-.05266.2121-.11086.32032-.16636l.51941-.27168.5108-.29116L42.1594,30.385c.68827-.377,1.31593-.82057,1.96523-1.23925.65793-.40744,1.24662-.87594,1.84831-1.33062.29-.23012.619-.45739.87873-.68751l.76615-.69022A38.97011,38.97011,0,0,0,50.57,23.618l1.36787-1.45543c.4415-.49082.81809-1.00913,1.225-1.51376A27.22161,27.22161,0,0,0,56.998,14.306a19.19229,19.19229,0,0,0,1.61025-6.71714,13.91384,13.91384,0,0,0,.00866-1.69935,14.124,14.124,0,0,0-.17315-1.69935c-.03895-.28007-.11255-.56555-.16449-.84562l-.09522-.42138-.12122-.4241a8.19327,8.19327,0,0,0-.2727-.84561c-.05628-.14132-.10389-.27993-.1688-.42694-.06494-.14687-.12121-.27722-.20779-.45455a2.05515,2.05515,0,0,0-2.186-.718c-.81379.16623-1.2986.682-1.19038,1.20582l.02164.10816.06927.32433c.026.11641.04328.24392.06061.36588.03894.24122.06491.49083.08222.743l.03463.37428.00434.37983c0,.25219.0173.50166,0,.754-.04761.50734-.04761,1.00913-.13852,1.51363a11.4193,11.4193,0,0,1-.27271,1.50822,11.73087,11.73087,0,0,1-.41553,1.49143l-.25107.74017c-.04331.122-.07792.24663-.12986.36873l-.16449.36589c-.21643.48514-.41122.97312-.64066,1.45542l-.79212,1.425a30.291,30.291,0,0,1-4.18149,5.41143c-.41986.42693-.80078.86483-1.24665,1.28351L44.69168,21.1035a37.61968,37.61968,0,0,1-2.9435,2.3759l-.75318.5849c-.25107.194-.51511.34653-.77049.524-.51511.34368-1.00425.69306-1.5843,1.00629-.56705.31878-1.09513.65421-1.71412.94808l-.896.4574-.45019.22727-.47181.21631c-2.49331,1.16981-5.24632,2.2205-8.09457,3.2961-2.84826,1.08128-5.82637,2.17353-8.77418,3.45705a49.93945,49.93945,0,0,0-8.46683,4.56594,25.47937,25.47937,0,0,0-6.37175,6.17379A18.79909,18.79909,0,0,0,.35333,52.01129a17.03555,17.03555,0,0,0,.052,7.14123,22.9146,22.9146,0,0,0,2.753,6.72269c.30732.5378.65794,1.0645.99125,1.594.15583.25787.36795.54619.54975.815.19046.27168.38956.53509.58869.79567.79648,1.03959,1.61891,2.007,2.39806,2.94131,1.541,1.87411,2.80065,3.62056,3.1859,5.45027a8.7453,8.7453,0,0,1,.1818,2.55593,1.94621,1.94621,0,0,0-.33765.84562v.02775a18.06426,18.06426,0,0,0-.12985,2.41177c-.01731.13035-.03464.25786-.04761.38808a24.79945,24.79945,0,0,0-.14719,3.09942c.00867.5156.03031,1.034.08225,1.54977a9.36638,9.36638,0,0,0,.2424,1.56074l.00867.04427a2.06576,2.06576,0,0,0,.39823.78186v.0027c.00433.07215.00433.14417.00433.21631A9.646,9.646,0,0,1,10.872,93.3399l-.039.19113-.05194.16921-.10388.32988c-.07791.22172-.16882.44629-.2554.66815a11.61124,11.61124,0,0,1-.72721,1.34457,26.02739,26.02739,0,0,1-2.03014,2.74165c-.77915.93157-1.60591,1.899-2.40239,2.9386-.1948.26328-.3939.5267-.58869.79837-.18182.269-.38959.55729-.54975.815-.329.52954-.6796,1.05624-.98261,1.59688a22.89491,22.89491,0,0,0-2.74,6.72539A17.10853,17.10853,0,0,0,.35333,118.80013Z"/><path class="b" d="M10.47371,58.45946a22.27057,22.27057,0,0,1,.0433-5.68309,15.30678,15.30678,0,0,1,6.44536-9.89967c3.70963-2.80825,9.05985-5.02049,14.68709-7.39639,2.70541-1.15316,5.47573-2.37576,8.14652-3.78124-4.21179,1.33062-8.82178,2.00988-12.76087,3.57062-4.97794,1.97386-9.87364,4.40228-13.29325,7.48221C2.91591,52.50185,7.56054,65.8392,16.94071,76.04939l-.00434-.0222c-.07791-.30213-.17746-.60155-.277-.901a18.38613,18.38613,0,0,0-.71857-1.73c-.53241-1.1227-1.14274-2.19275-1.72279-3.21569-.56705-1.02578-1.12113-2.01272-1.5583-2.96365l-.29868-.70686c-.08658-.23838-.17749-.44914-.2554-.70687-.15583-.49354-.342-.98423-.48048-1.47763A34.6884,34.6884,0,0,1,10.47371,58.45946Z"/><path class="b" d="M13.74186,129.21269c3.41961,3.07721,8.31531,5.50834,13.29325,7.48221,4.4585,1.766,9.77843,2.4008,14.40142,4.13345a38.03988,38.03988,0,0,1,4.017,1.77421c-.4242-.32433-.8614-.64595-1.32887-.937-.6493-.41868-1.277-.86213-1.96523-1.23926l-1.01289-.5849-.5108-.29117-.51941-.27154c-2.77035-1.47492-5.65322-2.74733-8.46684-3.94773-5.62724-2.37577-10.97746-4.5853-14.68709-7.3964a15.30643,15.30643,0,0,1-6.44536-9.89966,22.07757,22.07757,0,0,1-.039-5.6831,34.35737,34.35737,0,0,1,1.16874-5.86326c.13852-.4934.32465-.98139.48048-1.47763.07791-.255.17315-.46565.2554-.70416l.303-.70416c.43717-.95079.98691-1.93773,1.554-2.96622.58005-1.02023,1.186-2.09312,1.71415-3.21853.13419-.26613.25107-.53794.36359-.81516C7.36141,106.71868,3.15831,119.68161,13.74186,129.21269Z"/><path class="c" d="M10.39146,86.80009c.00867.5156.03031,1.034.08225,1.54977a9.36638,9.36638,0,0,0,.2424,1.56074l.00867.04427a2.06576,2.06576,0,0,0,.39823.78186v.0027c.00433.07215.00433.14417.00433.21631a10.89283,10.89283,0,0,0,6.60552.52115l.00433-.00284a2.7237,2.7237,0,0,0,1.19471-1.339,8.15967,8.15967,0,0,0,.40256-1.65225,11.35983,11.35983,0,0,0,.14716-1.66334,14.64233,14.64233,0,0,0-.19477-2.7445v-.08311a13.44278,13.44278,0,0,0-.355-3.31288,2.53368,2.53368,0,0,0-1.16874-1.461s-1.36353,1.0867-6.7094.80947a1.94621,1.94621,0,0,0-.33765.84562v.02775a18.06426,18.06426,0,0,0-.12985,2.41177c-.01731.13035-.03464.25786-.04761.38808A24.79945,24.79945,0,0,0,10.39146,86.80009Z"/><path class="d" d="M11.05376,80.02745c5.34661.27846,6.7094-.80947,6.7094-.80947"/><path class="d" d="M12.44878,80.20294s-1.34206,7.42343-.56051,11.02288"/><path class="d" d="M17.73286,91.47689s-3.83778,1.13022-6.60552-.52115"/><path class="e" d="M17.53264,81.80163a14.00055,14.00055,0,0,1-3.87617.84937"/><path class="e" d="M17.53264,83.4443a9.31858,9.31858,0,0,1-3.36893.75577"/><path class="e" d="M18.08523,85.40586s-3.3316.92574-4.42876.71339"/><path class="e" d="M17.53264,87.89728a9.56084,9.56084,0,0,1-3.36893.34349"/><path class="e" d="M17.3116,90.27737s-2.89952.48392-3.65513,0"/><path class="f" d="M13.65528,91.77077a21.74188,21.74188,0,0,0,4.20743-.37983A2.63764,2.63764,0,0,0,18.9319,90.135a8.15967,8.15967,0,0,0,.40256-1.65225,11.35983,11.35983,0,0,0,.14716-1.66334,14.64233,14.64233,0,0,0-.19477-2.7445v-.08311a13.44278,13.44278,0,0,0-.355-3.31288,2.30592,2.30592,0,0,0-.83112-1.21421l-.0173.18017s.71423.67086,0,4.70726C17.37357,88.38858,13.65528,91.77077,13.65528,91.77077Z"/><path class="g" d="M45.40049,19.48468a16.13653,16.13653,0,0,0,4.4865,2.00986,15.48827,15.48827,0,0,0,2.3708.46263,35.45106,35.45106,0,0,0,3.75138-5.56,34.38928,34.38928,0,0,0,1.72965-3.75179,26.03156,26.03156,0,0,0,1.10592-3.84392c.07206-.34917.13359-.707.18811-1.06138.04272-.2598.07269-.51649.10342-.77721.01486-.07864.02267-.15373.03151-.23264a11.33786,11.33786,0,0,1-1.23359.13946A6.37632,6.37632,0,0,1,53.966,5.96838a22.19721,22.19721,0,0,1-.73688,2.15475,30.84876,30.84876,0,0,1-3.70465,6.59581,37.6669,37.6669,0,0,1-2.545,3.09466c-.45043.50706-.94176.99907-1.403,1.49751C45.51544,19.37,45.45516,19.42529,45.40049,19.48468Z"/><path class="h" d="M56.71047,6.859S52.32881,18.3734,47.9097,20.80892L46.123,19.92375S53.945,12.68321,54.73386,6.39054Z"/><path class="i" d="M58.2683,7.47272A7.93658,7.93658,0,0,1,53.94057,6.832"/><path class="i" d="M58.13227,8.19259a7.93667,7.93667,0,0,1-4.32774-.64071"/><path class="i" d="M57.99623,8.91246a7.93657,7.93657,0,0,1-4.32774-.64071"/><path class="i" d="M57.86019,9.63234a7.93658,7.93658,0,0,1-4.32773-.64072"/><path class="i" d="M57.67962,10.58792s-2.98253.29756-4.73654-.79792"/><path class="i" d="M57.23469,11.56985c.56147-.03666-2.8668.2534-4.72119-.83552"/><path class="i" d="M56.90349,12.64558s-3.26375.31461-5.01776-.78087"/><path class="i" d="M56.34954,13.84281s-3.31878.232-5.07279-.86344"/><path class="i" d="M55.81243,14.79332s-3.66.13687-5.29509-1.03165"/><path class="i" d="M55.64046,15.70335s-3.85415.09258-5.48921-1.07593"/><path class="i" d="M54.95527,16.45936s-3.58763.02788-5.22269-1.14064"/><path class="i" d="M54.38769,17.19524s-3.67853.06911-5.19421-1.16365"/><path class="i" d="M54.25,17.92415s-4.2799-.092-5.78006-1.33254"/><path class="i" d="M53.88128,18.91683s-4.664-.14941-6.21762-1.36264"/><path class="i" d="M52.59682,19.8476s-4.108-.17857-5.525-1.45857"/><path class="i" d="M52.41549,20.80717s-4.71732-.4752-5.99534-1.81387"/><path class="j" d="M58.389,6.83391s-2.74165.33259-4.42307-.86553"/><path class="j" d="M51.62771,21.90833s-4.587-1.00741-6.26844-2.20553"/><path class="k" d="M49.887,21.49454a15.48827,15.48827,0,0,0,2.3708.46263,35.45106,35.45106,0,0,0,3.75138-5.56,34.38928,34.38928,0,0,0,1.72965-3.75179,26.03156,26.03156,0,0,0,1.10592-3.84392c.07206-.34917.13359-.707.18811-1.06138.04272-.2598.10419-.74913.13493-1.00985l-1.23359.13946S59.39864,12.68646,49.887,21.49454Z"/><path class="g" d="M45.33937,150.6603a16.01869,16.01869,0,0,1,4.46418-2.03015,15.43317,15.43317,0,0,1,2.36563-.47336,35.77492,35.77492,0,0,1,3.81273,5.54286,34.65,34.65,0,0,1,1.77106,3.74386,26.16926,26.16926,0,0,1,1.14836,3.83881c.07592.34884.1414.70633.19984,1.06051.04558.25959.07839.51614.112.77672.01573.07856.02437.15362.03408.23249a11.36213,11.36213,0,0,0-1.2351-.13387,6.35044,6.35044,0,0,0-3.95819.91927,22.33032,22.33032,0,0,0-.76066-2.15136,31.10671,31.10671,0,0,0-3.77744-6.57884,38.027,38.027,0,0,0-2.57913-3.08305c-.456-.505-.95278-.99479-1.41953-1.49112C45.45559,150.77444,45.3947,150.71945,45.33937,150.6603Z"/><path class="h" d="M56.78858,163.23442s-4.50878-11.49427-8.95469-13.9097L46.057,150.218s7.90175,7.20491,8.76017,13.49386Z"/><path class="i" d="M58.33959,162.61365a7.91892,7.91892,0,0,0-4.32055.66031"/><path class="i" d="M58.1956,161.89441a7.91888,7.91888,0,0,0-4.32054.66031"/><path class="i" d="M58.05162,161.17517a7.91891,7.91891,0,0,0-4.32055.66031"/><path class="i" d="M57.90763,160.45593a7.91892,7.91892,0,0,0-4.32055.66031"/><path class="i" d="M57.7165,159.50119s-2.98574-.284-4.7276.81937"/><path class="i" d="M57.26073,158.5213c.56186.03411-2.86952-.24041-4.71183.8569"/><path class="i" d="M56.91765,157.44709s-3.26714-.29981-5.009.8036"/><path class="i" d="M56.35049,156.2524s-3.32126-.217-5.06312.88642"/><path class="i" d="M55.80289,155.30436s-3.66145-.12028-5.28355,1.05561"/><path class="i" d="M55.62087,154.39512s-3.85508-.0751-5.47719,1.10079"/><path class="i" d="M54.92734,153.64224s-3.58785-.01161-5.20995,1.16428"/><path class="i" d="M54.35165,152.909s-3.67921-.05244-5.18123,1.18716"/><path class="i" d="M54.20585,152.18069s-4.27878.11141-5.76519,1.3587"/><path class="i" d="M53.82622,151.1897s-4.66221.17055-6.2024,1.39079"/><path class="i" d="M52.53152,150.26477s-4.10589.19719-5.50872,1.48358"/><path class="i" d="M52.33959,149.30605s-4.712.49657-5.97515,1.841"/><path class="j" d="M58.46736,163.25189s-2.74525-.32016-4.4134.88555"/><path class="j" d="M51.53965,148.20849s-4.57577,1.02817-6.24391,2.23388"/><path class="k" d="M49.80355,148.63015a15.43317,15.43317,0,0,1,2.36563-.47336,35.77492,35.77492,0,0,1,3.81273,5.54286,34.65,34.65,0,0,1,1.77106,3.74386,26.16926,26.16926,0,0,1,1.14836,3.83881c.07592.34884.1414.70633.19984,1.06051.04558.25959.11246.74863.14608,1.00921l-1.2351-.13387S59.41229,157.39491,49.80355,148.63015Z"/><polyline class="l" points="52.258 21.957 52.344 85.674 52.169 148.157"/></svg>