<svg xmlns="http://www.w3.org/2000/svg" viewBox="0 0 334.69064 56.2788"><defs><style>.a,.b,.f{fill:none;}.a{stroke:#706f6f;stroke-width:7.59574px;}.a,.b{stroke-linecap:round;stroke-linejoin:round;}.b{stroke:#878787;stroke-width:2.53191px;}.c{fill:#9d9d9c;}.d{fill:#3c3c3b;}.e{fill:#ededed;}.f{stroke:#575756;stroke-miterlimit:10;stroke-width:1.89894px;}.g{fill:#c6c6c6;}.h{fill:#dba2e1;}.i{fill:#feb0f4;}.j{fill:#a974a0;}.k{fill:#fff;}</style></defs><line class="a" x1="330.89279" y1="28.70504" x2="26.08217" y2="28.70504"/><line class="b" x1="330.89279" y1="28.1394" x2="26.08217" y2="28.1394"/><polygon class="c" points="23.802 32.965 23.802 24.445 20.239 21.763 19.367 28.705 20.239 35.647 23.802 32.965"/><rect class="d" x="19.45523" y="27.42823" width="10.70039" height="2.5535" rx="1.27675" transform="translate(53.5104 3.89956) rotate(90)"/><polygon class="e" points="20.239 21.763 0 28.705 20.239 35.647 19.367 28.705 20.239 21.763"/><path class="f" d="M53.47533,32.50291v-.4354a16.72275,16.72275,0,0,1,0-6.65079V24.93"/><path class="f" d="M48.80466,32.50291v-.4354a16.72275,16.72275,0,0,1,0-6.65079V24.93"/><path class="f" d="M44.134,32.50291v-.4354a16.72275,16.72275,0,0,1,0-6.65079V24.93"/><path class="f" d="M39.4633,32.50291v-.4354a16.72275,16.72275,0,0,1,0-6.65079V24.93"/><path class="f" d="M327.088,32.50291v-.4354a16.72275,16.72275,0,0,1,0-6.65079V24.93"/><path class="f" d="M322.41736,32.50291v-.4354a16.72275,16.72275,0,0,1,0-6.65079V24.93"/><path class="f" d="M317.74669,32.50291v-.4354a16.72275,16.72275,0,0,1,0-6.65079V24.93"/><path class="f" d="M313.076,32.50291v-.4354a16.72275,16.72275,0,0,1,0-6.65079V24.93"/><path class="f" d="M308.40533,32.50291v-.4354a16.72275,16.72275,0,0,1,0-6.65079V24.93"/><path class="f" d="M303.73466,32.50291v-.4354a16.72275,16.72275,0,0,1,0-6.65079V24.93"/><path class="f" d="M299.064,32.50291v-.4354a16.72275,16.72275,0,0,1,0-6.65079V24.93"/><path class="f" d="M294.3933,32.50291v-.4354a16.72275,16.72275,0,0,1,0-6.65079V24.93"/><path class="f" d="M289.72263,32.50291v-.4354a16.72275,16.72275,0,0,1,0-6.65079V24.93"/><path class="f" d="M285.05195,32.50291v-.4354a16.72275,16.72275,0,0,1,0-6.65079V24.93"/><path class="f" d="M280.38127,32.50291v-.4354a16.723,16.723,0,0,1,0-6.65079V24.93"/><path class="f" d="M275.7106,32.50291v-.4354a16.72275,16.72275,0,0,1,0-6.65079V24.93"/><polygon class="g" points="19.367 28.705 0 28.705 20.239 35.647 19.367 28.705"/><polygon class="h" points="290.686 31.5 301.415 40.626 332.894 40.626 322.165 31.5 290.686 31.5"/><polygon class="i" points="322.165 31.5 327.164 38.746 301.954 38.746 290.686 31.5 301.415 40.626 332.894 40.626 322.165 31.5"/><polygon class="j" points="322.165 31.5 292.431 32.984 290.686 31.5 322.165 31.5"/><polygon class="h" points="290.686 25.78 301.415 16.654 332.894 16.654 322.165 25.78 290.686 25.78"/><polygon class="j" points="326.455 22.131 290.686 25.78 322.165 25.78 326.455 22.131"/><polygon class="i" points="332.894 16.654 303.195 18.009 290.686 25.78 301.415 16.654 332.894 16.654"/><rect class="k" x="36.01982" y="10.08945" width="250.83123" height="36.09991" rx="6.92596"/><path class="d" d="M118.52327,32.70037a.40169.40169,0,0,1-.11718-.297V22.95343a.39551.39551,0,0,1,.11718-.306.42042.42042,0,0,1,.29688-.108h3.40234a4.73772,4.73772,0,0,1,3.42871,1.098,4.40847,4.40847,0,0,1,1.125,3.29406v5.47193a.40068.40068,0,0,1-.41406.41406h-7.542A.40123.40123,0,0,1,118.52327,32.70037Zm6.70508-1.287v-4.392q0-3.09576-3.09619-3.09607h-2.23193v7.488Z"/><path class="d" d="M129.46712,28.52435a.40133.40133,0,0,1-.1167-.297V22.95343a.39525.39525,0,0,1,.1167-.306.42042.42042,0,0,1,.29688-.108h.792a.39977.39977,0,0,1,.41406.41407v5.27392a.39994.39994,0,0,1-.41406.41406h-.792A.40122.40122,0,0,1,129.46712,28.52435Z"/><path class="d" d="M140.14974,27.09332a3.71866,3.71866,0,0,1-1.6919,1.51208l1.87207,2.7a.867.867,0,0,1,.21583.54v.558a.4007.4007,0,0,1-.41407.41406h-6.47949a.4.4,0,0,1-.41406-.41406v-.594a.37239.37239,0,0,1,.1167-.288.42081.42081,0,0,1,.29736-.108h4.89551l-5.63379-8.172a.78616.78616,0,0,1-.144-.342.33256.33256,0,0,1,.1167-.25195.39736.39736,0,0,1,.27929-.108h.792a.58033.58033,0,0,1,.48633.28809l3.22168,4.64392a2.92792,2.92792,0,0,0,1.53028-2.952V22.95343a.39524.39524,0,0,1,.11669-.306.42042.42042,0,0,1,.29688-.108h.70215a.40051.40051,0,0,1,.41406.41407v1.76391A4.6424,4.6424,0,0,1,140.14974,27.09332Z"/><path class="d" d="M143.18245,28.52435a.40133.40133,0,0,1-.1167-.297V22.95343a.39525.39525,0,0,1,.1167-.306.42125.42125,0,0,1,.29688-.108h.792a.39977.39977,0,0,1,.41406.41407v5.27392a.39994.39994,0,0,1-.41406.41406h-.792A.402.402,0,0,1,143.18245,28.52435Z"/><path class="d" d="M147.46663,32.70037a.40169.40169,0,0,1-.11718-.297V22.95343a.39551.39551,0,0,1,.11718-.306.4196.4196,0,0,1,.29688-.108h3.45605a4.77376,4.77376,0,0,1,3.45606,1.10706,4.44512,4.44512,0,0,1,1.13379,3.32092v5.436a.4007.4007,0,0,1-.41407.41406h-.75585a.4007.4007,0,0,1-.41407-.41406v-5.382q0-3.09576-3.0957-3.09607h-2.19629v8.478a.40069.40069,0,0,1-.41406.41406h-.75586A.40046.40046,0,0,1,147.46663,32.70037Z"/><path class="d" d="M172.08089,26.93145v5.47193a.40069.40069,0,0,1-.41406.41406H170.911a.40068.40068,0,0,1-.41406-.41406v-5.382q0-3.09576-3.09571-3.09607h-1.29589q-.18018,1.13415-.26124,1.8811a13.48067,13.48067,0,0,0-.063,1.70093l.03613,4.896a.40069.40069,0,0,1-.41406.41406l-2.502-.03613a.40051.40051,0,0,1-.41406-.41394v-.53992a.4005.4005,0,0,1,.41406-.41406l1.38575.01806V27.5794q-.01758-1.134.04492-1.917a11.12583,11.12583,0,0,1,.29687-1.73706h-.97168a.42006.42006,0,0,1-.29687-.10791.37283.37283,0,0,1-.11719-.28809v-.57592a.39548.39548,0,0,1,.11719-.306.41957.41957,0,0,1,.29687-.108h3.852Q172.0809,22.53936,172.08089,26.93145Z"/><path class="d" d="M174.89827,32.70037a.40169.40169,0,0,1-.11718-.297V22.95343a.39551.39551,0,0,1,.11718-.306.4196.4196,0,0,1,.29688-.108h.792a.4005.4005,0,0,1,.41406.41407v9.44995a.40068.40068,0,0,1-.41406.41406h-.792A.40046.40046,0,0,1,174.89827,32.70037Z"/><path class="d" d="M184.72591,32.70037a.40133.40133,0,0,1-.1167-.297v-5.382q0-3.09576-3.09619-3.09607h-2.32178a.42129.42129,0,0,1-.29736-.10791.37249.37249,0,0,1-.1167-.28809v-.57592a.39977.39977,0,0,1,.41406-.41407h2.42969q4.57178,0,4.57227,4.39209v5.47193a.4007.4007,0,0,1-.41407.41406h-.75586A.40158.40158,0,0,1,184.72591,32.70037Z"/><path class="d" d="M188.88363,28.52435a.40167.40167,0,0,1-.11719-.297V22.95343a.39548.39548,0,0,1,.11719-.306.42038.42038,0,0,1,.29687-.108h.792a.40051.40051,0,0,1,.41407.41407v5.27392a.40068.40068,0,0,1-.41407.41406h-.792A.40118.40118,0,0,1,188.88363,28.52435Z"/><path class="d" d="M198.26156,23.00738a2.81468,2.81468,0,0,1,1.39453,1.494,7.1718,7.1718,0,0,1,.43213,2.736,5.25063,5.25063,0,0,1-1.13379,3.59107,6.6809,6.6809,0,0,1-2.95215,1.89892l-.75586.252a.311.311,0,0,1-.126.01806.32352.32352,0,0,1-.32422-.342v-.792a.52788.52788,0,0,1,.396-.486l.70215-.27a4.14707,4.14707,0,0,0,1.9082-1.35,4.26115,4.26115,0,0,0,.666-2.592,5.08493,5.08493,0,0,0-.28809-1.89893,1.83972,1.83972,0,0,0-.94531-.999,4.36862,4.36862,0,0,0-1.8086-.306h-.6123l-1.65625-.01794a.42042.42042,0,0,1-.29688-.108.37258.37258,0,0,1-.11718-.288V20.45135a.40048.40048,0,0,1,.41406-.41394h.72021a.37389.37389,0,0,1,.28809.11694.42257.42257,0,0,1,.10791.297v2.088H195.66A6.02765,6.02765,0,0,1,198.26156,23.00738Z"/><path class="d" d="M214.452,22.6474a.41316.41316,0,0,1,.10839.306v4.968a4.37779,4.37779,0,0,1-1.04394,2.85291,5.577,5.577,0,0,1-2.79,1.791l-3.92432,1.24207a.47563.47563,0,0,1-.144.01794.38266.38266,0,0,1-.25195-.09.28988.28988,0,0,1-.10791-.234v-.558q0-.41382.28759-.504l2.3584-.792-2.33984-8.38807a2.24185,2.24185,0,0,1-.09033-.36.369.369,0,0,1,.35986-.36h.82813a.43566.43566,0,0,1,.27.08106.39543.39543,0,0,1,.144.189l2.30371,8.352a3.65792,3.65792,0,0,0,1.98926-1.42212,4.31377,4.31377,0,0,0,.56738-2.304V22.95343a.39977.39977,0,0,1,.41406-.41407h.75586A.41286.41286,0,0,1,214.452,22.6474Z"/><path class="d" d="M224.94613,22.6474a.41471.41471,0,0,1,.10742.306v.57592a.37418.37418,0,0,1-.1167.28809.42212.42212,0,0,1-.29736.10791H223.578a1.97512,1.97512,0,0,0-.40527.84607,5.05316,5.05316,0,0,0-.15283,1.296v6.354a.36177.36177,0,0,1-.126.288.45575.45575,0,0,1-.30615.108h-.75586a.37157.37157,0,0,1-.396-.396v-6.462a5.4183,5.4183,0,0,1,.126-1.26,1.85457,1.85457,0,0,1,.34228-.774h-4.96826a.42209.42209,0,0,1-.29736-.10791.37249.37249,0,0,1-.1167-.28809v-.57592a.39977.39977,0,0,1,.41406-.41407h7.70362A.41525.41525,0,0,1,224.94613,22.6474Z"/><path class="d" d="M227.27669,28.52435a.40133.40133,0,0,1-.1167-.297V22.95343a.39525.39525,0,0,1,.1167-.306.42042.42042,0,0,1,.29688-.108h.792a.39977.39977,0,0,1,.41406.41407v5.27392a.39994.39994,0,0,1-.41406.41406h-.792A.40122.40122,0,0,1,227.27669,28.52435Z"/><path class="d" d="M238.2474,23.92535h-2.646a.37141.37141,0,0,1-.396-.396v-.57592a.42268.42268,0,0,1,.10791-.29712.37389.37389,0,0,1,.28809-.117h2.73633a4.85081,4.85081,0,0,1,3.45605,1.08008,4.37754,4.37754,0,0,1,1.13379,3.312v7.70386a.4005.4005,0,0,1-.41406.41406h-.75586a.41963.41963,0,0,1-.29688-.108.39533.39533,0,0,1-.11718-.306V27.02142Q241.34359,23.92566,238.2474,23.92535Z"/><path class="d" d="M245.61849,28.52435a.40129.40129,0,0,1-.1167-.297V22.95343a.39521.39521,0,0,1,.1167-.306.42041.42041,0,0,1,.29687-.108h.792a.39977.39977,0,0,1,.41406.41407v5.27392a.39994.39994,0,0,1-.41406.41406h-.792A.40121.40121,0,0,1,245.61849,28.52435Z"/><path class="d" d="M254.80745,32.45733a.32458.32458,0,0,1-.11718.261.41747.41747,0,0,1-.2793.09912h-4.80566a.4007.4007,0,0,1-.41407-.41406v-.57593a.4005.4005,0,0,1,.41407-.41406h3.54589l-.28808-4.572q-.09009-1.16987-.189-1.719a1.63558,1.63558,0,0,0-.44091-.891,1.4493,1.4493,0,0,0-1.062-.342h-.73779a.42163.42163,0,0,1-.29736-.108.372.372,0,0,1-.1167-.288v-.57592a.4.4,0,0,1,.41406-.41407h.73779a3.301,3.301,0,0,1,1.98877.51306,2.59971,2.59971,0,0,1,.9541,1.413,11.219,11.219,0,0,1,.35108,2.358l.34228,5.616Z"/><path class="d" d="M257.2098,32.70037a.40129.40129,0,0,1-.1167-.297V22.95343a.39521.39521,0,0,1,.1167-.306.4216.4216,0,0,1,.29736-.108h3.45557a4.773,4.773,0,0,1,3.45605,1.10706,4.44331,4.44331,0,0,1,1.13428,3.32092v5.436a.4.4,0,0,1-.41406.41406h-.75586a.4.4,0,0,1-.41407-.41406v-5.382q0-3.09576-3.09619-3.09607h-2.1958v8.478a.4.4,0,0,1-.41406.41406h-.75586A.40231.40231,0,0,1,257.2098,32.70037Z"/><path class="d" d="M275.2098,32.70037a.40166.40166,0,0,1-.11719-.297v-5.382q0-3.09576-3.07764-3.09607h-3.34814a.42091.42091,0,0,1-.29688-.10791.37286.37286,0,0,1-.11718-.28809v-.57592a.39551.39551,0,0,1,.11718-.306.42042.42042,0,0,1,.29688-.108h3.43848q4.57178,0,4.57128,4.428v5.436a.39991.39991,0,0,1-.41357.41406h-.75635A.40121.40121,0,0,1,275.2098,32.70037Zm-6.83985,0a.40169.40169,0,0,1-.11718-.297v-6.048a.40068.40068,0,0,1,.41406-.41406h.75586a.4.4,0,0,1,.41406.41406v6.048a.4.4,0,0,1-.41406.41406h-.75586A.40123.40123,0,0,1,268.37,32.70037Z"/></svg>