<svg xmlns="http://www.w3.org/2000/svg" viewBox="0 0 334.69068 56.27881"><defs><style>.a,.b,.f{fill:none;}.a{stroke:#706f6f;stroke-width:7.59574px;}.a,.b{stroke-linecap:round;stroke-linejoin:round;}.b{stroke:#878787;stroke-width:2.53191px;}.c{fill:#9d9d9c;}.d{fill:#3c3c3b;}.e{fill:#ededed;}.f{stroke:#575756;stroke-miterlimit:10;stroke-width:1.89894px;}.g{fill:#c6c6c6;}.h{fill:#8086d3;}.i{fill:#9994ff;}.j{fill:#7770c4;}.k{fill:#fff;}</style></defs><line class="a" x1="330.89281" y1="28.20473" x2="26.08219" y2="28.20473"/><line class="b" x1="330.89281" y1="27.63909" x2="26.08219" y2="27.63909"/><polygon class="c" points="23.802 32.465 23.802 23.945 20.239 21.262 19.367 28.205 20.239 35.147 23.802 32.465"/><rect class="d" x="19.45525" y="26.92792" width="10.70039" height="2.5535" rx="1.27675" transform="translate(53.01011 3.39923) rotate(90)"/><polygon class="e" points="20.239 21.262 0 28.205 20.239 35.147 19.367 28.205 20.239 21.262"/><path class="f" d="M53.47535,32.0026v-.4354a16.72275,16.72275,0,0,1,0-6.65079v-.48674"/><path class="f" d="M48.80468,32.0026v-.4354a16.72275,16.72275,0,0,1,0-6.65079v-.48674"/><path class="f" d="M44.134,32.0026v-.4354a16.72275,16.72275,0,0,1,0-6.65079v-.48674"/><path class="f" d="M39.46332,32.0026v-.4354a16.72275,16.72275,0,0,1,0-6.65079v-.48674"/><path class="f" d="M327.08806,32.0026v-.4354a16.72275,16.72275,0,0,1,0-6.65079v-.48674"/><path class="f" d="M322.41739,32.0026v-.4354a16.72275,16.72275,0,0,1,0-6.65079v-.48674"/><path class="f" d="M317.74671,32.0026v-.4354a16.72275,16.72275,0,0,1,0-6.65079v-.48674"/><path class="f" d="M313.076,32.0026v-.4354a16.72275,16.72275,0,0,1,0-6.65079v-.48674"/><path class="f" d="M308.40536,32.0026v-.4354a16.72275,16.72275,0,0,1,0-6.65079v-.48674"/><path class="f" d="M303.73468,32.0026v-.4354a16.72275,16.72275,0,0,1,0-6.65079v-.48674"/><path class="f" d="M299.064,32.0026v-.4354a16.72275,16.72275,0,0,1,0-6.65079v-.48674"/><path class="f" d="M294.39333,32.0026v-.4354a16.72275,16.72275,0,0,1,0-6.65079v-.48674"/><path class="f" d="M289.72265,32.0026v-.4354a16.72275,16.72275,0,0,1,0-6.65079v-.48674"/><path class="f" d="M285.052,32.0026v-.4354a16.72275,16.72275,0,0,1,0-6.65079v-.48674"/><path class="f" d="M280.3813,32.0026v-.4354a16.72275,16.72275,0,0,1,0-6.65079v-.48674"/><path class="f" d="M275.71062,32.0026v-.4354a16.72275,16.72275,0,0,1,0-6.65079v-.48674"/><polygon class="g" points="19.367 28.205 0 28.205 20.239 35.147 19.367 28.205"/><polygon class="h" points="290.686 30.999 301.415 40.125 332.894 40.125 322.165 30.999 290.686 30.999"/><polygon class="i" points="322.165 30.999 327.164 38.245 301.954 38.245 290.686 30.999 301.415 40.125 332.894 40.125 322.165 30.999"/><polygon class="j" points="322.165 30.999 292.432 32.484 290.686 30.999 322.165 30.999"/><polygon class="h" points="290.686 25.28 301.415 16.153 332.894 16.153 322.165 25.28 290.686 25.28"/><polygon class="j" points="326.455 21.631 290.686 25.28 322.165 25.28 326.455 21.631"/><polygon class="i" points="332.894 16.153 303.195 17.508 290.686 25.28 301.415 16.153 332.894 16.153"/><rect class="k" x="36.01984" width="250.83123" height="56.27881" rx="8.64767"/><path class="d" d="M92.61216,16.84191V22.314a.40051.40051,0,0,1-.41406.41394h-.75586a.40051.40051,0,0,1-.41406-.41394V16.932q0-3.09576-3.09571-3.09607H86.63658q-.18018,1.134-.26123,1.881a13.48154,13.48154,0,0,0-.063,1.70105l.03613,4.896a.40051.40051,0,0,1-.41406.41394l-2.502-.03589a.40069.40069,0,0,1-.41406-.41406v-.54a.40067.40067,0,0,1,.41406-.41394l1.38575.01794V17.49q-.01758-1.134.04492-1.917A11.12348,11.12348,0,0,1,85.16,13.83593h-.97168a.41963.41963,0,0,1-.29687-.108.3724.3724,0,0,1-.11719-.288v-.57605a.39537.39537,0,0,1,.11719-.3059.41959.41959,0,0,1,.29687-.108h3.85205Q92.61217,12.44994,92.61216,16.84191Z"/><path class="d" d="M103.48423,22.368a.36968.36968,0,0,1-.36035.35987h-.80957a.46842.46842,0,0,1-.36035-.135q-.126-.135-.14356-.153l-4.10449-5.778a2.82867,2.82867,0,0,0-1.05273,1.323,4.86738,4.86738,0,0,0-.2793,1.683v2.646a.39976.39976,0,0,1-.41406.41394h-.666a.40051.40051,0,0,1-.41406-.41394v-2.718a6.10744,6.10744,0,0,1,.40527-2.322,4.059,4.059,0,0,1,1.59278-1.782L95.204,13.152a.66828.66828,0,0,1-.126-.342.36991.36991,0,0,1,.36035-.36h.792a.61711.61711,0,0,1,.5039.306L100.514,18.0299a2.99722,2.99722,0,0,0,.94482-.792,2.01614,2.01614,0,0,0,.36914-.819,6.24337,6.24337,0,0,0,.07227-1.053V12.86388a.39994.39994,0,0,1,.41406-.41394h.70166a.39994.39994,0,0,1,.41406.41394V15.438a4.77411,4.77411,0,0,1-.42285,2.097,4.137,4.137,0,0,1-1.70117,1.6289l2.05225,2.86206A.55174.55174,0,0,1,103.48423,22.368Z"/><path class="d" d="M117.848,12.558a.41477.41477,0,0,1,.10791.3059v4.968a4.37527,4.37527,0,0,1-1.04394,2.853,5.57492,5.57492,0,0,1-2.79,1.791l-3.92383,1.24195a.47485.47485,0,0,1-.14453.01806.383.383,0,0,1-.25195-.09.29073.29073,0,0,1-.10743-.234v-.558q0-.414.2876-.504l2.35791-.792-2.33984-8.38807a2.27276,2.27276,0,0,1-.08985-.36.369.369,0,0,1,.35987-.36h.82812a.43764.43764,0,0,1,.27.08106.39126.39126,0,0,1,.14356.189l2.3042,8.35193A3.65762,3.65762,0,0,0,115.80455,19.65a4.3102,4.3102,0,0,0,.56738-2.30408V12.86388a.40069.40069,0,0,1,.41406-.41394h.75586A.414.414,0,0,1,117.848,12.558Z"/><path class="d" d="M127.17173,17.004a3.72029,3.72029,0,0,1-1.69238,1.512l1.87207,2.7a.86422.86422,0,0,1,.21582.54v.558a.39974.39974,0,0,1-.41357.41394h-6.48a.40051.40051,0,0,1-.41407-.41394V21.72a.37313.37313,0,0,1,.11719-.288.41963.41963,0,0,1,.29688-.108h4.896l-5.63428-8.172a.78923.78923,0,0,1-.14355-.342.33238.33238,0,0,1,.1167-.25195.39622.39622,0,0,1,.27881-.108h.792a.57924.57924,0,0,1,.48633.288l3.22168,4.644a2.92706,2.92706,0,0,0,1.53027-2.952v-1.566a.39537.39537,0,0,1,.11719-.3059.41959.41959,0,0,1,.29687-.108h.70215a.40067.40067,0,0,1,.41406.41394v1.764A4.648,4.648,0,0,1,127.17173,17.004Z"/><path class="d" d="M129.88951,22.611a.41947.41947,0,0,1-.1084-.297v-.57605a.42023.42023,0,0,1,.1084-.29688.37352.37352,0,0,1,.28808-.11706h5.20215V16.932q0-3.078-3.09619-3.078h-1.92627a.3727.3727,0,0,1-.28809-.11707.421.421,0,0,1-.10742-.297v-.57605a.42174.42174,0,0,1,.10742-.29687.374.374,0,0,1,.28809-.11707h2.01611q4.60767,0,4.60791,4.41v4.464h.68408a.37356.37356,0,0,1,.28809.11706.42207.42207,0,0,1,.10791.29688V22.314a.42131.42131,0,0,1-.10791.297.373.373,0,0,1-.28809.117h-7.48779A.373.373,0,0,1,129.88951,22.611Z"/><path class="d" d="M139.94224,18.43493a.40133.40133,0,0,1-.1167-.297V12.86388a.39514.39514,0,0,1,.1167-.3059.42125.42125,0,0,1,.29688-.108h.792a.39994.39994,0,0,1,.41406.41394v5.27405a.39994.39994,0,0,1-.41406.41406h-.792A.402.402,0,0,1,139.94224,18.43493Z"/><path class="d" d="M144.22642,22.611a.4017.4017,0,0,1-.11719-.297V12.86388a.39541.39541,0,0,1,.11719-.3059.4196.4196,0,0,1,.29688-.108h.792a.40069.40069,0,0,1,.41406.41394V22.314a.40051.40051,0,0,1-.41406.41394h-.792A.40083.40083,0,0,1,144.22642,22.611Z"/><path class="d" d="M158.05015,22.611a.40133.40133,0,0,1-.1167-.297V16.932q0-3.09576-3.09619-3.09607h-2.32178a.42084.42084,0,0,1-.29736-.108.372.372,0,0,1-.1167-.288v-.57605a.39994.39994,0,0,1,.41406-.41394h2.42969q4.57178,0,4.57227,4.392V22.314a.40051.40051,0,0,1-.41407.41394h-.75586A.40195.40195,0,0,1,158.05015,22.611Z"/><path class="d" d="M162.20787,18.43493a.40167.40167,0,0,1-.11719-.297V12.86388a.39537.39537,0,0,1,.11719-.3059.42038.42038,0,0,1,.29687-.108h.792a.40069.40069,0,0,1,.41407.41394v5.27405a.40068.40068,0,0,1-.41407.41406h-.792A.40118.40118,0,0,1,162.20787,18.43493Z"/><path class="d" d="M166.05064,22.611a.42131.42131,0,0,1-.10791-.297v-.57605a.42207.42207,0,0,1,.10791-.29688.37353.37353,0,0,1,.28808-.11706h5.20215V16.932q0-3.078-3.0957-3.078H166.5189a.372.372,0,0,1-.28809-.11707.42137.42137,0,0,1-.10791-.297v-.57605a.42207.42207,0,0,1,.10791-.29687.37326.37326,0,0,1,.28809-.11707H168.535q4.60694,0,4.60791,4.41v4.464h.68409a.37426.37426,0,0,1,.28808.11706.42174.42174,0,0,1,.10742.29688V22.314a.421.421,0,0,1-.10742.297.37372.37372,0,0,1-.28808.117h-7.48829A.373.373,0,0,1,166.05064,22.611Z"/><path class="d" d="M177.12974,21.74694a4.65347,4.65347,0,0,1-1.10693-3.339V12.86388a.39368.39368,0,0,1,.11718-.3059.4196.4196,0,0,1,.29688-.108h4.31982a4.4843,4.4843,0,0,1,3.33008,1.04407,4.76229,4.76229,0,0,1,1.09815,3.204q.01756.18.01806.97192,0,.7923-.01806.972a4.387,4.387,0,0,1-1.16993,3.204,5.04174,5.04174,0,0,1-3.564,1.062A4.38412,4.38412,0,0,1,177.12974,21.74694Zm5.7334-.97192a3.073,3.073,0,0,0,.77344-2.223q.0183-.1798.01855-.88208,0-.70184-.01855-.88195a3.02669,3.02669,0,0,0-.81836-2.19605,2.96874,2.96874,0,0,0-2.15137-.756H177.535v4.572a3.25908,3.25908,0,0,0,.729,2.286,2.80238,2.80238,0,0,0,2.16894.792A3.4301,3.4301,0,0,0,182.86314,20.775Z"/><path class="d" d="M187.58775,18.43493a.40167.40167,0,0,1-.11719-.297V12.86388a.39537.39537,0,0,1,.11719-.3059.4204.4204,0,0,1,.29687-.108h.792a.40069.40069,0,0,1,.41406.41394v5.27405a.40068.40068,0,0,1-.41406.41406h-.792A.4012.4012,0,0,1,187.58775,18.43493Z"/><path class="d" d="M197.17222,21.783a4.563,4.563,0,0,1-1.08008-3.285v-5.634a.39514.39514,0,0,1,.1167-.3059.42164.42164,0,0,1,.29737-.108h.68408a.37658.37658,0,0,1,.41406.41394V18.408a3.20766,3.20766,0,0,0,.74707,2.286,3.65709,3.65709,0,0,0,4.46387.063,3.1646,3.1646,0,0,0,.74707-2.205V16.698a3.551,3.551,0,0,0-.62989-2.196,1.99011,1.99011,0,0,0-1.62011-.72,2.57053,2.57053,0,0,0-.72022.117,2.77875,2.77875,0,0,0-.68408.297.29069.29069,0,0,1-.17969.05408.33934.33934,0,0,1-.32422-.32409v-.522a1.275,1.275,0,0,1,.03614-.34192.37577.37577,0,0,1,.19824-.21606,2.77285,2.77285,0,0,1,.80078-.369,4.10375,4.10375,0,0,1,1.0708-.11694,3.37575,3.37575,0,0,1,2.65479,1.017,4.80036,4.80036,0,0,1,.96338,3.141q.01757.18016.01806,1.062,0,.88219-.01806,1.062a4.604,4.604,0,0,1-1.125,3.213,4.65359,4.65359,0,0,1-3.39307,1.053A4.58507,4.58507,0,0,1,197.17222,21.783Z"/><path class="d" d="M212.87681,22.611a.40133.40133,0,0,1-.1167-.297V16.932q0-3.09576-3.09619-3.09607h-2.32178a.42165.42165,0,0,1-.29736-.108.372.372,0,0,1-.1167-.288v-.57605a.39994.39994,0,0,1,.41406-.41394h2.43018q4.57177,0,4.57178,4.392V22.314a.39976.39976,0,0,1-.41407.41394h-.75586A.40272.40272,0,0,1,212.87681,22.611Z"/><path class="d" d="M218.46568,15.312a3.20013,3.20013,0,0,0,.16211,1.13391.8089.8089,0,0,0,.5581.522l.68408.18a.34991.34991,0,0,1,.2251.18909.777.777,0,0,1,.08057.36889V18.12a.29908.29908,0,0,1-.19776.288.7453.7453,0,0,1-.43212.05408l-.70166-.144q-1.8003-.3957-1.8003-3.06006v-2.394a.39541.39541,0,0,1,.11719-.3059.42042.42042,0,0,1,.29688-.108h3.312a3.81768,3.81768,0,0,1,3.00634,1.152,5.06341,5.06341,0,0,1,1.09766,3.29407q.01758.18.01807.684,0,.52221-.01807.702a5.06206,5.06206,0,0,1-1.09766,3.29395,3.81643,3.81643,0,0,1-3.00634,1.152h-3.09619a.39974.39974,0,0,1-.41358-.41394V21.72a.39974.39974,0,0,1,.41358-.41394H220.68a2.40343,2.40343,0,0,0,1.94385-.81006,3.66032,3.66032,0,0,0,.73828-2.286q.01758-.17963.01758-.63,0-.432-.01758-.61206a3.555,3.555,0,0,0-.72949-2.28589,2.42982,2.42982,0,0,0-1.95264-.81006h-2.21435Z"/><path class="d" d="M227.27671,18.43493a.40133.40133,0,0,1-.1167-.297V12.86388a.39514.39514,0,0,1,.1167-.3059.42042.42042,0,0,1,.29688-.108h.792a.39994.39994,0,0,1,.41406.41394v5.27405a.39994.39994,0,0,1-.41406.41406h-.792A.40122.40122,0,0,1,227.27671,18.43493Z"/><path class="d" d="M238.24742,13.83593h-2.646a.37157.37157,0,0,1-.396-.396v-.57605a.42207.42207,0,0,1,.10791-.29687.374.374,0,0,1,.28809-.11707h2.73633a4.85133,4.85133,0,0,1,3.45605,1.08,4.3779,4.3779,0,0,1,1.13379,3.312V24.546a.40067.40067,0,0,1-.41406.41394h-.75586a.41959.41959,0,0,1-.29687-.108.39538.39538,0,0,1-.11719-.30591V16.932Q241.34361,13.83624,238.24742,13.83593Z"/><path class="d" d="M245.618,18.43493a.40133.40133,0,0,1-.1167-.297V12.86388a.39514.39514,0,0,1,.1167-.3059.42125.42125,0,0,1,.29688-.108h.792a.39994.39994,0,0,1,.41406.41394v5.27405a.39994.39994,0,0,1-.41406.41406h-.792A.402.402,0,0,1,245.618,18.43493Z"/><path class="d" d="M254.80747,22.368a.32491.32491,0,0,1-.11718.261.41788.41788,0,0,1-.2793.09888h-4.80566a.40051.40051,0,0,1-.41407-.41394v-.57605a.40067.40067,0,0,1,.41407-.41394h3.54589l-.28808-4.572q-.09009-1.16987-.189-1.719a1.63555,1.63555,0,0,0-.44091-.891,1.4493,1.4493,0,0,0-1.062-.342h-.73779a.42155.42155,0,0,1-.29736-.10791.37249.37249,0,0,1-.1167-.28809V12.828a.4.4,0,0,1,.41406-.41406h.73779A3.301,3.301,0,0,1,253.16,12.927a2.59974,2.59974,0,0,1,.95411,1.413,11.21977,11.21977,0,0,1,.35107,2.358l.34228,5.616Z"/><path class="d" d="M257.20982,22.611a.40166.40166,0,0,1-.11719-.297V12.86388a.39537.39537,0,0,1,.11719-.3059.4204.4204,0,0,1,.29687-.108h3.45606a4.77373,4.77373,0,0,1,3.456,1.10706,4.44512,4.44512,0,0,1,1.13379,3.32092v5.436a.39976.39976,0,0,1-.41406.41394h-.75586a.40051.40051,0,0,1-.41406-.41394V16.932q0-3.09576-3.09571-3.09607h-2.19628v8.478a.39976.39976,0,0,1-.41407.41394h-.75586A.40158.40158,0,0,1,257.20982,22.611Z"/><path class="d" d="M275.20982,22.611a.40166.40166,0,0,1-.11719-.297V16.932q0-3.09576-3.07764-3.09607h-3.34814a.42046.42046,0,0,1-.29688-.108.37242.37242,0,0,1-.11718-.288v-.57605a.3954.3954,0,0,1,.11718-.3059.42042.42042,0,0,1,.29688-.108h3.43848q4.57178,0,4.57129,4.428v5.436a.39974.39974,0,0,1-.41358.41394h-.75635A.40158.40158,0,0,1,275.20982,22.611Zm-6.83985,0a.40169.40169,0,0,1-.11718-.297V16.266a.40068.40068,0,0,1,.41406-.41406h.75586a.4.4,0,0,1,.41406.41406v6.048a.39976.39976,0,0,1-.41406.41394h-.75586A.4016.4016,0,0,1,268.37,22.611Z"/><path class="d" d="M71.66978,44.21093a.40167.40167,0,0,1-.11719-.297v-9.45a.39548.39548,0,0,1,.11719-.306.42043.42043,0,0,1,.29687-.108h.792a.40068.40068,0,0,1,.41406.41406v9.45a.40068.40068,0,0,1-.41406.41406h-.792A.4012.4012,0,0,1,71.66978,44.21093Z"/><path class="d" d="M83.64878,34.158a.41488.41488,0,0,1,.10791.306v.57593a.37284.37284,0,0,1-.11718.28808.42033.42033,0,0,1-.29688.10791h-1.062a1.97532,1.97532,0,0,0-.40479.84607,5.03124,5.03124,0,0,0-.15332,1.296v6.354a.36009.36009,0,0,1-.126.288.4539.4539,0,0,1-.30567.108H80.535a.37229.37229,0,0,1-.39648-.396V37.47a5.44537,5.44537,0,0,1,.126-1.26,1.86715,1.86715,0,0,1,.34228-.77405H75.63853a.42033.42033,0,0,1-.29688-.10791.37284.37284,0,0,1-.11718-.28808V34.464a.40066.40066,0,0,1,.41406-.41406h7.7041A.41406.41406,0,0,1,83.64878,34.158Z"/><path class="d" d="M92.60337,34.58092a3.63324,3.63324,0,0,1,1.36817,1.521,5.17477,5.17477,0,0,1,.49511,2.34009v5.47192a.40066.40066,0,0,1-.41406.41406h-4.644a.372.372,0,0,1-.28809-.11706.42137.42137,0,0,1-.10791-.297V43.338a.42217.42217,0,0,1,.10791-.297.37281.37281,0,0,1,.28809-.11707h3.47412v-4.374a3.4205,3.4205,0,0,0-.69336-2.2229,2.16457,2.16457,0,0,0-1.75488-.855H88.52622L87.14048,43.896a.46948.46948,0,0,1-.15283.306.4273.4273,0,0,1-.29736.126h-.75586a.33381.33381,0,0,1-.27881-.126.40956.40956,0,0,1-.08106-.306L87.01451,35.472h-.918a.4007.4007,0,0,1-.41407-.41406v-.594a.40068.40068,0,0,1,.41407-.41406H90.6146A3.753,3.753,0,0,1,92.60337,34.58092Z"/><path class="d" d="M102.035,34.51794a2.81449,2.81449,0,0,1,1.39551,1.494,7.1726,7.1726,0,0,1,.43164,2.736,5.25018,5.25018,0,0,1-1.13379,3.59106,6.67818,6.67818,0,0,1-2.95215,1.89893l-.75585.25207a.31464.31464,0,0,1-.126.01795.32352.32352,0,0,1-.32422-.34192v-.79212a.52726.52726,0,0,1,.396-.486l.70214-.2699a4.14665,4.14665,0,0,0,1.90772-1.35009,4.25424,4.25424,0,0,0,.666-2.592A5.06556,5.06556,0,0,0,101.954,36.777a1.83887,1.83887,0,0,0-.94434-.999,4.37379,4.37379,0,0,0-1.80957-.30591h-.61181L96.93247,35.454a.41963.41963,0,0,1-.29687-.108.37075.37075,0,0,1-.11719-.288V31.962a.4005.4005,0,0,1,.41406-.41406h.71973a.37389.37389,0,0,1,.28809.11694.42051.42051,0,0,1,.10791.29712v2.08789h1.38623A6.01987,6.01987,0,0,1,102.035,34.51794Z"/><path class="d" d="M111.2606,43.968a.32472.32472,0,0,1-.11719.261.41794.41794,0,0,1-.27929.099h-4.80567a.40068.40068,0,0,1-.41406-.41406V43.338a.40069.40069,0,0,1,.41406-.41406h3.5459l-.28809-4.572q-.09008-1.16987-.189-1.719a1.636,1.636,0,0,0-.44092-.891,1.44921,1.44921,0,0,0-1.062-.34192h-.73779a.42164.42164,0,0,1-.29737-.108.37241.37241,0,0,1-.1167-.288v-.576a.39975.39975,0,0,1,.41407-.41394h.73779a3.301,3.301,0,0,1,1.98877.51294,2.60022,2.60022,0,0,1,.9541,1.413,11.21856,11.21856,0,0,1,.35107,2.358l.34229,5.616Z"/><path class="d" d="M123.63511,34.167a.40437.40437,0,0,1,.11719.297v5.004a5.474,5.474,0,0,1-.62109,2.65491,4.2213,4.2213,0,0,1-1.7461,1.74609,5.1074,5.1074,0,0,1-2.583.56689h-1.332a4.13791,4.13791,0,0,1-2.106-.53991,3.8052,3.8052,0,0,1-1.4668-1.521,4.66494,4.66494,0,0,1-.53125-2.259V34.464a.39548.39548,0,0,1,.11719-.306.42042.42042,0,0,1,.29687-.108h.70215a.40068.40068,0,0,1,.41406.41406l.05371,5.11194a3.2025,3.2025,0,0,0,2.27735-.882,2.96373,2.96373,0,0,0,.63867-1.98v-2.25a.40068.40068,0,0,1,.41406-.41406h.70215a.40068.40068,0,0,1,.41406.41406v2.322a3.88631,3.88631,0,0,1-1.09814,2.844,4.67671,4.67671,0,0,1-3.22217,1.224,2.84583,2.84583,0,0,0,1.07129,1.611,3.11888,3.11888,0,0,0,1.88086.567h.57617a3.43862,3.43862,0,0,0,2.66406-.99,3.7427,3.7427,0,0,0,.9541-2.682V34.464a.39991.39991,0,0,1,.41358-.41406h.70215A.4034.4034,0,0,1,123.63511,34.167Z"/><path class="d" d="M139.84361,38.442v5.47192a.40068.40068,0,0,1-.41406.41406h-.75586a.40068.40068,0,0,1-.41407-.41406V38.532q0-3.09576-3.09619-3.09607h-1.2959q-.18016,1.13417-.26123,1.88111a13.48748,13.48748,0,0,0-.0625,1.70093l.03565,4.896a.39991.39991,0,0,1-.41358.41406l-2.50244-.036a.39991.39991,0,0,1-.41357-.41406V43.338a.39992.39992,0,0,1,.41357-.41406l1.38623.01807V39.09q-.0183-1.134.04492-1.917a11.0698,11.0698,0,0,1,.29688-1.73707h-.97168a.42068.42068,0,0,1-.29736-.10791.37246.37246,0,0,1-.1167-.28808V34.464a.39521.39521,0,0,1,.1167-.306.42081.42081,0,0,1,.29736-.108h3.85156Q139.84311,34.04992,139.84361,38.442Z"/><path class="d" d="M142.6605,44.21093a.40133.40133,0,0,1-.1167-.297v-9.45a.39525.39525,0,0,1,.1167-.306.42085.42085,0,0,1,.29737-.108h.792a.39991.39991,0,0,1,.41357.41406v9.45a.39991.39991,0,0,1-.41357.41406h-.792A.40158.40158,0,0,1,142.6605,44.21093Z"/><path class="d" d="M151.97544,43.968a.32474.32474,0,0,1-.11718.261.41759.41759,0,0,1-.27881.099H146.7733a.40068.40068,0,0,1-.41407-.41406V43.338a.4007.4007,0,0,1,.41407-.41406h3.54589l-.28808-4.572q-.08936-1.16987-.18848-1.719a1.6365,1.6365,0,0,0-.44141-.891A1.44792,1.44792,0,0,0,148.3397,35.4h-.73828a.42038.42038,0,0,1-.29687-.108.37272.37272,0,0,1-.11719-.288v-.576a.40049.40049,0,0,1,.41406-.41394h.73828a3.302,3.302,0,0,1,1.98877.51294,2.602,2.602,0,0,1,.95361,1.413,11.24742,11.24742,0,0,1,.35157,2.358l.34179,5.616Z"/><path class="d" d="M154.37828,44.21093a.40129.40129,0,0,1-.1167-.297v-9.45a.39521.39521,0,0,1,.1167-.306.42081.42081,0,0,1,.29736-.108h.792a.39991.39991,0,0,1,.41358.41406v9.45a.39991.39991,0,0,1-.41358.41406h-.792A.40154.40154,0,0,1,154.37828,44.21093Z"/><path class="d" d="M164.20591,44.21093a.40171.40171,0,0,1-.11719-.297V38.532q0-3.09576-3.0957-3.09607h-2.32226a.42033.42033,0,0,1-.29688-.10791.37285.37285,0,0,1-.11719-.28808V34.464a.40068.40068,0,0,1,.41407-.41406h2.43017q4.57177,0,4.57178,4.39209v5.47192a.39994.39994,0,0,1-.41406.41406h-.75586A.40122.40122,0,0,1,164.20591,44.21093Z"/><path class="d" d="M172.08091,44.50793a.32352.32352,0,0,1-.32422-.34192v-.79212q0-.32391.39649-.486l.70166-.2699a4.14405,4.14405,0,0,0,1.90771-1.35009,4.25424,4.25424,0,0,0,.666-2.592,5.07651,5.07651,0,0,0-.2876-1.89893,1.83967,1.83967,0,0,0-.94482-.999,4.37385,4.37385,0,0,0-1.80957-.30591H168.787a.4007.4007,0,0,1-.41407-.41406v-.61207a.37313.37313,0,0,1,.11719-.288.41963.41963,0,0,1,.29688-.108h3.81591a6.07076,6.07076,0,0,1,2.61866.468,2.81453,2.81453,0,0,1,1.39551,1.494,7.1728,7.1728,0,0,1,.43164,2.736A5.25018,5.25018,0,0,1,175.9149,42.339a6.67824,6.67824,0,0,1-2.95215,1.89893l-.75586.25207A.31464.31464,0,0,1,172.08091,44.50793Zm-3.59082,3.15a.39551.39551,0,0,1-.11719-.306V37.866a.40049.40049,0,0,1,.41407-.41394h.73779a.39975.39975,0,0,1,.41406.41394v9.486a.39976.39976,0,0,1-.41406.41406H168.787A.41963.41963,0,0,1,168.49009,47.658Z"/><path class="d" d="M187.14732,34.158a.41667.41667,0,0,1,.10742.306v4.968a4.37318,4.37318,0,0,1-1.04394,2.853,5.57559,5.57559,0,0,1-2.79,1.79089L179.49693,45.318a.47825.47825,0,0,1-.144.01794.38109.38109,0,0,1-.25195-.09.29115.29115,0,0,1-.10791-.234v-.558q0-.41382.28809-.504l2.35791-.792-2.34033-8.38806a2.34028,2.34028,0,0,1-.08985-.35986.36989.36989,0,0,1,.36035-.36011h.82813a.437.437,0,0,1,.26953.081.3894.3894,0,0,1,.144.189l2.3042,8.352a3.65832,3.65832,0,0,0,1.98877-1.422,4.31006,4.31006,0,0,0,.5669-2.30408V34.464a.40066.40066,0,0,1,.41406-.41406h.75586A.41606.41606,0,0,1,187.14732,34.158Z"/><path class="d" d="M196.912,44.21093a.39978.39978,0,0,1-.11719-.297V38.532q0-3.09576-3.07813-3.09607H190.369a.42073.42073,0,0,1-.29737-.10791.37249.37249,0,0,1-.11669-.28808V34.464a.39524.39524,0,0,1,.11669-.306.42085.42085,0,0,1,.29737-.108h3.4375q4.57178,0,4.57226,4.428v5.436a.40066.40066,0,0,1-.41406.41406h-.75586A.40042.40042,0,0,1,196.912,44.21093Zm-6.84034,0a.40132.40132,0,0,1-.11669-.297V37.866a.39973.39973,0,0,1,.41406-.41394h.75586a.40049.40049,0,0,1,.41406.41394v6.048a.40068.40068,0,0,1-.41406.41406H190.369A.40158.40158,0,0,1,190.07163,44.21093Z"/><path class="d" d="M205.49742,40.035a.40179.40179,0,0,1-.1167-.29712V34.464a.39521.39521,0,0,1,.1167-.306.42042.42042,0,0,1,.29687-.108h.792a.39994.39994,0,0,1,.41407.41406v5.27393a.39976.39976,0,0,1-.41407.41406h-.792A.40159.40159,0,0,1,205.49742,40.035Z"/><path class="d" d="M211.0858,36.912a3.201,3.201,0,0,0,.1621,1.134.80943.80943,0,0,0,.55811.522l.68408.17993a.34992.34992,0,0,1,.2251.18908.77721.77721,0,0,1,.08057.369V39.72a.299.299,0,0,1-.19776.288.74533.74533,0,0,1-.43213.05407l-.70166-.144q-1.80029-.39569-1.80029-3.05994V34.464a.39548.39548,0,0,1,.11719-.306.42043.42043,0,0,1,.29687-.108h3.312a3.81775,3.81775,0,0,1,3.00635,1.1521A5.063,5.063,0,0,1,217.494,38.496q.01758.18018.01806.684,0,.5224-.01806.702a5.06182,5.06182,0,0,1-1.09766,3.29395A3.81653,3.81653,0,0,1,213.39,44.328H210.2938a.39991.39991,0,0,1-.41357-.41406v-.594a.39972.39972,0,0,1,.41357-.41394h3.00635a2.40345,2.40345,0,0,0,1.94385-.81006,3.66012,3.66012,0,0,0,.73828-2.286q.01758-.17963.01758-.63,0-.43194-.01758-.61193a3.55512,3.55512,0,0,0-.72949-2.286,2.42979,2.42979,0,0,0-1.95264-.80993H211.0858Z"/><path class="d" d="M224.93687,34.51794a2.81366,2.81366,0,0,1,1.395,1.494,7.1728,7.1728,0,0,1,.43164,2.736,5.25018,5.25018,0,0,1-1.13379,3.59106,6.67818,6.67818,0,0,1-2.95215,1.89893l-.75586.25207a.31134.31134,0,0,1-.126.01795.32426.32426,0,0,1-.32422-.34192v-.79212q0-.32391.39648-.486l.70215-.2699a4.14657,4.14657,0,0,0,1.90771-1.35009,4.25758,4.25758,0,0,0,.666-2.592,5.07532,5.07532,0,0,0-.28809-1.89893,1.83967,1.83967,0,0,0-.94482-.999,4.37133,4.37133,0,0,0-1.80908-.30591h-.61182l-1.65625-.01807a.42042.42042,0,0,1-.29687-.108.37239.37239,0,0,1-.11719-.288V31.962a.4005.4005,0,0,1,.41406-.41406h.71973a.37313.37313,0,0,1,.28808.11694.4208.4208,0,0,1,.1084.29712v2.08789h1.38575A6.02375,6.02375,0,0,1,224.93687,34.51794Z"/><path class="d" d="M233.68443,46.452a.39521.39521,0,0,1-.1167-.306V34.464a.39521.39521,0,0,1,.1167-.306.42163.42163,0,0,1,.29736-.108h.75586a.39994.39994,0,0,1,.41406.41406V46.146a.39975.39975,0,0,1-.41406.41394h-.75586A.42155.42155,0,0,1,233.68443,46.452Z"/><path class="d" d="M238.07652,44.21093a.40129.40129,0,0,1-.1167-.297v-9.45a.39521.39521,0,0,1,.1167-.306.42081.42081,0,0,1,.29736-.108h.792a.39991.39991,0,0,1,.41358.41406v9.45a.39991.39991,0,0,1-.41358.41406h-.792A.40154.40154,0,0,1,238.07652,44.21093Z"/><path class="d" d="M248.98423,34.58092a3.63324,3.63324,0,0,1,1.36817,1.521,5.18124,5.18124,0,0,1,.49511,2.34009v5.47192a.40066.40066,0,0,1-.41406.41406h-4.64453a.37269.37269,0,0,1-.28809-.11706.42323.42323,0,0,1-.10742-.297V43.338a.424.424,0,0,1,.10742-.297.37353.37353,0,0,1,.28809-.11707h3.47461v-4.374a3.4205,3.4205,0,0,0-.69336-2.2229,2.16457,2.16457,0,0,0-1.75488-.855h-1.90821L243.52134,43.896a.47228.47228,0,0,1-.15332.306.42532.42532,0,0,1-.29687.126h-.75586a.33476.33476,0,0,1-.2793-.126.41163.41163,0,0,1-.08105-.306l1.44043-8.42395h-.918a.4007.4007,0,0,1-.41407-.41406v-.594a.40068.40068,0,0,1,.41407-.41406H246.995A3.7535,3.7535,0,0,1,248.98423,34.58092Z"/><path class="d" d="M253.53794,40.035a.40183.40183,0,0,1-.1167-.29712V34.464a.39525.39525,0,0,1,.1167-.306.42128.42128,0,0,1,.29688-.108h.792a.39994.39994,0,0,1,.41406.41406v5.27393a.39976.39976,0,0,1-.41406.41406h-.792A.4024.4024,0,0,1,253.53794,40.035Z"/><path class="d" d="M265.87681,43.968a.369.369,0,0,1-.35986.36h-.81006a.46888.46888,0,0,1-.36035-.135c-.084-.09009-.13184-.14087-.14356-.15308l-4.104-5.778a2.82993,2.82993,0,0,0-1.05322,1.323,4.879,4.879,0,0,0-.27881,1.683v2.646a.39994.39994,0,0,1-.41407.41406h-.666a.40066.40066,0,0,1-.41406-.41406v-2.718a6.11726,6.11726,0,0,1,.40478-2.322,4.06409,4.06409,0,0,1,1.59326-1.782l-1.67431-2.34a.66794.66794,0,0,1-.126-.34192.36989.36989,0,0,1,.36035-.36011h.792a.6158.6158,0,0,1,.50391.306L262.90708,39.63a3.00615,3.00615,0,0,0,.94483-.792,2.02172,2.02172,0,0,0,.36865-.81909,6.24337,6.24337,0,0,0,.07227-1.053V34.464a.40066.40066,0,0,1,.41406-.41406h.70215a.40068.40068,0,0,1,.41406.41406v2.574a4.78059,4.78059,0,0,1-.42285,2.097,4.14116,4.14116,0,0,1-1.70117,1.629l2.05175,2.86194A.549.549,0,0,1,265.87681,43.968Z"/><path class="d" d="M275.20982,44.21093a.40167.40167,0,0,1-.11719-.297V38.532q0-3.09576-3.07812-3.09607h-3.34766A.41951.41951,0,0,1,268.37,35.328a.37284.37284,0,0,1-.11718-.28808V34.464a.39551.39551,0,0,1,.11718-.306.41963.41963,0,0,1,.29688-.108h3.438q4.57177,0,4.57178,4.428v5.436a.40068.40068,0,0,1-.41407.41406h-.75586A.4012.4012,0,0,1,275.20982,44.21093Zm-6.83985,0a.4017.4017,0,0,1-.11718-.297V37.866a.40048.40048,0,0,1,.41406-.41394h.75586a.40049.40049,0,0,1,.41406.41394v6.048a.40068.40068,0,0,1-.41406.41406h-.75586A.40045.40045,0,0,1,268.37,44.21093Z"/></svg>