<svg xmlns="http://www.w3.org/2000/svg" viewBox="0 0 334.69068 56.27881"><defs><style>.a,.b,.f{fill:none;}.a{stroke:#727070;stroke-width:7.59574px;}.a,.b{stroke-linecap:round;stroke-linejoin:round;}.b{stroke:#878787;stroke-width:2.53191px;}.c{fill:#9e9d9c;}.d{fill:#3d3d3b;}.e{fill:#eeeded;}.f{stroke:#585857;stroke-miterlimit:10;stroke-width:1.89894px;}.g{fill:#c7c6c6;}.h{fill:#cc8752;}.i{fill:#e9a357;}.j{fill:#946936;}.k{fill:#fff;}</style></defs><line class="a" x1="330.89281" y1="27.95783" x2="26.08219" y2="27.95783"/><line class="b" x1="330.89281" y1="27.39219" x2="26.08219" y2="27.39219"/><polygon class="c" points="23.802 32.218 23.802 23.698 20.239 21.015 19.367 27.958 20.239 34.9 23.802 32.218"/><rect class="d" x="19.45525" y="26.68102" width="10.70039" height="2.5535" rx="1.27675" transform="translate(52.76321 3.15233) rotate(90)"/><polygon class="e" points="20.239 21.015 0 27.958 20.239 34.9 19.367 27.958 20.239 21.015"/><path class="f" d="M53.47535,31.7557v-.4354a16.72275,16.72275,0,0,1,0-6.65079v-.48674"/><path class="f" d="M48.80468,31.7557v-.4354a16.72275,16.72275,0,0,1,0-6.65079v-.48674"/><path class="f" d="M44.134,31.7557v-.4354a16.72275,16.72275,0,0,1,0-6.65079v-.48674"/><path class="f" d="M39.46332,31.7557v-.4354a16.72275,16.72275,0,0,1,0-6.65079v-.48674"/><path class="f" d="M327.08806,31.7557v-.4354a16.72275,16.72275,0,0,1,0-6.65079v-.48674"/><path class="f" d="M322.41739,31.7557v-.4354a16.72275,16.72275,0,0,1,0-6.65079v-.48674"/><path class="f" d="M317.74671,31.7557v-.4354a16.72275,16.72275,0,0,1,0-6.65079v-.48674"/><path class="f" d="M313.076,31.7557v-.4354a16.72275,16.72275,0,0,1,0-6.65079v-.48674"/><path class="f" d="M308.40536,31.7557v-.4354a16.72275,16.72275,0,0,1,0-6.65079v-.48674"/><path class="f" d="M303.73468,31.7557v-.4354a16.72275,16.72275,0,0,1,0-6.65079v-.48674"/><path class="f" d="M299.064,31.7557v-.4354a16.72275,16.72275,0,0,1,0-6.65079v-.48674"/><path class="f" d="M294.39333,31.7557v-.4354a16.72275,16.72275,0,0,1,0-6.65079v-.48674"/><path class="f" d="M289.72265,31.7557v-.4354a16.72275,16.72275,0,0,1,0-6.65079v-.48674"/><path class="f" d="M285.052,31.7557v-.4354a16.72275,16.72275,0,0,1,0-6.65079v-.48674"/><path class="f" d="M280.3813,31.7557v-.4354a16.72275,16.72275,0,0,1,0-6.65079v-.48674"/><path class="f" d="M275.71062,31.7557v-.4354a16.72275,16.72275,0,0,1,0-6.65079v-.48674"/><polygon class="g" points="19.367 27.958 0 27.958 20.239 34.9 19.367 27.958"/><polygon class="h" points="290.686 30.752 301.415 39.878 332.894 39.878 322.165 30.752 290.686 30.752"/><polygon class="i" points="322.165 30.752 327.164 37.998 301.954 37.998 290.686 30.752 301.415 39.878 332.894 39.878 322.165 30.752"/><polygon class="j" points="322.165 30.752 292.432 32.237 290.686 30.752 322.165 30.752"/><polygon class="h" points="290.686 25.033 301.415 15.907 332.894 15.907 322.165 25.033 290.686 25.033"/><polygon class="j" points="326.455 21.384 290.686 25.033 322.165 25.033 326.455 21.384"/><polygon class="i" points="332.894 15.907 303.195 17.261 290.686 25.033 301.415 15.907 332.894 15.907"/><rect class="k" x="36.01984" y="9.34223" width="250.83123" height="36.09991" rx="6.92596"/><rect class="k" x="36.01984" width="250.83123" height="56.27881" rx="8.64767"/><path class="d" d="M94.98884,18.55224a.40088.40088,0,0,1-.41407-.41406V12.86376a.40088.40088,0,0,1,.41407-.41406h.86425a.37283.37283,0,0,1,.2876.11719.42307.42307,0,0,1,.10791.29687v5.27442a.42142.42142,0,0,1-.10791.29687.37283.37283,0,0,1-.2876.11719Z"/><path class="d" d="M100.37067,13.92626v1.4043a3.55166,3.55166,0,0,0,.1709,1.0791.78623.78623,0,0,0,.54883.54l.666.18066a.34834.34834,0,0,1,.22559.18848.78633.78633,0,0,1,.08057.36914v.4502a.30078.30078,0,0,1-.19776.28808.74873.74873,0,0,1-.43213.05371l-.70166-.14355a2.30312,2.30312,0,0,1-.99023-.51367,2.22914,2.22914,0,0,1-.62109-1.00782,5.01822,5.01822,0,0,1-.207-1.53906V12.86376a.42311.42311,0,0,1,.10791-.29687.39489.39489,0,0,1,.30616-.11719h3.33008a4.3735,4.3735,0,0,1,2.25.53125,3.40928,3.40928,0,0,1,1.36816,1.53027,6.01312,6.01312,0,0,1,.50391,2.40332q.01756.26954.01757.67481c0,.26953-.00586.49511-.01757.6748a6.03485,6.03485,0,0,1-.50391,2.39356,3.39147,3.39147,0,0,1-1.36816,1.53906,4.36392,4.36392,0,0,1-2.25.53125H99.54255a.40086.40086,0,0,1-.41406-.41406V21.6665a.39938.39938,0,0,1,.41406-.41407H102.567a2.36861,2.36861,0,0,0,1.917-.80175,3.67437,3.67437,0,0,0,.74707-2.24024q.01758-.271.01758-.62109,0-.35157-.01758-.6211a3.45958,3.45958,0,0,0-.72949-2.24121,2.42087,2.42087,0,0,0-1.93457-.80078Z"/><path class="d" d="M111.22419,13.92626l-2.1416-.01855a.41817.41817,0,0,1-.29688-.10742.37323.37323,0,0,1-.11719-.28809V10.36181a.40086.40086,0,0,1,.41407-.41406h.75586a.39451.39451,0,0,1,.30566.11718.42125.42125,0,0,1,.1084.29688V12.4497h1.00781Zm-.03565,8.96387a.33127.33127,0,0,1-.30615-.04492.31959.31959,0,0,1-.144-.2793v-.82812a.45253.45253,0,0,1,.09912-.28809.65028.65028,0,0,1,.29687-.19727l.70215-.2705a6.603,6.603,0,0,0,1.28711-.73829,2.88311,2.88311,0,0,0,.918-1.1875,4.97192,4.97192,0,0,0,.333-1.98046,5.09391,5.09391,0,0,0-.2793-1.86231,1.76812,1.76812,0,0,0-.93554-.99023,4.42719,4.42719,0,0,0-1.791-.29688h-.54a.40088.40088,0,0,1-.41406-.41406v-.64844a.40088.40088,0,0,1,.41406-.41406h.792a6.07449,6.07449,0,0,1,2.60987.46875,2.76391,2.76391,0,0,1,1.395,1.50293,7.26854,7.26854,0,0,1,.42285,2.709,6.25159,6.25159,0,0,1-.3418,2.17774,4.82833,4.82833,0,0,1-.92725,1.5664,5.37148,5.37148,0,0,1-1.32275,1.07032,8.70721,8.70721,0,0,1-1.53027.69336Z"/><path class="d" d="M123.23005,22.728a.40086.40086,0,0,1-.41406-.41406v-9.4502a.40086.40086,0,0,1,.41406-.41406h3.43847a5.78938,5.78938,0,0,1,2.55567.49512,3.24276,3.24276,0,0,1,1.50293,1.46679,5.32726,5.32726,0,0,1,.49512,2.43067V22.314a.42143.42143,0,0,1-.10792.29687.39556.39556,0,0,1-.30615.11719Zm1.13427-1.44043h5.25586V16.93212A3.23591,3.23591,0,0,0,128.9,14.69091a2.98378,2.98378,0,0,0-2.32178-.80078h-2.21387Z"/><path class="d" d="M134.192,18.55224a.40088.40088,0,0,1-.41406-.41406V12.86376a.40088.40088,0,0,1,.41406-.41406h.86426a.37392.37392,0,0,1,.28809.11719.42311.42311,0,0,1,.10791.29687v5.27442a.42146.42146,0,0,1-.10791.29687.37392.37392,0,0,1-.28809.11719Z"/><path class="d" d="M138.15192,22.728a.40088.40088,0,0,1-.41406-.41406v-.62989a.40088.40088,0,0,1,.41406-.41406h4.87793l-5.63379-8.11816c-.03613-.07129-.0664-.13477-.08984-.18848a.37564.37564,0,0,1-.03613-.15332.33369.33369,0,0,1,.11718-.252.37347.37347,0,0,1,.26075-.1084h.86425a.43391.43391,0,0,1,.30567.09961,1.1175,1.1175,0,0,1,.18017.207l5.86768,8.40527a1.70142,1.70142,0,0,1,.15332.26172.69145.69145,0,0,1,.063.29688V22.314a.40013.40013,0,0,1-.41406.41406Zm4.5542-4.10352-.792-1.17089a2.3731,2.3731,0,0,0,1.36768-1.125,4.05206,4.05206,0,0,0,.41406-1.917V12.86376a.40088.40088,0,0,1,.41406-.41406h.75586a.37248.37248,0,0,1,.28809.11719.42125.42125,0,0,1,.10839.29687v1.76465a4.55482,4.55482,0,0,1-.64843,2.4834A3.78385,3.78385,0,0,1,142.70612,18.6245Z"/><path class="d" d="M147.99763,18.55224a.40088.40088,0,0,1-.41407-.41406V12.86376a.40088.40088,0,0,1,.41407-.41406h.86425a.37392.37392,0,0,1,.28809.11719.42307.42307,0,0,1,.10791.29687v5.27442a.42142.42142,0,0,1-.10791.29687.37392.37392,0,0,1-.28809.11719Z"/><path class="d" d="M152.33552,22.728a.40088.40088,0,0,1-.41407-.41406v-9.4502a.40088.40088,0,0,1,.41407-.41406h3.51025a5.85011,5.85011,0,0,1,2.56494.49512,3.2725,3.2725,0,0,1,1.521,1.47656,5.34734,5.34734,0,0,1,.5039,2.457V22.314a.40011.40011,0,0,1-.41357.41406h-.81055a.39448.39448,0,0,1-.30566-.11719.41958.41958,0,0,1-.1084-.29687V16.93212a3.23809,3.23809,0,0,0-.71973-2.24121,2.98493,2.98493,0,0,0-2.32226-.80078h-2.1958V22.314a.41929.41929,0,0,1-.10791.29687.3732.3732,0,0,1-.28809.11719Z"/><path class="d" d="M171.09138,22.728a.40088.40088,0,0,1-.41407-.41406V12.23388L167.689,14.53759a.419.419,0,0,1-.30566.09082.38165.38165,0,0,1-.27-.16211l-.46826-.59375a.44581.44581,0,0,1-.08106-.32422.41824.41824,0,0,1,.17139-.27051l3.92383-3.02343a.5682.5682,0,0,1,.23388-.1084,1.46629,1.46629,0,0,1,.23438-.01758h.918a.39939.39939,0,0,1,.41406.41406V22.314a.40088.40088,0,0,1-.41406.41406Z"/><path class="d" d="M179.53327,22.90771a5.07677,5.07677,0,0,1-2.09717-.38672,3.65046,3.65046,0,0,1-1.39453-1.07129,4.35829,4.35829,0,0,1-.7832-1.56543,8.15662,8.15662,0,0,1-.2793-1.87207q-.01758-.48633-.02685-1.02637-.00952-.53905,0-1.09765c.00585-.37207.01513-.72559.02685-1.0625a7.00557,7.00557,0,0,1,.2793-1.87207,4.52245,4.52245,0,0,1,.80078-1.55665,3.70975,3.70975,0,0,1,1.395-1.06152,5.02673,5.02673,0,0,1,2.0791-.38769,5.07923,5.07923,0,0,1,2.09717.38769A3.70809,3.70809,0,0,1,183.025,11.397a4.52342,4.52342,0,0,1,.80127,1.55665,7.0252,7.0252,0,0,1,.27881,1.87207c.01172.33691.021.69043.02734,1.0625q.00879.5581,0,1.09765-.00952.54053-.02734,1.02637a7.01331,7.01331,0,0,1-.27881,1.87207,4.69748,4.69748,0,0,1-.792,1.56543A3.582,3.582,0,0,1,181.648,22.521,5.12577,5.12577,0,0,1,179.53327,22.90771Zm0-1.54785a2.40815,2.40815,0,0,0,2.07861-.918,4.255,4.255,0,0,0,.69336-2.51953q.0359-.523.03614-1.01758v-.98926q0-.49512-.03614-.98145a4.32067,4.32067,0,0,0-.69336-2.51074,2.73863,2.73863,0,0,0-4.13964,0,4.41093,4.41093,0,0,0-.71094,2.51074q0,.48633-.00879.98145c-.00684.33008-.00684.65918,0,.98926q.00879.49512.00879,1.01758a4.29762,4.29762,0,0,0,.71972,2.51953A2.39461,2.39461,0,0,0,179.53327,21.35986Z"/><path class="d" d="M190.96345,22.90771a5.08072,5.08072,0,0,1-2.09766-.38672,3.65783,3.65783,0,0,1-1.39453-1.07129,4.35813,4.35813,0,0,1-.7832-1.56543,8.12953,8.12953,0,0,1-.27881-1.87207q-.01831-.48633-.02686-1.02637-.00952-.53905,0-1.09765c.00586-.37207.01465-.72559.02686-1.0625a7.0252,7.0252,0,0,1,.27881-1.87207,4.53059,4.53059,0,0,1,.80078-1.55665,3.70768,3.70768,0,0,1,1.3955-1.06152,5.02363,5.02363,0,0,1,2.07911-.38769,5.07687,5.07687,0,0,1,2.09668.38769,3.70606,3.70606,0,0,1,1.395,1.06152,4.53172,4.53172,0,0,1,.80126,1.55665,7.04461,7.04461,0,0,1,.27881,1.87207c.01172.33691.021.69043.02686,1.0625s.00586.73828,0,1.09765q-.00879.54053-.02686,1.02637a7.03265,7.03265,0,0,1-.27881,1.87207,4.70627,4.70627,0,0,1-.792,1.56543,3.58909,3.58909,0,0,1-1.38623,1.07129A5.12569,5.12569,0,0,1,190.96345,22.90771Zm0-1.54785a2.40877,2.40877,0,0,0,2.07861-.918,4.25168,4.25168,0,0,0,.69287-2.51953q.03662-.523.03613-1.01758v-.98926q0-.49512-.03613-.98145a4.31714,4.31714,0,0,0-.69287-2.51074,2.73918,2.73918,0,0,0-4.14014,0,4.41856,4.41856,0,0,0-.71093,2.51074q0,.48633-.00879.98145c-.00635.33008-.00635.65918,0,.98926q.00879.49512.00879,1.01758a4.29764,4.29764,0,0,0,.72021,2.51953A2.394,2.394,0,0,0,190.96345,21.35986Z"/><path class="d" d="M209.73688,22.728a.40088.40088,0,0,1-.41406-.41406V16.93212a3.23809,3.23809,0,0,0-.71973-2.24121,2.98563,2.98563,0,0,0-2.32226-.80078H202.897a.40086.40086,0,0,1-.41406-.41406v-.61231a.40086.40086,0,0,1,.41406-.41406h3.47363a4.69413,4.69413,0,0,1,3.46533,1.13476,4.48391,4.48391,0,0,1,1.125,3.29395V22.314a.40012.40012,0,0,1-.41406.41406Zm-6.83984,0a.40086.40086,0,0,1-.41406-.41406V16.30224a.40085.40085,0,0,1,.41406-.41406h.82812a.37393.37393,0,0,1,.28809.11718.42111.42111,0,0,1,.10742.29688V22.314a.42109.42109,0,0,1-.10742.29687.3739.3739,0,0,1-.28809.11719Z"/><path class="d" d="M219.043,22.728a.40088.40088,0,0,1-.41407-.41406V16.93212a3.23354,3.23354,0,0,0-.72021-2.24121,2.98378,2.98378,0,0,0-2.32178-.80078h-2.35791a.40088.40088,0,0,1-.41406-.41406v-.61231a.40088.40088,0,0,1,.41406-.41406h2.44824a5.93914,5.93914,0,0,1,2.56446.48633,3.22653,3.22653,0,0,1,1.52148,1.46679,5.30375,5.30375,0,0,1,.50391,2.43946V22.314a.40088.40088,0,0,1-.41407.41406Z"/><path class="d" d="M223.21882,18.55224a.40013.40013,0,0,1-.41407-.41406V12.86376a.40013.40013,0,0,1,.41407-.41406h.86377a.37318.37318,0,0,1,.28808.11719.42121.42121,0,0,1,.1084.29687v5.27442a.41958.41958,0,0,1-.1084.29687.37318.37318,0,0,1-.28808.11719Z"/><path class="d" d="M227.43073,18.55224a.40013.40013,0,0,1-.41406-.41406V12.86376a.40013.40013,0,0,1,.41406-.41406h.86377a.3732.3732,0,0,1,.28809.11719.42126.42126,0,0,1,.1084.29687v5.27442a.41962.41962,0,0,1-.1084.29687.3732.3732,0,0,1-.28809.11719Z"/><path class="d" d="M241.20075,16.93212a3.21074,3.21074,0,0,0-.729-2.24121,3.01494,3.01494,0,0,0-2.33057-.80078H235.4947a.40088.40088,0,0,1-.41407-.41406v-.61231a.40088.40088,0,0,1,.41407-.41406H238.231a6.08713,6.08713,0,0,1,2.583.47754,3.19888,3.19888,0,0,1,1.52051,1.43945,5.32849,5.32849,0,0,1,.50439,2.47559v7.7041a.40086.40086,0,0,1-.41406.41406h-.81006a.39448.39448,0,0,1-.30566-.11719.42121.42121,0,0,1-.1084-.29687Z"/><path class="d" d="M245.79059,18.55224a.40013.40013,0,0,1-.41406-.41406V12.86376a.40013.40013,0,0,1,.41406-.41406h.86377a.37213.37213,0,0,1,.2876.11719.42121.42121,0,0,1,.1084.29687v5.27442a.41958.41958,0,0,1-.1084.29687.37213.37213,0,0,1-.2876.11719Z"/><path class="d" d="M249.55231,22.728a.40088.40088,0,0,1-.41406-.41406v-.61231a.40088.40088,0,0,1,.41406-.41406h5.07618v1.09863a.29371.29371,0,0,1-.11719.26074.51292.51292,0,0,1-.29688.08106Zm3.97754,0a.34282.34282,0,0,1-.27832-.11719.64188.64188,0,0,1-.13525-.29687l-.34229-5.56153a14.21935,14.21935,0,0,0-.13476-1.53027,1.86385,1.86385,0,0,0-.43213-1.00781,1.45211,1.45211,0,0,0-1.10694-.36035h-.73828a.40011.40011,0,0,1-.41357-.41407v-.6123a.39857.39857,0,0,1,.41357-.41309h.75635a3.90864,3.90864,0,0,1,1.65576.29688,2.25379,2.25379,0,0,1,.98145.86328,4.027,4.027,0,0,1,.5039,1.35937,13.31254,13.31254,0,0,1,.207,1.76368l.34179,5.61621a.33969.33969,0,0,1-.10791.29687.43393.43393,0,0,1-.30615.11719Z"/><path class="d" d="M257.45466,22.728a.40013.40013,0,0,1-.41407-.41406v-9.4502a.40013.40013,0,0,1,.41407-.41406h3.50976a5.85159,5.85159,0,0,1,2.56494.49512,3.27025,3.27025,0,0,1,1.521,1.47656,5.34733,5.34733,0,0,1,.50391,2.457V22.314a.40088.40088,0,0,1-.41407.41406h-.80957a.39417.39417,0,0,1-.30615-.11719.42142.42142,0,0,1-.10791-.29687V16.93212a3.23591,3.23591,0,0,0-.72021-2.24121,2.9852,2.9852,0,0,0-2.32178-.80078h-2.19629V22.314a.42142.42142,0,0,1-.10791.29687.3732.3732,0,0,1-.28809.11719Z"/><path class="d" d="M275.47224,22.728a.40088.40088,0,0,1-.41407-.41406V16.93212a3.23813,3.23813,0,0,0-.71972-2.24121,2.98638,2.98638,0,0,0-2.32227-.80078h-3.38379a.40013.40013,0,0,1-.41406-.41406v-.61231a.40013.40013,0,0,1,.41406-.41406H272.106a4.69367,4.69367,0,0,1,3.46485,1.13476,4.48192,4.48192,0,0,1,1.125,3.29395V22.314a.40013.40013,0,0,1-.41406.41406Zm-6.83985,0a.40013.40013,0,0,1-.41406-.41406V16.30224a.40012.40012,0,0,1,.41406-.41406H269.46a.37319.37319,0,0,1,.28808.11718.42144.42144,0,0,1,.10791.29688V22.314a.42142.42142,0,0,1-.10791.29687.37316.37316,0,0,1-.28808.11719Z"/><path class="d" d="M149.83356,44.34814a.40088.40088,0,0,1-.41406-.41407V34.48388a.40086.40086,0,0,1,.41406-.41406h.84619a.39634.39634,0,0,1,.30616.11718.42315.42315,0,0,1,.10791.29688v9.45019a.42149.42149,0,0,1-.10791.29688.39635.39635,0,0,1-.30616.11719Z"/><path class="d" d="M153.55964,35.51025a.40013.40013,0,0,1-.41407-.41407v-.6123a.40012.40012,0,0,1,.41407-.41406h7.72217a.40086.40086,0,0,1,.41406.41406v.6123a.40088.40088,0,0,1-.41406.41407Zm4.85986,8.83789a.34993.34993,0,0,1-.396-.39551V37.52587a4.3559,4.3559,0,0,1,.252-1.65527q.252-.59473.63037-.59473h1.76367q-.4497,0-.729.68457a4.49252,4.49252,0,0,0-.27881,1.69141v6.30078a.36065.36065,0,0,1-.126.28808.45837.45837,0,0,1-.30615.10743Z"/><path class="d" d="M163.83747,44.34814a.341.341,0,0,1-.27-.126.39164.39164,0,0,1-.09033-.30566l1.53027-8.82032a.45478.45478,0,0,1,.16211-.27929.3579.3579,0,0,1,.30566-.0625l.72022.03613a.40429.40429,0,0,1,.28809.15234.36653.36653,0,0,1,.07177.31543l-1.43945,8.65821a.47371.47371,0,0,1-.15332.30566.44742.44742,0,0,1-.31494.126Zm4.55371-8.80176h-4.374a.3952.3952,0,0,1-.30567-.11719.41962.41962,0,0,1-.1084-.29687v-.64844a.4213.4213,0,0,1,.1084-.29688.39523.39523,0,0,1,.30567-.11718h4.57226a3.8056,3.8056,0,0,1,1.98926.52246,3.5801,3.5801,0,0,1,1.36768,1.50293,5.20639,5.20639,0,0,1,.49511,2.36718v5.47168a.42144.42144,0,0,1-.10791.29688.39631.39631,0,0,1-.30615.11719h-4.644a.40086.40086,0,0,1-.41406-.41407v-.6123a.39932.39932,0,0,1,.41406-.41309h3.41992V38.56982a3.798,3.798,0,0,0-.31494-1.60157,2.48209,2.48209,0,0,0-.86377-1.05273A2.16157,2.16157,0,0,0,168.39118,35.54638Z"/><path class="d" d="M177.03181,35.54638l-2.14258-.01856a.41975.41975,0,0,1-.29688-.10742.37286.37286,0,0,1-.1167-.28808V31.98193a.40011.40011,0,0,1,.41358-.41407h.75634a.39635.39635,0,0,1,.30616.11719.42315.42315,0,0,1,.10791.29688v2.08789h1.0083Zm-.03614,8.96387a.33127.33127,0,0,1-.30615-.04493.31957.31957,0,0,1-.144-.27929V43.3579a.45731.45731,0,0,1,.09912-.28808.6502.6502,0,0,1,.29687-.19727l.70215-.27051a6.57038,6.57038,0,0,0,1.28662-.73828,2.87108,2.87108,0,0,0,.918-1.1875,4.96328,4.96328,0,0,0,.333-1.98047,5.1067,5.1067,0,0,0-.27832-1.8623,1.76981,1.76981,0,0,0-.93652-.99024,4.42578,4.42578,0,0,0-1.791-.29687h-.54a.40088.40088,0,0,1-.41406-.41406v-.64844a.40086.40086,0,0,1,.41406-.41406h.792a6.07831,6.07831,0,0,1,2.61035.46875,2.76387,2.76387,0,0,1,1.395,1.50293,7.26832,7.26832,0,0,1,.42286,2.709,6.23959,6.23959,0,0,1-.34229,2.17773,4.81878,4.81878,0,0,1-.92676,1.56641,5.35593,5.35593,0,0,1-1.32324,1.07031,8.71741,8.71741,0,0,1-1.52978.69336Z"/><path class="d" d="M184.05134,44.34814a.40088.40088,0,0,1-.41407-.41407v-.6123a.39934.39934,0,0,1,.41407-.41309h5.07617v1.09766a.29369.29369,0,0,1-.11719.26074.513.513,0,0,1-.29687.08106Zm3.97754,0a.34284.34284,0,0,1-.27832-.11719.64192.64192,0,0,1-.13526-.29688l-.34228-5.56152a14.22168,14.22168,0,0,0-.13477-1.53027,1.86392,1.86392,0,0,0-.43213-1.00782,1.45214,1.45214,0,0,0-1.10693-.36035h-.73828a.40009.40009,0,0,1-.41358-.41406v-.6123a.39857.39857,0,0,1,.41358-.41309h.75634a3.90854,3.90854,0,0,1,1.65577.29688,2.25371,2.25371,0,0,1,.98144.86328,4.02724,4.02724,0,0,1,.50391,1.35937,13.31247,13.31247,0,0,1,.207,1.76367l.3418,5.61621a.33977.33977,0,0,1-.10791.29688.434.434,0,0,1-.30616.11719Z"/><path class="d" d="M196.651,42.99853a3.84417,3.84417,0,0,0,1.97119-.43262,2.98439,2.98439,0,0,0,1.22412-1.28711,4.19278,4.19278,0,0,0,.42285-1.917V34.48388a.40086.40086,0,0,1,.41406-.41406h.75586a.37323.37323,0,0,1,.28809.11718.421.421,0,0,1,.10791.29688v5.00391a5.6938,5.6938,0,0,1-.35987,2.0791,4.39179,4.39179,0,0,1-2.60107,2.583,5.16962,5.16962,0,0,1-2.00684.30665h-1.35009a4.14156,4.14156,0,0,1-2.106-.54,3.88844,3.88844,0,0,1-1.47607-1.5127,4.555,4.555,0,0,1-.54-2.25V34.48388a.40085.40085,0,0,1,.41406-.41406h.75586a.40086.40086,0,0,1,.41406.41406l.05371,5.31055a3.13586,3.13586,0,0,0,.86426,2.376,3.046,3.046,0,0,0,2.19629.82813Zm-3.9961-2.10645-.03564-1.31347a4.41662,4.41662,0,0,0,2.03369-.40528,2.15128,2.15128,0,0,0,.98144-1.03515,3.56527,3.56527,0,0,0,.27881-1.42188V34.48388a.421.421,0,0,1,.10791-.29688.39563.39563,0,0,1,.30616-.11718h.73779a.40086.40086,0,0,1,.41406.41406v2.30469a4.24517,4.24517,0,0,1-.522,2.10547,3.63845,3.63845,0,0,1-1.59326,1.47656A5.852,5.852,0,0,1,192.65485,40.89208Z"/><path class="d" d="M211.10505,34.62841h.45019a.55109.55109,0,0,1,.40479.13477.39874.39874,0,0,1,.1167.333q-.14356.75587-.24268,1.36817-.09888.6123-.13525,1.21484-.0359.60352-.03614,1.35938l.0542,4.8955a.40011.40011,0,0,1-.41357.41407l-2.55664-.03614a.42331.42331,0,0,1-.29688-.10742.39574.39574,0,0,1-.1167-.30664v-.57617a.39857.39857,0,0,1,.41358-.41309l1.38623.01758v-3.8164q0-.73683.01807-1.3584a11.0333,11.0333,0,0,1,.10791-1.251,14.12816,14.12816,0,0,1,.28808-1.42187.75785.75785,0,0,1,.17139-.32422A.50706.50706,0,0,1,211.10505,34.62841Zm-1.62012.88184a.40088.40088,0,0,1-.41406-.41407v-.6123a.40086.40086,0,0,1,.41406-.41406h3.90625a5.848,5.848,0,0,1,2.56445.49511,3.26915,3.26915,0,0,1,1.52149,1.47657,5.25893,5.25893,0,0,1,.5039,2.42089v5.47168a.40086.40086,0,0,1-.41406.41407h-.81006a.39563.39563,0,0,1-.30615-.11719.42111.42111,0,0,1-.10742-.29688V38.55224a3.23375,3.23375,0,0,0-.7207-2.24121,2.98329,2.98329,0,0,0-2.32129-.80078Z"/><path class="d" d="M221.05866,44.34814a.40013.40013,0,0,1-.41406-.41407V34.48388a.40012.40012,0,0,1,.41406-.41406h.84619a.39523.39523,0,0,1,.30567.11718.42129.42129,0,0,1,.10839.29688v9.45019a.41964.41964,0,0,1-.10839.29688.39524.39524,0,0,1-.30567.11719Z"/><path class="d" d="M224.92878,44.34814a.40012.40012,0,0,1-.41406-.41407v-.6123a.39859.39859,0,0,1,.41406-.41309h5.07568v1.09766a.29455.29455,0,0,1-.1167.26074.51457.51457,0,0,1-.29736.08106Zm3.978,0a.34553.34553,0,0,1-.2793-.11719.64639.64639,0,0,1-.13477-.29688l-.34179-5.56152a14.21,14.21,0,0,0-.13526-1.53027,1.86392,1.86392,0,0,0-.43213-1.00782,1.45139,1.45139,0,0,0-1.10693-.36035h-.73779a.40086.40086,0,0,1-.41407-.41406v-.6123a.39934.39934,0,0,1,.41407-.41309h.75586a3.91243,3.91243,0,0,1,1.65625.29688,2.24573,2.24573,0,0,1,.98046.86328,3.98621,3.98621,0,0,1,.50391,1.35937,13.15062,13.15062,0,0,1,.207,1.76367l.34229,5.61621a.33842.33842,0,0,1-.10791.29688.434.434,0,0,1-.30616.11719Z"/><path class="d" d="M232.83063,44.34814a.40088.40088,0,0,1-.41406-.41407V34.48388a.40086.40086,0,0,1,.41406-.41406h.84571a.39562.39562,0,0,1,.30615.11718.42311.42311,0,0,1,.10791.29688v9.45019a.42144.42144,0,0,1-.10791.29688.39563.39563,0,0,1-.30615.11719Z"/><path class="d" d="M242.67634,44.34814a.40088.40088,0,0,1-.41407-.41407V38.55224a3.23813,3.23813,0,0,0-.71972-2.24121,2.98563,2.98563,0,0,0-2.32227-.80078h-2.35791a.40088.40088,0,0,1-.41406-.41407v-.6123a.40086.40086,0,0,1,.41406-.41406h2.44776a5.94393,5.94393,0,0,1,2.56543.48632,3.22657,3.22657,0,0,1,1.5205,1.4668,5.30634,5.30634,0,0,1,.5044,2.43945v5.47168a.40088.40088,0,0,1-.41406.41407Z"/><path class="d" d="M250.43415,44.51025a.31076.31076,0,0,1-.29688-.04493.32687.32687,0,0,1-.13476-.27929V43.3579a.45685.45685,0,0,1,.09863-.28808.65284.65284,0,0,1,.29688-.19727l.68457-.27051a6.41642,6.41642,0,0,0,1.30468-.73828,2.87913,2.87913,0,0,0,.918-1.1875,6.10721,6.10721,0,0,0,.04492-3.84277,1.80146,1.80146,0,0,0-.94482-.99024,4.36942,4.36942,0,0,0-1.773-.29687h-3.6543a.40088.40088,0,0,1-.41406-.41406v-.64844a.40086.40086,0,0,1,.41406-.41406h3.88819a6.06062,6.06062,0,0,1,2.61865.46875,2.77067,2.77067,0,0,1,1.38672,1.50293,7.27836,7.27836,0,0,1,.42285,2.709,6.23983,6.23983,0,0,1-.34228,2.17773,4.81976,4.81976,0,0,1-.92725,1.56641,5.42861,5.42861,0,0,1-1.31348,1.07031,8.43658,8.43658,0,0,1-1.52148.69336Zm-3.45606,3.27636a.40086.40086,0,0,1-.41406-.41406V37.92236a.40088.40088,0,0,1,.41406-.41407h.792a.39563.39563,0,0,1,.30615.11719.42144.42144,0,0,1,.10791.29688v9.45019a.42311.42311,0,0,1-.10791.29688.39562.39562,0,0,1-.30615.11718Z"/><path class="d" d="M257.72419,45.33837a.36273.36273,0,0,1-.3418-.02734.30947.30947,0,0,1-.16211-.2793V44.4204a.67447.67447,0,0,1,.07227-.30664.38642.38642,0,0,1,.2334-.19726l3.79834-1.24219a4.124,4.124,0,0,0,1.584-.88184,2.96353,2.96353,0,0,0,.78272-1.26074,5.20563,5.20563,0,0,0,.22558-1.56543V34.48388a.40012.40012,0,0,1,.41406-.41406h.80957a.39563.39563,0,0,1,.30616.11718.42315.42315,0,0,1,.10791.29688v4.98633a4.31536,4.31536,0,0,1-.46778,1.9707,4.8554,4.8554,0,0,1-1.34131,1.62012,6.12753,6.12753,0,0,1-2.061,1.05273Zm2.3584-1.42187-2.53809-9.126a2.01326,2.01326,0,0,0-.06348-.21582.42012.42012,0,0,1-.02685-.14453.36966.36966,0,0,1,.35986-.36035h.88233a.37207.37207,0,0,1,.41357.2705l2.50244,9.16211Z"/><path class="d" d="M275.47175,44.34814a.40011.40011,0,0,1-.41358-.41407V38.55224A3.23591,3.23591,0,0,0,274.338,36.311a2.98517,2.98517,0,0,0-2.32178-.80078H268.6319a.40013.40013,0,0,1-.41406-.41407v-.6123a.40012.40012,0,0,1,.41406-.41406H272.106a4.69367,4.69367,0,0,1,3.46485,1.13476,4.48192,4.48192,0,0,1,1.125,3.294v5.43554a.40088.40088,0,0,1-.41406.41407Zm-6.83985,0a.40013.40013,0,0,1-.41406-.41407V37.92236a.40013.40013,0,0,1,.41406-.41407h.82764a.37252.37252,0,0,1,.28809.11719.41964.41964,0,0,1,.10839.29688v6.01171a.41964.41964,0,0,1-.10839.29688.37252.37252,0,0,1-.28809.11719Z"/></svg>