<svg xmlns="http://www.w3.org/2000/svg" viewBox="35 0 90 120.37551"><defs><style>.a,.b{fill:#683c11;}.b{opacity:0.25;}.c{fill:#896a4c;}.d{fill:#f6f6f6;}.e{fill:#29235c;}.f{fill:#36a9e1;}.g{fill:#e30613;}.h{fill:#ffc931;}.i{fill:#546023;}</style></defs><polygon class="a" points="111.2 64.762 74.859 62.271 74.859 53.68 111.2 51.189 111.2 64.762"/><circle class="b" cx="60.18776" cy="60.18776" r="60.18776"/><path class="c" d="M124.681,60.20029c-.00586,8.90186-.10547,17.8003-.64355,26.73535a118.676,118.676,0,0,1-1.47485,13.45215,35.833,35.833,0,0,1-1.84668,6.82373,12.05189,12.05189,0,0,1-2.09009,3.49512,9.57533,9.57533,0,0,1-.90454.84619,6.19094,6.19094,0,0,1-1.23682.71192c-.23779.09521-.47876.186-.72485.26318-.26026.05322-.52661.09766-.79419.13184a3.45934,3.45934,0,0,1-.72412.02978l-.67481-.03223a8.3694,8.3694,0,0,1-4.45068-2.063,16.109,16.109,0,0,1-2.7273-3.09668,33.88521,33.88521,0,0,1-3.45166-6.56494,77.25422,77.25422,0,0,1-3.93164-13.47315,138.61072,138.61072,0,0,1-2.59375-27.29492A140.94691,140.94691,0,0,1,98.955,32.879a79.13344,79.13344,0,0,1,3.84839-13.48,34.05943,34.05943,0,0,1,3.38183-6.59912,15.15342,15.15342,0,0,1,2.73511-3.14453A7.93029,7.93029,0,0,1,113.5675,7.6373a9.30336,9.30336,0,0,1,1.38916.07471,5.80681,5.80681,0,0,1,1.44409.45947,6.51514,6.51514,0,0,1,2.071,1.55274,11.9967,11.9967,0,0,1,2.1001,3.46973,34.83078,34.83078,0,0,1,1.91382,6.81738A114.034,114.034,0,0,1,124.016,33.46445C124.57458,42.40049,124.67468,51.29893,124.681,60.20029Zm0,0a161.12492,161.12492,0,0,0-2.09277-26.56787,82.49843,82.49843,0,0,0-3.13892-12.81592,29.346,29.346,0,0,0-2.603-5.71972,7.52913,7.52913,0,0,0-1.67017-2.00293,1.40628,1.40628,0,0,0-.66528-.3169c-.07935-.04052-.11817.03321-.15625.01026-.09351.04052-.18946.03906-.27637.06884a3.10243,3.10243,0,0,0-1.17261.97657,9.76847,9.76847,0,0,0-1.283,2.15576A30.49565,30.49565,0,0,0,109.78942,21.65a96.08354,96.08354,0,0,0-1.90454,12.56543c-.79321,8.56494-1.02954,17.26221-1.0459,25.95068.01,8.688.22461,17.38233,1.041,25.936a90.68757,90.68757,0,0,0,1.96557,12.53808,29.44688,29.44688,0,0,0,1.89234,5.63965,10.80249,10.80249,0,0,0,1.32641,2.18164,3.4029,3.4029,0,0,0,1.32593,1.07227,1.05121,1.05121,0,0,1,.15625.0415.671.671,0,0,0,.10645.03662.12972.12972,0,0,1,.03515.04053.1184.1184,0,0,1,.06665,0c.0481.04151.1482-.05176.2439-.0459.11133-.0874.23218-.11816.366-.23242a7.61281,7.61281,0,0,0,1.64624-2.00049,29.8495,29.8495,0,0,0,2.54492-5.76025A84.72341,84.72341,0,0,0,122.62634,86.774,164.74507,164.74507,0,0,0,124.681,60.20029Z"/><path class="d" d="M124.681,60.20053c0,27.58874-3.67141,49.95384-10.03814,49.95384-7.93157,0-13.01782-22.3651-13.01782-49.95384s5.08625-50.859,13.01782-49.95384C120.972,10.969,124.681,32.61179,124.681,60.20053Z"/><path class="e" d="M123.57912,60.198c0,22.071-2.93713,39.96308-8.03051,39.96308-6.34526,0-10.41426-17.89208-10.41426-39.96308s4.069-40.68718,10.41426-39.96307C120.61192,20.81273,123.57912,38.127,123.57912,60.198Z"/><path class="f" d="M122.25117,60.19606c0,17.93268-2.38641,32.47-6.52479,32.47-5.15552,0-8.46158-14.53731-8.46158-32.47s3.30606-33.05834,8.46158-32.47C119.84033,28.19554,122.25117,42.26338,122.25117,60.19606Z"/><path class="g" d="M120.92323,60.19414c0,13.79437-1.83571,24.97692-5.01907,24.97692-3.96579,0-6.50891-11.18255-6.50891-24.97692s2.54312-25.42949,6.50891-24.97692C119.06873,35.57836,120.92323,46.39977,120.92323,60.19414Z"/><path class="h" d="M119.01888,60.19159c0,8.27662-1.10142,14.98615-3.01144,14.98615-2.37947,0-3.90534-6.70953-3.90534-14.98615s1.52587-15.2577,3.90534-14.98615C117.90619,45.42212,119.01888,51.915,119.01888,60.19159Z"/><path class="i" d="M54.69,114.71149a.41922.41922,0,0,1-.1211-.32922l.38574-9.37012a.423.423,0,0,1,.14747-.31812.47126.47126,0,0,1,.33789-.1123l4.083.16821a5.46256,5.46256,0,0,1,3.59961,1.18408,4.24494,4.24494,0,0,1,1.05664,3.42139l-.22168,5.39539a.46226.46226,0,0,1-.4873.44836l-8.45313-.348A.46933.46933,0,0,1,54.69,114.71149Zm6.45312-2.05823.13672-3.32715a1.80554,1.80554,0,0,0-1.94727-2.134l-1.72656-.071-.22168,5.37744Z"/><path class="i" d="M67.442,114.64606a.423.423,0,0,1-.17774-.3031l-1.248-9.29456a.42322.42322,0,0,1,.09082-.33911.47087.47087,0,0,1,.31347-.16919l2.2295-.29956a.4314.4314,0,0,1,.50586.38611l1.249,9.29444a.45338.45338,0,0,1-.083.3291.42456.42456,0,0,1-.30371.17688l-2.22949.29956A.46778.46778,0,0,1,67.442,114.64606Z"/><path class="i" d="M73.77887,113.7038a.42625.42625,0,0,1-.22363-.271l-.47949-1.58483a.46064.46064,0,0,1,.31152-.58362l2.498-.75672a1.916,1.916,0,0,0,1.47754-2.573q-.04542-.21184-.13965-.522c-.05859-.19519-.11524-.36-.168-.49438A1.91624,1.91624,0,0,0,74.398,105.598l-2.498.75683a.46072.46072,0,0,1-.583-.31225l-.48047-1.58484a.42509.42509,0,0,1,.03516-.34925.46808.46808,0,0,1,.28222-.21716l2.584-.78284q4.56445-1.383,6.11328,2.98157.0747.18458.16308.47705a5.58793,5.58793,0,0,1-.02734,3.97681,4.83466,4.83466,0,0,1-3.26855,2.401l-2.584.78284A.46959.46959,0,0,1,73.77887,113.7038Z"/><path class="i" d="M82.34919,106.2237a.42133.42133,0,0,1-.26368-.23206l-2.24023-4.59509a.42482.42482,0,0,1-.02051-.35046.47527.47527,0,0,1,.24414-.25916l2.02246-.98584a.43134.43134,0,0,1,.60157.20728l2.24023,4.59509a.45086.45086,0,0,1,.02539.33838.42526.42526,0,0,1-.23242.2633l-2.02246.986A.4689.4689,0,0,1,82.34919,106.2237Z"/><path class="i" d="M90.39508,105.84809a4.41707,4.41707,0,0,1-2.959-1.97315l-3.24023-4.43188a.42087.42087,0,0,1-.082-.34119.472.472,0,0,1,.19434-.29822l3.70508-2.709a5.21038,5.21038,0,0,1,3.6416-1.302,4.65764,4.65764,0,0,1,2.915,1.88257q.12012.13494.51367.67236.40429.55224.49512.708a4.6736,4.6736,0,0,1,.90039,3.4115,5.41959,5.41959,0,0,1-2.42383,3.16565A5.10709,5.10709,0,0,1,90.39508,105.84809Zm3.23926-4.64258a2.05455,2.05455,0,0,0-.46289-1.50147q-.09082-.15564-.44141-.63549c-.22656-.30994-.38085-.50977-.46093-.59974a2.10135,2.10135,0,0,0-1.31836-.88732,2.21677,2.21677,0,0,0-1.56543.54248l-1.75781,1.2854,2.02929,2.77539a1.9386,1.9386,0,0,0,1.32227.89465,2.20823,2.20823,0,0,0,1.542-.514A2.51486,2.51486,0,0,0,93.63434,101.20551Z"/></svg>
