<svg xmlns="http://www.w3.org/2000/svg" viewBox="35 0 90 120.37551"><defs><style>.a,.b{fill:#683c11;}.b{opacity:0.25;}.c{fill:#896a4c;}.d{fill:#f6f6f6;}.e{fill:#29235c;}.f{fill:#36a9e1;}.g{fill:#e30613;}.h{fill:#ffc931;}.i{fill:#546023;}</style></defs><polygon class="a" points="111.2 64.762 74.859 62.271 74.859 53.68 111.2 51.189 111.2 64.762"/><circle class="b" cx="60.18776" cy="60.18776" r="60.18776"/><path class="c" d="M124.681,60.20039c-.00586,8.90136-.10547,17.80029-.64355,26.73535a118.67627,118.67627,0,0,1-1.47485,13.45215,35.83321,35.83321,0,0,1-1.84668,6.82373,12.05837,12.05837,0,0,1-2.09009,3.49511,9.63966,9.63966,0,0,1-.90454.84619,6.19094,6.19094,0,0,1-1.23682.71192c-.23779.09521-.47876.186-.72485.26318-.26026.05323-.52661.09766-.79419.13184a3.49233,3.49233,0,0,1-.72412.02978l-.67481-.03222a8.36948,8.36948,0,0,1-4.45068-2.063,16.10841,16.10841,0,0,1-2.7273-3.09668,33.89931,33.89931,0,0,1-3.45166-6.56494,77.26633,77.26633,0,0,1-3.93164-13.47315,138.61065,138.61065,0,0,1-2.59375-27.29492A140.94673,140.94673,0,0,1,98.955,32.8791a79.13292,79.13292,0,0,1,3.84839-13.48A34.05943,34.05943,0,0,1,106.18517,12.8a15.15346,15.15346,0,0,1,2.73511-3.14454A7.93035,7.93035,0,0,1,113.5675,7.6374a9.36615,9.36615,0,0,1,1.38916.07422,5.82728,5.82728,0,0,1,1.44409.46,6.50794,6.50794,0,0,1,2.071,1.55273,11.99027,11.99027,0,0,1,2.1001,3.46973,34.8213,34.8213,0,0,1,1.91382,6.81738A114.0344,114.0344,0,0,1,124.016,33.46455C124.57458,42.40058,124.67468,51.299,124.681,60.20039Zm0,0a161.125,161.125,0,0,0-2.09277-26.56788,82.49831,82.49831,0,0,0-3.13892-12.81591,29.35093,29.35093,0,0,0-2.603-5.72022,7.53413,7.53413,0,0,0-1.67017-2.00244,1.40135,1.40135,0,0,0-.66528-.31689c-.07935-.04053-.11817.03271-.15625.01025-.09351.04053-.18946.03906-.27637.06836a3.10974,3.10974,0,0,0-1.17261.97705,9.76893,9.76893,0,0,0-1.283,2.15576,30.49565,30.49565,0,0,0-1.83325,5.66162A96.08893,96.08893,0,0,0,107.88488,34.215c-.79321,8.56543-1.02954,17.2627-1.0459,25.95118.01,8.688.22461,17.38232,1.041,25.936a90.69935,90.69935,0,0,0,1.96557,12.53809,29.45882,29.45882,0,0,0,1.89234,5.63965,10.78486,10.78486,0,0,0,1.32641,2.18115,3.40048,3.40048,0,0,0,1.32593,1.07275.99358.99358,0,0,1,.15625.04151.6736.6736,0,0,0,.10645.03662c.00879.0039.019.01757.03515.04052a.1184.1184,0,0,1,.06665,0c.0481.04151.1482-.05175.2439-.04589.11133-.08741.23218-.11866.366-.23243a7.61291,7.61291,0,0,0,1.64624-2.00048,29.86318,29.86318,0,0,0,2.54492-5.76026,84.723,84.723,0,0,0,3.07056-12.83935A164.74516,164.74516,0,0,0,124.681,60.20039Z"/><path class="d" d="M124.681,60.20053c0,27.58874-3.67141,49.95384-10.03814,49.95384-7.93157,0-13.01782-22.3651-13.01782-49.95384s5.08625-50.859,13.01782-49.95384C120.972,10.969,124.681,32.61179,124.681,60.20053Z"/><path class="e" d="M123.57912,60.198c0,22.071-2.93713,39.96308-8.03051,39.96308-6.34526,0-10.41426-17.89208-10.41426-39.96308s4.069-40.68718,10.41426-39.96307C120.61192,20.81273,123.57912,38.127,123.57912,60.198Z"/><path class="f" d="M122.25117,60.19606c0,17.93268-2.38641,32.47-6.52479,32.47-5.15552,0-8.46158-14.53731-8.46158-32.47s3.30606-33.05834,8.46158-32.47C119.84033,28.19554,122.25117,42.26338,122.25117,60.19606Z"/><path class="g" d="M120.92323,60.19414c0,13.79437-1.83571,24.97692-5.01907,24.97692-3.96579,0-6.50891-11.18255-6.50891-24.97692s2.54312-25.42949,6.50891-24.97692C119.06873,35.57836,120.92323,46.39977,120.92323,60.19414Z"/><path class="h" d="M119.01888,60.19159c0,8.27662-1.10142,14.98615-3.01144,14.98615-2.37947,0-3.90534-6.70953-3.90534-14.98615s1.52587-15.2577,3.90534-14.98615C117.90619,45.42212,119.01888,51.915,119.01888,60.19159Z"/><path class="i" d="M71.85407,107.08407q.2417.9232.69629.95251l.52929.02893a.55687.55687,0,0,1,.4375.462l.28223,1.00525a.39373.39373,0,0,1-.11621.37463.57826.57826,0,0,1-.38379.20312l-.9375.11561a2.26024,2.26024,0,0,1-1.75976-.60853,4.07387,4.07387,0,0,1-1.18848-2.11682l-.68457-2.61169a.43221.43221,0,0,1,.32129-.54944L72.48,103.44a4.5538,4.5538,0,0,1,3.6709.30274,5.024,5.024,0,0,1,2.04688,2.98022l1.90332,7.18616a.43045.43045,0,0,1-.32129.54944l-1.9668.516a.44879.44879,0,0,1-.33691-.04187.42319.42319,0,0,1-.21289-.2793l-1.89063-7.20813a2.2518,2.2518,0,0,0-.9209-1.34936,2.049,2.049,0,0,0-1.624-.12317l-1.17871.32788Z"/><path class="i" d="M82.76813,110.6932a.42223.42223,0,0,1-.25684-.23963L78.648,101.90841a.42422.42422,0,0,1-.01074-.35083.46985.46985,0,0,1,.25195-.25208l2.04981-.92688a.4316.4316,0,0,1,.5957.22461l3.86328,8.54529a.44263.44263,0,0,1,.01465.33887.42171.42171,0,0,1-.23926.25647l-2.0498.927A.46958.46958,0,0,1,82.76813,110.6932Z"/><path class="i" d="M94.39411,104.1512a.48357.48357,0,0,1-.21485.29895l-1.89062,1.22a.41434.41434,0,0,1-.3252.06006.50586.50586,0,0,1-.29687-.19409l-.94824-.97278a3.87344,3.87344,0,0,1-.39942,1.30713,10.20622,10.20622,0,0,1-.73047,1.27478,6.52284,6.52284,0,0,1-.82031.96887l-.09668.0835a.26254.26254,0,0,1-.41308-.07605l-1.05372-1.63342a.48242.48242,0,0,1,.07325-.583q.07617-.11352.54687-.66345a7.21709,7.21709,0,0,0,.71582-.96546,3.59261,3.59261,0,0,0,.4707-1.46093l-1.19531-1.221a3.89925,3.89925,0,0,0-1.29785-.983,1.31275,1.31275,0,0,0-1.18164.22705l-.5293.34167a.433.433,0,0,1-.33789.05738.42862.42862,0,0,1-.28418-.19153l-.89843-1.39148a.46718.46718,0,0,1-.07422-.348.42378.42378,0,0,1,.19824-.28919l.57519-.37085a5.57206,5.57206,0,0,1,2.31348-.94665,3.39579,3.39579,0,0,1,1.99805.39172,8.818,8.818,0,0,1,2.13183,1.70947L94.314,103.828A.325.325,0,0,1,94.39411,104.1512Z"/></svg>
