<svg xmlns="http://www.w3.org/2000/svg" viewBox="35 0 90 120.37551"><defs><style>.a,.b{fill:#683c11;}.b{opacity:0.25;}.c{fill:#896a4c;}.d{fill:#f6f6f6;}.e{fill:#29235c;}.f{fill:#36a9e1;}.g{fill:#e30613;}.h{fill:#ffc931;}.i{fill:#546023;}</style></defs><polygon class="a" points="111.2 64.762 74.859 62.271 74.859 53.68 111.2 51.189 111.2 64.762"/><circle class="b" cx="60.18776" cy="60.18776" r="60.18776"/><path class="c" d="M124.681,60.20029c-.00586,8.90186-.10547,17.8003-.64355,26.73535a118.676,118.676,0,0,1-1.47485,13.45215,35.833,35.833,0,0,1-1.84668,6.82373,12.05189,12.05189,0,0,1-2.09009,3.49512,9.57533,9.57533,0,0,1-.90454.84619,6.19094,6.19094,0,0,1-1.23682.71192c-.23779.09521-.47876.186-.72485.26318-.26026.05322-.52661.09766-.79419.13184a3.45934,3.45934,0,0,1-.72412.02978l-.67481-.03223a8.3694,8.3694,0,0,1-4.45068-2.063,16.109,16.109,0,0,1-2.7273-3.09668,33.88521,33.88521,0,0,1-3.45166-6.56494,77.25422,77.25422,0,0,1-3.93164-13.47315,138.61072,138.61072,0,0,1-2.59375-27.29492A140.94691,140.94691,0,0,1,98.955,32.879a79.13344,79.13344,0,0,1,3.84839-13.48,34.05943,34.05943,0,0,1,3.38183-6.59912,15.15342,15.15342,0,0,1,2.73511-3.14453A7.93029,7.93029,0,0,1,113.5675,7.6373a9.30336,9.30336,0,0,1,1.38916.07471,5.80681,5.80681,0,0,1,1.44409.45947,6.51514,6.51514,0,0,1,2.071,1.55274,11.9967,11.9967,0,0,1,2.1001,3.46973,34.83078,34.83078,0,0,1,1.91382,6.81738A114.034,114.034,0,0,1,124.016,33.46445C124.57458,42.40049,124.67468,51.29893,124.681,60.20029Zm0,0a161.12492,161.12492,0,0,0-2.09277-26.56787,82.49843,82.49843,0,0,0-3.13892-12.81592,29.346,29.346,0,0,0-2.603-5.71972,7.52913,7.52913,0,0,0-1.67017-2.00293,1.40628,1.40628,0,0,0-.66528-.3169c-.07935-.04052-.11817.03321-.15625.01026-.09351.04052-.18946.03906-.27637.06884a3.10243,3.10243,0,0,0-1.17261.97657,9.76847,9.76847,0,0,0-1.283,2.15576A30.49565,30.49565,0,0,0,109.78942,21.65a96.08354,96.08354,0,0,0-1.90454,12.56543c-.79321,8.56494-1.02954,17.26221-1.0459,25.95068.01,8.688.22461,17.38233,1.041,25.936a90.68757,90.68757,0,0,0,1.96557,12.53808,29.44688,29.44688,0,0,0,1.89234,5.63965,10.80249,10.80249,0,0,0,1.32641,2.18164,3.4029,3.4029,0,0,0,1.32593,1.07227,1.05121,1.05121,0,0,1,.15625.0415.671.671,0,0,0,.10645.03662.12972.12972,0,0,1,.03515.04053.1184.1184,0,0,1,.06665,0c.0481.04151.1482-.05176.2439-.0459.11133-.0874.23218-.11816.366-.23242a7.61281,7.61281,0,0,0,1.64624-2.00049,29.8495,29.8495,0,0,0,2.54492-5.76025A84.72341,84.72341,0,0,0,122.62634,86.774,164.74507,164.74507,0,0,0,124.681,60.20029Z"/><path class="d" d="M124.681,60.20053c0,27.58874-3.67141,49.95384-10.03814,49.95384-7.93157,0-13.01782-22.3651-13.01782-49.95384s5.08625-50.859,13.01782-49.95384C120.972,10.969,124.681,32.61179,124.681,60.20053Z"/><path class="e" d="M123.57912,60.198c0,22.071-2.93713,39.96308-8.03051,39.96308-6.34526,0-10.41426-17.89208-10.41426-39.96308s4.069-40.68718,10.41426-39.96307C120.61192,20.81273,123.57912,38.127,123.57912,60.198Z"/><path class="f" d="M122.25117,60.19606c0,17.93268-2.38641,32.47-6.52479,32.47-5.15552,0-8.46158-14.53731-8.46158-32.47s3.30606-33.05834,8.46158-32.47C119.84033,28.19554,122.25117,42.26338,122.25117,60.19606Z"/><path class="g" d="M120.92323,60.19414c0,13.79437-1.83571,24.97692-5.01907,24.97692-3.96579,0-6.50891-11.18255-6.50891-24.97692s2.54312-25.42949,6.50891-24.97692C119.06873,35.57836,120.92323,46.39977,120.92323,60.19414Z"/><path class="h" d="M119.01888,60.19159c0,8.27662-1.10142,14.98615-3.01144,14.98615-2.37947,0-3.90534-6.70953-3.90534-14.98615s1.52587-15.2577,3.90534-14.98615C117.90619,45.42212,119.01888,51.915,119.01888,60.19159Z"/><path class="i" d="M45.24274,112.70243a.42123.42123,0,0,1-.0625-.34533l1.11816-5.13569a.42183.42183,0,0,1,.2002-.2879.47093.47093,0,0,1,.35254-.05224l2.07519.45178a.43087.43087,0,0,1,.34375.53546l-1.11816,5.13568a.44785.44785,0,0,1-.18945.281.4246.4246,0,0,1-.34571.063l-2.07519-.45178A.47108.47108,0,0,1,45.24274,112.70243Zm6.44629,1.40332a.44051.44051,0,0,1-.05469-.34338l1.13379-5.20606a1.8061,1.8061,0,0,0-1.55078-2.43774l-4.01074-.873a.46619.46619,0,0,1-.29785-.194.42136.42136,0,0,1-.06348-.34528l.3291-1.51257a.4258.4258,0,0,1,.20117-.28785.47026.47026,0,0,1,.35254-.05236l4.09766.89221a5.52036,5.52036,0,0,1,3.416,1.86737,4.31968,4.31968,0,0,1,.49512,3.60785L54.607,114.40946a.42174.42174,0,0,1-.20117.28785.46762.46762,0,0,1-.35157.0523l-2.07519-.45184A.43516.43516,0,0,1,51.689,114.10575Z"/><path class="i" d="M58.55817,115.06217a.421.421,0,0,1-.14453-.3197l-.29-9.37353a.42579.42579,0,0,1,.125-.328.47206.47206,0,0,1,.3291-.13623l4.24609-.1311a5.65945,5.65945,0,0,1,3.80176.93616,4.36883,4.36883,0,0,1,1.32129,3.42578l.16406,5.30749a.44652.44652,0,0,1-.11621.31873.42269.42269,0,0,1-.31933.145l-2.123.06555a.46847.46847,0,0,1-.33691-.11566.42524.42524,0,0,1-.14551-.3197l-.16406-5.32544a1.806,1.806,0,0,0-2.09668-1.98829l-1.583.049.22754,7.37646a.44671.44671,0,0,1-.11621.31873.42273.42273,0,0,1-.31934.14495l-2.123.06556A.47.47,0,0,1,58.55817,115.06217Z"/><path class="i" d="M70.63727,109.87834a.42239.42239,0,0,1-.19922-.28894l-1.05957-5.00086a.42465.42465,0,0,1,.06446-.345.4706.4706,0,0,1,.2998-.19232l2.20117-.46661a.43147.43147,0,0,1,.53321.34692l1.06054,5.00085a.44966.44966,0,0,1-.05859.33429.42177.42177,0,0,1-.28809.19928l-2.20117.46656A.47.47,0,0,1,70.63727,109.87834Z"/><path class="i" d="M83.01422,100.72929a4.158,4.158,0,0,1,2.44043,2.59912l2.08789,4.99963a.44361.44361,0,0,1,.00489.33924.42374.42374,0,0,1-.2461.24939l-1.96.81848a.47039.47039,0,0,1-.35644.012.42179.42179,0,0,1-.249-.247l-2.05371-4.91656a1.80514,1.80514,0,0,0-2.667-1.1098l-1.08008.4508a10.96455,10.96455,0,0,0,.77051,2.54578l1.957,4.31292a.42328.42328,0,0,1,0,.351.46565.46565,0,0,1-.25879.24457l-3.52832,1.45379a.4681.4681,0,0,1-.35547.012.42206.42206,0,0,1-.249-.247l-.54785-1.31214a.42337.42337,0,0,1-.001-.351A.47.47,0,0,1,76.981,110.69l1.3457-.56183-1.08886-2.60778a9.73586,9.73586,0,0,1-.77735-2.56232l-.98047.40918a.46781.46781,0,0,1-.35546.01208.42209.42209,0,0,1-.249-.24695l-.59668-1.42846a.42344.42344,0,0,1,0-.35108.47006.47006,0,0,1,.25879-.2445l4.63379-1.93512A5.58588,5.58588,0,0,1,83.01422,100.72929Z"/><path class="i" d="M88.72419,99.56657q.47168.56937.86425.43249l.51075-.15808a.42083.42083,0,0,1,.30468.03083.70522.70522,0,0,1,.26465.218l.56445.724a.47519.47519,0,0,1,.05957.48425.89877.89877,0,0,1-.39843.44434l-.65528.356a2.28919,2.28919,0,0,1-1.83789.12841,3.59721,3.59721,0,0,1-1.77929-1.35473l-1.52149-2.03137a.627.627,0,0,1-.07226-.35108.39125.39125,0,0,1,.16211-.27887l2.91015-2.17975a4.656,4.656,0,0,1,3.54492-1.13708,5.11974,5.11974,0,0,1,3.06055,1.9693q.123.13357.31641.39264a5.68344,5.68344,0,0,1,1.34961,3.72326,4.532,4.532,0,0,1-2.10938,3.2782l-2.7373,2.0503a.4707.4707,0,0,1-.34278.09875.42186.42186,0,0,1-.30175-.17834l-.99317-1.32544a.46215.46215,0,0,1,.09473-.65516l2.665-1.99633a2.155,2.155,0,0,0,.88476-1.326,2.09576,2.09576,0,0,0-.38965-1.58606q-.09375-.15436-.30957-.443-.20506-.27347-.32714-.407a2.03739,2.03739,0,0,0-1.39844-.83069,2.17537,2.17537,0,0,0-1.53516.48682l-1.22461.91724Z"/></svg>
