<svg xmlns="http://www.w3.org/2000/svg" viewBox="0 0 275.63116 31.84337"><defs><style>.a{fill:#683c11;fill-opacity:0.25;}.b,.c,.g{fill:none;}.b{stroke:#706f6f;stroke-width:6.70013px;}.b,.c{stroke-linecap:round;stroke-linejoin:round;}.c{stroke:#878787;stroke-width:2.23338px;}.d{fill:#9d9d9c;}.e{fill:#3c3c3b;}.f{fill:#ededed;}.g{stroke:#575756;stroke-miterlimit:10;stroke-width:1.67503px;}.h{fill:#c6c6c6;}.i{fill:#decfe2;}.j{fill:#ffe3ff;}.k{fill:#aa96a9;}.l{fill:#fff;}</style></defs><path class="a" d="M5.61619,20.02052c1.291,2.52387,1.57978,5.67481.67021,6.07979s-1.67553-1.9149-3.15957-4.117C.93365,18.72889-.54034,16.699.36923,16.294S3.82905,16.52664,5.61619,20.02052Z"/><line class="b" x1="272.2811" y1="16.42063" x2="23.00684" y2="16.42063"/><line class="c" x1="272.2811" y1="15.92169" x2="23.00684" y2="15.92169"/><polygon class="d" points="20.996 20.178 20.996 12.663 17.853 10.297 17.083 16.421 17.853 22.544 20.996 20.178"/><rect class="e" x="17.16128" y="15.29437" width="9.43871" height="2.25242" rx="1.12621" transform="translate(38.30122 -5.46005) rotate(90)"/><polygon class="f" points="17.853 10.297 0 16.421 17.853 22.544 17.083 16.421 17.853 10.297"/><path class="g" d="M47.17008,19.7707v-.38406a14.751,14.751,0,0,1,0-5.8666v-.42935"/><path class="g" d="M43.05012,19.7707v-.38406a14.751,14.751,0,0,1,0-5.8666v-.42935"/><path class="g" d="M38.93017,19.7707v-.38406a14.75082,14.75082,0,0,1,0-5.8666v-.42935"/><path class="g" d="M34.81021,19.7707v-.38406a14.751,14.751,0,0,1,0-5.8666v-.42935"/><path class="g" d="M268.925,19.7707v-.38406a14.751,14.751,0,0,1,0-5.8666v-.42935"/><path class="g" d="M264.805,19.7707v-.38406a14.751,14.751,0,0,1,0-5.8666v-.42935"/><path class="g" d="M260.68505,19.7707v-.38406a14.751,14.751,0,0,1,0-5.8666v-.42935"/><path class="g" d="M256.56509,19.7707v-.38406a14.751,14.751,0,0,1,0-5.8666v-.42935"/><path class="g" d="M252.44514,19.7707v-.38406a14.75082,14.75082,0,0,1,0-5.8666v-.42935"/><path class="g" d="M248.32518,19.7707v-.38406a14.751,14.751,0,0,1,0-5.8666v-.42935"/><path class="g" d="M244.20522,19.7707v-.38406a14.751,14.751,0,0,1,0-5.8666v-.42935"/><path class="g" d="M240.08526,19.7707v-.38406a14.751,14.751,0,0,1,0-5.8666v-.42935"/><path class="g" d="M235.9653,19.7707v-.38406a14.751,14.751,0,0,1,0-5.8666v-.42935"/><path class="g" d="M231.84535,19.7707v-.38406a14.75082,14.75082,0,0,1,0-5.8666v-.42935"/><path class="g" d="M227.72539,19.7707v-.38406a14.751,14.751,0,0,1,0-5.8666v-.42935"/><path class="g" d="M223.60543,19.7707v-.38406a14.751,14.751,0,0,1,0-5.8666v-.42935"/><polygon class="h" points="17.083 16.421 0 16.421 17.853 22.544 17.083 16.421"/><polygon class="i" points="236.815 18.886 246.279 26.936 274.046 26.936 264.583 18.886 236.815 18.886"/><polygon class="j" points="264.583 18.886 268.992 25.277 246.755 25.277 236.815 18.886 246.279 26.936 274.046 26.936 264.583 18.886"/><polygon class="k" points="264.583 18.886 238.355 20.195 236.815 18.886 264.583 18.886"/><polygon class="i" points="236.815 13.84 246.279 5.79 274.046 5.79 264.583 13.84 236.815 13.84"/><polygon class="k" points="268.366 10.622 236.815 13.84 264.583 13.84 268.366 10.622"/><polygon class="j" points="274.046 5.79 247.85 6.985 236.815 13.84 246.279 5.79 274.046 5.79"/><rect class="l" x="29.0606" width="202.69747" height="31.84337" rx="5.84749"/><path class="e" d="M106.02136,15.8475a.33671.33671,0,0,1-.09668-.24756V11.205a.33133.33133,0,0,1,.09668-.255.35178.35178,0,0,1,.248-.09h.66016a.33387.33387,0,0,1,.34473.345v4.395a.33378.33378,0,0,1-.34473.345h-.66016A.33559.33559,0,0,1,106.02136,15.8475Z"/><path class="e" d="M115.79382,10.95a.34278.34278,0,0,1,.08984.255v4.14a3.64927,3.64927,0,0,1-.86914,2.3775,4.64752,4.64752,0,0,1-2.3252,1.49249l-3.2705,1.035a.38784.38784,0,0,1-.12012.015.3195.3195,0,0,1-.21-.075.24343.24343,0,0,1-.08984-.19507V19.53q0-.34488.24023-.42l1.96484-.66-1.95019-6.99a1.88364,1.88364,0,0,1-.07422-.3.30736.30736,0,0,1,.2998-.30005h.68946a.36778.36778,0,0,1,.22558.06751.33287.33287,0,0,1,.12012.15753l1.91992,6.96A3.05307,3.05307,0,0,0,114.09167,16.86a3.59933,3.59933,0,0,0,.47265-1.91992V11.205a.33387.33387,0,0,1,.34473-.345h.62988A.3434.3434,0,0,1,115.79382,10.95Z"/><path class="e" d="M118.23132,19.32748a.33363.33363,0,0,1-.09766-.24749V11.205a.32843.32843,0,0,1,.09766-.255.34936.34936,0,0,1,.24707-.09h.66015a.33239.33239,0,0,1,.34473.345V19.08a.33239.33239,0,0,1-.34473.345h-.66015A.3334.3334,0,0,1,118.23132,19.32748Z"/><path class="e" d="M127.23815,14.655a3.09776,3.09776,0,0,1-1.40918,1.26l1.55957,2.25a.71932.71932,0,0,1,.17969.45v.465a.33387.33387,0,0,1-.34473.345h-5.40039a.33385.33385,0,0,1-.34472-.345v-.495a.30974.30974,0,0,1,.09765-.24.34937.34937,0,0,1,.24707-.09h4.08008l-4.69433-6.81a.65623.65623,0,0,1-.12012-.285.27645.27645,0,0,1,.09766-.21.33018.33018,0,0,1,.23242-.09h.66015a.48277.48277,0,0,1,.4043.24L125.16882,14.97a2.43943,2.43943,0,0,0,1.27441-2.46V11.205a.32843.32843,0,0,1,.09766-.255.35178.35178,0,0,1,.248-.09h.585a.33385.33385,0,0,1,.34472.345v1.47A3.868,3.868,0,0,1,127.23815,14.655Z"/><path class="e" d="M132.86315,19.575a.26879.26879,0,0,1-.26953-.285v-.66c0-.18.10938-.31494.33008-.405l.585-.225a3.45734,3.45734,0,0,0,1.58984-1.125,3.54648,3.54648,0,0,0,.55469-2.16,4.22414,4.22414,0,0,0-.24023-1.58251,1.52768,1.52768,0,0,0-.78711-.83246,3.641,3.641,0,0,0-1.50781-.255h-3a.33385.33385,0,0,1-.34473-.345V11.19A.30988.30988,0,0,1,129.871,10.95a.34936.34936,0,0,1,.24707-.09h3.18066a5.063,5.063,0,0,1,2.18262.39,2.34774,2.34774,0,0,1,1.16211,1.245,5.9734,5.9734,0,0,1,.36035,2.28,4.37532,4.37532,0,0,1-.94531,2.9925,5.56576,5.56576,0,0,1-2.46,1.58245l-.62988.21009A.267.267,0,0,1,132.86315,19.575ZM129.871,22.2a.32842.32842,0,0,1-.09766-.255V14.04a.33376.33376,0,0,1,.34473-.345h.61523a.33228.33228,0,0,1,.34473.345v7.905a.33239.33239,0,0,1-.34473.345H130.118A.34936.34936,0,0,1,129.871,22.2Z"/><path class="e" d="M144.64636,11.30246A3.03281,3.03281,0,0,1,145.786,12.57a4.30764,4.30764,0,0,1,.41309,1.95v4.56a.33392.33392,0,0,1-.3457.345h-3.87012a.30862.30862,0,0,1-.23926-.09754.348.348,0,0,1-.08984-.24749v-.48a.34855.34855,0,0,1,.08984-.24743.30947.30947,0,0,1,.23926-.09754h2.89551V14.61a2.85128,2.85128,0,0,0-.57715-1.85247,1.8062,1.8062,0,0,0-1.46289-.71247H141.2489l-1.15528,7.02a.39326.39326,0,0,1-.12695.255.35685.35685,0,0,1-.24805.105h-.62988a.27831.27831,0,0,1-.23242-.105.33951.33951,0,0,1-.06739-.255l1.2002-7.02h-.76563a.33384.33384,0,0,1-.34472-.345v-.495a.33385.33385,0,0,1,.34472-.345h3.76563A3.12949,3.12949,0,0,1,144.64636,11.30246Z"/><path class="e" d="M152.2362,21.195a.3284.3284,0,0,1-.09766-.255V11.205a.32843.32843,0,0,1,.09766-.255.34936.34936,0,0,1,.24707-.09h.62988a.33392.33392,0,0,1,.34571.345V20.94a.3339.3339,0,0,1-.34571.345h-.62988A.34939.34939,0,0,1,152.2362,21.195Z"/><path class="e" d="M155.89538,19.32748a.33363.33363,0,0,1-.09766-.24749v-.495a.32841.32841,0,0,1,.09766-.255.34936.34936,0,0,1,.24707-.09H158.288a2.50872,2.50872,0,0,0,1.91992-.66,2.93181,2.93181,0,0,0,.6748-1.92q.01466-.20983.01465-.525,0-.29993-.01465-.51a2.851,2.851,0,0,0-.667-1.92749A2.55291,2.55291,0,0,0,158.288,12.045h-2.14551a.33385.33385,0,0,1-.34473-.345v-.495a.32843.32843,0,0,1,.09766-.255.34936.34936,0,0,1,.24707-.09h2.2207a3.775,3.775,0,0,1,2.82715.95252,4.00144,4.00144,0,0,1,.98242,2.75256q.01466.21021.01465.57,0,.36-.01465.585a4.00105,4.00105,0,0,1-.98242,2.7525,3.774,3.774,0,0,1-2.82715.95252h-2.2207A.3334.3334,0,0,1,155.89538,19.32748Z"/><path class="e" d="M164.28015,19.32748a.33363.33363,0,0,1-.09766-.24749V11.205a.32843.32843,0,0,1,.09766-.255.34936.34936,0,0,1,.24707-.09h.66015a.33239.33239,0,0,1,.34473.345V19.08a.33239.33239,0,0,1-.34473.345h-.66015A.3334.3334,0,0,1,164.28015,19.32748Z"/><path class="e" d="M175.47741,14.52v4.56a.33387.33387,0,0,1-.34473.345h-.62988a.33391.33391,0,0,1-.3457-.345V14.595a2.28066,2.28066,0,0,0-2.58008-2.58h-1.08008q-.14941.945-.21679,1.56751A11.3529,11.3529,0,0,0,170.22741,15l.03027,4.08a.33391.33391,0,0,1-.3457.345l-2.085-.03a.33387.33387,0,0,1-.34473-.345v-.45008a.33387.33387,0,0,1,.34473-.345l1.15527.015V15.06q-.01464-.945.03711-1.59754a9.28739,9.28739,0,0,1,.24805-1.44751h-.81055a.35127.35127,0,0,1-.24707-.09.30956.30956,0,0,1-.09765-.24v-.48a.32843.32843,0,0,1,.09765-.255.351.351,0,0,1,.24707-.09h3.21094Q175.47643,10.86,175.47741,14.52Z"/><path class="e" d="M189.037,14.52v4.56a.33387.33387,0,0,1-.34473.345h-.62988a.33391.33391,0,0,1-.3457-.345V14.595a2.28066,2.28066,0,0,0-2.58008-2.58h-1.08008q-.14942.945-.21679,1.56751A11.3529,11.3529,0,0,0,183.787,15l.03027,4.08a.33391.33391,0,0,1-.3457.345l-2.085-.03a.33387.33387,0,0,1-.34473-.345v-.45008a.33387.33387,0,0,1,.34473-.345l1.15527.015V15.06q-.01464-.945.03711-1.59754A9.28739,9.28739,0,0,1,182.827,12.015h-.81055a.35127.35127,0,0,1-.24707-.09.30956.30956,0,0,1-.09765-.24v-.48a.32843.32843,0,0,1,.09765-.255.351.351,0,0,1,.24707-.09h3.21094Q189.036,10.86,189.037,14.52Z"/><path class="e" d="M195.56921,19.32748a.33741.33741,0,0,1-.09766-.24749V14.595a2.28,2.28,0,0,0-2.5791-2.58H190.9569a.34964.34964,0,0,1-.24707-.09.30956.30956,0,0,1-.09765-.24v-.48a.33385.33385,0,0,1,.34472-.345h2.02539q3.81006,0,3.80957,3.66v4.56a.33385.33385,0,0,1-.34472.345h-.62989A.33563.33563,0,0,1,195.56921,19.32748Z"/><path class="e" d="M198.77233,19.32748a.34868.34868,0,0,1-.09082-.24749v-.48a.34923.34923,0,0,1,.09082-.24743.30947.30947,0,0,1,.23926-.09754h4.335v-3.66a2.27358,2.27358,0,0,0-2.58008-2.565H199.162a.31073.31073,0,0,1-.24023-.09754.35217.35217,0,0,1-.08985-.24743v-.48a.353.353,0,0,1,.08985-.2475A.31159.31159,0,0,1,199.162,10.86h1.67969q3.84083,0,3.83984,3.67505v3.72h.57031a.31306.31306,0,0,1,.24024.09754.35287.35287,0,0,1,.08984.24743v.48a.35231.35231,0,0,1-.08984.24749.31219.31219,0,0,1-.24024.09754h-6.24023A.30862.30862,0,0,1,198.77233,19.32748Z"/><path class="e" d="M213.48718,10.95a.34278.34278,0,0,1,.08984.255v4.14a3.64927,3.64927,0,0,1-.86914,2.3775,4.64752,4.64752,0,0,1-2.3252,1.49249l-3.2705,1.035a.38784.38784,0,0,1-.12012.015.3195.3195,0,0,1-.21-.075.24343.24343,0,0,1-.08985-.19507V19.53q0-.34488.24024-.42l1.96484-.66-1.95019-6.99a1.88364,1.88364,0,0,1-.07422-.3.30736.30736,0,0,1,.2998-.30005h.68946a.36778.36778,0,0,1,.22558.06751.33287.33287,0,0,1,.12012.15753l1.91992,6.96A3.05307,3.05307,0,0,0,211.785,16.86a3.59933,3.59933,0,0,0,.47265-1.91992V11.205a.33387.33387,0,0,1,.34473-.345h.62988A.3434.3434,0,0,1,213.48718,10.95Z"/><path class="e" d="M221.62487,19.32748a.33363.33363,0,0,1-.09765-.24749V14.595a2.27421,2.27421,0,0,0-2.56543-2.58h-2.79a.34962.34962,0,0,1-.24707-.09.30957.30957,0,0,1-.09766-.24v-.48a.32843.32843,0,0,1,.09766-.255.34936.34936,0,0,1,.24707-.09H219.037q3.81006,0,3.81055,3.69007v4.53a.33392.33392,0,0,1-.34571.345h-.62988A.3334.3334,0,0,1,221.62487,19.32748Zm-5.70019,0A.33363.33363,0,0,1,215.827,19.08V14.04a.33376.33376,0,0,1,.34473-.345h.62988a.3338.3338,0,0,1,.3457.345v5.04a.33391.33391,0,0,1-.3457.345h-.62988A.3334.3334,0,0,1,215.92468,19.32748Z"/></svg>