<svg xmlns="http://www.w3.org/2000/svg" viewBox="0 0 275.63116 31.84337"><defs><style>.a{fill:#683c11;fill-opacity:0.25;}.b,.c,.g{fill:none;}.b{stroke:#706f6f;stroke-width:6.70013px;}.b,.c{stroke-linecap:round;stroke-linejoin:round;}.c{stroke:#878787;stroke-width:2.23338px;}.d{fill:#9d9d9c;}.e{fill:#3c3c3b;}.f{fill:#ededed;}.g{stroke:#575756;stroke-miterlimit:10;stroke-width:1.67503px;}.h{fill:#c6c6c6;}.i{fill:#decfe2;}.j{fill:#ffe3ff;}.k{fill:#aa96a9;}.l{fill:#fff;}</style></defs><path class="a" d="M5.61619,20.02052c1.291,2.52387,1.57978,5.67481.67021,6.07979s-1.67553-1.9149-3.15957-4.117C.93365,18.72889-.54034,16.699.36923,16.294S3.82905,16.52664,5.61619,20.02052Z"/><line class="b" x1="272.2811" y1="16.42063" x2="23.00684" y2="16.42063"/><line class="c" x1="272.2811" y1="15.92169" x2="23.00684" y2="15.92169"/><polygon class="d" points="20.996 20.178 20.996 12.663 17.853 10.297 17.083 16.421 17.853 22.544 20.996 20.178"/><rect class="e" x="17.16128" y="15.29437" width="9.43871" height="2.25242" rx="1.12621" transform="translate(38.30122 -5.46005) rotate(90)"/><polygon class="f" points="17.853 10.297 0 16.421 17.853 22.544 17.083 16.421 17.853 10.297"/><path class="g" d="M47.17008,19.7707v-.38406a14.751,14.751,0,0,1,0-5.8666v-.42935"/><path class="g" d="M43.05012,19.7707v-.38406a14.751,14.751,0,0,1,0-5.8666v-.42935"/><path class="g" d="M38.93017,19.7707v-.38406a14.75082,14.75082,0,0,1,0-5.8666v-.42935"/><path class="g" d="M34.81021,19.7707v-.38406a14.751,14.751,0,0,1,0-5.8666v-.42935"/><path class="g" d="M268.925,19.7707v-.38406a14.751,14.751,0,0,1,0-5.8666v-.42935"/><path class="g" d="M264.805,19.7707v-.38406a14.751,14.751,0,0,1,0-5.8666v-.42935"/><path class="g" d="M260.68505,19.7707v-.38406a14.751,14.751,0,0,1,0-5.8666v-.42935"/><path class="g" d="M256.56509,19.7707v-.38406a14.751,14.751,0,0,1,0-5.8666v-.42935"/><path class="g" d="M252.44514,19.7707v-.38406a14.75082,14.75082,0,0,1,0-5.8666v-.42935"/><path class="g" d="M248.32518,19.7707v-.38406a14.751,14.751,0,0,1,0-5.8666v-.42935"/><path class="g" d="M244.20522,19.7707v-.38406a14.751,14.751,0,0,1,0-5.8666v-.42935"/><path class="g" d="M240.08526,19.7707v-.38406a14.751,14.751,0,0,1,0-5.8666v-.42935"/><path class="g" d="M235.9653,19.7707v-.38406a14.751,14.751,0,0,1,0-5.8666v-.42935"/><path class="g" d="M231.84535,19.7707v-.38406a14.75082,14.75082,0,0,1,0-5.8666v-.42935"/><path class="g" d="M227.72539,19.7707v-.38406a14.751,14.751,0,0,1,0-5.8666v-.42935"/><path class="g" d="M223.60543,19.7707v-.38406a14.751,14.751,0,0,1,0-5.8666v-.42935"/><polygon class="h" points="17.083 16.421 0 16.421 17.853 22.544 17.083 16.421"/><polygon class="i" points="236.815 18.886 246.279 26.936 274.046 26.936 264.583 18.886 236.815 18.886"/><polygon class="j" points="264.583 18.886 268.992 25.277 246.755 25.277 236.815 18.886 246.279 26.936 274.046 26.936 264.583 18.886"/><polygon class="k" points="264.583 18.886 238.355 20.195 236.815 18.886 264.583 18.886"/><polygon class="i" points="236.815 13.84 246.279 5.79 274.046 5.79 264.583 13.84 236.815 13.84"/><polygon class="k" points="268.366 10.622 236.815 13.84 264.583 13.84 268.366 10.622"/><polygon class="j" points="274.046 5.79 247.85 6.985 236.815 13.84 246.279 5.79 274.046 5.79"/><rect class="l" x="29.0606" width="202.69747" height="31.84337" rx="5.84749"/><path class="e" d="M156.13561,11.25009a2.34727,2.34727,0,0,1,1.16211,1.245,5.97276,5.97276,0,0,1,.36035,2.28,4.37526,4.37526,0,0,1-.94531,2.99243,5.56579,5.56579,0,0,1-2.46,1.58252l-.62988.21a.2611.2611,0,0,1-.10547.015.27374.27374,0,0,1-.1875-.075.27048.27048,0,0,1-.082-.21008V18.6301a.43989.43989,0,0,1,.33008-.405l.585-.225a3.454,3.454,0,0,0,1.58984-1.125,3.54655,3.54655,0,0,0,.55469-2.16,4.24639,4.24639,0,0,0-.23926-1.58252,1.53309,1.53309,0,0,0-.78808-.83252,3.63906,3.63906,0,0,0-1.50684-.255h-.51074l-1.37989-.015a.34907.34907,0,0,1-.24707-.09.30927.30927,0,0,1-.09765-.24v-2.58a.33365.33365,0,0,1,.34472-.345h.60059a.30938.30938,0,0,1,.23926.09741.34955.34955,0,0,1,.09082.24756v1.74h1.1543A5.01948,5.01948,0,0,1,156.13561,11.25009Z"/><path class="e" d="M164.55847,19.14011a.25674.25674,0,0,1-.09766.20239.34822.34822,0,0,1-.23242.08252h-.66016q-.28564,0-.3457-.345l-.34473-1.755a4.54946,4.54946,0,0,1-1.27441,1.335,6.16953,6.16953,0,0,1-1.03516.57751,5.148,5.148,0,0,1-1.02051.30749l-.10449.015q-.25488,0-.25488-.24v-.705q0-.25488.31445-.375.0454-.01482.59277-.20251a4.356,4.356,0,0,0,.98243-.47254,4.07183,4.07183,0,0,0,.88476-.78747,3.4634,3.4634,0,0,0,.61524-.95252l-.26953-1.35a8.84947,8.84947,0,0,0-.38282-1.40259,1.80124,1.80124,0,0,0-.54785-.78747,1.41752,1.41752,0,0,0-.89941-.2699h-.55567a.34915.34915,0,0,1-.24707-.09009.30929.30929,0,0,1-.09765-.24v-.51a.33383.33383,0,0,1,.34472-.345h.55567a2.8944,2.8944,0,0,1,1.57422.39,2.7079,2.7079,0,0,1,.98242,1.16248,8.965,8.965,0,0,1,.623,2.01758l.9004,4.67993Z"/><path class="e" d="M172.58288,10.95a.34276.34276,0,0,1,.08984.255v4.14a3.64916,3.64916,0,0,1-.86914,2.37745,4.647,4.647,0,0,1-2.32519,1.49255l-3.27051,1.035a.39148.39148,0,0,1-.12012.015.3193.3193,0,0,1-.21-.07508.24335.24335,0,0,1-.08984-.19494V19.53q0-.34479.24023-.41992l1.96485-.66-1.9502-6.99a1.8851,1.8851,0,0,1-.07422-.3.30725.30725,0,0,1,.29981-.29993h.68945a.36743.36743,0,0,1,.22559.0675.33252.33252,0,0,1,.12011.15747l1.91992,6.96a3.05225,3.05225,0,0,0,1.65723-1.18493,3.59978,3.59978,0,0,0,.47266-1.92v-3.735a.33365.33365,0,0,1,.34472-.345h.62989A.34364.34364,0,0,1,172.58288,10.95Z"/><path class="e" d="M180.43542,11.30258A3.03273,3.03273,0,0,1,181.57507,12.57a4.30733,4.30733,0,0,1,.41308,1.94995v4.56006a.33371.33371,0,0,1-.3457.345h-3.87012a.309.309,0,0,1-.23926-.09741.34806.34806,0,0,1-.08984-.24756v-.48a.34889.34889,0,0,1,.08984-.24756.3094.3094,0,0,1,.23926-.09741h2.89551v-3.645a2.85125,2.85125,0,0,0-.57715-1.85254,1.80611,1.80611,0,0,0-1.46289-.71253H177.038l-1.15528,7.02a.39325.39325,0,0,1-.12695.255.357.357,0,0,1-.24805.105h-.62988a.27841.27841,0,0,1-.23242-.105.33953.33953,0,0,1-.06738-.255l1.20019-7.02h-.76562a.33385.33385,0,0,1-.34473-.345v-.495a.33367.33367,0,0,1,.34473-.345h3.76562A3.12837,3.12837,0,0,1,180.43542,11.30258Z"/><path class="e" d="M195.54675,14.52v4.56006a.33367.33367,0,0,1-.34473.345h-.62988a.33372.33372,0,0,1-.34571-.345v-4.485a2.28061,2.28061,0,0,0-2.58007-2.58h-1.08008q-.14942.94482-.2168,1.56738a11.35606,11.35606,0,0,0-.05273,1.4176l.03027,4.08a.33372.33372,0,0,1-.3457.345l-2.085-.03a.33367.33367,0,0,1-.34473-.345v-.45a.33367.33367,0,0,1,.34473-.345l1.15527.01489V15.06q-.01465-.945.03711-1.59741a9.28266,9.28266,0,0,1,.24805-1.44751h-.81055a.35078.35078,0,0,1-.24707-.09009.3093.3093,0,0,1-.09766-.24v-.48a.32845.32845,0,0,1,.09766-.255.35127.35127,0,0,1,.24707-.09h3.21094Q195.54577,10.86008,195.54675,14.52Z"/><path class="e" d="M202.079,19.32761a.33749.33749,0,0,1-.09765-.24756v-4.485a2.27992,2.27992,0,0,0-2.5791-2.58h-1.93555a.34913.34913,0,0,1-.24707-.09009.3093.3093,0,0,1-.09766-.24v-.48a.33367.33367,0,0,1,.34473-.345h2.02539q3.81006,0,3.80957,3.65991v4.56006a.33367.33367,0,0,1-.34473.345H202.327A.336.336,0,0,1,202.079,19.32761Z"/><path class="e" d="M205.54382,15.84751a.33624.33624,0,0,1-.09668-.24744v-4.395a.33135.33135,0,0,1,.09668-.255.352.352,0,0,1,.248-.09h.66016a.33367.33367,0,0,1,.34473.345v4.395a.33385.33385,0,0,1-.34473.345h-.66016A.33566.33566,0,0,1,205.54382,15.84751Z"/><path class="e" d="M213.952,19.14011a.2567.2567,0,0,1-.09766.20239.3482.3482,0,0,1-.23242.08252h-.66015q-.28565,0-.34571-.345l-.34472-1.755a4.54948,4.54948,0,0,1-1.27442,1.335,6.16987,6.16987,0,0,1-1.03515.57751,5.14819,5.14819,0,0,1-1.02051.30749l-.10449.015q-.25489,0-.25489-.24v-.705q0-.25488.31446-.375.0454-.01482.59277-.20251a4.35616,4.35616,0,0,0,.98242-.47254,4.07164,4.07164,0,0,0,.88477-.78747,3.46334,3.46334,0,0,0,.61523-.95252l-.26953-1.35a8.85069,8.85069,0,0,0-.38281-1.40259,1.8014,1.8014,0,0,0-.54785-.78747,1.41757,1.41757,0,0,0-.89942-.2699h-.55566a.34913.34913,0,0,1-.24707-.09009.3093.3093,0,0,1-.09766-.24v-.51a.33385.33385,0,0,1,.34473-.345h.55566a2.8944,2.8944,0,0,1,1.57422.39,2.70777,2.70777,0,0,1,.98242,1.16248,8.9649,8.9649,0,0,1,.623,2.01758l.90039,4.67993Z"/><path class="e" d="M216.37487,18.60751A3.876,3.876,0,0,1,215.452,15.825v-4.62a.32845.32845,0,0,1,.09766-.255.34962.34962,0,0,1,.24707-.09h3.60058a3.73449,3.73449,0,0,1,2.77442.87,3.96432,3.96432,0,0,1,.915,2.67c.00976.1.01562.37.01562.80993,0,.44019-.00586.71009-.01562.80994a3.65668,3.65668,0,0,1-.97461,2.67,4.202,4.202,0,0,1-2.97071.885A3.65015,3.65015,0,0,1,216.37487,18.60751Zm4.77735-.80993a2.56157,2.56157,0,0,0,.64453-1.85254c.00976-.09985.01562-.345.01562-.735s-.00586-.63488-.01562-.735a2.517,2.517,0,0,0-.68262-1.83008,2.4711,2.4711,0,0,0-1.792-.62988h-2.61035V15.825a2.71855,2.71855,0,0,0,.60742,1.905,2.33749,2.33749,0,0,0,1.80761.66A2.85743,2.85743,0,0,0,221.15222,17.79758Z"/></svg>