<svg xmlns="http://www.w3.org/2000/svg" viewBox="0 0 275.63116 31.84337"><defs><style>.a{fill:#683c11;fill-opacity:0.25;}.b,.c,.g{fill:none;}.b{stroke:#706f6f;stroke-width:6.70013px;}.b,.c{stroke-linecap:round;stroke-linejoin:round;}.c{stroke:#878787;stroke-width:2.23338px;}.d{fill:#9d9d9c;}.e{fill:#3c3c3b;}.f{fill:#ededed;}.g{stroke:#575756;stroke-miterlimit:10;stroke-width:1.67503px;}.h{fill:#c6c6c6;}.i{fill:#decfe2;}.j{fill:#ffe3ff;}.k{fill:#aa96a9;}.l{fill:#fff;}</style></defs><path class="a" d="M5.61619,20.02052c1.291,2.52387,1.57978,5.67481.67021,6.07979s-1.67553-1.9149-3.15957-4.117C.93365,18.72889-.54034,16.699.36923,16.294S3.82905,16.52664,5.61619,20.02052Z"/><line class="b" x1="272.2811" y1="16.42063" x2="23.00684" y2="16.42063"/><line class="c" x1="272.2811" y1="15.92169" x2="23.00684" y2="15.92169"/><polygon class="d" points="20.996 20.178 20.996 12.663 17.853 10.297 17.083 16.421 17.853 22.544 20.996 20.178"/><rect class="e" x="17.16128" y="15.29437" width="9.43871" height="2.25242" rx="1.12621" transform="translate(38.30122 -5.46005) rotate(90)"/><polygon class="f" points="17.853 10.297 0 16.421 17.853 22.544 17.083 16.421 17.853 10.297"/><path class="g" d="M47.17008,19.7707v-.38406a14.751,14.751,0,0,1,0-5.8666v-.42935"/><path class="g" d="M43.05012,19.7707v-.38406a14.751,14.751,0,0,1,0-5.8666v-.42935"/><path class="g" d="M38.93017,19.7707v-.38406a14.75082,14.75082,0,0,1,0-5.8666v-.42935"/><path class="g" d="M34.81021,19.7707v-.38406a14.751,14.751,0,0,1,0-5.8666v-.42935"/><path class="g" d="M268.925,19.7707v-.38406a14.751,14.751,0,0,1,0-5.8666v-.42935"/><path class="g" d="M264.805,19.7707v-.38406a14.751,14.751,0,0,1,0-5.8666v-.42935"/><path class="g" d="M260.68505,19.7707v-.38406a14.751,14.751,0,0,1,0-5.8666v-.42935"/><path class="g" d="M256.56509,19.7707v-.38406a14.751,14.751,0,0,1,0-5.8666v-.42935"/><path class="g" d="M252.44514,19.7707v-.38406a14.75082,14.75082,0,0,1,0-5.8666v-.42935"/><path class="g" d="M248.32518,19.7707v-.38406a14.751,14.751,0,0,1,0-5.8666v-.42935"/><path class="g" d="M244.20522,19.7707v-.38406a14.751,14.751,0,0,1,0-5.8666v-.42935"/><path class="g" d="M240.08526,19.7707v-.38406a14.751,14.751,0,0,1,0-5.8666v-.42935"/><path class="g" d="M235.9653,19.7707v-.38406a14.751,14.751,0,0,1,0-5.8666v-.42935"/><path class="g" d="M231.84535,19.7707v-.38406a14.75082,14.75082,0,0,1,0-5.8666v-.42935"/><path class="g" d="M227.72539,19.7707v-.38406a14.751,14.751,0,0,1,0-5.8666v-.42935"/><path class="g" d="M223.60543,19.7707v-.38406a14.751,14.751,0,0,1,0-5.8666v-.42935"/><polygon class="h" points="17.083 16.421 0 16.421 17.853 22.544 17.083 16.421"/><polygon class="i" points="236.815 18.886 246.279 26.936 274.046 26.936 264.583 18.886 236.815 18.886"/><polygon class="j" points="264.583 18.886 268.992 25.277 246.755 25.277 236.815 18.886 246.279 26.936 274.046 26.936 264.583 18.886"/><polygon class="k" points="264.583 18.886 238.355 20.195 236.815 18.886 264.583 18.886"/><polygon class="i" points="236.815 13.84 246.279 5.79 274.046 5.79 264.583 13.84 236.815 13.84"/><polygon class="k" points="268.366 10.622 236.815 13.84 264.583 13.84 268.366 10.622"/><polygon class="j" points="274.046 5.79 247.85 6.985 236.815 13.84 246.279 5.79 274.046 5.79"/><rect class="l" x="29.0606" width="202.69747" height="31.84337" rx="5.84749"/><path class="e" d="M109.35827,14.52007V19.08a.33387.33387,0,0,1-.34473.345h-.62988a.3339.3339,0,0,1-.3457-.345V14.595a2.2807,2.2807,0,0,0-2.58008-2.58008H104.3778q-.14941.9452-.2168,1.56763a11.3521,11.3521,0,0,0-.05273,1.41748l.03027,4.08a.3339.3339,0,0,1-.3457.345l-2.085-.02991a.33386.33386,0,0,1-.34473-.34509V18.6a.33387.33387,0,0,1,.34473-.3451l1.15527.01514V15.06q-.01464-.945.03711-1.59754a9.29133,9.29133,0,0,1,.248-1.44751h-.81055a.35069.35069,0,0,1-.24707-.09.3093.3093,0,0,1-.09765-.24v-.48a.32843.32843,0,0,1,.09765-.255.351.351,0,0,1,.24707-.09h3.21094Q109.35729,10.86,109.35827,14.52007Z"/><path class="e" d="M117.90807,10.95a.34275.34275,0,0,1,.08985.255v4.14a3.64888,3.64888,0,0,1-.86914,2.37744,4.64689,4.64689,0,0,1-2.3252,1.49256l-3.27051,1.035a.39192.39192,0,0,1-.12011.01489.31916.31916,0,0,1-.21-.07495.24319.24319,0,0,1-.08985-.19494v-.465q0-.345.24024-.42l1.96484-.66L111.368,11.46a1.88358,1.88358,0,0,1-.07422-.30005.30723.30723,0,0,1,.2998-.29992h.68945a.36741.36741,0,0,1,.22559.0675.33217.33217,0,0,1,.12012.15747l1.91992,6.96A3.05229,3.05229,0,0,0,116.20593,16.86a3.59981,3.59981,0,0,0,.47265-1.92005V11.205a.33376.33376,0,0,1,.34473-.345h.62988A.34336.34336,0,0,1,117.90807,10.95Z"/><path class="e" d="M125.76061,11.30254A3.0326,3.0326,0,0,1,126.90026,12.57a4.30785,4.30785,0,0,1,.41309,1.95007V19.08a.33392.33392,0,0,1-.3457.345h-3.87012a.30862.30862,0,0,1-.23926-.09754.34752.34752,0,0,1-.08984-.24743V18.6a.34882.34882,0,0,1,.08984-.24756.30989.30989,0,0,1,.23926-.09754H125.993V14.61a2.85129,2.85129,0,0,0-.57715-1.85254A1.80609,1.80609,0,0,0,123.953,12.045h-1.58985l-1.15527,7.02a.39331.39331,0,0,1-.127.255.357.357,0,0,1-.248.105H120.203a.27843.27843,0,0,1-.23243-.105.33963.33963,0,0,1-.06738-.255l1.2002-7.02h-.76563a.33365.33365,0,0,1-.34472-.345v-.495a.33374.33374,0,0,1,.34472-.345h3.76563A3.12833,3.12833,0,0,1,125.76061,11.30254Z"/><path class="e" d="M137.9696,10.95751a.3342.3342,0,0,1,.09765.2475v4.17a4.5542,4.5542,0,0,1-.51757,2.2124,3.51518,3.51518,0,0,1-1.45508,1.45508,4.25247,4.25247,0,0,1-2.15235.47241h-1.10937A3.45073,3.45073,0,0,1,131.077,19.065a3.17505,3.17505,0,0,1-1.22168-1.26745A3.88217,3.88217,0,0,1,129.412,15.915v-4.71a.33186.33186,0,0,1,.09766-.255.35174.35174,0,0,1,.248-.09h.585a.33374.33374,0,0,1,.34472.345l.04492,4.26a2.66646,2.66646,0,0,0,1.89746-.735,2.46643,2.46643,0,0,0,.53223-1.65V11.205a.33381.33381,0,0,1,.3457-.345h.585a.33374.33374,0,0,1,.34472.345v1.93493a3.23713,3.23713,0,0,1-.915,2.37012,3.89729,3.89729,0,0,1-2.68457,1.02,2.36662,2.36662,0,0,0,.89258,1.34241,2.5981,2.5981,0,0,0,1.56738.47253h.4795a2.86657,2.86657,0,0,0,2.2207-.825,3.12115,3.12115,0,0,0,.79492-2.23511V11.205a.33228.33228,0,0,1,.34473-.345h.585A.33454.33454,0,0,1,137.9696,10.95751Z"/><path class="e" d="M145.68054,11.30254A3.03265,3.03265,0,0,1,146.82018,12.57a4.30785,4.30785,0,0,1,.41309,1.95007V19.08a.33392.33392,0,0,1-.3457.345h-3.87012a.30862.30862,0,0,1-.23926-.09754.34756.34756,0,0,1-.08984-.24743V18.6a.34886.34886,0,0,1,.08984-.24756.30989.30989,0,0,1,.23926-.09754H145.913V14.61a2.85129,2.85129,0,0,0-.57715-1.85254,1.80609,1.80609,0,0,0-1.46289-.71253h-1.58985l-1.15527,7.02a.39327.39327,0,0,1-.12695.255.357.357,0,0,1-.24805.105h-.62988a.2784.2784,0,0,1-.23242-.105.33959.33959,0,0,1-.06739-.255l1.2002-7.02h-.76563a.33365.33365,0,0,1-.34472-.345v-.495a.33374.33374,0,0,1,.34472-.345h3.76563A3.12839,3.12839,0,0,1,145.68054,11.30254Z"/><path class="e" d="M153.16393,15.84746a.33647.33647,0,0,1-.09668-.24743V11.205a.33137.33137,0,0,1,.09668-.255.35176.35176,0,0,1,.24805-.09h.66016a.33374.33374,0,0,1,.34472.345V15.6a.33385.33385,0,0,1-.34472.345H153.412A.33566.33566,0,0,1,153.16393,15.84746Z"/><path class="e" d="M160.97936,11.25005a2.34727,2.34727,0,0,1,1.16211,1.245,5.97245,5.97245,0,0,1,.36035,2.2799,4.3752,4.3752,0,0,1-.94531,2.99256,5.56588,5.56588,0,0,1-2.46,1.58252l-.62988.21a.26128.26128,0,0,1-.10547.015.2743.2743,0,0,1-.1875-.07495.27067.27067,0,0,1-.082-.21008v-.66a.43987.43987,0,0,1,.33008-.4049l.585-.225a3.454,3.454,0,0,0,1.58984-1.125,3.54679,3.54679,0,0,0,.55469-2.16,4.24682,4.24682,0,0,0-.23926-1.58252A1.53266,1.53266,0,0,0,160.1239,12.3a3.63906,3.63906,0,0,0-1.50684-.255h-.51074l-1.37989-.01489a.34915.34915,0,0,1-.24707-.09009.30946.30946,0,0,1-.09765-.24V9.12005a.33376.33376,0,0,1,.34472-.345h.60059a.30943.30943,0,0,1,.23926.09748.34954.34954,0,0,1,.09082.24756v1.74h1.1543A5.01948,5.01948,0,0,1,160.97936,11.25005Z"/><path class="e" d="M170.27917,19.32744a.33322.33322,0,0,1-.09766-.24743V14.595a2.27425,2.27425,0,0,0-2.56543-2.58008h-2.79a.34906.34906,0,0,1-.24707-.09.3093.3093,0,0,1-.09765-.24v-.48a.32843.32843,0,0,1,.09765-.255.34933.34933,0,0,1,.24707-.09h2.86524q3.81006,0,3.81054,3.68994v4.53a.3339.3339,0,0,1-.3457.345h-.62988A.3334.3334,0,0,1,170.27917,19.32744Zm-5.7002,0a.33321.33321,0,0,1-.09765-.24743V14.04a.33383.33383,0,0,1,.34472-.345h.62989a.3339.3339,0,0,1,.3457.345v5.04a.33392.33392,0,0,1-.3457.345H164.826A.33341.33341,0,0,1,164.579,19.32744Z"/><path class="e" d="M177.93737,19.12505a.27273.27273,0,0,1-.09765.21753.34941.34941,0,0,1-.23243.0824h-4.00586a.33385.33385,0,0,1-.34472-.345V18.6a.33386.33386,0,0,1,.34472-.3451h2.95508l-.23926-3.80993c-.05078-.64991-.10253-1.12732-.1582-1.4325a1.36147,1.36147,0,0,0-.36719-.74243,1.2081,1.2081,0,0,0-.88476-.285h-.61524a.3496.3496,0,0,1-.24707-.09.30964.30964,0,0,1-.09765-.24V11.175a.33383.33383,0,0,1,.34472-.345h.61524a2.7503,2.7503,0,0,1,1.65722.42749,2.16573,2.16573,0,0,1,.79493,1.17749,9.41649,9.41649,0,0,1,.293,1.965l.28515,4.68006Z"/><path class="e" d="M191.15124,14.52007V19.08a.33387.33387,0,0,1-.34473.345h-.62988a.3339.3339,0,0,1-.3457-.345V14.595a2.2807,2.2807,0,0,0-2.58008-2.58008h-1.08008q-.14942.9452-.2168,1.56763a11.3521,11.3521,0,0,0-.05273,1.41748l.03027,4.08a.3339.3339,0,0,1-.3457.345l-2.085-.02991a.33386.33386,0,0,1-.34473-.34509V18.6a.33387.33387,0,0,1,.34473-.3451l1.15527.01514V15.06q-.01464-.945.03711-1.59754a9.29133,9.29133,0,0,1,.24805-1.44751h-.81055a.35069.35069,0,0,1-.24707-.09.30931.30931,0,0,1-.09766-.24v-.48a.32843.32843,0,0,1,.09766-.255.351.351,0,0,1,.24707-.09h3.21094Q191.15026,10.86,191.15124,14.52007Z"/><path class="e" d="M197.68347,19.32744a.337.337,0,0,1-.09766-.24743V14.595a2.28,2.28,0,0,0-2.5791-2.58008h-1.93555a.349.349,0,0,1-.24707-.09.30931.30931,0,0,1-.09766-.24v-.48a.33376.33376,0,0,1,.34473-.345h2.02539q3.81006,0,3.80957,3.66V19.08a.33385.33385,0,0,1-.34472.345h-.62989A.33563.33563,0,0,1,197.68347,19.32744Z"/><path class="e" d="M207.23132,10.95a.3467.3467,0,0,1,.08984.255v.48a.30931.30931,0,0,1-.09766.24.35069.35069,0,0,1-.24707.09h-.88574a1.65816,1.65816,0,0,0-.33691.70508,4.21332,4.21332,0,0,0-.12793,1.08v5.295a.30183.30183,0,0,1-.10449.24.37916.37916,0,0,1-.25489.09h-.62988a.30947.30947,0,0,1-.33008-.33V13.71A4.523,4.523,0,0,1,204.411,12.66a1.55961,1.55961,0,0,1,.28516-.645h-4.13965a.35147.35147,0,0,1-.248-.09.30931.30931,0,0,1-.09766-.24v-.48a.33381.33381,0,0,1,.3457-.345h6.41992A.34643.34643,0,0,1,207.23132,10.95Z"/><path class="e" d="M214.10241,19.13994a.25719.25719,0,0,1-.09766.20264.34938.34938,0,0,1-.23242.0824h-.66015q-.28564,0-.34571-.345l-.34472-1.755a4.54636,4.54636,0,0,1-1.27442,1.335,6.16959,6.16959,0,0,1-1.03515.57752,5.14885,5.14885,0,0,1-1.02051.30749l-.10449.015q-.2549,0-.25489-.24v-.705q0-.25488.31446-.375.0454-.01484.59277-.20251a4.351,4.351,0,0,0,.98242-.47254,4.07506,4.07506,0,0,0,.88477-.78747,3.46334,3.46334,0,0,0,.61523-.95252l-.26953-1.35a8.845,8.845,0,0,0-.38281-1.40247,1.80113,1.80113,0,0,0-.54785-.7876,1.41767,1.41767,0,0,0-.89942-.27h-.55566a.349.349,0,0,1-.24707-.09.30931.30931,0,0,1-.09766-.24v-.51a.33385.33385,0,0,1,.34473-.345h.55566a2.89377,2.89377,0,0,1,1.57422.39,2.70765,2.70765,0,0,1,.98242,1.16248A8.96556,8.96556,0,0,1,213.202,14.4l.90039,4.68006Z"/><path class="e" d="M221.6239,19.32744a.33322.33322,0,0,1-.09766-.24743V14.595a2.27425,2.27425,0,0,0-2.56543-2.58008h-2.79a.349.349,0,0,1-.24707-.09.30931.30931,0,0,1-.09766-.24v-.48a.32843.32843,0,0,1,.09766-.255.34931.34931,0,0,1,.24707-.09H219.036q3.81006,0,3.81055,3.68994v4.53a.3339.3339,0,0,1-.3457.345H221.871A.3334.3334,0,0,1,221.6239,19.32744Zm-5.7002,0A.33322.33322,0,0,1,215.826,19.08V14.04a.33385.33385,0,0,1,.34473-.345h.62988a.3339.3339,0,0,1,.34571.345v5.04a.33392.33392,0,0,1-.34571.345h-.62988A.3334.3334,0,0,1,215.9237,19.32744Z"/></svg>