<svg xmlns="http://www.w3.org/2000/svg" viewBox="0 0 275.63116 31.84337"><defs><style>.a{fill:#683c11;fill-opacity:0.25;}.b,.c,.g{fill:none;}.b{stroke:#706f6f;stroke-width:6.70013px;}.b,.c{stroke-linecap:round;stroke-linejoin:round;}.c{stroke:#878787;stroke-width:2.23338px;}.d{fill:#9d9d9c;}.e{fill:#3c3c3b;}.f{fill:#ededed;}.g{stroke:#575756;stroke-miterlimit:10;stroke-width:1.67503px;}.h{fill:#c6c6c6;}.i{fill:#decfe2;}.j{fill:#ffe3ff;}.k{fill:#aa96a9;}.l{fill:#fff;}</style></defs><path class="a" d="M5.61619,20.02052c1.291,2.52387,1.57978,5.67481.67021,6.07979s-1.67553-1.9149-3.15957-4.117C.93365,18.72889-.54034,16.699.36923,16.294S3.82905,16.52664,5.61619,20.02052Z"/><line class="b" x1="272.2811" y1="16.42063" x2="23.00684" y2="16.42063"/><line class="c" x1="272.2811" y1="15.92169" x2="23.00684" y2="15.92169"/><polygon class="d" points="20.996 20.178 20.996 12.663 17.853 10.297 17.083 16.421 17.853 22.544 20.996 20.178"/><rect class="e" x="17.16128" y="15.29437" width="9.43871" height="2.25242" rx="1.12621" transform="translate(38.30122 -5.46005) rotate(90)"/><polygon class="f" points="17.853 10.297 0 16.421 17.853 22.544 17.083 16.421 17.853 10.297"/><path class="g" d="M47.17008,19.7707v-.38406a14.751,14.751,0,0,1,0-5.8666v-.42935"/><path class="g" d="M43.05012,19.7707v-.38406a14.751,14.751,0,0,1,0-5.8666v-.42935"/><path class="g" d="M38.93017,19.7707v-.38406a14.75082,14.75082,0,0,1,0-5.8666v-.42935"/><path class="g" d="M34.81021,19.7707v-.38406a14.751,14.751,0,0,1,0-5.8666v-.42935"/><path class="g" d="M268.925,19.7707v-.38406a14.751,14.751,0,0,1,0-5.8666v-.42935"/><path class="g" d="M264.805,19.7707v-.38406a14.751,14.751,0,0,1,0-5.8666v-.42935"/><path class="g" d="M260.68505,19.7707v-.38406a14.751,14.751,0,0,1,0-5.8666v-.42935"/><path class="g" d="M256.56509,19.7707v-.38406a14.751,14.751,0,0,1,0-5.8666v-.42935"/><path class="g" d="M252.44514,19.7707v-.38406a14.75082,14.75082,0,0,1,0-5.8666v-.42935"/><path class="g" d="M248.32518,19.7707v-.38406a14.751,14.751,0,0,1,0-5.8666v-.42935"/><path class="g" d="M244.20522,19.7707v-.38406a14.751,14.751,0,0,1,0-5.8666v-.42935"/><path class="g" d="M240.08526,19.7707v-.38406a14.751,14.751,0,0,1,0-5.8666v-.42935"/><path class="g" d="M235.9653,19.7707v-.38406a14.751,14.751,0,0,1,0-5.8666v-.42935"/><path class="g" d="M231.84535,19.7707v-.38406a14.75082,14.75082,0,0,1,0-5.8666v-.42935"/><path class="g" d="M227.72539,19.7707v-.38406a14.751,14.751,0,0,1,0-5.8666v-.42935"/><path class="g" d="M223.60543,19.7707v-.38406a14.751,14.751,0,0,1,0-5.8666v-.42935"/><polygon class="h" points="17.083 16.421 0 16.421 17.853 22.544 17.083 16.421"/><polygon class="i" points="236.815 18.886 246.279 26.936 274.046 26.936 264.583 18.886 236.815 18.886"/><polygon class="j" points="264.583 18.886 268.992 25.277 246.755 25.277 236.815 18.886 246.279 26.936 274.046 26.936 264.583 18.886"/><polygon class="k" points="264.583 18.886 238.355 20.195 236.815 18.886 264.583 18.886"/><polygon class="i" points="236.815 13.84 246.279 5.79 274.046 5.79 264.583 13.84 236.815 13.84"/><polygon class="k" points="268.366 10.622 236.815 13.84 264.583 13.84 268.366 10.622"/><polygon class="j" points="274.046 5.79 247.85 6.985 236.815 13.84 246.279 5.79 274.046 5.79"/><rect class="l" x="29.0606" width="202.69747" height="31.84337" rx="5.84749"/><path class="e" d="M107.7694,14.52007v4.56006a.33383.33383,0,0,1-.34472.345h-.62989a.3339.3339,0,0,1-.3457-.345V14.595a2.28066,2.28066,0,0,0-2.58008-2.58h-1.08008q-.14942.945-.21679,1.5675a11.3549,11.3549,0,0,0-.05274,1.41748l.03028,4.08008a.3339.3339,0,0,1-.34571.345l-2.085-.03a.33383.33383,0,0,1-.34472-.345V18.6a.33383.33383,0,0,1,.34472-.345l1.15528.015v-3.21q-.01465-.945.03711-1.59753a9.28728,9.28728,0,0,1,.248-1.44751h-.81054a.35126.35126,0,0,1-.24708-.09.3095.3095,0,0,1-.09765-.24v-.48a.32875.32875,0,0,1,.09765-.25513.3513.3513,0,0,1,.24708-.09h3.21093Q107.76844,10.86,107.7694,14.52007Z"/><path class="e" d="M110.11706,19.32757a.3336.3336,0,0,1-.09766-.24744v-7.875a.32872.32872,0,0,1,.09766-.25513.34962.34962,0,0,1,.24707-.09h.66016a.33237.33237,0,0,1,.34472.34509v7.875a.33237.33237,0,0,1-.34472.345h-.66016A.33343.33343,0,0,1,110.11706,19.32757Z"/><path class="e" d="M118.30651,19.32757a.33741.33741,0,0,1-.09765-.24744V14.595a2.28,2.28,0,0,0-2.57911-2.58h-1.93554a.34958.34958,0,0,1-.24707-.09.30947.30947,0,0,1-.09766-.24v-.48a.33386.33386,0,0,1,.34473-.34509h2.02539q3.81006,0,3.80957,3.66v4.56006a.33385.33385,0,0,1-.34473.345h-.62988A.33567.33567,0,0,1,118.30651,19.32757Z"/><path class="e" d="M122.60436,18.6375a3.80048,3.80048,0,0,1-.90039-2.73742v-4.695a.32872.32872,0,0,1,.09766-.25513.35206.35206,0,0,1,.248-.09h.56933a.31442.31442,0,0,1,.34571.34509V15.825a2.67291,2.67291,0,0,0,.62207,1.905,3.04714,3.04714,0,0,0,3.71972.05249,2.63378,2.63378,0,0,0,.623-1.8374v-1.545a2.95681,2.95681,0,0,0-.52539-1.83,1.6575,1.6575,0,0,0-1.34961-.6001,2.13686,2.13686,0,0,0-.60059.09754,2.30118,2.30118,0,0,0-.56933.24756.24572.24572,0,0,1-.15039.04492.28151.28151,0,0,1-.26953-.2699v-.43506a1.103,1.103,0,0,1,.02929-.285.3179.3179,0,0,1,.165-.17993,2.30491,2.30491,0,0,1,.668-.3075,3.41632,3.41632,0,0,1,.89258-.09753,2.81239,2.81239,0,0,1,2.21191.84753,4.00368,4.00368,0,0,1,.80274,2.61743q.01464.15015.01465.885,0,.73518-.01465.885a3.83423,3.83423,0,0,1-.9375,2.67749,3.87667,3.87667,0,0,1-2.82715.87744A3.82,3.82,0,0,1,122.60436,18.6375Z"/><path class="e" d="M136.66589,11.30254a3.03306,3.03306,0,0,1,1.13965,1.26758,4.30733,4.30733,0,0,1,.41308,1.95v4.56006a.33389.33389,0,0,1-.3457.345H134.0028a.30864.30864,0,0,1-.23926-.09753.348.348,0,0,1-.08984-.24744V18.6a.3488.3488,0,0,1,.08984-.24744.30947.30947,0,0,1,.23926-.09753h2.89551V14.61a2.85113,2.85113,0,0,0-.57715-1.85242,1.80611,1.80611,0,0,0-1.46289-.71252h-1.58984l-1.15528,7.02a.39352.39352,0,0,1-.12695.255.357.357,0,0,1-.24805.105h-.62988a.27841.27841,0,0,1-.23242-.105.33966.33966,0,0,1-.06738-.255l1.20019-7.02H131.243a.33387.33387,0,0,1-.34473-.3451v-.49487A.33386.33386,0,0,1,131.243,10.86h3.76562A3.12946,3.12946,0,0,1,136.66589,11.30254Z"/><path class="e" d="M146.26647,19.32757a.33359.33359,0,0,1-.09765-.24744V14.595a2.27421,2.27421,0,0,0-2.56543-2.58h-2.79a.34958.34958,0,0,1-.24707-.09.30947.30947,0,0,1-.09766-.24v-.48a.32872.32872,0,0,1,.09766-.25513.34962.34962,0,0,1,.24707-.09h2.86523q3.81006,0,3.81055,3.69006v4.53a.3339.3339,0,0,1-.3457.345h-.62989A.33344.33344,0,0,1,146.26647,19.32757Zm-5.70019,0a.3336.3336,0,0,1-.09766-.24744v-5.04a.33367.33367,0,0,1,.34473-.345h.62988a.33371.33371,0,0,1,.3457.345v5.04a.33389.33389,0,0,1-.3457.345h-.62988A.33343.33343,0,0,1,140.56628,19.32757Z"/><path class="e" d="M161.0487,14.52007v4.56006a.33385.33385,0,0,1-.34473.345h-.62988a.33389.33389,0,0,1-.3457-.345V14.595a2.28066,2.28066,0,0,0-2.58008-2.58h-1.08008q-.14942.945-.2168,1.5675a11.35312,11.35312,0,0,0-.05273,1.41748l.03027,4.08008a.33389.33389,0,0,1-.3457.345l-2.085-.03a.33385.33385,0,0,1-.34473-.345V18.6a.33385.33385,0,0,1,.34473-.345l1.15527.015v-3.21q-.01464-.945.03711-1.59753a9.28857,9.28857,0,0,1,.24805-1.44751h-.81055a.35124.35124,0,0,1-.24707-.09.30946.30946,0,0,1-.09765-.24v-.48a.32871.32871,0,0,1,.09765-.25513.35127.35127,0,0,1,.24707-.09h3.21094Q161.04772,10.86,161.0487,14.52007Z"/><path class="e" d="M168.23425,19.14007a.25679.25679,0,0,1-.09766.20251.34883.34883,0,0,1-.23242.08252H167.244q-.28564,0-.3457-.345l-.34473-1.75513a4.54836,4.54836,0,0,1-1.27441,1.33509,6.16953,6.16953,0,0,1-1.03516.57751,5.14846,5.14846,0,0,1-1.02051.3075l-.10449.015q-.25488,0-.25488-.24V18.615q0-.25488.31445-.375.04542-.01464.59278-.20251a4.35122,4.35122,0,0,0,.98242-.47241,4.07533,4.07533,0,0,0,.88476-.78748,3.46383,3.46383,0,0,0,.61524-.95264l-.26953-1.35a8.84778,8.84778,0,0,0-.38282-1.40247,1.80124,1.80124,0,0,0-.54785-.78747,1.41684,1.41684,0,0,0-.89941-.27h-.55567a.34962.34962,0,0,1-.24707-.09.30946.30946,0,0,1-.09765-.24v-.51a.33365.33365,0,0,1,.34472-.345h.55567a2.8944,2.8944,0,0,1,1.57422.38989,2.70826,2.70826,0,0,1,.98242,1.1626,8.96419,8.96419,0,0,1,.623,2.01746l.90039,4.68Z"/><path class="e" d="M178.30554,10.95757a.33446.33446,0,0,1,.09765.24756v4.16992a4.55431,4.55431,0,0,1-.51758,2.21253,3.51484,3.51484,0,0,1-1.45507,1.455,4.25375,4.25375,0,0,1-2.15235.47254h-1.10937a3.452,3.452,0,0,1-1.75586-.45,3.1754,3.1754,0,0,1-1.22168-1.26758,3.88164,3.88164,0,0,1-.44336-1.88245v-4.71a.33218.33218,0,0,1,.09765-.25513.35207.35207,0,0,1,.248-.09h.585a.33386.33386,0,0,1,.34473.34509l.04492,4.26a2.66643,2.66643,0,0,0,1.89746-.73511,2.46608,2.46608,0,0,0,.53223-1.6499v-1.875a.33389.33389,0,0,1,.3457-.34509h.585a.33386.33386,0,0,1,.34473.34509v1.93494a3.23684,3.23684,0,0,1-.915,2.37,3.89729,3.89729,0,0,1-2.68457,1.02,2.36732,2.36732,0,0,0,.89258,1.34253,2.59883,2.59883,0,0,0,1.56738.47241h.47949a2.8657,2.8657,0,0,0,2.22071-.825,3.12067,3.12067,0,0,0,.79492-2.235v-4.08a.33237.33237,0,0,1,.34472-.34509h.585A.33439.33439,0,0,1,178.30554,10.95757Z"/><path class="e" d="M186.30065,19.32757a.33359.33359,0,0,1-.09765-.24744V14.595a2.27421,2.27421,0,0,0-2.56543-2.58h-2.79a.34958.34958,0,0,1-.24707-.09.30947.30947,0,0,1-.09766-.24v-.48a.32872.32872,0,0,1,.09766-.25513.34962.34962,0,0,1,.24707-.09h2.86523q3.81006,0,3.81055,3.69006v4.53a.3339.3339,0,0,1-.3457.345h-.62989A.33344.33344,0,0,1,186.30065,19.32757Zm-5.70019,0a.3336.3336,0,0,1-.09766-.24744v-5.04a.33367.33367,0,0,1,.34473-.345h.62988a.33371.33371,0,0,1,.3457.345v5.04a.33389.33389,0,0,1-.3457.345h-.62988A.33343.33343,0,0,1,180.60046,19.32757Z"/><path class="e" d="M200.27331,19.12505a.30925.30925,0,0,1-.30078.3h-.67481a.38921.38921,0,0,1-.2998-.11255q-.10547-.11243-.12012-.12744l-3.41992-4.81506a2.3628,2.3628,0,0,0-.87793,1.10254,4.08309,4.08309,0,0,0-.23242,1.40246v2.20508a.33385.33385,0,0,1-.34473.345h-.55469a.3339.3339,0,0,1-.3457-.345v-2.265a5.09677,5.09677,0,0,1,.33789-1.93506,3.38476,3.38476,0,0,1,1.32715-1.485l-1.39453-1.95a.55524.55524,0,0,1-.10547-.285.309.309,0,0,1,.30078-.30005h.65918a.51435.51435,0,0,1,.4209.255l3.14941,4.395a2.5014,2.5014,0,0,0,.78809-.66,1.69436,1.69436,0,0,0,.30664-.6825,5.17986,5.17986,0,0,0,.06055-.87744v-2.085a.33384.33384,0,0,1,.34472-.34509h.585a.33238.33238,0,0,1,.34473.34509V13.35a3.97025,3.97025,0,0,1-.35254,1.74756,3.4418,3.4418,0,0,1-1.417,1.35754l1.71,2.385A.45594.45594,0,0,1,200.27331,19.12505Z"/><path class="e" d="M202.35046,19.32757a.3336.3336,0,0,1-.09766-.24744v-7.875a.32872.32872,0,0,1,.09766-.25513.34962.34962,0,0,1,.24707-.09h.66015a.33238.33238,0,0,1,.34473.34509v7.875a.33237.33237,0,0,1-.34473.345h-.66015A.33343.33343,0,0,1,202.35046,19.32757Z"/><path class="e" d="M212.33288,10.95a.347.347,0,0,1,.08984.25513v.48a.30946.30946,0,0,1-.09765.24.35124.35124,0,0,1-.24707.09h-.88575a1.65838,1.65838,0,0,0-.33691.705,4.21428,4.21428,0,0,0-.12793,1.08008V19.095a.30165.30165,0,0,1-.10449.24.37921.37921,0,0,1-.25488.09009h-.62989a.30965.30965,0,0,1-.33008-.33008V13.71a4.52126,4.52126,0,0,1,.1045-1.04992,1.55875,1.55875,0,0,1,.28515-.645h-4.13965a.352.352,0,0,1-.248-.09.30947.30947,0,0,1-.09766-.24v-.48a.33391.33391,0,0,1,.3457-.34509H212.078A.34671.34671,0,0,1,212.33288,10.95Z"/><path class="e" d="M214.27429,15.84759a.33671.33671,0,0,1-.09668-.24756v-4.3949a.33162.33162,0,0,1,.09668-.25513.352.352,0,0,1,.248-.09h.66016a.33386.33386,0,0,1,.34473.34509V15.6a.33386.33386,0,0,1-.34473.34509h-.66016A.33566.33566,0,0,1,214.27429,15.84759Z"/><path class="e" d="M217.8446,19.32757a.3336.3336,0,0,1-.09766-.24744v-7.875a.32872.32872,0,0,1,.09766-.25513.34962.34962,0,0,1,.24707-.09h.66015a.33238.33238,0,0,1,.34473.34509v7.875a.33237.33237,0,0,1-.34473.345h-.66015A.33343.33343,0,0,1,217.8446,19.32757Z"/><path class="e" d="M221.5194,19.32757a.33359.33359,0,0,1-.09765-.24744v-7.875a.32871.32871,0,0,1,.09765-.25513.34964.34964,0,0,1,.24707-.09h.66016a.33238.33238,0,0,1,.34473.34509v7.875a.33237.33237,0,0,1-.34473.345h-.66016A.33344.33344,0,0,1,221.5194,19.32757Z"/></svg>