<svg xmlns="http://www.w3.org/2000/svg" viewBox="0 0 275.63116 31.84337"><defs><style>.a{fill:#683c11;fill-opacity:0.25;}.b,.c,.g{fill:none;}.b{stroke:#706f6f;stroke-width:6.70013px;}.b,.c{stroke-linecap:round;stroke-linejoin:round;}.c{stroke:#878787;stroke-width:2.23338px;}.d{fill:#9d9d9c;}.e{fill:#3c3c3b;}.f{fill:#ededed;}.g{stroke:#575756;stroke-miterlimit:10;stroke-width:1.67503px;}.h{fill:#c6c6c6;}.i{fill:#decfe2;}.j{fill:#ffe3ff;}.k{fill:#aa96a9;}.l{fill:#fff;}</style></defs><path class="a" d="M5.61619,20.02052c1.291,2.52387,1.57978,5.67481.67021,6.07979s-1.67553-1.9149-3.15957-4.117C.93365,18.72889-.54034,16.699.36923,16.294S3.82905,16.52664,5.61619,20.02052Z"/><line class="b" x1="272.2811" y1="16.42063" x2="23.00684" y2="16.42063"/><line class="c" x1="272.2811" y1="15.92169" x2="23.00684" y2="15.92169"/><polygon class="d" points="20.996 20.178 20.996 12.663 17.853 10.297 17.083 16.421 17.853 22.544 20.996 20.178"/><rect class="e" x="17.16128" y="15.29437" width="9.43871" height="2.25242" rx="1.12621" transform="translate(38.30122 -5.46005) rotate(90)"/><polygon class="f" points="17.853 10.297 0 16.421 17.853 22.544 17.083 16.421 17.853 10.297"/><path class="g" d="M47.17008,19.7707v-.38406a14.751,14.751,0,0,1,0-5.8666v-.42935"/><path class="g" d="M43.05012,19.7707v-.38406a14.751,14.751,0,0,1,0-5.8666v-.42935"/><path class="g" d="M38.93017,19.7707v-.38406a14.75082,14.75082,0,0,1,0-5.8666v-.42935"/><path class="g" d="M34.81021,19.7707v-.38406a14.751,14.751,0,0,1,0-5.8666v-.42935"/><path class="g" d="M268.925,19.7707v-.38406a14.751,14.751,0,0,1,0-5.8666v-.42935"/><path class="g" d="M264.805,19.7707v-.38406a14.751,14.751,0,0,1,0-5.8666v-.42935"/><path class="g" d="M260.68505,19.7707v-.38406a14.751,14.751,0,0,1,0-5.8666v-.42935"/><path class="g" d="M256.56509,19.7707v-.38406a14.751,14.751,0,0,1,0-5.8666v-.42935"/><path class="g" d="M252.44514,19.7707v-.38406a14.75082,14.75082,0,0,1,0-5.8666v-.42935"/><path class="g" d="M248.32518,19.7707v-.38406a14.751,14.751,0,0,1,0-5.8666v-.42935"/><path class="g" d="M244.20522,19.7707v-.38406a14.751,14.751,0,0,1,0-5.8666v-.42935"/><path class="g" d="M240.08526,19.7707v-.38406a14.751,14.751,0,0,1,0-5.8666v-.42935"/><path class="g" d="M235.9653,19.7707v-.38406a14.751,14.751,0,0,1,0-5.8666v-.42935"/><path class="g" d="M231.84535,19.7707v-.38406a14.75082,14.75082,0,0,1,0-5.8666v-.42935"/><path class="g" d="M227.72539,19.7707v-.38406a14.751,14.751,0,0,1,0-5.8666v-.42935"/><path class="g" d="M223.60543,19.7707v-.38406a14.751,14.751,0,0,1,0-5.8666v-.42935"/><polygon class="h" points="17.083 16.421 0 16.421 17.853 22.544 17.083 16.421"/><polygon class="i" points="236.815 18.886 246.279 26.936 274.046 26.936 264.583 18.886 236.815 18.886"/><polygon class="j" points="264.583 18.886 268.992 25.277 246.755 25.277 236.815 18.886 246.279 26.936 274.046 26.936 264.583 18.886"/><polygon class="k" points="264.583 18.886 238.355 20.195 236.815 18.886 264.583 18.886"/><polygon class="i" points="236.815 13.84 246.279 5.79 274.046 5.79 264.583 13.84 236.815 13.84"/><polygon class="k" points="268.366 10.622 236.815 13.84 264.583 13.84 268.366 10.622"/><polygon class="j" points="274.046 5.79 247.85 6.985 236.815 13.84 246.279 5.79 274.046 5.79"/><rect class="l" x="29.0606" width="202.69747" height="31.84337" rx="5.84749"/><path class="e" d="M164.59557,21.195a.32819.32819,0,0,1-.09765-.25489V11.205a.32819.32819,0,0,1,.09765-.25489.34921.34921,0,0,1,.24708-.09008h.62988a.3339.3339,0,0,1,.3457.345v9.7351a.3339.3339,0,0,1-.3457.345h-.62988A.34917.34917,0,0,1,164.59557,21.195Z"/><path class="e" d="M168.15026,15.84754a.33674.33674,0,0,1-.09668-.24755V11.205a.33109.33109,0,0,1,.09668-.25489.3516.3516,0,0,1,.24805-.09008h.66016a.33383.33383,0,0,1,.34472.345V15.6a.33367.33367,0,0,1-.34472.345h-.66016A.33555.33555,0,0,1,168.15026,15.84754Z"/><path class="e" d="M171.61511,15.84754a.3367.3367,0,0,1-.09668-.24755V11.205a.33106.33106,0,0,1,.09668-.25489.35159.35159,0,0,1,.248-.09008h.66016a.33385.33385,0,0,1,.34473.345V15.6a.33368.33368,0,0,1-.34473.345h-.66016A.33554.33554,0,0,1,171.61511,15.84754Z"/><path class="e" d="M179.27331,19.125a.27254.27254,0,0,1-.09766.21753.34888.34888,0,0,1-.23242.08252h-4.00586a.33384.33384,0,0,1-.34472-.34509V18.6a.33383.33383,0,0,1,.34472-.345h2.95508l-.23926-3.81006c-.05078-.64991-.10254-1.1272-.1582-1.43238a1.36232,1.36232,0,0,0-.36719-.74255,1.20861,1.20861,0,0,0-.88476-.285h-.61524a.34958.34958,0,0,1-.24707-.09.3093.3093,0,0,1-.09766-.24v-.48a.33386.33386,0,0,1,.34473-.34509h.61524a2.75114,2.75114,0,0,1,1.65722.42749,2.16559,2.16559,0,0,1,.79492,1.17761,9.41387,9.41387,0,0,1,.293,1.965l.28516,4.67993Z"/><path class="e" d="M187.47741,10.95008a.34245.34245,0,0,1,.08984.25489V15.3451a3.64929,3.64929,0,0,1-.86914,2.37744,4.64664,4.64664,0,0,1-2.32519,1.49244l-3.27051,1.035a.3878.3878,0,0,1-.12012.015.31984.31984,0,0,1-.21-.075.24342.24342,0,0,1-.08984-.19506V19.53q0-.34479.24023-.42l1.96485-.65992-1.9502-6.99a1.88482,1.88482,0,0,1-.07422-.3.30747.30747,0,0,1,.29981-.3h.68945a.36743.36743,0,0,1,.22559.0675.33269.33269,0,0,1,.12011.15759l1.91993,6.96A3.053,3.053,0,0,0,185.77526,16.86a3.59925,3.59925,0,0,0,.47266-1.91993V11.205a.33384.33384,0,0,1,.34473-.345h.62988A.34321.34321,0,0,1,187.47741,10.95008Z"/><path class="e" d="M197.75964,19.32753A.33749.33749,0,0,1,197.662,19.08V14.5951a2.28,2.28,0,0,0-2.5791-2.58007h-1.93555a.3496.3496,0,0,1-.24707-.09.30965.30965,0,0,1-.09765-.24V11.205a.33383.33383,0,0,1,.34472-.345h2.02539q3.81006,0,3.80957,3.66V19.08a.33384.33384,0,0,1-.34472.34509h-.62989A.33566.33566,0,0,1,197.75964,19.32753Z"/><path class="e" d="M201.33,19.32753a.33372.33372,0,0,1-.09766-.24756V11.205a.32816.32816,0,0,1,.09766-.25489A.34917.34917,0,0,1,201.577,10.86h.66016a.33237.33237,0,0,1,.34472.345V19.08a.33237.33237,0,0,1-.34472.34509H201.577A.33343.33343,0,0,1,201.33,19.32753Z"/><path class="e" d="M209.5194,19.32753a.33752.33752,0,0,1-.09765-.24756V14.5951a2.28,2.28,0,0,0-2.5791-2.58007H204.9071a.34958.34958,0,0,1-.24707-.09.30966.30966,0,0,1-.09766-.24V11.205a.33385.33385,0,0,1,.34473-.345h2.02539q3.81006,0,3.80957,3.66V19.08a.33386.33386,0,0,1-.34473.34509h-.62988A.33567.33567,0,0,1,209.5194,19.32753Z"/><path class="e" d="M212.98327,15.84754a.33674.33674,0,0,1-.09668-.24755V11.205a.33109.33109,0,0,1,.09668-.25489.3516.3516,0,0,1,.24805-.09008h.66015a.33385.33385,0,0,1,.34473.345V15.6a.33368.33368,0,0,1-.34473.345h-.66015A.33555.33555,0,0,1,212.98327,15.84754Z"/><path class="e" d="M222.75573,10.95008a.34245.34245,0,0,1,.08984.25489V15.3451a3.64929,3.64929,0,0,1-.86914,2.37744,4.64664,4.64664,0,0,1-2.32519,1.49244l-3.27051,1.035a.38776.38776,0,0,1-.12012.015.31984.31984,0,0,1-.21-.075.24342.24342,0,0,1-.08984-.19506V19.53q0-.34479.24023-.42l1.96485-.65992-1.9502-6.99a1.88482,1.88482,0,0,1-.07422-.3.30747.30747,0,0,1,.29981-.3h.68945a.36743.36743,0,0,1,.22559.0675.33269.33269,0,0,1,.12011.15759l1.91993,6.96A3.053,3.053,0,0,0,221.05358,16.86a3.59925,3.59925,0,0,0,.47266-1.91993V11.205a.33385.33385,0,0,1,.34473-.345h.62988A.34321.34321,0,0,1,222.75573,10.95008Z"/></svg>