<svg xmlns="http://www.w3.org/2000/svg" viewBox="0 0 275.63116 31.84337"><defs><style>.a{fill:#683c11;fill-opacity:0.25;}.b,.c,.g{fill:none;}.b{stroke:#706f6f;stroke-width:6.70013px;}.b,.c{stroke-linecap:round;stroke-linejoin:round;}.c{stroke:#878787;stroke-width:2.23338px;}.d{fill:#9d9d9c;}.e{fill:#3c3c3b;}.f{fill:#ededed;}.g{stroke:#575756;stroke-miterlimit:10;stroke-width:1.67503px;}.h{fill:#c6c6c6;}.i{fill:#decfe2;}.j{fill:#ffe3ff;}.k{fill:#aa96a9;}.l{fill:#fff;}</style></defs><path class="a" d="M5.61619,20.02052c1.291,2.52387,1.57978,5.67481.67021,6.07979s-1.67553-1.9149-3.15957-4.117C.93365,18.72889-.54034,16.699.36923,16.294S3.82905,16.52664,5.61619,20.02052Z"/><line class="b" x1="272.2811" y1="16.42063" x2="23.00684" y2="16.42063"/><line class="c" x1="272.2811" y1="15.92169" x2="23.00684" y2="15.92169"/><polygon class="d" points="20.996 20.178 20.996 12.663 17.853 10.297 17.083 16.421 17.853 22.544 20.996 20.178"/><rect class="e" x="17.16128" y="15.29437" width="9.43871" height="2.25242" rx="1.12621" transform="translate(38.30122 -5.46005) rotate(90)"/><polygon class="f" points="17.853 10.297 0 16.421 17.853 22.544 17.083 16.421 17.853 10.297"/><path class="g" d="M47.17008,19.7707v-.38406a14.751,14.751,0,0,1,0-5.8666v-.42935"/><path class="g" d="M43.05012,19.7707v-.38406a14.751,14.751,0,0,1,0-5.8666v-.42935"/><path class="g" d="M38.93017,19.7707v-.38406a14.75082,14.75082,0,0,1,0-5.8666v-.42935"/><path class="g" d="M34.81021,19.7707v-.38406a14.751,14.751,0,0,1,0-5.8666v-.42935"/><path class="g" d="M268.925,19.7707v-.38406a14.751,14.751,0,0,1,0-5.8666v-.42935"/><path class="g" d="M264.805,19.7707v-.38406a14.751,14.751,0,0,1,0-5.8666v-.42935"/><path class="g" d="M260.68505,19.7707v-.38406a14.751,14.751,0,0,1,0-5.8666v-.42935"/><path class="g" d="M256.56509,19.7707v-.38406a14.751,14.751,0,0,1,0-5.8666v-.42935"/><path class="g" d="M252.44514,19.7707v-.38406a14.75082,14.75082,0,0,1,0-5.8666v-.42935"/><path class="g" d="M248.32518,19.7707v-.38406a14.751,14.751,0,0,1,0-5.8666v-.42935"/><path class="g" d="M244.20522,19.7707v-.38406a14.751,14.751,0,0,1,0-5.8666v-.42935"/><path class="g" d="M240.08526,19.7707v-.38406a14.751,14.751,0,0,1,0-5.8666v-.42935"/><path class="g" d="M235.9653,19.7707v-.38406a14.751,14.751,0,0,1,0-5.8666v-.42935"/><path class="g" d="M231.84535,19.7707v-.38406a14.75082,14.75082,0,0,1,0-5.8666v-.42935"/><path class="g" d="M227.72539,19.7707v-.38406a14.751,14.751,0,0,1,0-5.8666v-.42935"/><path class="g" d="M223.60543,19.7707v-.38406a14.751,14.751,0,0,1,0-5.8666v-.42935"/><polygon class="h" points="17.083 16.421 0 16.421 17.853 22.544 17.083 16.421"/><polygon class="i" points="236.815 18.886 246.279 26.936 274.046 26.936 264.583 18.886 236.815 18.886"/><polygon class="j" points="264.583 18.886 268.992 25.277 246.755 25.277 236.815 18.886 246.279 26.936 274.046 26.936 264.583 18.886"/><polygon class="k" points="264.583 18.886 238.355 20.195 236.815 18.886 264.583 18.886"/><polygon class="i" points="236.815 13.84 246.279 5.79 274.046 5.79 264.583 13.84 236.815 13.84"/><polygon class="k" points="268.366 10.622 236.815 13.84 264.583 13.84 268.366 10.622"/><polygon class="j" points="274.046 5.79 247.85 6.985 236.815 13.84 246.279 5.79 274.046 5.79"/><rect class="l" x="29.0606" width="202.69747" height="31.84337" rx="5.84749"/><path class="e" d="M44.26745,19.32758a.33726.33726,0,0,1-.09766-.24749v-4.485a2.28,2.28,0,0,0-2.5791-2.58H39.65515a.34913.34913,0,0,1-.24708-.09.30934.30934,0,0,1-.09765-.24v-.48a.33374.33374,0,0,1,.34473-.345h2.02539q3.81,0,3.80957,3.66v4.56a.33377.33377,0,0,1-.34473.345H44.5155A.33583.33583,0,0,1,44.26745,19.32758Z"/><path class="e" d="M47.83776,19.32758a.33344.33344,0,0,1-.09765-.24749v-7.875a.32843.32843,0,0,1,.09765-.255.34933.34933,0,0,1,.24707-.09H48.745a.33228.33228,0,0,1,.34473.345v7.875a.33229.33229,0,0,1-.34473.345h-.66016A.3336.3336,0,0,1,47.83776,19.32758Z"/><path class="e" d="M57.71472,10.95008a.34278.34278,0,0,1,.08984.255v4.14a3.649,3.649,0,0,1-.86914,2.37744,4.64689,4.64689,0,0,1-2.3252,1.49256l-3.2705,1.035a.39178.39178,0,0,1-.12012.015.31922.31922,0,0,1-.21-.075.24328.24328,0,0,1-.08985-.19495v-.465q0-.34488.24024-.42l1.96484-.66-1.95019-6.99a1.88358,1.88358,0,0,1-.07422-.3.30723.30723,0,0,1,.2998-.29992h.68946a.3674.3674,0,0,1,.22558.0675.33217.33217,0,0,1,.12012.15747l1.91992,6.96a3.05233,3.05233,0,0,0,1.65723-1.18493,3.59981,3.59981,0,0,0,.47265-1.92v-3.735a.33376.33376,0,0,1,.34473-.345h.62988A.34338.34338,0,0,1,57.71472,10.95008Z"/><path class="e" d="M60.04675,15.84754a.33633.33633,0,0,1-.09668-.24743v-4.395a.33133.33133,0,0,1,.09668-.255.35174.35174,0,0,1,.248-.09H60.955a.33376.33376,0,0,1,.34473.345v4.395a.33387.33387,0,0,1-.34473.345h-.66016A.33563.33563,0,0,1,60.04675,15.84754Z"/><path class="e" d="M71.92663,10.95759a.3342.3342,0,0,1,.09766.2475v4.17a4.55464,4.55464,0,0,1-.51758,2.21246,3.51538,3.51538,0,0,1-1.45508,1.455,4.25382,4.25382,0,0,1-2.15234.47247H66.78991a3.45077,3.45077,0,0,1-1.75586-.45,3.17467,3.17467,0,0,1-1.22168-1.26745,3.88217,3.88217,0,0,1-.44336-1.88257v-4.71a.3319.3319,0,0,1,.09766-.255.35174.35174,0,0,1,.248-.09h.585a.33374.33374,0,0,1,.34472.345l.04492,4.26a2.66625,2.66625,0,0,0,1.89747-.735,2.46647,2.46647,0,0,0,.53222-1.65v-1.875a.33381.33381,0,0,1,.34571-.345h.585a.33374.33374,0,0,1,.34472.345v1.935a3.23683,3.23683,0,0,1-.915,2.37,3.89674,3.89674,0,0,1-2.68457,1.02,2.36681,2.36681,0,0,0,.89258,1.34247,2.5981,2.5981,0,0,0,1.56738.47253h.4795a2.86618,2.86618,0,0,0,2.2207-.825,3.1208,3.1208,0,0,0,.79492-2.235V11.20509a.33228.33228,0,0,1,.34473-.345h.585A.33454.33454,0,0,1,71.92663,10.95759Z"/><path class="e" d="M79.92175,19.32758a.33345.33345,0,0,1-.09766-.24749v-4.485a2.27421,2.27421,0,0,0-2.56543-2.58h-2.79a.34908.34908,0,0,1-.24707-.09.3093.3093,0,0,1-.09765-.24v-.48a.32843.32843,0,0,1,.09765-.255.34931.34931,0,0,1,.24707-.09h2.86524q3.81006,0,3.81054,3.68994v4.53a.33381.33381,0,0,1-.3457.345h-.62988A.33358.33358,0,0,1,79.92175,19.32758Zm-5.7002,0a.33344.33344,0,0,1-.09765-.24749v-5.04a.33383.33383,0,0,1,.34472-.345h.62988a.3339.3339,0,0,1,.34571.345v5.04a.33383.33383,0,0,1-.34571.345h-.62988A.33358.33358,0,0,1,74.22155,19.32758Z"/><path class="e" d="M89.06432,12.01508H86.85925a.31087.31087,0,0,1-.33008-.33v-.48a.34924.34924,0,0,1,.09082-.2475.30963.30963,0,0,1,.23926-.09747h2.28027a4.0411,4.0411,0,0,1,2.87988.9,3.64834,3.64834,0,0,1,.94532,2.76v6.42a.33367.33367,0,0,1-.34473.345h-.63086a.34935.34935,0,0,1-.24707-.09.32843.32843,0,0,1-.09766-.255v-6.345A2.28066,2.28066,0,0,0,89.06432,12.01508Z"/><path class="e" d="M99.55651,11.25013a2.34728,2.34728,0,0,1,1.16211,1.245,5.97267,5.97267,0,0,1,.36035,2.28,4.37532,4.37532,0,0,1-.94531,2.9925,5.56588,5.56588,0,0,1-2.46,1.58252l-.62988.21a.26128.26128,0,0,1-.10547.015.274.274,0,0,1-.1875-.075.27058.27058,0,0,1-.082-.21008v-.66a.43988.43988,0,0,1,.33008-.405l.585-.225a3.454,3.454,0,0,0,1.58984-1.125,3.54667,3.54667,0,0,0,.55469-2.16,4.24657,4.24657,0,0,0-.23926-1.58252,1.53284,1.53284,0,0,0-.78809-.83252,3.63881,3.63881,0,0,0-1.50683-.255h-.51074l-1.37989-.015a.34911.34911,0,0,1-.24707-.09.30938.30938,0,0,1-.09765-.24v-2.58a.33376.33376,0,0,1,.34472-.345h.60059a.3094.3094,0,0,1,.23926.09748.34953.34953,0,0,1,.09082.24755v1.74h1.15429A5.0195,5.0195,0,0,1,99.55651,11.25013Z"/><path class="e" d="M108.85729,19.32758a.33344.33344,0,0,1-.09765-.24749v-4.485a2.27421,2.27421,0,0,0-2.56543-2.58h-2.79a.34908.34908,0,0,1-.24707-.09.30931.30931,0,0,1-.09766-.24v-.48a.32843.32843,0,0,1,.09766-.255.34931.34931,0,0,1,.24707-.09h2.86523q3.81006,0,3.81055,3.68994v4.53a.33383.33383,0,0,1-.3457.345h-.62989A.3336.3336,0,0,1,108.85729,19.32758Zm-5.70019,0a.33345.33345,0,0,1-.09766-.24749v-5.04a.33385.33385,0,0,1,.34473-.345h.62988a.33389.33389,0,0,1,.3457.345v5.04a.33381.33381,0,0,1-.3457.345h-.62988A.33358.33358,0,0,1,103.1571,19.32758Z"/><path class="e" d="M117.84167,11.30262a3.03267,3.03267,0,0,1,1.13965,1.26746,4.30756,4.30756,0,0,1,.41308,1.95v4.56a.33381.33381,0,0,1-.3457.345h-3.87012a.30879.30879,0,0,1-.23926-.09748.34781.34781,0,0,1-.08984-.24749v-.48a.34886.34886,0,0,1,.08984-.24756.30965.30965,0,0,1,.23926-.09748h2.89551V14.61012a2.85123,2.85123,0,0,0-.57715-1.85254,1.80608,1.80608,0,0,0-1.46289-.71253h-1.58984l-1.15528,7.02a.39327.39327,0,0,1-.12695.255.357.357,0,0,1-.24805.105h-.62988a.27844.27844,0,0,1-.23242-.105.33954.33954,0,0,1-.06738-.255l1.20019-7.02h-.76562a.33376.33376,0,0,1-.34473-.345v-.495a.33376.33376,0,0,1,.34473-.345h3.76562A3.12837,3.12837,0,0,1,117.84167,11.30262Z"/><path class="e" d="M125.326,15.84754a.33637.33637,0,0,1-.09668-.24743v-4.395a.33137.33137,0,0,1,.09668-.255.35174.35174,0,0,1,.248-.09h.66016a.33374.33374,0,0,1,.34472.345v4.395a.33385.33385,0,0,1-.34472.345h-.66016A.33564.33564,0,0,1,125.326,15.84754Z"/><path class="e" d="M128.52917,19.32758a.34843.34843,0,0,1-.09082-.24749v-.48a.34949.34949,0,0,1,.09082-.24756.30964.30964,0,0,1,.23926-.09748h4.335v-3.66a2.27358,2.27358,0,0,0-2.58008-2.565h-1.60449a.31092.31092,0,0,1-.24024-.09748.35236.35236,0,0,1-.08984-.24755v-.48a.35293.35293,0,0,1,.08984-.2475.31178.31178,0,0,1,.24024-.09747h1.67968q3.84082,0,3.83985,3.67492v3.72h.57031a.31323.31323,0,0,1,.24024.09748.35318.35318,0,0,1,.08984.24756v.48a.35211.35211,0,0,1-.08984.24749.31235.31235,0,0,1-.24024.09748h-6.24023A.30878.30878,0,0,1,128.52917,19.32758Z"/><path class="e" d="M141.87878,19.14008a.257.257,0,0,1-.09766.20252.34883.34883,0,0,1-.23242.08246h-.66016q-.28564,0-.3457-.345l-.34473-1.755a4.54768,4.54768,0,0,1-1.27441,1.335,6.16964,6.16964,0,0,1-1.03516.57752,5.14855,5.14855,0,0,1-1.0205.30749l-.1045.015q-.25488,0-.25488-.24v-.705q0-.25488.31445-.375.04542-.01484.59278-.20251a4.354,4.354,0,0,0,.98242-.47254,4.07345,4.07345,0,0,0,.88476-.78747,3.46355,3.46355,0,0,0,.61524-.95252l-.26953-1.35a8.84786,8.84786,0,0,0-.38281-1.40253,1.80129,1.80129,0,0,0-.54786-.78754,1.4176,1.4176,0,0,0-.89941-.27H137.243a.34908.34908,0,0,1-.24707-.09.30931.30931,0,0,1-.09766-.24v-.51a.33385.33385,0,0,1,.34473-.345h.55566a2.89379,2.89379,0,0,1,1.57422.39,2.70778,2.70778,0,0,1,.98242,1.16248,8.96518,8.96518,0,0,1,.623,2.01751l.90039,4.68Z"/><path class="e" d="M147.33093,11.25013a2.34732,2.34732,0,0,1,1.16211,1.245,5.97286,5.97286,0,0,1,.36035,2.28,4.37527,4.37527,0,0,1-.94532,2.9925,5.56588,5.56588,0,0,1-2.46,1.58252l-.62988.21a.26128.26128,0,0,1-.10547.015.27405.27405,0,0,1-.1875-.075.27058.27058,0,0,1-.082-.21008v-.66a.43988.43988,0,0,1,.33008-.405l.585-.225a3.45393,3.45393,0,0,0,1.58984-1.125,3.54667,3.54667,0,0,0,.55469-2.16,4.24657,4.24657,0,0,0-.23926-1.58252,1.53283,1.53283,0,0,0-.78808-.83252,3.63889,3.63889,0,0,0-1.50684-.255h-.51074l-1.37988-.015a.34909.34909,0,0,1-.24707-.09.30938.30938,0,0,1-.09766-.24v-2.58a.33378.33378,0,0,1,.34473-.345h.60058a.3094.3094,0,0,1,.23926.09748.34949.34949,0,0,1,.09082.24755v1.74h1.1543A5.01956,5.01956,0,0,1,147.33093,11.25013Z"/><path class="e" d="M162.14343,14.52009v4.56a.33377.33377,0,0,1-.34473.345h-.62988a.33383.33383,0,0,1-.34571-.345v-4.485a2.28065,2.28065,0,0,0-2.58007-2.58H157.163q-.14941.945-.2168,1.56751a11.354,11.354,0,0,0-.05273,1.41754l.03027,4.08a.33383.33383,0,0,1-.3457.345l-2.085-.03a.33376.33376,0,0,1-.34473-.345v-.44995a.33378.33378,0,0,1,.34473-.345l1.15527.015v-3.21q-.01466-.945.03711-1.59748a9.28522,9.28522,0,0,1,.24805-1.44751h-.81055a.35073.35073,0,0,1-.24707-.09.30931.30931,0,0,1-.09766-.24v-.48a.32843.32843,0,0,1,.09766-.255.351.351,0,0,1,.24707-.09h3.21094Q162.14245,10.86012,162.14343,14.52009Z"/><path class="e" d="M164.49108,19.32758a.33344.33344,0,0,1-.09765-.24749v-7.875a.32843.32843,0,0,1,.09765-.255.34933.34933,0,0,1,.24707-.09h.66016a.33228.33228,0,0,1,.34473.345v7.875a.33229.33229,0,0,1-.34473.345h-.66016A.3336.3336,0,0,1,164.49108,19.32758Z"/><path class="e" d="M174.87878,19.12513a.309.309,0,0,1-.30078.29993h-.67481a.38915.38915,0,0,1-.2998-.11243c-.07032-.07507-.11035-.11743-.12012-.12756l-3.41992-4.81495a2.36286,2.36286,0,0,0-.87793,1.10242,4.08384,4.08384,0,0,0-.23242,1.40259v2.205a.33377.33377,0,0,1-.34473.345h-.55469a.33383.33383,0,0,1-.3457-.345v-2.265a5.0971,5.0971,0,0,1,.33789-1.935,3.3841,3.3841,0,0,1,1.32715-1.485l-1.39453-1.95a.555.555,0,0,1-.10547-.285.309.309,0,0,1,.30078-.29992h.65918a.51435.51435,0,0,1,.4209.255l3.14941,4.395a2.50368,2.50368,0,0,0,.78809-.66,1.69585,1.69585,0,0,0,.30664-.6825,5.18158,5.18158,0,0,0,.06055-.87756v-2.085a.33374.33374,0,0,1,.34472-.345h.585a.33228.33228,0,0,1,.34473.345v2.145a3.96926,3.96926,0,0,1-.35254,1.74743,3.44108,3.44108,0,0,1-1.417,1.35755l1.71,2.385A.45624.45624,0,0,1,174.87878,19.12513Z"/><path class="e" d="M183.26354,10.95008a.3467.3467,0,0,1,.08985.255v.48a.30931.30931,0,0,1-.09766.24.35073.35073,0,0,1-.24707.09h-.88574a1.65763,1.65763,0,0,0-.33692.705,4.21365,4.21365,0,0,0-.12793,1.08v5.295a.30171.30171,0,0,1-.10449.24.37942.37942,0,0,1-.25488.09h-.62988a.30946.30946,0,0,1-.33008-.33v-5.385a4.523,4.523,0,0,1,.10449-1.05,1.55875,1.55875,0,0,1,.28516-.645h-4.13965a.35152.35152,0,0,1-.24805-.09.3093.3093,0,0,1-.09765-.24v-.48a.3338.3338,0,0,1,.3457-.345h6.41992A.34639.34639,0,0,1,183.26354,10.95008Z"/><path class="e" d="M185.31042,19.32758a.33345.33345,0,0,1-.09766-.24749v-7.875a.32843.32843,0,0,1,.09766-.255.34931.34931,0,0,1,.24707-.09h.66016a.33228.33228,0,0,1,.34472.345v7.875a.33229.33229,0,0,1-.34472.345h-.66016A.33358.33358,0,0,1,185.31042,19.32758Z"/><path class="e" d="M200.19714,14.52009v4.56a.33377.33377,0,0,1-.34473.345h-.62988a.33383.33383,0,0,1-.34571-.345v-4.485a2.28065,2.28065,0,0,0-2.58007-2.58h-1.08008q-.14941.945-.2168,1.56751a11.354,11.354,0,0,0-.05273,1.41754l.03027,4.08a.33383.33383,0,0,1-.3457.345l-2.085-.03a.33376.33376,0,0,1-.34473-.345v-.44995a.33378.33378,0,0,1,.34473-.345l1.15527.015v-3.21q-.01466-.945.03711-1.59748a9.2864,9.2864,0,0,1,.24805-1.44751h-.81055a.35073.35073,0,0,1-.24707-.09.30931.30931,0,0,1-.09766-.24v-.48a.32843.32843,0,0,1,.09766-.255.351.351,0,0,1,.24707-.09h3.21094Q200.19616,10.86012,200.19714,14.52009Z"/><path class="e" d="M206.72936,19.32758a.33725.33725,0,0,1-.09765-.24749v-4.485a2.28,2.28,0,0,0-2.5791-2.58h-1.93555a.34908.34908,0,0,1-.24707-.09.30931.30931,0,0,1-.09766-.24v-.48a.33376.33376,0,0,1,.34473-.345h2.02539q3.81006,0,3.80957,3.66v4.56a.33377.33377,0,0,1-.34473.345h-.62988A.33583.33583,0,0,1,206.72936,19.32758Z"/><path class="e" d="M210.19421,15.84754a.33633.33633,0,0,1-.09668-.24743v-4.395a.33133.33133,0,0,1,.09668-.255.35174.35174,0,0,1,.248-.09h.66016a.33376.33376,0,0,1,.34473.345v4.395a.33387.33387,0,0,1-.34473.345h-.66016A.33563.33563,0,0,1,210.19421,15.84754Z"/><path class="e" d="M219.09655,14.6551a3.09731,3.09731,0,0,1-1.40918,1.26l1.55957,2.25a.71951.71951,0,0,1,.17969.45007v.465a.33377.33377,0,0,1-.34473.345h-5.40039a.33376.33376,0,0,1-.34472-.345v-.495a.30974.30974,0,0,1,.09765-.24.34911.34911,0,0,1,.24707-.09h4.08008l-4.69434-6.81a.65618.65618,0,0,1-.12011-.285.2765.2765,0,0,1,.09765-.21.33016.33016,0,0,1,.23243-.09h.66015a.48261.48261,0,0,1,.4043.24l2.68555,3.87a2.43955,2.43955,0,0,0,1.27441-2.46v-1.305a.32843.32843,0,0,1,.09766-.255.35174.35174,0,0,1,.248-.09h.585a.33376.33376,0,0,1,.34473.345v1.47A3.86837,3.86837,0,0,1,219.09655,14.6551Z"/><path class="e" d="M221.6239,15.84754a.33633.33633,0,0,1-.09668-.24743v-4.395a.33133.33133,0,0,1,.09668-.255.35172.35172,0,0,1,.248-.09h.66016a.33374.33374,0,0,1,.34472.345v4.395a.33385.33385,0,0,1-.34472.345h-.66016A.33562.33562,0,0,1,221.6239,15.84754Z"/></svg>