<svg xmlns="http://www.w3.org/2000/svg" viewBox="0 0 275.63116 31.84337"><defs><style>.a{fill:#683c11;fill-opacity:0.25;}.b,.c,.g{fill:none;}.b{stroke:#706f6f;stroke-width:6.70013px;}.b,.c{stroke-linecap:round;stroke-linejoin:round;}.c{stroke:#878787;stroke-width:2.23338px;}.d{fill:#9d9d9c;}.e{fill:#3c3c3b;}.f{fill:#ededed;}.g{stroke:#575756;stroke-miterlimit:10;stroke-width:1.67503px;}.h{fill:#c6c6c6;}.i{fill:#decfe2;}.j{fill:#ffe3ff;}.k{fill:#aa96a9;}.l{fill:#fff;}</style></defs><path class="a" d="M5.61619,20.02052c1.291,2.52387,1.57978,5.67481.67021,6.07979s-1.67553-1.9149-3.15957-4.117C.93365,18.72889-.54034,16.699.36923,16.294S3.82905,16.52664,5.61619,20.02052Z"/><line class="b" x1="272.2811" y1="16.42063" x2="23.00684" y2="16.42063"/><line class="c" x1="272.2811" y1="15.92169" x2="23.00684" y2="15.92169"/><polygon class="d" points="20.996 20.178 20.996 12.663 17.853 10.297 17.083 16.421 17.853 22.544 20.996 20.178"/><rect class="e" x="17.16128" y="15.29437" width="9.43871" height="2.25242" rx="1.12621" transform="translate(38.30122 -5.46005) rotate(90)"/><polygon class="f" points="17.853 10.297 0 16.421 17.853 22.544 17.083 16.421 17.853 10.297"/><path class="g" d="M47.17008,19.7707v-.38406a14.751,14.751,0,0,1,0-5.8666v-.42935"/><path class="g" d="M43.05012,19.7707v-.38406a14.751,14.751,0,0,1,0-5.8666v-.42935"/><path class="g" d="M38.93017,19.7707v-.38406a14.75082,14.75082,0,0,1,0-5.8666v-.42935"/><path class="g" d="M34.81021,19.7707v-.38406a14.751,14.751,0,0,1,0-5.8666v-.42935"/><path class="g" d="M268.925,19.7707v-.38406a14.751,14.751,0,0,1,0-5.8666v-.42935"/><path class="g" d="M264.805,19.7707v-.38406a14.751,14.751,0,0,1,0-5.8666v-.42935"/><path class="g" d="M260.68505,19.7707v-.38406a14.751,14.751,0,0,1,0-5.8666v-.42935"/><path class="g" d="M256.56509,19.7707v-.38406a14.751,14.751,0,0,1,0-5.8666v-.42935"/><path class="g" d="M252.44514,19.7707v-.38406a14.75082,14.75082,0,0,1,0-5.8666v-.42935"/><path class="g" d="M248.32518,19.7707v-.38406a14.751,14.751,0,0,1,0-5.8666v-.42935"/><path class="g" d="M244.20522,19.7707v-.38406a14.751,14.751,0,0,1,0-5.8666v-.42935"/><path class="g" d="M240.08526,19.7707v-.38406a14.751,14.751,0,0,1,0-5.8666v-.42935"/><path class="g" d="M235.9653,19.7707v-.38406a14.751,14.751,0,0,1,0-5.8666v-.42935"/><path class="g" d="M231.84535,19.7707v-.38406a14.75082,14.75082,0,0,1,0-5.8666v-.42935"/><path class="g" d="M227.72539,19.7707v-.38406a14.751,14.751,0,0,1,0-5.8666v-.42935"/><path class="g" d="M223.60543,19.7707v-.38406a14.751,14.751,0,0,1,0-5.8666v-.42935"/><polygon class="h" points="17.083 16.421 0 16.421 17.853 22.544 17.083 16.421"/><polygon class="i" points="236.815 18.886 246.279 26.936 274.046 26.936 264.583 18.886 236.815 18.886"/><polygon class="j" points="264.583 18.886 268.992 25.277 246.755 25.277 236.815 18.886 246.279 26.936 274.046 26.936 264.583 18.886"/><polygon class="k" points="264.583 18.886 238.355 20.195 236.815 18.886 264.583 18.886"/><polygon class="i" points="236.815 13.84 246.279 5.79 274.046 5.79 264.583 13.84 236.815 13.84"/><polygon class="k" points="268.366 10.622 236.815 13.84 264.583 13.84 268.366 10.622"/><polygon class="j" points="274.046 5.79 247.85 6.985 236.815 13.84 246.279 5.79 274.046 5.79"/><rect class="l" x="29.0606" width="202.69747" height="31.84337" rx="5.84749"/><path class="e" d="M101.92663,19.32765a.3375.3375,0,0,1-.09766-.24756v-4.485a2.27992,2.27992,0,0,0-2.5791-2.58H97.31432a.34917.34917,0,0,1-.24707-.09009.30929.30929,0,0,1-.09765-.24v-.48a.33365.33365,0,0,1,.34472-.345h2.0254q3.81,0,3.80957,3.65991v4.56006a.33367.33367,0,0,1-.34473.345h-.62988A.336.336,0,0,1,101.92663,19.32765Z"/><path class="e" d="M105.49694,19.32765a.33368.33368,0,0,1-.09765-.24756v-7.875a.32844.32844,0,0,1,.09765-.255.34964.34964,0,0,1,.24707-.09h.66016a.33219.33219,0,0,1,.34473.345v7.875a.33219.33219,0,0,1-.34473.345H105.744A.33381.33381,0,0,1,105.49694,19.32765Z"/><path class="e" d="M115.3739,10.95008a.3428.3428,0,0,1,.08984.255v4.14a3.64916,3.64916,0,0,1-.86914,2.37745,4.647,4.647,0,0,1-2.3252,1.49255l-3.2705,1.035a.39148.39148,0,0,1-.12012.015.31933.31933,0,0,1-.21-.07507.24339.24339,0,0,1-.08985-.19495V19.53q0-.34479.24024-.41992l1.96484-.66-1.95019-6.99a1.88359,1.88359,0,0,1-.07422-.3.30723.30723,0,0,1,.2998-.29993h.68946a.3674.3674,0,0,1,.22558.0675.33254.33254,0,0,1,.12012.15747l1.91992,6.96a3.05235,3.05235,0,0,0,1.65723-1.18494,3.59977,3.59977,0,0,0,.47265-1.92v-3.735a.33367.33367,0,0,1,.34473-.345h.62988A.34368.34368,0,0,1,115.3739,10.95008Z"/><path class="e" d="M117.70593,15.84755a.33624.33624,0,0,1-.09668-.24744v-4.395a.33135.33135,0,0,1,.09668-.255.352.352,0,0,1,.248-.09h.66016a.33367.33367,0,0,1,.34473.345v4.395a.33385.33385,0,0,1-.34473.345H117.954A.33566.33566,0,0,1,117.70593,15.84755Z"/><path class="e" d="M129.58581,10.95753a.33447.33447,0,0,1,.09766.24756v4.17a4.55508,4.55508,0,0,1-.51758,2.21253,3.51562,3.51562,0,0,1-1.45508,1.455,4.255,4.255,0,0,1-2.15234.47254h-1.10938a3.45091,3.45091,0,0,1-1.75586-.45007,3.17425,3.17425,0,0,1-1.22168-1.26746,3.88211,3.88211,0,0,1-.44336-1.88257v-4.71a.33191.33191,0,0,1,.09766-.255.35206.35206,0,0,1,.24805-.09h.585a.33365.33365,0,0,1,.34472.345l.04492,4.26a2.66591,2.66591,0,0,0,1.89747-.735,2.46646,2.46646,0,0,0,.53222-1.65v-1.875a.33372.33372,0,0,1,.34571-.345h.585a.33365.33365,0,0,1,.34472.345v1.93506a3.23652,3.23652,0,0,1-.915,2.36987,3.89619,3.89619,0,0,1-2.68457,1.02,2.36692,2.36692,0,0,0,.89258,1.34253,2.5981,2.5981,0,0,0,1.56738.47253h.4795a2.86575,2.86575,0,0,0,2.2207-.82507,3.12043,3.12043,0,0,0,.79492-2.235v-4.08a.33219.33219,0,0,1,.34473-.345h.585A.33473.33473,0,0,1,129.58581,10.95753Z"/><path class="e" d="M137.58093,19.32765a.33368.33368,0,0,1-.09766-.24756v-4.485a2.27416,2.27416,0,0,0-2.56543-2.58h-2.79a.34913.34913,0,0,1-.24707-.09009.3093.3093,0,0,1-.09766-.24v-.48a.32845.32845,0,0,1,.09766-.255.34962.34962,0,0,1,.24707-.09H134.993q3.81,0,3.81054,3.68994v4.53a.33371.33371,0,0,1-.3457.345H137.828A.3338.3338,0,0,1,137.58093,19.32765Zm-5.7002,0a.33368.33368,0,0,1-.09766-.24756v-5.04a.33385.33385,0,0,1,.34473-.345h.62988a.3339.3339,0,0,1,.34571.345v5.04a.33372.33372,0,0,1-.34571.345h-.62988A.3338.3338,0,0,1,131.88073,19.32765Z"/><path class="e" d="M152.36315,14.52v4.56006a.33365.33365,0,0,1-.34472.345h-.62989a.33372.33372,0,0,1-.3457-.345v-4.485a2.28061,2.28061,0,0,0-2.58008-2.58h-1.08008q-.14941.94482-.21679,1.56738a11.35783,11.35783,0,0,0-.05274,1.4176l.03028,4.08a.33372.33372,0,0,1-.34571.345l-2.085-.03a.33365.33365,0,0,1-.34472-.345v-.44995a.33365.33365,0,0,1,.34472-.345L145.868,18.27v-3.21q-.01466-.945.03711-1.59741a9.28255,9.28255,0,0,1,.248-1.44751h-.81054a.35081.35081,0,0,1-.24708-.09009.30932.30932,0,0,1-.09765-.24v-.48a.32848.32848,0,0,1,.09765-.255.3513.3513,0,0,1,.24708-.09h3.21093Q152.36218,10.86012,152.36315,14.52Z"/><path class="e" d="M154.71081,19.32765a.33368.33368,0,0,1-.09766-.24756v-7.875a.32845.32845,0,0,1,.09766-.255.34962.34962,0,0,1,.24707-.09h.66016a.33219.33219,0,0,1,.34472.345v7.875a.33219.33219,0,0,1-.34472.345h-.66016A.3338.3338,0,0,1,154.71081,19.32765Z"/><path class="e" d="M162.90026,19.32765a.33749.33749,0,0,1-.09765-.24756v-4.485a2.27993,2.27993,0,0,0-2.57911-2.58H158.288a.34913.34913,0,0,1-.24707-.09009.3093.3093,0,0,1-.09766-.24v-.48a.33367.33367,0,0,1,.34473-.345h2.02539q3.81006,0,3.80957,3.65991v4.56006a.33367.33367,0,0,1-.34473.345h-.62988A.336.336,0,0,1,162.90026,19.32765Z"/><path class="e" d="M167.19811,18.63758a3.80067,3.80067,0,0,1-.90039-2.73742V11.20509a.32845.32845,0,0,1,.09766-.255.35206.35206,0,0,1,.24805-.09h.56933a.31441.31441,0,0,1,.34571.345v4.62a2.6729,2.6729,0,0,0,.62207,1.905,3.04714,3.04714,0,0,0,3.71972.05249,2.63432,2.63432,0,0,0,.62305-1.83752V14.40016a2.9572,2.9572,0,0,0-.52539-1.83008,1.65741,1.65741,0,0,0-1.34961-.6,2.13686,2.13686,0,0,0-.60059.09754,2.29666,2.29666,0,0,0-.56933.24744.245.245,0,0,1-.15039.045.28174.28174,0,0,1-.26953-.27V11.655a1.102,1.102,0,0,1,.02929-.28491.31807.31807,0,0,1,.165-.18,2.31123,2.31123,0,0,1,.668-.3075,3.41632,3.41632,0,0,1,.89258-.09753,2.81279,2.81279,0,0,1,2.21191.84753,4.00378,4.00378,0,0,1,.80274,2.61755q.01464.15.01465.88489,0,.73516-.01465.885a3.834,3.834,0,0,1-.9375,2.67749,3.87616,3.87616,0,0,1-2.82715.87756A3.82,3.82,0,0,1,167.19811,18.63758Z"/><path class="e" d="M181.26061,11.30262a3.03272,3.03272,0,0,1,1.13965,1.26746,4.30733,4.30733,0,0,1,.41309,1.94995v4.56006a.33372.33372,0,0,1-.3457.345h-3.87012a.309.309,0,0,1-.23926-.09741.348.348,0,0,1-.08984-.24756v-.48a.34885.34885,0,0,1,.08984-.24756.30938.30938,0,0,1,.23926-.09741H181.493v-3.645a2.85131,2.85131,0,0,0-.57715-1.85254,1.80611,1.80611,0,0,0-1.46289-.71252h-1.58985l-1.15527,7.02a.39329.39329,0,0,1-.12695.255.357.357,0,0,1-.24805.105H175.703a.27843.27843,0,0,1-.23243-.105.3396.3396,0,0,1-.06738-.255l1.2002-7.02h-.76563a.33385.33385,0,0,1-.34472-.345v-.495a.33365.33365,0,0,1,.34472-.345h3.76563A3.12833,3.12833,0,0,1,181.26061,11.30262Z"/><path class="e" d="M196.37292,14.52v4.56006a.33367.33367,0,0,1-.34473.345h-.62988a.33371.33371,0,0,1-.3457-.345v-4.485a2.28062,2.28062,0,0,0-2.58008-2.58h-1.08008q-.14941.94482-.2168,1.56738a11.35606,11.35606,0,0,0-.05273,1.4176l.03027,4.08a.33371.33371,0,0,1-.3457.345l-2.085-.03a.33367.33367,0,0,1-.34473-.345v-.44995a.33367.33367,0,0,1,.34473-.345l1.15527.01489v-3.21q-.01464-.945.03711-1.59741a9.28266,9.28266,0,0,1,.24805-1.44751h-.81055a.35078.35078,0,0,1-.24707-.09009.3093.3093,0,0,1-.09766-.24v-.48a.32845.32845,0,0,1,.09766-.255.35127.35127,0,0,1,.24707-.09h3.21094Q196.37194,10.86012,196.37292,14.52Z"/><path class="e" d="M203.55749,19.14015a.2567.2567,0,0,1-.09766.20239.34822.34822,0,0,1-.23242.08252h-.66016q-.28564,0-.3457-.345l-.34473-1.755a4.54933,4.54933,0,0,1-1.27441,1.335,6.16953,6.16953,0,0,1-1.03516.57751,5.14857,5.14857,0,0,1-1.0205.3075l-.1045.015q-.25488,0-.25488-.24v-.705q0-.25488.31445-.375.04542-.01482.59278-.20251a4.35656,4.35656,0,0,0,.98242-.47253,4.0722,4.0722,0,0,0,.88477-.78748,3.46358,3.46358,0,0,0,.61523-.95252l-.26953-1.35a8.85069,8.85069,0,0,0-.38281-1.40259,1.80133,1.80133,0,0,0-.54786-.78747,1.41752,1.41752,0,0,0-.89941-.2699h-.55566a.34913.34913,0,0,1-.24707-.09009.3093.3093,0,0,1-.09766-.24v-.51a.33385.33385,0,0,1,.34473-.345h.55566a2.8944,2.8944,0,0,1,1.57422.39,2.70783,2.70783,0,0,1,.98242,1.16248,8.9649,8.9649,0,0,1,.62305,2.01758l.90039,4.67993Z"/><path class="e" d="M213.62975,10.95753a.33447.33447,0,0,1,.09766.24756v4.17a4.555,4.555,0,0,1-.51758,2.21253,3.51556,3.51556,0,0,1-1.45508,1.455,4.255,4.255,0,0,1-2.15234.47254H208.493a3.45089,3.45089,0,0,1-1.75586-.45007,3.17425,3.17425,0,0,1-1.22168-1.26746,3.88211,3.88211,0,0,1-.44336-1.88257v-4.71a.33191.33191,0,0,1,.09765-.255.35206.35206,0,0,1,.24805-.09h.585a.33367.33367,0,0,1,.34473.345l.04492,4.26a2.66586,2.66586,0,0,0,1.89746-.735,2.46641,2.46641,0,0,0,.53223-1.65v-1.875a.33371.33371,0,0,1,.3457-.345h.585a.33367.33367,0,0,1,.34473.345v1.93506a3.23656,3.23656,0,0,1-.915,2.36987,3.89619,3.89619,0,0,1-2.68457,1.02,2.36692,2.36692,0,0,0,.89258,1.34253,2.5981,2.5981,0,0,0,1.56738.47253h.47949a2.86573,2.86573,0,0,0,2.2207-.82507,3.12044,3.12044,0,0,0,.79493-2.235v-4.08a.33219.33219,0,0,1,.34472-.345h.585A.33473.33473,0,0,1,213.62975,10.95753Z"/><path class="e" d="M221.62487,19.32765a.33368.33368,0,0,1-.09765-.24756v-4.485a2.27416,2.27416,0,0,0-2.56543-2.58h-2.79a.34913.34913,0,0,1-.24707-.09009.3093.3093,0,0,1-.09766-.24v-.48a.32845.32845,0,0,1,.09766-.255.34962.34962,0,0,1,.24707-.09H219.037q3.81006,0,3.81055,3.68994v4.53a.33372.33372,0,0,1-.34571.345h-.62988A.3338.3338,0,0,1,221.62487,19.32765Zm-5.70019,0a.33368.33368,0,0,1-.09766-.24756v-5.04a.33385.33385,0,0,1,.34473-.345h.62988a.33389.33389,0,0,1,.3457.345v5.04a.33371.33371,0,0,1-.3457.345h-.62988A.3338.3338,0,0,1,215.92468,19.32765Z"/></svg>