<svg xmlns="http://www.w3.org/2000/svg" viewBox="0 0 85.34119 33.225"><defs><style>.a{fill:#fff;}.b{fill:#3c3c3b;}</style></defs><rect class="a" width="85.34119" height="33.225" rx="16.61248"/><path class="b" d="M29.821,12.4552a4.50724,4.50724,0,0,1,1.35523,3.61719v5.86926a.48465.48465,0,0,1-.13648.34119.45874.45874,0,0,1-.351.14624h-2.301a.5081.5081,0,0,1-.36072-.13648.4578.4578,0,0,1-.14624-.351V16.1698a1.9563,1.9563,0,0,0-2.20349-2.2229H24.40991a11.83808,11.83808,0,0,0-.29248,2.86645l.156,5.1283a.45783.45783,0,0,1-.14624.351.50833.50833,0,0,1-.36072.13648l-4.13391-.01941a.50768.50768,0,0,1-.36072-.1366.45758.45758,0,0,1-.14624-.35083V20.38171a.4592.4592,0,0,1,.14624-.35107.50971.50971,0,0,1,.36072-.13648H21.212V16.83289a10.53069,10.53069,0,0,1,.29249-2.886h-1.1504a.50842.50842,0,0,1-.36084-.13648.45833.45833,0,0,1-.14624-.35107V11.78247a.459.459,0,0,1,.14624-.35095.50951.50951,0,0,1,.36084-.13648h5.44031A6.05083,6.05083,0,0,1,29.821,12.4552Z"/><path class="b" d="M33.52576,22.2926a.4578.4578,0,0,1-.14624-.351V11.78247a.45853.45853,0,0,1,.14624-.35095.509.509,0,0,1,.36071-.13648h2.43738a.46748.46748,0,0,1,.48755.48743V21.94165a.4852.4852,0,0,1-.13647.34119.459.459,0,0,1-.35108.14624H33.88647A.50787.50787,0,0,1,33.52576,22.2926Z"/><path class="b" d="M48.08191,11.43152a.47588.47588,0,0,1,.13647.35095v1.67688a.48513.48513,0,0,1-.13647.34131.45944.45944,0,0,1-.35108.14624h-.897a2.98885,2.98885,0,0,0-.36072.99438,6.96,6.96,0,0,0-.12671,1.38453v5.67431a.36383.36383,0,0,1-.1853.30225.66479.66479,0,0,1-.38013.12671H43.49951a.40247.40247,0,0,1-.429-.429V16.11133a4.20594,4.20594,0,0,1,.39-2.16443H39.01465a.49979.49979,0,0,1-.48755-.48755V11.78247a.459.459,0,0,1,.14624-.35095.48512.48512,0,0,1,.34131-.13648h8.71618A.47638.47638,0,0,1,48.08191,11.43152Z"/><path class="b" d="M50.13916,22.2926a.4578.4578,0,0,1-.14624-.351V11.78247a.45853.45853,0,0,1,.14624-.35095.509.509,0,0,1,.36072-.13648h2.43737a.46748.46748,0,0,1,.48755.48743V21.94165a.48516.48516,0,0,1-.13647.34119.459.459,0,0,1-.35108.14624H50.49988A.5079.5079,0,0,1,50.13916,22.2926Z"/><path class="b" d="M66.13818,22.01965a.40623.40623,0,0,1-.11694.28272.38081.38081,0,0,1-.29248.12671H63.33032a.65412.65412,0,0,1-.52649-.18518q-.15638-.18513-.17554-.20472l-3.41235-4.93335a2.19022,2.19022,0,0,0-.663,1.07251,5.123,5.123,0,0,0-.156,1.28687v2.4375a.5138.5138,0,0,1-.14624.38013.49029.49029,0,0,1-.36072.14624H55.979a.45278.45278,0,0,1-.34118-.156.52229.52229,0,0,1-.14624-.37036v-2.418a6.82822,6.82822,0,0,1,.44848-2.69092,4.96243,4.96243,0,0,1,1.69641-1.94995l-1.98889-2.86645a.412.412,0,0,1-.09753-.27295.43505.43505,0,0,1,.40942-.40943h2.301a.65726.65726,0,0,1,.41919.11695,1.49005,1.49005,0,0,1,.28271.312l3.13941,4.4458a1.72085,1.72085,0,0,0,.69226-.85791,3.746,3.746,0,0,0,.14624-1.11157V11.82141a.53419.53419,0,0,1,.13647-.38013.4577.4577,0,0,1,.35108-.14624h2.04736a.47556.47556,0,0,1,.36084.15589.52438.52438,0,0,1,.14624.37048v2.457a5.12908,5.12908,0,0,1-.49732,2.27161,4.66813,4.66813,0,0,1-1.80371,1.84265l2.379,3.354A.48222.48222,0,0,1,66.13818,22.01965Z"/></svg>