<svg xmlns="http://www.w3.org/2000/svg" xmlns:xlink="http://www.w3.org/1999/xlink" viewBox="0 0 314.33463 351.7785"><defs><style>.a{fill:#879647;}.b{fill:#ffcfae;}.c{fill:#353363;}.d{fill:#1d1d1b;}.e{fill:#f7f3f8;}.ac,.ad,.ah,.ak,.ar,.as,.f,.k,.p{fill:none;}.f{stroke:#8c5632;stroke-width:1.17889px;}.ac,.ad,.ak,.ar,.as,.f,.k,.p{stroke-linecap:round;}.ac,.ah,.ar,.bd,.f{stroke-miterlimit:10;}.g{fill:#d9d6da;}.h{fill:#f8e1f2;}.i{fill:#dce3f6;}.j{fill:#696987;}.k{stroke:#1d1d1b;stroke-width:2.35779px;}.ad,.ak,.as,.k,.p{stroke-linejoin:round;}.l{fill:#e29460;}.m{clip-path:url(#a);}.n{fill:#97a34f;}.o{fill:#a3af5a;}.ac,.p{stroke:#879647;}.p{stroke-width:21.22007px;}.q{fill:#756f48;}.r{clip-path:url(#b);}.s{fill:#73842f;}.t{fill:#546023;}.u{fill:#689300;}.v{fill:#99b523;}.w{fill:#b9d324;}.x{fill:#79891b;}.y{clip-path:url(#c);}.z{fill:#683c11;}.aa{fill:#ffada4;}.ab{fill:#fff;}.ac{stroke-width:18.86229px;}.ad{stroke:#ffcfae;stroke-width:14.20295px;}.ae{fill:#3c3c3b;}.af{fill:#432918;}.ag{fill:#7d4e24;}.ah{stroke:#b2b2b2;}.ah,.ar,.as{stroke-width:0.48064px;}.ai{fill:#ad8b63;}.aj{fill:#cca581;}.ak{stroke:#ccb297;stroke-width:0.96129px;}.al{fill:#d3b398;}.am{fill:#b2b2b2;}.an{fill:#c6c6c6;}.ao{fill:#ba8e6e;}.ap{fill:#896a4c;}.aq{fill:#9b5623;opacity:0.25;}.ar,.as,.bd{stroke:#fff;}.ar{opacity:0.42;}.as{opacity:0.32;}.at,.au{fill:#878787;}.at{opacity:0.35;}.av{fill:#f6f6f6;}.aw{fill:#29235c;}.ax{fill:#1d71b8;}.ay{fill:#36a9e1;}.az{fill:#e30613;}.ba{fill:#f39200;}.bb,.bd{fill:#ffc931;}.bc{fill:#874a31;}.bd{stroke-width:3.6646px;}</style><clipPath id="a"><path class="a" d="M165.7035,310.40735l8.16527,3.89451,6.74.192,2.94574,36.22873,37.07675,1.056s2.395-48.552-2.27654-72.14988l-45.38434,5.00224Z"/></clipPath><clipPath id="b"><path class="a" d="M141.22713,219.44265c-1.08345.81068-1.651,5.93419-2.03687,7.32107l-2.48951,8.948c-1.31759,4.73578-1.97391,13.55743-4.851,17.4696-2.33719,3.17807-10.75584,3.17305-14.75786,3.91144l-18.40662,3.3961a1.281,1.281,0,0,0-1.31,1.55446l-.23514,14.35112q19.87727-2.49243,39.88661-3.7128a9.93658,9.93658,0,0,0,4.92726-1.16592c4.16868-2.73461,4.7384-13.76838,5.6126-18.25066,1.436-7.36272,2.67028-14.76486,4.25556-22.09817.70515-3.262,1.16876-5.864-.04637-8.86646-1.24359-3.0728-3.30606-5.273-1.44006-8.77447C147.33328,215.51027,144.10862,217.28664,141.22713,219.44265Z"/></clipPath><clipPath id="c"><path class="b" d="M251.58829,141.14563a23.51733,23.51733,0,0,1-.61152,4.02,17.04228,17.04228,0,0,1-3.88425,7.53367,25.78907,25.78907,0,0,1-24.66537,6.33479,5.39609,5.39609,0,0,1-1.51462-.62564h0a82.86066,82.86066,0,0,1-61.38868,12.08369c-23.29541-4.43149-57.877-22.26992-52.4184-50.96485a31.363,31.363,0,0,1,18.96371-23.22456.99475.99475,0,0,1,.2574-.09635.36655.36655,0,0,1,.20312-.05746.9991.9991,0,0,1-.11626-.64557,18.75388,18.75388,0,0,1-.784-3.70237,61.85913,61.85913,0,0,1,.53107-12.37745,34.06244,34.06244,0,0,1,30.65891-26.42573c4.36028-10.13405,11.05466-17.56387,21.37354-21.50936,6.63734-2.53782,13.66489-3.86666,20.6559-5.1399,9.88543-1.80037,17.81182-1.85056,27.35157,1.43785a82.33191,82.33191,0,0,1,23.155,12.36476c13.024,9.9578,22.96928,24.11021,26.64648,40.19456a61.44939,61.44939,0,0,1,.48539,25.129C273.49071,121.227,264.17922,131.73265,251.58829,141.14563Z"/></clipPath></defs><path class="c" d="M190.23843,262.47941l-19.25318-14.919a4.4871,4.4871,0,0,1-.9263-6.12184l48.81464-69.66285a4.4871,4.4871,0,0,1,6.42313-.97189l25.709,19.92153a4.4871,4.4871,0,0,1,.66242,6.46239l-55.27046,64.66032A4.4871,4.4871,0,0,1,190.23843,262.47941Z"/><path class="d" d="M221.61723,169.98s-.06936,10.38792,16.82828,20.02319,9.89211.91908,9.89211.91908Z"/><polygon class="e" points="251.238 183.62 250.991 177.121 259.981 165.699 260.228 172.198 251.238 183.62"/><polygon class="e" points="251.593 183.899 257.968 182.612 266.958 171.19 260.583 172.477 251.593 183.899"/><line class="f" x1="262.23026" y1="169.65416" x2="237.50932" y2="201.06336"/><polygon class="e" points="229.232 168.023 228.985 161.524 237.974 150.102 238.222 156.601 229.232 168.023"/><polygon class="e" points="229.587 168.302 235.962 167.016 244.952 155.594 238.577 156.88 229.587 168.302"/><line class="f" x1="240.22381" y1="154.05743" x2="215.50287" y2="185.46662"/><polygon class="e" points="241.009 170.398 240.762 163.899 249.751 152.477 249.999 158.976 241.009 170.398"/><polygon class="e" points="241.364 170.677 247.739 169.39 256.729 157.968 250.353 159.255 241.364 170.677"/><line class="f" x1="252.00075" y1="156.43188" x2="227.27981" y2="187.84108"/><polygon class="g" points="242.668 178.023 242.42 171.524 251.41 160.102 251.658 166.601 242.668 178.023"/><polygon class="g" points="243.023 178.303 249.398 177.016 258.388 165.594 252.012 166.881 243.023 178.303"/><line class="f" x1="253.6596" y1="164.05765" x2="228.93866" y2="195.46684"/><polygon class="h" points="241.721 186.04 241.473 179.541 250.463 168.119 250.711 174.618 241.721 186.04"/><polygon class="h" points="242.076 186.319 248.451 185.033 257.441 173.611 251.065 174.897 242.076 186.319"/><line class="f" x1="252.71256" y1="172.0743" x2="227.99162" y2="203.48349"/><polygon class="i" points="229.25 176.943 229.003 170.444 237.992 159.022 238.24 165.521 229.25 176.943"/><polygon class="i" points="229.605 177.222 235.98 175.935 244.97 164.514 238.594 165.8 229.605 177.222"/><line class="f" x1="240.24175" y1="162.97721" x2="215.52081" y2="194.38641"/><polygon class="e" points="232.315 183.999 232.067 177.5 241.057 166.078 241.304 172.577 232.315 183.999"/><polygon class="e" points="232.669 184.278 239.045 182.992 248.034 171.57 241.659 172.857 232.669 184.278"/><line class="f" x1="243.30634" y1="170.03359" x2="218.5854" y2="201.44278"/><path class="c" d="M221.95071,171.63268s-.249,4.99272,7.47484,11.87957,11.439,7.66738,11.439,7.66738l6.05336,2.96366L229.495,215.36192,205.27,202.251l10.61187-20.54208Z"/><path class="j" d="M221.61723,169.98s1.23726,13.44,20.41386,21.74125c0,0-18.53784-8.33093-20.84767-14.13823l-2.30983-5.8073A3.20556,3.20556,0,0,1,221.61723,169.98Z"/><path class="j" d="M245.7797,203.6794s-14.8502-3.80994-16.56045-7.1375l-2.70343,5.28969s13.85141,8.1798,15.64036,6.08692Z"/><polygon class="k" points="231.031 195.891 225.662 206.455 220.735 200.969 225.695 192.506 231.031 195.891"/><path class="b" d="M86.08944,277.54747c2.24733-.84181,4.059-2.7226,6.02668-4.57358,1.86042-1.75006,3.64343-2.63743,3.08993-5.40161-.94266-4.70763-6.49293-7.72942-12.39688-6.74936s-8.72837,5.392-7.78571,10.09969a8.8097,8.8097,0,0,0,6.50783,6.80938A7.37215,7.37215,0,0,0,86.08944,277.54747Z"/><polygon class="b" points="103.87 259.862 89.938 261.639 91.186 272.054 108.86 269.186 103.87 259.862"/><path class="l" d="M95.91844,260.87629s-1.78325,6.75885-.54169,10.4975l3.82187-.62008L98.545,260.54112Z"/><path class="a" d="M146.529,283.8778c-5.61918,29.58769-4.81815,65.653-4.81815,65.653l29.93208.85247s4.11357-25.28845,4.53394-36.01571l11.2684-6.59609,1.09082-22.69733Z"/><path class="a" d="M165.7035,310.40735l8.16527,3.89451,6.74.192,2.94574,36.22873,37.07675,1.056s2.395-48.552-2.27654-72.14988l-45.38434,5.00224Z"/><g class="m"><path class="n" d="M207.185,309.486l2.799,24.88415s9.289-.39784,11.062-2.61893c0,0,.22384-24.86718.38741-26.67325Z"/><polygon class="a" points="207.185 309.486 212.261 332.118 221.046 331.751 224.891 306.281 220.833 303.912 207.185 309.486"/><path class="o" d="M221.339,298.4439s-9.46055,5.00647-15.67548,5.20406l1.52144,5.838s12.05691-1.39136,14.24842-4.408Z"/></g><line class="p" x1="224.95852" y1="223.20377" x2="237.13156" y2="271.3212"/><path class="q" d="M147.063,275.22074s28.14026,7.02564,72.0087.66674l-1.60328,8.36522s-35.29632,7.46214-47.61558,5.78843a136.95331,136.95331,0,0,1-23.36459-5.50359Z"/><path class="a" d="M141.22713,219.44265c-1.08345.81068-1.651,5.93419-2.03687,7.32107l-2.48951,8.948c-1.31759,4.73578-1.97391,13.55743-4.851,17.4696-2.33719,3.17807-10.75584,3.17305-14.75786,3.91144l-18.40662,3.3961a1.281,1.281,0,0,0-1.31,1.55446l-.23514,14.35112q19.87727-2.49243,39.88661-3.7128a9.93658,9.93658,0,0,0,4.92726-1.16592c4.16868-2.73461,4.7384-13.76838,5.6126-18.25066,1.436-7.36272,2.67028-14.76486,4.25556-22.09817.70515-3.262,1.16876-5.864-.04637-8.86646-1.24359-3.0728-3.30606-5.273-1.44006-8.77447C147.33328,215.51027,144.10862,217.28664,141.22713,219.44265Z"/><g class="r"><path class="s" d="M155.27635,219.0801c7.66016,20.91615,6.30646,29.68638-6.00679,52.14895-.93513,1.70592.69438,3.89041-.09764,5.66507-6.606-4.36016-6.1057-15.97138-5.37084-22.87382q.668-6.27478,1.38219-12.5461a50.5048,50.5048,0,0,1,2.095-11.31064c.70643-1.99285,1.86753-5.73768,3.09047-7.38117C150.63567,222.42363,155.23362,219.32422,155.27635,219.0801Z"/></g><path class="a" d="M178.49884,206.59322l11.15752-11.48444-17.38987-.49527c-7.88786-.22465-18.11724,3.42937-18.46325,11.27637-1.29537,29.37691-13.073,54.88445-7.68637,67.6877,1.473,3.4952,12.35553,5.5061,25.24481,6.34876C166.77074,255.246,178.49884,206.59322,178.49884,206.59322Z"/><path class="a" d="M218.389,276.40944c5.30456-1.87545-.22049-40.81649-2.47155-61.01574-1.27028-11.39852-8.09784-19.76763-19.67215-20.09727l-6.58893-.18765-11.15752,11.48444s-11.7281,48.65274-7.13716,73.33312C191.67567,281.25671,215.01933,277.60079,218.389,276.40944Z"/><path class="s" d="M220.04731,253.55256l-2.9013-27.44465-9.24877,6.76137S217.75132,245.817,220.04731,253.55256Z"/><path class="t" d="M169.21083,279.75655c.72277.0561,1.425.12346,2.16423.17017-4.58806-24.66253,7.11869-73.25866,7.135-73.32924C167.88848,243.55255,169.20446,279.60245,169.21083,279.75655Z"/><path class="u" d="M231.88529,232.09043a2.23927,2.23927,0,0,1-1.53311-1.33484c-.491-1.13922.632-2.19764.8022-2.46352.55326-.8641,1.1084-.76467,2.507-.34011,1.3756.41757,3.42822-.10551,3.95351.2611.14954.10436-.247,1.346-.0616,1.34942.2232.00416.87168.1297,1.05518-.00286.4919-.35533.38633-1.53776.87823-1.89309.07787-.05625.84414.19146.86116.09831.02031-.11122-.97045.06476-1.04751-.01509a28.30212,28.30212,0,0,1-2.12843-2.88,7.2806,7.2806,0,0,1-1.81765-3.16494,3.21072,3.21072,0,0,0-1.93306.30569c-.84189.2628-1.58933.88787-2.47309,1.16411-1.00828.31515-2.45662-.81392-3.46915-.51359-1.01167.30008-2.11076.476-3.10582.833-1.096.39364-2.08969.966-3.20388,1.29809-1.11528.33238-1.94914,1.67446-3.07663,1.95911-1.12863.28494-2.2175.81191-3.35232,1.063-1.05958.23447-2.46-1.18006-3.53053-.974-1.0662.20523-1.81434,2.19264-2.88954,2.37141-1.07173.17819-2.29816-.56986-3.377-.41628-1.076.15319-2.03255,1.30194-3.11375,1.43232-1.07978.13022-2.30712-1.00543-3.39019-.89629-1.08277.10911-2.10837.84623-3.19256.93594-1.08145.09069-2.19756-.23715-3.28135-.1657-1.084.07148-2.20517-.67337-3.28915-.62245-1.08605.051-2.11747,1.44868-3.20113,1.47776-1.08824.02919-2.19091-1.05533-3.27434-1.04959-1.089.00576-2.17926,1.04283-3.261,1.02354-1.08982-.01942-2.15442-.77855-3.23434-.82479-1.04855-.04748-2.17438,1.09786-3.20314,1.01332-1.04413-.0858-1.98263-1.27455-3.00954-1.40116-1.03659-.12782-2.2388.80072-3.26111.62859-1.02709-.17295-2.03288-.63989-3.04887-.86035-1.01487-.22021-1.9733-.77862-2.98041-1.049-1-.26848-2.1123-.257-3.10786-.57768-.96316-.31024-1.80522-1.0137-2.76-1.346-.95534-.33245-1.90068-.70314-2.85058-1.04977-.95016-.34672-2.091-.18574-3.03865-.53877s-1.26759-2.39564-2.21569-2.74709c-.544-.20167-2.05618.46424-3.11874.02306-1.11076-.46119-2.32993-1.46084-2.897-1.17893-.54347.27018-.05861,2.35938-.65335,3.6805-.56253,1.24959-2.54342,2.75269-2.88643,3.29945,1.69372.60845,1.74953.91245,3.46562.82626.9518-.04781,1.62082-.51544,2.70112-.36249,1.36076.19267,3.427.40306,1.51659,1.77208a1.39825,1.39825,0,0,0-.16083,1.95886c.54269.88281,1.38288.56431,2.211,1.18968.47338.3575.10512,1.5087.54918,1.90114.53645.47411,1.61669-.81485,2.10452-1.36978.20037-.22793,2.08344-4.20183,2.03557-4.21914.79139.28614,1.4432.9231,2.23894,1.19476.79621.27182,1.44078,1.14555,2.2413,1.40344-.049,1.16644-.47868,1.08535-.92958,2.16223s-1.38209.9672-1.40315,2.13448c.85815.26518,2.33809.0406,3.21045.28793.8641.245.80966.33435,1.69149.54659.729-.90113.42786-.70286.79145-1.80344s.17827-1.47028.877-2.39509c.78971.19341,2.08005,1.16946,2.87692,1.33552.796.16588,2.09469-.22651,2.89758-.0925.45261,1.05985-1.60064,1.08537-1.86749,2.20649a11.34459,11.34459,0,0,0,.20448,3.44957c.73355.12743,1.76541-.47619,2.5956-.51981.82445-.04332,2.14556.34219,2.81981-.07135,1.22894-.75373.49457-2.74665.6295-4.21581a11.66673,11.66673,0,0,0,2.70254.83945,2.31039,2.31039,0,0,0,1.93343-.70414c-.19231.50214.72136,2.22545.99875,2.65963.67894,1.06273,1.69272-.16566,2.62178.397,1.2283.74386,1.68767.86758,1.98924.021a10.3819,10.3819,0,0,0,.53793-2.69187,5.03586,5.03586,0,0,0,2.08568.39177c1.13927-.00676,2.34967-1.363,2.53889-1.34883a13.31414,13.31414,0,0,0,.872,2.97458c.76421.98958,2.46291,2.41926,3.59511,1.92264,1.16823-.51242,1.46524-2.47162,2.31927-3.2744.83147-.78157,1.64865-.90916,3.14513-.788.06443.41927.60341,4.97553.62281,4.97365a4.63827,4.63827,0,0,1,2.5037-1.55129,9.38863,9.38863,0,0,1,2.67364.208c.02622-.00253-.33406-2.117-.31143-2.27287a3.21246,3.21246,0,0,1,1.6416-2.56425,10.35893,10.35893,0,0,1,3.02563-.40055c.80315,2.13294-1.39418,3.26658.04153,5.03668.83873,1.03406,2.09446-.02388,3.409-.23522s2.28818.18562,2.73615-1.0682c.76732-2.14762-.9153-2.27647-.93439-4.557.84021-.16071,1.40727-.86729,2.2475-1.02829.83968-.1609,2.462-.13791,3.2948-.33653.65631,1.225-.79449,1.8005-.53285,3.16535a6.1365,6.1365,0,0,0,.87727,2.67062c.8806-.18327,2.01372.523,2.89526.30568.87439-.21556,1.24878-1.38777,2.12346-1.62661.10055-1.38368-.2046-1.29149-.53534-2.63882s-1.53622-1.39181-1.46819-2.77747c.80338-.19508,2.38965-.89121,3.17871-1.13949.788-.248,2.20122-.3167,2.99331-.55078.77349,1.14975-.6544,1.82593-.23968,3.14814s1.393.7557,2.22064,1.86715c.8872-.339,1.29309.775,2.17972.44493C230.82509,234.46925,231.01284,232.50542,231.88529,232.09043Z"/><path class="v" d="M140.24469,222.257a.89549.89549,0,0,0,.448.403,79.02537,79.02537,0,0,0,34.21591,9.23081,150.89563,150.89563,0,0,0,33.25837-1.82253,107.34534,107.34534,0,0,0,16.60924-4.20771c3.02-1.0415,9.31772-1.61689,11.48262-4.008-4.79993-9.54421-10.97419-20.3818-21.62449-24.21542-8.74274-3.147-23.69163-4.84413-33.07771-4.01165-8.70513.77208-19.83709-.46627-27.59519,4.6985-7.46294,4.96827-10.838,15.40117-13.64739,23.29441A1.02457,1.02457,0,0,0,140.24469,222.257Z"/><path class="w" d="M176.555,219.93417c.0137,1.65522-1.21306,3.06156-1.96968,4.56172a8.52332,8.52332,0,0,0-.198,7.2423,27.37423,27.37423,0,0,0,6.8669-.11647c-2.03787-.32214-4.1995-1.24879-4.92517-3.1547a1.25044,1.25044,0,0,1-.09579-.71233c.13949-.61878.91431-.83137,1.54509-.91927l5.67153-.79038-4.60006-.40433c-1.08357-.09525-2.45618-.47072-2.50331-1.55149-.03413-.78251.74632-1.41857,1.524-1.58318a10.35321,10.35321,0,0,1,2.36155.01108,2.57028,2.57028,0,0,0,2.15193-.806,10.229,10.229,0,0,1-3.66739-1.84174,1.9058,1.9058,0,0,1-.8829-1.35648,1.62046,1.62046,0,0,1,1.14127-1.38543,7.7361,7.7361,0,0,1,1.87562-.29322A8.02906,8.02906,0,0,0,185.533,214.582c-1.66894-1.37979-4.41087.48634-6.42451-.34538-.95989-.39647,1.49957-6.89936-2.78021-3.00716C172.87447,214.37048,176.52712,216.59687,176.555,219.93417Z"/><path class="x" d="M179.21048,210.84516a15.13123,15.13123,0,0,0,5.81179-2.10819,37.324,37.324,0,0,0,9.984-8.20347c.78955-.92152,1.46731-2.48479.47246-3.11725a2.15023,2.15023,0,0,0-.87345-.24961l-13.56567-1.8637c-4.1668-.57245-11.80712-.37949-11.554,5.6831C169.67731,205.57752,174.4198,211.32111,179.21048,210.84516Z"/><polygon class="b" points="192.361 194.91 175.516 205.494 172.969 191.222 178.833 160.396 198.225 164.085 192.361 194.91"/><polygon class="l" points="174.741 181.907 196.158 174.951 197.389 168.479 177.568 167.049 174.741 181.907"/><path class="b" d="M251.58829,141.14563a23.51733,23.51733,0,0,1-.61152,4.02,17.04228,17.04228,0,0,1-3.88425,7.53367,25.78907,25.78907,0,0,1-24.66537,6.33479,5.39609,5.39609,0,0,1-1.51462-.62564h0a82.86066,82.86066,0,0,1-61.38868,12.08369c-23.29541-4.43149-57.877-22.26992-52.4184-50.96485a31.363,31.363,0,0,1,18.96371-23.22456.99475.99475,0,0,1,.2574-.09635.36655.36655,0,0,1,.20312-.05746.9991.9991,0,0,1-.11626-.64557,18.75388,18.75388,0,0,1-.784-3.70237,61.85913,61.85913,0,0,1,.53107-12.37745,34.06244,34.06244,0,0,1,30.65891-26.42573c4.36028-10.13405,11.05466-17.56387,21.37354-21.50936,6.63734-2.53782,13.66489-3.86666,20.6559-5.1399,9.88543-1.80037,17.81182-1.85056,27.35157,1.43785a82.33191,82.33191,0,0,1,23.155,12.36476c13.024,9.9578,22.96928,24.11021,26.64648,40.19456a61.44939,61.44939,0,0,1,.48539,25.129C273.49071,121.227,264.17922,131.73265,251.58829,141.14563Z"/><g class="y"><path class="l" d="M251.58829,141.14563c.416-.33072.27137-2.01912.22591-2.49028a7.192,7.192,0,0,0-.65434-2.35878c-3.05277-6.49043-15.15978-8.349-19.64022-2.32606a5.96054,5.96054,0,0,0,.86733-3.04149l.24152-2.46744c3.39018-.299,7.01422.43854,10.37543.78693,7.0789.73383,13.79133,7.75557,13.79133,7.75557Z"/><path class="z" d="M256.46934,139.15886a44.28018,44.28018,0,0,0,11.14147-9.714c16.05114-20.265,17.20722-53.1648,5.78-75.76405a66.19658,66.19658,0,0,0-41.336-33.60037,78.57054,78.57054,0,0,0-25.781-2.21019,71.61256,71.61256,0,0,0-26.01352,6.387c-4.75026,2.27476-12.398,6.40534-15.3321,10.936a8.598,8.598,0,0,0-.70832,8.336c1.10641,2.20948,3.25271,3.69431,5.40432,4.90941,9.24606,5.22167,19.93007,7.15043,29.94853,10.66979,5.57383,1.958,10.75457,4.95659,16.29048,6.91879,4.56876,1.6194,9.02725,2.86885,13.07241,5.81863a23.99381,23.99381,0,0,1,9.22462,13.40869,20.17063,20.17063,0,0,1-2.638,15.91631c-2.23428,3.31508-5.4717,5.80311-8.17846,8.74508s-4.98527,6.72132-4.55745,10.69614c.46042,4.27742,4.00124,7.31184,7.82747,8.74456,4.94988,1.85347,10.48193.178,15.26437,2.52377a10.82731,10.82731,0,0,1,5.90063,10.02408C253.37042,141.04246,254.94122,140.13216,256.46934,139.15886Z"/></g><polygon class="n" points="207.961 277.949 205.249 278.518 204.956 288.803 206.906 288.858 207.961 277.949"/><path class="b" d="M251.95082,136.32167c.96825,7.72544-2.02567,16.44083-10.26688,18.68637a24.35623,24.35623,0,0,1-3.74742.63584,4.46049,4.46049,0,0,1-2.32585-.16687c-1.27179-.57378-1.63233-2.03019-2.81749-2.71767a9.38067,9.38067,0,0,1-2.638-1.91289,9.25194,9.25194,0,0,1-1.96951-6.08357,19.52314,19.52314,0,0,1,4.944-12.77348C238.5495,126.14254,250.87582,127.74445,251.95082,136.32167Z"/><path class="z" d="M143.874,131.22832a2.90184,2.90184,0,0,0,.54443,3.43848,7.49415,7.49415,0,0,0,1.36865,1.19092c.49317.34521,1.0542.60009,1.58008.91015a23.69751,23.69751,0,0,0,3.209,1.57569,30.22045,30.22045,0,0,0,3.40284.90869,32.95056,32.95056,0,0,0,7.17041,1.09179,16.8738,16.8738,0,0,0,7.21582-1.3667,1.26434,1.26434,0,1,1,.13281,2.354,25.55872,25.55872,0,0,0-7.34863-.98633c-2.42334-.05322-4.87549.10645-7.332-.1792a17.012,17.012,0,0,1-1.82227-.31836,7.52412,7.52412,0,0,1-1.80859-.60791,16.25243,16.25243,0,0,1-3.04493-2.14062,19.63286,19.63286,0,0,1-2.72509-2.43018,38.62651,38.62651,0,0,0-2.84327-2.92432l-.17675-.165a1.6089,1.6089,0,1,1,2.47754-.35108Z"/><path class="l" d="M241.56252,144.535a4.54651,4.54651,0,0,0,.45279-.90247c.75561-2.07771-1.40913-3.659-3.22905-4.12031a7.36415,7.36415,0,0,1,4.66126-2.13268,4.78347,4.78347,0,0,1,4.62207,2.32373c-.39158-2.77572-2.32-3.76681-4.99982-3.84051a10.87551,10.87551,0,0,0-8.13176,3.43106,11.42883,11.42883,0,0,0-1.3936,1.70727c-.28379.42715-.58927,1.50949-.96279,1.795a6.99378,6.99378,0,0,1,2.60107-1.45124,2.38914,2.38914,0,0,1,2.62445.96585c1.26185,2.32722-1.78663,4.89626-3.659,5.75847,1.48-.68154,3.3351-.37425,4.89811-1.25121A7.255,7.255,0,0,0,241.56252,144.535Z"/><path class="z" d="M152.39155,67.431a23.06765,23.06765,0,0,0-10.29541-.91113c-.89746.09472-1.74755.2622-2.67871.40869-.91992.14843-1.84521.28466-2.73193.4458a27.903,27.903,0,0,0-5.19629,1.61133.47815.47815,0,0,1-.40723-.86231,29.27453,29.27453,0,0,1,5.12793-2.51855,53.01805,53.01805,0,0,1,5.44141-1.64258,26.24067,26.24067,0,0,1,11.77979-.15625l.00976.00244a1.88856,1.88856,0,0,1-.85449,3.6792C152.52046,67.472,152.45405,67.45244,152.39155,67.431Z"/><path class="z" d="M194.39546,75.86016a22.68108,22.68108,0,0,1,8.34131,3.59326,37.39144,37.39144,0,0,1,6.51367,5.69824A54.75891,54.75891,0,0,1,214.4521,91.826a62.98977,62.98977,0,0,1,4.1792,7.2622.59706.59706,0,0,1-1.03906.58448l-.0044-.00733a57.948,57.948,0,0,0-10.40625-12.40478,33.99243,33.99243,0,0,0-6.42578-4.52344,18.41157,18.41157,0,0,0-7.0166-2.207,2.36192,2.36192,0,0,1,.38037-4.7085,2.39079,2.39079,0,0,1,.25391.03418Z"/><ellipse class="aa" cx="193.04914" cy="138.47849" rx="6.30467" ry="15.57163" transform="translate(20.93358 302.24814) rotate(-79.22936)"/><ellipse class="aa" cx="122.85466" cy="112.86757" rx="6.30467" ry="10.74726" transform="translate(-10.98336 212.46546) rotate(-79.22936)"/><path class="l" d="M161.21337,83.50676a13.13124,13.13124,0,0,0-9.88769-6.84178,17.68079,17.68079,0,0,0-11.90231,2.87121,13.90214,13.90214,0,0,0-3.897,3.574c-2.52766,3.58416-2.4662,8.61452-.42983,12.49891,3.95488,7.544,14.26984,11.31613,22.23794,8.353C164.64359,101.24408,164.085,89.31594,161.21337,83.50676Z"/><path class="ab" d="M161.15251,101.90762c2.87562-10.63632-1.9619-23.29018-11.45546-25.85684s-20.04816,5.92581-22.92378,16.56213,3.01668,19.38876,12.51024,21.95542S158.27689,112.544,161.15251,101.90762Z"/><ellipse class="z" cx="142.58684" cy="95.36761" rx="15.78837" ry="8.83174" transform="translate(2.66898 194.60964) rotate(-69.12376)"/><ellipse class="ab" cx="151.28672" cy="89.89228" rx="1.31221" ry="3.49369" transform="translate(34.70591 221.71492) rotate(-79.22936)"/><ellipse class="d" cx="142.62089" cy="96.43468" rx="6.66723" ry="3.19646" transform="translate(1.69388 195.32828) rotate(-69.12376)"/><path class="l" d="M206.02911,104.23117A21.36991,21.36991,0,0,0,192.9323,89.90891a13.9361,13.9361,0,0,0-9.30017-.422c-5.91471,2.0816-8.70672,9.47591-7.19431,15.56109s6.32106,10.85573,11.63328,14.18691c3.86767,2.42532,12.10945,6.73018,15.29981,1.79149A21.35073,21.35073,0,0,0,206.02911,104.23117Z"/><path class="ab" d="M204.036,116.92505c2.71662-11.62931-3.8722-25.98307-15.50151-28.69969s-23.89535,7.23263-26.612,18.862,5.14489,20.53491,16.77421,23.25153S201.31939,128.55437,204.036,116.92505Z"/><ellipse class="z" cx="185.35215" cy="109.6184" rx="17.32138" ry="9.68928" transform="matrix(0.35635, -0.93435, 0.93435, 0.35635, 16.87959, 243.74002)"/><ellipse class="ab" cx="194.89677" cy="103.61143" rx="1.43962" ry="3.83292" transform="translate(56.68874 275.71204) rotate(-79.22936)"/><ellipse class="d" cx="185.08023" cy="110.33138" rx="6.34764" ry="3.19646" transform="matrix(0.35635, -0.93435, 0.93435, 0.35635, 16.0384, 243.94486)"/><circle class="aa" cx="151.89191" cy="117.0278" r="6.30467"/><polygon class="a" points="177.753 208.258 193.148 195.208 193.619 187.578 209.895 200.481 198.626 198.961 177.753 208.258"/><polygon class="a" points="177.753 208.258 173.417 194.646 173.804 188.363 160.231 197.193 167.092 198.063 177.753 208.258"/><path class="w" d="M206.9722,211.79632c1.71027-1.86444,3.3998-3.8617,5.66565-4.9823-.11473,2.36822-1.79621,4.403-3.52743,6.08746a41.057,41.057,0,0,1-10.812,7.858c-4.07821,1.9336-7.5974,3.98546-12.19069,4.59492,3.90273-1.32184,8.43471-2.83418,11.69792-5.40477A75.39792,75.39792,0,0,0,206.9722,211.79632Z"/><path class="w" d="M192.4692,226.07621a57.42987,57.42987,0,0,0,26.131-8.63114c.36721-.23078.76939-.73169.45249-1.00745a.66481.66481,0,0,0-.46079-.106c-2.62218.07026-5.07326,1.34486-7.46687,2.4852a89.81093,89.81093,0,0,1-23.11033,7.38474,44.097,44.097,0,0,0,10.55393-.62113"/><path class="w" d="M163.55543,219.71032c1.46749,3.12736,7.16169,8.37106,10.99685,6.15008C171.74576,223.63672,165.314,223.458,163.55543,219.71032Z"/><path class="x" d="M153.03082,215.08257a20.41351,20.41351,0,0,1-4.20962,6.31086.99619.99619,0,0,0-.31424.47322c-.11822.625.93061.77793,1.15219,1.36342.30681.81067-.79349,1.118-1.32842,1.29955-.32207.10932-.61448.21761-.94473.30767a9.39944,9.39944,0,0,1-1.03159.37054l3.75505,1.548a3.97506,3.97506,0,0,1,.81581.41212c.15184-2.061.91671-3.99045,1.26166-6.02356C152.52865,219.13039,152.70132,217.098,153.03082,215.08257Z"/><path class="x" d="M215.23663,220.98277c-.16413,1.78712,1.252,3.24481,2.56207,4.44355a6.581,6.581,0,0,0-.76243.7034c.61816.408,1.04743,1.00862,1.6882,1.39794-.22892.26357-2.45623,1.51894-2.508,1.24132A51.28632,51.28632,0,0,1,215.23663,220.98277Z"/><line class="ac" x1="237.2942" y1="273.08649" x2="218.97137" y2="283.17946"/><line class="ad" x1="220.5405" y1="282.58989" x2="207.97567" y2="289.37418"/><path class="s" d="M176.05989,314.44126s-7.10794-.79895-12.0625-4.22086l11.50556,8.96922Z"/><polygon class="n" points="155.466 277.838 152.859 276.865 152.547 287.796 154.497 287.851 155.466 277.838"/><polygon class="n" points="187.873 279.586 185.161 280.154 184.868 290.439 186.818 290.495 187.873 279.586"/><rect class="d" x="167.79831" y="279.71823" width="3.49787" height="10.40814" transform="translate(8.1801 -4.71131) rotate(1.63136)"/><rect class="ae" x="170.73702" y="281.32034" width="2.32244" height="6.91057" transform="translate(8.17688 -4.7783) rotate(1.63136)"/><path class="l" d="M209.24352,280.65649a57.5619,57.5619,0,0,0,1.78509,6.18287,71.36868,71.36868,0,0,0,4.30693,6.7168l3.63-2.02023L209.9,280.21307Z"/><path class="a" d="M220.73345,271.90513l-11.833,4.91439a19.62389,19.62389,0,0,0,3.1887,9.38261,67.6017,67.6017,0,0,0,6.80989,7.68733l6.7862-4.18931,8.5212-9.27236Z"/><polygon class="s" points="225.496 268.739 230.805 266.852 225.103 266.69 225.496 268.739"/><path class="af" d="M221.08444,45.8462c-.11442.36544,2.83288,2.87056,3.1001,3.13631a56.99232,56.99232,0,0,1,5.57042,6.47418c3.605,4.80389,11.16545,1.59739,14.99958,6.18677,1.30006,1.55614,1.66768,3.66314,2.48287,5.51981,1.06477,2.42512,3.241,3.88745,4.56586,6.06736a21.66912,21.66912,0,0,1,2.79466,8.68254,15.4915,15.4915,0,0,0,2.51383-6.42856c-.09316.62857,1.41042,2.83844,1.69313,3.531a16.691,16.691,0,0,1,1.05316,3.8334,30.55712,30.55712,0,0,1,.033,9.25991c-.40339,2.68235-1.23836,5.43409-3.16659,7.34187a16.45539,16.45539,0,0,0,11.7131-19.82951,28.07371,28.07371,0,0,1,4.47683,8.88981,6.30926,6.30926,0,0,0-.09144-6.25288c2.04894,1.76916,2.59309,4.67644,3.01287,7.35073-.20593-1.31193.52346-3.1104.42861-4.54044a14.44066,14.44066,0,0,0-1.13085-4.73061A86.95645,86.95645,0,0,1,271.599,70.16859l-3.33313-11.43375L223.355,38.595Z"/><path class="ae" d="M285.49687,85.64988q-1.0206-.81824-2.00975-1.67468a69.22838,69.22838,0,0,1-5.27477-5.07933c-1.30718-1.39943-2.74967-2.76728-4.11563-4.04054,1.88856-.74074,4.54886-.14054,6.42,1.09227C283.98193,78.23074,283.26161,83.85784,285.49687,85.64988Z"/><path class="ae" d="M277.10063,89.15767q-.415-1.24053-.78281-2.49617a69.2277,69.2277,0,0,1-1.68418-7.12644c-.3412-1.88434-.81326-3.81539-1.27218-5.62548,1.98883.39987,3.90037,2.345,4.80589,4.39459C279.84434,82.1,276.19178,86.44073,277.10063,89.15767Z"/><path class="a" d="M179.75247,21.99475S188.60626,4.198,207.86051,0L260.892,37.42986s17.94175,24.2611,15.71518,39.559c0,0-35.4179-6.054-47.894-30.30068C228.71317,46.68821,194.39586,45.6284,179.75247,21.99475Z"/><path class="t" d="M209.27361,31.19913c.38855-.69507.33636-21.98027.33636-21.98027s9.56741,25.23981,19.1032,37.46935L212.38005,25.12552Z"/><path class="t" d="M191.38408,14.50888l12.80649-9.14057c-2.86232.22449-20.97976,11.24742-20.97976,11.24742l13.352-6.80288Z"/><path class="z" d="M165.95136,60.71863c-7.24242-.527-14.5945-2.952-19.73262-8.08326s-7.57564-13.28373-4.74282-19.97c3.14626-7.426,11.44037-11.12989,19.21232-13.2843-.60237,3.84788,3.13934,7.11415,6.90722,8.10012s7.79193.55507,11.5698,1.50205a20.56,20.56,0,0,1,9.846,6.15707c6.00654,6.467,7.26009,15.64045.05632,21.81683C183.5857,61.65724,172.65854,61.20672,165.95136,60.71863Z"/><path class="z" d="M208.04905,46.89476c3.744,2.65652,7.50942,4.84888,10.50052,8.44842,1.21426,1.46127,2.34453,3.24589,2.06964,5.12583a5.113,5.113,0,0,1-3.01737,3.6601,13.30925,13.30925,0,0,1-4.811.99208c-7.27754.49681-14.76033-.11914-21.48-2.95723a28.64028,28.64028,0,0,1-6.995-4.16168c-2.85315-2.3282-4.68289-5.506-6.7199-8.50938-1.73175-2.55331-3.7548-4.14012-5.862-6.256-3.02051-3.033-3.62364-7.73325-2.70846-12.03758a17.24723,17.24723,0,0,1,2.93847-6.67309c3.52618-4.69353,11.19894-8.88765,17.20307-7.55318a12.73949,12.73949,0,0,0,.16707,8.529c.77522,2.01564.69,4.41172,1.14747,6.52831a20.11329,20.11329,0,0,0,2.90017,7.41292C196.64774,43.91,203.59029,43.73107,208.04905,46.89476Z"/><path class="z" d="M211.74369,64.55464a21.95754,21.95754,0,0,1-5.73008-3.5549,16.26177,16.26177,0,0,1-4.09364-7.5275,23.03578,23.03578,0,0,1,.29187-14.39587c1.76048-4.55484,5.60761-8.42066,10.36419-9.52556-2.11644,3.45344-.61441,8.20824,2.3531,10.965a86.97576,86.97576,0,0,0,12.94344,9.96137c2.04066,1.25159,4.21853,2.28,6.185,3.64522,4.85041,3.36756,8.45637,13.93.0503,15.785-2.574.568-6.7257-.42984-9.26613-.85205A48.44193,48.44193,0,0,1,211.74369,64.55464Z"/><path class="z" d="M186.3019,41.776c-1.27074-2.57627-.87786-5.68474.12252-8.37754A18.16107,18.16107,0,0,1,198.3767,22.11431c-1.94627,1.82638-1.5484,5.046-.44042,7.47413a17.73922,17.73922,0,0,0,3.57936,5.15972c.95689.95784,2.02522,1.80752,2.89858,2.84209,2.09594,2.4828,2.7382,6.56854.42412,8.84939a7.79028,7.79028,0,0,1-4.40019,1.85562C195.17222,49.08607,188.83323,46.908,186.3019,41.776Z"/><path class="ag" d="M160.68824,19.38112s-5.44733,11.61861,3.10913,14.95822,17.34339-3.88417,17.34339-3.88417-16.4369.88028-19.2935-5.1922S160.68824,19.38112,160.68824,19.38112Z"/><path class="ag" d="M188.27971,17.58s-4.71511,3.84808-3.313,8.55748,3.29591,3.59642,3.29591,3.59642A19.03811,19.03811,0,0,1,188.27971,17.58Z"/><path class="ag" d="M194.63881,29.44166s-3.17906,14.88678,4.06889,17.197,10.01163.29529,10.01163.29529S195.705,39.68053,194.63881,29.44166Z"/><path class="af" d="M181.103,27.691a5.7374,5.7374,0,0,1-2.93652.29437c-1.649-.14145-6.37254.3092-6.03045-2.05177a5.66761,5.66761,0,0,1,1.69871-2.43914c.22079-.22991,1.74967-1.2669,1.77536-1.49574C175.26244,25.09305,178.06155,27.60977,181.103,27.691Z"/><path class="af" d="M212.62386,44.86426c-1.61259-1.75265-7.88168-8.56738-4.79808-11.30126l-2.23484,1.98138a1.5622,1.5622,0,0,0-.51671.662,1.427,1.427,0,0,0,.08015.84674C206.31317,40.60335,210.20015,42.23129,212.62386,44.86426Z"/><path class="af" d="M247.42392,125.72846a17.38146,17.38146,0,0,0,8.55707-.81758c-.19721.06427-1.47335,2.813-2.36782,3.278-1.63171.84818-2.59526.4641-4.30854.10794a85.57017,85.57017,0,0,0-12.53543-1.65546,18.95878,18.95878,0,0,0,15.32024-9.29021C251.79532,118.74244,249.76505,126.1603,247.42392,125.72846Z"/><path class="ag" d="M242.831,120.0923a45.5122,45.5122,0,0,0,3.93617-8.5552,14.64829,14.64829,0,0,1-2.63767,9.37321c-1.36739,1.93-4.78626,5.47863-7.27014,5.04782C239.11345,124.1705,241.22068,122.60673,242.831,120.0923Z"/><line class="ah" x1="292.37138" y1="323.62671" x2="119.52813" y2="208.53268"/><path class="ai" d="M152.15559,278.56869a42.45689,42.45689,0,0,1-8.53568-4.88105,43.10429,43.10429,0,0,1-7.37957-6.87725,35.274,35.274,0,0,1-5.42368-8.75675c-.18678-.4131-.30692-.75307-.459-1.13149l-.44062-1.10742c-.30034-.73712-.54738-1.5022-.81843-2.24858-.52083-1.50736-.98673-3.03623-1.41533-4.569-.85754-3.06552-1.45114-6.14589-2.01252-9.101-.56972-2.96042-1.07759-5.80495-1.76048-8.60389a76.06652,76.06652,0,0,0-2.45466-8.21179,55.89605,55.89605,0,0,0-3.45-7.74846c-.33107-.63042-.70059-1.22893-1.05014-1.84854-.37889-.5929-.74047-1.20333-1.13271-1.79355-.76325-1.19538-1.6023-2.33747-2.46549-3.46067a46.48369,46.48369,0,0,0-5.85678-6.181,42.05652,42.05652,0,0,0-3.36481-2.639c-.58383-.40625-1.172-.79791-1.77618-1.16554-.30661-.181-.60932-.35949-.91345-.52733-.29319-.16647-.63332-.3408-.86948-.46337l-.1265-.06111a1.62054,1.62054,0,0,1,1.20868-2.99484c.46932.145.81606.26623,1.20949.41261.37858.14241.74532.29413,1.11323.45256q1.094.47724,2.152,1.01738a40.0496,40.0496,0,0,1,4.07,2.43865,45.85761,45.85761,0,0,1,3.778,2.86789c.07594.068.1546.132.23086.2-.00273.0041.00117.00671.00528.00944,1.11891.96443,2.19125,1.99034,3.23165,3.04685a56.00871,56.00871,0,0,1,10.54109,15.76189,83.82927,83.82927,0,0,1,3.30664,8.831c.94543,2.98561,1.72015,6.0019,2.42444,8.90757.71471,2.907,1.42948,5.69274,2.29989,8.37434.442,1.33953.91206,2.6631,1.42731,3.9705.27237.64914.52176,1.30609.80747,1.95255l.42589.96481c.14279.31445.28436.67432.42432.94093A29.94253,29.94253,0,0,0,149.244,265.91826a73.932,73.932,0,0,0,6.94888,4.26316c2.427,1.31581,4.9403,2.57943,7.55645,3.68059.67325.28083,1.26806.53254,1.91864.76951.64135.24238,1.31464.47107,2.00127.68016,1.37742.4204,2.82528.84766,4.3237,1.268a.01521.01521,0,0,1,.01094.00136c1.49837.43777,3.04362.90084,4.60508,1.47846.776.29171,1.55464.61368,2.32928.968.3775.18765.79347.37807,1.13224.56333.3413.181.69074.35028,1.03327.52056.73352.37284,1.49338.7057,2.25759,1.024,2.11456.86528,4.31574,1.592,6.36139,2.61329a45.87533,45.87533,0,0,1,7.64925,5.09353c1.711,1.48022,3.21423,3.203,4.8069,4.80041.24279.24259.48421.47835.73213.7128.37349.35839.751.70226,1.1405,1.03661.008.00534.01733.01718.02533.02251.2855.24791.56669.493.85752.73285.29746.2384.63747.55137.95618.82731.46426.4304.9204.87257,1.35773,1.32563.14686.144.29223.29835.43355.45026,1.13116,1.21536,2.15819,2.46513,3.14009,3.67894.967,1.22729,1.91953,2.39841,2.83857,3.5072.4616.5555.93243,1.08866,1.40337,1.58694.46951.50889.927.9579,1.44985,1.47353,2.02462,1.98906,4.15988,3.82087,6.3098,5.55276a73.88675,73.88675,0,0,0,6.60892,4.7648c.27745.17319.5588.349.85349.52209q.30805.18778.624.36365c.08673.05184.18017.10249.27751.15575.27737.15594.55747.30777.8362.45277a29.66939,29.66939,0,0,0,9.633,3.181q1.18179.1631,2.36618.21853c.30015.02646.68659.01818,1.02787.02607l1.05832.02351c.70664.01433,1.405-.0115,2.109-.01051,1.40908-.026,2.81136-.1028,4.21772-.21155.89314-.0752,1.7903-.16493,2.69794-.2708a.015.015,0,0,0,.00944-.00528c1.92748-.22359,3.88943-.51671,5.90636-.831,2.50442-.4053,5.10786-.78528,7.74585-1.06132.46784-.0522.937-.09789,1.40361-.13934a83.223,83.223,0,0,1,9.4272-.3517c1.7103.059,3.43007.182,5.13393.38107a56.60649,56.60649,0,0,1,6.4446,1.09226,49.48858,49.48858,0,0,1,7.02912,2.17454c1.47339.58834,2.9228,1.23007,4.33754,1.94121a46.03743,46.03743,0,0,1,4.107,2.38265c.62262.409,1.24564.83509,1.84432,1.28.0801.05333.15335.108.23065.16514q.89021.65368,1.74042,1.367.908.76917,1.77245,1.59585c.28824.2785.56965.55837.847.85276.28266.30382.53211.57961.843.9541a1.62032,1.62032,0,0,1-2.29714,2.27006L311.554,337.74c-.20005-.16789-.49205-.41449-.75891-.62095-.27193-.21576-.55741-.429-.83878-.63945-.572-.41556-1.16426-.81-1.76422-1.192-.448-.28115-.90565-.55682-1.36709-.81785-.76923-.44878-1.56149-.87229-2.36141-1.2665a46.48261,46.48261,0,0,0-7.96141-3.02035c-1.3731-.36592-2.75041-.69968-4.14355-.94022-.69583-.13429-1.39848-.23253-2.09183-.35361-.08521-.0105-.16671-.01853-.24919-.03313-.6255-.07562-1.2374-.17124-1.86113-.22284a55.9,55.9,0,0,0-8.47978-.19545,76.913,76.913,0,0,0-8.52715.89916c-2.84169.452-5.66618,1.07751-8.61323,1.69617-2.94718.61885-6.01822,1.259-9.17323,1.6526-1.57972.19548-3.17.35516-4.76161.45587-.79709.03512-1.59435.10481-2.39009.11207l-1.19167.0205c-.408.00549-.7719.02313-1.22117.0127a35.27377,35.27377,0,0,1-10.171-1.62751,43.186,43.186,0,0,1-9.191-4.15689,42.418,42.418,0,0,1-7.79483-5.99321,53.56528,53.56528,0,0,1-6.2322-7.34313c-.44947-.63426-.94441-1.33913-1.3807-2.02834-.44956-.6862-.85128-1.37524-1.25957-2.04552-.80974-1.34193-1.51976-2.66934-2.28166-3.89257a32.35587,32.35587,0,0,0-2.37331-3.434c-.21208-.26246-.43079-.5065-.64169-.76226l-.67882-.70606c-.24272-.22535-.4482-.43717-.719-.68092q-.41007-.35976-.82821-.70742c-.35327-.293-.71741-.5702-1.09475-.8271-2.02171-1.404-4.3419-2.41189-6.47936-3.61583-1.26413-.72052-2.48292-1.49178-3.67908-2.30548l-.0041-.00274-.008-.00533-.00391-.0026-.0041-.00273c-1.21223-.79-2.39772-1.61973-3.54589-2.50552-1.82045-1.42-3.54885-3.05619-5.468-4.34572a17.44563,17.44563,0,0,0-1.55214-.9295q-.48207-.25164-.97207-.49137c-.33322-.15845-.604-.26375-.90531-.40067l-.91342-.35419c-.31711-.09583-.62661-.20352-.95055-.298a31.73579,31.73579,0,0,0-4.08376-.86572c-1.42633-.23388-2.92487-.37712-4.47527-.60677-.772-.11564-1.56263-.22059-2.373-.37338-.8-.134-1.64535-.32164-2.4-.48916A53.556,53.556,0,0,1,152.15559,278.56869Z"/><path class="aj" d="M188.9934,293.16056l-.0041-.00274-.008-.00533-.00391-.0026-.0041-.00273c-1.21223-.79-2.39772-1.61973-3.54589-2.50552-1.82045-1.42-3.54885-3.05619-5.468-4.34572a2.37019,2.37019,0,0,1,.01059-.29324,4.17492,4.17492,0,0,1,.71859-2.06787,14.13639,14.13639,0,0,1,2.67282-2.79951c.13594.05584.276.11441.41452.16634,1.98278.79473,4.03613,1.49238,5.94687,2.44695a45.87533,45.87533,0,0,1,7.64925,5.09353c1.79507,1.55341,3.35837,3.36808,5.039,5.02432.16536.16792.32954.32912.5.48889-1.17518.7939-3.16769,1.4882-3.75918,4.72654-2.02171-1.404-4.3419-2.41189-6.47936-3.61583C191.40835,294.74552,190.18956,293.97426,188.9934,293.16056Z"/><path class="ak" d="M202.911,294.35533s-3.393,1.601-3.75918,4.72654"/><path class="al" d="M183.5661,281.47381s-3.393,1.601-3.75918,4.72653Z"/><path class="am" d="M290.01759,328.856a11.2146,11.2146,0,0,1,.41475-4.23941,8.35517,8.35517,0,0,1,.77239-1.76672,49.48858,49.48858,0,0,1,7.02912,2.17454c1.47339.58834,2.9228,1.23007,4.33754,1.94121a46.03743,46.03743,0,0,1,4.107,2.38265c.35871.23322.72.47946,1.07472.7272.26137.18.51344.365.7696.55279.0801.05333.15335.108.23065.16514a5.81239,5.81239,0,0,0-.75277.619,3.609,3.609,0,0,0-1.17565,3.05744c-.76923-.44878-1.56149-.87229-2.36141-1.2665a46.48261,46.48261,0,0,0-7.96141-3.02035c-1.3731-.36592-2.75041-.69968-4.14355-.94022-.69583-.13429-1.39848-.23253-2.09183-.35361C290.18157,328.87862,290.10007,328.87059,290.01759,328.856Z"/><path class="an" d="M307.39145,332.14412s-12.84331-6.50542-17.32662-5.81725l-.08694,1.75524s10.63932,1.096,16.846,5.60034Z"/><path class="ao" d="M197.46705,292.75181c-.41255.498-.628,1.17736-.99059,1.70981a.53443.53443,0,0,1-.23959.22376.56606.56606,0,0,1-.30213-.00658c-.63756-.13132-1.37446-.34313-1.60609-.95146-.24871-.6532.24443-1.34164.74363-1.83085a12.88055,12.88055,0,0,1,1.50947-1.26794,1.3388,1.3388,0,0,1,2.01872.24288.80376.80376,0,0,1,.258.852c-.23024.46433-.97821.56879-1.32686.95375Q197.49852,292.71375,197.46705,292.75181Z"/><path class="ao" d="M194.45357,290.30286c-.41255.498-.628,1.17737-.99059,1.70982a.53443.53443,0,0,1-.23959.22376.56616.56616,0,0,1-.30213-.00658c-.63756-.13132-1.37446-.34313-1.60609-.95146-.24871-.6532.24443-1.34164.74363-1.83085a12.88055,12.88055,0,0,1,1.50947-1.26794,1.3388,1.3388,0,0,1,2.01872.24288.80376.80376,0,0,1,.258.852c-.23024.46433-.97821.56879-1.32686.95375Q194.485,290.26481,194.45357,290.30286Z"/><path class="ao" d="M190.53368,287.47151c-.41255.498-.628,1.17736-.99059,1.70982a.53443.53443,0,0,1-.23959.22376.56616.56616,0,0,1-.30213-.00658c-.63756-.13132-1.37446-.34313-1.60609-.95147-.24871-.65319.24443-1.34163.74363-1.83084a12.88055,12.88055,0,0,1,1.50947-1.26794,1.3388,1.3388,0,0,1,2.01872.24287.80378.80378,0,0,1,.258.852c-.23024.46432-.97821.56879-1.32685.95374Q190.56516,287.43347,190.53368,287.47151Z"/><path class="ao" d="M186.71023,285.37029c-.37941.458-.57756,1.08277-.911,1.57244a.49149.49149,0,0,1-.22035.20578.52058.52058,0,0,1-.27785-.006c-.58634-.12077-1.264-.31556-1.477-.875-.22873-.60072.22479-1.23384.68388-1.68375a11.84647,11.84647,0,0,1,1.38819-1.16607,1.23124,1.23124,0,0,1,1.85653.22336.7392.7392,0,0,1,.23729.78359c-.21174.427-.89961.52309-1.22025.87711Q186.73918,285.3353,186.71023,285.37029Z"/><path class="al" d="M199.37923,296.88773s-14.043-6.957-18.3947-12.46994c0,0-.50518-.4649-.564.847s13.70466,10.5308,18.91454,12.59495Z"/><path class="ap" d="M228.75746,323.20768a73.29485,73.29485,0,0,1-14.74275-13.0508,85.09471,85.09471,0,0,1-6.095-7.90448c-1.53554-2.24676-2.28462-4.66853-3.8429-6.838-.1521-.22253-.31618-.43555-.487-.64739,1.24707,1.18821,2.47405,2.294,3.6584,3.53318.14686.144.29223.29835.43355.45026,1.13116,1.21536,2.15819,2.46513,3.14009,3.67894.967,1.22729,1.91953,2.39841,2.83857,3.5072.4616.5555.93243,1.08866,1.40337,1.58694.46951.50889.927.9579,1.44985,1.47353,2.02462,1.98906,4.15988,3.82087,6.3098,5.55276a73.88675,73.88675,0,0,0,6.60892,4.7648c.27745.17319.5588.349.85349.52209q.30219.18388.624.36365c.08673.05184.18017.10249.27751.15575.27326.1532.54927.30231.8362.45277a26.77661,26.77661,0,0,0,9.633,3.181q1.18179.1631,2.36618.21853c.30015.02646.68659.01818,1.02787.02607l1.05832.02351c.70664.01433,1.405-.0115,2.109-.01051,1.40908-.026,2.81136-.1028,4.21772-.21155.89314-.0752,1.7903-.16493,2.69794-.2708a.015.015,0,0,0,.00944-.00528c1.92748-.22359,3.88943-.51671,5.90636-.831,2.50442-.4053,5.10786-.78528,7.74585-1.06132-5.3277,1.2107-10.74618,2.08943-15.96287,3.71438-7.00138,2.18075-14.69956,2.54636-21.40276-.82011A26.19768,26.19768,0,0,1,228.75746,323.20768Z"/><path class="ap" d="M137.91911,262.71962c-10.23581-13.72249-2.78186-26.7466-13.35963-44.04-4.62588-7.56121-7.75747-12.97841-10.34184-17.08412,1.11891.96443,2.19125,1.99034,3.23165,3.04685a56.00871,56.00871,0,0,1,10.54109,15.76189,83.82927,83.82927,0,0,1,3.30664,8.831c.94543,2.98561,1.72015,6.0019,2.42444,8.90757.71471,2.907,1.42948,5.69274,2.29989,8.37434.442,1.33953.91206,2.6631,1.42731,3.9705.27237.64914.52176,1.30609.80747,1.95255l.42589.96481c.14279.31445.28436.67432.42432.94093A29.94253,29.94253,0,0,0,149.244,265.91826a73.932,73.932,0,0,0,6.94888,4.26316c2.427,1.31581,4.9403,2.57943,7.55645,3.68059.67325.28083,1.26806.53254,1.91864.76951.64135.24238,1.31464.47107,2.00127.68016,1.37742.4204,2.82528.84766,4.3237,1.268C171.396,276.57465,148.02048,276.27139,137.91911,262.71962Z"/><path class="aq" d="M180.98352,284.42l2.18353-2.43819.60882-.68014c1.98278.79473,4.03613,1.49238,5.94687,2.44695a45.87533,45.87533,0,0,1,7.64925,5.09353c1.79507,1.55341,3.35837,3.36808,5.039,5.02432l.06813.20129s-9.6701-7.37149-13.94735-8.78758c-3.79073-1.25369-6.34706-.505-7.34943-.80307C181.05006,284.44115,180.98352,284.42,180.98352,284.42Z"/><path class="ar" d="M307.61312,330.73855a4.17876,4.17876,0,0,0-1.598,3.06407"/><path class="ar" d="M306.87993,330.25033a4.1787,4.1787,0,0,0-1.598,3.06407"/><path class="ar" d="M306.14673,329.7621a4.17876,4.17876,0,0,0-1.598,3.06408"/><path class="ar" d="M305.41354,329.27388a4.17876,4.17876,0,0,0-1.598,3.06407"/><path class="ar" d="M304.44028,328.6258a4.81727,4.81727,0,0,0-1.65974,3.42988"/><path class="ar" d="M303.309,328.11315c.31787-.30291-1.68414,1.4943-1.61727,3.45051"/><path class="ar" d="M302.14862,327.45918s-1.94144,1.68059-1.81774,3.58264"/><path class="ar" d="M300.76346,326.84091s-1.89307,1.77833-1.76937,3.68038"/><path class="ar" d="M299.61452,326.40757s-1.97787,2.0552-1.7266,3.94464"/><path class="ar" d="M298.68765,325.79038s-2.0352,2.20493-1.78393,4.09436"/><path class="ar" d="M297.6433,325.5982s-1.84066,2.0985-1.58938,3.98794"/><path class="ar" d="M296.677,325.3524s-1.9247,2.11966-1.55375,3.98929"/><path class="ar" d="M295.93463,324.85805s-2.08022,2.60239-1.69424,4.469"/><path class="ar" d="M294.832,324.29184s-2.22155,2.87474-1.88782,4.75137"/><path class="ar" d="M293.32318,324.31582s-1.91335,2.56913-1.44888,4.41774"/><path class="ar" d="M292.34586,323.665s-1.94787,3.16361-1.35894,4.97641"/><path class="as" d="M308.26374,331.17179a3.99153,3.99153,0,0,0-1.43876,3.298"/><path class="as" d="M290.93106,323.26085s-1.39076,3.507-1.13562,5.44721"/><path class="at" d="M290.43234,324.61658a8.35517,8.35517,0,0,1,.77239-1.76672,49.48858,49.48858,0,0,1,7.02912,2.17454c1.47339.58834,2.9228,1.23007,4.33754,1.94121a46.03743,46.03743,0,0,1,4.107,2.38265c.35871.23322.72.47946,1.07472.7272.26137.18.74408.53015,1.00025.71793l-.75277.619S303.37316,325.9521,290.43234,324.61658Z"/><path class="am" d="M116.96522,213.6227a11.21407,11.21407,0,0,0,3.7516-2.01744,8.3549,8.3549,0,0,0,1.33224-1.39392,49.488,49.488,0,0,0-4.71687-5.647c-1.111-1.13257-2.262-2.22242-3.46369-3.25353a46.03809,46.03809,0,0,0-3.7821-2.87062c-.35351-.241-.72-.47946-1.08539-.71118-.26683-.17176-.53477-.333-.80681-.49693-.08009-.05333-.15881-.09983-.24131-.14912a5.81139,5.81139,0,0,1-.28082.93323,3.609,3.609,0,0,1-2.36763,2.26371c.71069.53668,1.40695,1.10436,2.07914,1.6904a46.48369,46.48369,0,0,1,5.85678,6.181c.8671,1.1258,1.70615,2.26789,2.4653,3.46054.39223.59023.75382,1.20065,1.1329,1.79368C116.88111,213.48014,116.91994,213.55224,116.96522,213.6227Z"/><path class="an" d="M107.23182,198.86047s10.95483,9.34145,12.04871,13.74339l-1.586.75706s-5.11392-9.39384-11.66322-13.38354Z"/><path class="ar" d="M108.4432,198.11394a4.17873,4.17873,0,0,1-2.21088,2.656"/><path class="ar" d="M109.17639,198.60216a4.17874,4.17874,0,0,1-2.21088,2.656"/><path class="ar" d="M109.90959,199.09038a4.17877,4.17877,0,0,1-2.21089,2.656"/><path class="ar" d="M110.64278,199.57861a4.17873,4.17873,0,0,1-2.21088,2.656"/><path class="ar" d="M111.616,200.22669a4.81727,4.81727,0,0,1-2.5246,2.854"/><path class="ar" d="M112.52528,201.07282c.15691-.41009-.7293,2.13011-2.56,2.82275"/><path class="ar" d="M113.57612,201.89125s-.802,2.43934-2.60461,3.05867"/><path class="ar" d="M114.68071,202.93087s-.9108,2.43241-2.71345,3.05174"/><path class="ar" d="M115.52358,203.82385s-1.13356,2.61742-2.97376,3.11417"/><path class="ar" d="M116.45046,204.44105s-1.24961,2.728-3.08981,3.22479"/><path class="ar" d="M117.03048,205.33052s-1.22642,2.50751-3.06663,3.00426"/><path class="ar" d="M117.62988,206.12728s-1.21354,2.59321-3.08162,2.9719"/><path class="ar" d="M118.37227,206.62163s-1.599,2.92285-3.47,3.2865"/><path class="ar" d="M119.31989,207.42067s-1.79575,3.15827-3.65593,3.574"/><path class="ar" d="M119.87958,208.822s-1.63262,2.75606-3.51737,3.04036"/><path class="ar" d="M120.8569,209.47281s-2.16781,3.01714-4.06752,3.1728"/><path class="as" d="M107.79258,197.6807a3.99154,3.99154,0,0,1-2.48814,2.59924"/><path class="as" d="M121.77539,210.62233s-2.69946,2.63554-4.588,3.1483"/><path class="at" d="M120.71682,211.60526a8.3549,8.3549,0,0,0,1.33224-1.39392,49.488,49.488,0,0,0-4.71687-5.647c-1.111-1.13257-2.262-2.22242-3.46369-3.25353a46.03809,46.03809,0,0,0-3.7821-2.87062c-.35351-.241-.72-.47946-1.08539-.71118-.26683-.17176-.77608-.4821-1.04812-.64605l-.28082.93323S114.49446,200.18027,120.71682,211.60526Z"/><path class="ag" d="M260.299,119.99729a46.74717,46.74717,0,0,1,4.11855-4.15949c-.01737,2.61069-1.864,4.93221-4.11684,6.25154-1.86768,1.09376-4.65741,2.20441-6.847,1.97074A18.56389,18.56389,0,0,0,260.299,119.99729Z"/><path class="ab" d="M151.60293,112.73751a1.73572,1.73572,0,0,0-3.225,1.03232c.14254.44528.8255.09243,1.716-.19264S151.74546,113.18279,151.60293,112.73751Z"/><path class="b" d="M210.78412,294.87741c.349-2.42022-3.15475-5.0669-4.114-7.90653-.907-2.68481-.16437-4.33172-3.91433-4.31023-5.98874.03433-11.13224.56408-13.44742,6.1256a10.8518,10.8518,0,0,0,6.48348,14.20663c4.15893,1.59392,8.65175.01567,11.55683-2.21861A12.44611,12.44611,0,0,0,210.78412,294.87741Z"/><circle class="au" cx="84.69195" cy="182.60874" r="80.68085"/><circle class="av" cx="80.69195" cy="177.60874" r="80.68085"/><circle class="aw" cx="80.75403" cy="178.01945" r="69.10638"/><circle class="ax" cx="80.81611" cy="178.43015" r="57.53191"/><circle class="ay" cx="80.87819" cy="178.84086" r="45.95745"/><circle class="az" cx="80.94027" cy="179.25156" r="34.38298"/><circle class="ba" cx="81.00235" cy="179.66227" r="22.80851"/><circle class="bb" cx="81.06443" cy="180.07297" r="11.23404"/><path class="bc" d="M61.26054,257.46943,54.7963,278.76536,69.56471,276.533l5.26155-16.44032A73.79907,73.79907,0,0,1,61.26054,257.46943Z"/><polygon class="z" points="74.826 260.093 75.366 263.665 71.989 274.365 69.565 276.533 74.826 260.093"/><path class="bc" d="M123.93161,247.99636l12.46962,18.434-14.76841,2.23232-9.88554-14.15075A73.79976,73.79976,0,0,0,123.93161,247.99636Z"/><polygon class="z" points="111.747 254.512 112.287 258.084 118.676 267.308 121.633 268.663 111.747 254.512"/><path class="bd" d="M75.28127,201.56084,102.716,177.58613a2.52175,2.52175,0,0,0-.63536-4.20333l-33.295-14.7951a2.52174,2.52174,0,0,0-3.51744,2.68136l5.86026,38.76982A2.52174,2.52174,0,0,0,75.28127,201.56084Z"/></svg>