<svg xmlns="http://www.w3.org/2000/svg" viewBox="0 0 165.36172 176.96678"><defs><style>.a{fill:#878787;}.b{fill:#f6f6f6;}.c{fill:#29235c;}.d{fill:#1d71b8;}.e{fill:#36a9e1;}.f{fill:#e30613;}.g{fill:#f39200;}.h,.k{fill:#ffc931;}.i{fill:#874a31;}.j{fill:#683c11;}.k{stroke:#fff;stroke-miterlimit:10;stroke-width:3.6646px;}</style></defs><circle class="a" cx="84.68086" cy="85.68086" r="80.68085"/><circle class="b" cx="80.68086" cy="80.68086" r="80.68085"/><circle class="c" cx="80.68225" cy="81.09623" r="69.10638"/><circle class="d" cx="80.68364" cy="81.5116" r="57.53191"/><circle class="e" cx="80.68503" cy="81.92696" r="45.95745"/><circle class="f" cx="80.68642" cy="82.34233" r="34.38298"/><circle class="g" cx="80.68781" cy="82.7577" r="22.80851"/><circle class="h" cx="80.6892" cy="83.17307" r="11.23404"/><path class="i" d="M49.7867,156.84423l-9.50716,20.12255,14.93608-.05,7.60775-15.49484A73.799,73.799,0,0,1,49.7867,156.84423Z"/><polygon class="j" points="62.823 161.422 62.835 165.035 57.931 175.126 55.216 176.917 62.823 161.422"/><path class="i" d="M113.16932,156.63206l9.64167,20.05845-14.93609.05L100.16359,161.297A73.79969,73.79969,0,0,0,113.16932,156.63206Z"/><polygon class="j" points="100.164 161.297 100.176 164.91 105.148 174.968 107.875 176.741 100.164 161.297"/><path class="k" d="M114.54967,95.24041a7,7,0,0,0-9.64062,2.24853,28.74385,28.74385,0,1,1-4.07471-35.4248l-5.6748,1.95019,21.061,18.32764,5.34375-27.40137-6.53662,2.2461a42.72735,42.72735,0,1,0,1.77,47.69482A6.99965,6.99965,0,0,0,114.54967,95.24041Z"/></svg>